<?xml version="1.0" encoding="utf-8"?>
<!-- Generator: Adobe Illustrator 19.2.0, SVG Export Plug-In . SVG Version: 6.00 Build 0)  -->
<svg version="1.1" id="Layer_1" xmlns="http://www.w3.org/2000/svg" xmlns:xlink="http://www.w3.org/1999/xlink" x="0px" y="0px"
	 viewBox="0 0 600 317" style="enable-background:new 0 0 600 317;" xml:space="preserve">
<style type="text/css">
	.st0{fill:#484AB8;}
	.st1{fill:#8E939C;}
	.st2{fill:#B85548;}
	.st3{fill:#FFFFFF;}
	.st4{fill:#6063C9;}
</style>
<g>
	<g>
		<path class="st0" d="M441,199.8v-3.5c23,0,44.9-10.4,58.8-27.1c9-10.9,18.7-29.5,13.6-56.5l3.5-0.7c5.4,28.4-4.9,48-14.4,59.4
			C488,188.9,465,199.8,441,199.8z"/>
	</g>
	<g>
		<path class="st1" d="M91.4,315.7l0-2l4,0l0,2L91.4,315.7z M87,315.7c-1,0-2.5,0-3.8,0l-0.1-2c1.3,0,2.9,0,3.9,0V315.7z
			 M99.4,315.7l0-2l4,0l0,2L99.4,315.7z M79.4,315.7c-1.4,0-2.7,0-4,0l0-2c1.3,0,2.6,0,4,0L79.4,315.7z M107.4,315.7l0-2l4,0l0,2
			L107.4,315.7z M115.4,315.6l0-2l4,0l0,2L115.4,315.6z M123.4,315.6l0-2l4,0l0,2L123.4,315.6z M71.3,315.6c-1.4,0-2.7,0-4-0.1l0-2
			c1.3,0,2.6,0,4,0.1L71.3,315.6z M131.4,315.6l0-2l4,0l0,2L131.4,315.6z M139.2,315.6l-0.1-2l3.9,0v2L139.2,315.6z M147.4,315.6
			l0-2l4,0l0,2L147.4,315.6z M155.4,315.5l0-2l4,0l0,2L155.4,315.5z M163.4,315.5l0-2c1.3,0,2.7,0,4,0l0,2
			C166,315.4,164.7,315.5,163.4,315.5z M63.3,315.4c-1.4,0-2.7-0.1-4-0.1l0.1-2c1.3,0,2.6,0.1,4,0.1L63.3,315.4z M171.4,315.4l0-2
			c1.3,0,2.7,0,4-0.1l0,2C174,315.3,172.7,315.3,171.4,315.4z M179.4,315.2l0-2c1.3,0,2.7-0.1,4-0.1l0.1,2
			C182,315.1,180.7,315.2,179.4,315.2z M55.3,315.2c-1.4-0.1-2.7-0.1-4-0.2l0.1-2c1.3,0.1,2.6,0.1,4,0.2L55.3,315.2z M187.4,315
			l-0.1-2c1.3,0,2.7-0.1,4-0.1l0.1,2C190,314.9,188.7,315,187.4,315z M195.4,314.7l-0.1-2c1.3-0.1,2.7-0.1,4-0.2l0.1,2
			C198.1,314.6,196.7,314.6,195.4,314.7z M47.3,314.7c-1.4-0.1-2.7-0.2-4-0.3l0.2-2c1.3,0.1,2.6,0.2,4,0.3L47.3,314.7z M203.4,314.3
			l-0.1-2c1.3-0.1,2.7-0.1,4-0.2l0.1,2C206.1,314.2,204.7,314.3,203.4,314.3z M39.3,313.9c-1.4-0.2-2.7-0.4-4-0.6l0.3-2
			c1.2,0.2,2.6,0.4,3.9,0.6L39.3,313.9z M211.4,313.8l-0.1-2c1.3-0.1,2.7-0.2,4-0.3l0.2,2C214,313.7,212.7,313.7,211.4,313.8z
			 M219.3,313.2l-0.2-2c1.3-0.1,2.7-0.2,4-0.4l0.2,2C222,313,220.7,313.1,219.3,313.2z M31.4,312.6c-1.4-0.3-2.7-0.6-3.9-0.9
			l0.5-1.9c1.2,0.3,2.5,0.6,3.8,0.9L31.4,312.6z M227.3,312.4l-0.2-2c1.3-0.2,2.7-0.3,4-0.5l0.3,2
			C230,312.1,228.7,312.3,227.3,312.4z M235.3,311.4l-0.3-2c1.3-0.2,2.7-0.4,3.9-0.6l0.3,2C238,311,236.6,311.2,235.3,311.4z
			 M23.5,310.4c-1.3-0.5-2.6-1-3.8-1.6l0.9-1.8c1.1,0.5,2.3,1,3.6,1.5L23.5,310.4z M243.2,310.1l-0.4-2c1.3-0.3,2.6-0.5,3.9-0.8
			l0.4,2C245.9,309.6,244.6,309.8,243.2,310.1z M251.1,308.4l-0.5-1.9c1.3-0.3,2.6-0.7,3.8-1l0.6,1.9
			C253.7,307.7,252.4,308,251.1,308.4z M16.2,306.8c-1.2-0.8-2.2-1.7-3.2-2.6l1.4-1.4c0.9,0.9,1.9,1.7,2.9,2.4L16.2,306.8z
			 M258.8,306.1l-0.7-1.9c1.3-0.4,2.5-0.9,3.7-1.4l0.8,1.8C261.4,305.1,260.1,305.6,258.8,306.1z M266.3,302.9l-0.9-1.8
			c1.2-0.6,2.3-1.2,3.4-1.9l1,1.7C268.7,301.7,267.5,302.3,266.3,302.9z M10.3,301c-0.8-1.1-1.5-2.3-2.1-3.6l1.8-0.9
			c0.6,1.2,1.2,2.3,1.9,3.3L10.3,301z M273.2,298.7l-1.2-1.6c1-0.8,2-1.6,3-2.5l1.4,1.5C275.4,297,274.3,297.9,273.2,298.7z
			 M6.7,293.6c-0.4-1.2-0.8-2.5-1.1-3.9l1.9-0.4c0.3,1.3,0.7,2.6,1,3.7L6.7,293.6z M279.1,293.1l-1.5-1.3c0.8-1,1.6-2,2.3-3.1
			l1.7,1.1C280.8,290.9,280,292.1,279.1,293.1z M283.5,286.2l-1.8-0.9c0.6-1.1,1.1-2.3,1.5-3.6l1.9,0.7
			C284.7,283.8,284.1,285,283.5,286.2z M4.8,285.7c-0.2-1.3-0.4-2.6-0.5-4l2-0.2c0.1,1.4,0.3,2.7,0.5,3.9L4.8,285.7z M286.4,278.6
			l-1.9-0.5c0.3-1.2,0.6-2.5,0.9-3.8l2,0.4C287,276,286.7,277.3,286.4,278.6z M3.9,277.7c-0.1-1.3-0.2-2.6-0.2-4l2-0.1
			c0.1,1.4,0.1,2.7,0.2,4L3.9,277.7z M288,270.7l-2-0.3c0.2-1.2,0.4-2.6,0.5-3.9l2,0.2C288.4,268,288.2,269.4,288,270.7z M3.6,269.6
			c0-1.3,0-2.6-0.1-4l2,0c0,1.4,0,2.7,0.1,4L3.6,269.6z M288.9,262.6l-2-0.1c0.1-1.3,0.2-2.6,0.2-4l2,0.1
			C289.1,260,289,261.3,288.9,262.6z M5.5,261.6l-2,0c0-1.3,0-2.6,0-4l2,0C5.5,259,5.5,260.3,5.5,261.6z M289.3,254.6l-2-0.1
			c0-1.3,0.1-2.6,0.1-4l2,0C289.4,252,289.3,253.3,289.3,254.6z M5.6,253.6l-2,0l0-4l2,0L5.6,253.6z M289.5,246.6l-2,0
			c0-1.3,0-2.6,0-4l2,0C289.5,244,289.5,245.3,289.5,246.6z M5.7,245.6l-2,0l0.1-4l2,0L5.7,245.6z M289.5,238.6l-2,0l0-3.4
			c0-1.3,0-2.7,0-4l2,0c0,1.3,0,2.6,0,4L289.5,238.6z M5.8,237.6l-2,0l0-4l2,0L5.8,237.6z M5.9,229.6l-2,0c0-1.3,0-2.6,0-4l2,0
			C5.9,227,5.9,228.3,5.9,229.6z M289.5,227.1l-2,0l0-4l2,0L289.5,227.1z M5.9,222h-2l0-4.2l2,0.1L5.9,222z M289.6,219.1l-2,0l0-4
			l2,0L289.6,219.1z M3.9,213.6l0-4l2,0l0,4L3.9,213.6z M289.6,211.1l-2,0l0-4l2,0L289.6,211.1z M3.8,205.6l0-4l2,0l0,4L3.8,205.6z
			 M289.7,203.1l-2,0l0-1.9l0-2.1l2,0l0,2.1L289.7,203.1z M3.8,197.6l0-4l2,0l0,4L3.8,197.6z M287.6,195.2c0-1.4,0-2.7-0.1-4l2,0
			c0,1.3,0,2.6,0.1,4L287.6,195.2z M3.7,189.6c0-1.4,0-2.7,0-4l2,0c0,1.3,0,2.6,0,4L3.7,189.6z M287.5,187.2c0-1.4-0.1-2.7-0.1-4
			l2-0.1c0.1,1.3,0.1,2.6,0.1,4L287.5,187.2z M5.7,182h-2c0-2,0-2.9,0-4.2l2,0.1C5.7,179.2,5.7,180,5.7,182z M287.2,179.2
			c-0.1-1.3-0.2-2.7-0.3-4l2-0.2c0.1,1.3,0.2,2.6,0.3,4L287.2,179.2z M5.7,173.6l-2,0c0-1.4,0-2.7,0.1-4l2,0
			C5.8,170.9,5.7,172.3,5.7,173.6z M286.5,171.3c-0.2-1.3-0.3-2.7-0.5-3.9l2-0.3c0.2,1.3,0.4,2.6,0.5,4L286.5,171.3z M5.9,165.7
			l-2-0.1c0.1-1.4,0.1-2.7,0.2-4l2,0.1C6,163,6,164.3,5.9,165.7z M285.3,163.5c-0.3-1.3-0.5-2.6-0.9-3.8l1.9-0.5
			c0.3,1.3,0.6,2.6,0.9,3.9L285.3,163.5z M6.4,157.7l-2-0.2c0.1-1.4,0.2-2.7,0.4-4l2,0.2C6.6,155,6.5,156.4,6.4,157.7z M283.3,155.9
			c-0.4-1.3-0.9-2.5-1.3-3.7l1.8-0.8c0.5,1.2,1,2.5,1.4,3.8L283.3,155.9z M7.3,149.9l-2-0.3c0.2-1.4,0.5-2.7,0.8-4l2,0.4
			C7.8,147.2,7.5,148.5,7.3,149.9z M280.4,148.7c-0.6-1.2-1.3-2.3-2-3.3l1.7-1.1c0.7,1.1,1.4,2.3,2.1,3.5L280.4,148.7z M276.1,142.2
			c-0.8-1-1.7-1.9-2.6-2.8l1.4-1.4c1,0.9,1.9,2,2.8,3L276.1,142.2z M9,142.2l-1.9-0.6c0.4-1.4,0.9-2.7,1.4-3.8l1.8,0.8
			C9.8,139.7,9.4,140.9,9,142.2z M270.5,136.9c-1-0.8-2.1-1.5-3.2-2.3l1.1-1.7c1.2,0.7,2.3,1.5,3.3,2.4L270.5,136.9z M12.1,135.1
			l-1.7-1c0.7-1.2,1.5-2.3,2.4-3.4l1.5,1.3C13.5,133,12.7,134,12.1,135.1z M264,132.6c-1.1-0.6-2.3-1.2-3.5-1.7l0.8-1.8
			c1.3,0.6,2.5,1.2,3.6,1.8L264,132.6z M256.8,129.4c-1.2-0.4-2.4-0.9-3.7-1.3l0.6-1.9c1.3,0.4,2.6,0.9,3.8,1.3L256.8,129.4z
			 M16.9,129.3l-1.3-1.5c1-0.9,2.1-1.7,3.3-2.4l1.1,1.7C18.9,127.8,17.9,128.5,16.9,129.3z M249.3,127c-1.2-0.3-2.5-0.7-3.8-1
			l0.5-1.9c1.3,0.3,2.6,0.7,3.9,1L249.3,127z M23.4,125.3l-0.8-1.8c1.2-0.5,2.5-1,3.8-1.5l0.6,1.9C25.7,124.3,24.5,124.7,23.4,125.3
			z M241.6,125.1c-1.3-0.3-2.6-0.5-3.9-0.8l0.4-2c1.4,0.2,2.7,0.5,3.9,0.8L241.6,125.1z M233.8,123.7c-1.3-0.2-2.6-0.4-3.9-0.6
			l0.3-2c1.4,0.2,2.7,0.4,4,0.6L233.8,123.7z M30.8,122.7l-0.5-1.9c1.2-0.3,2.6-0.6,3.9-0.9l0.4,2C33.3,122.1,32,122.4,30.8,122.7z
			 M225.9,122.6c-1.3-0.2-2.6-0.3-4-0.5l0.2-2c1.4,0.1,2.7,0.3,4,0.5L225.9,122.6z M218,121.7c-1.3-0.1-2.6-0.2-4-0.4l0.2-2
			c1.4,0.1,2.7,0.2,4,0.4L218,121.7z M38.5,121.2l-0.3-2c1.3-0.2,2.6-0.4,4-0.5l0.2,2C41.1,120.8,39.7,121,38.5,121.2z M210.1,121.1
			c-1.3-0.1-2.6-0.2-4-0.3l0.1-2c1.4,0.1,2.7,0.2,4,0.3L210.1,121.1z M202.1,120.6c-1.3-0.1-2.6-0.1-4-0.2l0.1-2
			c1.4,0.1,2.7,0.1,4,0.2L202.1,120.6z M46.4,120.2l-0.2-2c1.3-0.1,2.6-0.2,4-0.3l0.1,2C49,120,47.6,120.1,46.4,120.2z M194.1,120.1
			c-1.3-0.1-2.6-0.1-4-0.2l0.1-2c1.4,0.1,2.7,0.1,4,0.2L194.1,120.1z M186.2,119.8c-1.3,0-2.6-0.1-4-0.1l0.1-2c1.4,0,2.7,0.1,4,0.1
			L186.2,119.8z M54.3,119.6l-0.1-2c1.3-0.1,2.6-0.1,4-0.2l0.1,2C56.9,119.5,55.6,119.6,54.3,119.6z M178.2,119.6
			c-1.3,0-2.6-0.1-4-0.1l0-2c1.3,0,2.7,0.1,4,0.1L178.2,119.6z M170.2,119.5c-1.3,0-2.6,0-4-0.1l0-2c1.3,0,2.7,0,4,0.1L170.2,119.5z
			 M162.2,119.3c-1.3,0-2.7,0-4,0l0-2c1.3,0,2.7,0,4,0L162.2,119.3z M62.3,119.3l-0.1-2c1.3,0,2.6-0.1,4-0.1l0,2
			C64.9,119.2,63.6,119.3,62.3,119.3z M154.2,119.3l-4,0l0-2l4,0L154.2,119.3z M146.1,119.3l-4.1,0v-2l4.1,0L146.1,119.3z
			 M138.2,119.2l-4,0l0-2l4,0L138.2,119.2z M130.2,119.2l-4,0l0-2l4,0L130.2,119.2z M122.2,119.2l-4,0l0-2l4,0L122.2,119.2z
			 M114.2,119.2l-4,0l0-2l4,0L114.2,119.2z M70.2,119.1l0-2c1.3,0,2.6,0,4-0.1l0,2C72.9,119.1,71.5,119.1,70.2,119.1z M106.2,119.1
			l-4,0l0-2l4,0L106.2,119.1z M98.2,119.1l-4,0l0-2l4,0L98.2,119.1z M78.2,119l0-2c1.3,0,2.6,0,4,0l0,2C80.9,119,79.5,119,78.2,119z
			 M90.1,119l-4.1,0v-2l4.1,0L90.1,119z"/>
	</g>
	<g>
		<path class="st1" d="M532.1,256.4l-4,0l0-2l4,0L532.1,256.4z M536.1,256.4l0-2c1.4,0,2.7-0.1,4-0.1l0.1,2
			C538.8,256.3,537.4,256.4,536.1,256.4z M524.1,256.4l-4,0l0-2l4,0L524.1,256.4z M516,256.3c-1.3,0-2.7,0-4,0l0-2c1.3,0,2.7,0,4,0
			L516,256.3z M508,256.2c-1.3,0-2.7,0-4-0.1l0-2c1.3,0,2.7,0.1,4,0.1L508,256.2z M544.1,256l-0.1-2c1.3-0.1,2.7-0.2,3.9-0.3l0.2,2
			C546.8,255.8,545.5,255.9,544.1,256z M500,256c-1.3,0-2.7-0.1-4-0.1l0.1-2c1.3,0,2.7,0.1,4,0.1L500,256z M492,255.8
			c-1.3,0-2.7-0.1-4-0.1l0.1-2c1.3,0.1,2.7,0.1,4,0.1L492,255.8z M484,255.5c-1.3-0.1-2.7-0.1-4-0.2l0.1-2c1.3,0.1,2.7,0.1,4,0.2
			L484,255.5z M552.1,255.2l-0.3-2c1.3-0.2,2.6-0.4,3.9-0.7l0.4,2C554.8,254.8,553.5,255,552.1,255.2z M476,255.1
			c-1.3-0.1-2.7-0.2-4-0.2l0.1-2c1.3,0.1,2.6,0.2,4,0.2L476,255.1z M468,254.5c-1.3-0.1-2.7-0.2-4-0.3l0.2-2c1.3,0.1,2.6,0.2,4,0.3
			L468,254.5z M460,253.9c-1.3-0.1-2.7-0.2-4-0.4l0.2-2c1.3,0.1,2.6,0.3,4,0.4L460,253.9z M560.1,253.7l-0.5-1.9
			c1.3-0.3,2.6-0.7,3.8-1.1l0.6,1.9C562.7,253,561.4,253.3,560.1,253.7z M452,253.1c-1.3-0.1-2.7-0.3-4-0.5l0.2-2
			c1.3,0.2,2.6,0.3,4,0.5L452,253.1z M444.1,252.1c-1.3-0.2-2.7-0.4-4-0.6l0.3-2c1.3,0.2,2.6,0.4,3.9,0.6L444.1,252.1z M567.8,251.2
			l-0.7-1.9c1.2-0.5,2.4-1,3.6-1.6l0.9,1.8C570.3,250.1,569.1,250.7,567.8,251.2z M436.1,250.9c-1.3-0.2-2.7-0.5-4-0.7l0.4-2
			c1.3,0.2,2.6,0.5,3.9,0.7L436.1,250.9z M428.2,249.4c-1.3-0.3-2.6-0.6-3.9-0.9l0.4-1.9c1.3,0.3,2.6,0.6,3.9,0.8L428.2,249.4z
			 M420.4,247.6c-1.3-0.3-2.6-0.7-3.9-1l0.5-1.9c1.3,0.4,2.5,0.7,3.8,1L420.4,247.6z M575.1,247.5l-1.1-1.7c1.1-0.7,2.2-1.4,3.2-2.2
			l1.2,1.6C577.4,246,576.3,246.8,575.1,247.5z M412.7,245.4c-1.3-0.4-2.6-0.9-3.8-1.3l0.7-1.9c1.2,0.4,2.5,0.9,3.8,1.3L412.7,245.4
			z M405.1,242.7c-1.3-0.5-2.5-1.1-3.7-1.6l0.8-1.8c1.2,0.5,2.4,1.1,3.6,1.6L405.1,242.7z M581.5,242.5l-1.4-1.4
			c0.9-0.9,1.8-1.9,2.6-2.9l1.6,1.3C583.4,240.5,582.5,241.5,581.5,242.5z M397.7,239.3c-1.2-0.6-2.4-1.3-3.5-2l1-1.7
			c1.1,0.7,2.2,1.3,3.4,1.9L397.7,239.3z M586.6,236.1L585,235c0.7-1.1,1.3-2.2,1.9-3.4l1.8,0.9C588.1,233.8,587.4,235,586.6,236.1z
			 M390.8,235c-1.1-0.8-2.2-1.7-3.2-2.5l1.3-1.5c1,0.8,2,1.6,3.1,2.4L390.8,235z M384.6,229.7c-1-1-1.9-2-2.7-3.1l1.6-1.2
			c0.8,1,1.6,2,2.6,2.9L384.6,229.7z M590.4,228.9l-1.9-0.8c0.5-1.2,0.9-2.4,1.3-3.7l1.9,0.6C591.3,226.3,590.9,227.6,590.4,228.9z
			 M379.6,223.3c-0.7-1.2-1.4-2.4-1.9-3.6l1.8-0.8c0.5,1.2,1.2,2.3,1.8,3.4L379.6,223.3z M592.9,221.1l-1.9-0.5
			c0.3-1.2,0.6-2.5,0.9-3.8l2,0.4C593.5,218.5,593.2,219.9,592.9,221.1z M376.1,215.9c-0.4-1.3-0.8-2.6-1.1-3.9l2-0.4
			c0.3,1.3,0.6,2.5,1,3.7L376.1,215.9z M594.5,213.2l-2-0.3c0.2-1.3,0.4-2.6,0.6-3.9l2,0.2C594.9,210.6,594.7,211.9,594.5,213.2z
			 M374.4,207.9c-0.1-1.3-0.2-2.7-0.3-4.1l2,0c0,1.3,0.1,2.6,0.3,3.9L374.4,207.9z M595.5,205.2l-2-0.2c0.1-1.3,0.2-2.6,0.3-4l2,0.1
			C595.8,202.6,595.7,203.9,595.5,205.2z M376.2,199.8l-2,0c0-1.4,0.1-2.7,0.1-4l2,0.1C376.2,197.2,376.2,198.5,376.2,199.8z
			 M596.1,197.2l-2-0.1c0.1-1.3,0.1-2.6,0.2-4l2,0.1C596.2,194.6,596.2,195.9,596.1,197.2z M376.5,191.9l-2-0.1
			c0.1-1.4,0.2-2.7,0.3-4l2,0.2C376.7,189.2,376.6,190.5,376.5,191.9z M596.4,189.2l-2,0c0-1.3,0-2.6,0.1-4l2,0
			C596.4,186.5,596.4,187.9,596.4,189.2z M377.2,184l-2-0.2c0.2-1.4,0.3-2.7,0.5-4l2,0.3C377.5,181.3,377.3,182.6,377.2,184z
			 M596,181.2l-2,0v-0.7c0-1.1,0.2-2.1,0.2-3.2l1.9-0.1c0,1.1,0,2.2,0,3.3V181.2z M378.4,176.2l-2-0.4c0.3-1.3,0.5-2.7,0.8-3.9
			l1.9,0.5C378.9,173.5,378.6,174.8,378.4,176.2z M594.1,173.3c-0.1-1.3-0.3-2.6-0.5-3.9l2-0.3c0.2,1.3,0.4,2.7,0.5,4L594.1,173.3z
			 M380.2,168.5l-1.9-0.5c0.4-1.3,0.8-2.6,1.2-3.9l1.9,0.6C380.9,165.9,380.5,167.2,380.2,168.5z M593,165.5
			c-0.3-1.3-0.6-2.6-0.9-3.9l1.9-0.5c0.3,1.3,0.6,2.6,0.9,3.9L593,165.5z M382.6,161l-1.9-0.7c0.5-1.3,1-2.5,1.5-3.7l1.8,0.8
			C383.6,158.5,383.1,159.7,382.6,161z M591,157.8c-0.4-1.3-0.8-2.5-1.3-3.7l1.9-0.7c0.5,1.3,0.9,2.6,1.3,3.8L591,157.8z
			 M385.8,153.8l-1.8-0.9c0.6-1.2,1.3-2.4,2-3.5l1.7,1C387.1,151.5,386.4,152.6,385.8,153.8z M588.2,150.4c-0.5-1.2-1.1-2.4-1.7-3.6
			l1.8-0.9c0.6,1.2,1.2,2.4,1.7,3.7L588.2,150.4z M389.9,147.1l-1.6-1.1c0.8-1.1,1.6-2.2,2.4-3.3l1.6,1.2
			C391.4,144.9,390.6,146,389.9,147.1z M584.7,143.4c-0.7-1.1-1.4-2.3-2.1-3.4l1.7-1.1c0.7,1.1,1.5,2.3,2.1,3.5L584.7,143.4z
			 M394.8,140.9l-1.5-1.3c0.9-1,1.9-2,2.8-2.9l1.4,1.4C396.6,139,395.6,140,394.8,140.9z M580.3,136.8c-0.8-1.1-1.6-2.1-2.5-3.1
			l1.5-1.3c0.9,1,1.7,2.1,2.5,3.2L580.3,136.8z M400.4,135.5l-1.3-1.5c1-0.9,2.1-1.7,3.2-2.5l1.2,1.6
			C402.5,133.8,401.4,134.7,400.4,135.5z M406.8,130.8l-1.1-1.7c1.1-0.7,2.3-1.4,3.5-2.1l1,1.7C409,129.5,407.8,130.1,406.8,130.8z
			 M575.2,130.8c-0.9-0.9-1.9-1.8-2.8-2.7l1.3-1.5c1,0.9,2,1.8,2.9,2.8L575.2,130.8z M413.6,126.9l-0.9-1.8c1.2-0.6,2.4-1.2,3.7-1.7
			l0.8,1.8C416,125.8,414.8,126.4,413.6,126.9z M569.3,125.6c-1-0.8-2.1-1.6-3.2-2.3l1.1-1.7c1.1,0.8,2.2,1.6,3.3,2.4L569.3,125.6z
			 M420.8,123.8l-0.7-1.9c1.2-0.5,2.5-0.9,3.8-1.4l0.7,1.9C423.3,122.8,422,123.3,420.8,123.8z M428.3,121.2l-0.6-1.9
			c1.3-0.4,2.6-0.8,3.9-1.1l0.5,1.9C430.8,120.4,429.6,120.8,428.3,121.2z M562.8,121.2c-1.1-0.7-2.3-1.3-3.5-1.9l0.9-1.8
			c1.2,0.6,2.4,1.2,3.6,1.9L562.8,121.2z M436,119.1l-0.5-1.9c1.3-0.3,2.6-0.6,3.9-0.9l0.4,2C438.5,118.5,437.2,118.8,436,119.1z
			 M555.8,117.7c-1.2-0.5-2.4-1-3.7-1.4l0.6-1.9c1.3,0.4,2.6,0.9,3.8,1.4L555.8,117.7z M443.7,117.5l-0.4-2c1.3-0.2,2.6-0.5,4-0.7
			l0.3,2C446.3,117,445,117.2,443.7,117.5z M451.6,116.2l-0.3-2c1.3-0.2,2.6-0.4,4-0.5l0.3,2C454.2,115.8,452.9,116,451.6,116.2z
			 M459.5,115.2l-0.2-2c1.3-0.1,2.6-0.3,4-0.4l0.2,2C462.1,114.9,460.8,115,459.5,115.2z M548.4,115.1c-1.3-0.3-2.5-0.7-3.8-0.9
			l0.4-2c1.3,0.3,2.6,0.6,3.9,1L548.4,115.1z M467.4,114.4l-0.2-2c1.3-0.1,2.7-0.2,4-0.3l0.1,2C470.1,114.2,468.7,114.3,467.4,114.4
			z M475.4,113.8l-0.1-2c1.3-0.1,2.7-0.2,4-0.2l0.1,2C478,113.7,476.7,113.7,475.4,113.8z M540.7,113.5c-1.3-0.2-2.6-0.4-3.9-0.5
			l0.2-2c1.3,0.1,2.7,0.3,4,0.5L540.7,113.5z M483.4,113.4l-0.1-2c1.3-0.1,2.7-0.1,4-0.2l0.1,2C486,113.3,484.7,113.3,483.4,113.4z
			 M491.3,113.1l-0.1-2c1.3,0,2.7-0.1,4-0.1l0.1,2C494,113,492.7,113,491.3,113.1z M499.3,112.9l0-2c1.3,0,2.7-0.1,4-0.1l0,2
			C502,112.8,500.6,112.9,499.3,112.9z M507.3,112.7l0-2c1.3,0,2.7,0,4,0l0,2C510,112.7,508.6,112.7,507.3,112.7z M532.9,112.7
			c-1.3-0.1-2.9-0.1-3.9-0.1v-2c1,0,2.7,0,4,0.1L532.9,112.7z M515.3,112.7l0-2l4,0l0,2L515.3,112.7z M523.2,112.6l-0.1-2l3.9,0v2
			L523.2,112.6z"/>
	</g>
	<g>
		<path class="st2" d="M513.5,112.8c-11.3-33-39.1-71.4-83.6-79.8l0.7-3.4c20.9,4,39.6,14.4,55.4,30.9c17,17.7,26.2,37.7,30.8,51.3
			L513.5,112.8z"/>
	</g>
	<g>
		<path d="M510.2,200h-5v-8.7h5v1.5H507v1.9h3v1.5h-3v2.3h3.2V200z"/>
		<path d="M513.2,196.6l-2.2-3.3h2.1l1.3,2.1l1.3-2.1h2.1l-2.2,3.3l2.3,3.4h-2.1l-1.4-2.3L513,200h-2.1L513.2,196.6z"/>
		<path d="M521.7,198.7c0.3,0,0.7-0.1,1.1-0.2v1.4c-0.5,0.2-1,0.3-1.7,0.3c-0.7,0-1.3-0.2-1.6-0.6c-0.3-0.4-0.5-0.9-0.5-1.7v-3.2
			h-0.9V194l1-0.6l0.5-1.4h1.2v1.4h1.9v1.4h-1.9v3.2c0,0.3,0.1,0.5,0.2,0.6C521.3,198.6,521.5,198.7,521.7,198.7z"/>
		<path d="M527.2,200.2c-1.1,0-1.9-0.3-2.5-0.9c-0.6-0.6-0.9-1.4-0.9-2.5c0-1.1,0.3-2,0.8-2.6s1.3-0.9,2.3-0.9
			c0.9,0,1.7,0.3,2.2,0.8c0.5,0.5,0.8,1.3,0.8,2.2v0.9h-4.3c0,0.5,0.2,0.9,0.5,1.2c0.3,0.3,0.7,0.4,1.2,0.4c0.4,0,0.8,0,1.1-0.1
			c0.4-0.1,0.7-0.2,1.1-0.4v1.4c-0.3,0.2-0.7,0.3-1,0.4S527.8,200.2,527.2,200.2z M527,194.5c-0.4,0-0.7,0.1-0.9,0.4s-0.3,0.6-0.4,1
			h2.6c0-0.5-0.1-0.8-0.4-1C527.7,194.7,527.4,194.5,527,194.5z"/>
		<path d="M535.2,193.2c0.2,0,0.5,0,0.6,0.1l-0.1,1.7c-0.1,0-0.3-0.1-0.5-0.1c-0.6,0-1,0.1-1.4,0.4s-0.5,0.7-0.5,1.3v3.4h-1.8v-6.7
			h1.4l0.3,1.1h0.1c0.2-0.4,0.5-0.7,0.8-0.9S534.8,193.2,535.2,193.2z"/>
		<path d="M543.2,200h-1.8v-3.9c0-0.5-0.1-0.8-0.3-1.1c-0.2-0.2-0.4-0.4-0.8-0.4c-0.5,0-0.9,0.2-1.1,0.5c-0.2,0.3-0.3,0.9-0.3,1.7
			v3.1H537v-6.7h1.4l0.2,0.9h0.1c0.2-0.3,0.5-0.6,0.8-0.7c0.4-0.2,0.8-0.2,1.2-0.2c0.8,0,1.4,0.2,1.8,0.6c0.4,0.4,0.6,1,0.6,1.8V200
			z"/>
		<path d="M549.3,200l-0.4-0.9h0c-0.3,0.4-0.6,0.7-0.9,0.8c-0.3,0.1-0.7,0.2-1.3,0.2c-0.6,0-1.1-0.2-1.5-0.5
			c-0.4-0.4-0.6-0.9-0.6-1.6c0-0.7,0.2-1.2,0.7-1.6c0.5-0.3,1.2-0.5,2.2-0.6l1.2,0v-0.3c0-0.7-0.3-1-1-1c-0.5,0-1.2,0.2-1.9,0.5
			l-0.6-1.2c0.8-0.4,1.6-0.6,2.6-0.6c0.9,0,1.6,0.2,2.1,0.6c0.5,0.4,0.7,1,0.7,1.8v4.5H549.3z M548.8,196.9l-0.7,0
			c-0.5,0-0.9,0.1-1.2,0.3s-0.4,0.4-0.4,0.8c0,0.5,0.3,0.8,0.9,0.8c0.4,0,0.8-0.1,1-0.4c0.3-0.2,0.4-0.6,0.4-1V196.9z"/>
		<path d="M554.3,200h-1.8v-9.3h1.8V200z"/>
		<path d="M510.9,214.7H509v-3.9c0-0.5-0.1-0.8-0.3-1.1c-0.2-0.2-0.4-0.4-0.8-0.4c-0.5,0-0.9,0.2-1.1,0.5c-0.2,0.3-0.3,0.9-0.3,1.7
			v3.1h-1.8V208h1.4l0.2,0.9h0.1c0.2-0.3,0.5-0.6,0.8-0.7c0.4-0.2,0.8-0.2,1.2-0.2c0.8,0,1.4,0.2,1.8,0.6c0.4,0.4,0.6,1,0.6,1.8
			V214.7z"/>
		<path d="M515.8,214.8c-1.1,0-1.9-0.3-2.5-0.9c-0.6-0.6-0.9-1.4-0.9-2.5c0-1.1,0.3-2,0.8-2.6s1.3-0.9,2.3-0.9
			c0.9,0,1.7,0.3,2.2,0.8c0.5,0.5,0.8,1.3,0.8,2.2v0.9h-4.3c0,0.5,0.2,0.9,0.5,1.2c0.3,0.3,0.7,0.4,1.2,0.4c0.4,0,0.8,0,1.1-0.1
			c0.4-0.1,0.7-0.2,1.1-0.4v1.4c-0.3,0.2-0.7,0.3-1,0.4S516.3,214.8,515.8,214.8z M515.5,209.2c-0.4,0-0.7,0.1-0.9,0.4
			s-0.3,0.6-0.4,1h2.6c0-0.5-0.1-0.8-0.4-1C516.2,209.3,515.9,209.2,515.5,209.2z"/>
		<path d="M522.8,213.4c0.3,0,0.7-0.1,1.1-0.2v1.4c-0.5,0.2-1,0.3-1.7,0.3c-0.7,0-1.3-0.2-1.6-0.6c-0.3-0.4-0.5-0.9-0.5-1.7v-3.2
			h-0.9v-0.8l1-0.6l0.5-1.4h1.2v1.4h1.9v1.4H522v3.2c0,0.3,0.1,0.5,0.2,0.6C522.3,213.3,522.5,213.4,522.8,213.4z"/>
		<path d="M530.8,214.7l-0.5-2.3l-0.7-3h0l-1.2,5.3h-2l-1.9-6.7h1.8l0.8,3c0.1,0.5,0.2,1.3,0.4,2.2h0c0-0.3,0.1-0.8,0.2-1.4l0.1-0.5
			l0.8-3.2h2l0.8,3.2c0,0.1,0,0.2,0.1,0.4c0,0.2,0.1,0.4,0.1,0.5c0,0.2,0.1,0.4,0.1,0.6c0,0.2,0,0.3,0,0.4h0c0-0.3,0.1-0.7,0.2-1.2
			c0.1-0.5,0.2-0.8,0.2-1l0.8-3h1.8l-1.9,6.7H530.8z"/>
		<path d="M541.8,211.4c0,1.1-0.3,1.9-0.9,2.6s-1.4,0.9-2.4,0.9c-0.6,0-1.2-0.1-1.7-0.4c-0.5-0.3-0.9-0.7-1.1-1.2
			c-0.3-0.5-0.4-1.1-0.4-1.8c0-1.1,0.3-1.9,0.9-2.5c0.6-0.6,1.4-0.9,2.4-0.9c0.6,0,1.2,0.1,1.7,0.4s0.9,0.7,1.1,1.2
			C541.7,210.1,541.8,210.7,541.8,211.4z M537.2,211.4c0,0.7,0.1,1.2,0.3,1.5c0.2,0.3,0.6,0.5,1.1,0.5c0.5,0,0.8-0.2,1-0.5
			c0.2-0.3,0.3-0.8,0.3-1.5c0-0.7-0.1-1.2-0.3-1.5s-0.6-0.5-1.1-0.5c-0.5,0-0.8,0.2-1.1,0.5C537.3,210.2,537.2,210.7,537.2,211.4z"
			/>
		<path d="M547,207.9c0.2,0,0.5,0,0.6,0.1l-0.1,1.7c-0.1,0-0.3-0.1-0.5-0.1c-0.6,0-1,0.1-1.4,0.4s-0.5,0.7-0.5,1.3v3.4h-1.8V208h1.4
			l0.3,1.1h0.1c0.2-0.4,0.5-0.7,0.8-0.9S546.6,207.9,547,207.9z"/>
		<path d="M550.6,211.1l0.8-1l1.9-2h2.1l-2.7,2.9l2.8,3.8h-2.1l-1.9-2.7l-0.8,0.6v2.1h-1.8v-9.3h1.8v4.1L550.6,211.1L550.6,211.1z"
			/>
		<path d="M495.4,229.4H494v-5.6c0-0.7,0-1.2,0-1.6c-0.1,0.1-0.2,0.2-0.3,0.3c-0.1,0.1-0.6,0.5-1.3,1.1l-0.7-0.9l2.6-2h1.2V229.4z"
			/>
		<path d="M504.5,227.5h-1.2v1.9H502v-1.9h-4v-1.1l4-5.8h1.4v5.7h1.2V227.5z M502,226.3v-2.2c0-0.8,0-1.4,0.1-1.9h0
			c-0.1,0.3-0.3,0.6-0.5,1l-2.2,3.2H502z"/>
		<path d="M510.9,222.7c0,0.6-0.2,1-0.5,1.4c-0.3,0.4-0.8,0.6-1.4,0.7v0c0.7,0.1,1.2,0.3,1.6,0.7s0.5,0.8,0.5,1.4
			c0,0.8-0.3,1.5-0.9,1.9s-1.4,0.7-2.5,0.7c-1,0-1.8-0.2-2.4-0.5v-1.2c0.4,0.2,0.8,0.3,1.2,0.4s0.8,0.1,1.2,0.1
			c0.7,0,1.2-0.1,1.5-0.4c0.3-0.3,0.5-0.6,0.5-1.2c0-0.5-0.2-0.8-0.6-1c-0.4-0.2-1-0.3-1.7-0.3h-0.8v-1.1h0.8c1.4,0,2.1-0.5,2.1-1.4
			c0-0.4-0.1-0.7-0.4-0.9s-0.6-0.3-1.1-0.3c-0.3,0-0.6,0-1,0.1s-0.7,0.3-1.1,0.5l-0.7-1c0.8-0.6,1.7-0.9,2.8-0.9
			c0.9,0,1.6,0.2,2.1,0.6C510.6,221.5,510.9,222,510.9,222.7z"/>
		<path d="M512.5,228.7c0-0.3,0.1-0.5,0.2-0.7s0.4-0.2,0.7-0.2c0.3,0,0.5,0.1,0.7,0.2c0.2,0.2,0.2,0.4,0.2,0.7
			c0,0.3-0.1,0.5-0.2,0.7s-0.4,0.2-0.7,0.2s-0.5-0.1-0.7-0.2C512.6,229.2,512.5,228.9,512.5,228.7z"/>
		<path d="M519.7,229.4h-1.4v-5.6c0-0.7,0-1.2,0-1.6c-0.1,0.1-0.2,0.2-0.3,0.3c-0.1,0.1-0.6,0.5-1.3,1.1l-0.7-0.9l2.6-2h1.2V229.4z"
			/>
		<path d="M525.6,224c0.9,0,1.6,0.2,2.1,0.7c0.5,0.5,0.8,1.1,0.8,1.9c0,0.9-0.3,1.7-0.9,2.2c-0.6,0.5-1.4,0.8-2.5,0.8
			c-1,0-1.7-0.2-2.3-0.5v-1.3c0.3,0.2,0.7,0.3,1.1,0.4c0.4,0.1,0.8,0.1,1.2,0.1c0.6,0,1.1-0.1,1.4-0.4c0.3-0.3,0.5-0.7,0.5-1.2
			c0-1-0.7-1.6-2-1.6c-0.2,0-0.4,0-0.7,0.1c-0.3,0-0.5,0.1-0.7,0.1l-0.6-0.4l0.3-4.3h4.5v1.2h-3.3l-0.2,2.2c0.1,0,0.3-0.1,0.5-0.1
			C525,224,525.3,224,525.6,224z"/>
		<path d="M529.8,228.7c0-0.3,0.1-0.5,0.2-0.7s0.4-0.2,0.7-0.2c0.3,0,0.5,0.1,0.7,0.2c0.2,0.2,0.2,0.4,0.2,0.7
			c0,0.3-0.1,0.5-0.2,0.7s-0.4,0.2-0.7,0.2s-0.5-0.1-0.7-0.2C529.9,229.2,529.8,228.9,529.8,228.7z"/>
		<path d="M538.9,229.4h-5.9v-1.1l2.3-2.3c0.7-0.7,1.1-1.2,1.3-1.4c0.2-0.3,0.4-0.6,0.5-0.8s0.1-0.5,0.1-0.8c0-0.4-0.1-0.7-0.4-0.9
			c-0.2-0.2-0.6-0.3-1-0.3c-0.3,0-0.7,0.1-1,0.2c-0.3,0.1-0.7,0.3-1.1,0.7l-0.8-0.9c0.5-0.4,1-0.7,1.4-0.9c0.5-0.2,0.9-0.3,1.5-0.3
			c0.8,0,1.5,0.2,2,0.6c0.5,0.4,0.7,1,0.7,1.7c0,0.4-0.1,0.8-0.2,1.1c-0.1,0.4-0.4,0.7-0.7,1.1c-0.3,0.4-0.8,0.9-1.5,1.5l-1.5,1.5
			v0.1h4.1V229.4z"/>
		<path d="M540.2,228.7c0-0.3,0.1-0.5,0.2-0.7s0.4-0.2,0.7-0.2c0.3,0,0.5,0.1,0.7,0.2c0.2,0.2,0.2,0.4,0.2,0.7
			c0,0.3-0.1,0.5-0.2,0.7s-0.4,0.2-0.7,0.2s-0.5-0.1-0.7-0.2C540.3,229.2,540.2,228.9,540.2,228.7z"/>
		<path d="M549.2,225c0,1.5-0.2,2.6-0.7,3.4c-0.5,0.7-1.2,1.1-2.2,1.1c-1,0-1.7-0.4-2.2-1.1s-0.8-1.9-0.8-3.3c0-1.5,0.2-2.7,0.7-3.4
			c0.5-0.7,1.2-1.1,2.2-1.1c1,0,1.7,0.4,2.2,1.1S549.2,223.6,549.2,225z M544.7,225c0,1.2,0.1,2,0.4,2.6c0.2,0.5,0.6,0.8,1.2,0.8
			c0.5,0,0.9-0.3,1.2-0.8c0.2-0.5,0.4-1.4,0.4-2.5c0-1.2-0.1-2-0.4-2.5c-0.2-0.5-0.6-0.8-1.2-0.8c-0.5,0-0.9,0.3-1.2,0.8
			C544.8,223,544.7,223.8,544.7,225z"/>
		<path d="M554.4,220.7l-3.3,8.7h-1.3l3.3-8.7H554.4z"/>
		<path d="M561,229.4h-5.9v-1.1l2.3-2.3c0.7-0.7,1.1-1.2,1.3-1.4c0.2-0.3,0.4-0.6,0.5-0.8s0.1-0.5,0.1-0.8c0-0.4-0.1-0.7-0.4-0.9
			c-0.2-0.2-0.6-0.3-1-0.3c-0.3,0-0.7,0.1-1,0.2c-0.3,0.1-0.7,0.3-1.1,0.7l-0.8-0.9c0.5-0.4,1-0.7,1.4-0.9c0.5-0.2,0.9-0.3,1.5-0.3
			c0.8,0,1.5,0.2,2,0.6c0.5,0.4,0.7,1,0.7,1.7c0,0.4-0.1,0.8-0.2,1.1c-0.1,0.4-0.4,0.7-0.7,1.1c-0.3,0.4-0.8,0.9-1.5,1.5l-1.5,1.5
			v0.1h4.1V229.4z"/>
		<path d="M568.3,227.5h-1.2v1.9h-1.4v-1.9h-4v-1.1l4-5.8h1.4v5.7h1.2V227.5z M565.7,226.3v-2.2c0-0.8,0-1.4,0.1-1.9h0
			c-0.1,0.3-0.3,0.6-0.5,1l-2.2,3.2H565.7z"/>
	</g>
	<g>
		
			<rect x="186.2" y="150.3" transform="matrix(0.1041 -0.9946 0.9946 0.1041 -24.0819 360.3251)" class="st0" width="3.5" height="86.4"/>
	</g>
	<g>
		<g>
			<path class="st3" d="M264.9,229.2c-3.3,0-5.9-2.7-5.9-5.9v-74.9c0-3.3,2.7-5.9,5.9-5.9h138.2c3.3,0,5.9,2.7,5.9,5.9v74.9
				c0,3.3-2.7,5.9-5.9,5.9H264.9z"/>
		</g>
		<g>
			<path d="M403.1,143.9c2.4,0,4.4,2,4.4,4.4v74.9c0,2.4-2,4.4-4.4,4.4H264.9c-2.4,0-4.4-2-4.4-4.4v-74.9c0-2.4,2-4.4,4.4-4.4H403.1
				 M403.1,140.9H264.9c-4.1,0-7.4,3.3-7.4,7.4v74.9c0,4.1,3.3,7.4,7.4,7.4h138.2c4.1,0,7.4-3.3,7.4-7.4v-74.9
				C410.5,144.3,407.2,140.9,403.1,140.9L403.1,140.9z"/>
		</g>
	</g>
	<g>
		<path d="M328.2,168.6h-3.5l-5.7-9.9h-0.1c0.1,1.8,0.2,3,0.2,3.7v6.2h-2.5v-13.1h3.5l5.7,9.8h0.1c-0.1-1.7-0.1-2.9-0.1-3.6v-6.2
			h2.5V168.6z"/>
		<path d="M339.5,168.6l-1-3.1h-4.8l-0.9,3.1h-3l4.6-13.2h3.4l4.6,13.2H339.5z M337.9,163.1c-0.9-2.8-1.4-4.4-1.5-4.8
			c-0.1-0.4-0.2-0.7-0.2-0.9c-0.2,0.8-0.8,2.7-1.7,5.7H337.9z"/>
		<path d="M349.2,168.6h-2.8v-10.8h-3.6v-2.3h9.9v2.3h-3.6V168.6z"/>
	</g>
	<g>
		<rect x="294.3" y="196.2" class="st2" width="79.3" height="5"/>
	</g>
	<g>
		<g>
			<g>
				<path class="st3" d="M208.3,220c-1.3,0-2.3-1-2.3-2.3v-38.2c0-1.3,1-2.3,2.3-2.3h95.4c1.3,0,2.3,1,2.3,2.3v38.2
					c0,1.3-1,2.3-2.3,2.3H208.3z"/>
			</g>
			<g>
				<path d="M303.7,177.8c1,0,1.8,0.8,1.8,1.8v38.2c0,1-0.8,1.8-1.8,1.8h-95.4c-1,0-1.8-0.8-1.8-1.8v-38.2c0-1,0.8-1.8,1.8-1.8
					H303.7 M303.7,176.8h-95.4c-1.5,0-2.8,1.3-2.8,2.8v38.2c0,1.5,1.3,2.8,2.8,2.8h95.4c1.5,0,2.8-1.3,2.8-2.8v-38.2
					C306.5,178,305.3,176.8,303.7,176.8L303.7,176.8z"/>
			</g>
		</g>
		<g>
			<path d="M232.3,194.9l-0.9-2.4h-3.3l-0.9,2.4h-1.5l3.3-8.8h1.6l3.3,8.8H232.3z M231.1,191.2l-0.8-2.4c-0.1-0.2-0.1-0.4-0.2-0.8
				c-0.1-0.3-0.2-0.6-0.2-0.8c-0.1,0.5-0.3,1-0.5,1.6l-0.8,2.3H231.1z"/>
			<path d="M237,195c-0.8,0-1.5-0.3-1.9-0.9c-0.5-0.6-0.7-1.4-0.7-2.5c0-1.1,0.2-1.9,0.7-2.5c0.5-0.6,1.1-0.9,1.9-0.9
				c0.9,0,1.5,0.3,2,1h0.1c-0.1-0.5-0.1-0.8-0.1-1.1v-2.4h1.4v9.3h-1.1l-0.2-0.9H239C238.6,194.7,237.9,195,237,195z M237.4,193.9
				c0.6,0,1-0.2,1.3-0.5c0.3-0.3,0.4-0.9,0.4-1.6v-0.2c0-0.8-0.1-1.4-0.4-1.8c-0.3-0.4-0.7-0.5-1.3-0.5c-0.5,0-0.9,0.2-1.1,0.6
				c-0.3,0.4-0.4,1-0.4,1.7c0,0.7,0.1,1.3,0.4,1.7C236.5,193.7,236.9,193.9,237.4,193.9z"/>
			<path d="M244.7,195c-0.8,0-1.5-0.3-1.9-0.9c-0.5-0.6-0.7-1.4-0.7-2.5c0-1.1,0.2-1.9,0.7-2.5c0.5-0.6,1.1-0.9,1.9-0.9
				c0.9,0,1.5,0.3,2,1h0.1c-0.1-0.5-0.1-0.8-0.1-1.1v-2.4h1.4v9.3H247l-0.2-0.9h-0.1C246.2,194.7,245.5,195,244.7,195z M245,193.9
				c0.6,0,1-0.2,1.3-0.5c0.3-0.3,0.4-0.9,0.4-1.6v-0.2c0-0.8-0.1-1.4-0.4-1.8c-0.3-0.4-0.7-0.5-1.3-0.5c-0.5,0-0.9,0.2-1.1,0.6
				c-0.3,0.4-0.4,1-0.4,1.7c0,0.7,0.1,1.3,0.4,1.7C244.1,193.7,244.5,193.9,245,193.9z"/>
			<path d="M253.4,188.2c0.3,0,0.5,0,0.7,0.1l-0.1,1.3c-0.2,0-0.4-0.1-0.6-0.1c-0.6,0-1,0.2-1.4,0.5c-0.3,0.4-0.5,0.8-0.5,1.4v3.5
				h-1.4v-6.6h1.1l0.2,1.2h0.1c0.2-0.4,0.5-0.7,0.9-0.9C252.6,188.3,253,188.2,253.4,188.2z"/>
			<path d="M258.2,195c-1,0-1.8-0.3-2.4-0.9c-0.6-0.6-0.9-1.4-0.9-2.5c0-1.1,0.3-1.9,0.8-2.5c0.5-0.6,1.3-0.9,2.2-0.9
				c0.9,0,1.6,0.3,2.1,0.8s0.8,1.3,0.8,2.2v0.8h-4.4c0,0.6,0.2,1.1,0.5,1.5c0.3,0.3,0.8,0.5,1.4,0.5c0.4,0,0.8,0,1.1-0.1
				s0.7-0.2,1.1-0.4v1.1c-0.3,0.2-0.7,0.3-1,0.3C259.1,195,258.7,195,258.2,195z M258,189.2c-0.4,0-0.8,0.1-1.1,0.4
				c-0.3,0.3-0.4,0.7-0.5,1.2h3c0-0.5-0.1-1-0.4-1.2S258.4,189.2,258,189.2z"/>
			<path d="M266.8,193c0,0.6-0.2,1.1-0.7,1.5c-0.5,0.3-1.1,0.5-2,0.5c-0.9,0-1.6-0.1-2.1-0.4v-1.2c0.8,0.4,1.5,0.5,2.2,0.5
				c0.9,0,1.3-0.3,1.3-0.8c0-0.2,0-0.3-0.1-0.4c-0.1-0.1-0.3-0.2-0.5-0.3c-0.2-0.1-0.5-0.3-0.9-0.4c-0.8-0.3-1.3-0.6-1.5-0.9
				c-0.3-0.3-0.4-0.7-0.4-1.1c0-0.6,0.2-1,0.7-1.3c0.5-0.3,1.1-0.5,1.9-0.5c0.8,0,1.5,0.2,2.2,0.5l-0.5,1.1
				c-0.7-0.3-1.3-0.4-1.8-0.4c-0.7,0-1.1,0.2-1.1,0.6c0,0.2,0.1,0.4,0.3,0.5c0.2,0.1,0.6,0.3,1.3,0.6c0.5,0.2,0.9,0.4,1.2,0.6
				s0.4,0.4,0.5,0.6C266.8,192.4,266.8,192.7,266.8,193z"/>
			<path d="M272.8,193c0,0.6-0.2,1.1-0.7,1.5c-0.5,0.3-1.1,0.5-2,0.5c-0.9,0-1.6-0.1-2.1-0.4v-1.2c0.8,0.4,1.5,0.5,2.2,0.5
				c0.9,0,1.3-0.3,1.3-0.8c0-0.2,0-0.3-0.1-0.4c-0.1-0.1-0.3-0.2-0.5-0.3c-0.2-0.1-0.5-0.3-0.9-0.4c-0.8-0.3-1.3-0.6-1.5-0.9
				c-0.3-0.3-0.4-0.7-0.4-1.1c0-0.6,0.2-1,0.7-1.3c0.5-0.3,1.1-0.5,1.9-0.5c0.8,0,1.5,0.2,2.2,0.5l-0.5,1.1
				c-0.7-0.3-1.3-0.4-1.8-0.4c-0.7,0-1.1,0.2-1.1,0.6c0,0.2,0.1,0.4,0.3,0.5c0.2,0.1,0.6,0.3,1.3,0.6c0.5,0.2,0.9,0.4,1.2,0.6
				s0.4,0.4,0.5,0.6C272.7,192.4,272.8,192.7,272.8,193z"/>
			<path d="M277.2,195c-1,0-1.8-0.3-2.4-0.9c-0.6-0.6-0.9-1.4-0.9-2.5c0-1.1,0.3-1.9,0.8-2.5c0.5-0.6,1.3-0.9,2.2-0.9
				c0.9,0,1.6,0.3,2.1,0.8s0.8,1.3,0.8,2.2v0.8h-4.4c0,0.6,0.2,1.1,0.5,1.5c0.3,0.3,0.8,0.5,1.4,0.5c0.4,0,0.8,0,1.1-0.1
				s0.7-0.2,1.1-0.4v1.1c-0.3,0.2-0.7,0.3-1,0.3C278,195,277.6,195,277.2,195z M276.9,189.2c-0.4,0-0.8,0.1-1.1,0.4
				c-0.3,0.3-0.4,0.7-0.5,1.2h3c0-0.5-0.1-1-0.4-1.2S277.4,189.2,276.9,189.2z"/>
			<path d="M285.8,193c0,0.6-0.2,1.1-0.7,1.5c-0.5,0.3-1.1,0.5-2,0.5c-0.9,0-1.6-0.1-2.1-0.4v-1.2c0.8,0.4,1.5,0.5,2.2,0.5
				c0.9,0,1.3-0.3,1.3-0.8c0-0.2,0-0.3-0.1-0.4c-0.1-0.1-0.3-0.2-0.5-0.3c-0.2-0.1-0.5-0.3-0.9-0.4c-0.8-0.3-1.3-0.6-1.5-0.9
				c-0.3-0.3-0.4-0.7-0.4-1.1c0-0.6,0.2-1,0.7-1.3c0.5-0.3,1.1-0.5,1.9-0.5c0.8,0,1.5,0.2,2.2,0.5l-0.5,1.1
				c-0.7-0.3-1.3-0.4-1.8-0.4c-0.7,0-1.1,0.2-1.1,0.6c0,0.2,0.1,0.4,0.3,0.5c0.2,0.1,0.6,0.3,1.3,0.6c0.5,0.2,0.9,0.4,1.2,0.6
				s0.4,0.4,0.5,0.6C285.7,192.4,285.8,192.7,285.8,193z"/>
			<path d="M218.2,209.6h-1v-6.2c0-0.5,0-1,0-1.5c-0.1,0.1-0.2,0.2-0.3,0.3c-0.1,0.1-0.6,0.5-1.4,1.2l-0.5-0.7l2.3-1.8h0.8V209.6z"
				/>
			<path d="M227.2,204.6c0,3.4-1.3,5.1-4,5.1c-0.5,0-0.8,0-1.1-0.1v-0.9c0.3,0.1,0.7,0.2,1.1,0.2c1,0,1.7-0.3,2.2-0.9
				c0.5-0.6,0.8-1.5,0.8-2.7h-0.1c-0.2,0.3-0.5,0.6-0.9,0.8c-0.4,0.2-0.8,0.3-1.2,0.3c-0.8,0-1.4-0.2-1.8-0.7
				c-0.5-0.5-0.7-1.1-0.7-1.9c0-0.9,0.3-1.6,0.8-2.2s1.2-0.8,2-0.8c0.6,0,1.1,0.2,1.6,0.5c0.4,0.3,0.8,0.7,1,1.3
				C227.1,203.1,227.2,203.8,227.2,204.6z M224.3,201.6c-0.6,0-1,0.2-1.3,0.5c-0.3,0.4-0.5,0.9-0.5,1.5c0,0.6,0.1,1,0.4,1.4
				c0.3,0.3,0.7,0.5,1.3,0.5c0.4,0,0.7-0.1,1-0.2s0.5-0.3,0.7-0.6s0.3-0.5,0.3-0.8c0-0.4-0.1-0.8-0.2-1.2c-0.2-0.4-0.4-0.6-0.7-0.8
				C225,201.7,224.7,201.6,224.3,201.6z"/>
			<path d="M234.2,209.6h-5.7v-0.9l2.3-2.3c0.7-0.7,1.2-1.2,1.4-1.5s0.4-0.6,0.5-0.9c0.1-0.3,0.2-0.6,0.2-0.9c0-0.5-0.1-0.8-0.4-1.1
				c-0.3-0.3-0.7-0.4-1.2-0.4c-0.4,0-0.7,0.1-1,0.2c-0.3,0.1-0.7,0.3-1.1,0.7l-0.5-0.7c0.8-0.7,1.7-1,2.6-1c0.8,0,1.5,0.2,1.9,0.6
				c0.5,0.4,0.7,1,0.7,1.7c0,0.6-0.2,1.1-0.5,1.6s-0.9,1.2-1.7,2.1l-1.9,1.9v0h4.5V209.6z"/>
			<path d="M235.8,208.9c0-0.3,0.1-0.5,0.2-0.6c0.1-0.1,0.3-0.2,0.5-0.2c0.2,0,0.4,0.1,0.5,0.2c0.1,0.1,0.2,0.3,0.2,0.6
				c0,0.3-0.1,0.5-0.2,0.6c-0.1,0.1-0.3,0.2-0.5,0.2c-0.2,0-0.4-0.1-0.5-0.2C235.9,209.4,235.8,209.2,235.8,208.9z"/>
			<path d="M242.4,209.6h-1v-6.2c0-0.5,0-1,0-1.5c-0.1,0.1-0.2,0.2-0.3,0.3c-0.1,0.1-0.6,0.5-1.4,1.2l-0.5-0.7l2.3-1.8h0.8V209.6z"
				/>
			<path d="M245.8,205.8c0-1.7,0.3-3,1-3.9c0.7-0.9,1.7-1.3,3-1.3c0.5,0,0.8,0,1.1,0.1v0.9c-0.3-0.1-0.7-0.1-1.1-0.1
				c-0.9,0-1.7,0.3-2.1,0.9c-0.5,0.6-0.8,1.5-0.8,2.8h0.1c0.4-0.7,1.1-1,2.1-1c0.8,0,1.4,0.2,1.9,0.7c0.5,0.5,0.7,1.1,0.7,1.9
				c0,0.9-0.2,1.6-0.7,2.1c-0.5,0.5-1.2,0.8-2,0.8c-0.9,0-1.6-0.3-2.2-1C246.1,208,245.8,207.1,245.8,205.8z M248.8,208.9
				c0.6,0,1-0.2,1.3-0.5c0.3-0.4,0.5-0.9,0.5-1.5c0-0.6-0.1-1-0.4-1.4c-0.3-0.3-0.7-0.5-1.3-0.5c-0.4,0-0.7,0.1-1,0.2
				s-0.5,0.4-0.7,0.6c-0.2,0.3-0.3,0.5-0.3,0.8c0,0.4,0.1,0.8,0.2,1.1c0.2,0.4,0.4,0.6,0.7,0.8C248.1,208.8,248.4,208.9,248.8,208.9
				z"/>
			<path d="M255.6,200.7c0.8,0,1.4,0.2,1.9,0.6c0.5,0.4,0.7,0.9,0.7,1.5c0,0.4-0.1,0.8-0.4,1.2c-0.3,0.4-0.7,0.7-1.3,1
				c0.7,0.3,1.2,0.7,1.5,1.1c0.3,0.4,0.4,0.8,0.4,1.3c0,0.7-0.3,1.3-0.8,1.7s-1.2,0.6-2.1,0.6c-0.9,0-1.6-0.2-2.2-0.6
				s-0.8-1-0.8-1.7c0-1,0.6-1.8,1.8-2.3c-0.5-0.3-0.9-0.6-1.2-1c-0.2-0.4-0.4-0.8-0.4-1.2c0-0.6,0.2-1.1,0.7-1.5
				C254.2,200.9,254.8,200.7,255.6,200.7z M253.7,207.4c0,0.5,0.2,0.9,0.5,1.1c0.3,0.3,0.8,0.4,1.4,0.4c0.6,0,1.1-0.1,1.4-0.4
				s0.5-0.7,0.5-1.1c0-0.4-0.2-0.7-0.5-1s-0.9-0.6-1.6-0.9c-0.6,0.3-1,0.5-1.3,0.8C253.9,206.6,253.7,206.9,253.7,207.4z
				 M255.6,201.5c-0.5,0-0.9,0.1-1.2,0.4c-0.3,0.2-0.4,0.6-0.4,1c0,0.4,0.1,0.7,0.4,0.9c0.2,0.3,0.7,0.5,1.3,0.8
				c0.6-0.2,1-0.5,1.2-0.8c0.2-0.3,0.4-0.6,0.4-1c0-0.4-0.1-0.7-0.4-1C256.5,201.6,256.1,201.5,255.6,201.5z"/>
			<path d="M260,208.9c0-0.3,0.1-0.5,0.2-0.6c0.1-0.1,0.3-0.2,0.5-0.2c0.2,0,0.4,0.1,0.5,0.2c0.1,0.1,0.2,0.3,0.2,0.6
				c0,0.3-0.1,0.5-0.2,0.6c-0.1,0.1-0.3,0.2-0.5,0.2c-0.2,0-0.4-0.1-0.5-0.2C260.1,209.4,260,209.2,260,208.9z"/>
			<path d="M268.4,202.9c0,0.6-0.2,1-0.5,1.4c-0.3,0.4-0.8,0.6-1.3,0.7v0c0.7,0.1,1.2,0.3,1.6,0.7c0.3,0.4,0.5,0.8,0.5,1.4
				c0,0.8-0.3,1.5-0.9,1.9c-0.6,0.4-1.4,0.7-2.5,0.7c-0.5,0-0.9,0-1.3-0.1c-0.4-0.1-0.8-0.2-1.1-0.4v-0.9c0.4,0.2,0.8,0.3,1.2,0.4
				c0.4,0.1,0.8,0.1,1.2,0.1c1.5,0,2.3-0.6,2.3-1.8c0-1.1-0.8-1.6-2.5-1.6h-0.9v-0.9h0.9c0.7,0,1.2-0.2,1.6-0.5
				c0.4-0.3,0.6-0.7,0.6-1.3c0-0.4-0.1-0.8-0.4-1c-0.3-0.2-0.7-0.4-1.2-0.4c-0.4,0-0.7,0.1-1.1,0.2c-0.3,0.1-0.7,0.3-1.2,0.6
				l-0.5-0.7c0.4-0.3,0.8-0.5,1.2-0.7c0.5-0.2,1-0.2,1.5-0.2c0.8,0,1.5,0.2,2,0.6C268.2,201.7,268.4,202.2,268.4,202.9z"/>
			<path d="M270.3,208.9c0-0.3,0.1-0.5,0.2-0.6c0.1-0.1,0.3-0.2,0.5-0.2c0.2,0,0.4,0.1,0.5,0.2c0.1,0.1,0.2,0.3,0.2,0.6
				c0,0.3-0.1,0.5-0.2,0.6c-0.1,0.1-0.3,0.2-0.5,0.2c-0.2,0-0.4-0.1-0.5-0.2C270.4,209.4,270.3,209.2,270.3,208.9z"/>
			<path d="M279,205.2c0,1.5-0.2,2.6-0.7,3.4c-0.5,0.7-1.2,1.1-2.2,1.1c-0.9,0-1.7-0.4-2.1-1.1s-0.7-1.9-0.7-3.4
				c0-1.5,0.2-2.7,0.7-3.4c0.5-0.7,1.2-1.1,2.2-1.1c0.9,0,1.7,0.4,2.2,1.2C278.8,202.6,279,203.7,279,205.2z M274.3,205.2
				c0,1.3,0.1,2.2,0.4,2.8s0.8,0.9,1.4,0.9c0.7,0,1.1-0.3,1.4-0.9c0.3-0.6,0.4-1.5,0.4-2.8s-0.1-2.2-0.4-2.8
				c-0.3-0.6-0.8-0.9-1.4-0.9c-0.7,0-1.1,0.3-1.4,0.9C274.4,203,274.3,203.9,274.3,205.2z"/>
			<path d="M284,200.8l-3.3,8.7h-1l3.3-8.7H284z"/>
			<path d="M290.5,209.6h-5.7v-0.9l2.3-2.3c0.7-0.7,1.2-1.2,1.4-1.5s0.4-0.6,0.5-0.9c0.1-0.3,0.2-0.6,0.2-0.9c0-0.5-0.1-0.8-0.4-1.1
				c-0.3-0.3-0.7-0.4-1.2-0.4c-0.4,0-0.7,0.1-1,0.2c-0.3,0.1-0.7,0.3-1.1,0.7l-0.5-0.7c0.8-0.7,1.7-1,2.6-1c0.8,0,1.5,0.2,1.9,0.6
				c0.5,0.4,0.7,1,0.7,1.7c0,0.6-0.2,1.1-0.5,1.6s-0.9,1.2-1.7,2.1l-1.9,1.9v0h4.5V209.6z"/>
			<path d="M297.9,207.6h-1.3v2h-0.9v-2h-4.2v-0.9l4.1-5.9h1.1v5.9h1.3V207.6z M295.6,206.7v-2.9c0-0.6,0-1.2,0.1-1.9h0
				c-0.2,0.4-0.4,0.7-0.5,0.9l-2.7,3.9H295.6z"/>
		</g>
	</g>
	<g>
		<g>
			<g>
				<path class="st3" d="M364.3,220c-1.3,0-2.3-1-2.3-2.3v-38.2c0-1.3,1-2.3,2.3-2.3h95.4c1.3,0,2.3,1,2.3,2.3v38.2
					c0,1.3-1,2.3-2.3,2.3H364.3z"/>
			</g>
			<g>
				<path d="M459.7,177.8c1,0,1.8,0.8,1.8,1.8v38.2c0,1-0.8,1.8-1.8,1.8h-95.4c-1,0-1.8-0.8-1.8-1.8v-38.2c0-1,0.8-1.8,1.8-1.8
					H459.7 M459.7,176.8h-95.4c-1.5,0-2.8,1.3-2.8,2.8v38.2c0,1.5,1.3,2.8,2.8,2.8h95.4c1.5,0,2.8-1.3,2.8-2.8v-38.2
					C462.5,178,461.3,176.8,459.7,176.8L459.7,176.8z"/>
			</g>
		</g>
		<g>
			<path d="M388.3,194.9l-0.9-2.4h-3.3l-0.9,2.4h-1.5l3.3-8.8h1.6l3.3,8.8H388.3z M387,191.2l-0.8-2.4c-0.1-0.2-0.1-0.4-0.2-0.8
				c-0.1-0.3-0.2-0.6-0.2-0.8c-0.1,0.5-0.3,1-0.5,1.6l-0.8,2.3H387z"/>
			<path d="M393,195c-0.8,0-1.5-0.3-1.9-0.9c-0.5-0.6-0.7-1.4-0.7-2.5c0-1.1,0.2-1.9,0.7-2.5c0.5-0.6,1.1-0.9,1.9-0.9
				c0.9,0,1.5,0.3,2,1h0.1c-0.1-0.5-0.1-0.8-0.1-1.1v-2.4h1.4v9.3h-1.1l-0.2-0.9H395C394.6,194.7,393.9,195,393,195z M393.4,193.9
				c0.6,0,1-0.2,1.3-0.5c0.3-0.3,0.4-0.9,0.4-1.6v-0.2c0-0.8-0.1-1.4-0.4-1.8c-0.3-0.4-0.7-0.5-1.3-0.5c-0.5,0-0.9,0.2-1.1,0.6
				c-0.3,0.4-0.4,1-0.4,1.7c0,0.7,0.1,1.3,0.4,1.7C392.5,193.7,392.9,193.9,393.4,193.9z"/>
			<path d="M400.7,195c-0.8,0-1.5-0.3-1.9-0.9c-0.5-0.6-0.7-1.4-0.7-2.5c0-1.1,0.2-1.9,0.7-2.5c0.5-0.6,1.1-0.9,1.9-0.9
				c0.9,0,1.5,0.3,2,1h0.1c-0.1-0.5-0.1-0.8-0.1-1.1v-2.4h1.4v9.3H403l-0.2-0.9h-0.1C402.2,194.7,401.5,195,400.7,195z M401,193.9
				c0.6,0,1-0.2,1.3-0.5c0.3-0.3,0.4-0.9,0.4-1.6v-0.2c0-0.8-0.1-1.4-0.4-1.8c-0.3-0.4-0.7-0.5-1.3-0.5c-0.5,0-0.9,0.2-1.1,0.6
				c-0.3,0.4-0.4,1-0.4,1.7c0,0.7,0.1,1.3,0.4,1.7C400.1,193.7,400.5,193.9,401,193.9z"/>
			<path d="M409.4,188.2c0.3,0,0.5,0,0.7,0.1l-0.1,1.3c-0.2,0-0.4-0.1-0.6-0.1c-0.6,0-1,0.2-1.4,0.5c-0.3,0.4-0.5,0.8-0.5,1.4v3.5
				h-1.4v-6.6h1.1l0.2,1.2h0.1c0.2-0.4,0.5-0.7,0.9-0.9C408.6,188.3,409,188.2,409.4,188.2z"/>
			<path d="M414.2,195c-1,0-1.8-0.3-2.4-0.9c-0.6-0.6-0.9-1.4-0.9-2.5c0-1.1,0.3-1.9,0.8-2.5c0.5-0.6,1.3-0.9,2.2-0.9
				c0.9,0,1.6,0.3,2.1,0.8s0.8,1.3,0.8,2.2v0.8h-4.4c0,0.6,0.2,1.1,0.5,1.5c0.3,0.3,0.8,0.5,1.4,0.5c0.4,0,0.8,0,1.1-0.1
				s0.7-0.2,1.1-0.4v1.1c-0.3,0.2-0.7,0.3-1,0.3C415.1,195,414.7,195,414.2,195z M414,189.2c-0.4,0-0.8,0.1-1.1,0.4
				c-0.3,0.3-0.4,0.7-0.5,1.2h3c0-0.5-0.1-1-0.4-1.2S414.4,189.2,414,189.2z"/>
			<path d="M422.8,193c0,0.6-0.2,1.1-0.7,1.5c-0.5,0.3-1.1,0.5-2,0.5c-0.9,0-1.6-0.1-2.1-0.4v-1.2c0.8,0.4,1.5,0.5,2.2,0.5
				c0.9,0,1.3-0.3,1.3-0.8c0-0.2,0-0.3-0.1-0.4c-0.1-0.1-0.3-0.2-0.5-0.3c-0.2-0.1-0.5-0.3-0.9-0.4c-0.8-0.3-1.3-0.6-1.5-0.9
				c-0.3-0.3-0.4-0.7-0.4-1.1c0-0.6,0.2-1,0.7-1.3c0.5-0.3,1.1-0.5,1.9-0.5c0.8,0,1.5,0.2,2.2,0.5l-0.5,1.1
				c-0.7-0.3-1.3-0.4-1.8-0.4c-0.7,0-1.1,0.2-1.1,0.6c0,0.2,0.1,0.4,0.3,0.5c0.2,0.1,0.6,0.3,1.3,0.6c0.5,0.2,0.9,0.4,1.2,0.6
				c0.2,0.2,0.4,0.4,0.5,0.6C422.8,192.4,422.8,192.7,422.8,193z"/>
			<path d="M428.8,193c0,0.6-0.2,1.1-0.7,1.5c-0.5,0.3-1.1,0.5-2,0.5c-0.9,0-1.6-0.1-2.1-0.4v-1.2c0.8,0.4,1.5,0.5,2.2,0.5
				c0.9,0,1.3-0.3,1.3-0.8c0-0.2,0-0.3-0.1-0.4c-0.1-0.1-0.3-0.2-0.5-0.3c-0.2-0.1-0.5-0.3-0.9-0.4c-0.8-0.3-1.3-0.6-1.5-0.9
				c-0.3-0.3-0.4-0.7-0.4-1.1c0-0.6,0.2-1,0.7-1.3c0.5-0.3,1.1-0.5,1.9-0.5c0.8,0,1.5,0.2,2.2,0.5l-0.5,1.1
				c-0.7-0.3-1.3-0.4-1.8-0.4c-0.7,0-1.1,0.2-1.1,0.6c0,0.2,0.1,0.4,0.3,0.5c0.2,0.1,0.6,0.3,1.3,0.6c0.5,0.2,0.9,0.4,1.2,0.6
				c0.2,0.2,0.4,0.4,0.5,0.6C428.7,192.4,428.8,192.7,428.8,193z"/>
			<path d="M433.2,195c-1,0-1.8-0.3-2.4-0.9c-0.6-0.6-0.9-1.4-0.9-2.5c0-1.1,0.3-1.9,0.8-2.5c0.5-0.6,1.3-0.9,2.2-0.9
				c0.9,0,1.6,0.3,2.1,0.8s0.8,1.3,0.8,2.2v0.8h-4.4c0,0.6,0.2,1.1,0.5,1.5c0.3,0.3,0.8,0.5,1.4,0.5c0.4,0,0.8,0,1.1-0.1
				s0.7-0.2,1.1-0.4v1.1c-0.3,0.2-0.7,0.3-1,0.3C434,195,433.6,195,433.2,195z M432.9,189.2c-0.4,0-0.8,0.1-1.1,0.4
				c-0.3,0.3-0.4,0.7-0.5,1.2h3c0-0.5-0.1-1-0.4-1.2S433.4,189.2,432.9,189.2z"/>
			<path d="M441.8,193c0,0.6-0.2,1.1-0.7,1.5c-0.5,0.3-1.1,0.5-2,0.5c-0.9,0-1.6-0.1-2.1-0.4v-1.2c0.8,0.4,1.5,0.5,2.2,0.5
				c0.9,0,1.3-0.3,1.3-0.8c0-0.2,0-0.3-0.1-0.4c-0.1-0.1-0.3-0.2-0.5-0.3c-0.2-0.1-0.5-0.3-0.9-0.4c-0.8-0.3-1.3-0.6-1.5-0.9
				c-0.3-0.3-0.4-0.7-0.4-1.1c0-0.6,0.2-1,0.7-1.3c0.5-0.3,1.1-0.5,1.9-0.5c0.8,0,1.5,0.2,2.2,0.5l-0.5,1.1
				c-0.7-0.3-1.3-0.4-1.8-0.4c-0.7,0-1.1,0.2-1.1,0.6c0,0.2,0.1,0.4,0.3,0.5c0.2,0.1,0.6,0.3,1.3,0.6c0.5,0.2,0.9,0.4,1.2,0.6
				c0.2,0.2,0.4,0.4,0.5,0.6C441.7,192.4,441.8,192.7,441.8,193z"/>
			<path d="M377.7,209.6h-1v-6.2c0-0.5,0-1,0-1.5c-0.1,0.1-0.2,0.2-0.3,0.3c-0.1,0.1-0.6,0.5-1.4,1.2l-0.5-0.7l2.3-1.8h0.8V209.6z"
				/>
			<path d="M387.1,207.6h-1.3v2h-1v-2h-4.2v-0.9l4.1-5.9h1.1v5.9h1.3V207.6z M384.9,206.7v-2.9c0-0.6,0-1.2,0.1-1.9h0
				c-0.2,0.4-0.4,0.7-0.5,0.9l-2.7,3.9H384.9z"/>
			<path d="M393.4,202.9c0,0.6-0.2,1-0.5,1.4c-0.3,0.4-0.8,0.6-1.3,0.7v0c0.7,0.1,1.2,0.3,1.6,0.7c0.3,0.4,0.5,0.8,0.5,1.4
				c0,0.8-0.3,1.5-0.9,1.9c-0.6,0.4-1.4,0.7-2.5,0.7c-0.5,0-0.9,0-1.3-0.1c-0.4-0.1-0.8-0.2-1.1-0.4v-0.9c0.4,0.2,0.8,0.3,1.2,0.4
				c0.4,0.1,0.8,0.1,1.2,0.1c1.5,0,2.3-0.6,2.3-1.8c0-1.1-0.8-1.6-2.5-1.6h-0.9v-0.9h0.9c0.7,0,1.2-0.2,1.6-0.5s0.6-0.7,0.6-1.3
				c0-0.4-0.1-0.8-0.4-1c-0.3-0.2-0.7-0.4-1.2-0.4c-0.4,0-0.7,0.1-1.1,0.2c-0.3,0.1-0.7,0.3-1.2,0.6l-0.5-0.7
				c0.4-0.3,0.8-0.5,1.2-0.7c0.5-0.2,1-0.2,1.5-0.2c0.8,0,1.5,0.2,2,0.6S393.4,202.2,393.4,202.9z"/>
			<path d="M395.3,208.9c0-0.3,0.1-0.5,0.2-0.6c0.1-0.1,0.3-0.2,0.5-0.2c0.2,0,0.4,0.1,0.5,0.2c0.1,0.1,0.2,0.3,0.2,0.6
				c0,0.3-0.1,0.5-0.2,0.6c-0.1,0.1-0.3,0.2-0.5,0.2c-0.2,0-0.4-0.1-0.5-0.2C395.4,209.4,395.3,209.2,395.3,208.9z"/>
			<path d="M401.9,209.6h-1v-6.2c0-0.5,0-1,0-1.5c-0.1,0.1-0.2,0.2-0.3,0.3c-0.1,0.1-0.6,0.5-1.4,1.2l-0.5-0.7l2.3-1.8h0.8V209.6z"
				/>
			<path d="M408,204.2c0.9,0,1.6,0.2,2.2,0.7s0.8,1.1,0.8,1.9c0,0.9-0.3,1.6-0.9,2.1c-0.6,0.5-1.4,0.8-2.4,0.8c-1,0-1.7-0.2-2.3-0.5
				v-1c0.3,0.2,0.6,0.3,1,0.4s0.8,0.2,1.2,0.2c0.7,0,1.2-0.2,1.6-0.5c0.4-0.3,0.6-0.8,0.6-1.4c0-1.2-0.7-1.8-2.2-1.8
				c-0.4,0-0.9,0.1-1.5,0.2l-0.5-0.3l0.3-4.1h4.3v0.9h-3.5l-0.2,2.6C407.1,204.3,407.5,204.2,408,204.2z"/>
			<path d="M412.5,208.9c0-0.3,0.1-0.5,0.2-0.6c0.1-0.1,0.3-0.2,0.5-0.2c0.2,0,0.4,0.1,0.5,0.2c0.1,0.1,0.2,0.3,0.2,0.6
				c0,0.3-0.1,0.5-0.2,0.6c-0.1,0.1-0.3,0.2-0.5,0.2c-0.2,0-0.4-0.1-0.5-0.2C412.6,209.4,412.5,209.2,412.5,208.9z"/>
			<path d="M421.2,209.6h-5.7v-0.9l2.3-2.3c0.7-0.7,1.2-1.2,1.4-1.5s0.4-0.6,0.5-0.9c0.1-0.3,0.2-0.6,0.2-0.9c0-0.5-0.1-0.8-0.4-1.1
				c-0.3-0.3-0.7-0.4-1.2-0.4c-0.4,0-0.7,0.1-1,0.2c-0.3,0.1-0.7,0.3-1.1,0.7l-0.5-0.7c0.8-0.7,1.7-1,2.6-1c0.8,0,1.5,0.2,1.9,0.6
				c0.5,0.4,0.7,1,0.7,1.7c0,0.6-0.2,1.1-0.5,1.6s-0.9,1.2-1.7,2.1l-1.9,1.9v0h4.5V209.6z"/>
			<path d="M422.8,208.9c0-0.3,0.1-0.5,0.2-0.6c0.1-0.1,0.3-0.2,0.5-0.2c0.2,0,0.4,0.1,0.5,0.2c0.1,0.1,0.2,0.3,0.2,0.6
				c0,0.3-0.1,0.5-0.2,0.6c-0.1,0.1-0.3,0.2-0.5,0.2c-0.2,0-0.4-0.1-0.5-0.2C422.9,209.4,422.8,209.2,422.8,208.9z"/>
			<path d="M431.5,205.2c0,1.5-0.2,2.6-0.7,3.4c-0.5,0.7-1.2,1.1-2.2,1.1c-0.9,0-1.7-0.4-2.1-1.1c-0.5-0.8-0.7-1.9-0.7-3.4
				c0-1.5,0.2-2.7,0.7-3.4s1.2-1.1,2.2-1.1c0.9,0,1.7,0.4,2.2,1.2S431.5,203.7,431.5,205.2z M426.8,205.2c0,1.3,0.1,2.2,0.4,2.8
				c0.3,0.6,0.8,0.9,1.4,0.9c0.7,0,1.1-0.3,1.4-0.9c0.3-0.6,0.4-1.5,0.4-2.8s-0.1-2.2-0.4-2.8c-0.3-0.6-0.8-0.9-1.4-0.9
				c-0.7,0-1.1,0.3-1.4,0.9C426.9,203,426.8,203.9,426.8,205.2z"/>
			<path d="M436.5,200.8l-3.3,8.7h-1l3.3-8.7H436.5z"/>
			<path d="M443,209.6h-5.7v-0.9l2.3-2.3c0.7-0.7,1.2-1.2,1.4-1.5s0.4-0.6,0.5-0.9c0.1-0.3,0.2-0.6,0.2-0.9c0-0.5-0.1-0.8-0.4-1.1
				c-0.3-0.3-0.7-0.4-1.2-0.4c-0.4,0-0.7,0.1-1,0.2c-0.3,0.1-0.7,0.3-1.1,0.7l-0.5-0.7c0.8-0.7,1.7-1,2.6-1c0.8,0,1.5,0.2,1.9,0.6
				c0.5,0.4,0.7,1,0.7,1.7c0,0.6-0.2,1.1-0.5,1.6s-0.9,1.2-1.7,2.1l-1.9,1.9v0h4.5V209.6z"/>
			<path d="M450.4,207.6h-1.3v2h-1v-2h-4.2v-0.9l4.1-5.9h1.1v5.9h1.3V207.6z M448.1,206.7v-2.9c0-0.6,0-1.2,0.1-1.9h0
				c-0.2,0.4-0.4,0.7-0.5,0.9l-2.7,3.9H448.1z"/>
		</g>
	</g>
	<g>
		<rect x="102.4" y="124.9" transform="matrix(0.408 -0.913 0.913 0.408 -94.4036 195.3033)" class="st4" width="2" height="91.1"/>
	</g>
	<g>
		
			<rect x="29" y="204.1" transform="matrix(0.9623 -0.2719 0.2719 0.9623 -52.4592 31.6905)" class="st4" width="118.2" height="2"/>
	</g>
	<g>
		<rect x="84.5" y="223" transform="matrix(0.4996 -0.8663 0.8663 0.4996 -131.55 220.2325)" class="st4" width="80.7" height="2"/>
	</g>
	<g>
		<g>
			<path class="st3" d="M169.9,208.5H120c-0.9,0-1.7-0.8-1.7-1.7v-35.4c0-0.9,0.8-1.7,1.7-1.7h49.9c0.9,0,1.7,0.8,1.7,1.7v35.4
				C171.6,207.7,170.9,208.5,169.9,208.5z"/>
			<path d="M169.9,210H120c-1.8,0-3.2-1.4-3.2-3.2v-35.4c0-1.8,1.4-3.2,3.2-3.2h49.9c1.8,0,3.2,1.4,3.2,3.2v35.4
				C173.1,208.5,171.7,210,169.9,210z M120,171.1c-0.1,0-0.2,0.1-0.2,0.2v35.4c0,0.1,0.1,0.2,0.2,0.2h49.9c0.1,0,0.2-0.1,0.2-0.2
				v-35.4c0-0.1-0.1-0.2-0.2-0.2H120z"/>
		</g>
		<g>
			<g>
				<g>
					<g>
						<rect x="134.2" y="177.5" width="10.9" height="4"/>
					</g>
					<g>
						<g>
							<polygon points="135.6,174.5 127,179.5 135.6,184.4 							"/>
						</g>
					</g>
				</g>
				<g>
					<g>
						<rect x="131.4" y="190.8" width="10.9" height="4"/>
					</g>
					<g>
						<g>
							<polygon points="132.8,187.8 124.2,192.8 132.8,197.8 							"/>
						</g>
					</g>
				</g>
			</g>
			<g>
				<g>
					<g>
						<rect x="144.9" y="196.6" width="10.9" height="4"/>
					</g>
					<g>
						<g>
							<polygon points="154.3,203.6 163,198.6 154.3,193.6 							"/>
						</g>
					</g>
				</g>
				<g>
					<g>
						<rect x="147.7" y="183.2" width="10.9" height="4"/>
					</g>
					<g>
						<g>
							<polygon points="157.1,190.2 165.8,185.2 157.1,180.3 							"/>
						</g>
					</g>
				</g>
			</g>
		</g>
	</g>
	<g>
		<g>
			<path class="st3" d="M73.5,164.4H50.2c-2.8,0-5.1-2.3-5.1-5.1v-14.9c0-2.8,2.3-5.1,5.1-5.1h23.3c2.8,0,5.1,2.3,5.1,5.1v14.9
				C78.5,162.1,76.3,164.4,73.5,164.4z"/>
			<path d="M73.5,165.9H50.2c-3.6,0-6.6-2.9-6.6-6.6v-14.9c0-3.6,2.9-6.6,6.6-6.6h23.3c3.6,0,6.6,2.9,6.6,6.6v14.9
				C80,162.9,77.1,165.9,73.5,165.9z M50.2,140.8c-2,0-3.6,1.6-3.6,3.6v14.9c0,2,1.6,3.6,3.6,3.6h23.3c2,0,3.6-1.6,3.6-3.6v-14.9
				c0-2-1.6-3.6-3.6-3.6H50.2z"/>
		</g>
		<g>
			<g>
				<path class="st3" d="M44.1,177.8c-1.1,0-1.5-0.8-1-1.7l3.5-5.6c0.6-0.9,1.9-1.5,3-1.5h24.7c1.1,0,2.5,0.6,3,1.5l3.6,5.9
					c0.6,0.9,0.1,1.7-1,1.7L44.1,177.8z"/>
			</g>
			<g>
				<path d="M80,180C80,180,79.9,180,80,180l-35.9-0.4c-1.1,0-2-0.6-2.4-1.4c-0.5-0.8-0.4-1.9,0.2-2.8l3.5-5.9
					c0.9-1.4,2.7-2.5,4.3-2.5h24.7c1.6,0,3.5,1.1,4.3,2.5l3.6,6.1c0.6,0.9,0.6,2.2,0.1,3C81.9,179.3,81,180,80,180z M44,176.3
					l0.1,1.5L44,176.3C44,176.3,44,176.3,44,176.3z M44.7,176.3l34.6,0.2L76,171c-0.3-0.5-1.2-1-1.7-1H49.6c-0.5,0-1.4,0.5-1.7,1.1
					L44.7,176.3z"/>
			</g>
		</g>
		<g>
			<rect x="55.7" y="164.4" width="12.3" height="4.2"/>
		</g>
		<g>
			<path d="M72.7,160.3H50.9c-0.7,0-1.2-0.5-1.2-1.2v-14.4c0-0.7,0.5-1.2,1.2-1.2h21.8c0.7,0,1.2,0.5,1.2,1.2v14.4
				C73.9,159.7,73.4,160.3,72.7,160.3z"/>
		</g>
	</g>
	<g>
		<g>
			<path class="st3" d="M42.9,233.7H19.6c-2.8,0-5.1-2.3-5.1-5.1v-14.9c0-2.8,2.3-5.1,5.1-5.1h23.3c2.8,0,5.1,2.3,5.1,5.1v14.9
				C48,231.4,45.7,233.7,42.9,233.7z"/>
			<path d="M42.9,235.2H19.6c-3.6,0-6.6-2.9-6.6-6.6v-14.9c0-3.6,2.9-6.6,6.6-6.6h23.3c3.6,0,6.6,2.9,6.6,6.6v14.9
				C49.5,232.3,46.5,235.2,42.9,235.2z M19.6,210.2c-2,0-3.6,1.6-3.6,3.6v14.9c0,2,1.6,3.6,3.6,3.6h23.3c2,0,3.6-1.6,3.6-3.6v-14.9
				c0-2-1.6-3.6-3.6-3.6H19.6z"/>
		</g>
		<g>
			<g>
				<path class="st3" d="M13.5,247.2c-1.1,0-1.5-0.8-1-1.7l3.5-5.7c0.6-0.9,1.9-1.7,3-1.7h24.7c1.1,0,2.5,0.8,3,1.7l3.6,6
					c0.6,0.9,0.1,1.7-1,1.7L13.5,247.2z"/>
			</g>
			<g>
				<path d="M49.4,249C49.4,249,49.4,249,49.4,249l-35.9-0.3c-1.1,0-2-0.5-2.4-1.3c-0.5-0.8-0.4-1.8,0.2-2.7l3.5-6
					c0.8-1.3,2.6-2.7,4.3-2.7h24.7c1.7,0,3.5,1.4,4.3,2.7l3.6,6.1c0.6,0.9,0.6,2,0.1,2.8C51.3,248.5,50.4,249,49.4,249z M13.4,245.7
					l0.1,1.5L13.4,245.7C13.4,245.7,13.4,245.7,13.4,245.7z M14.1,245.7l34.6,0.2l-3.3-5.6c-0.4-0.6-1.3-1.2-1.7-1.2H19
					c-0.4,0-1.4,0.6-1.7,1.2L14.1,245.7z"/>
			</g>
		</g>
		<g>
			<rect x="25.1" y="233.7" width="12.3" height="4.2"/>
		</g>
		<g>
			<path d="M42.1,229.6H20.3c-0.7,0-1.2-0.5-1.2-1.2V214c0-0.7,0.5-1.2,1.2-1.2h21.8c0.7,0,1.2,0.5,1.2,1.2v14.4
				C43.3,229.1,42.8,229.6,42.1,229.6z"/>
		</g>
	</g>
	<g>
		<g>
			<path class="st3" d="M116.3,271.4H93c-2.8,0-5.1-2.3-5.1-5.1v-14.9c0-2.8,2.3-5.1,5.1-5.1h23.3c2.8,0,5.1,2.3,5.1,5.1v14.9
				C121.4,269.2,119.1,271.4,116.3,271.4z"/>
			<path d="M116.3,272.9H93c-3.6,0-6.6-2.9-6.6-6.6v-14.9c0-3.6,2.9-6.6,6.6-6.6h23.3c3.6,0,6.6,2.9,6.6,6.6v14.9
				C122.9,270,119.9,272.9,116.3,272.9z M93,247.9c-2,0-3.6,1.6-3.6,3.6v14.9c0,2,1.6,3.6,3.6,3.6h23.3c2,0,3.6-1.6,3.6-3.6v-14.9
				c0-2-1.6-3.6-3.6-3.6H93z"/>
		</g>
		<g>
			<g>
				<path class="st3" d="M86.9,284.9c-1.1,0-1.5-0.8-1-1.7l3.5-5.6c0.6-0.9,1.9-1.6,3-1.6h24.7c1.1,0,2.5,0.6,3,1.6l3.6,5.9
					c0.6,0.9,0.1,1.7-1,1.7L86.9,284.9z"/>
			</g>
			<g>
				<path d="M122.8,287C122.8,287,122.8,287,122.8,287l-35.9-0.4c-1.1,0-2-0.6-2.4-1.4c-0.5-0.8-0.4-1.8,0.2-2.8l3.5-5.9
					c0.9-1.4,2.7-2.6,4.3-2.6h24.7c1.6,0,3.4,1.1,4.3,2.5l3.6,6.1c0.6,0.9,0.6,2.1,0.1,2.9C124.7,286.3,123.8,287,122.8,287z
					 M86.8,283.4l0.1,1.5L86.8,283.4C86.9,283.4,86.8,283.4,86.8,283.4z M87.5,283.4l34.6,0.2l-3.3-5.5c-0.3-0.5-1.2-1.1-1.7-1.1
					H92.4c-0.5,0-1.4,0.6-1.7,1.1L87.5,283.4z"/>
			</g>
		</g>
		<g>
			<rect x="98.5" y="271.4" width="12.3" height="4.2"/>
		</g>
		<g>
			<path d="M115.5,267.3H93.7c-0.7,0-1.2-0.5-1.2-1.2v-14.4c0-0.7,0.5-1.2,1.2-1.2h21.8c0.7,0,1.2,0.5,1.2,1.2v14.4
				C116.7,266.8,116.2,267.3,115.5,267.3z"/>
		</g>
	</g>
	<g>
		<path d="M64.4,192.5l-0.9-2.4h-3.3l-0.9,2.4h-1.5l3.3-8.8h1.6l3.3,8.8H64.4z M63.2,188.9l-0.8-2.4c-0.1-0.2-0.1-0.4-0.2-0.8
			c-0.1-0.3-0.2-0.6-0.2-0.8c-0.1,0.5-0.3,1-0.5,1.6l-0.8,2.3H63.2z"/>
	</g>
	<g>
		<path d="M28.4,254H31c1.2,0,2.1,0.2,2.6,0.5c0.5,0.4,0.8,0.9,0.8,1.7c0,0.5-0.1,0.9-0.4,1.3c-0.3,0.3-0.6,0.6-1.1,0.6v0.1
			c0.6,0.1,1.1,0.3,1.4,0.7c0.3,0.3,0.4,0.8,0.4,1.4c0,0.8-0.3,1.4-0.8,1.8c-0.5,0.4-1.3,0.7-2.3,0.7h-3.2V254z M29.8,257.6h1.4
			c0.6,0,1-0.1,1.3-0.3c0.3-0.2,0.4-0.5,0.4-1c0-0.4-0.1-0.7-0.4-0.9c-0.3-0.2-0.8-0.3-1.4-0.3h-1.2V257.6z M29.8,258.7v2.8h1.5
			c0.6,0,1-0.1,1.4-0.3s0.5-0.6,0.5-1.1c0-0.5-0.2-0.8-0.5-1c-0.3-0.2-0.8-0.3-1.4-0.3H29.8z"/>
	</g>
	<g>
		<path d="M105.7,292.6c-0.8,0-1.5,0.3-1.9,0.9c-0.5,0.6-0.7,1.4-0.7,2.4c0,1.1,0.2,1.9,0.7,2.4c0.5,0.5,1.1,0.8,2,0.8
			c0.4,0,0.7,0,1.1-0.1c0.3-0.1,0.7-0.2,1.1-0.3v1.2c-0.7,0.3-1.5,0.4-2.3,0.4c-1.3,0-2.3-0.4-2.9-1.2c-0.7-0.8-1-1.9-1-3.3
			c0-0.9,0.2-1.7,0.5-2.4s0.8-1.2,1.4-1.6c0.6-0.4,1.4-0.5,2.2-0.5c0.9,0,1.7,0.2,2.5,0.6l-0.5,1.2c-0.3-0.1-0.6-0.3-0.9-0.4
			C106.4,292.7,106.1,292.6,105.7,292.6z"/>
	</g>
	<g>
		<g>
			<ellipse class="st3" cx="515.2" cy="111.6" rx="26.5" ry="23.4"/>
			<path d="M515.2,137.1c-15.7,0-28.5-11.4-28.5-25.4s12.8-25.4,28.5-25.4s28.5,11.4,28.5,25.4S530.9,137.1,515.2,137.1z
				 M515.2,90.2c-13.5,0-24.5,9.6-24.5,21.4s11,21.4,24.5,21.4s24.5-9.6,24.5-21.4S528.7,90.2,515.2,90.2z"/>
		</g>
		<g>
			<g>
				<g>
					<rect x="504.4" y="94.7" transform="matrix(0.8102 -0.5862 0.5862 0.8102 37.8279 315.7347)" width="4" height="9.5"/>
				</g>
				<g>
					<g>
						<polygon points="504.3,105 513.4,109.1 512.4,99.2 						"/>
					</g>
				</g>
			</g>
			<g>
				<g>
					<rect x="502.7" y="114.3" transform="matrix(0.8343 -0.5513 0.5513 0.8343 20.1025 299.4148)" width="10.9" height="4"/>
				</g>
				<g>
					<g>
						<polygon points="502.1,114.3 497.6,123.2 507.6,122.6 						"/>
					</g>
				</g>
			</g>
			<g>
				<g>
					<rect x="522" y="119.1" transform="matrix(0.8101 -0.5863 0.5863 0.8101 26.9197 330.7226)" width="4" height="9.5"/>
				</g>
				<g>
					<g>
						<polygon points="526.1,118.2 517,114.1 518.1,124.1 						"/>
					</g>
				</g>
			</g>
			<g>
				<g>
					<rect x="516.7" y="105" transform="matrix(0.8343 -0.5513 0.5513 0.8343 27.5415 305.6157)" width="10.9" height="4"/>
				</g>
				<g>
					<g>
						<polygon points="528.3,109 532.7,100 522.8,100.6 						"/>
					</g>
				</g>
			</g>
		</g>
	</g>
	<g>
		<g>
			<path class="st3" d="M483.6,31.5c0.5-1.2,0.8-2.5,0.8-3.8c0-6.2-6.2-11.3-13.8-11.3c-1,0-2,0.1-2.9,0.3C465.5,12.2,460.2,9,454,9
				c-4.3,0-8.2,1.5-10.9,4c-1.9-1.5-4.4-2.5-7.3-2.5c-1.1,0-2.2,0.2-3.2,0.4c-1.7-4.4-6-7.6-11-7.6c-5.4,0-9.9,3.6-11.4,8.5
				c-2.4-1.8-5.9-2.9-9.8-2.9c-3.8,0-7.2,1.1-9.6,2.7c-1.5-0.8-3.3-1.2-5.1-1.2c-6.4,0-11.6,5.2-11.6,11.6c0,4.7,2.8,8.7,6.7,10.5
				c-0.3,0.9-0.5,1.9-0.5,2.9c0,5.8,5.7,10.5,12.8,10.5c0.6,0,1.2,0,1.7-0.1c0,0,0,0.1,0,0.1c0,7.3,7.7,13.3,17.1,13.3
				c6.5,0,12.1-2.8,15-6.9c2.5,2.4,6,3.9,10,3.9c2.4,0,4.7-0.6,6.7-1.5c2.6,1.6,5.8,2.6,9.3,2.6c7.3,0,13.4-4.2,15.3-10
				c1.1,0.2,2.2,0.3,3.4,0.3c8.2,0,14.8-4.5,14.8-10.1C486.4,35.2,485.4,33.1,483.6,31.5z"/>
			<path d="M412,60.2c-9.6,0-17.4-5.9-18.1-13.3c-0.3,0-0.5,0-0.8,0c-7.6,0-13.8-5.1-13.8-11.5c0-0.8,0.1-1.6,0.3-2.4
				c-4-2.2-6.5-6.4-6.5-11c0-6.9,5.6-12.6,12.6-12.6c1.7,0,3.4,0.4,5,1.1c2.6-1.7,6-2.6,9.7-2.6c3.4,0,6.7,0.8,9.3,2.4
				c2-4.8,6.7-8,11.9-8c5,0,9.5,2.9,11.6,7.4c3.5-0.7,7.2,0,9.9,1.9c3-2.4,6.8-3.7,10.9-3.7c6.1,0,11.6,2.9,14.3,7.6
				c0.8-0.1,1.6-0.2,2.4-0.2c8.1,0,14.8,5.5,14.8,12.3c0,1.2-0.2,2.4-0.6,3.6c1.8,1.8,2.7,4,2.7,6.2c0,6.1-7.1,11.1-15.8,11.1
				c-0.9,0-1.8-0.1-2.8-0.2c-2.3,5.8-8.8,9.9-16,9.9c-3.3,0-6.5-0.8-9.3-2.4c-2,0.9-4.3,1.4-6.6,1.4c-3.6,0-7.2-1.2-9.8-3.4
				C423.8,57.8,418.1,60.2,412,60.2z M395.9,44.7l0,1.3c0,6.7,7.2,12.2,16.1,12.2c6,0,11.4-2.5,14.2-6.5l0.7-0.9l0.8,0.8
				c2.4,2.3,5.8,3.6,9.3,3.6c2.2,0,4.3-0.5,6.2-1.4l0.5-0.2l0.5,0.3c2.6,1.6,5.6,2.4,8.7,2.4c6.7,0,12.6-3.8,14.4-9.3l0.3-0.8
				l0.8,0.1c1.1,0.2,2.2,0.3,3.3,0.3c7.6,0,13.8-4.1,13.8-9.1c0-1.9-0.9-3.7-2.5-5.2l-0.5-0.5l0.3-0.7c0.5-1.1,0.7-2.3,0.7-3.4
				c0-5.7-5.7-10.3-12.8-10.3c-0.9,0-1.8,0.1-2.7,0.2l-0.7,0.1l-0.3-0.7c-2.1-4.3-7.2-7.1-12.8-7.1c-3.9,0-7.6,1.4-10.2,3.7
				l-0.6,0.6l-0.7-0.5c-1.8-1.4-4.1-2.2-6.7-2.2c-1,0-2,0.1-3,0.4l-0.9,0.2l-0.3-0.8c-1.6-4.2-5.6-6.9-10.1-6.9
				c-4.8,0-9.1,3.2-10.4,7.8l-0.4,1.4l-1.1-0.8c-2.3-1.7-5.7-2.7-9.2-2.7c-3.4,0-6.7,0.9-9,2.6l-0.5,0.3l-0.5-0.3
				c-1.5-0.7-3-1.1-4.7-1.1c-5.8,0-10.6,4.7-10.6,10.6c0,4.1,2.4,7.9,6.1,9.6l0.8,0.4l-0.3,0.9c-0.3,0.9-0.5,1.7-0.5,2.6
				c0,5.2,5.3,9.5,11.8,9.5c0.5,0,1,0,1.6-0.1L395.9,44.7z"/>
		</g>
		<g>
			<path d="M411.9,28.4h-4.9v-8.7h4.9v1.2h-3.5v2.4h3.3v1.2h-3.3v2.7h3.5V28.4z"/>
			<path d="M415.1,25l-2.2-3.2h1.6l1.5,2.3l1.5-2.3h1.6l-2.2,3.2l2.3,3.4h-1.6l-1.6-2.5l-1.6,2.5h-1.6L415.1,25z"/>
			<path d="M422.8,27.4c0.3,0,0.7-0.1,1-0.2v1.1c-0.2,0.1-0.4,0.1-0.6,0.2c-0.2,0-0.5,0.1-0.8,0.1c-1.3,0-2-0.7-2-2.1v-3.6h-0.9
				v-0.6l1-0.5l0.5-1.4h0.9v1.5h1.9v1.1h-1.9v3.5c0,0.3,0.1,0.6,0.3,0.8C422.3,27.3,422.5,27.4,422.8,27.4z"/>
			<path d="M428.1,28.5c-1,0-1.8-0.3-2.4-0.9c-0.6-0.6-0.9-1.4-0.9-2.5c0-1.1,0.3-1.9,0.8-2.5c0.5-0.6,1.3-0.9,2.2-0.9
				c0.9,0,1.6,0.3,2.1,0.8s0.8,1.3,0.8,2.2v0.8h-4.4c0,0.6,0.2,1.1,0.5,1.5c0.3,0.3,0.8,0.5,1.4,0.5c0.4,0,0.8,0,1.1-0.1
				s0.7-0.2,1.1-0.4v1.1c-0.3,0.2-0.7,0.3-1,0.3C428.9,28.5,428.5,28.5,428.1,28.5z M427.8,22.8c-0.4,0-0.8,0.1-1.1,0.4
				c-0.3,0.3-0.4,0.7-0.5,1.2h3c0-0.5-0.1-1-0.4-1.2S428.2,22.8,427.8,22.8z"/>
			<path d="M435.6,21.7c0.3,0,0.5,0,0.7,0.1l-0.1,1.3c-0.2,0-0.4-0.1-0.6-0.1c-0.6,0-1,0.2-1.4,0.5c-0.3,0.4-0.5,0.8-0.5,1.4v3.5
				h-1.4v-6.6h1.1l0.2,1.2h0.1c0.2-0.4,0.5-0.7,0.9-0.9C434.8,21.8,435.2,21.7,435.6,21.7z"/>
			<path d="M443.3,28.4h-1.4v-4.1c0-0.5-0.1-0.9-0.3-1.1c-0.2-0.3-0.5-0.4-1-0.4c-0.6,0-1,0.2-1.3,0.5c-0.3,0.4-0.4,0.9-0.4,1.8v3.3
				h-1.4v-6.6h1.1l0.2,0.9h0.1c0.2-0.3,0.5-0.6,0.8-0.7s0.8-0.3,1.2-0.3c1.6,0,2.4,0.8,2.4,2.4V28.4z"/>
			<path d="M449.4,28.4l-0.3-0.9h0c-0.3,0.4-0.6,0.7-1,0.8c-0.3,0.1-0.7,0.2-1.2,0.2c-0.6,0-1.2-0.2-1.5-0.5s-0.5-0.8-0.5-1.5
				c0-0.7,0.3-1.2,0.8-1.5s1.3-0.5,2.3-0.6l1.1,0V24c0-0.4-0.1-0.7-0.3-0.9c-0.2-0.2-0.5-0.3-0.9-0.3c-0.3,0-0.7,0-1,0.1
				s-0.6,0.2-0.9,0.4l-0.5-1c0.4-0.2,0.8-0.3,1.2-0.4c0.4-0.1,0.8-0.1,1.2-0.1c0.8,0,1.5,0.2,1.9,0.5c0.4,0.4,0.6,0.9,0.6,1.7v4.5
				H449.4z M447.3,27.5c0.5,0,0.9-0.1,1.2-0.4s0.5-0.7,0.5-1.2v-0.6l-0.8,0c-0.7,0-1.1,0.1-1.4,0.3c-0.3,0.2-0.5,0.5-0.5,0.9
				c0,0.3,0.1,0.5,0.3,0.7C446.7,27.4,447,27.5,447.3,27.5z"/>
			<path d="M453.8,28.4h-1.4v-9.3h1.4V28.4z"/>
			<path d="M409.4,43.1H408V39c0-0.5-0.1-0.9-0.3-1.1c-0.2-0.3-0.5-0.4-1-0.4c-0.6,0-1,0.2-1.3,0.5c-0.3,0.4-0.4,0.9-0.4,1.8v3.3
				h-1.4v-6.6h1.1l0.2,0.9h0.1c0.2-0.3,0.5-0.6,0.8-0.7s0.8-0.3,1.2-0.3c1.6,0,2.4,0.8,2.4,2.4V43.1z"/>
			<path d="M414.3,43.2c-1,0-1.8-0.3-2.4-0.9c-0.6-0.6-0.9-1.4-0.9-2.5c0-1.1,0.3-1.9,0.8-2.5c0.5-0.6,1.3-0.9,2.2-0.9
				c0.9,0,1.6,0.3,2.1,0.8s0.8,1.3,0.8,2.2v0.8h-4.4c0,0.6,0.2,1.1,0.5,1.5c0.3,0.3,0.8,0.5,1.4,0.5c0.4,0,0.8,0,1.1-0.1
				s0.7-0.2,1.1-0.4v1.1c-0.3,0.2-0.7,0.3-1,0.3C415.1,43.2,414.7,43.2,414.3,43.2z M414,37.4c-0.4,0-0.8,0.1-1.1,0.4
				c-0.3,0.3-0.4,0.7-0.5,1.2h3c0-0.5-0.1-1-0.4-1.2S414.5,37.4,414,37.4z"/>
			<path d="M420.9,42.1c0.3,0,0.7-0.1,1-0.2V43c-0.2,0.1-0.4,0.1-0.6,0.2c-0.2,0-0.5,0.1-0.8,0.1c-1.3,0-2-0.7-2-2.1v-3.6h-0.9v-0.6
				l1-0.5l0.5-1.4h0.9v1.5h1.9v1.1H420v3.5c0,0.3,0.1,0.6,0.3,0.8C420.4,42,420.6,42.1,420.9,42.1z"/>
			<path d="M428.7,43.1l-0.9-3.1c-0.1-0.3-0.3-1.1-0.6-2.3h-0.1c-0.2,1.1-0.4,1.8-0.5,2.3l-0.9,3.1h-1.6l-1.9-6.6h1.4l0.8,3.3
				c0.2,0.8,0.3,1.5,0.4,2.1h0c0-0.3,0.1-0.6,0.2-1c0.1-0.4,0.2-0.7,0.2-0.8l1-3.5h1.5l1,3.5c0.1,0.2,0.1,0.5,0.2,0.9
				c0.1,0.4,0.1,0.7,0.2,0.9h0c0.1-0.5,0.2-1.2,0.4-2.1l0.9-3.3h1.4l-1.9,6.6H428.7z"/>
			<path d="M439.1,39.8c0,1.1-0.3,1.9-0.8,2.5c-0.6,0.6-1.3,0.9-2.3,0.9c-0.6,0-1.2-0.1-1.6-0.4s-0.8-0.7-1.1-1.2
				c-0.3-0.5-0.4-1.1-0.4-1.8c0-1.1,0.3-1.9,0.8-2.5c0.5-0.6,1.3-0.9,2.3-0.9c1,0,1.7,0.3,2.3,0.9S439.1,38.7,439.1,39.8z
				 M434.3,39.8c0,1.5,0.6,2.3,1.7,2.3c1.1,0,1.7-0.8,1.7-2.3c0-1.5-0.6-2.3-1.7-2.3c-0.6,0-1,0.2-1.3,0.6S434.3,39.1,434.3,39.8z"
				/>
			<path d="M444.1,36.4c0.3,0,0.5,0,0.7,0.1l-0.1,1.3c-0.2,0-0.4-0.1-0.6-0.1c-0.6,0-1,0.2-1.4,0.5c-0.3,0.4-0.5,0.8-0.5,1.4v3.5
				h-1.4v-6.6h1.1l0.2,1.2h0.1c0.2-0.4,0.5-0.7,0.9-0.9C443.3,36.5,443.7,36.4,444.1,36.4z"/>
			<path d="M447.3,39.6l0.8-1l2-2.1h1.6l-2.7,2.8l2.8,3.8h-1.6l-2.1-2.9l-0.8,0.6v2.3H446v-9.3h1.4v4.5L447.3,39.6L447.3,39.6z"/>
			<path d="M457.4,41.2c0,0.6-0.2,1.1-0.7,1.5c-0.5,0.3-1.1,0.5-2,0.5c-0.9,0-1.6-0.1-2.1-0.4v-1.2c0.8,0.4,1.5,0.5,2.2,0.5
				c0.9,0,1.3-0.3,1.3-0.8c0-0.2,0-0.3-0.1-0.4c-0.1-0.1-0.3-0.2-0.5-0.3c-0.2-0.1-0.5-0.3-0.9-0.4c-0.8-0.3-1.3-0.6-1.5-0.9
				c-0.3-0.3-0.4-0.7-0.4-1.1c0-0.6,0.2-1,0.7-1.3c0.5-0.3,1.1-0.5,1.9-0.5c0.8,0,1.5,0.2,2.2,0.5l-0.5,1.1
				c-0.7-0.3-1.3-0.4-1.8-0.4c-0.7,0-1.1,0.2-1.1,0.6c0,0.2,0.1,0.4,0.3,0.5c0.2,0.1,0.6,0.3,1.3,0.6c0.5,0.2,0.9,0.4,1.2,0.6
				c0.2,0.2,0.4,0.4,0.5,0.6C457.4,40.6,457.4,40.9,457.4,41.2z"/>
		</g>
	</g>
	<g>
		<path d="M172.3,255.4v-8.7h1.9v8.7H172.3z"/>
		<path d="M182.4,255.4h-1.8v-3.9c0-0.5-0.1-0.8-0.3-1.1c-0.2-0.2-0.4-0.4-0.8-0.4c-0.5,0-0.9,0.2-1.1,0.5c-0.2,0.3-0.3,0.9-0.3,1.7
			v3.1h-1.8v-6.7h1.4l0.2,0.9h0.1c0.2-0.3,0.5-0.6,0.8-0.7c0.4-0.2,0.8-0.2,1.2-0.2c0.8,0,1.4,0.2,1.8,0.6c0.4,0.4,0.6,1,0.6,1.8
			V255.4z"/>
		<path d="M187,254.1c0.3,0,0.7-0.1,1.1-0.2v1.4c-0.5,0.2-1,0.3-1.7,0.3c-0.7,0-1.3-0.2-1.6-0.6c-0.3-0.4-0.5-0.9-0.5-1.7v-3.2h-0.9
			v-0.8l1-0.6l0.5-1.4h1.2v1.4h1.9v1.4h-1.9v3.2c0,0.3,0.1,0.5,0.2,0.6C186.6,254,186.8,254.1,187,254.1z"/>
		<path d="M192.6,255.5c-1.1,0-1.9-0.3-2.5-0.9c-0.6-0.6-0.9-1.4-0.9-2.5c0-1.1,0.3-2,0.8-2.6c0.6-0.6,1.3-0.9,2.3-0.9
			c0.9,0,1.7,0.3,2.2,0.8c0.5,0.5,0.8,1.3,0.8,2.2v0.9H191c0,0.5,0.2,0.9,0.5,1.2c0.3,0.3,0.7,0.4,1.2,0.4c0.4,0,0.8,0,1.1-0.1
			c0.4-0.1,0.7-0.2,1.1-0.4v1.4c-0.3,0.2-0.7,0.3-1,0.4S193.1,255.5,192.6,255.5z M192.3,249.9c-0.4,0-0.7,0.1-0.9,0.4
			c-0.2,0.2-0.3,0.6-0.4,1h2.6c0-0.5-0.1-0.8-0.4-1S192.7,249.9,192.3,249.9z"/>
		<path d="M200.5,248.6c0.2,0,0.5,0,0.6,0.1l-0.1,1.7c-0.1,0-0.3-0.1-0.5-0.1c-0.6,0-1,0.1-1.4,0.4s-0.5,0.7-0.5,1.3v3.4h-1.8v-6.7
			h1.4l0.3,1.1h0.1c0.2-0.4,0.5-0.7,0.8-0.9S200.1,248.6,200.5,248.6z"/>
		<path d="M208.5,255.4h-1.8v-3.9c0-0.5-0.1-0.8-0.3-1.1c-0.2-0.2-0.4-0.4-0.8-0.4c-0.5,0-0.9,0.2-1.1,0.5c-0.2,0.3-0.3,0.9-0.3,1.7
			v3.1h-1.8v-6.7h1.4l0.2,0.9h0.1c0.2-0.3,0.5-0.6,0.8-0.7c0.4-0.2,0.8-0.2,1.2-0.2c0.8,0,1.4,0.2,1.8,0.6c0.4,0.4,0.6,1,0.6,1.8
			V255.4z"/>
		<path d="M214.6,255.4l-0.4-0.9h0c-0.3,0.4-0.6,0.7-0.9,0.8s-0.7,0.2-1.3,0.2c-0.6,0-1.1-0.2-1.5-0.5c-0.4-0.4-0.6-0.9-0.6-1.6
			c0-0.7,0.2-1.2,0.7-1.6c0.5-0.3,1.2-0.5,2.2-0.6l1.2,0V251c0-0.7-0.3-1-1-1c-0.5,0-1.2,0.2-1.9,0.5l-0.6-1.2
			c0.8-0.4,1.6-0.6,2.6-0.6c0.9,0,1.6,0.2,2.1,0.6c0.5,0.4,0.7,1,0.7,1.8v4.5H214.6z M214.1,252.3l-0.7,0c-0.5,0-0.9,0.1-1.2,0.3
			s-0.4,0.4-0.4,0.8c0,0.5,0.3,0.8,0.9,0.8c0.4,0,0.8-0.1,1-0.4c0.3-0.2,0.4-0.6,0.4-1V252.3z"/>
		<path d="M219.6,255.4h-1.8v-9.3h1.8V255.4z"/>
		<path d="M177.1,270.1h-1.8v-3.9c0-0.5-0.1-0.8-0.3-1.1c-0.2-0.2-0.4-0.4-0.8-0.4c-0.5,0-0.9,0.2-1.1,0.5c-0.2,0.3-0.3,0.9-0.3,1.7
			v3.1h-1.8v-6.7h1.4l0.2,0.9h0.1c0.2-0.3,0.5-0.6,0.8-0.7c0.4-0.2,0.8-0.2,1.2-0.2c0.8,0,1.4,0.2,1.8,0.6c0.4,0.4,0.6,1,0.6,1.8
			V270.1z"/>
		<path d="M182,270.2c-1.1,0-1.9-0.3-2.5-0.9c-0.6-0.6-0.9-1.4-0.9-2.5c0-1.1,0.3-2,0.8-2.6c0.6-0.6,1.3-0.9,2.3-0.9
			c0.9,0,1.7,0.3,2.2,0.8c0.5,0.5,0.8,1.3,0.8,2.2v0.9h-4.3c0,0.5,0.2,0.9,0.5,1.2c0.3,0.3,0.7,0.4,1.2,0.4c0.4,0,0.8,0,1.1-0.1
			c0.4-0.1,0.7-0.2,1.1-0.4v1.4c-0.3,0.2-0.7,0.3-1,0.4S182.5,270.2,182,270.2z M181.7,264.6c-0.4,0-0.7,0.1-0.9,0.4
			c-0.2,0.2-0.3,0.6-0.4,1h2.6c0-0.5-0.1-0.8-0.4-1S182.1,264.6,181.7,264.6z"/>
		<path d="M189,268.8c0.3,0,0.7-0.1,1.1-0.2v1.4c-0.5,0.2-1,0.3-1.7,0.3c-0.7,0-1.3-0.2-1.6-0.6c-0.3-0.4-0.5-0.9-0.5-1.7v-3.2h-0.9
			V264l1-0.6l0.5-1.4h1.2v1.4h1.9v1.4h-1.9v3.2c0,0.3,0.1,0.5,0.2,0.6C188.6,268.7,188.8,268.8,189,268.8z"/>
		<path d="M197,270.1l-0.5-2.3l-0.7-3h0l-1.2,5.3h-2l-1.9-6.7h1.8l0.8,3c0.1,0.5,0.2,1.3,0.4,2.2h0c0-0.3,0.1-0.8,0.2-1.4l0.1-0.5
			l0.8-3.2h2l0.8,3.2c0,0.1,0,0.2,0.1,0.4c0,0.2,0.1,0.4,0.1,0.5c0,0.2,0.1,0.4,0.1,0.6c0,0.2,0,0.3,0,0.4h0c0-0.3,0.1-0.7,0.2-1.2
			c0.1-0.5,0.2-0.8,0.2-1l0.8-3h1.8l-1.9,6.7H197z"/>
		<path d="M208.1,266.7c0,1.1-0.3,1.9-0.9,2.6c-0.6,0.6-1.4,0.9-2.4,0.9c-0.6,0-1.2-0.1-1.7-0.4c-0.5-0.3-0.9-0.7-1.1-1.2
			c-0.3-0.5-0.4-1.1-0.4-1.8c0-1.1,0.3-1.9,0.9-2.5c0.6-0.6,1.4-0.9,2.4-0.9c0.6,0,1.2,0.1,1.7,0.4s0.9,0.7,1.1,1.2
			C207.9,265.4,208.1,266,208.1,266.7z M203.4,266.7c0,0.7,0.1,1.2,0.3,1.5c0.2,0.3,0.6,0.5,1.1,0.5c0.5,0,0.8-0.2,1-0.5
			c0.2-0.3,0.3-0.8,0.3-1.5c0-0.7-0.1-1.2-0.3-1.5c-0.2-0.3-0.6-0.5-1.1-0.5c-0.5,0-0.8,0.2-1.1,0.5
			C203.5,265.6,203.4,266.1,203.4,266.7z"/>
		<path d="M213.3,263.3c0.2,0,0.5,0,0.6,0.1l-0.1,1.7c-0.1,0-0.3-0.1-0.5-0.1c-0.6,0-1,0.1-1.4,0.4s-0.5,0.7-0.5,1.3v3.4h-1.8v-6.7
			h1.4l0.3,1.1h0.1c0.2-0.4,0.5-0.7,0.8-0.9S212.9,263.3,213.3,263.3z"/>
		<path d="M216.9,266.5l0.8-1l1.9-2h2.1l-2.7,2.9l2.8,3.8h-2.1l-1.9-2.7l-0.8,0.6v2.1h-1.8v-9.3h1.8v4.1L216.9,266.5L216.9,266.5z"
			/>
		<path d="M158.2,284.8h-1.4v-5.6c0-0.7,0-1.2,0-1.6c-0.1,0.1-0.2,0.2-0.3,0.3c-0.1,0.1-0.6,0.5-1.3,1.1l-0.7-0.9l2.6-2h1.2V284.8z"
			/>
		<path d="M166.9,279.8c0,1.7-0.3,3-1,3.9c-0.7,0.8-1.7,1.3-3.1,1.3c-0.5,0-0.9,0-1.1-0.1v-1.2c0.4,0.1,0.7,0.1,1.1,0.1
			c0.9,0,1.7-0.3,2.1-0.8s0.7-1.3,0.8-2.4h-0.1c-0.2,0.4-0.5,0.6-0.9,0.8s-0.7,0.2-1.2,0.2c-0.8,0-1.4-0.2-1.8-0.7
			c-0.4-0.5-0.7-1.1-0.7-2c0-0.9,0.3-1.6,0.8-2.2c0.5-0.5,1.2-0.8,2.1-0.8c0.6,0,1.2,0.2,1.6,0.5c0.5,0.3,0.8,0.7,1.1,1.3
			C166.8,278.3,166.9,279,166.9,279.8z M163.9,277.1c-0.5,0-0.9,0.2-1.1,0.5c-0.3,0.3-0.4,0.8-0.4,1.3c0,0.5,0.1,0.9,0.4,1.2
			c0.2,0.3,0.6,0.4,1.1,0.4c0.5,0,0.9-0.1,1.2-0.4c0.3-0.3,0.5-0.6,0.5-1c0-0.4-0.1-0.7-0.2-1c-0.1-0.3-0.3-0.6-0.6-0.7
			C164.5,277.2,164.2,277.1,163.9,277.1z"/>
		<path d="M173.9,284.8H168v-1.1l2.3-2.3c0.7-0.7,1.1-1.2,1.3-1.4c0.2-0.3,0.4-0.6,0.5-0.8s0.1-0.5,0.1-0.8c0-0.4-0.1-0.7-0.4-0.9
			c-0.2-0.2-0.6-0.3-1-0.3c-0.3,0-0.7,0.1-1,0.2c-0.3,0.1-0.7,0.3-1.1,0.7l-0.8-0.9c0.5-0.4,1-0.7,1.4-0.9c0.5-0.2,0.9-0.3,1.5-0.3
			c0.8,0,1.5,0.2,2,0.6s0.7,1,0.7,1.7c0,0.4-0.1,0.8-0.2,1.1c-0.1,0.4-0.4,0.7-0.7,1.1c-0.3,0.4-0.8,0.9-1.5,1.5l-1.5,1.5v0.1h4.1
			V284.8z"/>
		<path d="M175.3,284c0-0.3,0.1-0.5,0.2-0.7s0.4-0.2,0.7-0.2c0.3,0,0.5,0.1,0.7,0.2c0.2,0.2,0.2,0.4,0.2,0.7c0,0.3-0.1,0.5-0.2,0.7
			s-0.4,0.2-0.7,0.2s-0.5-0.1-0.7-0.2C175.3,284.5,175.3,284.3,175.3,284z"/>
		<path d="M182.5,284.8h-1.4v-5.6c0-0.7,0-1.2,0-1.6c-0.1,0.1-0.2,0.2-0.3,0.3c-0.1,0.1-0.6,0.5-1.3,1.1l-0.7-0.9l2.6-2h1.2V284.8z"
			/>
		<path d="M185.4,281c0-3.4,1.4-5.1,4.2-5.1c0.4,0,0.8,0,1.1,0.1v1.2c-0.3-0.1-0.7-0.1-1.1-0.1c-0.9,0-1.6,0.3-2.1,0.8
			c-0.5,0.5-0.7,1.3-0.8,2.4h0.1c0.2-0.3,0.5-0.6,0.8-0.8c0.3-0.2,0.7-0.3,1.2-0.3c0.8,0,1.4,0.2,1.9,0.7c0.4,0.5,0.7,1.1,0.7,2
			c0,0.9-0.3,1.6-0.8,2.2s-1.2,0.8-2.1,0.8c-0.6,0-1.2-0.2-1.6-0.5c-0.5-0.3-0.8-0.7-1.1-1.3C185.5,282.5,185.4,281.9,185.4,281z
			 M188.4,283.7c0.5,0,0.9-0.2,1.1-0.5c0.3-0.3,0.4-0.8,0.4-1.3c0-0.5-0.1-0.9-0.4-1.2c-0.2-0.3-0.6-0.4-1.1-0.4
			c-0.3,0-0.6,0.1-0.8,0.2s-0.5,0.3-0.6,0.5c-0.1,0.2-0.2,0.5-0.2,0.7c0,0.6,0.2,1,0.5,1.4S187.9,283.7,188.4,283.7z"/>
		<path d="M195.3,275.9c0.8,0,1.5,0.2,2,0.6s0.7,0.9,0.7,1.5c0,0.9-0.5,1.6-1.6,2.1c0.7,0.3,1.2,0.7,1.5,1.1
			c0.3,0.4,0.4,0.8,0.4,1.3c0,0.7-0.3,1.3-0.8,1.7c-0.5,0.4-1.2,0.7-2.2,0.7c-0.9,0-1.7-0.2-2.2-0.6c-0.5-0.4-0.8-1-0.8-1.7
			c0-0.5,0.1-0.9,0.4-1.3c0.3-0.4,0.7-0.7,1.3-1c-0.5-0.3-0.9-0.7-1.1-1c-0.2-0.4-0.3-0.8-0.3-1.2c0-0.6,0.2-1.1,0.7-1.5
			C193.8,276.1,194.5,275.9,195.3,275.9z M193.7,282.5c0,0.4,0.1,0.7,0.4,1c0.3,0.2,0.7,0.3,1.2,0.3c0.5,0,0.9-0.1,1.2-0.4
			c0.3-0.2,0.4-0.6,0.4-1c0-0.3-0.1-0.6-0.4-0.9c-0.3-0.3-0.7-0.5-1.2-0.7l-0.2-0.1c-0.5,0.2-0.9,0.5-1.1,0.8
			S193.7,282.1,193.7,282.5z M195.3,277c-0.4,0-0.7,0.1-1,0.3c-0.2,0.2-0.4,0.5-0.4,0.8c0,0.2,0,0.4,0.1,0.6
			c0.1,0.2,0.2,0.3,0.4,0.4c0.2,0.1,0.4,0.3,0.8,0.5c0.5-0.2,0.8-0.4,1-0.7c0.2-0.2,0.3-0.5,0.3-0.8c0-0.3-0.1-0.6-0.4-0.8
			C196,277.1,195.7,277,195.3,277z"/>
		<path d="M199.6,284c0-0.3,0.1-0.5,0.2-0.7s0.4-0.2,0.7-0.2c0.3,0,0.5,0.1,0.7,0.2c0.2,0.2,0.2,0.4,0.2,0.7c0,0.3-0.1,0.5-0.2,0.7
			s-0.4,0.2-0.7,0.2s-0.5-0.1-0.7-0.2C199.6,284.5,199.6,284.3,199.6,284z"/>
		<path d="M208.3,278c0,0.6-0.2,1-0.5,1.4c-0.3,0.4-0.8,0.6-1.4,0.7v0c0.7,0.1,1.2,0.3,1.6,0.7s0.5,0.8,0.5,1.4
			c0,0.8-0.3,1.5-0.9,1.9c-0.6,0.5-1.4,0.7-2.5,0.7c-1,0-1.8-0.2-2.4-0.5v-1.2c0.4,0.2,0.8,0.3,1.2,0.4c0.4,0.1,0.8,0.1,1.2,0.1
			c0.7,0,1.2-0.1,1.5-0.4s0.5-0.6,0.5-1.2c0-0.5-0.2-0.8-0.6-1c-0.4-0.2-1-0.3-1.7-0.3H204v-1.1h0.8c1.4,0,2.1-0.5,2.1-1.4
			c0-0.4-0.1-0.7-0.4-0.9c-0.2-0.2-0.6-0.3-1.1-0.3c-0.3,0-0.6,0-1,0.1s-0.7,0.3-1.1,0.5l-0.7-1c0.8-0.6,1.7-0.9,2.8-0.9
			c0.9,0,1.6,0.2,2.1,0.6C208,276.9,208.3,277.4,208.3,278z"/>
		<path d="M209.9,284c0-0.3,0.1-0.5,0.2-0.7s0.4-0.2,0.7-0.2c0.3,0,0.5,0.1,0.7,0.2c0.2,0.2,0.2,0.4,0.2,0.7c0,0.3-0.1,0.5-0.2,0.7
			s-0.4,0.2-0.7,0.2s-0.5-0.1-0.7-0.2C210,284.5,209.9,284.3,209.9,284z"/>
		<path d="M218.9,280.4c0,1.5-0.2,2.6-0.7,3.4s-1.2,1.1-2.2,1.1c-1,0-1.7-0.4-2.2-1.1c-0.5-0.8-0.8-1.9-0.8-3.3
			c0-1.5,0.2-2.7,0.7-3.4c0.5-0.7,1.2-1.1,2.2-1.1c1,0,1.7,0.4,2.2,1.1S218.9,278.9,218.9,280.4z M214.4,280.4c0,1.2,0.1,2,0.4,2.6
			s0.6,0.8,1.2,0.8s0.9-0.3,1.2-0.8c0.2-0.5,0.4-1.4,0.4-2.5c0-1.2-0.1-2-0.4-2.5c-0.2-0.5-0.6-0.8-1.2-0.8s-0.9,0.3-1.2,0.8
			S214.4,279.2,214.4,280.4z"/>
		<path d="M224.1,276l-3.2,8.7h-1.3l3.3-8.7H224.1z"/>
		<path d="M230.7,284.8h-5.9v-1.1l2.3-2.3c0.7-0.7,1.1-1.2,1.3-1.4c0.2-0.3,0.4-0.6,0.5-0.8s0.1-0.5,0.1-0.8c0-0.4-0.1-0.7-0.4-0.9
			c-0.2-0.2-0.6-0.3-1-0.3c-0.3,0-0.7,0.1-1,0.2c-0.3,0.1-0.7,0.3-1.1,0.7l-0.8-0.9c0.5-0.4,1-0.7,1.4-0.9c0.5-0.2,0.9-0.3,1.5-0.3
			c0.8,0,1.5,0.2,2,0.6s0.7,1,0.7,1.7c0,0.4-0.1,0.8-0.2,1.1c-0.1,0.4-0.4,0.7-0.7,1.1c-0.3,0.4-0.8,0.9-1.5,1.5l-1.5,1.5v0.1h4.1
			V284.8z"/>
		<path d="M238,282.9h-1.2v1.9h-1.4v-1.9h-4v-1.1l4-5.8h1.4v5.7h1.2V282.9z M235.5,281.7v-2.2c0-0.8,0-1.4,0.1-1.9h0
			c-0.1,0.3-0.3,0.6-0.5,1l-2.2,3.2H235.5z"/>
	</g>
</g>
</svg>
