<?xml version="1.0" encoding="utf-8"?>
<!-- Generator: Adobe Illustrator 19.2.0, SVG Export Plug-In . SVG Version: 6.00 Build 0)  -->
<svg version="1.1" id="Layer_1" xmlns="http://www.w3.org/2000/svg" xmlns:xlink="http://www.w3.org/1999/xlink" x="0px" y="0px"
	 viewBox="0 0 600 223" style="enable-background:new 0 0 600 223;" xml:space="preserve">
<style type="text/css">
	.st0{fill:#303030;}
	.st1{fill:#B85548;}
	.st2{fill:#484AB8;}
	.st3{fill:#6063C9;}
	.st4{fill:#FFFFFF;}
</style>
<g>
	<g>
		<rect x="209" y="54.6" transform="matrix(0.9774 -0.2114 0.2114 0.9774 -16.2049 46.6345)" class="st0" width="2" height="88.9"/>
	</g>
	<g>
		
			<rect x="146.8" y="98.1" transform="matrix(0.2114 -0.9774 0.9774 0.2114 53.9282 265.0669)" class="st0" width="88.9" height="2"/>
	</g>
	<g>
		<path class="st1" d="M201,57.4v-3.5c66,0,137.2-2.7,157.4-22.9l2.6,2.5C339.9,54.6,268,57.4,201,57.4z"/>
	</g>
	<g>
		<path class="st1" d="M558,67.5c-23,0-103.9-2.4-145.4-33.9l2.1-2.8C447,55.3,510,64,558,64V67.5z"/>
	</g>
	<g>
		
			<rect x="114.6" y="-29.2" transform="matrix(6.644497e-003 -1 1 6.644497e-003 60.4408 171.024)" class="st2" width="3.5" height="168.7"/>
	</g>
	<g>
		<path class="st3" d="M33,54.9l-1.5-3.6l1.9-0.7l1.5,3.6L33,54.9z M30.1,47.5l-1.5-3.7l1.9-0.7l1.5,3.7L30.1,47.5z M27.2,40.1
			l-1.5-3.7l1.9-0.7l1.5,3.7L27.2,40.1z M24.2,32.7L22.7,29l1.9-0.7l1.5,3.7L24.2,32.7z M21.2,25.2l-1.5-3.7l1.9-0.7l1.5,3.7
			L21.2,25.2z M18.3,17.8l-1.5-3.7l1.9-0.7l1.5,3.7L18.3,17.8z M15.3,10.4l-1.5-3.7l1.9-0.7l1.5,3.7L15.3,10.4z"/>
	</g>
	<g>
		<path class="st3" d="M34.9,54.8L33,54.2l1.3-3.8l1.9,0.6L34.9,54.8z M37.5,47.3l-1.9-0.6l1.3-3.8l1.9,0.6L37.5,47.3z M40,39.7
			l-1.9-0.6l1.3-3.8l1.9,0.6L40,39.7z M42.6,32.1l-1.9-0.6l1.3-3.8l1.9,0.6L42.6,32.1z M45.1,24.5l-1.9-0.6l1.3-3.8l1.9,0.6
			L45.1,24.5z M47.6,16.9l-1.9-0.6l1.3-3.8l1.9,0.6L47.6,16.9z M50.2,9.4l-1.9-0.6l1.3-3.8l1.9,0.6L50.2,9.4z"/>
	</g>
	<g>
		
			<rect x="3" y="84.4" transform="matrix(2.929675e-003 -1 1 2.929675e-003 -51.6599 119.084)" class="st3" width="61.8" height="2"/>
	</g>
	<g>
		<g>
			<path class="st4" d="M58.9,74H9c-0.9,0-1.7-0.8-1.7-1.7V36.8c0-0.9,0.8-1.7,1.7-1.7h49.9c0.9,0,1.7,0.8,1.7,1.7v35.4
				C60.6,73.2,59.9,74,58.9,74z"/>
			<path d="M58.9,75.5H9c-1.8,0-3.2-1.4-3.2-3.2V36.8c0-1.8,1.4-3.2,3.2-3.2h49.9c1.8,0,3.2,1.4,3.2,3.2v35.4
				C62.1,74,60.7,75.5,58.9,75.5z M9,36.6c-0.1,0-0.2,0.1-0.2,0.2v35.4c0,0.1,0.1,0.2,0.2,0.2h49.9c0.1,0,0.2-0.1,0.2-0.2V36.8
				c0-0.1-0.1-0.2-0.2-0.2H9z"/>
		</g>
		<g>
			<g>
				<g>
					<g>
						<rect x="23.2" y="43" width="10.9" height="4"/>
					</g>
					<g>
						<g>
							<polygon points="24.6,40 16,45 24.6,49.9 							"/>
						</g>
					</g>
				</g>
				<g>
					<g>
						<rect x="20.4" y="56.3" width="10.9" height="4"/>
					</g>
					<g>
						<g>
							<polygon points="21.8,53.3 13.2,58.3 21.8,63.3 							"/>
						</g>
					</g>
				</g>
			</g>
			<g>
				<g>
					<g>
						<rect x="33.9" y="62.1" width="10.9" height="4"/>
					</g>
					<g>
						<g>
							<polygon points="43.3,69.1 52,64.1 43.3,59.1 							"/>
						</g>
					</g>
				</g>
				<g>
					<g>
						<rect x="36.7" y="48.7" width="10.9" height="4"/>
					</g>
					<g>
						<g>
							<polygon points="46.1,55.7 54.8,50.7 46.1,45.8 							"/>
						</g>
					</g>
				</g>
			</g>
		</g>
	</g>
	<g>
		<g>
			<path class="st4" d="M45.5,128.9H22.1c-2.8,0-5.1-2.3-5.1-5.1v-14.9c0-2.8,2.3-5.1,5.1-5.1h23.3c2.8,0,5.1,2.3,5.1,5.1v14.9
				C50.5,126.6,48.2,128.9,45.5,128.9z"/>
			<path d="M45.5,130.4H22.1c-3.6,0-6.6-2.9-6.6-6.6v-14.9c0-3.6,2.9-6.6,6.6-6.6h23.3c3.6,0,6.6,2.9,6.6,6.6v14.9
				C52,127.4,49.1,130.4,45.5,130.4z M22.1,105.3c-2,0-3.6,1.6-3.6,3.6v14.9c0,2,1.6,3.6,3.6,3.6h23.3c2,0,3.6-1.6,3.6-3.6v-14.9
				c0-2-1.6-3.6-3.6-3.6H22.1z"/>
		</g>
		<g>
			<g>
				<path class="st4" d="M16,142.3c-1.1,0-1.5-0.8-1-1.7l3.5-5.6c0.6-0.9,1.9-1.5,3-1.5h24.7c1.1,0,2.5,0.6,3,1.5l3.6,5.9
					c0.6,0.9,0.1,1.7-1,1.7L16,142.3z"/>
			</g>
			<g>
				<path d="M51.9,144.5C51.9,144.5,51.9,144.5,51.9,144.5L16,144.1c-1.1,0-2-0.6-2.4-1.4c-0.5-0.8-0.4-1.9,0.2-2.8l3.5-5.9
					c0.9-1.4,2.7-2.5,4.3-2.5h24.7c1.6,0,3.5,1.1,4.3,2.5l3.6,6.1c0.6,0.9,0.6,2.2,0.1,3C53.9,143.8,53,144.5,51.9,144.5z M16,140.8
					l0.1,1.5L16,140.8C16,140.8,16,140.8,16,140.8z M16.7,140.8l34.6,0.2l-3.3-5.5c-0.3-0.5-1.2-1-1.7-1H21.6
					c-0.5,0-1.4,0.5-1.7,1.1L16.7,140.8z"/>
			</g>
		</g>
		<g>
			<rect x="27.7" y="128.9" width="12.3" height="4.2"/>
		</g>
		<g>
			<path d="M44.7,124.8H22.9c-0.7,0-1.2-0.5-1.2-1.2v-14.4c0-0.7,0.5-1.2,1.2-1.2h21.8c0.7,0,1.2,0.5,1.2,1.2v14.4
				C45.9,124.2,45.4,124.8,44.7,124.8z"/>
		</g>
	</g>
	<g>
		<path d="M5.7,157H4.3v-5.6c0-0.7,0-1.2,0-1.6c-0.1,0.1-0.2,0.2-0.3,0.3c-0.1,0.1-0.6,0.5-1.3,1.1l-0.7-0.9l2.6-2h1.2V157z"/>
		<path d="M14.4,152c0,1.7-0.3,3-1,3.9c-0.7,0.8-1.7,1.3-3.1,1.3c-0.5,0-0.9,0-1.1-0.1v-1.2c0.4,0.1,0.7,0.1,1.1,0.1
			c0.9,0,1.7-0.3,2.1-0.8s0.7-1.3,0.8-2.4H13c-0.2,0.4-0.5,0.6-0.9,0.8s-0.7,0.2-1.2,0.2c-0.8,0-1.4-0.2-1.8-0.7
			c-0.4-0.5-0.7-1.1-0.7-2c0-0.9,0.3-1.6,0.8-2.2c0.5-0.5,1.2-0.8,2.1-0.8c0.6,0,1.2,0.2,1.6,0.5c0.5,0.3,0.8,0.7,1.1,1.3
			C14.3,150.5,14.4,151.2,14.4,152z M11.4,149.3c-0.5,0-0.9,0.2-1.1,0.5c-0.3,0.3-0.4,0.8-0.4,1.3c0,0.5,0.1,0.9,0.4,1.2
			c0.2,0.3,0.6,0.4,1.1,0.4c0.5,0,0.9-0.1,1.2-0.4c0.3-0.3,0.5-0.6,0.5-1c0-0.4-0.1-0.7-0.2-1c-0.1-0.3-0.3-0.6-0.6-0.7
			C12,149.4,11.7,149.3,11.4,149.3z"/>
		<path d="M21.4,157h-5.9V156l2.3-2.3c0.7-0.7,1.1-1.2,1.3-1.4c0.2-0.3,0.4-0.6,0.5-0.8s0.1-0.5,0.1-0.8c0-0.4-0.1-0.7-0.4-0.9
			c-0.2-0.2-0.6-0.3-1-0.3c-0.3,0-0.7,0.1-1,0.2c-0.3,0.1-0.7,0.3-1.1,0.7l-0.8-0.9c0.5-0.4,1-0.7,1.4-0.9c0.5-0.2,0.9-0.3,1.5-0.3
			c0.8,0,1.5,0.2,2,0.6s0.7,1,0.7,1.7c0,0.4-0.1,0.8-0.2,1.1c-0.1,0.4-0.4,0.7-0.7,1.1c-0.3,0.4-0.8,0.9-1.5,1.5l-1.5,1.5v0.1h4.1
			V157z"/>
		<path d="M22.7,156.3c0-0.3,0.1-0.5,0.2-0.7s0.4-0.2,0.7-0.2c0.3,0,0.5,0.1,0.7,0.2c0.2,0.2,0.2,0.4,0.2,0.7c0,0.3-0.1,0.5-0.2,0.7
			s-0.4,0.2-0.7,0.2s-0.5-0.1-0.7-0.2C22.8,156.8,22.7,156.6,22.7,156.3z"/>
		<path d="M30,157h-1.4v-5.6c0-0.7,0-1.2,0-1.6c-0.1,0.1-0.2,0.2-0.3,0.3c-0.1,0.1-0.6,0.5-1.3,1.1l-0.7-0.9l2.6-2H30V157z"/>
		<path d="M32.9,153.3c0-3.4,1.4-5.1,4.2-5.1c0.4,0,0.8,0,1.1,0.1v1.2c-0.3-0.1-0.7-0.1-1.1-0.1c-0.9,0-1.6,0.3-2.1,0.8
			c-0.5,0.5-0.7,1.3-0.8,2.4h0.1c0.2-0.3,0.5-0.6,0.8-0.8c0.3-0.2,0.7-0.3,1.2-0.3c0.8,0,1.4,0.2,1.9,0.7c0.4,0.5,0.7,1.1,0.7,2
			c0,0.9-0.3,1.6-0.8,2.2s-1.2,0.8-2.1,0.8c-0.6,0-1.2-0.2-1.6-0.5c-0.5-0.3-0.8-0.7-1.1-1.3C33,154.8,32.9,154.1,32.9,153.3z
			 M35.9,156c0.5,0,0.9-0.2,1.1-0.5c0.3-0.3,0.4-0.8,0.4-1.3c0-0.5-0.1-0.9-0.4-1.2c-0.2-0.3-0.6-0.4-1.1-0.4
			c-0.3,0-0.6,0.1-0.8,0.2s-0.5,0.3-0.6,0.5c-0.1,0.2-0.2,0.5-0.2,0.7c0,0.6,0.2,1,0.5,1.4S35.4,156,35.9,156z"/>
		<path d="M42.8,148.2c0.8,0,1.5,0.2,2,0.6s0.7,0.9,0.7,1.5c0,0.9-0.5,1.6-1.6,2.1c0.7,0.3,1.2,0.7,1.5,1.1c0.3,0.4,0.4,0.8,0.4,1.3
			c0,0.7-0.3,1.3-0.8,1.7c-0.5,0.4-1.2,0.7-2.2,0.7c-0.9,0-1.7-0.2-2.2-0.6c-0.5-0.4-0.8-1-0.8-1.7c0-0.5,0.1-0.9,0.4-1.3
			c0.3-0.4,0.7-0.7,1.3-1c-0.5-0.3-0.9-0.7-1.1-1c-0.2-0.4-0.3-0.8-0.3-1.2c0-0.6,0.2-1.1,0.7-1.5C41.3,148.4,42,148.2,42.8,148.2z
			 M41.2,154.8c0,0.4,0.1,0.7,0.4,1c0.3,0.2,0.7,0.3,1.2,0.3c0.5,0,0.9-0.1,1.2-0.4c0.3-0.2,0.4-0.6,0.4-1c0-0.3-0.1-0.6-0.4-0.9
			c-0.3-0.3-0.7-0.5-1.2-0.7l-0.2-0.1c-0.5,0.2-0.9,0.5-1.1,0.8S41.2,154.4,41.2,154.8z M42.8,149.3c-0.4,0-0.7,0.1-1,0.3
			c-0.2,0.2-0.4,0.5-0.4,0.8c0,0.2,0,0.4,0.1,0.6c0.1,0.2,0.2,0.3,0.4,0.4c0.2,0.1,0.4,0.3,0.8,0.5c0.5-0.2,0.8-0.4,1-0.7
			c0.2-0.2,0.3-0.5,0.3-0.8c0-0.3-0.1-0.6-0.4-0.8C43.5,149.4,43.2,149.3,42.8,149.3z"/>
		<path d="M47.1,156.3c0-0.3,0.1-0.5,0.2-0.7s0.4-0.2,0.7-0.2c0.3,0,0.5,0.1,0.7,0.2c0.2,0.2,0.2,0.4,0.2,0.7c0,0.3-0.1,0.5-0.2,0.7
			s-0.4,0.2-0.7,0.2s-0.5-0.1-0.7-0.2C47.1,156.8,47.1,156.6,47.1,156.3z"/>
		<path d="M56.1,152.7c0,1.5-0.2,2.6-0.7,3.4s-1.2,1.1-2.2,1.1c-1,0-1.7-0.4-2.2-1.1c-0.5-0.8-0.8-1.9-0.8-3.3
			c0-1.5,0.2-2.7,0.7-3.4c0.5-0.7,1.2-1.1,2.2-1.1c1,0,1.7,0.4,2.2,1.1S56.1,151.2,56.1,152.7z M51.6,152.7c0,1.2,0.1,2,0.4,2.6
			s0.6,0.8,1.2,0.8s0.9-0.3,1.2-0.8c0.2-0.5,0.4-1.4,0.4-2.5c0-1.2-0.1-2-0.4-2.5c-0.2-0.5-0.6-0.8-1.2-0.8s-0.9,0.3-1.2,0.8
			S51.6,151.5,51.6,152.7z"/>
		<path d="M57.4,156.3c0-0.3,0.1-0.5,0.2-0.7s0.4-0.2,0.7-0.2c0.3,0,0.5,0.1,0.7,0.2c0.2,0.2,0.2,0.4,0.2,0.7c0,0.3-0.1,0.5-0.2,0.7
			s-0.4,0.2-0.7,0.2s-0.5-0.1-0.7-0.2C57.5,156.8,57.4,156.6,57.4,156.3z"/>
		<path d="M66.1,150.3c0,0.6-0.2,1-0.5,1.4c-0.3,0.4-0.8,0.6-1.4,0.7v0c0.7,0.1,1.2,0.3,1.6,0.7s0.5,0.8,0.5,1.4
			c0,0.8-0.3,1.5-0.9,1.9c-0.6,0.5-1.4,0.7-2.5,0.7c-1,0-1.8-0.2-2.4-0.5v-1.2c0.4,0.2,0.8,0.3,1.2,0.4c0.4,0.1,0.8,0.1,1.2,0.1
			c0.7,0,1.2-0.1,1.5-0.4s0.5-0.6,0.5-1.2c0-0.5-0.2-0.8-0.6-1c-0.4-0.2-1-0.3-1.7-0.3h-0.8V152h0.8c1.4,0,2.1-0.5,2.1-1.4
			c0-0.4-0.1-0.7-0.4-0.9c-0.2-0.2-0.6-0.3-1.1-0.3c-0.3,0-0.6,0-1,0.1s-0.7,0.3-1.1,0.5l-0.7-1c0.8-0.6,1.7-0.9,2.8-0.9
			c0.9,0,1.6,0.2,2.1,0.6C65.9,149.1,66.1,149.6,66.1,150.3z"/>
	</g>
	<g>
		<g>
			<ellipse class="st4" cx="200.6" cy="55.7" rx="26.5" ry="23.4"/>
			<path d="M200.6,80.6c-15.4,0-28-11.2-28-24.9s12.5-24.9,28-24.9s28,11.2,28,24.9S216,80.6,200.6,80.6z M200.6,33.7
				c-13.8,0-25,9.8-25,21.9s11.2,21.9,25,21.9s25-9.8,25-21.9S214.4,33.7,200.6,33.7z"/>
		</g>
		<g>
			<g>
				<g>
					<rect x="189.9" y="38.7" transform="matrix(0.8101 -0.5862 0.5862 0.8101 10.9389 120.7356)" width="4" height="9.5"/>
				</g>
				<g>
					<g>
						<polygon points="189.8,49.1 198.9,53.1 197.8,43.2 						"/>
					</g>
				</g>
			</g>
			<g>
				<g>
					<rect x="188.2" y="58.3" transform="matrix(0.8343 -0.5513 0.5513 0.8343 -1.154 116.7289)" width="10.9" height="4"/>
				</g>
				<g>
					<g>
						<polygon points="187.5,58.3 183.1,67.2 193,66.6 						"/>
					</g>
				</g>
			</g>
			<g>
				<g>
					<rect x="207.5" y="63.1" transform="matrix(0.8101 -0.5862 0.5862 0.8101 1.274150e-002 135.6834)" width="4" height="9.5"/>
				</g>
				<g>
					<g>
						<polygon points="211.6,62.2 202.5,58.2 203.5,68.1 						"/>
					</g>
				</g>
			</g>
			<g>
				<g>
					<rect x="202.2" y="49" transform="matrix(0.8343 -0.5513 0.5513 0.8343 6.285 122.9295)" width="10.9" height="4"/>
				</g>
				<g>
					<g>
						<polygon points="213.7,53 218.2,44.1 208.2,44.7 						"/>
					</g>
				</g>
			</g>
		</g>
	</g>
	<g>
		<path d="M160.2,6.2c0,1.4-0.4,2.5-1.3,3.2c-0.9,0.7-2.1,1.1-3.8,1.1h-1.2v4.7h-2.8V2.1h4.2c1.6,0,2.8,0.3,3.6,1
			C159.8,3.8,160.2,4.8,160.2,6.2z M153.9,8.3h0.9c0.9,0,1.5-0.2,1.9-0.5s0.6-0.8,0.6-1.5c0-0.7-0.2-1.1-0.5-1.4s-0.9-0.5-1.7-0.5
			h-1.3V8.3z"/>
		<path d="M170.7,15.2l-0.9-3.1H165l-0.9,3.1h-3L165.6,2h3.4l4.6,13.2H170.7z M169.1,9.8c-0.9-2.8-1.4-4.4-1.5-4.8
			c-0.1-0.4-0.2-0.7-0.2-0.9c-0.2,0.8-0.8,2.7-1.7,5.7H169.1z"/>
		<path d="M180.4,15.2h-2.8V4.4H174V2.1h9.9v2.3h-3.6V15.2z"/>
		<path d="M193.5,10.2v5h-2.8V2.1h3.8c1.8,0,3.1,0.3,4,1c0.9,0.6,1.3,1.6,1.3,3c0,0.8-0.2,1.5-0.6,2.1c-0.4,0.6-1,1.1-1.8,1.4
			c2,2.9,3.3,4.8,3.9,5.7h-3.1l-3.1-5H193.5z M193.5,7.9h0.9c0.9,0,1.5-0.1,1.9-0.4c0.4-0.3,0.6-0.8,0.6-1.4c0-0.6-0.2-1.1-0.6-1.3
			c-0.4-0.3-1.1-0.4-2-0.4h-0.8V7.9z"/>
		<path d="M211.7,10.2c0,1.6-0.4,2.9-1.3,3.8c-0.9,0.9-2.1,1.4-3.6,1.4c-1,0-1.8-0.2-2.5-0.6c-0.7-0.4-1.3-1-1.7-1.8
			s-0.6-1.7-0.6-2.8c0-1.6,0.4-2.9,1.3-3.8c0.9-0.9,2.1-1.4,3.6-1.4c1,0,1.8,0.2,2.5,0.6c0.7,0.4,1.3,1,1.7,1.8
			C211.5,8.2,211.7,9.1,211.7,10.2z M204.8,10.2c0,1,0.2,1.7,0.5,2.2s0.9,0.8,1.6,0.8c0.7,0,1.3-0.3,1.6-0.8s0.5-1.3,0.5-2.3
			c0-1-0.2-1.7-0.5-2.2c-0.3-0.5-0.9-0.7-1.6-0.7c-0.7,0-1.3,0.2-1.6,0.7C205,8.4,204.8,9.2,204.8,10.2z"/>
		<path d="M221.1,15.2l-0.4-1.3h-0.1c-0.3,0.5-0.7,0.8-1.2,1.1s-1.2,0.4-1.8,0.4c-1.2,0-2.1-0.3-2.7-0.9c-0.6-0.6-0.9-1.5-0.9-2.7
			V5.2h2.7V11c0,0.7,0.1,1.3,0.4,1.6c0.3,0.4,0.7,0.5,1.2,0.5c0.8,0,1.3-0.3,1.7-0.8s0.5-1.4,0.5-2.5V5.2h2.7v10H221.1z"/>
		<path d="M230.3,13.2c0.5,0,1.1-0.1,1.7-0.3v2c-0.7,0.3-1.5,0.5-2.5,0.5c-1.1,0-1.9-0.3-2.4-0.8c-0.5-0.6-0.7-1.4-0.7-2.5V7.2H225
			V6.1l1.5-0.9l0.8-2.1h1.7v2.1h2.8v2.1h-2.8v4.8c0,0.4,0.1,0.7,0.3,0.9C229.6,13.1,229.9,13.2,230.3,13.2z"/>
		<path d="M238.5,15.4c-1.6,0-2.9-0.4-3.8-1.3s-1.4-2.2-1.4-3.8c0-1.7,0.4-3,1.3-3.9c0.8-0.9,2-1.4,3.5-1.4c1.4,0,2.5,0.4,3.3,1.2
			c0.8,0.8,1.2,1.9,1.2,3.3v1.3h-6.5c0,0.8,0.3,1.4,0.7,1.8c0.4,0.4,1,0.7,1.8,0.7c0.6,0,1.2-0.1,1.7-0.2c0.5-0.1,1.1-0.3,1.7-0.6
			v2.1c-0.5,0.2-1,0.4-1.5,0.5C240,15.3,239.3,15.4,238.5,15.4z M238.2,6.9c-0.6,0-1,0.2-1.4,0.6c-0.3,0.4-0.5,0.9-0.6,1.6h3.8
			c0-0.7-0.2-1.2-0.5-1.6C239.2,7.1,238.7,6.9,238.2,6.9z"/>
		<path d="M250.4,5c0.4,0,0.7,0,0.9,0.1l-0.2,2.6c-0.2-0.1-0.5-0.1-0.8-0.1c-0.9,0-1.6,0.2-2,0.7c-0.5,0.4-0.7,1.1-0.7,1.9v5.1h-2.7
			v-10h2.1l0.4,1.7h0.1c0.3-0.6,0.7-1,1.3-1.4C249.3,5.2,249.8,5,250.4,5z"/>
	</g>
	<g>
		<g>
			
				<rect x="246.4" y="63.1" transform="matrix(0.7467 -0.6651 0.6651 0.7467 10.9786 184.2484)" class="st0" width="2" height="29.3"/>
		</g>
		<g>
			<g>
				<path class="st0" d="M233.7,62.3c2.7,1.4,6.4,2.9,9.2,3.2l-4.7,1.9l-2.4,4.4C235.8,68.9,234.8,65.1,233.7,62.3z"/>
			</g>
		</g>
	</g>
	<g>
		<g>
			<g>
				<path class="st4" d="M325.7,115h-75.8c-3.5,0-6.3-2.8-6.3-6.3V80.3c0-3.5,2.8-6.3,6.3-6.3h75.8c3.5,0,6.3,2.8,6.3,6.3v28.3
					C332,112.1,329.2,115,325.7,115z"/>
			</g>
			<g>
				<path class="st0" d="M325.7,116h-75.8c-4,0-7.3-3.3-7.3-7.3V80.3c0-4,3.3-7.3,7.3-7.3h75.8c4,0,7.3,3.3,7.3,7.3v28.3
					C333,112.7,329.7,116,325.7,116z M249.8,75c-2.9,0-5.3,2.4-5.3,5.3v28.3c0,2.9,2.4,5.3,5.3,5.3h75.8c2.9,0,5.3-2.4,5.3-5.3V80.3
					c0-2.9-2.4-5.3-5.3-5.3H249.8z"/>
			</g>
		</g>
		<g>
			<path d="M268.4,85.6c0,0.9-0.3,1.7-0.9,2.2c-0.6,0.5-1.4,0.7-2.5,0.7h-0.8v3.1h-1.9v-8.7h2.8c1.1,0,1.9,0.2,2.4,0.7
				S268.4,84.7,268.4,85.6z M264.2,86.9h0.6c0.6,0,1-0.1,1.3-0.3s0.4-0.6,0.4-1c0-0.4-0.1-0.8-0.4-1c-0.2-0.2-0.6-0.3-1.1-0.3h-0.8
				V86.9z"/>
			<path d="M274.6,91.6l-0.2-0.9h-0.1c-0.2,0.3-0.5,0.6-0.8,0.7c-0.4,0.2-0.8,0.3-1.2,0.3c-0.8,0-1.4-0.2-1.8-0.6
				c-0.4-0.4-0.6-1-0.6-1.8v-4.4h1.8v3.9c0,0.5,0.1,0.8,0.3,1.1c0.2,0.2,0.4,0.4,0.8,0.4c0.5,0,0.9-0.2,1.1-0.5
				c0.2-0.3,0.3-0.9,0.3-1.7v-3.1h1.8v6.7H274.6z"/>
			<path d="M281.6,84.8c0.8,0,1.4,0.3,1.9,0.9s0.7,1.5,0.7,2.5c0,1.1-0.2,2-0.7,2.6s-1.1,0.9-1.9,0.9c-0.8,0-1.4-0.3-1.8-0.9h-0.1
				l-0.3,0.7h-1.4v-9.3h1.8v2.2c0,0.3,0,0.7-0.1,1.3h0.1C280.2,85.1,280.8,84.8,281.6,84.8z M281,86.2c-0.5,0-0.8,0.1-1,0.4
				c-0.2,0.3-0.3,0.7-0.3,1.4v0.2c0,0.7,0.1,1.2,0.3,1.5c0.2,0.3,0.6,0.5,1,0.5c0.4,0,0.7-0.2,0.9-0.5c0.2-0.3,0.3-0.8,0.3-1.5
				c0-0.7-0.1-1.1-0.3-1.5C281.7,86.4,281.4,86.2,281,86.2z"/>
			<path d="M287.5,91.6h-1.8v-9.3h1.8V91.6z"/>
			<path d="M289.3,83.2c0-0.6,0.3-0.9,1-0.9s1,0.3,1,0.9c0,0.3-0.1,0.5-0.2,0.7c-0.2,0.2-0.4,0.2-0.7,0.2
				C289.6,84.1,289.3,83.8,289.3,83.2z M291.2,91.6h-1.8v-6.7h1.8V91.6z"/>
			<path d="M295.8,91.7c-2.1,0-3.1-1.1-3.1-3.4c0-1.1,0.3-2,0.8-2.6c0.6-0.6,1.4-0.9,2.4-0.9c0.8,0,1.5,0.2,2.1,0.5l-0.5,1.4
				c-0.3-0.1-0.6-0.2-0.8-0.3s-0.5-0.1-0.7-0.1c-0.9,0-1.4,0.7-1.4,2c0,1.3,0.5,2,1.4,2c0.4,0,0.7,0,1-0.1c0.3-0.1,0.6-0.2,0.9-0.4
				v1.6c-0.3,0.2-0.6,0.3-0.9,0.4C296.7,91.7,296.3,91.7,295.8,91.7z"/>
			<path d="M302.7,91.6v-8.7h1.9v8.7H302.7z"/>
			<path d="M312.8,85.6c0,0.9-0.3,1.7-0.9,2.2c-0.6,0.5-1.4,0.7-2.5,0.7h-0.8v3.1h-1.9v-8.7h2.8c1.1,0,1.9,0.2,2.4,0.7
				S312.8,84.7,312.8,85.6z M308.6,86.9h0.6c0.6,0,1-0.1,1.3-0.3s0.4-0.6,0.4-1c0-0.4-0.1-0.8-0.4-1c-0.2-0.2-0.6-0.3-1.1-0.3h-0.8
				V86.9z"/>
			<path d="M255.5,106.2h-1.4v-5.6c0-0.7,0-1.2,0-1.6c-0.1,0.1-0.2,0.2-0.3,0.3c-0.1,0.1-0.6,0.5-1.3,1.1l-0.7-0.9l2.6-2h1.2V106.2z
				"/>
			<path d="M264.6,104.3h-1.2v1.9H262v-1.9h-4v-1.1l4-5.8h1.4v5.7h1.2V104.3z M262,103.2V101c0-0.8,0-1.4,0.1-1.9h0
				c-0.1,0.3-0.3,0.6-0.5,1l-2.2,3.2H262z"/>
			<path d="M270.9,99.5c0,0.6-0.2,1-0.5,1.4c-0.3,0.4-0.8,0.6-1.4,0.7v0c0.7,0.1,1.2,0.3,1.6,0.7s0.5,0.8,0.5,1.4
				c0,0.8-0.3,1.5-0.9,1.9s-1.4,0.7-2.5,0.7c-1,0-1.8-0.2-2.4-0.5v-1.2c0.4,0.2,0.8,0.3,1.2,0.4s0.8,0.1,1.2,0.1
				c0.7,0,1.2-0.1,1.5-0.4c0.3-0.3,0.5-0.6,0.5-1.2c0-0.5-0.2-0.8-0.6-1c-0.4-0.2-1-0.3-1.7-0.3h-0.8v-1.1h0.8
				c1.4,0,2.1-0.5,2.1-1.4c0-0.4-0.1-0.7-0.4-0.9s-0.6-0.3-1.1-0.3c-0.3,0-0.6,0-1,0.1s-0.7,0.3-1.1,0.5l-0.7-1
				c0.8-0.6,1.7-0.9,2.8-0.9c0.9,0,1.6,0.2,2.1,0.6C270.7,98.3,270.9,98.9,270.9,99.5z"/>
			<path d="M272.6,105.5c0-0.3,0.1-0.5,0.2-0.7s0.4-0.2,0.7-0.2c0.3,0,0.5,0.1,0.7,0.2c0.2,0.2,0.2,0.4,0.2,0.7
				c0,0.3-0.1,0.5-0.2,0.7s-0.4,0.2-0.7,0.2s-0.5-0.1-0.7-0.2C272.6,106,272.6,105.8,272.6,105.5z"/>
			<path d="M279.8,106.2h-1.4v-5.6c0-0.7,0-1.2,0-1.6c-0.1,0.1-0.2,0.2-0.3,0.3c-0.1,0.1-0.6,0.5-1.3,1.1l-0.7-0.9l2.6-2h1.2V106.2z
				"/>
			<path d="M285.6,100.8c0.9,0,1.6,0.2,2.1,0.7c0.5,0.5,0.8,1.1,0.8,1.9c0,0.9-0.3,1.7-0.9,2.2c-0.6,0.5-1.4,0.8-2.5,0.8
				c-1,0-1.7-0.2-2.3-0.5v-1.3c0.3,0.2,0.7,0.3,1.1,0.4c0.4,0.1,0.8,0.1,1.2,0.1c0.6,0,1.1-0.1,1.4-0.4c0.3-0.3,0.5-0.7,0.5-1.2
				c0-1-0.7-1.6-2-1.6c-0.2,0-0.4,0-0.7,0.1c-0.3,0-0.5,0.1-0.7,0.1l-0.6-0.4l0.3-4.3h4.5v1.2h-3.3l-0.2,2.2c0.1,0,0.3-0.1,0.5-0.1
				C285.1,100.8,285.3,100.8,285.6,100.8z"/>
			<path d="M289.9,105.5c0-0.3,0.1-0.5,0.2-0.7s0.4-0.2,0.7-0.2c0.3,0,0.5,0.1,0.7,0.2c0.2,0.2,0.2,0.4,0.2,0.7
				c0,0.3-0.1,0.5-0.2,0.7s-0.4,0.2-0.7,0.2s-0.5-0.1-0.7-0.2C290,106,289.9,105.8,289.9,105.5z"/>
			<path d="M298.9,106.2H293v-1.1l2.3-2.3c0.7-0.7,1.1-1.2,1.3-1.4c0.2-0.3,0.4-0.6,0.5-0.8s0.1-0.5,0.1-0.8c0-0.4-0.1-0.7-0.4-0.9
				c-0.2-0.2-0.6-0.3-1-0.3c-0.3,0-0.7,0.1-1,0.2c-0.3,0.1-0.7,0.3-1.1,0.7l-0.8-0.9c0.5-0.4,1-0.7,1.4-0.9c0.5-0.2,0.9-0.3,1.5-0.3
				c0.8,0,1.5,0.2,2,0.6c0.5,0.4,0.7,1,0.7,1.7c0,0.4-0.1,0.8-0.2,1.1c-0.1,0.4-0.4,0.7-0.7,1.1c-0.3,0.4-0.8,0.9-1.5,1.5l-1.5,1.5
				v0.1h4.1V106.2z"/>
			<path d="M300.3,105.5c0-0.3,0.1-0.5,0.2-0.7s0.4-0.2,0.7-0.2c0.3,0,0.5,0.1,0.7,0.2c0.2,0.2,0.2,0.4,0.2,0.7
				c0,0.3-0.1,0.5-0.2,0.7s-0.4,0.2-0.7,0.2c-0.3,0-0.5-0.1-0.7-0.2C300.3,106,300.3,105.8,300.3,105.5z"/>
			<path d="M307.5,106.2h-1.4v-5.6c0-0.7,0-1.2,0-1.6c-0.1,0.1-0.2,0.2-0.3,0.3c-0.1,0.1-0.6,0.5-1.3,1.1l-0.7-0.9l2.6-2h1.2V106.2z
				"/>
			<path d="M311.3,106.2l3.5-7.5h-4.5v-1.2h6v1l-3.4,7.7H311.3z"/>
			<path d="M317.3,102.5c0-3.4,1.4-5.1,4.2-5.1c0.4,0,0.8,0,1.1,0.1v1.2c-0.3-0.1-0.7-0.1-1.1-0.1c-0.9,0-1.6,0.3-2.1,0.8
				s-0.7,1.3-0.8,2.4h0.1c0.2-0.3,0.5-0.6,0.8-0.8c0.3-0.2,0.7-0.3,1.2-0.3c0.8,0,1.4,0.2,1.9,0.7c0.4,0.5,0.7,1.1,0.7,2
				c0,0.9-0.3,1.6-0.8,2.2s-1.2,0.8-2.1,0.8c-0.6,0-1.2-0.2-1.6-0.5s-0.8-0.7-1.1-1.3C317.5,104,317.3,103.3,317.3,102.5z
				 M320.4,105.2c0.5,0,0.9-0.2,1.1-0.5s0.4-0.8,0.4-1.3c0-0.5-0.1-0.9-0.4-1.2s-0.6-0.4-1.1-0.4c-0.3,0-0.6,0.1-0.8,0.2
				s-0.5,0.3-0.6,0.5s-0.2,0.5-0.2,0.7c0,0.6,0.2,1,0.5,1.4S319.9,105.2,320.4,105.2z"/>
		</g>
	</g>
	<g>
		<g>
			<path class="st4" d="M437.6,32c0.5-1.2,0.8-2.5,0.8-3.8c0-6.2-6.2-11.3-13.8-11.3c-1,0-2,0.1-2.9,0.3c-2.2-4.5-7.5-7.6-13.7-7.6
				c-4.3,0-8.2,1.5-10.9,4c-1.9-1.5-4.4-2.5-7.3-2.5c-1.1,0-2.2,0.2-3.2,0.4c-1.7-4.4-6-7.6-11-7.6c-5.4,0-9.9,3.6-11.4,8.5
				c-2.4-1.8-5.9-2.9-9.8-2.9c-3.8,0-7.2,1.1-9.6,2.7c-1.5-0.8-3.3-1.2-5.1-1.2c-6.4,0-11.6,5.2-11.6,11.6c0,4.7,2.8,8.7,6.7,10.5
				c-0.3,0.9-0.5,1.9-0.5,2.9c0,5.8,5.7,10.5,12.8,10.5c0.6,0,1.2,0,1.7-0.1c0,0,0,0.1,0,0.1c0,7.3,7.7,13.3,17.1,13.3
				c6.5,0,12.1-2.8,15-6.9c2.5,2.4,6,3.9,10,3.9c2.4,0,4.7-0.6,6.7-1.5c2.6,1.6,5.8,2.6,9.3,2.6c7.3,0,13.4-4.2,15.3-10
				c1.1,0.2,2.2,0.3,3.4,0.3c8.2,0,14.8-4.5,14.8-10.1C440.4,35.7,439.4,33.6,437.6,32z"/>
			<path d="M366,60.7c-9.6,0-17.4-5.9-18.1-13.3c-0.3,0-0.5,0-0.8,0c-7.6,0-13.8-5.1-13.8-11.5c0-0.8,0.1-1.6,0.3-2.4
				c-4-2.2-6.5-6.4-6.5-11c0-6.9,5.6-12.6,12.6-12.6c1.7,0,3.4,0.4,5,1.1c2.6-1.7,6-2.6,9.7-2.6c3.4,0,6.7,0.8,9.3,2.4
				c2-4.8,6.7-8,11.9-8c5,0,9.5,2.9,11.6,7.4c3.5-0.7,7.2,0,9.9,1.9c3-2.4,6.8-3.7,10.9-3.7c6.1,0,11.6,2.9,14.3,7.6
				c0.8-0.1,1.6-0.2,2.4-0.2c8.1,0,14.8,5.5,14.8,12.3c0,1.2-0.2,2.4-0.6,3.6c1.8,1.8,2.7,4,2.7,6.2c0,6.1-7.1,11.1-15.8,11.1
				c-0.9,0-1.8-0.1-2.8-0.2c-2.3,5.8-8.8,9.9-16,9.9c-3.3,0-6.5-0.8-9.3-2.4c-2,0.9-4.3,1.4-6.6,1.4c-3.6,0-7.2-1.2-9.8-3.4
				C377.8,58.3,372.1,60.7,366,60.7z M349.9,45.2l0,1.3c0,6.7,7.2,12.2,16.1,12.2c6,0,11.4-2.5,14.2-6.5l0.7-0.9l0.8,0.8
				c2.4,2.3,5.8,3.6,9.3,3.6c2.2,0,4.3-0.5,6.2-1.4l0.5-0.2l0.5,0.3c2.6,1.6,5.6,2.4,8.7,2.4c6.7,0,12.6-3.8,14.4-9.3l0.3-0.8
				l0.8,0.1c1.1,0.2,2.2,0.3,3.3,0.3c7.6,0,13.8-4.1,13.8-9.1c0-1.9-0.9-3.7-2.5-5.2l-0.5-0.5l0.3-0.7c0.5-1.1,0.7-2.3,0.7-3.4
				c0-5.7-5.7-10.3-12.8-10.3c-0.9,0-1.8,0.1-2.7,0.2l-0.7,0.1l-0.3-0.7c-2.1-4.3-7.2-7.1-12.8-7.1c-3.9,0-7.6,1.4-10.2,3.7
				l-0.6,0.6l-0.7-0.5c-1.8-1.4-4.1-2.2-6.7-2.2c-1,0-2,0.1-3,0.4l-0.9,0.2l-0.3-0.8c-1.6-4.2-5.6-6.9-10.1-6.9
				c-4.8,0-9.1,3.2-10.4,7.8l-0.4,1.4l-1.1-0.8c-2.3-1.7-5.7-2.7-9.2-2.7c-3.4,0-6.7,0.9-9,2.6l-0.5,0.3l-0.5-0.3
				c-1.5-0.7-3-1.1-4.7-1.1c-5.8,0-10.6,4.7-10.6,10.6c0,4.1,2.4,7.9,6.1,9.6l0.8,0.4l-0.3,0.9c-0.3,0.9-0.5,1.7-0.5,2.6
				c0,5.2,5.3,9.5,11.8,9.5c0.5,0,1,0,1.6-0.1L349.9,45.2z"/>
		</g>
		<g>
			<path d="M355.3,36.2v-11h1.8v11H355.3z"/>
			<path d="M367.1,36.2h-1.8v-5.1c0-0.6-0.1-1.1-0.4-1.4c-0.3-0.3-0.7-0.5-1.2-0.5c-0.7,0-1.3,0.2-1.6,0.7c-0.3,0.4-0.5,1.2-0.5,2.2
				v4.2h-1.8v-8.3h1.4l0.2,1.1h0.1c0.3-0.4,0.6-0.7,1.1-0.9s1-0.3,1.5-0.3c2,0,3,1,3,3.1V36.2z"/>
			<path d="M372.7,34.9c0.4,0,0.9-0.1,1.3-0.2v1.3c-0.2,0.1-0.4,0.2-0.8,0.2c-0.3,0.1-0.6,0.1-1,0.1c-1.7,0-2.5-0.9-2.5-2.7v-4.5
				h-1.1v-0.8l1.2-0.6l0.6-1.8h1.1v1.9h2.4v1.3h-2.4v4.5c0,0.4,0.1,0.7,0.3,0.9S372.4,34.9,372.7,34.9z"/>
			<path d="M379.3,36.4c-1.3,0-2.3-0.4-3-1.1c-0.7-0.8-1.1-1.8-1.1-3.1c0-1.4,0.3-2.4,1-3.2c0.7-0.8,1.6-1.2,2.8-1.2
				c1.1,0,2,0.3,2.6,1s1,1.6,1,2.8v1H377c0,0.8,0.2,1.4,0.7,1.9s1,0.7,1.7,0.7c0.5,0,1,0,1.4-0.1s0.9-0.2,1.4-0.5v1.4
				c-0.4,0.2-0.9,0.4-1.3,0.4S379.9,36.4,379.3,36.4z M379,29.1c-0.6,0-1,0.2-1.4,0.5c-0.3,0.4-0.5,0.9-0.6,1.6h3.8
				c0-0.7-0.2-1.2-0.5-1.6C380,29.2,379.6,29.1,379,29.1z"/>
			<path d="M388.8,27.7c0.4,0,0.7,0,0.9,0.1l-0.2,1.7c-0.3-0.1-0.5-0.1-0.8-0.1c-0.7,0-1.3,0.2-1.7,0.7s-0.7,1.1-0.7,1.8v4.4h-1.8
				v-8.3h1.4l0.2,1.5h0.1c0.3-0.5,0.6-0.9,1.1-1.2S388.3,27.7,388.8,27.7z"/>
			<path d="M398.6,36.2h-1.8v-5.1c0-0.6-0.1-1.1-0.4-1.4c-0.3-0.3-0.7-0.5-1.2-0.5c-0.7,0-1.3,0.2-1.6,0.7c-0.3,0.4-0.5,1.2-0.5,2.2
				v4.2h-1.8v-8.3h1.4l0.2,1.1h0.1c0.3-0.4,0.6-0.7,1.1-0.9s1-0.3,1.5-0.3c2,0,3,1,3,3.1V36.2z"/>
			<path d="M404.7,36.4c-1.3,0-2.3-0.4-3-1.1c-0.7-0.8-1.1-1.8-1.1-3.1c0-1.4,0.3-2.4,1-3.2c0.7-0.8,1.6-1.2,2.8-1.2
				c1.1,0,2,0.3,2.6,1s1,1.6,1,2.8v1h-5.6c0,0.8,0.2,1.4,0.7,1.9s1,0.7,1.7,0.7c0.5,0,1,0,1.4-0.1s0.9-0.2,1.4-0.5v1.4
				c-0.4,0.2-0.9,0.4-1.3,0.4S405.3,36.4,404.7,36.4z M404.4,29.1c-0.6,0-1,0.2-1.4,0.5c-0.3,0.4-0.5,0.9-0.6,1.6h3.8
				c0-0.7-0.2-1.2-0.5-1.6C405.4,29.2,404.9,29.1,404.4,29.1z"/>
			<path d="M413.1,34.9c0.4,0,0.9-0.1,1.3-0.2v1.3c-0.2,0.1-0.4,0.2-0.8,0.2c-0.3,0.1-0.6,0.1-1,0.1c-1.7,0-2.5-0.9-2.5-2.7v-4.5
				H409v-0.8l1.2-0.6l0.6-1.8h1.1v1.9h2.4v1.3h-2.4v4.5c0,0.4,0.1,0.7,0.3,0.9S412.7,34.9,413.1,34.9z"/>
		</g>
	</g>
	<g>
		<g>
			<path class="st4" d="M573.4,85.8H543c-1.1,0-2.1-0.9-2.1-2.1V48.7c0-1.1,0.9-2.1,2.1-2.1h30.4c1.1,0,2.1,0.9,2.1,2.1v35.1
				C575.4,84.9,574.5,85.8,573.4,85.8z"/>
			<path d="M573.4,87.3H543c-2,0-3.6-1.6-3.6-3.6V48.7c0-2,1.6-3.6,3.6-3.6h30.4c2,0,3.6,1.6,3.6,3.6v35.1
				C576.9,85.8,575.3,87.3,573.4,87.3z M543,48.1c-0.3,0-0.6,0.3-0.6,0.6v35.1c0,0.3,0.3,0.6,0.6,0.6h30.4c0.3,0,0.6-0.3,0.6-0.6
				V48.7c0-0.3-0.3-0.6-0.6-0.6H543z"/>
		</g>
		<g>
			<g>
				<rect x="545.9" y="53.9" width="24.6" height="4"/>
			</g>
			<g>
				<rect x="545.9" y="64.2" width="24.6" height="4"/>
			</g>
			<g>
				<rect x="545.9" y="74.6" width="24.6" height="4"/>
			</g>
		</g>
	</g>
	<g>
		<path d="M530.2,36.2h-1.8l-1.7-6c-0.1-0.3-0.2-0.6-0.3-1.1s-0.2-0.8-0.2-1c0,0.3-0.1,0.7-0.2,1.1s-0.2,0.8-0.3,1l-1.7,5.9h-1.8
			l-1.3-5l-1.3-5h1.7l1.4,5.8c0.2,0.9,0.4,1.8,0.5,2.5c0-0.4,0.1-0.8,0.2-1.3c0.1-0.5,0.2-0.9,0.3-1.2l1.6-5.8h1.6l1.7,5.9
			c0.2,0.5,0.3,1.4,0.5,2.4c0.1-0.7,0.2-1.5,0.5-2.5l1.4-5.8h1.7L530.2,36.2z"/>
		<path d="M537.4,36.4c-1.2,0-2.1-0.3-2.8-1s-1-1.6-1-2.8c0-1.2,0.3-2.2,0.9-2.9s1.5-1.1,2.5-1.1c1,0,1.8,0.3,2.4,0.9
			c0.6,0.6,0.9,1.4,0.9,2.5v0.9h-5c0,0.7,0.2,1.3,0.6,1.7c0.4,0.4,0.9,0.6,1.6,0.6c0.4,0,0.9,0,1.2-0.1c0.4-0.1,0.8-0.2,1.2-0.4v1.3
			c-0.4,0.2-0.8,0.3-1.2,0.4C538.3,36.3,537.9,36.4,537.4,36.4z M537.1,29.7c-0.5,0-0.9,0.2-1.2,0.5s-0.5,0.8-0.5,1.4h3.4
			c0-0.6-0.2-1.1-0.5-1.4C538,29.9,537.6,29.7,537.1,29.7z"/>
		<path d="M546,28.5c0.9,0,1.7,0.3,2.2,1s0.8,1.6,0.8,2.9c0,1.2-0.3,2.2-0.8,2.9s-1.3,1-2.2,1c-1,0-1.7-0.3-2.2-1h-0.1l-0.3,0.9
			h-1.2V25.6h1.6v2.5c0,0.2,0,0.5,0,0.8c0,0.4,0,0.6,0,0.7h0.1C544.2,28.9,545,28.5,546,28.5z M545.6,29.8c-0.6,0-1.1,0.2-1.4,0.6
			c-0.3,0.4-0.4,1-0.4,1.9v0.1c0,0.9,0.1,1.6,0.4,2c0.3,0.4,0.8,0.6,1.4,0.6c0.6,0,1-0.2,1.3-0.7s0.4-1.1,0.4-2
			C547.3,30.7,546.7,29.8,545.6,29.8z"/>
		<path d="M560.4,33.5c0,0.9-0.3,1.6-1,2.1s-1.5,0.8-2.7,0.8c-1.1,0-2.1-0.2-2.8-0.5v-1.5c0.5,0.2,0.9,0.4,1.5,0.5s1,0.2,1.4,0.2
			c0.6,0,1.1-0.1,1.4-0.4s0.5-0.6,0.5-1c0-0.4-0.1-0.7-0.4-1c-0.3-0.3-0.9-0.6-1.8-0.9c-0.9-0.4-1.6-0.8-1.9-1.3
			c-0.4-0.5-0.6-1-0.6-1.7c0-0.8,0.3-1.5,0.9-2c0.6-0.5,1.4-0.7,2.4-0.7c1,0,1.9,0.2,2.9,0.6l-0.5,1.3c-0.9-0.4-1.7-0.6-2.4-0.6
			c-0.5,0-0.9,0.1-1.2,0.3s-0.4,0.5-0.4,0.9c0,0.3,0.1,0.5,0.2,0.7s0.3,0.4,0.5,0.5c0.3,0.2,0.7,0.4,1.4,0.6
			c0.7,0.3,1.3,0.6,1.6,0.9s0.6,0.6,0.8,0.9C560.3,32.7,560.4,33.1,560.4,33.5z"/>
		<path d="M565.5,36.4c-1.2,0-2.1-0.3-2.8-1s-1-1.6-1-2.8c0-1.2,0.3-2.2,0.9-2.9s1.5-1.1,2.5-1.1c1,0,1.8,0.3,2.4,0.9
			s0.9,1.4,0.9,2.5v0.9h-5c0,0.7,0.2,1.3,0.6,1.7c0.4,0.4,0.9,0.6,1.6,0.6c0.4,0,0.9,0,1.2-0.1c0.4-0.1,0.8-0.2,1.2-0.4v1.3
			c-0.4,0.2-0.8,0.3-1.2,0.4S566,36.4,565.5,36.4z M565.2,29.7c-0.5,0-0.9,0.2-1.2,0.5s-0.5,0.8-0.5,1.4h3.4c0-0.6-0.2-1.1-0.5-1.4
			S565.7,29.7,565.2,29.7z"/>
		<path d="M574.1,28.5c0.3,0,0.6,0,0.8,0.1l-0.2,1.5c-0.2-0.1-0.5-0.1-0.7-0.1c-0.6,0-1.2,0.2-1.6,0.6c-0.4,0.4-0.6,1-0.6,1.6v4
			h-1.6v-7.6h1.3l0.2,1.3h0.1c0.3-0.5,0.6-0.8,1-1.1C573.2,28.7,573.6,28.5,574.1,28.5z"/>
		<path d="M578,36.2l-2.9-7.6h1.7l1.5,4.4c0.3,0.7,0.4,1.3,0.5,1.8h0.1c0-0.3,0.2-0.9,0.5-1.8l1.5-4.4h1.7l-2.9,7.6H578z"/>
		<path d="M587.1,36.4c-1.2,0-2.1-0.3-2.8-1c-0.7-0.7-1-1.6-1-2.8c0-1.2,0.3-2.2,0.9-2.9s1.5-1.1,2.5-1.1c1,0,1.8,0.3,2.4,0.9
			s0.9,1.4,0.9,2.5v0.9h-5c0,0.7,0.2,1.3,0.6,1.7s0.9,0.6,1.6,0.6c0.4,0,0.9,0,1.2-0.1c0.4-0.1,0.8-0.2,1.2-0.4v1.3
			c-0.4,0.2-0.8,0.3-1.2,0.4S587.6,36.4,587.1,36.4z M586.8,29.7c-0.5,0-0.9,0.2-1.2,0.5c-0.3,0.3-0.5,0.8-0.6,1.4h3.4
			c0-0.6-0.2-1.1-0.5-1.4S587.3,29.7,586.8,29.7z"/>
		<path d="M595.7,28.5c0.3,0,0.6,0,0.8,0.1l-0.2,1.5c-0.2-0.1-0.5-0.1-0.7-0.1c-0.6,0-1.2,0.2-1.6,0.6c-0.4,0.4-0.6,1-0.6,1.6v4
			h-1.6v-7.6h1.3l0.2,1.3h0.1c0.3-0.5,0.6-0.8,1-1.1C594.8,28.7,595.2,28.5,595.7,28.5z"/>
	</g>
	<g>
		<g>
			<g>
				
					<rect x="513.9" y="86.6" transform="matrix(0.4181 -0.9084 0.9084 0.4181 226.5677 528.8073)" class="st0" width="24.2" height="2"/>
			</g>
			<g>
				<g>
					<path class="st0" d="M533.6,71.1c-0.2,3-0.1,7,0.7,9.8l-3.6-3.6l-5-0.4C528.4,75.7,531.5,73.2,533.6,71.1z"/>
				</g>
			</g>
		</g>
		<g>
			<g>
				<path class="st4" d="M474.1,132.9h53.6c3.5,0,6.3-2.8,6.3-6.3V98.2c0-3.5-2.8-6.3-6.3-6.3h-53.6c-3.5,0-6.3,2.8-6.3,6.3v28.3
					C467.8,130.1,470.6,132.9,474.1,132.9z"/>
			</g>
			<g>
				<path class="st0" d="M527.7,133.9h-53.6c-4,0-7.3-3.3-7.3-7.3V98.2c0-4,3.3-7.3,7.3-7.3h53.6c4,0,7.3,3.3,7.3,7.3v28.3
					C535,130.6,531.7,133.9,527.7,133.9z M474.1,92.9c-2.9,0-5.3,2.4-5.3,5.3v28.3c0,2.9,2.4,5.3,5.3,5.3h53.6
					c2.9,0,5.3-2.4,5.3-5.3V98.2c0-2.9-2.4-5.3-5.3-5.3H474.1z"/>
			</g>
		</g>
		<g>
			<path d="M481.5,103.5c0,0.9-0.3,1.7-0.9,2.2c-0.6,0.5-1.4,0.7-2.5,0.7h-0.8v3.1h-1.9v-8.7h2.8c1.1,0,1.9,0.2,2.4,0.7
				S481.5,102.6,481.5,103.5z M477.3,104.9h0.6c0.6,0,1-0.1,1.3-0.3s0.4-0.6,0.4-1c0-0.4-0.1-0.8-0.4-1c-0.2-0.2-0.6-0.3-1.1-0.3
				h-0.8V104.9z"/>
			<path d="M487.7,109.5l-0.2-0.9h-0.1c-0.2,0.3-0.5,0.6-0.8,0.7c-0.4,0.2-0.8,0.3-1.2,0.3c-0.8,0-1.4-0.2-1.8-0.6
				c-0.4-0.4-0.6-1-0.6-1.8v-4.4h1.8v3.9c0,0.5,0.1,0.8,0.3,1.1c0.2,0.2,0.4,0.4,0.8,0.4c0.5,0,0.9-0.2,1.1-0.5
				c0.2-0.3,0.3-0.9,0.3-1.7v-3.1h1.8v6.7H487.7z"/>
			<path d="M494.8,102.7c0.8,0,1.4,0.3,1.9,0.9s0.7,1.5,0.7,2.5c0,1.1-0.2,2-0.7,2.6s-1.1,0.9-1.9,0.9c-0.8,0-1.4-0.3-1.8-0.9h-0.1
				l-0.3,0.7h-1.4v-9.3h1.8v2.2c0,0.3,0,0.7-0.1,1.3h0.1C493.3,103.1,493.9,102.7,494.8,102.7z M494.2,104.2c-0.5,0-0.8,0.1-1,0.4
				c-0.2,0.3-0.3,0.7-0.3,1.4v0.2c0,0.7,0.1,1.2,0.3,1.5c0.2,0.3,0.6,0.5,1,0.5c0.4,0,0.7-0.2,0.9-0.5c0.2-0.3,0.3-0.8,0.3-1.5
				c0-0.7-0.1-1.1-0.3-1.5C494.9,104.3,494.6,104.2,494.2,104.2z"/>
			<path d="M500.6,109.5h-1.8v-9.3h1.8V109.5z"/>
			<path d="M502.5,101.1c0-0.6,0.3-0.9,1-0.9s1,0.3,1,0.9c0,0.3-0.1,0.5-0.2,0.7c-0.2,0.2-0.4,0.2-0.7,0.2
				C502.8,102,502.5,101.7,502.5,101.1z M504.4,109.5h-1.8v-6.7h1.8V109.5z"/>
			<path d="M509,109.6c-2.1,0-3.1-1.1-3.1-3.4c0-1.1,0.3-2,0.8-2.6c0.6-0.6,1.4-0.9,2.4-0.9c0.8,0,1.5,0.2,2.1,0.5l-0.5,1.4
				c-0.3-0.1-0.6-0.2-0.8-0.3s-0.5-0.1-0.7-0.1c-0.9,0-1.4,0.7-1.4,2c0,1.3,0.5,2,1.4,2c0.4,0,0.7,0,1-0.1c0.3-0.1,0.6-0.2,0.9-0.4
				v1.6c-0.3,0.2-0.6,0.3-0.9,0.4C509.8,109.6,509.4,109.6,509,109.6z"/>
			<path d="M515.9,109.5v-8.7h1.9v8.7H515.9z"/>
			<path d="M526,103.5c0,0.9-0.3,1.7-0.9,2.2c-0.6,0.5-1.4,0.7-2.5,0.7h-0.8v3.1h-1.9v-8.7h2.8c1.1,0,1.9,0.2,2.4,0.7
				S526,102.6,526,103.5z M521.8,104.9h0.6c0.6,0,1-0.1,1.3-0.3s0.4-0.6,0.4-1c0-0.4-0.1-0.8-0.4-1c-0.2-0.2-0.6-0.3-1.1-0.3h-0.8
				V104.9z"/>
			<path d="M484.9,115.4c0.8,0,1.5,0.2,2,0.6c0.5,0.4,0.7,0.9,0.7,1.5c0,0.9-0.5,1.6-1.6,2.1c0.7,0.3,1.2,0.7,1.5,1.1
				c0.3,0.4,0.4,0.8,0.4,1.3c0,0.7-0.3,1.3-0.8,1.7c-0.5,0.4-1.2,0.7-2.2,0.7c-0.9,0-1.7-0.2-2.2-0.6c-0.5-0.4-0.8-1-0.8-1.7
				c0-0.5,0.1-0.9,0.4-1.3c0.3-0.4,0.7-0.7,1.3-1c-0.5-0.3-0.9-0.7-1.1-1c-0.2-0.4-0.3-0.8-0.3-1.2c0-0.6,0.2-1.1,0.7-1.5
				C483.5,115.5,484.1,115.4,484.9,115.4z M483.3,121.9c0,0.4,0.1,0.7,0.4,1c0.3,0.2,0.7,0.3,1.2,0.3c0.5,0,0.9-0.1,1.2-0.4
				c0.3-0.2,0.4-0.6,0.4-1c0-0.3-0.1-0.6-0.4-0.9s-0.7-0.5-1.2-0.7l-0.2-0.1c-0.5,0.2-0.9,0.5-1.1,0.8
				C483.4,121.3,483.3,121.6,483.3,121.9z M484.9,116.4c-0.4,0-0.7,0.1-1,0.3c-0.2,0.2-0.4,0.5-0.4,0.8c0,0.2,0,0.4,0.1,0.6
				c0.1,0.2,0.2,0.3,0.4,0.4c0.2,0.1,0.5,0.3,0.8,0.5c0.5-0.2,0.8-0.4,1-0.7s0.3-0.5,0.3-0.8c0-0.3-0.1-0.6-0.4-0.8
				C485.6,116.5,485.3,116.4,484.9,116.4z"/>
			<path d="M489.2,123.5c0-0.3,0.1-0.5,0.2-0.7s0.4-0.2,0.7-0.2c0.3,0,0.5,0.1,0.7,0.2c0.2,0.2,0.2,0.4,0.2,0.7
				c0,0.3-0.1,0.5-0.2,0.7s-0.4,0.2-0.7,0.2s-0.5-0.1-0.7-0.2C489.3,124,489.2,123.7,489.2,123.5z"/>
			<path d="M495.3,115.4c0.8,0,1.5,0.2,2,0.6c0.5,0.4,0.7,0.9,0.7,1.5c0,0.9-0.5,1.6-1.6,2.1c0.7,0.3,1.2,0.7,1.5,1.1
				c0.3,0.4,0.4,0.8,0.4,1.3c0,0.7-0.3,1.3-0.8,1.7c-0.5,0.4-1.2,0.7-2.2,0.7c-0.9,0-1.7-0.2-2.2-0.6c-0.5-0.4-0.8-1-0.8-1.7
				c0-0.5,0.1-0.9,0.4-1.3c0.3-0.4,0.7-0.7,1.3-1c-0.5-0.3-0.9-0.7-1.1-1c-0.2-0.4-0.3-0.8-0.3-1.2c0-0.6,0.2-1.1,0.7-1.5
				C493.8,115.5,494.5,115.4,495.3,115.4z M493.6,121.9c0,0.4,0.1,0.7,0.4,1c0.3,0.2,0.7,0.3,1.2,0.3c0.5,0,0.9-0.1,1.2-0.4
				c0.3-0.2,0.4-0.6,0.4-1c0-0.3-0.1-0.6-0.4-0.9s-0.7-0.5-1.2-0.7l-0.2-0.1c-0.5,0.2-0.9,0.5-1.1,0.8
				C493.8,121.3,493.6,121.6,493.6,121.9z M495.3,116.4c-0.4,0-0.7,0.1-1,0.3c-0.2,0.2-0.4,0.5-0.4,0.8c0,0.2,0,0.4,0.1,0.6
				c0.1,0.2,0.2,0.3,0.4,0.4c0.2,0.1,0.5,0.3,0.8,0.5c0.5-0.2,0.8-0.4,1-0.7s0.3-0.5,0.3-0.8c0-0.3-0.1-0.6-0.4-0.8
				C496,116.5,495.7,116.4,495.3,116.4z"/>
			<path d="M499.6,123.5c0-0.3,0.1-0.5,0.2-0.7s0.4-0.2,0.7-0.2c0.3,0,0.5,0.1,0.7,0.2c0.2,0.2,0.2,0.4,0.2,0.7
				c0,0.3-0.1,0.5-0.2,0.7s-0.4,0.2-0.7,0.2s-0.5-0.1-0.7-0.2C499.6,124,499.6,123.7,499.6,123.5z"/>
			<path d="M505.6,115.4c0.8,0,1.5,0.2,2,0.6c0.5,0.4,0.7,0.9,0.7,1.5c0,0.9-0.5,1.6-1.6,2.1c0.7,0.3,1.2,0.7,1.5,1.1
				c0.3,0.4,0.4,0.8,0.4,1.3c0,0.7-0.3,1.3-0.8,1.7c-0.5,0.4-1.2,0.7-2.2,0.7c-0.9,0-1.7-0.2-2.2-0.6c-0.5-0.4-0.8-1-0.8-1.7
				c0-0.5,0.1-0.9,0.4-1.3c0.3-0.4,0.7-0.7,1.3-1c-0.5-0.3-0.9-0.7-1.1-1c-0.2-0.4-0.3-0.8-0.3-1.2c0-0.6,0.2-1.1,0.7-1.5
				C504.2,115.5,504.8,115.4,505.6,115.4z M504,121.9c0,0.4,0.1,0.7,0.4,1c0.3,0.2,0.7,0.3,1.2,0.3c0.5,0,0.9-0.1,1.2-0.4
				c0.3-0.2,0.4-0.6,0.4-1c0-0.3-0.1-0.6-0.4-0.9s-0.7-0.5-1.2-0.7l-0.2-0.1c-0.5,0.2-0.9,0.5-1.1,0.8
				C504.1,121.3,504,121.6,504,121.9z M505.6,116.4c-0.4,0-0.7,0.1-1,0.3c-0.2,0.2-0.4,0.5-0.4,0.8c0,0.2,0,0.4,0.1,0.6
				c0.1,0.2,0.2,0.3,0.4,0.4c0.2,0.1,0.5,0.3,0.8,0.5c0.5-0.2,0.8-0.4,1-0.7s0.3-0.5,0.3-0.8c0-0.3-0.1-0.6-0.4-0.8
				C506.3,116.5,506,116.4,505.6,116.4z"/>
			<path d="M509.9,123.5c0-0.3,0.1-0.5,0.2-0.7s0.4-0.2,0.7-0.2c0.3,0,0.5,0.1,0.7,0.2c0.2,0.2,0.2,0.4,0.2,0.7
				c0,0.3-0.1,0.5-0.2,0.7s-0.4,0.2-0.7,0.2s-0.5-0.1-0.7-0.2C510,124,509.9,123.7,509.9,123.5z"/>
			<path d="M516,115.4c0.8,0,1.5,0.2,2,0.6c0.5,0.4,0.7,0.9,0.7,1.5c0,0.9-0.5,1.6-1.6,2.1c0.7,0.3,1.2,0.7,1.5,1.1
				c0.3,0.4,0.4,0.8,0.4,1.3c0,0.7-0.3,1.3-0.8,1.7c-0.5,0.4-1.2,0.7-2.2,0.7c-0.9,0-1.7-0.2-2.2-0.6c-0.5-0.4-0.8-1-0.8-1.7
				c0-0.5,0.1-0.9,0.4-1.3c0.3-0.4,0.7-0.7,1.3-1c-0.5-0.3-0.9-0.7-1.1-1c-0.2-0.4-0.3-0.8-0.3-1.2c0-0.6,0.2-1.1,0.7-1.5
				C514.5,115.5,515.2,115.4,516,115.4z M514.3,121.9c0,0.4,0.1,0.7,0.4,1c0.3,0.2,0.7,0.3,1.2,0.3c0.5,0,0.9-0.1,1.2-0.4
				c0.3-0.2,0.4-0.6,0.4-1c0-0.3-0.1-0.6-0.4-0.9s-0.7-0.5-1.2-0.7l-0.2-0.1c-0.5,0.2-0.9,0.5-1.1,0.8
				C514.5,121.3,514.3,121.6,514.3,121.9z M515.9,116.4c-0.4,0-0.7,0.1-1,0.3c-0.2,0.2-0.4,0.5-0.4,0.8c0,0.2,0,0.4,0.1,0.6
				c0.1,0.2,0.2,0.3,0.4,0.4c0.2,0.1,0.5,0.3,0.8,0.5c0.5-0.2,0.8-0.4,1-0.7s0.3-0.5,0.3-0.8c0-0.3-0.1-0.6-0.4-0.8
				C516.7,116.5,516.4,116.4,515.9,116.4z"/>
		</g>
	</g>
	<g>
		<g>
			<g>
				<path class="st4" d="M113.7,219.8c-5.7,0-10.3-4.6-10.3-10.3v-73c0-5.7,4.6-10.3,10.3-10.3h173.9c5.7,0,10.3,4.6,10.3,10.3v73
					c0,5.7-4.6,10.3-10.3,10.3H113.7z"/>
			</g>
			<g>
				<path d="M287.6,127.6c4.9,0,8.8,4,8.8,8.8v73c0,4.9-4,8.8-8.8,8.8H113.7c-4.9,0-8.8-4-8.8-8.8v-73c0-4.9,4-8.8,8.8-8.8H287.6
					 M287.6,124.6H113.7c-6.5,0-11.8,5.3-11.8,11.8v73c0,6.5,5.3,11.8,11.8,11.8h173.9c6.5,0,11.8-5.3,11.8-11.8v-73
					C299.4,129.9,294.1,124.6,287.6,124.6L287.6,124.6z"/>
			</g>
		</g>
		<g>
			<path d="M139.3,139.9c0,1.1-0.3,1.9-1,2.5s-1.6,0.9-2.9,0.9h-0.9v3.6h-2.1v-10h3.2c1.2,0,2.1,0.3,2.8,0.8
				S139.3,138.9,139.3,139.9z M134.5,141.5h0.7c0.7,0,1.1-0.1,1.5-0.4s0.5-0.6,0.5-1.1c0-0.5-0.1-0.9-0.4-1.1s-0.7-0.4-1.3-0.4h-1
				V141.5z"/>
			<path d="M147.3,146.8l-0.7-2.4h-3.6l-0.7,2.4h-2.3l3.5-10h2.6l3.5,10H147.3z M146,142.6c-0.7-2.2-1-3.4-1.1-3.7s-0.1-0.5-0.2-0.7
				c-0.2,0.6-0.6,2-1.3,4.3H146z"/>
			<path d="M154.7,146.8h-2.1v-8.2h-2.7v-1.8h7.5v1.8h-2.7V146.8z"/>
			<path d="M166.4,146.8h-2.1v-8.2h-2.7v-1.8h7.5v1.8h-2.7V146.8z"/>
			<path d="M174.7,139c0.3,0,0.5,0,0.7,0.1l-0.2,2c-0.2,0-0.4-0.1-0.6-0.1c-0.7,0-1.2,0.2-1.6,0.5c-0.4,0.3-0.6,0.8-0.6,1.4v3.9
				h-2.1v-7.6h1.6l0.3,1.3h0.1c0.2-0.4,0.6-0.8,1-1C173.8,139.1,174.3,139,174.7,139z"/>
			<path d="M181.7,146.8l-0.4-1h-0.1c-0.4,0.4-0.7,0.7-1.1,0.9c-0.4,0.2-0.9,0.3-1.5,0.3c-0.7,0-1.3-0.2-1.7-0.6
				c-0.4-0.4-0.6-1-0.6-1.8c0-0.8,0.3-1.4,0.9-1.8c0.6-0.4,1.4-0.6,2.6-0.6l1.3,0v-0.3c0-0.8-0.4-1.2-1.2-1.2
				c-0.6,0-1.3,0.2-2.2,0.6l-0.7-1.4c0.9-0.5,1.9-0.7,2.9-0.7c1,0,1.8,0.2,2.4,0.7s0.8,1.1,0.8,2v5.1H181.7z M181.1,143.3l-0.8,0
				c-0.6,0-1.1,0.1-1.4,0.3s-0.4,0.5-0.4,0.9c0,0.6,0.3,0.9,1,0.9c0.5,0,0.9-0.1,1.2-0.4c0.3-0.3,0.4-0.6,0.4-1.1V143.3z"/>
			<path d="M192.4,146.8h-2.1v-4.5c0-0.6-0.1-1-0.3-1.2s-0.5-0.4-0.9-0.4c-0.6,0-1,0.2-1.3,0.6s-0.4,1-0.4,1.9v3.6h-2.1v-7.6h1.6
				l0.3,1h0.1c0.2-0.4,0.6-0.6,1-0.8c0.4-0.2,0.9-0.3,1.4-0.3c0.9,0,1.6,0.2,2,0.7s0.7,1.2,0.7,2.1V146.8z"/>
			<path d="M199.8,144.5c0,0.8-0.3,1.4-0.8,1.8c-0.5,0.4-1.4,0.6-2.4,0.6c-0.6,0-1,0-1.4-0.1s-0.8-0.2-1.1-0.3v-1.7
				c0.4,0.2,0.8,0.3,1.3,0.5c0.5,0.1,0.9,0.2,1.3,0.2c0.8,0,1.1-0.2,1.1-0.7c0-0.2,0-0.3-0.2-0.4s-0.3-0.2-0.5-0.3s-0.6-0.3-1-0.5
				c-0.6-0.2-1-0.5-1.3-0.7c-0.3-0.2-0.5-0.5-0.6-0.7c-0.1-0.3-0.2-0.6-0.2-1c0-0.7,0.3-1.2,0.8-1.6c0.5-0.4,1.3-0.6,2.2-0.6
				c0.9,0,1.8,0.2,2.7,0.6l-0.6,1.5c-0.4-0.2-0.7-0.3-1.1-0.4s-0.7-0.2-1-0.2c-0.6,0-0.9,0.2-0.9,0.5c0,0.2,0.1,0.3,0.3,0.5
				c0.2,0.1,0.6,0.3,1.3,0.6c0.6,0.2,1,0.5,1.3,0.7s0.5,0.5,0.6,0.7S199.8,144.2,199.8,144.5z"/>
			<path d="M203.5,146.8h-2.1v-10.6h2.1V146.8z"/>
			<path d="M210.6,146.8l-0.4-1h-0.1c-0.4,0.4-0.7,0.7-1.1,0.9c-0.4,0.2-0.9,0.3-1.5,0.3c-0.7,0-1.3-0.2-1.7-0.6
				c-0.4-0.4-0.6-1-0.6-1.8c0-0.8,0.3-1.4,0.9-1.8c0.6-0.4,1.4-0.6,2.6-0.6l1.3,0v-0.3c0-0.8-0.4-1.2-1.2-1.2
				c-0.6,0-1.3,0.2-2.2,0.6l-0.7-1.4c0.9-0.5,1.9-0.7,2.9-0.7c1,0,1.8,0.2,2.4,0.7s0.8,1.1,0.8,2v5.1H210.6z M210,143.3l-0.8,0
				c-0.6,0-1.1,0.1-1.4,0.3s-0.4,0.5-0.4,0.9c0,0.6,0.3,0.9,1,0.9c0.5,0,0.9-0.1,1.2-0.4c0.3-0.3,0.4-0.6,0.4-1.1V143.3z"/>
			<path d="M217.4,145.3c0.4,0,0.8-0.1,1.3-0.2v1.6c-0.5,0.2-1.2,0.3-1.9,0.3c-0.8,0-1.4-0.2-1.8-0.6c-0.4-0.4-0.6-1.1-0.6-1.9v-3.7
				h-1v-0.9l1.1-0.7l0.6-1.6h1.3v1.6h2.1v1.6h-2.1v3.7c0,0.3,0.1,0.5,0.3,0.7C216.9,145.2,217.1,145.3,217.4,145.3z"/>
			<path d="M220.2,137.2c0-0.7,0.4-1,1.1-1s1.1,0.3,1.1,1c0,0.3-0.1,0.6-0.3,0.8c-0.2,0.2-0.5,0.3-0.9,0.3
				C220.6,138.2,220.2,137.9,220.2,137.2z M222.3,146.8h-2.1v-7.6h2.1V146.8z"/>
			<path d="M231.5,143c0,1.2-0.3,2.2-1,2.9s-1.6,1.1-2.7,1.1c-0.7,0-1.4-0.2-1.9-0.5s-1-0.8-1.3-1.4s-0.5-1.3-0.5-2.1
				c0-1.2,0.3-2.2,1-2.9s1.6-1,2.7-1c0.7,0,1.4,0.2,1.9,0.5s1,0.8,1.3,1.4S231.5,142.2,231.5,143z M226.2,143c0,0.8,0.1,1.3,0.4,1.7
				c0.2,0.4,0.7,0.6,1.2,0.6c0.6,0,1-0.2,1.2-0.6c0.2-0.4,0.4-1,0.4-1.7c0-0.8-0.1-1.3-0.4-1.7s-0.6-0.6-1.2-0.6
				c-0.6,0-1,0.2-1.2,0.6S226.2,142.2,226.2,143z"/>
			<path d="M240.3,146.8h-2.1v-4.5c0-0.6-0.1-1-0.3-1.2s-0.5-0.4-0.9-0.4c-0.6,0-1,0.2-1.3,0.6s-0.4,1-0.4,1.9v3.6h-2.1v-7.6h1.6
				l0.3,1h0.1c0.2-0.4,0.6-0.6,1-0.8c0.4-0.2,0.9-0.3,1.4-0.3c0.9,0,1.6,0.2,2,0.7s0.7,1.2,0.7,2.1V146.8z"/>
			<path d="M246.2,146.8v-10h2.1v8.2h4.1v1.8H246.2z"/>
			<path d="M253.9,137.2c0-0.7,0.4-1,1.1-1s1.1,0.3,1.1,1c0,0.3-0.1,0.6-0.3,0.8c-0.2,0.2-0.5,0.3-0.9,0.3
				C254.2,138.2,253.9,137.9,253.9,137.2z M256,146.8h-2.1v-7.6h2.1V146.8z"/>
			<path d="M263.6,144.5c0,0.8-0.3,1.4-0.8,1.8c-0.5,0.4-1.4,0.6-2.4,0.6c-0.6,0-1,0-1.4-0.1s-0.8-0.2-1.1-0.3v-1.7
				c0.4,0.2,0.8,0.3,1.3,0.5c0.5,0.1,0.9,0.2,1.3,0.2c0.8,0,1.1-0.2,1.1-0.7c0-0.2,0-0.3-0.2-0.4s-0.3-0.2-0.5-0.3s-0.6-0.3-1-0.5
				c-0.6-0.2-1-0.5-1.3-0.7c-0.3-0.2-0.5-0.5-0.6-0.7c-0.1-0.3-0.2-0.6-0.2-1c0-0.7,0.3-1.2,0.8-1.6c0.5-0.4,1.3-0.6,2.2-0.6
				c0.9,0,1.8,0.2,2.7,0.6l-0.6,1.5c-0.4-0.2-0.7-0.3-1.1-0.4s-0.7-0.2-1-0.2c-0.6,0-0.9,0.2-0.9,0.5c0,0.2,0.1,0.3,0.3,0.5
				c0.2,0.1,0.6,0.3,1.3,0.6c0.6,0.2,1,0.5,1.3,0.7s0.5,0.5,0.6,0.7S263.6,144.2,263.6,144.5z"/>
			<path d="M268.4,145.3c0.4,0,0.8-0.1,1.3-0.2v1.6c-0.5,0.2-1.2,0.3-1.9,0.3c-0.8,0-1.4-0.2-1.8-0.6c-0.4-0.4-0.6-1.1-0.6-1.9v-3.7
				h-1v-0.9l1.1-0.7l0.6-1.6h1.3v1.6h2.1v1.6h-2.1v3.7c0,0.3,0.1,0.5,0.3,0.7C267.9,145.2,268.1,145.3,268.4,145.3z"/>
		</g>
		<g>
			<g>
				<rect x="213.4" y="159.5" class="st0" width="1" height="53"/>
			</g>
		</g>
		<g>
			<rect x="113.5" y="175.3" class="st0" width="174.3" height="2"/>
		</g>
		<g>
			<path d="M121.9,163.2v8.1h-1v-8.1H121.9z"/>
			<path d="M123.8,167c0-0.6,0-1.1,0-1.6h0.9l0.1,1h0c0.3-0.6,1-1.1,1.9-1.1c0.8,0,2.1,0.5,2.1,2.5v3.5h-1.1v-3.3
				c0-0.9-0.3-1.7-1.3-1.7c-0.7,0-1.2,0.5-1.4,1.1c0,0.1-0.1,0.3-0.1,0.5v3.5h-1.1V167z"/>
			<path d="M131.7,163.8v1.7h1.5v0.8h-1.5v3.1c0,0.7,0.2,1.1,0.8,1.1c0.3,0,0.5,0,0.6-0.1l0,0.8c-0.2,0.1-0.5,0.1-0.9,0.1
				c-0.5,0-0.9-0.2-1.1-0.4c-0.3-0.3-0.4-0.8-0.4-1.5v-3.2h-0.9v-0.8h0.9v-1.4L131.7,163.8z"/>
			<path d="M134.9,168.6c0,1.4,0.9,2,2,2c0.8,0,1.2-0.1,1.6-0.3l0.2,0.8c-0.4,0.2-1,0.4-1.9,0.4c-1.8,0-2.9-1.2-2.9-2.9
				s1-3.1,2.7-3.1c1.9,0,2.4,1.7,2.4,2.7c0,0.2,0,0.4,0,0.5H134.9z M138,167.8c0-0.7-0.3-1.7-1.5-1.7c-1.1,0-1.5,1-1.6,1.7H138z"/>
			<path d="M140.3,167.3c0-0.7,0-1.3,0-1.8h0.9l0,1.1h0c0.3-0.8,0.9-1.3,1.6-1.3c0.1,0,0.2,0,0.3,0v1c-0.1,0-0.2,0-0.4,0
				c-0.7,0-1.3,0.6-1.4,1.4c0,0.1,0,0.3,0,0.5v3.1h-1V167.3z"/>
			<path d="M144.3,167c0-0.6,0-1.1,0-1.6h0.9l0.1,1h0c0.3-0.6,1-1.1,1.9-1.1c0.8,0,2.1,0.5,2.1,2.5v3.5h-1.1v-3.3
				c0-0.9-0.3-1.7-1.3-1.7c-0.7,0-1.2,0.5-1.4,1.1c0,0.1-0.1,0.3-0.1,0.5v3.5h-1.1V167z"/>
			<path d="M154.2,171.3l-0.1-0.7h0c-0.3,0.5-0.9,0.9-1.8,0.9c-1.2,0-1.8-0.8-1.8-1.7c0-1.4,1.2-2.2,3.5-2.2v-0.1
				c0-0.5-0.1-1.3-1.3-1.3c-0.5,0-1.1,0.2-1.5,0.4l-0.2-0.7c0.5-0.3,1.2-0.5,1.9-0.5c1.8,0,2.2,1.2,2.2,2.4v2.2c0,0.5,0,1,0.1,1.4
				H154.2z M154,168.3c-1.2,0-2.5,0.2-2.5,1.3c0,0.7,0.5,1,1,1c0.8,0,1.2-0.5,1.4-1c0-0.1,0.1-0.2,0.1-0.3V168.3z"/>
			<path d="M156.8,162.8h1.1v8.5h-1.1V162.8z"/>
			<path d="M162.2,163.3c0.5-0.1,1.2-0.2,2-0.2c1,0,1.8,0.2,2.3,0.7c0.4,0.4,0.7,1,0.7,1.7c0,0.7-0.2,1.3-0.6,1.7
				c-0.6,0.6-1.5,0.9-2.5,0.9c-0.3,0-0.6,0-0.8-0.1v3.2h-1V163.3z M163.2,167.2c0.2,0.1,0.5,0.1,0.9,0.1c1.3,0,2-0.6,2-1.7
				c0-1.1-0.8-1.6-1.9-1.6c-0.5,0-0.8,0-1,0.1V167.2z"/>
			<path d="M173.5,168.3c0,2.1-1.5,3.1-2.9,3.1c-1.6,0-2.8-1.2-2.8-3c0-1.9,1.3-3.1,2.9-3.1C172.3,165.3,173.5,166.5,173.5,168.3z
				 M168.9,168.4c0,1.3,0.7,2.2,1.8,2.2c1,0,1.8-0.9,1.8-2.3c0-1-0.5-2.2-1.7-2.2C169.4,166.1,168.9,167.3,168.9,168.4z"/>
			<path d="M174.8,167.3c0-0.7,0-1.3,0-1.8h0.9l0,1.1h0c0.3-0.8,0.9-1.3,1.6-1.3c0.1,0,0.2,0,0.3,0v1c-0.1,0-0.2,0-0.4,0
				c-0.7,0-1.3,0.6-1.4,1.4c0,0.1,0,0.3,0,0.5v3.1h-1V167.3z"/>
			<path d="M180.3,163.8v1.7h1.5v0.8h-1.5v3.1c0,0.7,0.2,1.1,0.8,1.1c0.3,0,0.5,0,0.6-0.1l0,0.8c-0.2,0.1-0.5,0.1-0.9,0.1
				c-0.5,0-0.9-0.2-1.1-0.4c-0.3-0.3-0.4-0.8-0.4-1.5v-3.2h-0.9v-0.8h0.9v-1.4L180.3,163.8z"/>
			<path d="M184.6,171.8l3.3-8.7h0.8l-3.4,8.7H184.6z"/>
			<path d="M193.3,163.2v8.1h-1v-8.1H193.3z"/>
			<path d="M195.1,163.3c0.5-0.1,1.2-0.2,2-0.2c1,0,1.8,0.2,2.3,0.7c0.4,0.4,0.7,1,0.7,1.7c0,0.7-0.2,1.3-0.6,1.7
				c-0.6,0.6-1.5,0.9-2.5,0.9c-0.3,0-0.6,0-0.8-0.1v3.2h-1V163.3z M196.1,167.2c0.2,0.1,0.5,0.1,0.9,0.1c1.3,0,2-0.6,2-1.7
				c0-1.1-0.8-1.6-1.9-1.6c-0.5,0-0.8,0-1,0.1V167.2z"/>
		</g>
		<g>
			<path d="M228.1,163.3c0.5-0.1,1.2-0.2,2-0.2c1,0,1.8,0.2,2.3,0.7c0.4,0.4,0.7,1,0.7,1.7c0,0.7-0.2,1.3-0.6,1.7
				c-0.6,0.6-1.5,0.9-2.5,0.9c-0.3,0-0.6,0-0.8-0.1v3.2h-1V163.3z M229.2,167.2c0.2,0.1,0.5,0.1,0.9,0.1c1.3,0,2-0.6,2-1.7
				c0-1.1-0.8-1.6-1.9-1.6c-0.5,0-0.8,0-1,0.1V167.2z"/>
			<path d="M239.2,169.7c0,0.6,0,1.1,0,1.6h-0.9l-0.1-0.9h0c-0.3,0.5-0.9,1.1-1.9,1.1c-0.9,0-2-0.5-2-2.5v-3.4h1.1v3.2
				c0,1.1,0.3,1.8,1.3,1.8c0.7,0,1.2-0.5,1.4-1c0.1-0.2,0.1-0.3,0.1-0.5v-3.6h1.1V169.7z"/>
			<path d="M240.9,171.3c0-0.4,0-1,0-1.5v-7h1v3.6h0c0.4-0.6,1-1.1,2-1.1c1.4,0,2.5,1.2,2.4,3c0,2.1-1.3,3.1-2.6,3.1
				c-0.8,0-1.5-0.3-1.9-1.1h0l0,1H240.9z M242,168.9c0,0.1,0,0.3,0,0.4c0.2,0.7,0.8,1.2,1.6,1.2c1.1,0,1.8-0.9,1.8-2.2
				c0-1.2-0.6-2.2-1.7-2.2c-0.7,0-1.4,0.5-1.6,1.3c0,0.1-0.1,0.3-0.1,0.4V168.9z"/>
			<path d="M247.8,162.8h1.1v8.5h-1.1V162.8z"/>
			<path d="M251.8,163.8c0,0.4-0.3,0.6-0.7,0.6c-0.4,0-0.6-0.3-0.6-0.6c0-0.4,0.3-0.7,0.7-0.7C251.5,163.2,251.8,163.5,251.8,163.8z
				 M250.6,171.3v-5.8h1.1v5.8H250.6z"/>
			<path d="M257.5,171.1c-0.3,0.1-0.9,0.3-1.7,0.3c-1.8,0-2.9-1.2-2.9-3c0-1.8,1.2-3.1,3.1-3.1c0.6,0,1.2,0.2,1.5,0.3l-0.2,0.8
				c-0.3-0.1-0.6-0.3-1.2-0.3c-1.3,0-2.1,1-2.1,2.2c0,1.3,0.9,2.2,2,2.2c0.6,0,1-0.2,1.3-0.3L257.5,171.1z"/>
			<path d="M261.4,163.3c0.5-0.1,1.2-0.2,2-0.2c1,0,1.8,0.2,2.3,0.7c0.4,0.4,0.7,1,0.7,1.7c0,0.7-0.2,1.3-0.6,1.7
				c-0.6,0.6-1.5,0.9-2.5,0.9c-0.3,0-0.6,0-0.8-0.1v3.2h-1V163.3z M262.4,167.2c0.2,0.1,0.5,0.1,0.9,0.1c1.3,0,2-0.6,2-1.7
				c0-1.1-0.8-1.6-1.9-1.6c-0.5,0-0.8,0-1,0.1V167.2z"/>
			<path d="M272.7,168.3c0,2.1-1.5,3.1-2.9,3.1c-1.6,0-2.8-1.2-2.8-3c0-1.9,1.3-3.1,2.9-3.1C271.5,165.3,272.7,166.5,272.7,168.3z
				 M268,168.4c0,1.3,0.7,2.2,1.8,2.2c1,0,1.8-0.9,1.8-2.3c0-1-0.5-2.2-1.7-2.2C268.6,166.1,268,167.3,268,168.4z"/>
			<path d="M274,167.3c0-0.7,0-1.3,0-1.8h0.9l0,1.1h0c0.3-0.8,0.9-1.3,1.6-1.3c0.1,0,0.2,0,0.3,0v1c-0.1,0-0.2,0-0.4,0
				c-0.7,0-1.3,0.6-1.4,1.4c0,0.1,0,0.3,0,0.5v3.1h-1V167.3z"/>
			<path d="M279.5,163.8v1.7h1.5v0.8h-1.5v3.1c0,0.7,0.2,1.1,0.8,1.1c0.3,0,0.5,0,0.6-0.1l0,0.8c-0.2,0.1-0.5,0.1-0.9,0.1
				c-0.5,0-0.9-0.2-1.1-0.4c-0.3-0.3-0.4-0.8-0.4-1.5v-3.2h-0.9v-0.8h0.9v-1.4L279.5,163.8z"/>
		</g>
		<g>
			<g>
				<path d="M118.1,184.5L118.1,184.5l-1.4,0.7l-0.2-0.8l1.7-0.9h0.9v7.8h-1V184.5z"/>
				<path d="M122.6,190.5c0.2,0,0.5,0,0.9,0c0.6-0.1,1.2-0.3,1.6-0.8c0.5-0.5,0.9-1.2,1-2.1h0c-0.4,0.5-1.1,0.8-1.8,0.8
					c-1.4,0-2.3-1.1-2.3-2.4c0-1.5,1.1-2.8,2.7-2.8s2.6,1.3,2.6,3.3c0,1.7-0.6,2.9-1.3,3.7c-0.6,0.6-1.4,0.9-2.3,1
					c-0.4,0.1-0.7,0.1-1,0.1V190.5z M123,186c0,1,0.6,1.7,1.5,1.7c0.7,0,1.3-0.3,1.5-0.8c0.1-0.1,0.1-0.2,0.1-0.4
					c0-1.3-0.5-2.4-1.6-2.4C123.6,184.1,123,184.9,123,186z"/>
				<path d="M128.1,191.3v-0.6l0.8-0.8c2-1.9,2.9-2.9,2.9-4.1c0-0.8-0.4-1.5-1.5-1.5c-0.7,0-1.3,0.4-1.7,0.7l-0.3-0.7
					c0.5-0.5,1.3-0.8,2.2-0.8c1.7,0,2.4,1.2,2.4,2.3c0,1.4-1,2.6-2.7,4.2l-0.6,0.6v0h3.5v0.9H128.1z"/>
				<path d="M134.4,190.6c0-0.4,0.3-0.8,0.7-0.8s0.7,0.3,0.7,0.8c0,0.4-0.3,0.8-0.7,0.8C134.7,191.4,134.4,191.1,134.4,190.6z"/>
				<path d="M139.1,184.5L139.1,184.5l-1.4,0.7l-0.2-0.8l1.7-0.9h0.9v7.8h-1V184.5z"/>
				<path d="M147.4,184.2c-0.2,0-0.5,0-0.8,0c-1.7,0.3-2.5,1.5-2.7,2.8h0c0.4-0.5,1-0.9,1.9-0.9c1.4,0,2.4,1,2.4,2.5
					c0,1.4-1,2.7-2.6,2.7c-1.7,0-2.8-1.3-2.8-3.3c0-1.5,0.6-2.7,1.3-3.5c0.6-0.6,1.5-1,2.5-1.2c0.3,0,0.6-0.1,0.8-0.1V184.2z
					 M147.1,188.7c0-1.1-0.6-1.8-1.6-1.8c-0.6,0-1.2,0.4-1.5,1c-0.1,0.1-0.1,0.3-0.1,0.5c0,1.3,0.6,2.2,1.7,2.2
					C146.5,190.6,147.1,189.8,147.1,188.7z"/>
				<path d="M149,189.3c0-1,0.6-1.7,1.5-2.1l0,0c-0.9-0.4-1.2-1.1-1.2-1.8c0-1.2,1-2.1,2.4-2.1c1.5,0,2.3,0.9,2.3,1.9
					c0,0.7-0.3,1.4-1.3,1.8v0c1,0.4,1.6,1.1,1.6,2c0,1.4-1.2,2.3-2.7,2.3C150,191.4,149,190.4,149,189.3z M153.2,189.2
					c0-0.9-0.7-1.4-1.7-1.7c-0.9,0.3-1.4,0.9-1.4,1.6c0,0.8,0.6,1.5,1.6,1.5C152.6,190.6,153.2,190,153.2,189.2z M150.3,185.3
					c0,0.8,0.6,1.2,1.5,1.4c0.7-0.2,1.2-0.7,1.2-1.4c0-0.6-0.4-1.3-1.3-1.3C150.8,184.1,150.3,184.7,150.3,185.3z"/>
				<path d="M155.3,190.6c0-0.4,0.3-0.8,0.7-0.8s0.7,0.3,0.7,0.8c0,0.4-0.3,0.8-0.7,0.8C155.6,191.4,155.3,191.1,155.3,190.6z"/>
				<path d="M162.9,187.3c0,2.7-1,4.1-2.7,4.1c-1.5,0-2.6-1.4-2.6-4c0-2.6,1.1-4.1,2.7-4.1C162,183.3,162.9,184.8,162.9,187.3z
					 M158.7,187.4c0,2,0.6,3.2,1.6,3.2c1.1,0,1.6-1.3,1.6-3.3c0-1.9-0.5-3.2-1.6-3.2C159.3,184.2,158.7,185.3,158.7,187.4z"/>
				<path d="M164,190.6c0-0.4,0.3-0.8,0.7-0.8s0.7,0.3,0.7,0.8c0,0.4-0.3,0.8-0.7,0.8C164.3,191.4,164,191.1,164,190.6z"/>
				<path d="M166.6,190.1c0.3,0.2,1,0.5,1.7,0.5c1.4,0,1.8-0.9,1.8-1.5c0-1.1-1-1.6-2-1.6h-0.6v-0.8h0.6c0.8,0,1.7-0.4,1.7-1.3
					c0-0.6-0.4-1.2-1.4-1.2c-0.6,0-1.2,0.3-1.6,0.5l-0.3-0.8c0.4-0.3,1.2-0.6,2-0.6c1.5,0,2.2,0.9,2.2,1.9c0,0.8-0.5,1.5-1.4,1.8v0
					c1,0.2,1.7,0.9,1.7,2c0,1.2-1,2.3-2.8,2.3c-0.9,0-1.6-0.3-2-0.5L166.6,190.1z"/>
				<path d="M172.6,186.4c0-0.4,0.3-0.8,0.7-0.8s0.7,0.3,0.7,0.8c0,0.4-0.3,0.7-0.7,0.7C172.9,187.2,172.6,186.8,172.6,186.4z
					 M172.6,190.7c0-0.4,0.3-0.8,0.7-0.8s0.7,0.3,0.7,0.8c0,0.4-0.3,0.7-0.7,0.7C172.9,191.4,172.6,191.1,172.6,190.7z"/>
				<path d="M177.3,184.5L177.3,184.5l-1.4,0.7l-0.2-0.8l1.7-0.9h0.9v7.8h-1V184.5z"/>
				<path d="M181.4,190.1c0.3,0.2,1,0.5,1.7,0.5c1.4,0,1.8-0.9,1.8-1.5c0-1.1-1-1.6-2-1.6h-0.6v-0.8h0.6c0.8,0,1.7-0.4,1.7-1.3
					c0-0.6-0.4-1.2-1.4-1.2c-0.6,0-1.2,0.3-1.6,0.5l-0.3-0.8c0.4-0.3,1.2-0.6,2-0.6c1.5,0,2.2,0.9,2.2,1.9c0,0.8-0.5,1.5-1.4,1.8v0
					c1,0.2,1.7,0.9,1.7,2c0,1.2-1,2.3-2.8,2.3c-0.9,0-1.6-0.3-2-0.5L181.4,190.1z"/>
				<path d="M187.2,189.3c0-1,0.6-1.7,1.5-2.1l0,0c-0.9-0.4-1.2-1.1-1.2-1.8c0-1.2,1-2.1,2.4-2.1c1.5,0,2.3,0.9,2.3,1.9
					c0,0.7-0.3,1.4-1.3,1.8v0c1,0.4,1.6,1.1,1.6,2c0,1.4-1.2,2.3-2.7,2.3C188.2,191.4,187.2,190.4,187.2,189.3z M191.4,189.2
					c0-0.9-0.7-1.4-1.7-1.7c-0.9,0.3-1.4,0.9-1.4,1.6c0,0.8,0.6,1.5,1.6,1.5C190.8,190.6,191.4,190,191.4,189.2z M188.5,185.3
					c0,0.8,0.6,1.2,1.5,1.4c0.7-0.2,1.2-0.7,1.2-1.4c0-0.6-0.4-1.3-1.3-1.3C189,184.1,188.5,184.7,188.5,185.3z"/>
				<path d="M196.7,191.3v-2.1h-3.6v-0.7l3.5-5h1.1v4.8h1.1v0.8h-1.1v2.1H196.7z M196.7,188.3v-2.6c0-0.4,0-0.8,0-1.2h0
					c-0.2,0.5-0.4,0.8-0.6,1.2l-1.9,2.7v0H196.7z"/>
				<path d="M204.3,184.4h-3l-0.3,2c0.2,0,0.3,0,0.6,0c0.6,0,1.2,0.1,1.7,0.4c0.6,0.3,1.1,1,1.1,2c0,1.5-1.2,2.7-2.9,2.7
					c-0.9,0-1.6-0.2-1.9-0.5l0.3-0.8c0.3,0.2,1,0.4,1.7,0.4c1,0,1.8-0.6,1.8-1.7c0-1-0.7-1.7-2.2-1.7c-0.4,0-0.8,0-1.1,0.1l0.5-3.7
					h3.7V184.4z"/>
			</g>
			<g>
				<path d="M247.1,184.4h-3l-0.3,2c0.2,0,0.3,0,0.6,0c0.6,0,1.2,0.1,1.7,0.4c0.6,0.3,1.1,1,1.1,2c0,1.5-1.2,2.7-2.9,2.7
					c-0.9,0-1.6-0.2-1.9-0.5l0.3-0.8c0.3,0.2,1,0.4,1.7,0.4c1,0,1.8-0.6,1.8-1.7c0-1-0.7-1.7-2.2-1.7c-0.4,0-0.8,0-1.1,0.1l0.5-3.7
					h3.7V184.4z"/>
				<path d="M251.9,191.3v-2.1h-3.6v-0.7l3.5-5h1.1v4.8h1.1v0.8h-1.1v2.1H251.9z M251.9,188.3v-2.6c0-0.4,0-0.8,0-1.2h0
					c-0.2,0.5-0.4,0.8-0.6,1.2l-1.9,2.7v0H251.9z"/>
				<path d="M255.1,190.1c0.3,0.2,1,0.5,1.7,0.5c1.4,0,1.8-0.9,1.8-1.5c0-1.1-1-1.6-2-1.6h-0.6v-0.8h0.6c0.8,0,1.7-0.4,1.7-1.3
					c0-0.6-0.4-1.2-1.4-1.2c-0.6,0-1.2,0.3-1.6,0.5l-0.3-0.8c0.4-0.3,1.2-0.6,2-0.6c1.5,0,2.2,0.9,2.2,1.9c0,0.8-0.5,1.5-1.4,1.8v0
					c1,0.2,1.7,0.9,1.7,2c0,1.2-1,2.3-2.8,2.3c-0.9,0-1.6-0.3-2-0.5L255.1,190.1z"/>
				<path d="M261,191.3v-0.6l0.8-0.8c2-1.9,2.9-2.9,2.9-4.1c0-0.8-0.4-1.5-1.5-1.5c-0.7,0-1.3,0.4-1.7,0.7l-0.3-0.7
					c0.5-0.5,1.3-0.8,2.2-0.8c1.7,0,2.4,1.2,2.4,2.3c0,1.4-1,2.6-2.7,4.2l-0.6,0.6v0h3.5v0.9H261z"/>
			</g>
		</g>
		<g>
			<g>
				<path d="M154.1,205.8c0,1.4,0.9,2,2,2c0.8,0,1.2-0.1,1.6-0.3l0.2,0.8c-0.4,0.2-1,0.4-1.9,0.4c-1.8,0-2.9-1.2-2.9-2.9
					s1-3.1,2.7-3.1c1.9,0,2.4,1.7,2.4,2.7c0,0.2,0,0.4,0,0.5H154.1z M157.2,205.1c0-0.7-0.3-1.7-1.5-1.7c-1.1,0-1.5,1-1.6,1.7H157.2
					z"/>
				<path d="M160.8,201v1.7h1.5v0.8h-1.5v3.1c0,0.7,0.2,1.1,0.8,1.1c0.3,0,0.5,0,0.6-0.1l0,0.8c-0.2,0.1-0.5,0.1-0.9,0.1
					c-0.5,0-0.9-0.2-1.1-0.4c-0.3-0.3-0.4-0.8-0.4-1.5v-3.2h-0.9v-0.8h0.9v-1.4L160.8,201z"/>
				<path d="M167.5,208.3c-0.3,0.1-0.9,0.3-1.7,0.3c-1.8,0-2.9-1.2-2.9-3c0-1.8,1.2-3.1,3.1-3.1c0.6,0,1.2,0.2,1.5,0.3l-0.2,0.8
					c-0.3-0.1-0.6-0.3-1.2-0.3c-1.3,0-2.1,1-2.1,2.2c0,1.3,0.9,2.2,2,2.2c0.6,0,1-0.2,1.3-0.3L167.5,208.3z"/>
			</g>
			<g>
				<path d="M248.1,205.8c0,1.4,0.9,2,2,2c0.8,0,1.2-0.1,1.6-0.3l0.2,0.8c-0.4,0.2-1,0.4-1.9,0.4c-1.8,0-2.9-1.2-2.9-2.9
					s1-3.1,2.7-3.1c1.9,0,2.4,1.7,2.4,2.7c0,0.2,0,0.4,0,0.5H248.1z M251.2,205.1c0-0.7-0.3-1.7-1.5-1.7c-1.1,0-1.5,1-1.6,1.7H251.2
					z"/>
				<path d="M254.8,201v1.7h1.5v0.8h-1.5v3.1c0,0.7,0.2,1.1,0.8,1.1c0.3,0,0.5,0,0.6-0.1l0,0.8c-0.2,0.1-0.5,0.1-0.9,0.1
					c-0.5,0-0.9-0.2-1.1-0.4c-0.3-0.3-0.4-0.8-0.4-1.5v-3.2h-0.9v-0.8h0.9v-1.4L254.8,201z"/>
				<path d="M261.5,208.3c-0.3,0.1-0.9,0.3-1.7,0.3c-1.8,0-2.9-1.2-2.9-3c0-1.8,1.2-3.1,3.1-3.1c0.6,0,1.2,0.2,1.5,0.3l-0.2,0.8
					c-0.3-0.1-0.6-0.3-1.2-0.3c-1.3,0-2.1,1-2.1,2.2c0,1.3,0.9,2.2,2,2.2c0.6,0,1-0.2,1.3-0.3L261.5,208.3z"/>
			</g>
		</g>
	</g>
</g>
</svg>
