<?xml version="1.0" encoding="utf-8"?>
<!-- Generator: Adobe Illustrator 19.2.0, SVG Export Plug-In . SVG Version: 6.00 Build 0)  -->
<svg version="1.1" id="Layer_1" xmlns="http://www.w3.org/2000/svg" xmlns:xlink="http://www.w3.org/1999/xlink" x="0px" y="0px"
	 viewBox="0 0 470 202" style="enable-background:new 0 0 470 202;" xml:space="preserve">
<style type="text/css">
	.st0{fill:#8E939C;}
	.st1{fill:#484AB8;}
	.st2{fill:#6063C9;}
	.st3{fill:#FFFFFF;}
	.st4{fill:#303030;}
	.st5{fill:#B85548;}
</style>
<g>
	<g>
		<path class="st0" d="M88.2,201H87v-2h1.2l3-0.1l0,2.1L88.2,201z M83.2,200.7c-1.4,0-2.7,0-4,0l0-2c1.3,0,2.6,0,4,0L83.2,200.7z
			 M95.2,200.7l0-2l4,0l0,2L95.2,200.7z M103.2,200.7l0-2l4,0l0,2L103.2,200.7z M75.2,200.7c-1.4,0-2.7,0-4-0.1l0-2
			c1.3,0,2.6,0,4,0.1L75.2,200.7z M111.2,200.6l0-2l4,0l0,2L111.2,200.6z M119.2,200.6l0-2l4,0l0,2L119.2,200.6z M127.2,200.6l0-2
			l4,0l0,2L127.2,200.6z M135,200.6v-2l4.1,0l-0.1,2L135,200.6z M143.2,200.6l0-2l4,0l0,2L143.2,200.6z M151.2,200.5l0-2l4,0l0,2
			L151.2,200.5z M67.2,200.5c-1.4,0-2.7-0.1-4-0.1l0.1-2c1.3,0,2.6,0.1,4,0.1L67.2,200.5z M159.2,200.5l0-2l4,0l0,2L159.2,200.5z
			 M167.2,200.4l0-2c1.4,0,2.7,0,4-0.1l0,2C169.9,200.4,168.6,200.4,167.2,200.4z M175.2,200.3l0-2c1.4,0,2.7-0.1,4-0.1l0,2
			C177.9,200.2,176.6,200.2,175.2,200.3z M59.2,200.2c-1.4-0.1-2.7-0.1-4-0.2l0.1-2c1.3,0.1,2.6,0.2,4,0.2L59.2,200.2z M183.2,200.1
			l-0.1-2c1.4,0,2.7-0.1,4-0.1l0.1,2C185.9,200,184.6,200,183.2,200.1z M191.2,199.8l-0.1-2c1.4-0.1,2.7-0.1,4-0.2l0.1,2
			C193.9,199.7,192.6,199.7,191.2,199.8z M51.2,199.7c-1.4-0.1-2.7-0.2-4-0.4l0.2-2c1.3,0.1,2.6,0.3,4,0.4L51.2,199.7z M199.2,199.4
			l-0.1-2c1.4-0.1,2.7-0.2,4-0.2l0.1,2C201.9,199.3,200.6,199.3,199.2,199.4z M207.2,198.9l-0.2-2c1.4-0.1,2.7-0.2,4-0.3l0.2,2
			C209.9,198.7,208.6,198.8,207.2,198.9z M43.2,198.8c-1.4-0.2-2.7-0.4-4-0.7l0.4-2c1.2,0.2,2.5,0.4,3.9,0.6L43.2,198.8z
			 M215.2,198.2l-0.2-2c1.4-0.1,2.7-0.3,4-0.5l0.2,2C217.9,197.9,216.6,198,215.2,198.2z M35.2,197.3c-1.4-0.4-2.7-0.7-3.9-1.2
			l0.7-1.9c1.2,0.4,2.4,0.8,3.7,1.1L35.2,197.3z M223.2,197.2l-0.3-2c1.3-0.2,2.7-0.4,3.9-0.6l0.3,2
			C225.9,196.7,224.5,197,223.2,197.2z M231.1,195.8l-0.4-2c1.3-0.3,2.6-0.6,3.8-0.9l0.5,1.9C233.8,195.2,232.5,195.5,231.1,195.8z
			 M27.5,194.6c-1.3-0.6-2.5-1.3-3.6-2l1.1-1.7c1,0.7,2.1,1.3,3.3,1.9L27.5,194.6z M238.9,193.7l-0.6-1.9c1.3-0.4,2.5-0.8,3.7-1.3
			l0.7,1.9C241.5,192.8,240.2,193.3,238.9,193.7z M246.5,190.7l-0.9-1.8c1.2-0.6,2.3-1.2,3.4-1.9l1.1,1.7
			C248.9,189.4,247.7,190.1,246.5,190.7z M20.7,189.9c-1-1-1.9-2-2.7-3.2l1.6-1.1c0.7,1,1.5,2,2.4,2.9L20.7,189.9z M253.3,186.3
			l-1.3-1.5c1-0.8,1.9-1.7,2.7-2.7l1.5,1.3C255.4,184.4,254.4,185.4,253.3,186.3z M16,183.1c-0.6-1.2-1.1-2.5-1.5-3.8l1.9-0.6
			c0.4,1.3,0.9,2.5,1.4,3.6L16,183.1z M258.7,180.1l-1.7-1.1c0.7-1,1.3-2.2,1.9-3.4l1.8,0.9C260.1,177.8,259.5,179,258.7,180.1z
			 M13.5,175.4c-0.3-1.2-0.5-2.6-0.7-4l2-0.3c0.2,1.4,0.4,2.7,0.7,3.9L13.5,175.4z M262.3,172.7l-1.9-0.6c0.4-1.2,0.8-2.4,1.1-3.7
			l1.9,0.5C263.1,170.2,262.7,171.5,262.3,172.7z M12.3,167.4c-0.1-1.3-0.2-2.6-0.3-4l2-0.1c0.1,1.4,0.2,2.7,0.3,3.9L12.3,167.4z
			 M264.2,164.9l-2-0.3c0.2-1.2,0.4-2.5,0.6-3.9l2,0.2C264.6,162.3,264.4,163.6,264.2,164.9z M11.7,159.3c-0.1-1.3-0.1-2.6-0.1-4
			l2,0c0,1.4,0.1,2.7,0.1,4L11.7,159.3z M265.2,156.9l-2-0.2c0.1-1.3,0.2-2.6,0.3-4l2,0.1C265.4,154.2,265.3,155.6,265.2,156.9z
			 M11.5,151.2c0-1.3,0-2.2,0-4.2h2c0,2,0,2.8,0,4.1L11.5,151.2z M265.7,148.8l-2-0.1c0-1.3,0.1-2.6,0.1-4l2,0
			C265.8,146.2,265.7,147.5,265.7,148.8z M13.5,143.3l-2,0c0-1.3,0-2.6,0-4l2,0C13.5,140.7,13.5,142,13.5,143.3z M265.9,140.8l-2,0
			c0-1.3,0-2.6,0-4l2,0C265.9,138.2,265.9,139.5,265.9,140.8z M13.6,135.3l-2,0l0-4l2,0L13.6,135.3z M265.9,132.9l-2,0l0-3.9h2
			L265.9,132.9z M265.9,128h-2c0-2,0-2.9,0-4.1l2,0.1C265.9,125.1,265.9,126,265.9,128z M13.7,127.3l-2,0l0-4l2,0L13.7,127.3z
			 M263.9,119.7c0-1.5,0-2.8-0.1-4l2,0c0,1.2,0,2.5,0.1,4L263.9,119.7z M13.8,119.3l-2,0l0-4l2,0L13.8,119.3z M263.8,111.8
			c0-1.3-0.1-2.5-0.1-3.7l0-0.3l2-0.1l0,0.3c0,1.2,0.1,2.4,0.1,3.7L263.8,111.8z M13.8,111.2l-2-0.1c0-1.3,0-2.1,0-4.1h2
			C13.8,109,13.8,109.8,13.8,111.2z M263.5,103.8c0-1.2-0.1-2.5-0.1-4l2,0c0,1.5,0.1,2.8,0.1,4L263.5,103.8z M13.9,103.3l-2,0
			c0-1.4,0-2.7,0-4l2,0C13.9,100.6,13.9,102,13.9,103.3z M263.4,95.8c0-1.2,0-2.5,0-4l2,0c0,1.5,0,2.8,0,4L263.4,95.8z M13.9,95.3
			l-2,0c0-1.4,0-2.7,0-4l2,0C13.9,92.6,13.9,94,13.9,95.3z M263.2,87.8c0-1.2-0.2-2.5-0.2-3.9V84h2v-0.1c0,1.4,0.1,2.7,0.1,3.9
			L263.2,87.8z M14,87.3l-2,0c0-1.4,0-2.7,0.1-4l2,0C14,84.6,14,86,14,87.3z M262.8,80.2c-0.3-1.2-0.8-2.3-1.5-3.3l1.7-1.1
			c0.8,1.2,1.4,2.5,1.7,3.9L262.8,80.2z M14.1,79.3l-2,0c0-1.4,0.1-2.7,0.1-4l2,0.1C14.2,76.7,14.1,78,14.1,79.3z M258.9,74
			c-0.9-0.8-1.9-1.5-3.1-2.3l1-1.7c1.3,0.8,2.4,1.6,3.4,2.5L258.9,74z M14.3,71.4l-2-0.1c0-1.4,0.1-2.7,0.1-4l2,0.1
			C14.4,68.7,14.4,70,14.3,71.4z M252.4,70c-1.1-0.5-2.3-1-3.6-1.5l0.7-1.9c1.4,0.5,2.6,1.1,3.7,1.6L252.4,70z M245.1,67
			c-1.2-0.4-2.5-0.8-3.8-1.3l0.6-1.9c1.3,0.4,2.6,0.9,3.8,1.3L245.1,67z M237.5,64.5l-3.8-1.2l0.6-1.9l3.8,1.2L237.5,64.5z
			 M14.6,63.4l-2-0.1c0.1-1.4,0.1-2.7,0.2-4l2,0.1C14.8,60.7,14.7,62,14.6,63.4z M229.9,62.1c-1.3-0.4-2.5-0.8-3.8-1.3l0.7-1.9
			c1.3,0.4,2.5,0.9,3.8,1.3L229.9,62.1z M222.3,59.4c-1.2-0.5-2.5-0.9-3.8-1.4l0.7-1.9c1.2,0.5,2.5,1,3.7,1.4L222.3,59.4z
			 M214.8,56.4c-1.2-0.5-2.4-1.1-3.7-1.6L212,53c1.2,0.6,2.4,1.1,3.6,1.6L214.8,56.4z M15.1,55.4l-2-0.1c0.1-1.4,0.2-2.7,0.3-4
			l2,0.2C15.3,52.7,15.2,54.1,15.1,55.4z M207.5,53c-1.2-0.6-2.4-1.2-3.6-1.9l1-1.8c1.1,0.6,2.3,1.3,3.5,1.9L207.5,53z M200.5,49.1
			c-1.2-0.7-2.3-1.4-3.4-2.2l1.1-1.7c1.1,0.7,2.2,1.4,3.3,2.1L200.5,49.1z M15.8,47.5l-2-0.2c0.1-1.4,0.3-2.7,0.4-4l2,0.2
			C16.1,44.8,15.9,46.1,15.8,47.5z M193.7,44.7c-1.1-0.8-2.2-1.6-3.2-2.4l1.2-1.6c1,0.8,2.1,1.6,3.2,2.4L193.7,44.7z M187.4,39.7
			c-1-0.9-2-1.8-3-2.7l1.4-1.5c1,0.9,2,1.8,3,2.6L187.4,39.7z M16.8,39.6l-2-0.3c0.2-1.4,0.4-2.7,0.6-4l2,0.4
			C17.2,37,17,38.3,16.8,39.6z M181.5,34.2c-0.9-0.9-1.9-1.9-2.8-2.9l1.5-1.3c0.9,1,1.8,1.9,2.7,2.9L181.5,34.2z M18.2,31.8l-2-0.4
			c0.3-1.4,0.6-2.7,1-3.9l1.9,0.5C18.8,29.2,18.5,30.5,18.2,31.8z M176,28.3c-0.8-0.9-1.8-1.8-2.8-2.7l1.3-1.5
			c1.1,0.9,2.1,1.9,3,2.8L176,28.3z M20.2,24.2l-1.9-0.6c0.5-1.3,1-2.6,1.5-3.8l1.8,0.8C21.2,21.7,20.7,23,20.2,24.2z M170.1,23.3
			c-1-0.7-2.1-1.4-3.3-2.1l1-1.7c1.2,0.7,2.4,1.5,3.4,2.2L170.1,23.3z M163.4,19.2c-1.1-0.6-2.3-1.2-3.6-1.7l0.8-1.8
			c1.3,0.6,2.5,1.2,3.7,1.7L163.4,19.2z M23.4,17.2l-1.7-1c0.7-1.2,1.5-2.4,2.3-3.4l1.6,1.2C24.8,14.9,24.1,16,23.4,17.2z M156.1,16
			c-1.2-0.5-2.4-0.9-3.7-1.4l0.7-1.9c1.3,0.5,2.6,0.9,3.8,1.4L156.1,16z M148.7,13.4c-1.3-0.4-2.5-0.8-3.8-1.1l0.6-1.9
			c1.3,0.4,2.6,0.8,3.9,1.2L148.7,13.4z M28.2,11.2l-1.3-1.5c1-0.9,2.1-1.8,3.3-2.5l1.1,1.7C30.1,9.6,29.1,10.4,28.2,11.2z
			 M141,11.2c-1.3-0.3-2.6-0.7-3.9-1l0.5-1.9c1.3,0.3,2.6,0.6,3.9,1L141,11.2z M133.3,9.3c-1.3-0.3-2.6-0.5-3.9-0.8l0.4-2
			c1.3,0.3,2.6,0.5,3.9,0.8L133.3,9.3z M125.4,7.8c-1.3-0.2-2.6-0.5-3.9-0.7l0.3-2c1.3,0.2,2.6,0.4,4,0.7L125.4,7.8z M34.6,7.2
			l-0.8-1.8c1.2-0.5,2.5-1,3.9-1.3l0.5,1.9C36.9,6.3,35.7,6.7,34.6,7.2z M117.6,6.6c-1.3-0.2-2.7-0.4-4-0.5l0.3-2
			c1.3,0.2,2.6,0.3,4,0.5L117.6,6.6z M109.6,5.5c-1.4-0.2-2.7-0.3-4-0.4l0.2-2c1.3,0.1,2.6,0.3,4,0.4L109.6,5.5z M42,5.1l-0.4-2
			c1.2-0.2,2.6-0.4,4-0.6l0.2,2C44.5,4.6,43.2,4.8,42,5.1z M101.7,4.8c-1.4-0.1-2.7-0.2-4-0.3l0.1-2c1.3,0.1,2.6,0.2,4,0.3
			L101.7,4.8z M93.7,4.2c-1.4-0.1-2.8-0.1-4-0.2l0.1-2c1.2,0,2.6,0.1,4,0.2L93.7,4.2z M49.8,4.1l-0.1-2C51,2,52.4,2,53.7,1.9l0.1,2
			C52.4,4,51.1,4,49.8,4.1z M85.8,4c-1.4,0-2.7,0-4,0l0-2c1.3,0,2.6,0,4,0L85.8,4z M77.8,4l-4,0l0-2l4,0L77.8,4z M69.8,3.9
			c-1.4,0-2.7,0-4,0l0-2c1.3,0,2.6,0,4,0L69.8,3.9z M57.8,3.9l0-2c1.3,0,2.6,0,3.9,0H62v2h-0.4C60.3,4,59,3.9,57.8,3.9z"/>
	</g>
	<g>
		
			<rect x="205.7" y="22.7" transform="matrix(6.792913e-002 -0.9977 0.9977 6.792913e-002 115.7624 279.4542)" class="st1" width="3.5" height="110.2"/>
	</g>
	<g>
		<rect x="109.9" y="9.9" transform="matrix(0.408 -0.913 0.913 0.408 15.0393 134.0895)" class="st2" width="2" height="91.1"/>
	</g>
	<g>
		
			<rect x="36.5" y="89.1" transform="matrix(0.9623 -0.2719 0.2719 0.9623 -20.902 29.4011)" class="st2" width="118.2" height="2"/>
	</g>
	<g>
		<rect x="92" y="108" transform="matrix(0.4996 -0.8663 0.8663 0.4996 -28.1649 169.1943)" class="st2" width="80.7" height="2"/>
	</g>
	<g>
		<g>
			<path class="st3" d="M177.5,93.5h-49.9c-0.9,0-1.7-0.8-1.7-1.7V56.3c0-0.9,0.8-1.7,1.7-1.7h49.9c0.9,0,1.7,0.8,1.7,1.7v35.4
				C179.2,92.7,178.4,93.5,177.5,93.5z"/>
			<path d="M177.5,95h-49.9c-1.8,0-3.2-1.4-3.2-3.2V56.3c0-1.8,1.4-3.2,3.2-3.2h49.9c1.8,0,3.2,1.4,3.2,3.2v35.4
				C180.7,93.5,179.2,95,177.5,95z M127.5,56.1c-0.1,0-0.2,0.1-0.2,0.2v35.4c0,0.1,0.1,0.2,0.2,0.2h49.9c0.1,0,0.2-0.1,0.2-0.2V56.3
				c0-0.1-0.1-0.2-0.2-0.2H127.5z"/>
		</g>
		<g>
			<g>
				<g>
					<g>
						<rect x="141.7" y="62.5" width="10.9" height="4"/>
					</g>
					<g>
						<g>
							<polygon points="143.2,59.5 134.5,64.5 143.2,69.4 							"/>
						</g>
					</g>
				</g>
				<g>
					<g>
						<rect x="138.9" y="75.8" width="10.9" height="4"/>
					</g>
					<g>
						<g>
							<polygon points="140.3,72.8 131.7,77.8 140.3,82.8 							"/>
						</g>
					</g>
				</g>
			</g>
			<g>
				<g>
					<g>
						<rect x="152.4" y="81.6" width="10.9" height="4"/>
					</g>
					<g>
						<g>
							<polygon points="161.8,88.6 170.5,83.6 161.8,78.6 							"/>
						</g>
					</g>
				</g>
				<g>
					<g>
						<rect x="155.2" y="68.2" width="10.9" height="4"/>
					</g>
					<g>
						<g>
							<polygon points="164.7,75.2 173.3,70.2 164.7,65.3 							"/>
						</g>
					</g>
				</g>
			</g>
		</g>
	</g>
	<g>
		<g>
			<path class="st3" d="M81,49.4H57.7c-2.8,0-5.1-2.3-5.1-5.1V29.4c0-2.8,2.3-5.1,5.1-5.1H81c2.8,0,5.1,2.3,5.1,5.1v14.9
				C86.1,47.1,83.8,49.4,81,49.4z"/>
			<path d="M81,50.9H57.7c-3.6,0-6.6-2.9-6.6-6.6V29.4c0-3.6,2.9-6.6,6.6-6.6H81c3.6,0,6.6,2.9,6.6,6.6v14.9
				C87.6,47.9,84.6,50.9,81,50.9z M57.7,25.8c-2,0-3.6,1.6-3.6,3.6v14.9c0,2,1.6,3.6,3.6,3.6H81c2,0,3.6-1.6,3.6-3.6V29.4
				c0-2-1.6-3.6-3.6-3.6H57.7z"/>
		</g>
		<g>
			<g>
				<path class="st3" d="M52.1,62.8c-1.1,0-1.5-0.8-1-1.7l3.5-5.6c0.6-0.9,1.9-1.5,3-1.5h24.7c1.1,0,2.5,0.6,3,1.5l3.6,5.9
					c0.6,0.9,0.1,1.7-1,1.7L52.1,62.8z"/>
			</g>
			<g>
				<path d="M88,65C88,65,87.9,65,88,65l-35.9-0.4c-1.1,0-2-0.6-2.4-1.4c-0.5-0.8-0.4-1.9,0.2-2.8l3.5-5.9c0.9-1.4,2.7-2.5,4.3-2.5
					h24.7c1.6,0,3.5,1.1,4.3,2.5l3.6,6.1c0.6,0.9,0.6,2.2,0.1,3C89.9,64.3,89,65,88,65z M52,61.3l0.1,1.5L52,61.3
					C52,61.3,52,61.3,52,61.3z M52.7,61.3l34.6,0.2L84,56c-0.3-0.5-1.2-1-1.7-1H57.6c-0.5,0-1.4,0.5-1.7,1.1L52.7,61.3z"/>
			</g>
		</g>
		<g>
			<rect x="63.2" y="49.4" width="12.3" height="4.2"/>
		</g>
		<g>
			<path d="M80.2,45.3H58.4c-0.7,0-1.2-0.5-1.2-1.2V29.7c0-0.7,0.5-1.2,1.2-1.2h21.8c0.7,0,1.2,0.5,1.2,1.2v14.4
				C81.4,44.7,80.9,45.3,80.2,45.3z"/>
		</g>
	</g>
	<g>
		<g>
			<path class="st3" d="M50.4,118.7H27.1c-2.8,0-5.1-2.3-5.1-5.1V98.7c0-2.8,2.3-5.1,5.1-5.1h23.3c2.8,0,5.1,2.3,5.1,5.1v14.9
				C55.5,116.4,53.2,118.7,50.4,118.7z"/>
			<path d="M50.4,120.2H27.1c-3.6,0-6.6-2.9-6.6-6.6V98.7c0-3.6,2.9-6.6,6.6-6.6h23.3c3.6,0,6.6,2.9,6.6,6.6v14.9
				C57,117.3,54,120.2,50.4,120.2z M27.1,95.2c-2,0-3.6,1.6-3.6,3.6v14.9c0,2,1.6,3.6,3.6,3.6h23.3c2,0,3.6-1.6,3.6-3.6V98.7
				c0-2-1.6-3.6-3.6-3.6H27.1z"/>
		</g>
		<g>
			<g>
				<path class="st3" d="M21.5,132.2c-1.1,0-1.5-0.8-1-1.7l3.5-5.7c0.6-0.9,1.9-1.7,3-1.7h24.7c1.1,0,2.5,0.8,3,1.7l3.6,6
					c0.6,0.9,0.1,1.7-1,1.7L21.5,132.2z"/>
			</g>
			<g>
				<path d="M57.4,134C57.4,134,57.4,134,57.4,134l-35.9-0.3c-1.1,0-2-0.5-2.4-1.3c-0.5-0.8-0.4-1.8,0.2-2.7l3.5-6
					c0.8-1.3,2.6-2.7,4.3-2.7h24.7c1.7,0,3.5,1.4,4.3,2.7l3.6,6.1c0.6,0.9,0.6,2,0.1,2.8C59.3,133.5,58.4,134,57.4,134z M21.4,130.7
					l0.1,1.5L21.4,130.7C21.4,130.7,21.4,130.7,21.4,130.7z M22.1,130.7l34.6,0.2l-3.3-5.6c-0.4-0.6-1.3-1.2-1.7-1.2H27
					c-0.4,0-1.4,0.6-1.7,1.2L22.1,130.7z"/>
			</g>
		</g>
		<g>
			<rect x="32.6" y="118.7" width="12.3" height="4.2"/>
		</g>
		<g>
			<path d="M49.7,114.6H27.9c-0.7,0-1.2-0.5-1.2-1.2V99c0-0.7,0.5-1.2,1.2-1.2h21.8c0.7,0,1.2,0.5,1.2,1.2v14.4
				C50.9,114.1,50.3,114.6,49.7,114.6z"/>
		</g>
	</g>
	<g>
		<g>
			<path class="st3" d="M123.8,156.4h-23.3c-2.8,0-5.1-2.3-5.1-5.1v-14.9c0-2.8,2.3-5.1,5.1-5.1h23.3c2.8,0,5.1,2.3,5.1,5.1v14.9
				C128.9,154.2,126.6,156.4,123.8,156.4z"/>
			<path d="M123.8,157.9h-23.3c-3.6,0-6.6-2.9-6.6-6.6v-14.9c0-3.6,2.9-6.6,6.6-6.6h23.3c3.6,0,6.6,2.9,6.6,6.6v14.9
				C130.4,155,127.4,157.9,123.8,157.9z M100.5,132.9c-2,0-3.6,1.6-3.6,3.6v14.9c0,2,1.6,3.6,3.6,3.6h23.3c2,0,3.6-1.6,3.6-3.6
				v-14.9c0-2-1.6-3.6-3.6-3.6H100.5z"/>
		</g>
		<g>
			<g>
				<path class="st3" d="M94.9,169.9c-1.1,0-1.5-0.8-1-1.7l3.5-5.6c0.6-0.9,1.9-1.6,3-1.6h24.7c1.1,0,2.5,0.6,3,1.6l3.6,5.9
					c0.6,0.9,0.1,1.7-1,1.7L94.9,169.9z"/>
			</g>
			<g>
				<path d="M130.8,172C130.8,172,130.8,172,130.8,172l-35.9-0.4c-1.1,0-2-0.6-2.4-1.4c-0.5-0.8-0.4-1.8,0.2-2.8l3.5-5.9
					c0.9-1.4,2.7-2.6,4.3-2.6h24.7c1.6,0,3.4,1.1,4.3,2.5l3.6,6.1c0.6,0.9,0.6,2.1,0.1,2.9C132.7,171.3,131.8,172,130.8,172z
					 M94.8,168.4l0.1,1.5L94.8,168.4C94.9,168.4,94.8,168.4,94.8,168.4z M95.5,168.4l34.6,0.2l-3.3-5.5c-0.3-0.5-1.2-1.1-1.7-1.1
					h-24.7c-0.5,0-1.4,0.6-1.7,1.1L95.5,168.4z"/>
			</g>
		</g>
		<g>
			<rect x="106" y="156.4" width="12.3" height="4.2"/>
		</g>
		<g>
			<path d="M123.1,152.3h-21.8c-0.7,0-1.2-0.5-1.2-1.2v-14.4c0-0.7,0.5-1.2,1.2-1.2h21.8c0.7,0,1.2,0.5,1.2,1.2v14.4
				C124.3,151.8,123.7,152.3,123.1,152.3z"/>
		</g>
	</g>
	<g>
		<path d="M71.9,77.5l-0.9-2.4h-3.3l-0.9,2.4h-1.5l3.3-8.8h1.6l3.3,8.8H71.9z M70.7,73.9l-0.8-2.4c-0.1-0.2-0.1-0.4-0.2-0.8
			c-0.1-0.3-0.2-0.6-0.2-0.8c-0.1,0.5-0.3,1-0.5,1.6l-0.8,2.3H70.7z"/>
	</g>
	<g>
		<path d="M35.9,139h2.6c1.2,0,2.1,0.2,2.6,0.5c0.5,0.4,0.8,0.9,0.8,1.7c0,0.5-0.1,0.9-0.4,1.3c-0.3,0.3-0.6,0.6-1.1,0.6v0.1
			c0.6,0.1,1.1,0.3,1.4,0.7c0.3,0.3,0.4,0.8,0.4,1.4c0,0.8-0.3,1.4-0.8,1.8c-0.5,0.4-1.3,0.7-2.3,0.7h-3.2V139z M37.4,142.6h1.4
			c0.6,0,1-0.1,1.3-0.3c0.3-0.2,0.4-0.5,0.4-1c0-0.4-0.1-0.7-0.4-0.9c-0.3-0.2-0.8-0.3-1.4-0.3h-1.2V142.6z M37.4,143.7v2.8h1.5
			c0.6,0,1-0.1,1.4-0.3s0.5-0.6,0.5-1.1c0-0.5-0.2-0.8-0.5-1c-0.3-0.2-0.8-0.3-1.4-0.3H37.4z"/>
	</g>
	<g>
		<path d="M113.2,177.6c-0.8,0-1.5,0.3-1.9,0.9c-0.5,0.6-0.7,1.4-0.7,2.4c0,1.1,0.2,1.9,0.7,2.4c0.5,0.5,1.1,0.8,2,0.8
			c0.4,0,0.7,0,1.1-0.1c0.3-0.1,0.7-0.2,1.1-0.3v1.2c-0.7,0.3-1.5,0.4-2.3,0.4c-1.3,0-2.3-0.4-2.9-1.2c-0.7-0.8-1-1.9-1-3.3
			c0-0.9,0.2-1.7,0.5-2.4s0.8-1.2,1.4-1.6c0.6-0.4,1.4-0.5,2.2-0.5c0.9,0,1.7,0.2,2.5,0.6l-0.5,1.2c-0.3-0.1-0.6-0.3-0.9-0.4
			C113.9,177.7,113.6,177.6,113.2,177.6z"/>
	</g>
	<g>
		<path d="M175.5,127.7v-8.7h1.9v8.7H175.5z"/>
		<path d="M185.6,127.7h-1.8v-3.9c0-0.5-0.1-0.8-0.3-1.1c-0.2-0.2-0.4-0.4-0.8-0.4c-0.5,0-0.9,0.2-1.1,0.5c-0.2,0.3-0.3,0.9-0.3,1.7
			v3.1h-1.8V121h1.4l0.2,0.9h0.1c0.2-0.3,0.5-0.6,0.8-0.7c0.4-0.2,0.8-0.2,1.2-0.2c0.8,0,1.4,0.2,1.8,0.6c0.4,0.4,0.6,1,0.6,1.8
			V127.7z"/>
		<path d="M190.3,126.3c0.3,0,0.7-0.1,1.1-0.2v1.4c-0.5,0.2-1,0.3-1.7,0.3c-0.7,0-1.3-0.2-1.6-0.6c-0.3-0.4-0.5-0.9-0.5-1.7v-3.2
			h-0.9v-0.8l1-0.6l0.5-1.4h1.2v1.4h1.9v1.4h-1.9v3.2c0,0.3,0.1,0.5,0.2,0.6C189.9,126.3,190.1,126.3,190.3,126.3z"/>
		<path d="M195.8,127.8c-1.1,0-1.9-0.3-2.5-0.9c-0.6-0.6-0.9-1.4-0.9-2.5c0-1.1,0.3-2,0.8-2.6c0.6-0.6,1.3-0.9,2.3-0.9
			c0.9,0,1.7,0.3,2.2,0.8c0.5,0.5,0.8,1.3,0.8,2.2v0.9h-4.3c0,0.5,0.2,0.9,0.5,1.2c0.3,0.3,0.7,0.4,1.2,0.4c0.4,0,0.8,0,1.1-0.1
			c0.4-0.1,0.7-0.2,1.1-0.4v1.4c-0.3,0.2-0.7,0.3-1,0.4S196.3,127.8,195.8,127.8z M195.6,122.2c-0.4,0-0.7,0.1-0.9,0.4
			c-0.2,0.2-0.3,0.6-0.4,1h2.6c0-0.5-0.1-0.8-0.4-1C196.2,122.3,195.9,122.2,195.6,122.2z"/>
		<path d="M203.7,120.9c0.2,0,0.5,0,0.6,0.1l-0.1,1.7c-0.1,0-0.3-0.1-0.5-0.1c-0.6,0-1,0.1-1.4,0.4c-0.3,0.3-0.5,0.7-0.5,1.3v3.4
			H200V121h1.4l0.3,1.1h0.1c0.2-0.4,0.5-0.7,0.8-0.9S203.3,120.9,203.7,120.9z"/>
		<path d="M211.7,127.7h-1.8v-3.9c0-0.5-0.1-0.8-0.3-1.1c-0.2-0.2-0.4-0.4-0.8-0.4c-0.5,0-0.9,0.2-1.1,0.5s-0.3,0.9-0.3,1.7v3.1
			h-1.8V121h1.4l0.2,0.9h0.1c0.2-0.3,0.5-0.6,0.8-0.7c0.4-0.2,0.8-0.2,1.2-0.2c0.8,0,1.4,0.2,1.8,0.6c0.4,0.4,0.6,1,0.6,1.8V127.7z"
			/>
		<path d="M217.9,127.7l-0.4-0.9h0c-0.3,0.4-0.6,0.7-0.9,0.8c-0.3,0.1-0.7,0.2-1.3,0.2c-0.6,0-1.1-0.2-1.5-0.5
			c-0.4-0.4-0.6-0.9-0.6-1.6c0-0.7,0.2-1.2,0.7-1.6s1.2-0.5,2.2-0.6l1.2,0v-0.3c0-0.7-0.3-1-1-1c-0.5,0-1.2,0.2-1.9,0.5l-0.6-1.2
			c0.8-0.4,1.6-0.6,2.6-0.6c0.9,0,1.6,0.2,2.1,0.6c0.5,0.4,0.7,1,0.7,1.8v4.5H217.9z M217.3,124.6l-0.7,0c-0.5,0-0.9,0.1-1.2,0.3
			s-0.4,0.4-0.4,0.8c0,0.5,0.3,0.8,0.9,0.8c0.4,0,0.8-0.1,1-0.4c0.3-0.2,0.4-0.6,0.4-1V124.6z"/>
		<path d="M222.8,127.7H221v-9.3h1.8V127.7z"/>
		<path d="M180.3,142.4h-1.8v-3.9c0-0.5-0.1-0.8-0.3-1.1c-0.2-0.2-0.4-0.4-0.8-0.4c-0.5,0-0.9,0.2-1.1,0.5s-0.3,0.9-0.3,1.7v3.1
			h-1.8v-6.7h1.4l0.2,0.9h0.1c0.2-0.3,0.5-0.6,0.8-0.7c0.4-0.2,0.8-0.2,1.2-0.2c0.8,0,1.4,0.2,1.8,0.6c0.4,0.4,0.6,1,0.6,1.8V142.4z
			"/>
		<path d="M185.2,142.5c-1.1,0-1.9-0.3-2.5-0.9c-0.6-0.6-0.9-1.4-0.9-2.5c0-1.1,0.3-2,0.8-2.6s1.3-0.9,2.3-0.9
			c0.9,0,1.7,0.3,2.2,0.8c0.5,0.5,0.8,1.3,0.8,2.2v0.9h-4.3c0,0.5,0.2,0.9,0.5,1.2c0.3,0.3,0.7,0.4,1.2,0.4c0.4,0,0.8,0,1.1-0.1
			c0.4-0.1,0.7-0.2,1.1-0.4v1.4c-0.3,0.2-0.7,0.3-1,0.4S185.8,142.5,185.2,142.5z M185,136.9c-0.4,0-0.7,0.1-0.9,0.4s-0.3,0.6-0.4,1
			h2.6c0-0.5-0.1-0.8-0.4-1C185.7,137,185.4,136.9,185,136.9z"/>
		<path d="M192.3,141c0.3,0,0.7-0.1,1.1-0.2v1.4c-0.5,0.2-1,0.3-1.7,0.3c-0.7,0-1.3-0.2-1.6-0.6c-0.3-0.4-0.5-0.9-0.5-1.7v-3.2h-0.9
			v-0.8l1-0.6l0.5-1.4h1.2v1.4h1.9v1.4h-1.9v3.2c0,0.3,0.1,0.5,0.2,0.6C191.8,141,192,141,192.3,141z"/>
		<path d="M200.2,142.4l-0.5-2.3l-0.7-3h0l-1.2,5.3h-2l-1.9-6.7h1.8l0.8,3c0.1,0.5,0.2,1.3,0.4,2.2h0c0-0.3,0.1-0.8,0.2-1.4l0.1-0.5
			l0.8-3.2h2l0.8,3.2c0,0.1,0,0.2,0.1,0.4c0,0.2,0.1,0.4,0.1,0.5c0,0.2,0.1,0.4,0.1,0.6c0,0.2,0,0.3,0,0.4h0c0-0.3,0.1-0.7,0.2-1.2
			c0.1-0.5,0.2-0.8,0.2-1l0.8-3h1.8l-1.9,6.7H200.2z"/>
		<path d="M211.3,139c0,1.1-0.3,1.9-0.9,2.6s-1.4,0.9-2.4,0.9c-0.6,0-1.2-0.1-1.7-0.4c-0.5-0.3-0.9-0.7-1.1-1.2
			c-0.3-0.5-0.4-1.1-0.4-1.8c0-1.1,0.3-1.9,0.9-2.5c0.6-0.6,1.4-0.9,2.4-0.9c0.6,0,1.2,0.1,1.7,0.4c0.5,0.3,0.9,0.7,1.1,1.2
			C211.2,137.7,211.3,138.3,211.3,139z M206.7,139c0,0.7,0.1,1.2,0.3,1.5c0.2,0.3,0.6,0.5,1.1,0.5c0.5,0,0.8-0.2,1-0.5
			c0.2-0.3,0.3-0.8,0.3-1.5c0-0.7-0.1-1.2-0.3-1.5s-0.6-0.5-1.1-0.5c-0.5,0-0.8,0.2-1.1,0.5C206.8,137.9,206.7,138.3,206.7,139z"/>
		<path d="M216.5,135.6c0.2,0,0.5,0,0.6,0.1l-0.1,1.7c-0.1,0-0.3-0.1-0.5-0.1c-0.6,0-1,0.1-1.4,0.4c-0.3,0.3-0.5,0.7-0.5,1.3v3.4
			h-1.8v-6.7h1.4l0.3,1.1h0.1c0.2-0.4,0.5-0.7,0.8-0.9S216.1,135.6,216.5,135.6z"/>
		<path d="M220.1,138.7l0.8-1l1.9-2h2.1l-2.7,2.9l2.8,3.8h-2.1l-1.9-2.7l-0.8,0.6v2.1h-1.8v-9.3h1.8v4.1L220.1,138.7L220.1,138.7z"
			/>
		<path d="M161.4,157H160v-5.6c0-0.7,0-1.2,0-1.6c-0.1,0.1-0.2,0.2-0.3,0.3c-0.1,0.1-0.6,0.5-1.3,1.1l-0.7-0.9l2.6-2h1.2V157z"/>
		<path d="M170.2,152c0,1.7-0.3,3-1,3.9c-0.7,0.8-1.7,1.3-3.1,1.3c-0.5,0-0.9,0-1.1-0.1v-1.2c0.4,0.1,0.7,0.1,1.1,0.1
			c0.9,0,1.7-0.3,2.1-0.8s0.7-1.3,0.8-2.4h-0.1c-0.2,0.4-0.5,0.6-0.9,0.8s-0.7,0.2-1.2,0.2c-0.8,0-1.4-0.2-1.8-0.7
			c-0.4-0.5-0.7-1.1-0.7-2c0-0.9,0.3-1.6,0.8-2.2c0.5-0.5,1.2-0.8,2.1-0.8c0.6,0,1.2,0.2,1.6,0.5c0.5,0.3,0.8,0.7,1.1,1.3
			C170.1,150.5,170.2,151.2,170.2,152z M167.1,149.4c-0.5,0-0.9,0.2-1.1,0.5c-0.3,0.3-0.4,0.8-0.4,1.3c0,0.5,0.1,0.9,0.4,1.2
			c0.2,0.3,0.6,0.4,1.1,0.4c0.5,0,0.9-0.1,1.2-0.4c0.3-0.3,0.5-0.6,0.5-1c0-0.4-0.1-0.7-0.2-1c-0.1-0.3-0.3-0.6-0.6-0.7
			C167.7,149.5,167.5,149.4,167.1,149.4z"/>
		<path d="M177.2,157h-5.9V156l2.3-2.3c0.7-0.7,1.1-1.2,1.3-1.4c0.2-0.3,0.4-0.6,0.5-0.8s0.1-0.5,0.1-0.8c0-0.4-0.1-0.7-0.4-0.9
			c-0.2-0.2-0.6-0.3-1-0.3c-0.3,0-0.7,0.1-1,0.2c-0.3,0.1-0.7,0.3-1.1,0.7l-0.8-0.9c0.5-0.4,1-0.7,1.4-0.9c0.5-0.2,0.9-0.3,1.5-0.3
			c0.8,0,1.5,0.2,2,0.6c0.5,0.4,0.7,1,0.7,1.7c0,0.4-0.1,0.8-0.2,1.1c-0.1,0.4-0.4,0.7-0.7,1.1c-0.3,0.4-0.8,0.9-1.5,1.5l-1.5,1.5
			v0.1h4.1V157z"/>
		<path d="M178.5,156.3c0-0.3,0.1-0.5,0.2-0.7s0.4-0.2,0.7-0.2c0.3,0,0.5,0.1,0.7,0.2c0.2,0.2,0.2,0.4,0.2,0.7
			c0,0.3-0.1,0.5-0.2,0.7s-0.4,0.2-0.7,0.2c-0.3,0-0.5-0.1-0.7-0.2C178.6,156.8,178.5,156.6,178.5,156.3z"/>
		<path d="M185.7,157h-1.4v-5.6c0-0.7,0-1.2,0-1.6c-0.1,0.1-0.2,0.2-0.3,0.3c-0.1,0.1-0.6,0.5-1.3,1.1l-0.7-0.9l2.6-2h1.2V157z"/>
		<path d="M188.6,153.3c0-3.4,1.4-5.1,4.2-5.1c0.4,0,0.8,0,1.1,0.1v1.2c-0.3-0.1-0.7-0.1-1.1-0.1c-0.9,0-1.6,0.3-2.1,0.8
			s-0.7,1.3-0.8,2.4h0.1c0.2-0.3,0.5-0.6,0.8-0.8s0.7-0.3,1.2-0.3c0.8,0,1.4,0.2,1.9,0.7c0.4,0.5,0.7,1.1,0.7,2
			c0,0.9-0.3,1.6-0.8,2.2s-1.2,0.8-2.1,0.8c-0.6,0-1.2-0.2-1.6-0.5c-0.5-0.3-0.8-0.7-1.1-1.3C188.7,154.8,188.6,154.1,188.6,153.3z
			 M191.7,156c0.5,0,0.9-0.2,1.1-0.5s0.4-0.8,0.4-1.3c0-0.5-0.1-0.9-0.4-1.2c-0.2-0.3-0.6-0.4-1.1-0.4c-0.3,0-0.6,0.1-0.8,0.2
			s-0.5,0.3-0.6,0.5c-0.1,0.2-0.2,0.5-0.2,0.7c0,0.6,0.2,1,0.5,1.4S191.2,156,191.7,156z"/>
		<path d="M198.5,148.2c0.8,0,1.5,0.2,2,0.6c0.5,0.4,0.7,0.9,0.7,1.5c0,0.9-0.5,1.6-1.6,2.1c0.7,0.3,1.2,0.7,1.5,1.1
			c0.3,0.4,0.4,0.8,0.4,1.3c0,0.7-0.3,1.3-0.8,1.7c-0.5,0.4-1.2,0.7-2.2,0.7c-0.9,0-1.7-0.2-2.2-0.6s-0.8-1-0.8-1.7
			c0-0.5,0.1-0.9,0.4-1.3c0.3-0.4,0.7-0.7,1.3-1c-0.5-0.3-0.9-0.7-1.1-1c-0.2-0.4-0.3-0.8-0.3-1.2c0-0.6,0.2-1.1,0.7-1.5
			C197.1,148.4,197.7,148.2,198.5,148.2z M196.9,154.8c0,0.4,0.1,0.7,0.4,1c0.3,0.2,0.7,0.3,1.2,0.3c0.5,0,0.9-0.1,1.2-0.4
			c0.3-0.2,0.4-0.6,0.4-1c0-0.3-0.1-0.6-0.4-0.9s-0.7-0.5-1.2-0.7l-0.2-0.1c-0.5,0.2-0.9,0.5-1.1,0.8
			C197,154.1,196.9,154.4,196.9,154.8z M198.5,149.3c-0.4,0-0.7,0.1-1,0.3c-0.2,0.2-0.4,0.5-0.4,0.8c0,0.2,0,0.4,0.1,0.6
			c0.1,0.2,0.2,0.3,0.4,0.4c0.2,0.1,0.4,0.3,0.8,0.5c0.5-0.2,0.8-0.4,1-0.7s0.3-0.5,0.3-0.8c0-0.3-0.1-0.6-0.4-0.8
			C199.2,149.4,198.9,149.3,198.5,149.3z"/>
		<path d="M202.8,156.3c0-0.3,0.1-0.5,0.2-0.7s0.4-0.2,0.7-0.2c0.3,0,0.5,0.1,0.7,0.2c0.2,0.2,0.2,0.4,0.2,0.7
			c0,0.3-0.1,0.5-0.2,0.7s-0.4,0.2-0.7,0.2c-0.3,0-0.5-0.1-0.7-0.2C202.9,156.8,202.8,156.6,202.8,156.3z"/>
		<path d="M211.8,152.7c0,1.5-0.2,2.6-0.7,3.4c-0.5,0.7-1.2,1.1-2.2,1.1c-1,0-1.7-0.4-2.2-1.1s-0.8-1.9-0.8-3.3
			c0-1.5,0.2-2.7,0.7-3.4c0.5-0.7,1.2-1.1,2.2-1.1c1,0,1.7,0.4,2.2,1.1S211.8,151.2,211.8,152.7z M207.3,152.7c0,1.2,0.1,2,0.4,2.6
			s0.6,0.8,1.2,0.8c0.5,0,0.9-0.3,1.2-0.8c0.2-0.5,0.4-1.4,0.4-2.5c0-1.2-0.1-2-0.4-2.5c-0.2-0.5-0.6-0.8-1.2-0.8
			c-0.5,0-0.9,0.3-1.2,0.8S207.3,151.5,207.3,152.7z"/>
		<path d="M213.2,156.3c0-0.3,0.1-0.5,0.2-0.7s0.4-0.2,0.7-0.2c0.3,0,0.5,0.1,0.7,0.2c0.2,0.2,0.2,0.4,0.2,0.7
			c0,0.3-0.1,0.5-0.2,0.7s-0.4,0.2-0.7,0.2c-0.3,0-0.5-0.1-0.7-0.2C213.2,156.8,213.2,156.6,213.2,156.3z"/>
		<path d="M222.2,152.7c0,1.5-0.2,2.6-0.7,3.4c-0.5,0.7-1.2,1.1-2.2,1.1c-1,0-1.7-0.4-2.2-1.1s-0.8-1.9-0.8-3.3
			c0-1.5,0.2-2.7,0.7-3.4c0.5-0.7,1.2-1.1,2.2-1.1c1,0,1.7,0.4,2.2,1.1S222.2,151.2,222.2,152.7z M217.7,152.7c0,1.2,0.1,2,0.4,2.6
			s0.6,0.8,1.2,0.8c0.5,0,0.9-0.3,1.2-0.8c0.2-0.5,0.4-1.4,0.4-2.5c0-1.2-0.1-2-0.4-2.5c-0.2-0.5-0.6-0.8-1.2-0.8
			c-0.5,0-0.9,0.3-1.2,0.8S217.7,151.5,217.7,152.7z"/>
		<path d="M227.4,148.3l-3.3,8.7h-1.3l3.3-8.7H227.4z"/>
		<path d="M233.9,157H228V156l2.3-2.3c0.7-0.7,1.1-1.2,1.3-1.4c0.2-0.3,0.4-0.6,0.5-0.8s0.1-0.5,0.1-0.8c0-0.4-0.1-0.7-0.4-0.9
			c-0.2-0.2-0.6-0.3-1-0.3c-0.3,0-0.7,0.1-1,0.2c-0.3,0.1-0.7,0.3-1.1,0.7l-0.8-0.9c0.5-0.4,1-0.7,1.4-0.9c0.5-0.2,0.9-0.3,1.5-0.3
			c0.8,0,1.5,0.2,2,0.6c0.5,0.4,0.7,1,0.7,1.7c0,0.4-0.1,0.8-0.2,1.1c-0.1,0.4-0.4,0.7-0.7,1.1c-0.3,0.4-0.8,0.9-1.5,1.5l-1.5,1.5
			v0.1h4.1V157z"/>
		<path d="M241.2,155.1h-1.2v1.9h-1.4v-1.9h-4v-1.1l4-5.8h1.4v5.7h1.2V155.1z M238.7,154v-2.2c0-0.8,0-1.4,0.1-1.9h0
			c-0.1,0.3-0.3,0.6-0.5,1L236,154H238.7z"/>
	</g>
	<g>
		<g>
			
				<rect x="298.6" y="97.2" transform="matrix(0.9084 -0.4181 0.4181 0.9084 -18.2457 135.2763)" class="st4" width="2" height="24.2"/>
		</g>
		<g>
			<g>
				<path class="st4" d="M292,92.8c2.1,2.1,5.3,4.6,7.9,5.8l-5,0.4l-3.6,3.6C292.1,99.8,292.2,95.8,292,92.8z"/>
			</g>
		</g>
	</g>
	<g>
		<g>
			<g>
				<path class="st3" d="M362.6,154.6h-75.8c-3.5,0-6.3-2.8-6.3-6.3V120c0-3.5,2.8-6.3,6.3-6.3h75.8c3.5,0,6.3,2.8,6.3,6.3v28.3
					C369,151.8,366.1,154.6,362.6,154.6z"/>
			</g>
			<g>
				<path class="st4" d="M362.6,155.6h-75.8c-4,0-7.3-3.3-7.3-7.3V120c0-4,3.3-7.3,7.3-7.3h75.8c4,0,7.3,3.3,7.3,7.3v28.3
					C370,152.3,366.7,155.6,362.6,155.6z M286.8,114.6c-2.9,0-5.3,2.4-5.3,5.3v28.3c0,2.9,2.4,5.3,5.3,5.3h75.8
					c2.9,0,5.3-2.4,5.3-5.3V120c0-2.9-2.4-5.3-5.3-5.3H286.8z"/>
			</g>
		</g>
		<g>
			<path d="M305.3,125.2c0,0.9-0.3,1.7-0.9,2.2c-0.6,0.5-1.4,0.7-2.5,0.7h-0.8v3.1h-1.9v-8.7h2.8c1.1,0,1.9,0.2,2.4,0.7
				S305.3,124.3,305.3,125.2z M301.2,126.6h0.6c0.6,0,1-0.1,1.3-0.3s0.4-0.6,0.4-1c0-0.4-0.1-0.8-0.4-1c-0.2-0.2-0.6-0.3-1.1-0.3
				h-0.8V126.6z"/>
			<path d="M311.6,131.2l-0.2-0.9h-0.1c-0.2,0.3-0.5,0.6-0.8,0.7c-0.4,0.2-0.8,0.3-1.2,0.3c-0.8,0-1.4-0.2-1.8-0.6s-0.6-1-0.6-1.8
				v-4.4h1.8v3.9c0,0.5,0.1,0.8,0.3,1.1c0.2,0.2,0.4,0.4,0.8,0.4c0.5,0,0.9-0.2,1.1-0.5c0.2-0.3,0.3-0.9,0.3-1.7v-3.1h1.8v6.7H311.6
				z"/>
			<path d="M318.6,124.4c0.8,0,1.4,0.3,1.9,0.9s0.7,1.5,0.7,2.5c0,1.1-0.2,2-0.7,2.6s-1.1,0.9-1.9,0.9c-0.8,0-1.4-0.3-1.8-0.9h-0.1
				l-0.3,0.7h-1.4v-9.3h1.8v2.2c0,0.3,0,0.7-0.1,1.3h0.1C317.1,124.8,317.8,124.4,318.6,124.4z M318,125.9c-0.5,0-0.8,0.1-1,0.4
				c-0.2,0.3-0.3,0.7-0.3,1.4v0.2c0,0.7,0.1,1.2,0.3,1.5c0.2,0.3,0.6,0.5,1,0.5c0.4,0,0.7-0.2,0.9-0.5c0.2-0.3,0.3-0.8,0.3-1.5
				c0-0.7-0.1-1.1-0.3-1.5C318.7,126.1,318.4,125.9,318,125.9z"/>
			<path d="M324.4,131.2h-1.8v-9.3h1.8V131.2z"/>
			<path d="M326.3,122.8c0-0.6,0.3-0.9,1-0.9s1,0.3,1,0.9c0,0.3-0.1,0.5-0.2,0.7c-0.2,0.2-0.4,0.2-0.7,0.2
				C326.6,123.7,326.3,123.4,326.3,122.8z M328.2,131.2h-1.8v-6.7h1.8V131.2z"/>
			<path d="M332.8,131.4c-2.1,0-3.1-1.1-3.1-3.4c0-1.1,0.3-2,0.8-2.6c0.6-0.6,1.4-0.9,2.4-0.9c0.8,0,1.5,0.2,2.1,0.5l-0.5,1.4
				c-0.3-0.1-0.6-0.2-0.8-0.3s-0.5-0.1-0.7-0.1c-0.9,0-1.4,0.7-1.4,2c0,1.3,0.5,2,1.4,2c0.4,0,0.7,0,1-0.1c0.3-0.1,0.6-0.2,0.9-0.4
				v1.6c-0.3,0.2-0.6,0.3-0.9,0.4C333.6,131.3,333.3,131.4,332.8,131.4z"/>
			<path d="M339.7,131.2v-8.7h1.9v8.7H339.7z"/>
			<path d="M349.8,125.2c0,0.9-0.3,1.7-0.9,2.2c-0.6,0.5-1.4,0.7-2.5,0.7h-0.8v3.1h-1.9v-8.7h2.8c1.1,0,1.9,0.2,2.4,0.7
				S349.8,124.3,349.8,125.2z M345.6,126.6h0.6c0.6,0,1-0.1,1.3-0.3s0.4-0.6,0.4-1c0-0.4-0.1-0.8-0.4-1c-0.2-0.2-0.6-0.3-1.1-0.3
				h-0.8V126.6z"/>
			<path d="M292.5,145.9h-1.4v-5.6c0-0.7,0-1.2,0-1.6c-0.1,0.1-0.2,0.2-0.3,0.3c-0.1,0.1-0.6,0.5-1.3,1.1l-0.7-0.9l2.6-2h1.2V145.9z
				"/>
			<path d="M301.6,144h-1.2v1.9H299V144h-4v-1.1l4-5.8h1.4v5.7h1.2V144z M299,142.8v-2.2c0-0.8,0-1.4,0.1-1.9h0
				c-0.1,0.3-0.3,0.6-0.5,1l-2.2,3.2H299z"/>
			<path d="M307.9,139.2c0,0.6-0.2,1-0.5,1.4c-0.3,0.4-0.8,0.6-1.4,0.7v0c0.7,0.1,1.2,0.3,1.6,0.7s0.5,0.8,0.5,1.4
				c0,0.8-0.3,1.5-0.9,1.9s-1.4,0.7-2.5,0.7c-1,0-1.8-0.2-2.4-0.5v-1.2c0.4,0.2,0.8,0.3,1.2,0.4s0.8,0.1,1.2,0.1
				c0.7,0,1.2-0.1,1.5-0.4c0.3-0.3,0.5-0.6,0.5-1.2c0-0.5-0.2-0.8-0.6-1c-0.4-0.2-1-0.3-1.7-0.3h-0.8v-1.1h0.8
				c1.4,0,2.1-0.5,2.1-1.4c0-0.4-0.1-0.7-0.4-0.9s-0.6-0.3-1.1-0.3c-0.3,0-0.6,0-1,0.1s-0.7,0.3-1.1,0.5l-0.7-1
				c0.8-0.6,1.7-0.9,2.8-0.9c0.9,0,1.6,0.2,2.1,0.6C307.6,138,307.9,138.5,307.9,139.2z"/>
			<path d="M309.5,145.2c0-0.3,0.1-0.5,0.2-0.7s0.4-0.2,0.7-0.2c0.3,0,0.5,0.1,0.7,0.2c0.2,0.2,0.2,0.4,0.2,0.7
				c0,0.3-0.1,0.5-0.2,0.7s-0.4,0.2-0.7,0.2s-0.5-0.1-0.7-0.2C309.6,145.7,309.5,145.5,309.5,145.2z"/>
			<path d="M316.8,145.9h-1.4v-5.6c0-0.7,0-1.2,0-1.6c-0.1,0.1-0.2,0.2-0.3,0.3c-0.1,0.1-0.6,0.5-1.3,1.1l-0.7-0.9l2.6-2h1.2V145.9z
				"/>
			<path d="M322.6,140.5c0.9,0,1.6,0.2,2.1,0.7c0.5,0.5,0.8,1.1,0.8,1.9c0,0.9-0.3,1.7-0.9,2.2c-0.6,0.5-1.4,0.8-2.5,0.8
				c-1,0-1.7-0.2-2.3-0.5v-1.3c0.3,0.2,0.7,0.3,1.1,0.4c0.4,0.1,0.8,0.1,1.2,0.1c0.6,0,1.1-0.1,1.4-0.4c0.3-0.3,0.5-0.7,0.5-1.2
				c0-1-0.7-1.6-2-1.6c-0.2,0-0.4,0-0.7,0.1c-0.3,0-0.5,0.1-0.7,0.1l-0.6-0.4l0.3-4.3h4.5v1.2h-3.3l-0.2,2.2c0.1,0,0.3-0.1,0.5-0.1
				C322.1,140.5,322.3,140.5,322.6,140.5z"/>
			<path d="M326.9,145.2c0-0.3,0.1-0.5,0.2-0.7s0.4-0.2,0.7-0.2c0.3,0,0.5,0.1,0.7,0.2c0.2,0.2,0.2,0.4,0.2,0.7
				c0,0.3-0.1,0.5-0.2,0.7s-0.4,0.2-0.7,0.2s-0.5-0.1-0.7-0.2C327,145.7,326.9,145.5,326.9,145.2z"/>
			<path d="M335.9,145.9H330v-1.1l2.3-2.3c0.7-0.7,1.1-1.2,1.3-1.4c0.2-0.3,0.4-0.6,0.5-0.8s0.1-0.5,0.1-0.8c0-0.4-0.1-0.7-0.4-0.9
				c-0.2-0.2-0.6-0.3-1-0.3c-0.3,0-0.7,0.1-1,0.2c-0.3,0.1-0.7,0.3-1.1,0.7l-0.8-0.9c0.5-0.4,1-0.7,1.4-0.9c0.5-0.2,0.9-0.3,1.5-0.3
				c0.8,0,1.5,0.2,2,0.6c0.5,0.4,0.7,1,0.7,1.7c0,0.4-0.1,0.8-0.2,1.1c-0.1,0.4-0.4,0.7-0.7,1.1c-0.3,0.4-0.8,0.9-1.5,1.5l-1.5,1.5
				v0.1h4.1V145.9z"/>
			<path d="M337.2,145.2c0-0.3,0.1-0.5,0.2-0.7s0.4-0.2,0.7-0.2c0.3,0,0.5,0.1,0.7,0.2c0.2,0.2,0.2,0.4,0.2,0.7
				c0,0.3-0.1,0.5-0.2,0.7s-0.4,0.2-0.7,0.2s-0.5-0.1-0.7-0.2C337.3,145.7,337.2,145.5,337.2,145.2z"/>
			<path d="M344.5,145.9H343v-5.6c0-0.7,0-1.2,0-1.6c-0.1,0.1-0.2,0.2-0.3,0.3c-0.1,0.1-0.6,0.5-1.3,1.1l-0.7-0.9l2.6-2h1.2V145.9z"
				/>
			<path d="M348.3,145.9l3.5-7.5h-4.5v-1.2h6v1l-3.4,7.7H348.3z"/>
			<path d="M354.3,142.2c0-3.4,1.4-5.1,4.2-5.1c0.4,0,0.8,0,1.1,0.1v1.2c-0.3-0.1-0.7-0.1-1.1-0.1c-0.9,0-1.6,0.3-2.1,0.8
				s-0.7,1.3-0.8,2.4h0.1c0.2-0.3,0.5-0.6,0.8-0.8c0.3-0.2,0.7-0.3,1.2-0.3c0.8,0,1.4,0.2,1.9,0.7c0.4,0.5,0.7,1.1,0.7,2
				c0,0.9-0.3,1.6-0.8,2.2s-1.2,0.8-2.1,0.8c-0.6,0-1.2-0.2-1.6-0.5s-0.8-0.7-1.1-1.3C354.4,143.7,354.3,143,354.3,142.2z
				 M357.4,144.9c0.5,0,0.9-0.2,1.1-0.5s0.4-0.8,0.4-1.3c0-0.5-0.1-0.9-0.4-1.2s-0.6-0.4-1.1-0.4c-0.3,0-0.6,0.1-0.8,0.2
				s-0.5,0.3-0.6,0.5s-0.2,0.5-0.2,0.7c0,0.6,0.2,1,0.5,1.4S356.9,144.9,357.4,144.9z"/>
		</g>
	</g>
	<g>
		<rect x="262" y="79.7" class="st5" width="139.8" height="3.5"/>
	</g>
	<g>
		<path d="M221.6,29.6c0,1.4-0.4,2.5-1.3,3.2c-0.9,0.7-2.1,1.1-3.8,1.1h-1.2v4.7h-2.8V25.5h4.2c1.6,0,2.8,0.3,3.6,1
			S221.6,28.2,221.6,29.6z M215.3,31.6h0.9c0.9,0,1.5-0.2,1.9-0.5c0.4-0.3,0.6-0.8,0.6-1.5c0-0.7-0.2-1.1-0.5-1.4s-0.9-0.5-1.7-0.5
			h-1.3V31.6z"/>
		<path d="M232,38.6l-0.9-3.1h-4.8l-1,3.1h-3l4.6-13.2h3.4l4.6,13.2H232z M230.4,33.1c-0.9-2.8-1.4-4.4-1.5-4.8
			c-0.1-0.4-0.2-0.7-0.2-0.9c-0.2,0.8-0.8,2.7-1.7,5.7H230.4z"/>
		<path d="M241.7,38.6H239V27.8h-3.6v-2.3h9.9v2.3h-3.6V38.6z"/>
		<path d="M254.9,33.6v5h-2.8V25.5h3.8c1.8,0,3.1,0.3,4,1c0.9,0.6,1.3,1.6,1.3,3c0,0.8-0.2,1.5-0.6,2.1c-0.4,0.6-1,1.1-1.8,1.4
			c2,2.9,3.3,4.8,3.9,5.7h-3.1l-3.1-5H254.9z M254.9,31.3h0.9c0.9,0,1.5-0.1,1.9-0.4c0.4-0.3,0.6-0.8,0.6-1.4c0-0.6-0.2-1.1-0.6-1.3
			c-0.4-0.3-1.1-0.4-2-0.4h-0.8V31.3z"/>
		<path d="M273.1,33.6c0,1.6-0.4,2.9-1.3,3.8s-2.1,1.4-3.6,1.4c-1,0-1.8-0.2-2.5-0.6c-0.7-0.4-1.3-1-1.7-1.8s-0.6-1.7-0.6-2.8
			c0-1.6,0.4-2.9,1.3-3.8c0.9-0.9,2.1-1.4,3.6-1.4c1,0,1.8,0.2,2.5,0.6c0.7,0.4,1.3,1,1.7,1.8C272.9,31.6,273.1,32.5,273.1,33.6z
			 M266.2,33.6c0,1,0.2,1.7,0.5,2.2s0.9,0.8,1.6,0.8c0.7,0,1.3-0.3,1.6-0.8s0.5-1.3,0.5-2.3c0-1-0.2-1.7-0.5-2.2
			c-0.3-0.5-0.9-0.7-1.6-0.7c-0.7,0-1.3,0.2-1.6,0.7C266.3,31.8,266.2,32.6,266.2,33.6z"/>
		<path d="M282.4,38.6l-0.4-1.3h-0.1c-0.3,0.5-0.7,0.8-1.2,1.1s-1.2,0.4-1.8,0.4c-1.2,0-2.1-0.3-2.7-0.9c-0.6-0.6-0.9-1.5-0.9-2.7
			v-6.5h2.7v5.9c0,0.7,0.1,1.3,0.4,1.6c0.3,0.4,0.7,0.5,1.2,0.5c0.8,0,1.3-0.3,1.7-0.8s0.5-1.4,0.5-2.5v-4.7h2.7v10H282.4z"/>
		<path d="M291.6,36.6c0.5,0,1.1-0.1,1.7-0.3v2c-0.7,0.3-1.5,0.5-2.5,0.5c-1.1,0-1.9-0.3-2.4-0.8c-0.5-0.6-0.7-1.4-0.7-2.5v-4.8
			h-1.3v-1.2l1.5-0.9l0.8-2.1h1.7v2.1h2.8v2.1h-2.8v4.8c0,0.4,0.1,0.7,0.3,0.9C291,36.5,291.3,36.6,291.6,36.6z"/>
		<path d="M299.9,38.8c-1.6,0-2.9-0.4-3.8-1.3s-1.4-2.2-1.4-3.8c0-1.7,0.4-3,1.3-3.9c0.8-0.9,2-1.4,3.5-1.4c1.4,0,2.5,0.4,3.3,1.2
			c0.8,0.8,1.2,1.9,1.2,3.3v1.3h-6.5c0,0.8,0.3,1.4,0.7,1.8c0.4,0.4,1,0.7,1.8,0.7c0.6,0,1.2-0.1,1.7-0.2c0.5-0.1,1.1-0.3,1.7-0.6
			v2.1c-0.5,0.2-1,0.4-1.5,0.5C301.4,38.7,300.7,38.8,299.9,38.8z M299.5,30.3c-0.6,0-1,0.2-1.4,0.6c-0.3,0.4-0.5,0.9-0.6,1.6h3.8
			c0-0.7-0.2-1.2-0.5-1.6C300.6,30.5,300.1,30.3,299.5,30.3z"/>
		<path d="M311.8,28.4c0.4,0,0.7,0,0.9,0.1l-0.2,2.6c-0.2-0.1-0.5-0.1-0.8-0.1c-0.9,0-1.6,0.2-2,0.7c-0.5,0.4-0.7,1.1-0.7,1.9v5.1
			h-2.7v-10h2.1l0.4,1.7h0.1c0.3-0.6,0.7-1,1.3-1.4C310.6,28.5,311.2,28.4,311.8,28.4z"/>
	</g>
	<g>
		<g>
			<path class="st3" d="M455.6,81.6c0.5-1.2,0.8-2.5,0.8-3.8c0-6.2-6.2-11.3-13.8-11.3c-1,0-2,0.1-2.9,0.3
				c-2.2-4.5-7.5-7.6-13.7-7.6c-4.3,0-8.2,1.5-10.9,4c-1.9-1.5-4.4-2.5-7.3-2.5c-1.1,0-2.2,0.2-3.2,0.4c-1.7-4.4-6-7.6-11-7.6
				c-5.4,0-9.9,3.6-11.4,8.5c-2.4-1.8-5.9-2.9-9.8-2.9c-3.8,0-7.2,1.1-9.6,2.7c-1.5-0.8-3.3-1.2-5.1-1.2c-6.4,0-11.6,5.2-11.6,11.6
				c0,4.7,2.8,8.7,6.7,10.5c-0.3,0.9-0.5,1.9-0.5,2.9c0,5.8,5.7,10.5,12.8,10.5c0.6,0,1.2,0,1.7-0.1c0,0,0,0.1,0,0.1
				c0,7.3,7.7,13.3,17.1,13.3c6.5,0,12.1-2.8,15-6.9c2.5,2.4,6,3.9,10,3.9c2.4,0,4.7-0.6,6.7-1.5c2.6,1.6,5.8,2.6,9.3,2.6
				c7.3,0,13.4-4.2,15.3-10c1.1,0.2,2.2,0.3,3.4,0.3c8.2,0,14.8-4.5,14.8-10.1C458.4,85.3,457.4,83.3,455.6,81.6z"/>
			<path d="M384,110.4c-9.6,0-17.4-5.9-18.1-13.3c-0.3,0-0.5,0-0.8,0c-7.6,0-13.8-5.1-13.8-11.5c0-0.8,0.1-1.6,0.3-2.4
				c-4-2.2-6.5-6.4-6.5-11c0-6.9,5.6-12.6,12.6-12.6c1.7,0,3.4,0.4,5,1.1c2.6-1.7,6-2.6,9.7-2.6c3.4,0,6.7,0.8,9.3,2.4
				c2-4.8,6.7-8,11.9-8c5,0,9.5,2.9,11.6,7.4c3.5-0.7,7.2,0,9.9,1.9c3-2.4,6.8-3.7,10.9-3.7c6.1,0,11.6,2.9,14.3,7.6
				c0.8-0.1,1.6-0.2,2.4-0.2c8.1,0,14.8,5.5,14.8,12.3c0,1.2-0.2,2.4-0.6,3.6c1.8,1.8,2.7,4,2.7,6.2c0,6.7-8.6,12.1-18.5,10.9
				c-2.3,5.8-8.8,9.9-16,9.9c-3.3,0-6.5-0.8-9.3-2.4c-2,0.9-4.3,1.4-6.6,1.4c-3.6,0-7.2-1.2-9.8-3.4
				C395.8,107.9,390.1,110.4,384,110.4z M367.9,94.9l0,1.3c0,6.7,7.2,12.2,16.1,12.2c6,0,11.4-2.5,14.2-6.5l0.7-0.9l0.8,0.8
				c2.4,2.3,5.8,3.6,9.3,3.6c2.2,0,4.3-0.5,6.2-1.4l0.5-0.2l0.5,0.3c2.6,1.6,5.6,2.4,8.7,2.4c6.7,0,12.6-3.8,14.4-9.3l0.3-0.8
				l0.8,0.1c1.1,0.2,2.2,0.3,3.3,0.3c7.6,0,13.8-4.1,13.8-9.1c0-1.9-0.9-3.7-2.5-5.2l-0.5-0.5l0.3-0.7c0.5-1.1,0.7-2.3,0.7-3.4
				c0-5.7-5.7-10.3-12.8-10.3c-0.9,0-1.8,0.1-2.7,0.2l-0.7,0.1l-0.3-0.7c-2.1-4.3-7.2-7.1-12.8-7.1c-3.9,0-7.6,1.4-10.2,3.7
				l-0.6,0.6l-0.7-0.5c-1.8-1.4-4.1-2.2-6.7-2.2c-1,0-2,0.1-3,0.4l-0.9,0.2l-0.3-0.8c-1.6-4.2-5.6-6.9-10.1-6.9
				c-4.8,0-9.1,3.2-10.4,7.8l-0.4,1.4l-1.1-0.8c-2.3-1.7-5.7-2.7-9.2-2.7c-3.4,0-6.7,0.9-9,2.6l-0.5,0.3l-0.5-0.3
				c-1.5-0.7-3-1.1-4.7-1.1c-5.8,0-10.6,4.7-10.6,10.6c0,4.1,2.4,7.9,6.1,9.6l0.8,0.4l-0.3,0.9c-0.3,0.9-0.5,1.7-0.5,2.6
				c0,5.2,5.3,9.5,11.8,9.5c0.5,0,1,0,1.6-0.1L367.9,94.9z"/>
		</g>
		<g>
			<path d="M383.4,78.6h-4.9v-8.7h4.9V71h-3.5v2.4h3.3v1.2h-3.3v2.7h3.5V78.6z"/>
			<path d="M386.6,75.2l-2.2-3.2h1.6l1.5,2.3L389,72h1.6l-2.2,3.2l2.3,3.4h-1.6l-1.6-2.5l-1.6,2.5h-1.6L386.6,75.2z"/>
			<path d="M394.3,77.6c0.3,0,0.7-0.1,1-0.2v1.1c-0.2,0.1-0.4,0.1-0.6,0.2c-0.2,0-0.5,0.1-0.8,0.1c-1.3,0-2-0.7-2-2.1V73h-0.9v-0.6
				l1-0.5l0.5-1.4h0.9V72h1.9V73h-1.9v3.5c0,0.3,0.1,0.6,0.3,0.8C393.8,77.5,394.1,77.6,394.3,77.6z"/>
			<path d="M399.6,78.7c-1,0-1.8-0.3-2.4-0.9c-0.6-0.6-0.9-1.4-0.9-2.5c0-1.1,0.3-1.9,0.8-2.5c0.5-0.6,1.3-0.9,2.2-0.9
				c0.9,0,1.6,0.3,2.1,0.8s0.8,1.3,0.8,2.2v0.8h-4.4c0,0.6,0.2,1.1,0.5,1.5c0.3,0.3,0.8,0.5,1.4,0.5c0.4,0,0.8,0,1.1-0.1
				s0.7-0.2,1.1-0.4v1.1c-0.3,0.2-0.7,0.3-1,0.3C400.4,78.7,400,78.7,399.6,78.7z M399.3,72.9c-0.4,0-0.8,0.1-1.1,0.4
				c-0.3,0.3-0.4,0.7-0.5,1.2h3c0-0.5-0.1-1-0.4-1.2S399.8,72.9,399.3,72.9z"/>
			<path d="M407.1,71.8c0.3,0,0.5,0,0.7,0.1l-0.1,1.3c-0.2,0-0.4-0.1-0.6-0.1c-0.6,0-1,0.2-1.4,0.5c-0.3,0.4-0.5,0.8-0.5,1.4v3.5
				h-1.4V72h1.1l0.2,1.2h0.1c0.2-0.4,0.5-0.7,0.9-0.9C406.3,72,406.7,71.8,407.1,71.8z"/>
			<path d="M414.8,78.6h-1.4v-4.1c0-0.5-0.1-0.9-0.3-1.1c-0.2-0.3-0.5-0.4-1-0.4c-0.6,0-1,0.2-1.3,0.5c-0.3,0.4-0.4,0.9-0.4,1.8v3.3
				H409V72h1.1l0.2,0.9h0.1c0.2-0.3,0.5-0.6,0.8-0.7s0.8-0.3,1.2-0.3c1.6,0,2.4,0.8,2.4,2.4V78.6z"/>
			<path d="M420.9,78.6l-0.3-0.9h0c-0.3,0.4-0.6,0.7-1,0.8c-0.3,0.1-0.7,0.2-1.2,0.2c-0.6,0-1.2-0.2-1.5-0.5s-0.5-0.8-0.5-1.5
				c0-0.7,0.3-1.2,0.8-1.5s1.3-0.5,2.3-0.6l1.1,0v-0.4c0-0.4-0.1-0.7-0.3-0.9c-0.2-0.2-0.5-0.3-0.9-0.3c-0.3,0-0.7,0-1,0.1
				s-0.6,0.2-0.9,0.4l-0.5-1c0.4-0.2,0.8-0.3,1.2-0.4c0.4-0.1,0.8-0.1,1.2-0.1c0.8,0,1.5,0.2,1.9,0.5c0.4,0.4,0.6,0.9,0.6,1.7v4.5
				H420.9z M418.8,77.6c0.5,0,0.9-0.1,1.2-0.4s0.5-0.7,0.5-1.2v-0.6l-0.8,0c-0.7,0-1.1,0.1-1.4,0.3c-0.3,0.2-0.5,0.5-0.5,0.9
				c0,0.3,0.1,0.5,0.3,0.7C418.2,77.5,418.5,77.6,418.8,77.6z"/>
			<path d="M425.3,78.6h-1.4v-9.3h1.4V78.6z"/>
			<path d="M381,93.3h-1.4v-4.1c0-0.5-0.1-0.9-0.3-1.1c-0.2-0.3-0.5-0.4-1-0.4c-0.6,0-1,0.2-1.3,0.5c-0.3,0.4-0.4,0.9-0.4,1.8v3.3
				h-1.4v-6.6h1.1l0.2,0.9h0.1c0.2-0.3,0.5-0.6,0.8-0.7s0.8-0.3,1.2-0.3c1.6,0,2.4,0.8,2.4,2.4V93.3z"/>
			<path d="M385.8,93.4c-1,0-1.8-0.3-2.4-0.9c-0.6-0.6-0.9-1.4-0.9-2.5c0-1.1,0.3-1.9,0.8-2.5c0.5-0.6,1.3-0.9,2.2-0.9
				c0.9,0,1.6,0.3,2.1,0.8s0.8,1.3,0.8,2.2v0.8H384c0,0.6,0.2,1.1,0.5,1.5c0.3,0.3,0.8,0.5,1.4,0.5c0.4,0,0.8,0,1.1-0.1
				s0.7-0.2,1.1-0.4v1.1c-0.3,0.2-0.7,0.3-1,0.3C386.6,93.3,386.2,93.4,385.8,93.4z M385.5,87.6c-0.4,0-0.8,0.1-1.1,0.4
				c-0.3,0.3-0.4,0.7-0.5,1.2h3c0-0.5-0.1-1-0.4-1.2S386,87.6,385.5,87.6z"/>
			<path d="M392.4,92.2c0.3,0,0.7-0.1,1-0.2v1.1c-0.2,0.1-0.4,0.1-0.6,0.2c-0.2,0-0.5,0.1-0.8,0.1c-1.3,0-2-0.7-2-2.1v-3.6h-0.9
				v-0.6l1-0.5l0.5-1.4h0.9v1.5h1.9v1.1h-1.9v3.5c0,0.3,0.1,0.6,0.3,0.8C391.9,92.2,392.1,92.2,392.4,92.2z"/>
			<path d="M400.2,93.3l-0.9-3.1c-0.1-0.3-0.3-1.1-0.6-2.3h-0.1c-0.2,1.1-0.4,1.8-0.5,2.3l-0.9,3.1h-1.6l-1.9-6.6h1.4l0.8,3.3
				c0.2,0.8,0.3,1.5,0.4,2.1h0c0-0.3,0.1-0.6,0.2-1c0.1-0.4,0.2-0.7,0.2-0.8l1-3.5h1.5l1,3.5c0.1,0.2,0.1,0.5,0.2,0.9
				c0.1,0.4,0.1,0.7,0.2,0.9h0c0.1-0.5,0.2-1.2,0.4-2.1l0.9-3.3h1.4l-1.9,6.6H400.2z"/>
			<path d="M410.6,89.9c0,1.1-0.3,1.9-0.8,2.5c-0.6,0.6-1.3,0.9-2.3,0.9c-0.6,0-1.2-0.1-1.6-0.4s-0.8-0.7-1.1-1.2
				c-0.3-0.5-0.4-1.1-0.4-1.8c0-1.1,0.3-1.9,0.8-2.5c0.5-0.6,1.3-0.9,2.3-0.9c1,0,1.7,0.3,2.3,0.9S410.6,88.9,410.6,89.9z
				 M405.8,89.9c0,1.5,0.6,2.3,1.7,2.3c1.1,0,1.7-0.8,1.7-2.3c0-1.5-0.6-2.3-1.7-2.3c-0.6,0-1,0.2-1.3,0.6S405.8,89.2,405.8,89.9z"
				/>
			<path d="M415.6,86.5c0.3,0,0.5,0,0.7,0.1l-0.1,1.3c-0.2,0-0.4-0.1-0.6-0.1c-0.6,0-1,0.2-1.4,0.5c-0.3,0.4-0.5,0.8-0.5,1.4v3.5
				h-1.4v-6.6h1.1l0.2,1.2h0.1c0.2-0.4,0.5-0.7,0.9-0.9C414.8,86.6,415.2,86.5,415.6,86.5z"/>
			<path d="M418.9,89.8l0.8-1l2-2.1h1.6l-2.7,2.8l2.8,3.8h-1.6l-2.1-2.9l-0.8,0.6v2.3h-1.4V84h1.4v4.5L418.9,89.8L418.9,89.8z"/>
			<path d="M428.9,91.4c0,0.6-0.2,1.1-0.7,1.5c-0.5,0.3-1.1,0.5-2,0.5c-0.9,0-1.6-0.1-2.1-0.4v-1.2c0.8,0.4,1.5,0.5,2.2,0.5
				c0.9,0,1.3-0.3,1.3-0.8c0-0.2,0-0.3-0.1-0.4c-0.1-0.1-0.3-0.2-0.5-0.3c-0.2-0.1-0.5-0.3-0.9-0.4c-0.8-0.3-1.3-0.6-1.5-0.9
				c-0.3-0.3-0.4-0.7-0.4-1.1c0-0.6,0.2-1,0.7-1.3c0.5-0.3,1.1-0.5,1.9-0.5c0.8,0,1.5,0.2,2.2,0.5l-0.5,1.1
				c-0.7-0.3-1.3-0.4-1.8-0.4c-0.7,0-1.1,0.2-1.1,0.6c0,0.2,0.1,0.4,0.3,0.5c0.2,0.1,0.6,0.3,1.3,0.6c0.5,0.2,0.9,0.4,1.2,0.6
				c0.2,0.2,0.4,0.4,0.5,0.6C428.9,90.8,428.9,91.1,428.9,91.4z"/>
		</g>
	</g>
	<g>
		<g>
			<ellipse class="st3" cx="262.4" cy="81.5" rx="26.5" ry="23.4"/>
			<path d="M262.4,106.5c-15.4,0-28-11.2-28-24.9s12.5-24.9,28-24.9s28,11.2,28,24.9S277.8,106.5,262.4,106.5z M262.4,59.6
				c-13.8,0-25,9.8-25,21.9s11.2,21.9,25,21.9s25-9.8,25-21.9S276.2,59.6,262.4,59.6z"/>
		</g>
		<g>
			<g>
				<g>
					<rect x="251.6" y="64.6" transform="matrix(0.8101 -0.5863 0.5863 0.8101 7.5088 161.8653)" width="4" height="9.5"/>
				</g>
				<g>
					<g>
						<polygon points="251.5,74.9 260.6,79 259.6,69.1 						"/>
					</g>
				</g>
			</g>
			<g>
				<g>
					<rect x="249.9" y="84.1" transform="matrix(0.8343 -0.5513 0.5513 0.8343 -5.1769 155.0672)" width="10.9" height="4"/>
				</g>
				<g>
					<g>
						<polygon points="249.3,84.2 244.9,93.1 254.8,92.5 						"/>
					</g>
				</g>
			</g>
			<g>
				<g>
					<rect x="269.3" y="88.9" transform="matrix(0.8101 -0.5863 0.5863 0.8101 -3.4178 176.814)" width="4" height="9.5"/>
				</g>
				<g>
					<g>
						<polygon points="273.4,88.1 264.3,84 265.3,93.9 						"/>
					</g>
				</g>
			</g>
			<g>
				<g>
					<rect x="264" y="74.9" transform="matrix(0.8343 -0.5513 0.5513 0.8343 2.2621 161.2681)" width="10.9" height="4"/>
				</g>
				<g>
					<g>
						<polygon points="275.5,78.8 279.9,69.9 270,70.5 						"/>
					</g>
				</g>
			</g>
		</g>
	</g>
</g>
</svg>
