<svg id="Layer_1" data-name="Layer 1" xmlns="http://www.w3.org/2000/svg" xmlns:xlink="http://www.w3.org/1999/xlink" viewBox="0 0 735.94 373.65"><defs><style>.cls-1{fill:#a80030;}.cls-2{fill:#072b61;}.cls-3{fill:#0a57a4;}.cls-4{fill:#fff;}.cls-5{opacity:0.15;}.cls-6{fill:#707070;}.cls-7{fill:#bfff80;}.cls-8{opacity:0.26;}.cls-10,.cls-13,.cls-8{isolation:isolate;}.cls-9{fill:url(#linear-gradient);}.cls-10{opacity:0.18;}.cls-11{fill:url(#linear-gradient-2);}.cls-12{opacity:0.08;}.cls-13{fill:#52a800;opacity:0.3;}.cls-14{fill:#dd4814;}.cls-15{fill:#032f70;}.cls-16{fill:#bed1ed;stroke:#879fc3;stroke-linejoin:round;stroke-width:0.22px;}.cls-17{fill:#4d4d4d;}.cls-18{fill:#1793d1;}</style><linearGradient id="linear-gradient" x1="172.73" y1="327.34" x2="203.95" y2="300.99" gradientTransform="matrix(1.66, 0, 0, -1.66, -58.37, 767.07)" gradientUnits="userSpaceOnUse"><stop offset="0" stop-color="#c7f994"/><stop offset="1" stop-color="#87cf3e"/></linearGradient><linearGradient id="linear-gradient-2" x1="179.21" y1="295.94" x2="203.7" y2="318.93" gradientTransform="matrix(1.59, 0, 0, -1.59, -52.66, 756.44)" gradientUnits="userSpaceOnUse"><stop offset="0" stop-color="#3d3d3d"/><stop offset="1" stop-opacity="0.11"/></linearGradient></defs><title>4</title><path class="cls-1" d="M667.39,295.89c-1.49,0,.28.77,2.23,1.07,0.54-.42,1-0.85,1.46-1.26a11.18,11.18,0,0,1-3.69.19" transform="translate(-32.03 -33.17)"/><path class="cls-1" d="M675.41,293.89a9.47,9.47,0,0,0,1.77-4,9.69,9.69,0,0,1-1.24,2.75c-2.79,1.76-.26-1,0-2.11-3,3.78-.41,2.27-0.52,3.33" transform="translate(-32.03 -33.17)"/><path class="cls-1" d="M678.37,286.19c0.18-2.69-.53-1.84-0.77-0.81,0.28,0.15.5,1.9,0.77,0.81" transform="translate(-32.03 -33.17)"/><path class="cls-1" d="M661.73,249.41c0.8,0.14,1.72.25,1.59,0.44,0.88-.19,1.07-0.37-1.59-0.44" transform="translate(-32.03 -33.17)"/><path class="cls-1" d="M663.32,249.85l-0.56.12,0.52,0,0-.07" transform="translate(-32.03 -33.17)"/><path class="cls-1" d="M688.19,287.21c0.09,2.42-.71,3.59-1.42,5.67l-1.29.64c-1.06,2.05.11,1.3-.65,2.94-1.65,1.47-5,4.59-6.08,4.88-0.79,0,.53-0.93.7-1.28-2.21,1.52-1.77,2.28-5.15,3.2l-0.1-.22c-8.33,3.92-19.9-3.85-19.75-14.44a0.93,0.93,0,0,1-.44.77,13.35,13.35,0,0,1,7.49-13.17,12.63,12.63,0,0,1,14,1.83,12.53,12.53,0,0,0-10.23-4.92c-4.42.07-8.56,2.88-9.94,5.93-2.26,1.42-2.53,5.5-3.51,6.24-1.33,9.76,2.5,14,9,18.94,1,0.69.29,0.79,0.42,1.31a17.56,17.56,0,0,1-5.74-4.39,15.43,15.43,0,0,0,3,3.44c-2-.69-4.74-4.91-5.53-5.08,3.49,6.26,14.18,11,19.78,8.63a23.34,23.34,0,0,1-8.79-1c-1.22-.63-2.88-1.93-2.59-2.17,7.64,2.85,15.52,2.16,22.13-3.14,1.68-1.31,3.52-3.54,4-3.57-0.8,1.2.14,0.58-.48,1.64,1.67-2.7-.73-1.1,1.73-4.66l0.91,1.25c-0.34-2.24,2.79-5,2.47-8.51,0.72-1.08.8,1.17,0,3.66,1.06-2.77.28-3.21,0.55-5.5a21,21,0,0,1,.88,2.39c-0.69-2.67.7-4.5,1-6.06-0.34-.15-1.06,1.18-1.23-2,0-1.37.38-.72,0.52-1.06a6.08,6.08,0,0,1-1.4-3.22c0.31-.48.83,1.23,1.26,1.3a31.42,31.42,0,0,1-.76-4.06c-1.24-2.59-.44.35-1.44-1.11-1.32-4.11,1.09-1,1.26-2.82,2,2.9,3.14,7.39,3.66,9.24a37.85,37.85,0,0,0-1.83-6.59c0.61,0.26-1-4.66.79-1.41-1.89-6.94-8.08-13.44-13.77-16.48,0.69,0.64,1.57,1.44,1.26,1.56-2.83-1.69-2.34-1.82-2.74-2.53-2.31-.94-2.46.08-4,0-4.35-2.31-5.19-2.06-9.19-3.51l0.18,0.85c-2.88-1-3.36.36-6.47,0-0.19-.15,1-0.54,2-0.68-2.79.37-2.66-.55-5.38,0.1a23.08,23.08,0,0,1,2.1-1.18c-2.27.14-5.42,1.32-4.45,0.24-3.7,1.65-10.29,4-14,7.44l-0.12-.78c-1.69,2-7.38,6.07-7.83,8.7l-0.45.1a49.13,49.13,0,0,0-2.15,4.71c-1.15,2-1.69.76-1.52,1.06A71.58,71.58,0,0,0,624.61,282c0.69,1,0,6.23.28,10.39-1.14,20.54,14.42,40.49,31.42,45.09,2.49,0.89,6.2.86,9.35,0.95-3.72-1.06-4.2-.56-7.82-1.83-2.61-1.23-3.19-2.64-5-4.24l0.73,1.29c-3.63-1.29-2.11-1.59-5.06-2.53l0.78-1c-1.18-.09-3.12-2-3.65-3l-1.29.05c-1.55-1.91-2.37-3.28-2.31-4.35l-0.42.74c-0.47-.81-5.69-7.16-3-5.68a6.07,6.07,0,0,1-1.9-2.07l0.55-.63c-1.3-1.68-2.4-3.83-2.31-4.54a3,3,0,0,0,1.66,1.28c-3.29-8.16-3.48-.45-6-8.31l0.53,0a17.63,17.63,0,0,1-1-1.92l0.23-2.28c-2.37-2.74-.66-11.65-0.32-16.53,0.24-2,2-4.1,3.3-7.42l-0.81-.14c1.54-2.69,8.8-10.8,12.17-10.38,1.63-2-.32,0-0.64-0.52,3.58-3.7,4.7-2.62,7.12-3.28,2.6-1.55-2.24.6-1-.59,4.5-1.15,3.19-2.61,9.06-3.2,0.62,0.35-1.44.54-2,1,3.75-1.84,11.87-1.42,17.15,1,6.12,2.86,13,11.31,13.27,19.27l0.31,0.08c-0.16,3.16.48,6.82-.63,10.18l0.75-1.59" transform="translate(-32.03 -33.17)"/><path class="cls-1" d="M651.08,297.94l-0.21,1a20.08,20.08,0,0,0,3,3.82c-0.9-1.76-1.57-2.49-2.81-4.87" transform="translate(-32.03 -33.17)"/><path class="cls-1" d="M653.4,297.85a8.42,8.42,0,0,1-1.17-2,13.71,13.71,0,0,0,1.63,3.31l-0.46-1.36" transform="translate(-32.03 -33.17)"/><path class="cls-1" d="M694.49,288.92l-0.22.55a26.57,26.57,0,0,1-2.61,8.31,26.19,26.19,0,0,0,2.82-8.86" transform="translate(-32.03 -33.17)"/><path class="cls-1" d="M662,248.69c1-.37,2.48-0.2,3.56-0.45-1.4.12-2.79,0.19-4.16,0.36l0.61,0.08" transform="translate(-32.03 -33.17)"/><path class="cls-1" d="M626.55,267.55c0.23,2.15-1.62,3,.41,1.57,1.09-2.45-.42-0.68-0.41-1.57" transform="translate(-32.03 -33.17)"/><path class="cls-1" d="M624.16,277.53a23.27,23.27,0,0,0,.73-3.13c-1.29,1.65-.6,2-0.73,3.13" transform="translate(-32.03 -33.17)"/><path d="M619.86,373.75s0,7.51-.14,9.45c-0.09,1.57-.23,5-3.57,5s-4.26-3.94-4.54-5.65a24.22,24.22,0,0,1-.32-4.17c0-2.22.14-8.44,5.38-8.44a6,6,0,0,1,3.15.83Zm-13.44,5.47c0,13.07,7,13.07,8,13.07a5.39,5.39,0,0,0,5.51-4.31L620,392.1c0.88,0,1.76-.14,3.2-0.14a10.77,10.77,0,0,1,1.3,0,10.41,10.41,0,0,1,1.16.09c-0.74-1.48-1.3-4.82-1.3-12,0-7,0-19,.6-22.57a15.94,15.94,0,0,1-6.26,1.58c1.25,1.34,1.25,2,1.25,8.15a11.71,11.71,0,0,0-3.89-.6c-8.29,0-9.64,7.23-9.64,12.61" transform="translate(-32.03 -33.17)"/><path d="M631.56,376.85c0-3.85.83-7.28,4.12-7.28,3.61,0,3.89,4,3.8,7.28h-7.92Zm12.51,0.47c0-5.42-1.06-10.75-7.92-10.75-9.45,0-9.45,10.48-9.45,12.7,0,9.41,4.22,13.11,11.31,13.11a18,18,0,0,0,5.51-.7,16.83,16.83,0,0,1,.47-4.17,8.23,8.23,0,0,1-5,1.39c-7.23,0-7.32-6.58-7.32-8.85H644l0.09-2.73" transform="translate(-32.03 -33.17)"/><path d="M659.14,379.31c0,4.31-.79,10.1-6.16,10.1a11.33,11.33,0,0,1-2.27-.28c-0.09-1.67-.09-4.54-0.09-7.88a24.4,24.4,0,0,1,.74-7.09c1-3.29,3.15-3.33,3.57-3.33C658.45,370.83,659.14,375.7,659.14,379.31Zm-13.3,5.05c0,3.43,0,5.38-.56,6.86a19.54,19.54,0,0,0,7.09,1.16,10.08,10.08,0,0,0,9.87-5.79,21.58,21.58,0,0,0,1.81-9c0-1.67-.19-5.33-1.53-7.65a6.43,6.43,0,0,0-5.6-3.29c-4.45,0-5.75,3.71-6.44,5.61,0-2.36,0-10.61.42-14.83A18.34,18.34,0,0,1,644,359.2c1.81,0.74,1.81,3.8,1.81,13.76v11.4" transform="translate(-32.03 -33.17)"/><path d="M673,392.1a16.55,16.55,0,0,0-2.92-.23,25.69,25.69,0,0,0-3.57.23c0.46-.88.65-1.3,0.79-4.31,0.19-4.12.23-15.15-.09-17.47-0.23-1.76-.65-2-1.3-2.5,3.8-.37,4.87-0.65,6.63-1.48a28.5,28.5,0,0,0-.42,6.16c-0.09,16-.14,17.7.88,19.6" transform="translate(-32.03 -33.17)"/><path d="M687.8,379c-0.09,2.92-.14,5-0.93,6.58a4.19,4.19,0,0,1-3.8,2.69c-2.78,0-3.38-2.32-3.38-4.59,0-4.35,3.89-4.68,5.65-4.68h2.46Zm-12.74,5.7c0,2.92.88,5.84,3.48,7.09a6.71,6.71,0,0,0,2.69.51c4.26,0,5.7-3.15,6.58-5.1a40.59,40.59,0,0,0,.14,4.91c0.83,0,1.67-.14,3.06-0.14,0.79,0,1.53.09,2.32,0.14a5.16,5.16,0,0,1-.93-3.06c-0.09-1.76-.09-3.52-0.09-6l0-9.45c0-3.52-.93-7-7.88-7a17.36,17.36,0,0,0-8.62,2.09,12,12,0,0,1,1.44,3.89,10,10,0,0,1,6.58-2.41c3.85,0,3.85,2.55,3.85,6.16-0.88,0-1.62-.14-2.87-0.14-5.89,0-9.78,2.27-9.78,8.48" transform="translate(-32.03 -33.17)"/><path d="M714.49,387.51a11.52,11.52,0,0,0,.69,4.59,26.85,26.85,0,0,0-3.52-.23,14.3,14.3,0,0,0-2.6.23,7,7,0,0,0,.37-1.62c0.14-1.06.23-4.63,0.23-5.88v-5c0-2.18,0-5.33-.14-6.44a2.82,2.82,0,0,0-3-2.92c-2.64,0-3.52,1.94-3.85,3.52s-0.37,3.38-.37,10.24c0,5.93,0,6.49.51,8.11a25.63,25.63,0,0,0-3.15-.18,17.1,17.1,0,0,0-2.78.18c0.32-.74.51-1.11,0.6-3.71s0.28-15.06-.14-18c-0.23-1.81-.69-2.22-1.2-2.69,3.75-.19,5-0.79,6.12-1.39v4.91c0.56-1.44,1.71-4.64,6.35-4.64,5.79,0,5.84,4.22,5.89,7v14" transform="translate(-32.03 -33.17)"/><path class="cls-1" d="M673.35,359.78l-3.84,3.84-3.84-3.84,3.84-3.84,3.84,3.84" transform="translate(-32.03 -33.17)"/><g id="layer1"><path id="path3584" class="cls-2" d="M768,98.29a31.92,31.92,0,0,0-63.83,0h0V123h0a7.26,7.26,0,0,0,7.26,7.24h24.67A31.92,31.92,0,0,0,768,98.29" transform="translate(-32.03 -33.17)"/><path id="path3562" class="cls-3" d="M745.45,74a15,15,0,0,0-15,15v7.94h-7.94a14.95,14.95,0,1,0,15,14.92v-7.94h7.94A14.95,14.95,0,1,0,745.45,74Zm0,7a7.94,7.94,0,1,1,0,15.89h-6.79a1.18,1.18,0,0,1-1.15-1.15V88.93A8,8,0,0,1,745.45,81ZM540,101.06a5.61,5.61,0,0,0-5.7,5.58v30c-2.91-5.35-9.17-9-16.61-9-15.12,0-25.22,11.44-25.22,26.68S502.86,181,517.64,181c6.59,0,12.28-2.73,15.7-7.46l1.27,3.21a5.72,5.72,0,0,0,5.4,3.76,5.62,5.62,0,0,0,5.64-5.64V106.63A5.61,5.61,0,0,0,540,101.06Zm-116.12.12a21.35,21.35,0,0,0-21.34,21.34v6.67h-7a4.69,4.69,0,0,0-4.67,4.67c0,2.56,2.11,5.15,4.67,5.15h7v35.78a5.7,5.7,0,0,0,11.4,0V139h7.7c2.56,0,4.67-2.59,4.67-5.15a4.69,4.69,0,0,0-4.67-4.67h-7.7v-6.67c0-5.49,4.45-10.67,9.94-10.67a10.65,10.65,0,0,1,1.52.06c3.12,0.46,6-.95,6.49-4.06a5.69,5.69,0,0,0-4.85-6.43A21.63,21.63,0,0,0,423.84,101.18Zm298.69,2.67h6.79a1.13,1.13,0,0,1,1.15,1.09v6.85A7.94,7.94,0,1,1,722.53,103.84ZM759,122.58v0.36h0.61v1.76H760v-1.76h0.61v-0.36H759Zm1.88,0v2.12h0.36v-1.33l0.06,0.18,0.55,1.21,0.49-1.21,0.12-.24v1.39h0.3v-2.12h-0.36L762,123.67l-0.12.3-0.12-.3-0.49-1.09h-0.36Zm-303.6,5.09c-14.77,0-26.26,11.91-26.26,26.68A26.53,26.53,0,0,0,457.67,181c8.14,0,16.4-3.5,21.28-8.73a5.37,5.37,0,0,0,1.64-3.7,4.61,4.61,0,0,0-.91-2.67,5,5,0,0,0-3.76-1.88,3.64,3.64,0,0,0-2.79,1,21.37,21.37,0,0,1-15.1,6.43c-8.38,0-14.64-5.85-15.22-13.64h35.9c2.21,0,4.24-1.49,4.24-3.7C483,139.1,472,127.67,457.31,127.67Zm124.18,0a26.65,26.65,0,1,0,26.62,26.68A26.63,26.63,0,0,0,581.49,127.67Zm65.06,0c-7.81,0-13,2.33-17.52,8.13l-0.42-2.73a5.69,5.69,0,0,0-11.34.73v41a5.7,5.7,0,0,0,11.4,0v-22c0-10,8.7-15,17.89-15a5.07,5.07,0,0,0,5-5.09A5,5,0,0,0,646.55,127.67Zm33.53,0a26.68,26.68,0,0,0-26.74,26.68c0,14.78,11.63,26.62,25.71,26.62,7,0,13.31-3.62,16.13-7.4l1.39,3.52a5.23,5.23,0,0,0,10.13-1.82V154.35C706.82,140,696.6,127.67,680.08,127.67Zm-222.78,9.58a14.26,14.26,0,0,1,14.31,12.55H443C444.16,142.36,449.51,137.26,457.31,137.26ZM519,137.8c9.31,0,15.22,7.13,15.22,16.55s-5.91,16.49-15.22,16.49-15.22-7.42-15.22-16.49S509.73,137.8,519,137.8Zm62.45,0c9.31,0,15.34,7.48,15.34,16.55s-6,16.49-15.34,16.49-15.4-7.42-15.4-16.49S572.18,137.8,581.49,137.8Zm98.59,0c9.31,0,15.34,7.48,15.34,16.55s-6,16.49-15.34,16.49-15.34-7.42-15.34-16.49S670.77,137.8,680.08,137.8Zm28.13,35.41v0.36h0.61v1.76h0.36v-1.76h0.61v-0.36h-1.58Zm1.88,0v2.12h0.36V174l0.06,0.18,0.55,1.21,0.49-1.21,0.12-.18v1.33H712v-2.12h-0.36l-0.42,1.09-0.12.3-0.12-.3-0.49-1.09H710.1Z" transform="translate(-32.03 -33.17)"/><path id="path3588" class="cls-4" d="M730.44,96.86V88.93h0a15,15,0,0,1,15-15,11.89,11.89,0,0,1,3.31.45,3.86,3.86,0,0,1,3.08,3.45,3.31,3.31,0,0,1-3.54,3.37c-1,0-1.37-.19-2.85-0.19a7.91,7.91,0,0,0-7.91,7.89v6.83h0a1.12,1.12,0,0,0,1.12,1.12h5.19a3.49,3.49,0,1,1,0,7h-6.31v8h0a15,15,0,0,1-15,15,11.91,11.91,0,0,1-3.31-.45,3.86,3.86,0,0,1-3.08-3.45,3.31,3.31,0,0,1,3.54-3.37c1,0,1.37.19,2.85,0.19a7.91,7.91,0,0,0,7.91-7.89v-6.87a1.12,1.12,0,0,0-1.12-1.11h-5.19a3.49,3.49,0,1,1,0-7h6.27" transform="translate(-32.03 -33.17)"/></g><g id="layer1-2" data-name="layer1"><g id="g2720"><g id="g3633" class="cls-5"><polygon id="polygon3645" points="324.06 255.28 319.48 255.28 319.48 219.02 319.48 219.02 324.06 219.02 324.06 255.28"/><path id="path3647" d="M379.19,288.45h-4.58V261a4.57,4.57,0,0,0-9.14,0v27.43H360.9V261a9.14,9.14,0,0,1,18.29,0v27.43h0Z" transform="translate(-32.03 -33.17)"/><path id="path3649" d="M400.9,279.31a9.14,9.14,0,0,1-18.29,0V251.88h4.58v27.43a4.57,4.57,0,0,0,9.14,0V251.88h4.56v27.43h0Z" transform="translate(-32.03 -33.17)"/><polygon id="polygon3651" points="372.28 218.7 377.33 218.7 381.44 230.05 385.56 218.7 390.59 218.7 383.95 236.99 390.59 255.28 390.59 255.28 385.56 255.28 381.44 243.93 377.33 255.28 372.28 255.28 378.92 236.99 372.28 218.7"/><path id="path3653" d="M353.91,249.14a2.28,2.28,0,0,1-2.32-2.22v-0.55h0v-6.74h-0.7v-2.29l2.33,0h0.53a2.26,2.26,0,0,1,2.32,2.21v9.57h-2.16Z" transform="translate(-32.03 -33.17)"/><g id="g3655"><path id="path3657" d="M479.29,288.45h-5.91V237.11a5.44,5.44,0,0,0-.37-1.61,5.6,5.6,0,0,0-2.61-3.14,7.63,7.63,0,0,0-3.67-.81,1.93,1.93,0,0,0-.37.08,1.34,1.34,0,0,1-.37.1,3.81,3.81,0,0,0-1.61.63,5.35,5.35,0,0,0-2.52,2.87,5,5,0,0,0-.53,1.88v51.34h-5.91V237.11s0-.32-0.1-0.8a6.81,6.81,0,0,0-1-2.16,6,6,0,0,0-4.13-2.61h-2a4.49,4.49,0,0,0-1.63.63,5.25,5.25,0,0,0-3,4.23,0.42,0.42,0,0,0-.08.27v51.77h-6.11V236.94a10,10,0,0,1,.8-3.77c0.25-.55.58-1.16,1-1.89a10.5,10.5,0,0,1,3.82-3.82,11.43,11.43,0,0,1,5.34-1.74,12.91,12.91,0,0,1,2-.08,1.35,1.35,0,0,1,.45.08,3.41,3.41,0,0,0,.45.08,10.64,10.64,0,0,1,3.05.9,3.27,3.27,0,0,1,.8.37,14.88,14.88,0,0,1,3.24,2.69,15.46,15.46,0,0,1,2.52-2.24,13.15,13.15,0,0,1,7.43-1.88,1.24,1.24,0,0,1,.45.08,4,4,0,0,0,.46.08,9.49,9.49,0,0,1,2.87.81,10.49,10.49,0,0,1,6.37,6.55,13,13,0,0,1,.8,3.77v51.51h0Z" transform="translate(-32.03 -33.17)"/><polygon id="polygon3659" points="459 255.28 452.9 255.28 452.9 219.38 452.9 219.38 459 219.38 459 255.28"/><path id="path3661" d="M520.37,288.45h-5.91V264.12c0-.12,0-0.41-0.1-0.9a5.5,5.5,0,0,0-4.21-4.4,8.41,8.41,0,0,0-2.16-.18,1.63,1.63,0,0,0-.4.1l-0.31.08a5,5,0,0,0-1.71.63,5.09,5.09,0,0,0-2.87,4.13,0.35,0.35,0,0,0-.1.27v24.59h-6.1V252.56h6.1a7.09,7.09,0,0,0,0,1.43,15.58,15.58,0,0,1,6.59-1.43,4.76,4.76,0,0,1,.55.1l0.53,0.08a9,9,0,0,1,4.6,1.71,10.23,10.23,0,0,1,3.62,3.59,10.71,10.71,0,0,1,1.89,5.74v24.67h0Z" transform="translate(-32.03 -33.17)"/><path id="path3663" d="M538.15,258.65h-5.92v18.5a3.82,3.82,0,0,1,.18.8,5.22,5.22,0,0,0,3.5,3.95,6,6,0,0,0,.71.18,0.07,0.07,0,0,1,.08.08h0.1a1.34,1.34,0,0,1,.37.1,1.07,1.07,0,0,0,.35.08h0.63v6.11a14,14,0,0,1-6.55-1.88A10.23,10.23,0,0,1,528,283a11.25,11.25,0,0,1-1.89-5.92V234.6h6.1v17.86h5.92v6.19h0Z" transform="translate(-32.03 -33.17)"/><path id="path3665" d="M487.07,248.82a2.29,2.29,0,0,1-2.34-2.22v-0.55h0v-6.74H484V237l3.57,0h0.53a2.27,2.27,0,0,1,2.34,2.21v9.57h-3.42Z" transform="translate(-32.03 -33.17)"/></g><path id="path3667" d="M332.94,225.56v53.63a9.16,9.16,0,0,0,8.7,9.14v0h5.11v-4.6H342.1a4.2,4.2,0,0,1-3.24-1.27,3.94,3.94,0,0,1-1.35-3V225.56h-4.57Z" transform="translate(-32.03 -33.17)"/><path id="path3669" d="M337,293.45a5,5,0,0,0-1.7.24,3.35,3.35,0,0,0-1.16.7,2.75,2.75,0,0,0-.7,1.05,3.66,3.66,0,0,0-.19,1.24v0.05h-1.54v1.43h1.54c0,1.54,0,3,0,4.16s0,1.94,0,2v0.3h1.84v-0.3c0-.09,0-0.8,0-2.14s0-2.61,0-4.05h2.68v-1.43h-2.68v0a2.45,2.45,0,0,1,.11-0.78,1.11,1.11,0,0,1,.32-0.49,1.66,1.66,0,0,1,.65-0.35,4,4,0,0,1,1.08-.14h0.14V295l0.41-.05h0.14v0H338l-0.05-.3v-0.27h0l-0.11-.68-0.05-.24H337Zm39.22,0a5,5,0,0,0-1.7.24,3.35,3.35,0,0,0-1.16.7,2.75,2.75,0,0,0-.7,1.05,3.67,3.67,0,0,0-.19,1.24v0.05H371v1.43h1.54c0,1.54,0,3,0,4.16s0,1.94,0,2v0.3h1.87v-0.3c0-.09,0-0.8,0-2.14s0-2.61,0-4.05h2.65v-1.43h-2.65v0a2.45,2.45,0,0,1,.11-0.78,1.11,1.11,0,0,1,.32-0.49,1.56,1.56,0,0,1,.62-0.35,4,4,0,0,1,1.08-.14h0.14V295L377,295h0.16v0h0.05l-0.05-.3v-0.27h-0.05l-0.11-.68,0-.24h-0.68Zm28.92,0v0.3l0,3.08a10.11,10.11,0,0,0-1.46.11,6.82,6.82,0,0,0-1.59.46,4.22,4.22,0,0,0-1.87,1.43,3.62,3.62,0,0,0-.65,2.14,3.25,3.25,0,0,0,.59,1.89,4,4,0,0,0,1.7,1.32,6.43,6.43,0,0,0,1.73.49,16.67,16.67,0,0,0,2.35.14h1v-0.32c0-.08,0-0.21,0-0.3,0-.54,0-1.11,0-1.81s0-1.74,0-2.76c0-1.29,0-2.58,0-3.84s0-1.92,0-2v-0.3h-1.84Zm81.26,0,0,0.3c0,1.09,0,2.1,0,3s0,1.59,0,2.16c0,0.89,0,2,0,3.38,0,0.68,0,1.19,0,1.54,0,0.18,0,.31,0,0.41a0.68,0.68,0,0,0,0,.14l-0.05.32h1.89v-0.3s0-.26,0-0.3c0-.2,0-0.52,0-1.43,0-1.09,0-2.38,0-3.84,0-.67,0-1.48,0-2.46s0-1.85,0-2.6v-0.3h-1.87Zm-142.92,3.08-0.3.05a11.25,11.25,0,0,0-1.41.49c-0.44.18-.9,0.4-1.35,0.62v-0.95h-1.81V297c0,0.71,0,1.47,0,2.27s0,1.44,0,1.89c0,1.11,0,1.9,0,2.35s0,0.72,0,.81v0.3h1.84v-0.3c0-.11,0-0.52,0-1.3s0-1.46,0-2c0-.37,0-0.79,0-1.22s0-.37,0-0.49c0.69-.3,1.3-0.57,1.84-0.76s0.74-.25,1-0.32l0.14,0,0.16-.05,0.3-.05-0.05-.3-0.08-.3-0.16-.73-0.08-.27h0Zm39.22,0-0.3.05a11.25,11.25,0,0,0-1.41.49c-0.44.18-.9,0.4-1.35,0.62v-0.95h-1.84l0,0.3c0,0.71,0,1.47,0,2.27s0,1.44,0,1.89c0,1.11,0,1.9,0,2.35s0,0.72,0,.81v0.3h1.84v-0.3c0-.11,0-0.52,0-1.3s0-1.46,0-2c0-.37,0-0.79,0-1.22s0-.4,0-0.51c0.68-.29,1.31-0.55,1.84-0.73s0.74-.25,1-0.32l0.14,0,0.16-.05,0.3-.05-0.08-.3-0.05-.3-0.16-.73-0.08-.27h0Zm-34.49,0a4.2,4.2,0,0,0-1.57.3,3.91,3.91,0,0,0-1.32.84,3.82,3.82,0,0,0-.95,1.35,4.49,4.49,0,0,0-.3,1.65,4.57,4.57,0,0,0,.35,1.76,3.88,3.88,0,0,0,1,1.41,4,4,0,0,0,1.27.76,4.54,4.54,0,0,0,1.51.24,4.33,4.33,0,0,0,1.54-.24,4,4,0,0,0,1.24-.76,3.91,3.91,0,0,0,1-1.43,4.35,4.35,0,0,0,.3-1.41h0.05V300.4h-0.05a4.36,4.36,0,0,0-.24-1.38,4,4,0,0,0-1-1.38,3.6,3.6,0,0,0-1.27-.81A4.45,4.45,0,0,0,348.26,296.56Zm9.95,0a4,4,0,0,0-1.54.35,8.58,8.58,0,0,0-.89.49v-0.65h-1.84V297c0,0.85,0,1.6,0,2.27s0,1.23,0,1.62c0,1.21,0,2.07,0,2.6s0,0.77,0,.84v0.3h1.87v-0.3c0-.08,0-0.47,0-1.27s0-1.51,0-2.08c0-.34,0-0.77,0-1.3s0-.62,0-0.76a9.82,9.82,0,0,1,1.14-.57h0a2.43,2.43,0,0,1,.89-0.22,1.61,1.61,0,0,1,.62.11,0.64,0.64,0,0,1,.3.22,0.93,0.93,0,0,1,.16.38,3.59,3.59,0,0,1,.05.57c0,0.23,0,.59,0,1.08s0,0.84,0,1.08c0,0.72,0,1.34,0,1.87s0,0.82,0,.89v0.3h1.84v-0.3c0-.08,0-0.35,0-0.89s0-1.23,0-2c0-.37,0-0.74,0-1.14s0-.8,0-1.19c0-.09,0-0.17,0-0.24a8,8,0,0,1,1.14-.51,3.1,3.1,0,0,1,.92-0.19,1.22,1.22,0,0,1,.87.24,1.48,1.48,0,0,1,.3,1c0,0.24,0,.61,0,1.11s0,0.84,0,1.05c0,0.55,0,1.14,0,1.76,0,0.31,0,.56,0,0.73s0,0.3,0,.27l0,0.32h1.87v-0.3s0-.23,0-0.3,0-.22,0-0.59c0-.56,0-1.24,0-2.05,0-.39,0-0.76,0-1.11s0-.78,0-1.3a2.37,2.37,0,0,0-.7-1.78,2.63,2.63,0,0,0-1.89-.68,4.28,4.28,0,0,0-1.41.27,10.92,10.92,0,0,0-1.51.73,2.11,2.11,0,0,0-.65-0.68,2.71,2.71,0,0,0-1.41-.32h0Zm29,0a4.22,4.22,0,0,0-1.54.27,3.37,3.37,0,0,0-1.24.84h0a4.31,4.31,0,0,0-.84,1.35,4.25,4.25,0,0,0-.3,1.59,3.65,3.65,0,0,0,.38,1.68,4.13,4.13,0,0,0,.95,1.22,4.54,4.54,0,0,0,1.62.89,7.49,7.49,0,0,0,2.27.3c0.32,0,.62,0,0.87,0l0.43,0,0.22,0,0.05-.24,0.14-.95,0.05-.38-0.38,0-0.46,0c-0.24,0-.49,0-0.78,0a6.32,6.32,0,0,1-1.35-.14,3.38,3.38,0,0,1-.95-0.38,2.4,2.4,0,0,1-.95-0.92,2.78,2.78,0,0,1-.22-1h5.57v-0.62H390.7a5.06,5.06,0,0,0-.22-1.41,3.37,3.37,0,0,0-.76-1.27,3,3,0,0,0-1.11-.68,4,4,0,0,0-1.38-.22h0Zm8.16,0a4.22,4.22,0,0,0-1.54.27,3.37,3.37,0,0,0-1.24.84,4.4,4.4,0,0,0-.87,1.35,4.24,4.24,0,0,0-.27,1.59,3.65,3.65,0,0,0,.38,1.68,4.13,4.13,0,0,0,.95,1.22,4.54,4.54,0,0,0,1.62.89,7.49,7.49,0,0,0,2.27.3c0.32,0,.59,0,0.84,0l0.43,0,0.24,0,0-.24,0.14-.95,0.05-.38-0.38,0-0.46,0c-0.24,0-.49,0-0.78,0a6.06,6.06,0,0,1-1.32-.14,3.38,3.38,0,0,1-.95-0.38,2.4,2.4,0,0,1-.95-0.92,2.8,2.8,0,0,1-.24-1h5.6v-0.62h-0.05a5.06,5.06,0,0,0-.22-1.41,3.42,3.42,0,0,0-.78-1.27,2.89,2.89,0,0,0-1.08-.68,4.17,4.17,0,0,0-1.41-.22h0Zm17.33,0a4.34,4.34,0,0,0-1.59.3,3.91,3.91,0,0,0-1.32.84,3.75,3.75,0,0,0-.92,1.35,4.49,4.49,0,0,0-.3,1.65,4.55,4.55,0,0,0,.32,1.76h0a3.88,3.88,0,0,0,1,1.41,4,4,0,0,0,1.27.76,4.54,4.54,0,0,0,1.51.24,4.17,4.17,0,0,0,1.51-.24,4,4,0,0,0,2.27-2.19,4.35,4.35,0,0,0,.3-1.41h0.05V300.4h-0.05a4.37,4.37,0,0,0-.27-1.38,3.93,3.93,0,0,0-.95-1.38,3.71,3.71,0,0,0-1.3-.81,4.3,4.3,0,0,0-1.57-.27h0Zm9.92,0a3.85,3.85,0,0,0-1.51.35,8.86,8.86,0,0,0-.89.49v-0.65h-1.84V297c0,0.85,0,1.6,0,2.27s0,1.23,0,1.62c0,1.21,0,2.07,0,2.6s0,0.77,0,.84v0.3h1.84v-0.3c0-.08,0-0.47,0-1.27s0-1.51,0-2.08c0-.34,0-0.77,0-1.3s0-.59,0-0.73a10,10,0,0,1,1.16-.59,2.55,2.55,0,0,1,.92-0.22,1.61,1.61,0,0,1,.62.11,0.64,0.64,0,0,1,.3.22,0.93,0.93,0,0,1,.14.38,3.57,3.57,0,0,1,.05.57c0,0.23,0,.59,0,1.08s0,0.84,0,1.08c0,0.72,0,1.34,0,1.87s0,0.82,0,.89v0.3h1.84v-0.3c0-.08,0-0.35,0-0.89s0-1.23,0-2c0-.37,0-0.74,0-1.14s0-.8,0-1.19c0-.09,0-0.17,0-0.24a7.84,7.84,0,0,1,1.11-.51,3.24,3.24,0,0,1,.95-0.19,1.22,1.22,0,0,1,.87.24,1.51,1.51,0,0,1,.27,1c0,0.24,0,.61,0,1.11s0,0.84,0,1.05c0,0.55,0,1.14,0,1.76,0,0.31,0,.56,0,0.73s0,0.3,0,.27l-0.05.32h1.89v-0.3s0-.23,0-0.3,0-.22,0-0.59c0-.56,0-1.24,0-2.05,0-.39,0-0.76,0-1.11s0-.78,0-1.3a2.37,2.37,0,0,0-.7-1.78,2.63,2.63,0,0,0-1.89-.68,4.13,4.13,0,0,0-1.38.27,10.92,10.92,0,0,0-1.51.73,2.11,2.11,0,0,0-.65-0.68,2.81,2.81,0,0,0-1.43-.32h0Zm33.57,0a3.85,3.85,0,0,0-1.51.35,8.86,8.86,0,0,0-.89.49v-0.65H452V297c0,0.85,0,1.6,0,2.27s0,1.23,0,1.62c0,1.21,0,2.07,0,2.6s0,0.77,0,.84v0.3h1.84v-0.3c0-.08,0-0.47,0-1.27s0-1.51,0-2.08c0-.34,0-0.77,0-1.3s0-.59,0-0.73a10,10,0,0,1,1.16-.59,2.55,2.55,0,0,1,.92-0.22,1.61,1.61,0,0,1,.62.11,0.64,0.64,0,0,1,.3.22,0.93,0.93,0,0,1,.14.38,3.5,3.5,0,0,1,.08.57c0,0.23,0,.59,0,1.08s0,0.84,0,1.08c0,0.72,0,1.34,0,1.87s0,0.82,0,.89v0.3h1.84v-0.3c0-.08,0-0.35,0-0.89s0-1.23,0-2c0-.37,0-0.74,0-1.14s0-.8,0-1.19c0-.09,0-0.17,0-0.24a8,8,0,0,1,1.14-.51,3.1,3.1,0,0,1,.92-0.19,1.22,1.22,0,0,1,.87.24,1.51,1.51,0,0,1,.27,1c0,0.24,0,.61,0,1.11s0,0.84,0,1.05c0,0.55,0,1.14,0,1.76,0,0.31,0,.56,0,0.73s0,0.3,0,.27l0,0.32h1.87v-0.3s0-.23,0-0.3,0-.22,0-0.59c0-.56,0-1.24,0-2.05,0-.39,0-0.76,0-1.11s0-.78,0-1.3a2.37,2.37,0,0,0-.7-1.78,2.63,2.63,0,0,0-1.89-.68,4.13,4.13,0,0,0-1.38.27,10.92,10.92,0,0,0-1.51.73,2.11,2.11,0,0,0-.65-0.68,2.81,2.81,0,0,0-1.43-.32h0Zm13,0a4.22,4.22,0,0,0-1.54.27,3.37,3.37,0,0,0-1.24.84,4.4,4.4,0,0,0-.87,1.35,4.25,4.25,0,0,0-.3,1.59,3.67,3.67,0,0,0,.41,1.68,4.06,4.06,0,0,0,.92,1.22,4.54,4.54,0,0,0,1.62.89h0a7.49,7.49,0,0,0,2.27.3c0.32,0,.59,0,0.84,0l0.43,0,0.24,0,0-.24,0.14-.95,0.05-.38-0.38,0-0.46,0c-0.24,0-.49,0-0.78,0a6.06,6.06,0,0,1-1.32-.14,3.38,3.38,0,0,1-.95-0.38,2.4,2.4,0,0,1-.95-0.92,2.8,2.8,0,0,1-.24-1h5.6v-0.62h-0.05a5.06,5.06,0,0,0-.22-1.41,3.43,3.43,0,0,0-.78-1.27,2.89,2.89,0,0,0-1.08-.68,4.17,4.17,0,0,0-1.41-.22h0Zm12.19,0a4.22,4.22,0,0,0-1.54.27,3.37,3.37,0,0,0-1.24.84,4.4,4.4,0,0,0-.87,1.35,4.25,4.25,0,0,0-.3,1.59,3.65,3.65,0,0,0,.38,1.68,4.13,4.13,0,0,0,.95,1.22,4.54,4.54,0,0,0,1.62.89,7.67,7.67,0,0,0,2.3.3c0.32,0,.59,0,0.84,0l0.43,0,0.22,0,0.05-.24,0.14-.95,0.05-.38-0.38,0-0.46,0c-0.24,0-.49,0-0.78,0a6.32,6.32,0,0,1-1.35-.14,3.38,3.38,0,0,1-.95-0.38,2.32,2.32,0,0,1-.92-0.92,2.8,2.8,0,0,1-.24-1h5.57v-0.62h-0.05a5.06,5.06,0,0,0-.22-1.41,3.37,3.37,0,0,0-.76-1.27,3,3,0,0,0-1.11-.68,4,4,0,0,0-1.38-.22h0Zm12.46,0a4.22,4.22,0,0,0-1.54.27,3.37,3.37,0,0,0-1.24.84,4.4,4.4,0,0,0-.87,1.35,4.25,4.25,0,0,0-.3,1.59,3.67,3.67,0,0,0,.41,1.68,4.06,4.06,0,0,0,.92,1.22,4.54,4.54,0,0,0,1.62.89,7.67,7.67,0,0,0,2.3.3c0.32,0,.59,0,0.84,0l0.43,0,0.24,0,0-.24,0.14-.95,0.05-.38-0.38,0-0.46,0c-0.24,0-.49,0-0.78,0a6.06,6.06,0,0,1-1.32-.14,3.38,3.38,0,0,1-.95-0.38,2.4,2.4,0,0,1-.95-0.92,2.8,2.8,0,0,1-.24-1h5.6l0-.32v-0.3h-0.05a5.1,5.1,0,0,0-.19-1.41,3.42,3.42,0,0,0-.78-1.27,3,3,0,0,0-1.11-.68,4,4,0,0,0-1.38-.22h0Zm26.65,0a4.38,4.38,0,0,0-1.3.24,11.24,11.24,0,0,0-1.43.62v-0.68h-1.84V297c0,0.77,0,1.48,0,2.16s0,1.28,0,1.78c0,1.1,0,1.93,0,2.49s0,0.83,0,.89v0.3h1.84v-0.3c0-.08,0-0.45,0-1.24s0-1.47,0-2,0-.91,0-1.43,0-.52,0-0.65a9.68,9.68,0,0,1,1.24-.59,3.33,3.33,0,0,1,1.08-.24,1.1,1.1,0,0,1,.87.27,1.62,1.62,0,0,1,.27,1c0,0.22,0,.59,0,1.08s0,0.86,0,1.11,0,0.62,0,1.38,0,1.23,0,1.35l0,0.3h1.87v-0.3s0-.24,0-0.3,0-.29,0-0.76c0-.66,0-1.18,0-1.62,0-.27,0-0.64,0-1.08s0-1,0-1.57a2.41,2.41,0,0,0-.7-1.81,2.52,2.52,0,0,0-1.81-.68h0Zm15.22,0a4.22,4.22,0,0,0-1.54.27,3.37,3.37,0,0,0-1.24.84,4.4,4.4,0,0,0-.87,1.35,4.25,4.25,0,0,0-.3,1.59,3.67,3.67,0,0,0,.41,1.68,4.14,4.14,0,0,0,.95,1.22,4.54,4.54,0,0,0,1.62.89,7.49,7.49,0,0,0,2.27.3c0.32,0,.59,0,0.84,0l0.43,0,0.24,0,0-.24,0.14-.95,0.05-.38-0.38,0-0.46,0c-0.24,0-.49,0-0.78,0a6.06,6.06,0,0,1-1.32-.14,3.38,3.38,0,0,1-.95-0.38,2.4,2.4,0,0,1-.95-0.92,2.8,2.8,0,0,1-.24-1h5.6v-0.62h-0.05a5.06,5.06,0,0,0-.22-1.41,3.42,3.42,0,0,0-.78-1.27,2.89,2.89,0,0,0-1.08-.68,4.17,4.17,0,0,0-1.41-.22h0Zm-91,.11-0.46,0-0.24,0,0,0.24-0.14,1-0.05.35,0.38,0,0.65,0c0.16,0,.36,0,0.59,0a7.11,7.11,0,0,1,.95.05,3,3,0,0,1,.7.16,1.3,1.3,0,0,1,.62.46,1.67,1.67,0,0,1,.14.49c-0.57.05-1.12,0.1-1.59,0.19a7.75,7.75,0,0,0-1.41.38,3.51,3.51,0,0,0-1.38.89,2.08,2.08,0,0,0-.54,1.41,2,2,0,0,0,.46,1.3,3,3,0,0,0,1.14.81,5.15,5.15,0,0,0,1.19.32,8,8,0,0,0,1.32.14c0.69,0,1.26,0,1.7-.05l0.73-.05,0.3,0V304.4s0-.46,0-1.22,0-1.6,0-2.62v-0.62h-0.05a4.48,4.48,0,0,0-.19-1.41,2.69,2.69,0,0,0-.76-1.05,3.17,3.17,0,0,0-1.32-.62,7.17,7.17,0,0,0-1.73-.19c-0.41,0-.73,0-1,0h0Zm59.47,0a14.2,14.2,0,0,0-2.11.14,6.14,6.14,0,0,0-1.65.49,4.5,4.5,0,0,0-1.73,1.32,3.14,3.14,0,0,0-.65,2,3.46,3.46,0,0,0,.46,1.87,3.69,3.69,0,0,0,1.22,1.19,5.31,5.31,0,0,0,1.78.7,10,10,0,0,0,2,.22,2,2,0,0,1-.24.81,2.13,2.13,0,0,1-1.11.73,5.78,5.78,0,0,1-1.27.24c-0.47.05-1,.1-1.62,0.11H499l0,0.32,0.14,0.95,0,0.24h0.27a12.53,12.53,0,0,0,2.38-.19,7,7,0,0,0,1.7-.51,3.5,3.5,0,0,0,1.41-1.24,3.79,3.79,0,0,0,.51-2.11c0-.45,0-0.95,0-1.49s0-1.07,0-1.59c0-.77,0-1.56,0-2.41,0-.67,0-0.93,0-1.14,0-.05,0-0.27,0-0.3v-0.32h-1.22Zm4.49,0-0.46,0-0.24,0,0,0.24-0.14,1-0.05.35,0.38,0,0.65,0c0.16,0,.36,0,0.59,0a7.11,7.11,0,0,1,.95.05,3,3,0,0,1,.7.16,1.3,1.3,0,0,1,.62.46,1.61,1.61,0,0,1,.16.49c-0.57.05-1.15,0.1-1.62,0.19a7.75,7.75,0,0,0-1.41.38,3.51,3.51,0,0,0-1.38.89,2,2,0,0,0-.54,1.38,2.07,2.07,0,0,0,.46,1.32,3,3,0,0,0,1.14.81,5.15,5.15,0,0,0,1.19.32,8,8,0,0,0,1.32.14c0.69,0,1.26,0,1.7-.05l0.73-.05,0.3,0V304.4s0-.46,0-1.22,0-1.6,0-2.62v-0.62H513.7a4.48,4.48,0,0,0-.19-1.41,2.69,2.69,0,0,0-.76-1.05,3.17,3.17,0,0,0-1.32-.62,7.17,7.17,0,0,0-1.73-.19c-0.41,0-.73,0-1,0h0Zm-67.28.05a9.26,9.26,0,0,0-2.08.22,6,6,0,0,0-1.78.68,4.15,4.15,0,0,0-1.35,1.3,3.11,3.11,0,0,0-.54,1.76,3.44,3.44,0,0,0,.57,1.95,4.08,4.08,0,0,0,1.59,1.35,6.74,6.74,0,0,0,1.65.57,10,10,0,0,0,1.95.16h0.73v-0.27l0.08-.7h0v-0.27l0-.3h0v0H442l-0.27,0v0H441.5a9.35,9.35,0,0,1-1.43-.11,4.36,4.36,0,0,1-1.14-.32h0a2.44,2.44,0,0,1-1-.78,2,2,0,0,1-.38-1.24,1.93,1.93,0,0,1,.41-1.16,2.27,2.27,0,0,1,1.08-.81h0a5.2,5.2,0,0,1,1.11-.3,9.23,9.23,0,0,1,1.46-.11h0.57l0-.32-0.08-1v-0.27h-0.62Zm88.8,0a9.26,9.26,0,0,0-2.08.22,6,6,0,0,0-1.78.68,4.24,4.24,0,0,0-1.38,1.3,3.08,3.08,0,0,0-.51,1.76,3.44,3.44,0,0,0,.57,1.95,4.08,4.08,0,0,0,1.59,1.35,6.74,6.74,0,0,0,1.65.57,10,10,0,0,0,1.95.16h0.7l0-.27,0.08-.7h0v-0.27l0-.3h0v0h-0.3l-0.27,0v0h-0.24a9,9,0,0,1-1.41-.11,4.57,4.57,0,0,1-1.16-.32,2.44,2.44,0,0,1-1-.78,2,2,0,0,1-.38-1.24,1.93,1.93,0,0,1,.41-1.16,2.27,2.27,0,0,1,1.08-.81,5.44,5.44,0,0,1,1.14-.3,9.23,9.23,0,0,1,1.46-.11h0.54V298l-0.08-1v-0.27h-0.62ZM387.16,298a1.66,1.66,0,0,1,1.22.43,2,2,0,0,1,.41.87h-3.38a2.39,2.39,0,0,1,.51-0.87A1.74,1.74,0,0,1,387.16,298Zm8.19,0a1.6,1.6,0,0,1,1.19.43,2,2,0,0,1,.41.87h-3.38a2.39,2.39,0,0,1,.51-0.87A1.81,1.81,0,0,1,395.35,298Zm73.8,0a1.6,1.6,0,0,1,1.19.43,2,2,0,0,1,.41.87h-3.38a2.39,2.39,0,0,1,.51-0.87A1.81,1.81,0,0,1,469.15,298Zm12.16,0a1.66,1.66,0,0,1,1.22.43,2,2,0,0,1,.41.87h-3.38a2.39,2.39,0,0,1,.51-0.87A1.74,1.74,0,0,1,481.31,298Zm12.49,0a1.6,1.6,0,0,1,1.19.43,2,2,0,0,1,.41.87H492a2.39,2.39,0,0,1,.51-0.87A1.81,1.81,0,0,1,493.8,298Zm41.87,0a1.6,1.6,0,0,1,1.19.43,2,2,0,0,1,.41.87h-3.38a2.39,2.39,0,0,1,.51-0.87A1.81,1.81,0,0,1,535.67,298Zm-187.41.05a2.3,2.3,0,0,1,.78.14,1.75,1.75,0,0,1,.62.35v0a2.24,2.24,0,0,1,.65.95,3.4,3.4,0,0,1,.22,1.22,3.05,3.05,0,0,1-.22,1.14,2.49,2.49,0,0,1-.59.92,1.88,1.88,0,0,1-.65.41,2.28,2.28,0,0,1-.81.14,2.43,2.43,0,0,1-.76-0.11,1.87,1.87,0,0,1-.59-0.35,2.34,2.34,0,0,1-.7-0.95,3.37,3.37,0,0,1-.22-1.24,3.22,3.22,0,0,1,.22-1.16,2.3,2.3,0,0,1,.57-0.87v0a2.08,2.08,0,0,1,.68-0.43A2.14,2.14,0,0,1,348.26,298.07Zm64.47,0a2.15,2.15,0,0,1,.76.14,1.75,1.75,0,0,1,.62.35l0,0a2.24,2.24,0,0,1,.65.95,3.4,3.4,0,0,1,.22,1.22,3.05,3.05,0,0,1-.22,1.14,2.49,2.49,0,0,1-.59.92,1.88,1.88,0,0,1-.65.41,2.28,2.28,0,0,1-.81.14,2.43,2.43,0,0,1-.76-0.11,2,2,0,0,1-.62-0.35,2.27,2.27,0,0,1-.68-0.95,3.37,3.37,0,0,1-.24-1.24,3.22,3.22,0,0,1,.22-1.16,2.35,2.35,0,0,1,.59-0.87v0a2,2,0,0,1,.65-0.43,2.3,2.3,0,0,1,.84-0.14h0Zm90.88,0.14c0,0.45,0,.9,0,1.32s0,0.7,0,1c0,0.09,0,.22,0,0.3v0.3c0,0.52,0,1,0,1.41s0,0.38,0,.51a6.52,6.52,0,0,1-1.27-.14,5.09,5.09,0,0,1-1-.32,2.45,2.45,0,0,1-1-.78,1.87,1.87,0,0,1-.38-1.16,2.08,2.08,0,0,1,.38-1.22,2.3,2.3,0,0,1,1.08-.84,5.12,5.12,0,0,1,1.08-.3,8.12,8.12,0,0,1,1.14-.08h0Zm-98.4.19v1.3c0,1.19,0,2.2,0,2.81s0,0.59,0,.76a7.39,7.39,0,0,1-1.27-.11,4.61,4.61,0,0,1-1.14-.38,2.58,2.58,0,0,1-.92-0.76,1.74,1.74,0,0,1-.35-1.11,2.13,2.13,0,0,1,.38-1.27,2.39,2.39,0,0,1,1.08-.84,5.1,5.1,0,0,1,1.11-.32,8.32,8.32,0,0,1,1.14-.08h0ZM448,300.83c0,0.19,0,.39,0,0.54v0.92c0,0.32,0,.63,0,0.84v0.22h-0.57a8.71,8.71,0,0,1-.95-0.05,4.31,4.31,0,0,1-.78-0.16,1.62,1.62,0,0,1-.68-0.38,0.8,0.8,0,0,1-.19-0.59,0.62,0.62,0,0,1,.24-0.51,2,2,0,0,1,.68-0.41,6.64,6.64,0,0,1,1.38-.3l0.87-.11h0Zm64,0c0,0.19,0,.38,0,0.54v0.92c0,0.32,0,.63,0,0.84v0.22h-0.57a8.71,8.71,0,0,1-.95-0.05,4.31,4.31,0,0,1-.78-0.16,1.62,1.62,0,0,1-.68-0.38,0.8,0.8,0,0,1-.19-0.59,0.62,0.62,0,0,1,.24-0.51,2,2,0,0,1,.68-0.41,6.64,6.64,0,0,1,1.38-.3l0.87-.11h0Z" transform="translate(-32.03 -33.17)"/></g><path id="path3671" class="cls-6" d="M336.68,291.77a5,5,0,0,0-1.7.24,3.34,3.34,0,0,0-1.16.7,2.74,2.74,0,0,0-.7,1.05,3.65,3.65,0,0,0-.19,1.24v0.05h-1.54v1.43h1.54c0,1.54,0,3,0,4.15s0,1.93,0,2V303h1.83v-0.3c0-.09,0-0.8,0-2.13s0-2.6,0-4h2.67v-1.43h-2.67v0a2.44,2.44,0,0,1,.11-0.78,1.11,1.11,0,0,1,.32-0.49,1.66,1.66,0,0,1,.65-0.35,4,4,0,0,1,1.08-.13H337v0.05l0.4-.05h0.13v0h0.05l-0.05-.3v-0.27h0L337.4,292l-0.05-.24h-0.67Zm39.1,0a5,5,0,0,0-1.7.24,3.34,3.34,0,0,0-1.16.7,2.74,2.74,0,0,0-.7,1.05A3.65,3.65,0,0,0,372,295v0.05H370.5v1.43H372c0,1.54,0,3,0,4.15s0,1.93,0,2V303h1.86v-0.3c0-.09,0-0.8,0-2.13s0-2.6,0-4h2.64v-1.43h-2.64v0a2.44,2.44,0,0,1,.11-0.78,1.11,1.11,0,0,1,.32-0.49,1.56,1.56,0,0,1,.62-0.35,4,4,0,0,1,1.08-.13h0.13v0.05l0.4-.05h0.16v0h0.05l-0.05-.3v-0.27h-0.05l-0.11-.67,0-.24h-0.67Zm28.84,0v0.3l0,3.07a10.08,10.08,0,0,0-1.46.11,6.8,6.8,0,0,0-1.59.46,4.2,4.2,0,0,0-1.86,1.43,3.61,3.61,0,0,0-.65,2.13,3.24,3.24,0,0,0,.59,1.89,4,4,0,0,0,1.7,1.32,6.41,6.41,0,0,0,1.72.49,16.62,16.62,0,0,0,2.34.13h1v-0.32c0-.08,0-0.21,0-0.3,0-.54,0-1.1,0-1.81s0-1.73,0-2.75c0-1.28,0-2.58,0-3.83s0-1.91,0-2v-0.3h-1.83Zm81,0,0,0.3c0,1.09,0,2.09,0,3s0,1.58,0,2.16c0,0.89,0,2,0,3.37,0,0.67,0,1.19,0,1.54,0,0.18,0,.31,0,0.4a0.68,0.68,0,0,0,0,.13l-0.05.32h1.89v-0.3s0-.26,0-0.3c0-.2,0-0.52,0-1.43,0-1.09,0-2.37,0-3.83,0-.67,0-1.48,0-2.45s0-1.85,0-2.59v-0.3h-1.86Zm-142.48,3.07-0.3.05a11.22,11.22,0,0,0-1.4.49c-0.44.17-.9,0.4-1.35,0.62v-0.94h-1.81v0.3c0,0.71,0,1.46,0,2.26s0,1.44,0,1.89c0,1.11,0,1.89,0,2.34s0,0.71,0,.81V303h1.83v-0.3c0-.1,0-0.51,0-1.29s0-1.45,0-2c0-.37,0-0.79,0-1.21s0-.36,0-0.49c0.69-.3,1.3-0.57,1.83-0.75s0.73-.25,1-0.32l0.13,0,0.16-.05,0.3-.05-0.05-.3-0.08-.3-0.16-.73-0.08-.27h0Zm39.1,0-0.3.05a11.22,11.22,0,0,0-1.4.49c-0.44.17-.9,0.4-1.35,0.62v-0.94h-1.83l0,0.3c0,0.71,0,1.46,0,2.26s0,1.44,0,1.89c0,1.11,0,1.89,0,2.34s0,0.71,0,.81V303h1.83v-0.3c0-.1,0-0.51,0-1.29s0-1.45,0-2c0-.37,0-0.79,0-1.21s0-.39,0-0.51c0.68-.29,1.31-0.55,1.83-0.73s0.73-.25,1-0.32l0.13,0,0.16-.05,0.3-.05-0.08-.3-0.05-.3-0.16-.73-0.08-.27h0Zm-34.39,0a4.19,4.19,0,0,0-1.56.3A3.89,3.89,0,0,0,345,296a3.81,3.81,0,0,0-.94,1.35,4.48,4.48,0,0,0-.3,1.64,4.56,4.56,0,0,0,.35,1.75,3.87,3.87,0,0,0,1,1.4,3.94,3.94,0,0,0,1.27.75,4.52,4.52,0,0,0,1.51.24,4.31,4.31,0,0,0,1.54-.24,4,4,0,0,0,1.24-.75,3.9,3.9,0,0,0,1-1.43,4.33,4.33,0,0,0,.3-1.4H352v-0.62h-0.05a4.35,4.35,0,0,0-.24-1.37,4,4,0,0,0-1-1.37,3.59,3.59,0,0,0-1.27-.81A4.43,4.43,0,0,0,347.86,294.87Zm9.92,0a4,4,0,0,0-1.54.35,8.56,8.56,0,0,0-.89.49v-0.65h-1.83v0.3c0,0.85,0,1.6,0,2.26s0,1.22,0,1.62c0,1.21,0,2.07,0,2.59s0,0.77,0,.84V303h1.86v-0.3c0-.08,0-0.47,0-1.27s0-1.5,0-2.08c0-.34,0-0.76,0-1.29s0-.62,0-0.75a9.79,9.79,0,0,1,1.13-.57h0a2.42,2.42,0,0,1,.89-0.22,1.6,1.6,0,0,1,.62.11,0.64,0.64,0,0,1,.3.22,0.93,0.93,0,0,1,.16.38,3.57,3.57,0,0,1,.05.57c0,0.23,0,.59,0,1.08s0,0.84,0,1.08c0,0.72,0,1.33,0,1.86s0,0.82,0,.89V303h1.83v-0.3c0-.08,0-0.35,0-0.89s0-1.22,0-2c0-.36,0-0.73,0-1.13s0-.79,0-1.19c0-.09,0-0.17,0-0.24a8,8,0,0,1,1.13-.51,3.09,3.09,0,0,1,.92-0.19,1.22,1.22,0,0,1,.86.24,1.48,1.48,0,0,1,.3,1c0,0.24,0,.61,0,1.1s0,0.84,0,1.05c0,0.55,0,1.13,0,1.75,0,0.31,0,.56,0,0.73s0,0.3,0,.27l0,0.32h1.86v-0.3s0-.22,0-0.3,0-.22,0-0.59c0-.56,0-1.24,0-2,0-.39,0-0.76,0-1.1s0-.78,0-1.29a2.37,2.37,0,0,0-.7-1.78,2.62,2.62,0,0,0-1.89-.67,4.26,4.26,0,0,0-1.4.27,10.88,10.88,0,0,0-1.51.73,2.1,2.1,0,0,0-.65-0.67,2.7,2.7,0,0,0-1.4-.32h0Zm28.94,0a4.21,4.21,0,0,0-1.54.27,3.36,3.36,0,0,0-1.24.84h0a4.3,4.3,0,0,0-.84,1.35,4.23,4.23,0,0,0-.3,1.59,3.64,3.64,0,0,0,.38,1.67,4.12,4.12,0,0,0,.94,1.21,4.53,4.53,0,0,0,1.62.89,7.46,7.46,0,0,0,2.26.3c0.32,0,.62,0,0.86,0l0.43,0,0.22,0,0.05-.24,0.13-.94,0.05-.38-0.38,0-0.46,0c-0.24,0-.49,0-0.78,0a6.31,6.31,0,0,1-1.35-.13,3.37,3.37,0,0,1-.94-0.38,2.39,2.39,0,0,1-.94-0.92,2.77,2.77,0,0,1-.22-1h5.55v-0.62h-0.05A5,5,0,0,0,390,297a3.36,3.36,0,0,0-.75-1.27,3,3,0,0,0-1.1-.67,4,4,0,0,0-1.37-.22h0Zm8.14,0a4.21,4.21,0,0,0-1.54.27,3.36,3.36,0,0,0-1.24.84,4.38,4.38,0,0,0-.86,1.35,4.23,4.23,0,0,0-.27,1.59,3.64,3.64,0,0,0,.38,1.67,4.12,4.12,0,0,0,.94,1.21,4.53,4.53,0,0,0,1.62.89,7.46,7.46,0,0,0,2.26.3c0.32,0,.59,0,0.84,0l0.43,0,0.24,0,0-.24,0.13-.94,0.05-.38-0.38,0-0.46,0c-0.24,0-.49,0-0.78,0a6,6,0,0,1-1.32-.13,3.37,3.37,0,0,1-.94-0.38,2.39,2.39,0,0,1-.94-0.92,2.79,2.79,0,0,1-.24-1h5.58v-0.62h-0.05a5,5,0,0,0-.22-1.4,3.41,3.41,0,0,0-.78-1.27,2.88,2.88,0,0,0-1.08-.67,4.16,4.16,0,0,0-1.4-.22h0Zm17.27,0a4.33,4.33,0,0,0-1.59.3,3.89,3.89,0,0,0-1.32.84,3.73,3.73,0,0,0-.92,1.35A4.48,4.48,0,0,0,408,299a4.54,4.54,0,0,0,.32,1.75h0a3.87,3.87,0,0,0,1,1.4,3.94,3.94,0,0,0,1.27.75,4.52,4.52,0,0,0,1.51.24,4.16,4.16,0,0,0,1.51-.24,4,4,0,0,0,2.26-2.18,4.33,4.33,0,0,0,.3-1.4h0.05v-0.62H416.2a4.36,4.36,0,0,0-.27-1.37,3.92,3.92,0,0,0-.94-1.37,3.7,3.7,0,0,0-1.29-.81,4.29,4.29,0,0,0-1.56-.27h0Zm9.89,0a3.84,3.84,0,0,0-1.51.35,8.83,8.83,0,0,0-.89.49v-0.65h-1.83v0.3c0,0.85,0,1.6,0,2.26s0,1.22,0,1.62c0,1.21,0,2.07,0,2.59s0,0.77,0,.84V303h1.83v-0.3c0-.08,0-0.47,0-1.27s0-1.5,0-2.08c0-.34,0-0.76,0-1.29s0-.59,0-0.73a10,10,0,0,1,1.16-.59,2.54,2.54,0,0,1,.92-0.22,1.6,1.6,0,0,1,.62.11,0.64,0.64,0,0,1,.3.22,0.93,0.93,0,0,1,.13.38,3.56,3.56,0,0,1,.05.57c0,0.23,0,.59,0,1.08s0,0.84,0,1.08c0,0.72,0,1.33,0,1.86s0,0.82,0,.89V303h1.83v-0.3c0-.08,0-0.35,0-0.89s0-1.22,0-2c0-.36,0-0.73,0-1.13s0-.79,0-1.19c0-.09,0-0.17,0-0.24a7.82,7.82,0,0,1,1.1-.51,3.23,3.23,0,0,1,.94-0.19,1.22,1.22,0,0,1,.86.24,1.5,1.5,0,0,1,.27,1c0,0.24,0,.61,0,1.1s0,0.84,0,1.05c0,0.55,0,1.13,0,1.75,0,0.31,0,.56,0,0.73s0,0.3,0,.27l-0.05.32h1.89v-0.3s0-.22,0-0.3,0-.22,0-0.59c0-.56,0-1.24,0-2,0-.39,0-0.76,0-1.1s0-.78,0-1.29a2.37,2.37,0,0,0-.7-1.78,2.62,2.62,0,0,0-1.89-.67,4.12,4.12,0,0,0-1.37.27,10.88,10.88,0,0,0-1.51.73,2.1,2.1,0,0,0-.65-0.67,2.8,2.8,0,0,0-1.43-.32h0Zm33.47,0a3.84,3.84,0,0,0-1.51.35,8.83,8.83,0,0,0-.89.49v-0.65h-1.83v0.3c0,0.85,0,1.6,0,2.26s0,1.22,0,1.62c0,1.21,0,2.07,0,2.59s0,0.77,0,.84V303h1.83v-0.3c0-.08,0-0.47,0-1.27s0-1.5,0-2.08c0-.34,0-0.76,0-1.29s0-.59,0-0.73a10,10,0,0,1,1.16-.59,2.54,2.54,0,0,1,.92-0.22,1.6,1.6,0,0,1,.62.11,0.64,0.64,0,0,1,.3.22,0.93,0.93,0,0,1,.13.38,3.5,3.5,0,0,1,.08.57c0,0.23,0,.59,0,1.08s0,0.84,0,1.08c0,0.72,0,1.33,0,1.86s0,0.82,0,.89V303h1.83v-0.3c0-.08,0-0.35,0-0.89s0-1.22,0-2c0-.36,0-0.73,0-1.13s0-.79,0-1.19c0-.09,0-0.17,0-0.24a8,8,0,0,1,1.13-.51,3.09,3.09,0,0,1,.92-0.19,1.22,1.22,0,0,1,.86.24,1.5,1.5,0,0,1,.27,1c0,0.24,0,.61,0,1.1s0,0.84,0,1.05c0,0.55,0,1.13,0,1.75,0,0.31,0,.56,0,0.73s0,0.3,0,.27l0,0.32h1.86v-0.3s0-.22,0-0.3,0-.22,0-0.59c0-.56,0-1.24,0-2,0-.39,0-0.76,0-1.1s0-.78,0-1.29a2.37,2.37,0,0,0-.7-1.78,2.62,2.62,0,0,0-1.89-.67,4.12,4.12,0,0,0-1.37.27,10.88,10.88,0,0,0-1.51.73,2.1,2.1,0,0,0-.65-0.67,2.8,2.8,0,0,0-1.43-.32h0Zm12.94,0a4.21,4.21,0,0,0-1.54.27,3.36,3.36,0,0,0-1.24.84,4.38,4.38,0,0,0-.86,1.35,4.24,4.24,0,0,0-.3,1.59,3.66,3.66,0,0,0,.4,1.67,4.05,4.05,0,0,0,.92,1.21,4.53,4.53,0,0,0,1.62.89h0a7.46,7.46,0,0,0,2.26.3c0.32,0,.59,0,0.84,0l0.43,0,0.24,0,0-.24,0.13-.94,0.05-.38-0.38,0-0.46,0c-0.24,0-.49,0-0.78,0a6,6,0,0,1-1.32-.13,3.37,3.37,0,0,1-.94-0.38,2.39,2.39,0,0,1-.94-0.92,2.79,2.79,0,0,1-.24-1H472v-0.62h-0.05a5,5,0,0,0-.22-1.4,3.41,3.41,0,0,0-.78-1.27,2.88,2.88,0,0,0-1.08-.67,4.16,4.16,0,0,0-1.4-.22h0Zm12.15,0a4.21,4.21,0,0,0-1.54.27,3.36,3.36,0,0,0-1.24.84,4.38,4.38,0,0,0-.86,1.35,4.24,4.24,0,0,0-.3,1.59,3.64,3.64,0,0,0,.38,1.67,4.12,4.12,0,0,0,.94,1.21,4.53,4.53,0,0,0,1.62.89,7.65,7.65,0,0,0,2.29.3c0.32,0,.59,0,0.84,0l0.43,0,0.22,0,0.05-.24,0.13-.94,0.05-.38-0.38,0-0.46,0c-0.24,0-.49,0-0.78,0a6.31,6.31,0,0,1-1.35-.13,3.37,3.37,0,0,1-.94-0.38,2.31,2.31,0,0,1-.92-0.92,2.79,2.79,0,0,1-.24-1h5.55v-0.62H484a5,5,0,0,0-.22-1.4,3.36,3.36,0,0,0-.75-1.27,3,3,0,0,0-1.1-.67,4,4,0,0,0-1.37-.22h0Zm12.42,0a4.21,4.21,0,0,0-1.54.27,3.36,3.36,0,0,0-1.24.84,4.38,4.38,0,0,0-.86,1.35,4.24,4.24,0,0,0-.3,1.59,3.66,3.66,0,0,0,.4,1.67,4.05,4.05,0,0,0,.92,1.21,4.53,4.53,0,0,0,1.62.89,7.65,7.65,0,0,0,2.29.3c0.32,0,.59,0,0.84,0l0.43,0,0.24,0,0-.24,0.13-.94,0.05-.38-0.38,0-0.46,0c-0.24,0-.49,0-0.78,0a6,6,0,0,1-1.32-.13,3.37,3.37,0,0,1-.94-0.38,2.39,2.39,0,0,1-.94-0.92,2.79,2.79,0,0,1-.24-1h5.58l0-.32v-0.3h-0.05a5.08,5.08,0,0,0-.19-1.4,3.41,3.41,0,0,0-.78-1.27,3,3,0,0,0-1.1-.67,4,4,0,0,0-1.37-.22h0Zm26.57,0a4.37,4.37,0,0,0-1.29.24,11.21,11.21,0,0,0-1.43.62v-0.67H515v0.3c0,0.76,0,1.48,0,2.16s0,1.27,0,1.78c0,1.1,0,1.92,0,2.48s0,0.82,0,.89V303h1.83v-0.3c0-.08,0-0.45,0-1.24s0-1.46,0-2,0-.91,0-1.43,0-.52,0-0.65a9.66,9.66,0,0,1,1.24-.59,3.32,3.32,0,0,1,1.08-.24,1.1,1.1,0,0,1,.86.27,1.62,1.62,0,0,1,.27,1c0,0.22,0,.59,0,1.08s0,0.86,0,1.1,0,0.62,0,1.37,0,1.23,0,1.35l0,0.3h1.86v-0.3s0-.24,0-0.3,0-.28,0-0.75c0-.66,0-1.18,0-1.62,0-.27,0-0.64,0-1.08s0-1,0-1.56a2.4,2.4,0,0,0-.7-1.81,2.51,2.51,0,0,0-1.81-.67h0Zm15.17,0a4.21,4.21,0,0,0-1.54.27A3.36,3.36,0,0,0,532,296a4.38,4.38,0,0,0-.86,1.35,4.24,4.24,0,0,0-.3,1.59,3.66,3.66,0,0,0,.4,1.67,4.12,4.12,0,0,0,.94,1.21,4.53,4.53,0,0,0,1.62.89,7.46,7.46,0,0,0,2.26.3c0.32,0,.59,0,0.84,0l0.43,0,0.24,0,0-.24,0.13-.94,0.05-.38-0.38,0-0.46,0c-0.24,0-.49,0-0.78,0a6,6,0,0,1-1.32-.13,3.37,3.37,0,0,1-.94-0.38,2.39,2.39,0,0,1-.94-0.92,2.79,2.79,0,0,1-.24-1h5.58v-0.62h-0.05A5,5,0,0,0,538,297a3.41,3.41,0,0,0-.78-1.27,2.88,2.88,0,0,0-1.08-.67,4.16,4.16,0,0,0-1.4-.22h0Zm-90.68.11-0.46,0-0.24,0,0,0.24-0.13,1-0.05.35,0.38,0,0.65,0c0.16,0,.36,0,0.59,0a7.09,7.09,0,0,1,.94.05,3,3,0,0,1,.7.16,1.3,1.3,0,0,1,.62.46,1.67,1.67,0,0,1,.13.49c-0.57.05-1.12,0.1-1.59,0.19a7.73,7.73,0,0,0-1.4.38,3.5,3.5,0,0,0-1.37.89,2.07,2.07,0,0,0-.54,1.4,2,2,0,0,0,.46,1.29,3,3,0,0,0,1.13.81A5.13,5.13,0,0,0,445,303a7.94,7.94,0,0,0,1.32.13c0.69,0,1.25,0,1.7-.05l0.73-.05,0.3,0v-0.27s0-.46,0-1.21,0-1.59,0-2.61v-0.62H449a4.47,4.47,0,0,0-.19-1.4,2.68,2.68,0,0,0-.75-1.05,3.16,3.16,0,0,0-1.32-.62A7.14,7.14,0,0,0,445,295c-0.4,0-.73,0-1,0h0Zm59.29,0a14.16,14.16,0,0,0-2.1.13,6.12,6.12,0,0,0-1.64.49,4.49,4.49,0,0,0-1.72,1.32,3.13,3.13,0,0,0-.65,2,3.45,3.45,0,0,0,.46,1.86,3.68,3.68,0,0,0,1.21,1.19,5.29,5.29,0,0,0,1.78.7,10,10,0,0,0,2,.22,2,2,0,0,1-.24.81,2.12,2.12,0,0,1-1.1.73,5.76,5.76,0,0,1-1.27.24c-0.47.05-1,.1-1.62,0.11H498.1l0,0.32,0.13,0.94,0,0.24h0.27a12.49,12.49,0,0,0,2.37-.19,7,7,0,0,0,1.7-.51,3.49,3.49,0,0,0,1.4-1.24,3.78,3.78,0,0,0,.51-2.1c0-.45,0-0.94,0-1.48s0-1.07,0-1.59c0-.76,0-1.55,0-2.4,0-.67,0-0.92,0-1.13,0-.05,0-0.27,0-0.3V295h-1.21Zm4.47,0-0.46,0-0.24,0,0,0.24-0.13,1-0.05.35,0.38,0,0.65,0c0.16,0,.36,0,0.59,0a7.09,7.09,0,0,1,.94.05,3,3,0,0,1,.7.16,1.3,1.3,0,0,1,.62.46,1.6,1.6,0,0,1,.16.49c-0.57.05-1.15,0.1-1.62,0.19a7.73,7.73,0,0,0-1.4.38,3.5,3.5,0,0,0-1.37.89,2,2,0,0,0-.54,1.37,2.06,2.06,0,0,0,.46,1.32,3,3,0,0,0,1.13.81,5.13,5.13,0,0,0,1.19.32,8,8,0,0,0,1.32.13c0.69,0,1.25,0,1.7-.05l0.73-.05,0.3,0v-0.27s0-.46,0-1.21,0-1.59,0-2.61v-0.62h-0.05a4.47,4.47,0,0,0-.19-1.4,2.68,2.68,0,0,0-.75-1.05,3.16,3.16,0,0,0-1.32-.62,7.14,7.14,0,0,0-1.72-.19c-0.4,0-.73,0-1,0h0Zm-67.08.05a9.23,9.23,0,0,0-2.08.22,6,6,0,0,0-1.78.67,4.13,4.13,0,0,0-1.35,1.29A3.1,3.1,0,0,0,435,299a3.43,3.43,0,0,0,.57,1.94,4.07,4.07,0,0,0,1.59,1.35,6.72,6.72,0,0,0,1.64.57,10,10,0,0,0,1.94.16h0.73v-0.27l0.08-.7h0v-0.27l0-.3h0v0h-0.3l-0.27,0v0h-0.22a9.32,9.32,0,0,1-1.43-.11,4.35,4.35,0,0,1-1.13-.32h0a2.43,2.43,0,0,1-1-.78,2,2,0,0,1-.38-1.24,1.93,1.93,0,0,1,.4-1.16,2.27,2.27,0,0,1,1.08-.81h0a5.18,5.18,0,0,1,1.1-.3,9.2,9.2,0,0,1,1.46-.11h0.57l0-.32-0.08-1V295h-0.62Zm88.53,0a9.23,9.23,0,0,0-2.08.22,6,6,0,0,0-1.78.67,4.22,4.22,0,0,0-1.37,1.29,3.08,3.08,0,0,0-.51,1.75,3.43,3.43,0,0,0,.57,1.94,4.07,4.07,0,0,0,1.59,1.35,6.72,6.72,0,0,0,1.64.57,10,10,0,0,0,1.94.16H530l0-.27,0.08-.7h0v-0.27l0-.3h0v0h-0.3l-0.27,0v0h-0.24a9,9,0,0,1-1.4-.11,4.56,4.56,0,0,1-1.16-.32,2.43,2.43,0,0,1-1-.78,2,2,0,0,1-.38-1.24,1.93,1.93,0,0,1,.4-1.16,2.27,2.27,0,0,1,1.08-.81,5.42,5.42,0,0,1,1.13-.3,9.2,9.2,0,0,1,1.46-.11H530v-0.32l-0.08-1V295h-0.62Zm-142.64,1.29a1.66,1.66,0,0,1,1.21.43,2,2,0,0,1,.4.86h-3.37a2.38,2.38,0,0,1,.51-0.86A1.74,1.74,0,0,1,386.64,296.32Zm8.17,0a1.59,1.59,0,0,1,1.19.43,2,2,0,0,1,.4.86H393a2.38,2.38,0,0,1,.51-0.86A1.81,1.81,0,0,1,394.81,296.32Zm73.57,0a1.59,1.59,0,0,1,1.19.43,2,2,0,0,1,.4.86H466.6a2.38,2.38,0,0,1,.51-0.86A1.81,1.81,0,0,1,468.38,296.32Zm12.13,0a1.66,1.66,0,0,1,1.21.43,2,2,0,0,1,.4.86h-3.37a2.38,2.38,0,0,1,.51-0.86A1.74,1.74,0,0,1,480.5,296.32Zm12.45,0a1.59,1.59,0,0,1,1.19.43,2,2,0,0,1,.4.86h-3.37a2.38,2.38,0,0,1,.51-0.86A1.81,1.81,0,0,1,493,296.32Zm41.74,0a1.59,1.59,0,0,1,1.19.43,2,2,0,0,1,.4.86h-3.37a2.38,2.38,0,0,1,.51-0.86A1.81,1.81,0,0,1,534.7,296.32Zm-186.84.05a2.3,2.3,0,0,1,.78.13,1.74,1.74,0,0,1,.62.35v0a2.23,2.23,0,0,1,.65.94,3.39,3.39,0,0,1,.22,1.21,3,3,0,0,1-.22,1.13,2.48,2.48,0,0,1-.59.92,1.88,1.88,0,0,1-.65.4,2.27,2.27,0,0,1-.81.13,2.43,2.43,0,0,1-.75-0.11,1.87,1.87,0,0,1-.59-0.35,2.33,2.33,0,0,1-.7-0.94,3.36,3.36,0,0,1-.22-1.24,3.21,3.21,0,0,1,.22-1.16,2.29,2.29,0,0,1,.57-0.86v0a2.08,2.08,0,0,1,.67-0.43A2.14,2.14,0,0,1,347.86,296.38Zm64.27,0a2.15,2.15,0,0,1,.75.13,1.74,1.74,0,0,1,.62.35l0,0a2.23,2.23,0,0,1,.65.94,3.39,3.39,0,0,1,.22,1.21,3,3,0,0,1-.22,1.13,2.48,2.48,0,0,1-.59.92,1.88,1.88,0,0,1-.65.4,2.27,2.27,0,0,1-.81.13,2.43,2.43,0,0,1-.75-0.11,2,2,0,0,1-.62-0.35,2.26,2.26,0,0,1-.67-0.94,3.36,3.36,0,0,1-.24-1.24,3.21,3.21,0,0,1,.22-1.16,2.34,2.34,0,0,1,.59-0.86v0a2,2,0,0,1,.65-0.43,2.29,2.29,0,0,1,.84-0.13h0Zm90.6,0.13c0,0.45,0,.9,0,1.32s0,0.7,0,1c0,0.09,0,.22,0,0.3v0.3c0,0.51,0,1,0,1.4s0,0.38,0,.51a6.5,6.5,0,0,1-1.27-.13,5.07,5.07,0,0,1-1-.32,2.44,2.44,0,0,1-1-.78,1.86,1.86,0,0,1-.38-1.16,2.07,2.07,0,0,1,.38-1.21,2.29,2.29,0,0,1,1.08-.84,5.11,5.11,0,0,1,1.08-.3,8.09,8.09,0,0,1,1.13-.08h0Zm-98.09.19V298c0,1.19,0,2.19,0,2.8s0,0.59,0,.75a7.36,7.36,0,0,1-1.27-.11,4.6,4.6,0,0,1-1.13-.38,2.57,2.57,0,0,1-.92-0.75,1.74,1.74,0,0,1-.35-1.1,2.12,2.12,0,0,1,.38-1.27,2.38,2.38,0,0,1,1.08-.84,5.08,5.08,0,0,1,1.1-.32,8.29,8.29,0,0,1,1.13-.08h0Zm42.63,2.43c0,0.19,0,.38,0,0.54v0.92c0,0.32,0,.63,0,0.84v0.22h-0.57a8.69,8.69,0,0,1-.94-0.05,4.3,4.3,0,0,1-.78-0.16,1.61,1.61,0,0,1-.67-0.38,0.79,0.79,0,0,1-.19-0.59,0.62,0.62,0,0,1,.24-0.51,2,2,0,0,1,.67-0.4,6.62,6.62,0,0,1,1.37-.3l0.86-.11h0Zm63.76,0c0,0.19,0,.38,0,0.54v0.92c0,0.32,0,.63,0,0.84v0.22h-0.57a8.69,8.69,0,0,1-.94-0.05,4.29,4.29,0,0,1-.78-0.16,1.61,1.61,0,0,1-.67-0.38,0.79,0.79,0,0,1-.19-0.59,0.62,0.62,0,0,1,.24-0.51,2,2,0,0,1,.67-0.4,6.62,6.62,0,0,1,1.37-.3l0.86-.11h0Z" transform="translate(-32.03 -33.17)"/><path id="path2594" class="cls-7" d="M478.68,287.19h-5.89V236a5.43,5.43,0,0,0-.36-1.6,5.59,5.59,0,0,0-2.6-3.13,7.6,7.6,0,0,0-3.66-.81,1.92,1.92,0,0,0-.36.08,1.33,1.33,0,0,1-.36.1,3.8,3.8,0,0,0-1.6.63,5.33,5.33,0,0,0-2.51,2.86,5,5,0,0,0-.53,1.87v51.19h-5.89V236s0-.31-0.1-0.79a6.79,6.79,0,0,0-1-2.15,5.94,5.94,0,0,0-4.12-2.6h-2a4.48,4.48,0,0,0-1.62.63,5.24,5.24,0,0,0-3,4.22,0.42,0.42,0,0,0-.08.26v51.62H437V235.83a10,10,0,0,1,.79-3.76c0.25-.55.58-1.16,1-1.89a10.47,10.47,0,0,1,3.8-3.8,11.4,11.4,0,0,1,5.33-1.74,12.87,12.87,0,0,1,2-.08,1.35,1.35,0,0,1,.45.08,3.4,3.4,0,0,0,.45.08,10.6,10.6,0,0,1,3,.89,3.26,3.26,0,0,1,.79.36,14.83,14.83,0,0,1,3.23,2.68,15.41,15.41,0,0,1,2.51-2.23,13.11,13.11,0,0,1,7.41-1.87,1.24,1.24,0,0,1,.45.08,4,4,0,0,0,.46.08,9.46,9.46,0,0,1,2.86.81,10.46,10.46,0,0,1,6.35,6.53,13,13,0,0,1,.79,3.76v51.35h0Z" transform="translate(-32.03 -33.17)"/><polygon id="polygon2596" class="cls-7" points="458.36 254.01 452.28 254.01 452.28 218.23 452.28 218.23 458.36 218.23 458.36 254.01"/><path id="path2598" class="cls-7" d="M519.64,287.19h-5.89V262.93c0-.12,0-0.41-0.1-0.89a5.48,5.48,0,0,0-4.2-4.38,8.38,8.38,0,0,0-2.15-.18,1.62,1.62,0,0,0-.4.1l-0.31.08a5,5,0,0,0-1.7.63A5.07,5.07,0,0,0,502,262.4a0.35,0.35,0,0,0-.1.26v24.52h-6.09V251.4h6.09a7.07,7.07,0,0,0,0,1.42,15.54,15.54,0,0,1,6.57-1.42,4.75,4.75,0,0,1,.55.1l0.53,0.08a9,9,0,0,1,4.58,1.7,10.19,10.19,0,0,1,3.61,3.58,10.68,10.68,0,0,1,1.89,5.72v24.6h0Z" transform="translate(-32.03 -33.17)"/><path id="path2600" class="cls-7" d="M537.36,257.47h-5.91v18.45a3.81,3.81,0,0,1,.18.79,5.21,5.21,0,0,0,3.49,3.94,5.94,5.94,0,0,0,.71.18,0.07,0.07,0,0,1,.08.08H536a1.34,1.34,0,0,1,.36.1,1.07,1.07,0,0,0,.35.08h0.63v6.09a14,14,0,0,1-6.53-1.87,10.2,10.2,0,0,1-3.58-3.59,11.22,11.22,0,0,1-1.88-5.9V233.5h6.09v17.8h5.91v6.17h0Z" transform="translate(-32.03 -33.17)"/><path id="path2604" class="cls-7" d="M486.44,247.68a2.29,2.29,0,0,1-2.33-2.22v-0.55h0V238.2h-0.68v-2.28l3.56,0h0.53a2.26,2.26,0,0,1,2.33,2.2v9.55h-3.41Z" transform="translate(-32.03 -33.17)"/><g id="g3524"><polygon id="polygon2586" points="323.83 254.01 319.27 254.01 319.27 217.86 319.27 217.86 323.83 217.86 323.83 254.01"/><path id="path2588" d="M378.89,287.19h-4.57V259.84a4.56,4.56,0,0,0-9.12,0v27.35h-4.55V259.84a9.12,9.12,0,0,1,18.23,0v27.35h0Z" transform="translate(-32.03 -33.17)"/><path id="path2590" d="M400.53,278.07a9.12,9.12,0,0,1-18.23,0V250.72h4.57v27.35a4.56,4.56,0,0,0,9.12,0V250.72h4.55v27.34h0Z" transform="translate(-32.03 -33.17)"/><polygon id="polygon2592" points="371.91 217.55 376.94 217.55 381.04 228.87 385.14 217.55 390.15 217.55 383.54 235.78 390.15 254.01 390.15 254.01 385.14 254.01 381.04 242.7 376.94 254.01 371.91 254.01 378.52 235.78 371.91 217.55"/><path id="path2602" d="M353.69,248a2.27,2.27,0,0,1-2.32-2.22v-0.55h0v-6.72h-0.69v-2.28l2.32,0h0.53a2.26,2.26,0,0,1,2.32,2.2V248h-2.16Z" transform="translate(-32.03 -33.17)"/><path id="polygon3803" d="M332.78,224.49V278a9.13,9.13,0,0,0,8.68,9.11v0h5.09v-4.58h-4.64a4.19,4.19,0,0,1-3.23-1.27,3.92,3.92,0,0,1-1.35-3V224.49h-4.55Z" transform="translate(-32.03 -33.17)"/></g><g id="path3543" class="cls-8"><path d="M255.78,302.08c-19.15,0-35.76-14.52-35.76-33.65l0-19.78v-5.92H207.86v-33L259.05,210l16,0c19.17,0,35.76,14.5,35.76,33.65v58.39H255.78Z" transform="translate(-32.03 -33.17)"/></g><path id="path2576" class="cls-9" d="M303.77,286.91V244.27c0-14.25-12.49-25.79-27.91-25.79h-16v0l-43.27-.19v15.56h6.64c4.64,0,5.46,3.2,5.46,7.63l0,27.5c0,14.25,12.49,25.79,27.89,25.79h38c4.87,0,9.14-3.09,9.14-7.83h0Z" transform="translate(-32.03 -33.17)"/><g id="path3419" class="cls-10"><path class="cls-11" d="M300,290.51a71.25,71.25,0,0,1-22.41-24.58c-11.43-21.12-8.76-31.6-37.07-34.08-8.17,0-13.61-1.81-22.21-1.81v3a16.9,16.9,0,0,0,6.39,1.72c4.45,0,5.23,3.09,5.23,7.35l0,26.36c0,13.69,12,24.78,26.81,24.78h36.51A9.36,9.36,0,0,0,300,290.51Z" transform="translate(-32.03 -33.17)"/></g><path id="path2620" class="cls-12" d="M266.16,234.46a12.38,12.38,0,0,0-9,3.79,12.68,12.68,0,0,0-3.78,9.15V265.2h8.08V247.4a4.51,4.51,0,0,1,1.4-3.38,4.61,4.61,0,0,1,6.66,0,4.51,4.51,0,0,1,1.4,3.38V265.2H279V247.4a4.51,4.51,0,0,1,1.4-3.38,4.61,4.61,0,0,1,6.66,0,4.51,4.51,0,0,1,1.4,3.38l0,20.81c0,4.44-4.23,8.18-9.66,8.18l-26-.1c-4.19,0-7.77-4.08-7.77-9.32V227.78h-7.64v40.69a15.82,15.82,0,0,0,14,15.67v0.15h29a15.71,15.71,0,0,0,11.53-4.87h0a16.15,16.15,0,0,0,4.64-9.79l0-22.23a12.68,12.68,0,0,0-3.78-9.15,12.61,12.61,0,0,0-17.82-.2,12.33,12.33,0,0,0-8.76-3.58h0Z" transform="translate(-32.03 -33.17)"/><path id="path4130" class="cls-4" d="M265.51,234.67a12.38,12.38,0,0,0-9,3.79,12.68,12.68,0,0,0-3.78,9.15v17.81h8.08V247.61a4.51,4.51,0,0,1,1.4-3.38,4.61,4.61,0,0,1,6.66,0,4.51,4.51,0,0,1,1.4,3.38v17.81h8.08V247.61a4.51,4.51,0,0,1,1.4-3.38,4.61,4.61,0,0,1,6.66,0,4.51,4.51,0,0,1,1.4,3.38l0,20.81c0,4.44-4.23,8.18-9.66,8.18l-26-.1c-4.19,0-7.77-4.08-7.77-9.32V228h-7.64v40.69a15.31,15.31,0,0,0,4.65,11.16,15.61,15.61,0,0,0,9.34,4.65h29a15.71,15.71,0,0,0,11.53-4.87h0a16.15,16.15,0,0,0,4.64-9.79l0-22.23a12.68,12.68,0,0,0-3.78-9.15,12.61,12.61,0,0,0-17.82-.2,12.33,12.33,0,0,0-8.76-3.58h0Z" transform="translate(-32.03 -33.17)"/><path id="path4132" class="cls-13" d="M260.76,276.52v8h19a15.67,15.67,0,0,0,11.51-4.88h0a16.12,16.12,0,0,0,4.64-9.78v-4.53h-8.06v3.1c0,4.44-4.22,8.17-9.65,8.17l-17.44-.05h0Z" transform="translate(-32.03 -33.17)"/><path id="path6141" class="cls-4" d="M256.36,300.65c-18.36,0-34.29-13.92-34.29-32.26l0-22.27v-5.68H210.41v-28.3l49.09,0.23,15.35,0c18.38,0,34.29,13.9,34.29,32.26v56H256.36Zm45.31-15v-41c0-13.69-12-24.78-26.81-24.78H259.48v0l-41.57-.18V233h4.66a7.41,7.41,0,0,1,7,7.33l0,28.08c0,13.69,12,24.78,26.8,24.78h36.53c4.68,0,8.78-3,8.78-7.52h0Z" transform="translate(-32.03 -33.17)"/></g></g><circle class="cls-14" cx="309.91" cy="19.27" r="19.27"/><path class="cls-4" d="M328.83,49.87a2.57,2.57,0,1,0,2.57,2.57A2.57,2.57,0,0,0,328.83,49.87Zm18.37,11.7a2.57,2.57,0,1,0,3.51.94A2.57,2.57,0,0,0,347.21,61.57Zm-12.78-9.12a7.51,7.51,0,0,1,3.2-6.15l-1.88-3.15a11.2,11.2,0,0,0-4.62,6.5,3.61,3.61,0,0,1,0,5.61,11.19,11.19,0,0,0,4.62,6.5l1.88-3.15A7.5,7.5,0,0,1,334.42,52.45Zm7.52-7.52a7.52,7.52,0,0,1,7.49,6.85l3.67-.05a11.15,11.15,0,0,0-3.32-7.25,3.61,3.61,0,0,1-4.85-2.8,11.18,11.18,0,0,0-7.94.75l1.79,3.2A7.5,7.5,0,0,1,341.94,44.93Zm0,15a7.48,7.48,0,0,1-3.17-.7L337,62.47a11.17,11.17,0,0,0,7.94.75,3.61,3.61,0,0,1,4.85-2.8,11.14,11.14,0,0,0,3.32-7.25l-3.67-.05A7.52,7.52,0,0,1,341.94,60Zm5.27-16.64a2.57,2.57,0,1,0-.94-3.51A2.57,2.57,0,0,0,347.21,43.33Z" transform="translate(-32.03 -33.17)"/><path d="M77.71,103q-2.94.74-7.76,1.56a66.58,66.58,0,0,1-11.15.83,23.67,23.67,0,0,1-9.27-1.6,15,15,0,0,1-6.06-4.54,18.43,18.43,0,0,1-3.3-6.93,36.07,36.07,0,0,1-1-8.86V56.67H47.7v25q0,8.72,2.75,12.48t9.27,3.76q1.38,0,2.85-.09t2.75-.23l2.34-.27A6.88,6.88,0,0,0,69.17,97V56.67h8.54V103h0Z" transform="translate(-32.03 -33.17)"/><path d="M98.54,58.78a23.06,23.06,0,0,1,4.73-2.11,22.16,22.16,0,0,1,7.3-1.1,21.64,21.64,0,0,1,9.13,1.83,19,19,0,0,1,6.75,5.14,22.66,22.66,0,0,1,4.18,7.89A34,34,0,0,1,132,80.54,30.15,30.15,0,0,1,130.34,91a21.91,21.91,0,0,1-4.82,7.85,21.22,21.22,0,0,1-7.53,5,26.76,26.76,0,0,1-9.91,1.74,60,60,0,0,1-10.55-.83Q92.94,103.85,90,103V34.65l8.54-1.47V58.78Zm0,38.18a27.57,27.57,0,0,0,3.63.69A43.73,43.73,0,0,0,108,98a14.16,14.16,0,0,0,11-4.54q4.13-4.54,4.13-12.9a30.87,30.87,0,0,0-.73-6.88A15.53,15.53,0,0,0,120,68.1a11.55,11.55,0,0,0-4.27-3.67,13.74,13.74,0,0,0-6.29-1.33A16.92,16.92,0,0,0,103,64.29a17.59,17.59,0,0,0-4.5,2.48V97h0Z" transform="translate(-32.03 -33.17)"/><path d="M179.68,103q-2.94.74-7.76,1.56a66.58,66.58,0,0,1-11.15.83,23.68,23.68,0,0,1-9.27-1.6,15,15,0,0,1-6.06-4.54,18.43,18.43,0,0,1-3.3-6.93,36.08,36.08,0,0,1-1-8.86V56.67h8.54v25q0,8.72,2.75,12.48t9.27,3.76q1.38,0,2.85-.09t2.75-.23l2.34-.27a6.87,6.87,0,0,0,1.51-.32V56.67h8.54V103h0Z" transform="translate(-32.03 -33.17)"/><path d="M192,58.05q2.94-.73,7.8-1.56a67.53,67.53,0,0,1,11.2-.83,24.21,24.21,0,0,1,9.45,1.61,14.81,14.81,0,0,1,6,4.5,17.43,17.43,0,0,1,3.17,6.93,40.29,40.29,0,0,1,.92,8.9v26.8H222v-25a40.84,40.84,0,0,0-.6-7.53,12.72,12.72,0,0,0-2-5,7.81,7.81,0,0,0-3.67-2.8,16.14,16.14,0,0,0-5.69-.87q-1.38,0-2.85.09t-2.8.23q-1.33.14-2.39,0.32l-1.51.27V104.4H192V58.05h0Z" transform="translate(-32.03 -33.17)"/><path d="M250.25,56.67h18.08v7.16H250.25v22a26.46,26.46,0,0,0,.55,5.92,8.88,8.88,0,0,0,1.65,3.67,5.94,5.94,0,0,0,2.75,1.88,12.2,12.2,0,0,0,3.85.55,18,18,0,0,0,6.24-.87q2.29-.87,3.12-1.24l1.84,7a33.93,33.93,0,0,1-4.54,1.65,25,25,0,0,1-7.39,1,22.26,22.26,0,0,1-8-1.24,11.69,11.69,0,0,1-5.09-3.72,14.87,14.87,0,0,1-2.71-6.1,40.13,40.13,0,0,1-.78-8.4V43.37l8.54-1.47V56.67h0Z" transform="translate(-32.03 -33.17)"/><path d="M314.77,103q-2.94.74-7.76,1.56a66.57,66.57,0,0,1-11.15.83,23.68,23.68,0,0,1-9.27-1.6,15,15,0,0,1-6.06-4.54,18.44,18.44,0,0,1-3.3-6.93,36.06,36.06,0,0,1-1-8.86V56.67h8.54v25q0,8.72,2.75,12.48t9.27,3.76q1.38,0,2.84-.09t2.75-.23l2.34-.27a6.87,6.87,0,0,0,1.51-.32V56.67h8.54V103h0Z" transform="translate(-32.03 -33.17)"/><g id="layer2"><path id="path2998" class="cls-15" d="M112.25,139.07c19.05,0,46.63,41,46.63,63.77,0,27.33-32.64,27.33-46.63,27.33s-46.63,0-46.63-27.33C65.62,180.06,93.2,139.07,112.25,139.07Z" transform="translate(-32.03 -33.17)"/><g id="g3791"><path id="path3017" class="cls-16" d="M112.9,161.62h2.6c-9.52,24.09-23.86,30.3-30.37,35.57-1.76-5.89-.94-15.37,1.74-20A67.26,67.26,0,0,0,112.9,161.62Z" transform="translate(-32.03 -33.17)"/><path id="path3787" class="cls-16" d="M120.71,162.49c6.06,13.56,6.81,33.35-2.6,55.52-8.47,1.1-15.81.33-20.82-4.34C110.51,201.5,116,182.36,120.71,162.49Z" transform="translate(-32.03 -33.17)"/><path id="path3789" class="cls-16" d="M128.52,166c18.2,15.24,12.6,28.34,8.68,40.78C136.69,193.44,135.56,179.26,128.52,166Z" transform="translate(-32.03 -33.17)"/></g></g><g id="layer1-3" data-name="layer1"><g id="g2424"><g id="g2809"><path id="path2284" class="cls-17" d="M133.26,341.79a32.61,32.61,0,0,0-9.83,1.44l-1.51,8.15s7.52-2,10.83-1.89c5.48,0.2,6,2.1,5.89,4.66,0.09,0.15-1.41-2.32-6.16-2.4-6-.1-14.43,2.12-14.42,11.15-0.16,10.16,7.59,13.15,12.87,13.21a12.55,12.55,0,0,0,8.19-2.71c1.6-1.67,3.43-3.36,5.18-5.38a32.4,32.4,0,0,1-4.58,6.67V376l7.22-1.21,0-19.61C146.92,352.44,148.58,341.81,133.26,341.79Zm-1,17.08c3,0,6.42,1.52,6.43,5.06,0,3.23-4,5-6.68,4.94s-6.14-2.08-6.16-5.22C125.86,360.83,129.11,358.79,132.22,358.87Z" transform="translate(-32.03 -33.17)"/><path id="path2286" class="cls-17" d="M151.75,343.6l0,32.48,8.41-1.62V356c0-2.74,3.92-5.95,8.83-5.9,1-1.89,3-6.71,3.48-7.81-11,0-11.12,3.16-13,4.72,0-3,0-4.78,0-4.78l-7.65,1.31h0Z" transform="translate(-32.03 -33.17)"/><path id="path2288" class="cls-17" d="M199.06,347.86c-0.08,0-4.38-5-13-5.07-8.1-.13-17.19,3-17.34,16.59,0.07,11.95,8.73,16.61,17.38,16.71,9.26,0.1,12.94-5.79,13.16-5.94-1.1-1-5.24-5.06-5.24-5.06a9.81,9.81,0,0,1-7.6,3.73,9.33,9.33,0,0,1-9.44-9.35c-0.06-5.48,4-8.44,9.48-8.68a10.55,10.55,0,0,1,7.46,3.06l5.17-6h0Z" transform="translate(-32.03 -33.17)"/><path id="path2290" class="cls-17" d="M209.65,332.23l-7.94,1.87,0.06,42.31,7.82-1.41,0.09-19.91c0-2.09,3-5.29,8-5.19,4.8,0,5.87,3.2,5.85,3.59l0.14,23,7.71-1.36,0-24.44c0.05-2.35-5.15-7.32-13.51-7.35-4,0-6.17.91-7.29,1.57-1.92,1.48-4.11,2.9-6.26,4.71a33.51,33.51,0,0,1,5.29-5.64l0-11.79h0Z" transform="translate(-32.03 -33.17)"/></g><g id="g5326"><path id="path2292" class="cls-18" d="M238.15,333.33l3.58-.9,0.17,42.65-3.64.62Z" transform="translate(-32.03 -33.17)"/><path id="path2294" class="cls-18" d="M247.88,346.06l3.14-1.4,0,30.58-3,.63Zm-0.75-11,2.53-2.06,2.1,2.34-2.53,2.12Z" transform="translate(-32.03 -33.17)"/><path id="path2296" class="cls-18" d="M256.92,345.5l3.58-.73,0,6.39c0,0.27,2-7.14,11.45-7,9.2,0.05,10.71,7.18,10.66,8.77l0.11,22.48-3.14.68,0-22.21c0-.65-1.43-6.13-7.94-6.15s-11,4.72-11,7.75l0.05,19.56-3.64.95-0.14-30.53h0Z" transform="translate(-32.03 -33.17)"/><path id="path2298" class="cls-18" d="M314,375.61l-3.58.73,0-6.39c0-.27-2,7.14-11.45,7-9.2-.05-10.71-7.18-10.66-8.77l-0.11-22.48,3.8-.77L292,367.11c0,0.61.73,6.22,7.23,6.24s11.06-3.92,11.09-9.84l0-17.52,3.54-.9L314,375.61h0Z" transform="translate(-32.03 -33.17)"/><path id="path2300" class="cls-18" d="M321,345.25l-2.51,2,9.62,12.6-10.27,14.55,2.66,2,9.65-13.51,10,13.83,2.46-2L331.9,359.9l8.52-12-2.62-2.21L330,356.8,321,345.25h0Z" transform="translate(-32.03 -33.17)"/></g><path id="path2518" class="cls-18" d="M79.06,312.73c-4.19,10.27-6.71,17-11.38,26.95a73.45,73.45,0,0,0,12.07,10.55,49.94,49.94,0,0,1-13.43-7.68C60.35,355,51,372.73,32,406.83c14.91-8.61,26.47-13.92,37.25-15.94a27.3,27.3,0,0,1-.71-6.39l0-.48c0.24-9.55,5.21-16.9,11.09-16.4s10.46,8.65,10.23,18.21a27,27,0,0,1-.6,5.13c10.66,2.08,22.09,7.38,36.8,15.87-2.9-5.34-5.49-10.15-8-14.74-3.89-3-8-6.95-16.24-11.2a48.49,48.49,0,0,1,13,5.1C89.72,339.18,87.68,333,79.06,312.73Z" transform="translate(-32.03 -33.17)"/><g id="text2634"><path id="path3945" class="cls-18" d="M347.26,373.73v-2.64h-1v-0.35h2.37v0.35h-1v2.64h-0.4" transform="translate(-32.03 -33.17)"/><path id="path3947" class="cls-18" d="M349.06,373.73v-3h0.6l0.71,2.12,0.14,0.44,0.16-.48,0.72-2.08h0.53v3h-0.38v-2.5l-0.87,2.5h-0.36l-0.87-2.55v2.55h-0.38" transform="translate(-32.03 -33.17)"/></g><g id="text2638"><path id="path3940" class="cls-18" d="M126.57,398.43v-2.58h-1V395.5h2.32v0.35h-1v2.58h-0.39" transform="translate(-32.03 -33.17)"/><path id="path3942" class="cls-18" d="M128.33,398.43V395.5h0.58l0.69,2.07,0.14,0.43,0.16-.47,0.7-2h0.52v2.93h-0.37V396l-0.85,2.45h-0.35l-0.85-2.49v2.49h-0.37" transform="translate(-32.03 -33.17)"/></g></g></g></svg>