<?xml version="1.0" encoding="utf-8"?>
<!-- Generator: Adobe Illustrator 19.2.0, SVG Export Plug-In . SVG Version: 6.00 Build 0)  -->
<svg version="1.1" id="Layer_1" xmlns="http://www.w3.org/2000/svg" xmlns:xlink="http://www.w3.org/1999/xlink" x="0px" y="0px"
	 viewBox="0 0 800 440" style="enable-background:new 0 0 800 440;" xml:space="preserve">
<style type="text/css">
	.st0{fill:#E8E8E8;}
	.st1{fill:#FFFFFF;}
	.st2{fill:#BDBDBD;stroke:#000000;stroke-miterlimit:10;}
	.st3{fill:#FFFFFF;stroke:#000000;stroke-miterlimit:10;}
	.st4{fill:#FFCB8B;}
	.st5{fill:#9FCB8B;}
	.st6{fill:#9F7EA7;}
	.st7{fill:#42C093;}
	.st8{fill:#C57CAF;}
</style>
<rect x="197.7" y="69.6" class="st0" width="582.3" height="302.3"/>
<path class="st1" d="M594.9,61.1H405.1c-2.8,0-5.1,2.3-5.1,5.1v23.2c0,2.8,2.3,5.1,5.1,5.1h189.9c2.8,0,5.1-2.3,5.1-5.1V66.2
	C600,63.4,597.7,61.1,594.9,61.1z"/>
<rect x="207.7" y="371.9" class="st2" width="584.7" height="61.1"/>
<rect x="239" y="278.3" class="st3" width="522.1" height="93.6"/>
<rect x="239" y="127.7" class="st3" width="522.1" height="150.6"/>
<g>
	<path d="M465,408.6h-1.7v-7h-7.9v7h-1.7v-15h1.7v6.4h7.9v-6.4h1.7V408.6z"/>
	<path d="M475.8,408.6l-0.3-1.6h-0.1c-0.6,0.7-1.1,1.2-1.7,1.4s-1.3,0.4-2.1,0.4c-1.1,0-2-0.3-2.6-0.9c-0.6-0.6-0.9-1.4-0.9-2.4
		c0-2.3,1.8-3.5,5.4-3.6l1.9-0.1v-0.7c0-0.9-0.2-1.5-0.6-2s-1-0.6-1.8-0.6c-0.9,0-2,0.3-3.2,0.9l-0.5-1.3c0.6-0.3,1.2-0.5,1.8-0.7
		c0.7-0.2,1.3-0.3,2-0.3c1.3,0,2.3,0.3,3,0.9c0.6,0.6,1,1.5,1,2.9v7.7H475.8z M471.9,407.4c1.1,0,1.9-0.3,2.5-0.9s0.9-1.4,0.9-2.4
		v-1l-1.7,0.1c-1.4,0-2.3,0.3-2.9,0.6c-0.6,0.4-0.9,1-0.9,1.7c0,0.6,0.2,1.1,0.6,1.4C470.7,407.3,471.3,407.4,471.9,407.4z"/>
	<path d="M485.6,397.2c0.5,0,0.9,0,1.3,0.1l-0.2,1.6c-0.5-0.1-0.9-0.2-1.2-0.2c-0.9,0-1.7,0.4-2.3,1.1c-0.6,0.7-1,1.7-1,2.8v6h-1.7
		v-11.2h1.4l0.2,2.1h0.1c0.4-0.7,0.9-1.3,1.5-1.7C484.3,397.4,484.9,397.2,485.6,397.2z"/>
	<path d="M496.7,407.1L496.7,407.1c-0.9,1.1-2.1,1.7-3.6,1.7c-1.5,0-2.6-0.5-3.4-1.5s-1.2-2.4-1.2-4.3c0-1.8,0.4-3.3,1.2-4.3
		c0.8-1,2-1.5,3.4-1.5c1.5,0,2.7,0.6,3.5,1.7h0.1l-0.1-0.8l0-0.8v-4.6h1.7v15.9h-1.4L496.7,407.1z M493.3,407.4c1.2,0,2-0.3,2.5-0.9
		c0.5-0.6,0.8-1.6,0.8-3.1V403c0-1.6-0.3-2.7-0.8-3.4c-0.5-0.7-1.4-1-2.5-1c-1,0-1.8,0.4-2.3,1.2s-0.8,1.9-0.8,3.3
		c0,1.4,0.3,2.5,0.8,3.2C491.5,407,492.3,407.4,493.3,407.4z"/>
	<path d="M511.1,408.6L509,402c-0.1-0.4-0.4-1.3-0.7-2.7h-0.1c-0.3,1.2-0.5,2.1-0.7,2.8l-2.1,6.6h-2l-3.1-11.2h1.8
		c0.7,2.8,1.3,5,1.7,6.4c0.4,1.5,0.6,2.5,0.7,3h0.1c0.1-0.4,0.2-0.9,0.4-1.5c0.2-0.6,0.3-1.1,0.4-1.5l2.1-6.4h1.8l2,6.4
		c0.4,1.2,0.6,2.2,0.8,3h0.1c0-0.2,0.1-0.6,0.2-1.1s0.8-3.3,2.1-8.3h1.8l-3.1,11.2H511.1z"/>
	<path d="M525.1,408.6l-0.3-1.6h-0.1c-0.6,0.7-1.1,1.2-1.7,1.4s-1.3,0.4-2.1,0.4c-1.1,0-2-0.3-2.6-0.9s-0.9-1.4-0.9-2.4
		c0-2.3,1.8-3.5,5.4-3.6l1.9-0.1v-0.7c0-0.9-0.2-1.5-0.6-2s-1-0.6-1.8-0.6c-0.9,0-2,0.3-3.2,0.9l-0.5-1.3c0.6-0.3,1.2-0.5,1.8-0.7
		c0.7-0.2,1.3-0.3,2-0.3c1.3,0,2.3,0.3,3,0.9c0.6,0.6,1,1.5,1,2.9v7.7H525.1z M521.3,407.4c1.1,0,1.9-0.3,2.5-0.9
		c0.6-0.6,0.9-1.4,0.9-2.4v-1l-1.7,0.1c-1.4,0-2.3,0.3-2.9,0.6c-0.6,0.4-0.9,1-0.9,1.7c0,0.6,0.2,1.1,0.6,1.4
		C520.1,407.3,520.6,407.4,521.3,407.4z"/>
	<path d="M535,397.2c0.5,0,0.9,0,1.3,0.1l-0.2,1.6c-0.5-0.1-0.9-0.2-1.2-0.2c-0.9,0-1.7,0.4-2.3,1.1c-0.6,0.7-1,1.7-1,2.8v6h-1.7
		v-11.2h1.4l0.2,2.1h0.1c0.4-0.7,0.9-1.3,1.5-1.7C533.7,397.4,534.3,397.2,535,397.2z"/>
	<path d="M543.2,408.8c-1.7,0-3-0.5-3.9-1.5c-1-1-1.4-2.4-1.4-4.2c0-1.8,0.4-3.2,1.3-4.3c0.9-1.1,2.1-1.6,3.6-1.6
		c1.4,0,2.5,0.5,3.3,1.4c0.8,0.9,1.2,2.1,1.2,3.7v1.1h-7.7c0,1.3,0.4,2.3,1,3c0.6,0.7,1.5,1,2.7,1c1.2,0,2.4-0.3,3.6-0.8v1.5
		c-0.6,0.3-1.2,0.4-1.7,0.6C544.6,408.8,543.9,408.8,543.2,408.8z M542.7,398.6c-0.9,0-1.6,0.3-2.2,0.9c-0.5,0.6-0.9,1.4-0.9,2.4
		h5.9c0-1.1-0.2-1.9-0.7-2.5C544.3,398.9,543.6,398.6,542.7,398.6z"/>
</g>
<g>
	<path d="M468,335.7h-3.5l-9.4-12.4l-2.7,2.4v10.1h-3V310h3v12.7L464,310h3.5l-10.3,11.1L468,335.7z"/>
	<path d="M479.2,336c-2.8,0-5.1-0.9-6.7-2.6s-2.5-4.1-2.5-7.2c0-3.1,0.8-5.6,2.3-7.4c1.5-1.8,3.6-2.7,6.2-2.7c2.4,0,4.3,0.8,5.7,2.4
		s2.1,3.7,2.1,6.3v1.8H473c0.1,2.3,0.6,4,1.7,5.1s2.6,1.8,4.6,1.8c2.1,0,4.1-0.4,6.1-1.3v2.6c-1,0.4-2,0.8-2.9,1
		S480.5,336,479.2,336z M478.4,318.5c-1.5,0-2.8,0.5-3.7,1.5s-1.5,2.4-1.6,4.2h10.1c0-1.8-0.4-3.2-1.2-4.2S479.9,318.5,478.4,318.5z
		"/>
	<path d="M500,316.1c0.9,0,1.6,0.1,2.3,0.2l-0.4,2.7c-0.8-0.2-1.5-0.3-2.1-0.3c-1.6,0-2.9,0.6-4,1.9c-1.1,1.3-1.7,2.8-1.7,4.7v10.3
		h-2.9v-19.2h2.4l0.3,3.6h0.1c0.7-1.3,1.6-2.2,2.6-2.9C497.7,316.4,498.8,316.1,500,316.1z"/>
	<path d="M519,335.7v-12.4c0-1.6-0.4-2.7-1.1-3.5c-0.7-0.8-1.8-1.2-3.4-1.2c-2,0-3.5,0.5-4.4,1.6c-0.9,1.1-1.4,2.9-1.4,5.4v10.1
		h-2.9v-19.2h2.4l0.5,2.6h0.1c0.6-0.9,1.4-1.7,2.5-2.2c1.1-0.5,2.3-0.8,3.6-0.8c2.3,0,4.1,0.6,5.2,1.7s1.8,2.9,1.8,5.4v12.5H519z"/>
	<path d="M536.1,336c-2.8,0-5.1-0.9-6.7-2.6s-2.5-4.1-2.5-7.2c0-3.1,0.8-5.6,2.3-7.4c1.5-1.8,3.6-2.7,6.2-2.7c2.4,0,4.3,0.8,5.7,2.4
		c1.4,1.6,2.1,3.7,2.1,6.3v1.8h-13.2c0.1,2.3,0.6,4,1.7,5.1s2.6,1.8,4.6,1.8c2.1,0,4.1-0.4,6.1-1.3v2.6c-1,0.4-2,0.8-2.9,1
		S537.4,336,536.1,336z M535.3,318.5c-1.5,0-2.8,0.5-3.7,1.5c-0.9,1-1.5,2.4-1.6,4.2H540c0-1.8-0.4-3.2-1.2-4.2
		C538,319,536.8,318.5,535.3,318.5z"/>
	<path d="M551,335.7h-2.9v-27.3h2.9V335.7z"/>
</g>
<g>
	<path d="M378.2,206.7c0,2.3-0.8,4-2.5,5.3c-1.6,1.3-3.9,1.9-6.7,1.9c-3,0-5.4-0.4-7-1.2v-2.9c1.1,0.4,2.2,0.8,3.4,1.1
		c1.2,0.3,2.5,0.4,3.7,0.4c2,0,3.5-0.4,4.5-1.1c1-0.8,1.5-1.8,1.5-3.1c0-0.9-0.2-1.6-0.5-2.2c-0.4-0.6-1-1.1-1.8-1.6
		c-0.8-0.5-2.1-1-3.8-1.6c-2.4-0.9-4.1-1.9-5.1-3c-1-1.2-1.5-2.7-1.5-4.6c0-2,0.7-3.6,2.2-4.7c1.5-1.2,3.5-1.8,5.9-1.8
		c2.6,0,4.9,0.5,7,1.4l-0.9,2.6c-2.1-0.9-4.2-1.3-6.2-1.3c-1.6,0-2.8,0.3-3.7,1c-0.9,0.7-1.3,1.6-1.3,2.8c0,0.9,0.2,1.6,0.5,2.2
		c0.3,0.6,0.9,1.1,1.7,1.6c0.8,0.5,2,1,3.6,1.6c2.7,1,4.5,2,5.6,3.1S378.2,205,378.2,206.7z"/>
	<path d="M379.9,194.3h3.1l4.2,11c0.9,2.5,1.5,4.3,1.7,5.4h0.1c0.2-0.6,0.5-1.6,1-3.1c0.5-1.4,2.1-5.9,4.8-13.3h3.1l-8.3,21.9
		c-0.8,2.2-1.8,3.7-2.9,4.6s-2.4,1.4-4,1.4c-0.9,0-1.8-0.1-2.6-0.3v-2.3c0.6,0.1,1.4,0.2,2.2,0.2c2,0,3.4-1.1,4.3-3.4l1.1-2.7
		L379.9,194.3z"/>
	<path d="M413.5,208.3c0,1.8-0.7,3.2-2,4.1s-3.2,1.5-5.6,1.5c-2.6,0-4.5-0.4-6-1.2V210c0.9,0.5,1.9,0.8,3,1.1
		c1.1,0.3,2.1,0.4,3.1,0.4c1.5,0,2.7-0.2,3.5-0.7s1.2-1.2,1.2-2.2c0-0.7-0.3-1.4-1-1.9c-0.6-0.5-1.9-1.2-3.8-1.9
		c-1.8-0.7-3.1-1.2-3.8-1.7c-0.8-0.5-1.3-1.1-1.7-1.7c-0.4-0.6-0.6-1.4-0.6-2.3c0-1.6,0.6-2.8,1.9-3.7c1.3-0.9,3-1.4,5.2-1.4
		c2.1,0,4.1,0.4,6.1,1.3l-1,2.4c-1.9-0.8-3.7-1.2-5.2-1.2c-1.4,0-2.4,0.2-3.1,0.6c-0.7,0.4-1.1,1-1.1,1.8c0,0.5,0.1,1,0.4,1.3
		s0.7,0.7,1.3,1c0.6,0.3,1.7,0.8,3.4,1.4c2.3,0.8,3.8,1.7,4.6,2.5C413.1,206,413.5,207,413.5,208.3z"/>
	<path d="M424.4,211.5c0.5,0,1,0,1.5-0.1c0.5-0.1,0.9-0.2,1.1-0.2v2.2c-0.3,0.2-0.8,0.3-1.4,0.4c-0.6,0.1-1.2,0.1-1.7,0.1
		c-3.7,0-5.6-2-5.6-5.9v-11.4h-2.8v-1.4l2.8-1.2l1.2-4.1h1.7v4.5h5.6v2.3h-5.6v11.3c0,1.2,0.3,2,0.8,2.7
		C422.7,211.2,423.5,211.5,424.4,211.5z"/>
	<path d="M439,213.9c-2.8,0-5.1-0.9-6.7-2.6s-2.5-4.1-2.5-7.2c0-3.1,0.8-5.6,2.3-7.4c1.5-1.8,3.6-2.7,6.2-2.7c2.4,0,4.3,0.8,5.7,2.4
		c1.4,1.6,2.1,3.7,2.1,6.3v1.8h-13.2c0.1,2.3,0.6,4,1.7,5.1s2.6,1.8,4.6,1.8c2.1,0,4.1-0.4,6.1-1.3v2.6c-1,0.4-2,0.8-2.9,1
		S440.3,213.9,439,213.9z M438.3,196.4c-1.5,0-2.8,0.5-3.7,1.5s-1.5,2.4-1.6,4.2H443c0-1.8-0.4-3.2-1.2-4.2S439.8,196.4,438.3,196.4
		z"/>
	<path d="M475.6,213.5V201c0-1.5-0.3-2.7-1-3.4c-0.7-0.8-1.7-1.1-3.1-1.1c-1.8,0-3.2,0.5-4,1.6s-1.3,2.6-1.3,4.8v10.7h-2.9V201
		c0-1.5-0.3-2.7-1-3.4c-0.7-0.8-1.7-1.1-3.1-1.1c-1.8,0-3.2,0.5-4,1.6s-1.3,2.9-1.3,5.4v10.1h-2.9v-19.2h2.4l0.5,2.6h0.1
		c0.5-0.9,1.3-1.7,2.3-2.2c1-0.5,2.1-0.8,3.4-0.8c3,0,5,1.1,5.9,3.3h0.1c0.6-1,1.4-1.8,2.5-2.4s2.3-0.9,3.7-0.9
		c2.2,0,3.8,0.6,4.9,1.7s1.6,2.9,1.6,5.4v12.5H475.6z"/>
	<path d="M508.8,206.7c0,2.3-0.8,4-2.5,5.3c-1.6,1.3-3.9,1.9-6.7,1.9c-3,0-5.4-0.4-7-1.2v-2.9c1.1,0.4,2.2,0.8,3.4,1.1
		c1.2,0.3,2.5,0.4,3.7,0.4c2,0,3.5-0.4,4.5-1.1c1-0.8,1.5-1.8,1.5-3.1c0-0.9-0.2-1.6-0.5-2.2c-0.4-0.6-1-1.1-1.8-1.6
		c-0.8-0.5-2.1-1-3.8-1.6c-2.4-0.9-4.1-1.9-5.1-3c-1-1.2-1.5-2.7-1.5-4.6c0-2,0.7-3.6,2.2-4.7c1.5-1.2,3.5-1.8,5.9-1.8
		c2.5,0,4.9,0.5,7,1.4l-0.9,2.6c-2.1-0.9-4.2-1.3-6.2-1.3c-1.6,0-2.8,0.3-3.7,1c-0.9,0.7-1.3,1.6-1.3,2.8c0,0.9,0.2,1.6,0.5,2.2
		c0.3,0.6,0.9,1.1,1.7,1.6c0.8,0.5,2,1,3.6,1.6c2.7,1,4.5,2,5.6,3.1S508.8,205,508.8,206.7z"/>
	<path d="M530.2,203.9c0,3.1-0.8,5.6-2.4,7.3c-1.6,1.8-3.8,2.6-6.5,2.6c-1.7,0-3.2-0.4-4.6-1.2c-1.3-0.8-2.4-2-3.1-3.5
		c-0.7-1.5-1.1-3.3-1.1-5.3c0-3.1,0.8-5.6,2.4-7.3c1.6-1.7,3.7-2.6,6.5-2.6c2.7,0,4.8,0.9,6.4,2.7
		C529.4,198.4,530.2,200.9,530.2,203.9z M515.5,203.9c0,2.5,0.5,4.3,1.5,5.6c1,1.3,2.4,1.9,4.3,1.9s3.4-0.6,4.3-1.9s1.5-3.2,1.5-5.6
		c0-2.4-0.5-4.3-1.5-5.6s-2.4-1.9-4.4-1.9c-1.9,0-3.3,0.6-4.3,1.9C516,199.6,515.5,201.4,515.5,203.9z"/>
	<path d="M543.9,196.6h-4.9v17h-2.9v-17h-3.4v-1.3l3.4-1.1v-1.1c0-4.7,2.1-7.1,6.2-7.1c1,0,2.2,0.2,3.6,0.6l-0.8,2.3
		c-1.1-0.4-2.1-0.5-2.9-0.5c-1.1,0-1.9,0.4-2.4,1.1c-0.5,0.7-0.8,1.9-0.8,3.5v1.2h4.9V196.6z"/>
	<path d="M553.7,211.5c0.5,0,1,0,1.5-0.1c0.5-0.1,0.9-0.2,1.1-0.2v2.2c-0.3,0.2-0.8,0.3-1.4,0.4c-0.6,0.1-1.2,0.1-1.7,0.1
		c-3.7,0-5.6-2-5.6-5.9v-11.4h-2.8v-1.4l2.8-1.2l1.2-4.1h1.7v4.5h5.6v2.3h-5.6v11.3c0,1.2,0.3,2,0.8,2.7
		C552,211.2,552.7,211.5,553.7,211.5z"/>
	<path d="M575.9,213.5l-3.5-11.3c-0.2-0.7-0.6-2.3-1.2-4.7h-0.1c-0.5,2-0.9,3.6-1.2,4.7l-3.6,11.2h-3.4l-5.2-19.2h3.1
		c1.2,4.8,2.2,8.5,2.8,11c0.6,2.5,1,4.2,1.1,5.1h0.1c0.1-0.7,0.3-1.5,0.6-2.6c0.3-1.1,0.5-1.9,0.7-2.5l3.5-11h3.2l3.4,11
		c0.7,2,1.1,3.7,1.3,5.1h0.1c0-0.4,0.2-1.1,0.4-1.9c0.2-0.9,1.4-5.6,3.7-14.2h3l-5.3,19.2H575.9z"/>
	<path d="M599.9,213.5l-0.6-2.7h-0.1c-1,1.2-1.9,2-2.9,2.4c-1,0.4-2.1,0.6-3.6,0.6c-1.9,0-3.4-0.5-4.5-1.5s-1.6-2.4-1.6-4.2
		c0-3.9,3.1-5.9,9.3-6.1l3.3-0.1v-1.2c0-1.5-0.3-2.6-1-3.3c-0.6-0.7-1.7-1.1-3.1-1.1c-1.6,0-3.4,0.5-5.4,1.5l-0.9-2.2
		c0.9-0.5,2-0.9,3.1-1.2s2.3-0.4,3.4-0.4c2.3,0,4,0.5,5.1,1.5s1.7,2.6,1.7,4.9v13.1H599.9z M593.3,211.5c1.8,0,3.2-0.5,4.3-1.5
		c1-1,1.6-2.4,1.6-4.2v-1.7l-2.9,0.1c-2.3,0.1-4,0.4-5,1.1s-1.5,1.6-1.5,3c0,1.1,0.3,1.9,1,2.4S592.2,211.5,593.3,211.5z"/>
	<path d="M616.9,194c0.9,0,1.6,0.1,2.3,0.2l-0.4,2.7c-0.8-0.2-1.5-0.3-2.1-0.3c-1.6,0-2.9,0.6-4,1.9c-1.1,1.3-1.7,2.8-1.7,4.7v10.3
		h-2.9v-19.2h2.4l0.3,3.6h0.1c0.7-1.3,1.6-2.2,2.6-2.9C614.5,194.3,615.7,194,616.9,194z"/>
	<path d="M630.9,213.9c-2.8,0-5.1-0.9-6.7-2.6s-2.5-4.1-2.5-7.2c0-3.1,0.8-5.6,2.3-7.4c1.5-1.8,3.6-2.7,6.2-2.7
		c2.4,0,4.3,0.8,5.7,2.4c1.4,1.6,2.1,3.7,2.1,6.3v1.8h-13.2c0.1,2.3,0.6,4,1.7,5.1s2.6,1.8,4.6,1.8c2.1,0,4.1-0.4,6.1-1.3v2.6
		c-1,0.4-2,0.8-2.9,1S632.2,213.9,630.9,213.9z M630.1,196.4c-1.5,0-2.8,0.5-3.7,1.5c-0.9,1-1.5,2.4-1.6,4.2h10.1
		c0-1.8-0.4-3.2-1.2-4.2C632.8,196.9,631.6,196.4,630.1,196.4z"/>
</g>
<g>
	<path d="M437.2,51.5v16.6c0,2.9-0.9,5.2-2.6,6.9c-1.8,1.7-4.2,2.5-7.3,2.5s-5.5-0.8-7.2-2.5s-2.5-4-2.5-6.9V51.5h3v16.7
		c0,2.1,0.6,3.8,1.8,4.9c1.2,1.1,2.9,1.7,5.2,1.7c2.2,0,3.8-0.6,5-1.7c1.2-1.2,1.8-2.8,1.8-5V51.5H437.2z"/>
	<path d="M456,71.9c0,1.8-0.7,3.2-2,4.1c-1.3,1-3.2,1.5-5.6,1.5c-2.6,0-4.5-0.4-6-1.2v-2.7c0.9,0.5,1.9,0.8,3,1.1
		c1.1,0.3,2.1,0.4,3.1,0.4c1.5,0,2.7-0.2,3.5-0.7s1.2-1.2,1.2-2.2c0-0.7-0.3-1.4-1-1.9c-0.6-0.5-1.9-1.2-3.8-1.9
		c-1.8-0.7-3.1-1.2-3.8-1.7c-0.8-0.5-1.3-1.1-1.7-1.7c-0.4-0.6-0.6-1.4-0.6-2.3c0-1.6,0.6-2.8,1.9-3.7c1.3-0.9,3-1.4,5.2-1.4
		c2.1,0,4.1,0.4,6.1,1.3l-1,2.4c-1.9-0.8-3.7-1.2-5.2-1.2c-1.4,0-2.4,0.2-3.1,0.6c-0.7,0.4-1.1,1-1.1,1.8c0,0.5,0.1,1,0.4,1.3
		s0.7,0.7,1.3,1c0.6,0.3,1.7,0.8,3.4,1.4c2.3,0.8,3.8,1.7,4.6,2.5S456,70.6,456,71.9z"/>
	<path d="M468.8,77.5c-2.8,0-5.1-0.9-6.7-2.6c-1.6-1.7-2.5-4.1-2.5-7.2c0-3.1,0.8-5.6,2.3-7.4c1.5-1.8,3.6-2.7,6.2-2.7
		c2.4,0,4.3,0.8,5.7,2.4c1.4,1.6,2.1,3.7,2.1,6.3v1.8h-13.2c0.1,2.3,0.6,4,1.7,5.1c1.1,1.2,2.6,1.8,4.6,1.8c2.1,0,4.1-0.4,6.1-1.3
		v2.6c-1,0.4-2,0.8-2.9,1C471.2,77.4,470.1,77.5,468.8,77.5z M468,60c-1.5,0-2.8,0.5-3.7,1.5c-0.9,1-1.5,2.4-1.6,4.2h10.1
		c0-1.8-0.4-3.2-1.2-4.2S469.5,60,468,60z"/>
	<path d="M489.6,57.6c0.9,0,1.6,0.1,2.3,0.2l-0.4,2.7c-0.8-0.2-1.5-0.3-2.1-0.3c-1.6,0-2.9,0.6-4,1.9c-1.1,1.3-1.7,2.8-1.7,4.7v10.3
		h-2.9V57.9h2.4l0.3,3.6h0.1c0.7-1.3,1.6-2.2,2.6-2.9C487.3,57.9,488.4,57.6,489.6,57.6z"/>
	<path d="M521.4,77.2l-3.2-8.2h-10.3l-3.2,8.2h-3l10.1-25.8h2.5l10.1,25.8H521.4z M517.3,66.3l-3-7.9c-0.4-1-0.8-2.2-1.2-3.7
		c-0.3,1.1-0.6,2.4-1.1,3.7l-3,7.9H517.3z"/>
	<path d="M536.6,77.5c-1.3,0-2.4-0.2-3.4-0.7s-1.9-1.2-2.6-2.1h-0.2c0.1,1.1,0.2,2.2,0.2,3.2v7.9h-2.9V57.9h2.4l0.4,2.6h0.1
		c0.7-1.1,1.6-1.8,2.6-2.3c1-0.5,2.1-0.7,3.4-0.7c2.5,0,4.5,0.9,5.9,2.6c1.4,1.7,2.1,4.2,2.1,7.3c0,3.2-0.7,5.6-2.1,7.4
		C541,76.6,539.1,77.5,536.6,77.5z M536.1,60.1c-2,0-3.4,0.5-4.3,1.6c-0.9,1.1-1.3,2.8-1.4,5.2v0.6c0,2.7,0.5,4.6,1.4,5.8
		c0.9,1.2,2.3,1.7,4.3,1.7c1.7,0,3-0.7,3.9-2s1.4-3.2,1.4-5.6c0-2.4-0.5-4.2-1.4-5.5S537.8,60.1,536.1,60.1z"/>
	<path d="M558.6,77.5c-1.3,0-2.4-0.2-3.4-0.7s-1.9-1.2-2.6-2.1h-0.2c0.1,1.1,0.2,2.2,0.2,3.2v7.9h-2.9V57.9h2.4l0.4,2.6h0.1
		c0.7-1.1,1.6-1.8,2.6-2.3c1-0.5,2.1-0.7,3.4-0.7c2.5,0,4.5,0.9,5.9,2.6c1.4,1.7,2.1,4.2,2.1,7.3c0,3.2-0.7,5.6-2.1,7.4
		C563,76.6,561.1,77.5,558.6,77.5z M558.2,60.1c-2,0-3.4,0.5-4.3,1.6c-0.9,1.1-1.3,2.8-1.4,5.2v0.6c0,2.7,0.5,4.6,1.4,5.8
		c0.9,1.2,2.3,1.7,4.3,1.7c1.7,0,3-0.7,3.9-2s1.4-3.2,1.4-5.6c0-2.4-0.5-4.2-1.4-5.5S559.9,60.1,558.2,60.1z"/>
	<path d="M584.1,71.9c0,1.8-0.7,3.2-2,4.1c-1.3,1-3.2,1.5-5.6,1.5c-2.6,0-4.5-0.4-6-1.2v-2.7c0.9,0.5,1.9,0.8,3,1.1s2.1,0.4,3.1,0.4
		c1.5,0,2.7-0.2,3.5-0.7c0.8-0.5,1.2-1.2,1.2-2.2c0-0.7-0.3-1.4-1-1.9s-1.9-1.2-3.8-1.9c-1.8-0.7-3.1-1.2-3.8-1.7
		c-0.8-0.5-1.3-1.1-1.7-1.7c-0.4-0.6-0.6-1.4-0.6-2.3c0-1.6,0.6-2.8,1.9-3.7s3-1.4,5.2-1.4c2.1,0,4.1,0.4,6.1,1.3l-1,2.4
		c-1.9-0.8-3.7-1.2-5.2-1.2c-1.4,0-2.4,0.2-3.1,0.6s-1.1,1-1.1,1.8c0,0.5,0.1,1,0.4,1.3c0.3,0.4,0.7,0.7,1.3,1s1.7,0.8,3.4,1.4
		c2.3,0.8,3.8,1.7,4.6,2.5C583.7,69.6,584.1,70.6,584.1,71.9z"/>
</g>
<g>
	<circle class="st4" cx="292.9" cy="47" r="14"/>
	<path d="M292.9,62.1c-8.3,0-15-6.7-15-15s6.7-15,15-15s15,6.7,15,15S301.2,62.1,292.9,62.1z M292.9,34c-7.2,0-13,5.9-13,13
		c0,7.2,5.9,13,13,13c7.2,0,13-5.9,13-13C306,39.9,300.1,34,292.9,34z"/>
</g>
<g>
	<circle class="st5" cx="353.2" cy="51.8" r="14"/>
	<path d="M353.2,66.8c-8.3,0-15-6.7-15-15s6.7-15,15-15s15,6.7,15,15S361.5,66.8,353.2,66.8z M353.2,38.7c-7.2,0-13,5.9-13,13
		c0,7.2,5.9,13,13,13c7.2,0,13-5.9,13-13C366.2,44.6,360.4,38.7,353.2,38.7z"/>
</g>
<g>
	<circle class="st6" cx="321" cy="86.2" r="14"/>
	<path d="M321,101.3c-8.3,0-15-6.7-15-15s6.7-15,15-15s15,6.7,15,15S329.3,101.3,321,101.3z M321,73.2c-7.2,0-13,5.9-13,13
		c0,7.2,5.9,13,13,13c7.2,0,13-5.9,13-13C334,79,328.2,73.2,321,73.2z"/>
</g>
<g>
	<circle class="st4" cx="678" cy="50.3" r="13.3"/>
	<path d="M678,64.7c-7.9,0-14.3-6.4-14.3-14.3c0-7.9,6.4-14.3,14.3-14.3c7.9,0,14.3,6.4,14.3,14.3C692.3,58.2,685.9,64.7,678,64.7z
		 M678,38c-6.8,0-12.3,5.5-12.3,12.3s5.5,12.3,12.3,12.3c6.8,0,12.3-5.5,12.3-12.3S684.8,38,678,38z"/>
</g>
<g>
	<circle class="st7" cx="644.6" cy="82.9" r="13.3"/>
	<path d="M644.6,97.3c-7.9,0-14.3-6.4-14.3-14.3s6.4-14.3,14.3-14.3c7.9,0,14.3,6.4,14.3,14.3S652.5,97.3,644.6,97.3z M644.6,70.6
		c-6.8,0-12.3,5.5-12.3,12.3s5.5,12.3,12.3,12.3c6.8,0,12.3-5.5,12.3-12.3S651.4,70.6,644.6,70.6z"/>
</g>
<g>
	<circle class="st8" cx="707.8" cy="80.1" r="13.3"/>
	<path d="M707.8,94.5c-7.9,0-14.3-6.4-14.3-14.3c0-7.9,6.4-14.3,14.3-14.3c7.9,0,14.3,6.4,14.3,14.3C722.1,88,715.7,94.5,707.8,94.5
		z M707.8,67.8c-6.8,0-12.3,5.5-12.3,12.3s5.5,12.3,12.3,12.3c6.8,0,12.3-5.5,12.3-12.3S714.6,67.8,707.8,67.8z"/>
</g>
<g>
	<g>
		<path class="st0" d="M197.7,69.6c-19.3,0.1-42,4.7-42,155.4s18.7,146.9,42,146.9"/>
	</g>
	<g>
		<g>
			<path d="M193.7,71.7c-1,0-1.9-0.8-2-1.9c-0.1-1.1,0.8-1.9,1.9-1.9c1.2-0.1,2.5,0.1,4.1,0.1c0,0,0,0,0,0c1.1,0,2,0.7,2,1.8
				c0,1.1-0.9,1.9-2,1.9c-1.6,0-2.7,0-3.9,0.1C193.8,71.8,193.7,71.7,193.7,71.7z"/>
		</g>
		<g>
			<path d="M185.1,373.3c-0.1,0-0.3,0-0.4,0c-3.1-0.6-5.8-1.7-8.2-3.4c-0.9-0.6-1.1-1.9-0.5-2.8c0.6-0.9,1.9-1.1,2.8-0.5
				c1.9,1.3,4.1,2.2,6.7,2.7c1.1,0.2,1.8,1.3,1.6,2.4C186.9,372.6,186.1,373.3,185.1,373.3z M172,364.5c-0.6,0-1.2-0.3-1.6-0.9
				c-1.5-2.1-2.9-4.6-4.1-7.5c-0.4-1,0-2.2,1-2.6c1-0.4,2.2,0,2.6,1c1.1,2.6,2.4,4.9,3.7,6.8c0.6,0.9,0.4,2.2-0.5,2.8
				C172.8,364.4,172.4,364.5,172,364.5z M165.3,349.7c-0.9,0-1.7-0.6-1.9-1.4c-0.7-2.5-1.4-5.1-2.1-8c-0.2-1.1,0.4-2.1,1.5-2.4
				c1.1-0.2,2.1,0.4,2.4,1.5c0.6,2.8,1.3,5.4,2,7.7c0.3,1.1-0.3,2.2-1.3,2.5C165.7,349.7,165.5,349.7,165.3,349.7z M161.7,333.9
				c-1,0-1.8-0.7-2-1.7c-0.4-2.6-0.9-5.3-1.3-8.1c-0.2-1.1,0.6-2.1,1.7-2.3c1.1-0.2,2.1,0.6,2.3,1.7c0.4,2.8,0.8,5.5,1.3,8
				c0.2,1.1-0.5,2.1-1.6,2.3C161.9,333.9,161.8,333.9,161.7,333.9z M159.4,317.8c-1,0-1.9-0.8-2-1.8c-0.3-2.6-0.6-5.3-0.8-8.1
				c-0.1-1.1,0.7-2.1,1.8-2.2c1.1-0.1,2.1,0.7,2.2,1.8c0.3,2.8,0.5,5.5,0.8,8.1c0.1,1.1-0.7,2.1-1.8,2.2
				C159.6,317.8,159.5,317.8,159.4,317.8z M157.9,301.6c-1,0-1.9-0.8-2-1.9c-0.2-2.6-0.4-5.3-0.6-8.2c-0.1-1.1,0.8-2.1,1.9-2.1
				c1.1-0.1,2.1,0.8,2.1,1.9c0.2,2.8,0.4,5.5,0.6,8.1c0.1,1.1-0.7,2.1-1.8,2.1C158,301.5,157.9,301.6,157.9,301.6z M156.9,285.3
				c-1.1,0-1.9-0.8-2-1.9c-0.1-2.6-0.3-5.4-0.4-8.2c0-1.1,0.8-2,1.9-2.1c1.1,0,2,0.8,2.1,1.9c0.1,2.8,0.2,5.5,0.4,8.1
				c0.1,1.1-0.8,2-1.9,2.1C157,285.3,156.9,285.3,156.9,285.3z M156.3,269c-1.1,0-2-0.8-2-1.9c-0.1-2.7-0.2-5.4-0.2-8.2
				c0-1.1,0.8-2,2-2c1.1-0.1,2,0.8,2,2c0.1,2.8,0.1,5.5,0.2,8.1C158.3,268,157.4,269,156.3,269C156.3,269,156.3,269,156.3,269z
				 M155.9,253c-1.1,0-2-1-2-2.1c0-2.7-0.1-5.4-0.1-8.2c0-1.1,0.9-2,2-2.1c1.1,0,2,0.9,2,2c0,2.8,0.1,5.6,0.1,8.3
				C157.9,251.9,157,253,155.9,253C155.9,253,155.9,253,155.9,253z M155.7,236c-1.1,0-2-0.7-2-1.8c0-2.7,0-5.4,0-8.2
				c0-1.1,0.9-2,2-2c0,0,0,0,0,0c1.1,0,2,1,2,2.1c0,2.8,0,5.3,0,8C157.7,235.2,156.8,236,155.7,236C155.7,236,155.7,236,155.7,236z
				 M155.7,220C155.7,220,155.7,220,155.7,220c-1.1,0-2-0.8-2-1.9c0-2.8,0-5.5,0.1-8.1c0-1.1,0.9-2,2-2c1.1,0,2,0.9,2,2
				c0,2.7,0,5.3-0.1,8.1C157.7,219.2,156.8,220,155.7,220z M155.9,204C155.9,204,155.8,204,155.9,204c-1.1,0-2-1-2-2.1
				c0-2.8,0.1-5.5,0.2-8.2c0-1.1,1-2,2-2c1.1,0,2,0.9,1.9,2c-0.1,2.7-0.1,5.4-0.2,8.2C157.8,203,157,204,155.9,204z M156.3,188
				C156.2,188,156.2,188,156.3,188c-1.2,0-2-1.2-2-2.3c0.1-2.8,0.2-5.6,0.3-8.3c0-1.1,1-2,2.1-2c1.1,0,2,1,1.9,2.1
				c-0.1,2.6-0.2,5.6-0.3,8.3C158.2,186.9,157.3,188,156.3,188z M157,171.3c0,0-0.1,0-0.1,0c-1.1-0.1-1.9-1-1.9-2.1
				c0.1-2.8,0.3-5.5,0.5-8.2c0.1-1.1,1-1.9,2.1-1.9c1.1,0.1,1.9,1,1.9,2.1c-0.2,2.6-0.3,5.3-0.5,8.1
				C158.9,170.4,158,171.3,157,171.3z M158,155c-0.1,0-0.1,0-0.2,0c-1.1-0.1-1.9-1-1.8-2.1c0.2-2.8,0.5-5.5,0.7-8.1
				c0.1-1.1,1.1-1.9,2.2-1.8c1.1,0.1,1.9,1.1,1.8,2.2c-0.2,2.6-0.5,5.3-0.7,8.1C159.9,154.2,159.1,155,158,155z M159.6,138.8
				c-0.1,0-0.2,0-0.2,0c-1.1-0.1-1.9-1.1-1.8-2.2c0.3-2.8,0.7-5.5,1-8.1c0.1-1.1,1.2-1.9,2.3-1.7c1.1,0.1,1.9,1.2,1.7,2.3
				c-0.4,2.6-0.7,5.3-1,8C161.4,138,160.6,138.8,159.6,138.8z M161.8,122.6c-0.1,0-0.2,0-0.3,0c-1.1-0.2-1.8-1.2-1.6-2.3
				c0.5-2.8,1-5.5,1.5-8.1c0.2-1.1,1.3-1.8,2.4-1.6c1.1,0.2,1.8,1.3,1.6,2.4c-0.5,2.5-1,5.2-1.4,7.9
				C163.6,122,162.7,122.6,161.8,122.6z M165,106.7c-0.2,0-0.3,0-0.5-0.1c-1.1-0.3-1.7-1.4-1.5-2.4c0.7-2.8,1.5-5.5,2.3-8
				c0.3-1.1,1.5-1.6,2.5-1.3c1.1,0.3,1.6,1.5,1.3,2.5c-0.8,2.4-1.5,5-2.2,7.7C166.7,106.1,165.9,106.7,165,106.7z M170.1,91.2
				c-0.3,0-0.5-0.1-0.8-0.2c-1-0.4-1.5-1.6-1-2.6c1.2-2.8,2.5-5.3,3.9-7.5c0.6-0.9,1.8-1.2,2.8-0.6c0.9,0.6,1.2,1.8,0.6,2.8
				c-1.3,2-2.5,4.3-3.6,6.9C171.6,90.8,170.9,91.2,170.1,91.2z M178.9,77.7c-0.5,0-1.1-0.2-1.5-0.6c-0.8-0.8-0.7-2.1,0.1-2.8
				c2.3-2.1,4.7-3.7,7.4-4.7c1-0.4,2.2,0.1,2.6,1.1c0.4,1-0.1,2.2-1.1,2.6c-2.3,0.9-4.3,2.2-6.2,3.9
				C179.9,77.5,179.4,77.7,178.9,77.7z"/>
		</g>
		<g>
			<path d="M194.4,373.9c-0.2,0-0.5,0-0.7,0c-1.1,0-2-0.9-2-2c0-1.1,0.9-2,2-2c0.2,0,0.5,0,0.7,0c0.5,0,1.1,0,1.6,0l1.7,0
				c1.1,0,2,0.9,2,2s-0.9,2-2,2l-1.7,0C195.5,373.9,194.9,373.9,194.4,373.9z"/>
		</g>
	</g>
</g>
<g>
	<g>
		<path d="M155.7,227h-4c-1.1,0-2-0.9-2-2s0.9-2,2-2h4c1.1,0,2,0.9,2,2S156.8,227,155.7,227z"/>
	</g>
	<g>
		<path d="M143.3,227H135c-1.1,0-2-0.9-2-2s0.9-2,2-2h8.3c1.1,0,2,0.9,2,2S144.4,227,143.3,227z M126.6,227h-8.3c-1.1,0-2-0.9-2-2
			s0.9-2,2-2h8.3c1.1,0,2,0.9,2,2S127.7,227,126.6,227z M109.9,227h-8.3c-1.1,0-2-0.9-2-2s0.9-2,2-2h8.3c1.1,0,2,0.9,2,2
			S111,227,109.9,227z M93.3,227h-8.3c-1.1,0-2-0.9-2-2s0.9-2,2-2h8.3c1.1,0,2,0.9,2,2S94.4,227,93.3,227z M76.6,227h-8.3
			c-1.1,0-2-0.9-2-2s0.9-2,2-2h8.3c1.1,0,2,0.9,2,2S77.7,227,76.6,227z M59.9,227h-8.3c-1.1,0-2-0.9-2-2s0.9-2,2-2h8.3
			c1.1,0,2,0.9,2,2S61,227,59.9,227z M43.2,227h-8.3c-1.1,0-2-0.9-2-2s0.9-2,2-2h8.3c1.1,0,2,0.9,2,2S44.3,227,43.2,227z"/>
	</g>
	<g>
		<path d="M26.5,227h-4c-1.1,0-2-0.9-2-2s0.9-2,2-2h4c1.1,0,2,0.9,2,2S27.6,227,26.5,227z"/>
	</g>
</g>
<g>
	<path d="M50.5,173.7c0,2.4-0.6,4.3-1.8,5.7s-2.9,2.1-5.1,2.1c-2.2,0-3.9-0.7-5.1-2c-1.2-1.3-1.8-3.3-1.8-5.7c0-2.4,0.6-4.3,1.8-5.7
		c1.2-1.3,2.9-2,5.1-2c2.2,0,3.8,0.7,5,2.1S50.5,171.2,50.5,173.7z M38.5,173.7c0,2,0.4,3.6,1.3,4.6c0.9,1,2.1,1.6,3.8,1.6
		c1.7,0,2.9-0.5,3.8-1.6s1.3-2.6,1.3-4.6c0-2-0.4-3.5-1.3-4.6s-2.1-1.6-3.7-1.6c-1.7,0-2.9,0.5-3.8,1.6
		C39,170.1,38.5,171.6,38.5,173.7z"/>
	<path d="M58.8,181.4c-0.7,0-1.4-0.1-2-0.4c-0.6-0.3-1.1-0.7-1.5-1.2h-0.1c0.1,0.7,0.1,1.3,0.1,1.9v4.6h-1.7v-16.3H55l0.2,1.5h0.1
		c0.4-0.6,0.9-1.1,1.5-1.3s1.2-0.4,2-0.4c1.5,0,2.6,0.5,3.5,1.5c0.8,1,1.2,2.4,1.2,4.3c0,1.8-0.4,3.3-1.2,4.3
		C61.4,180.9,60.3,181.4,58.8,181.4z M58.6,171.2c-1.1,0-2,0.3-2.5,1s-0.8,1.6-0.8,3v0.4c0,1.6,0.3,2.7,0.8,3.4s1.4,1,2.5,1
		c1,0,1.7-0.4,2.3-1.2s0.8-1.9,0.8-3.3c0-1.4-0.3-2.5-0.8-3.2C60.3,171.5,59.6,171.2,58.6,171.2z"/>
	<path d="M71.2,181.4c-1.7,0-3-0.5-3.9-1.5c-1-1-1.4-2.4-1.4-4.2c0-1.8,0.4-3.3,1.3-4.3c0.9-1.1,2.1-1.6,3.6-1.6
		c1.4,0,2.5,0.5,3.3,1.4s1.2,2.1,1.2,3.7v1.1h-7.7c0,1.3,0.4,2.3,1,3s1.5,1,2.7,1c1.2,0,2.4-0.3,3.6-0.8v1.5
		c-0.6,0.3-1.2,0.4-1.7,0.6C72.6,181.3,72,181.4,71.2,181.4z M70.7,171.1c-0.9,0-1.6,0.3-2.2,0.9c-0.5,0.6-0.9,1.4-0.9,2.4h5.9
		c0-1.1-0.2-1.9-0.7-2.5C72.3,171.4,71.6,171.1,70.7,171.1z"/>
	<path d="M83.4,169.7c0.5,0,0.9,0,1.3,0.1l-0.2,1.6c-0.5-0.1-0.9-0.2-1.2-0.2c-0.9,0-1.7,0.4-2.3,1.1c-0.6,0.7-1,1.7-1,2.8v6h-1.7
		v-11.2h1.4l0.2,2.1h0.1c0.4-0.7,0.9-1.3,1.5-1.7S82.6,169.7,83.4,169.7z"/>
	<path d="M93.7,181.2l-0.3-1.6h-0.1c-0.6,0.7-1.1,1.2-1.7,1.4c-0.6,0.2-1.3,0.4-2.1,0.4c-1.1,0-2-0.3-2.6-0.9s-0.9-1.4-0.9-2.5
		c0-2.3,1.8-3.5,5.4-3.6l1.9-0.1v-0.7c0-0.9-0.2-1.5-0.6-2c-0.4-0.4-1-0.6-1.8-0.6c-0.9,0-2,0.3-3.2,0.9l-0.5-1.3
		c0.6-0.3,1.2-0.5,1.8-0.7s1.3-0.3,2-0.3c1.3,0,2.3,0.3,3,0.9c0.6,0.6,1,1.5,1,2.9v7.7H93.7z M89.9,180c1.1,0,1.9-0.3,2.5-0.9
		c0.6-0.6,0.9-1.4,0.9-2.4v-1l-1.7,0.1c-1.4,0-2.3,0.3-2.9,0.6c-0.6,0.4-0.9,1-0.9,1.7c0,0.6,0.2,1.1,0.6,1.4S89.2,180,89.9,180z"/>
	<path d="M102.1,180c0.3,0,0.6,0,0.9-0.1c0.3,0,0.5-0.1,0.7-0.1v1.3c-0.2,0.1-0.5,0.2-0.8,0.2c-0.4,0.1-0.7,0.1-1,0.1
		c-2.2,0-3.3-1.1-3.3-3.4v-6.7H97v-0.8l1.6-0.7l0.7-2.4h1v2.6h3.3v1.3h-3.3v6.6c0,0.7,0.2,1.2,0.5,1.6S101.5,180,102.1,180z"/>
	<path d="M105.7,166.9c0-0.4,0.1-0.7,0.3-0.9s0.4-0.3,0.7-0.3c0.3,0,0.5,0.1,0.7,0.3s0.3,0.5,0.3,0.9s-0.1,0.7-0.3,0.9
		c-0.2,0.2-0.4,0.3-0.7,0.3c-0.3,0-0.5-0.1-0.7-0.3C105.8,167.6,105.7,167.3,105.7,166.9z M107.6,181.2h-1.7v-11.2h1.7V181.2z"/>
	<path d="M118.9,181.2v-7.3c0-0.9-0.2-1.6-0.6-2.1s-1.1-0.7-2-0.7c-1.2,0-2,0.3-2.6,1s-0.8,1.7-0.8,3.1v5.9h-1.7v-11.2h1.4l0.3,1.5
		h0.1c0.3-0.6,0.8-1,1.5-1.3c0.6-0.3,1.3-0.5,2.1-0.5c1.4,0,2.4,0.3,3.1,1s1,1.7,1,3.1v7.3H118.9z"/>
	<path d="M133.3,169.9v1.1l-2.1,0.2c0.2,0.2,0.4,0.6,0.5,0.9c0.2,0.4,0.2,0.8,0.2,1.3c0,1.1-0.4,2-1.1,2.6s-1.8,1-3.1,1
		c-0.3,0-0.6,0-0.9-0.1c-0.7,0.4-1.1,0.9-1.1,1.4c0,0.3,0.1,0.5,0.4,0.7c0.3,0.1,0.7,0.2,1.3,0.2h2c1.2,0,2.2,0.3,2.8,0.8
		c0.7,0.5,1,1.3,1,2.2c0,1.2-0.5,2.2-1.5,2.8s-2.5,1-4.4,1c-1.5,0-2.6-0.3-3.4-0.8c-0.8-0.5-1.2-1.3-1.2-2.3c0-0.7,0.2-1.3,0.7-1.8
		s1.1-0.8,1.8-1c-0.3-0.1-0.5-0.3-0.7-0.6c-0.2-0.3-0.3-0.6-0.3-1c0-0.4,0.1-0.8,0.3-1.1s0.6-0.6,1-0.9c-0.6-0.2-1.1-0.6-1.4-1.2
		s-0.5-1.2-0.5-2c0-1.2,0.4-2.2,1.1-2.8c0.7-0.7,1.8-1,3.1-1c0.6,0,1.1,0.1,1.6,0.2H133.3z M124.3,183.1c0,0.6,0.3,1.1,0.8,1.4
		s1.2,0.5,2.2,0.5c1.4,0,2.5-0.2,3.2-0.6c0.7-0.4,1-1,1-1.7c0-0.6-0.2-1-0.6-1.3c-0.4-0.2-1.1-0.4-2.1-0.4h-2
		c-0.8,0-1.4,0.2-1.8,0.6S124.3,182.4,124.3,183.1z M125.3,173.5c0,0.8,0.2,1.4,0.7,1.8s1.1,0.6,1.9,0.6c1.7,0,2.5-0.8,2.5-2.4
		c0-1.7-0.8-2.5-2.5-2.5c-0.8,0-1.4,0.2-1.8,0.6S125.3,172.7,125.3,173.5z"/>
	<path d="M45.9,202.4c0,1.3-0.5,2.3-1.4,3.1s-2.3,1.1-3.9,1.1c-1.8,0-3.1-0.2-4.1-0.7v-1.7c0.6,0.3,1.3,0.5,2,0.6s1.4,0.2,2.2,0.2
		c1.2,0,2-0.2,2.6-0.7c0.6-0.4,0.9-1.1,0.9-1.8c0-0.5-0.1-0.9-0.3-1.3c-0.2-0.3-0.6-0.6-1-0.9c-0.5-0.3-1.2-0.6-2.2-1
		c-1.4-0.5-2.4-1.1-3-1.8s-0.9-1.6-0.9-2.7c0-1.2,0.4-2.1,1.3-2.8s2-1,3.4-1c1.5,0,2.9,0.3,4.1,0.8l-0.5,1.5
		c-1.2-0.5-2.4-0.8-3.6-0.8c-0.9,0-1.6,0.2-2.2,0.6s-0.8,0.9-0.8,1.7c0,0.5,0.1,0.9,0.3,1.3c0.2,0.3,0.5,0.6,1,0.9
		c0.5,0.3,1.1,0.6,2.1,0.9c1.6,0.6,2.7,1.2,3.2,1.8C45.6,200.5,45.9,201.4,45.9,202.4z"/>
	<path d="M47,195.1h1.8l2.5,6.4c0.5,1.5,0.9,2.5,1,3.2h0.1c0.1-0.3,0.3-0.9,0.6-1.8s1.2-3.4,2.8-7.8h1.8l-4.8,12.8
		c-0.5,1.3-1,2.2-1.7,2.7c-0.6,0.5-1.4,0.8-2.4,0.8c-0.5,0-1-0.1-1.5-0.2v-1.4c0.4,0.1,0.8,0.1,1.3,0.1c1.2,0,2-0.7,2.5-2l0.6-1.6
		L47,195.1z"/>
	<path d="M66.6,203.3c0,1-0.4,1.9-1.2,2.4s-1.9,0.9-3.3,0.9c-1.5,0-2.7-0.2-3.5-0.7v-1.6c0.5,0.3,1.1,0.5,1.7,0.6s1.2,0.2,1.8,0.2
		c0.9,0,1.6-0.1,2.1-0.4s0.7-0.7,0.7-1.3c0-0.4-0.2-0.8-0.6-1.1c-0.4-0.3-1.1-0.7-2.2-1.1c-1-0.4-1.8-0.7-2.2-1
		c-0.4-0.3-0.8-0.6-1-1c-0.2-0.4-0.3-0.8-0.3-1.3c0-0.9,0.4-1.6,1.1-2.2s1.8-0.8,3.1-0.8c1.2,0,2.4,0.2,3.5,0.7l-0.6,1.4
		c-1.1-0.5-2.1-0.7-3.1-0.7c-0.8,0-1.4,0.1-1.8,0.4s-0.6,0.6-0.6,1c0,0.3,0.1,0.6,0.2,0.8c0.2,0.2,0.4,0.4,0.7,0.6s1,0.5,2,0.8
		c1.3,0.5,2.2,1,2.7,1.5S66.6,202.6,66.6,203.3z"/>
	<path d="M73,205.2c0.3,0,0.6,0,0.9-0.1c0.3,0,0.5-0.1,0.7-0.1v1.3c-0.2,0.1-0.5,0.2-0.8,0.2c-0.4,0.1-0.7,0.1-1,0.1
		c-2.2,0-3.3-1.1-3.3-3.4v-6.7h-1.6v-0.8l1.6-0.7l0.7-2.4h1v2.6h3.3v1.3h-3.3v6.6c0,0.7,0.2,1.2,0.5,1.6S72.4,205.2,73,205.2z"/>
	<path d="M81.5,206.6c-1.7,0-3-0.5-3.9-1.5c-1-1-1.4-2.4-1.4-4.2c0-1.8,0.4-3.3,1.3-4.3c0.9-1.1,2.1-1.6,3.6-1.6
		c1.4,0,2.5,0.5,3.3,1.4s1.2,2.1,1.2,3.7v1.1h-7.7c0,1.3,0.4,2.3,1,3s1.5,1,2.7,1c1.2,0,2.4-0.3,3.6-0.8v1.5
		c-0.6,0.3-1.2,0.4-1.7,0.6C82.9,206.5,82.3,206.6,81.5,206.6z M81,196.3c-0.9,0-1.6,0.3-2.2,0.9c-0.5,0.6-0.9,1.4-0.9,2.4h5.9
		c0-1.1-0.2-1.9-0.7-2.5C82.6,196.6,81.9,196.3,81,196.3z"/>
	<path d="M102.9,206.4v-7.3c0-0.9-0.2-1.6-0.6-2c-0.4-0.4-1-0.7-1.8-0.7c-1.1,0-1.8,0.3-2.3,0.9s-0.8,1.5-0.8,2.8v6.3h-1.7v-7.3
		c0-0.9-0.2-1.6-0.6-2c-0.4-0.4-1-0.7-1.8-0.7c-1.1,0-1.8,0.3-2.3,1c-0.5,0.6-0.7,1.7-0.7,3.1v5.9h-1.7v-11.2h1.4l0.3,1.5h0.1
		c0.3-0.5,0.8-1,1.4-1.3c0.6-0.3,1.2-0.5,2-0.5c1.8,0,2.9,0.6,3.4,1.9h0.1c0.3-0.6,0.8-1.1,1.5-1.4s1.4-0.5,2.2-0.5
		c1.3,0,2.2,0.3,2.9,1s0.9,1.7,0.9,3.1v7.3H102.9z"/>
</g>
</svg>
