<svg id="Layer_1" data-name="Layer 1" xmlns="http://www.w3.org/2000/svg" viewBox="0 0 781.51 424.31"><defs><style>.cls-1{fill:#e8e8e8;}.cls-2{fill:#fff;}.cls-3{fill:#bdbdbd;}.cls-4{fill:#ffcb8b;}.cls-5{fill:#9fcb8b;}.cls-6{fill:#9f7ea7;}.cls-7{fill:#42c093;}.cls-8{fill:#c57caf;}</style></defs><title>2</title><rect class="cls-1" x="176.68" y="60.41" width="205.92" height="302.34"/><rect class="cls-2" x="187.41" y="51.89" width="200" height="33.31" rx="5.07" ry="5.07"/><rect class="cls-3" x="180.82" y="362.75" width="213.19" height="61.06"/><path d="M403,431.9H188.82V369.84H403V431.9Zm-213.19-1H402V370.84H189.82V430.9Z" transform="translate(-8.5 -7.6)"/><rect class="cls-2" x="192.23" y="269.14" width="190.38" height="93.61"/><path d="M391.6,370.84H200.22V276.24H391.6v94.61Zm-190.38-1H390.6V277.24H201.22v92.61Z" transform="translate(-8.5 -7.6)"/><rect class="cls-2" x="192.23" y="118.5" width="190.38" height="150.64"/><path d="M391.6,277.24H200.22V125.6H391.6V277.24Zm-190.38-1H390.6V126.6H201.22V276.24Z" transform="translate(-8.5 -7.6)"/><path d="M260.92,407h-1.74v-7H251.3v7h-1.74V392h1.74v6.37h7.88V392h1.74v15Z" transform="translate(-8.5 -7.6)"/><path d="M271.67,407l-0.34-1.6h-0.08a4.72,4.72,0,0,1-1.67,1.43,5.1,5.1,0,0,1-2.08.37,3.75,3.75,0,0,1-2.62-.86,3.13,3.13,0,0,1-.95-2.45q0-3.4,5.44-3.56l1.9-.06v-0.7a2.84,2.84,0,0,0-.57-2,2.34,2.34,0,0,0-1.82-.63,7.4,7.4,0,0,0-3.17.86l-0.52-1.3a8.15,8.15,0,0,1,3.8-1,4.27,4.27,0,0,1,3,.89,3.72,3.72,0,0,1,1,2.86V407h-1.26Zm-3.84-1.2a3.45,3.45,0,0,0,2.49-.87,3.22,3.22,0,0,0,.91-2.44v-1l-1.7.07a6.19,6.19,0,0,0-2.92.63,1.9,1.9,0,0,0-.9,1.74,1.75,1.75,0,0,0,.56,1.4A2.31,2.31,0,0,0,267.83,405.82Z" transform="translate(-8.5 -7.6)"/><path d="M281.55,395.59a6.64,6.64,0,0,1,1.34.12l-0.24,1.58a5.77,5.77,0,0,0-1.23-.15,3,3,0,0,0-2.33,1.11,4,4,0,0,0-1,2.75v6h-1.7V395.8h1.4l0.19,2.08h0.08a4.93,4.93,0,0,1,1.5-1.69A3.39,3.39,0,0,1,281.55,395.59Z" transform="translate(-8.5 -7.6)"/><path d="M292.62,405.51h-0.09a4,4,0,0,1-3.52,1.71,4.17,4.17,0,0,1-3.42-1.5,6.62,6.62,0,0,1-1.22-4.28,6.73,6.73,0,0,1,1.23-4.31,4.13,4.13,0,0,1,3.42-1.54,4.08,4.08,0,0,1,3.5,1.66h0.13l-0.07-.81,0-.79v-4.57h1.7V407h-1.38Zm-3.4.29a3.09,3.09,0,0,0,2.52-.95,4.78,4.78,0,0,0,.78-3.06v-0.36a5.63,5.63,0,0,0-.79-3.4,3,3,0,0,0-2.53-1,2.6,2.6,0,0,0-2.29,1.16,5.78,5.78,0,0,0-.79,3.28,5.54,5.54,0,0,0,.79,3.25A2.67,2.67,0,0,0,289.23,405.8Z" transform="translate(-8.5 -7.6)"/><path d="M307,407l-2.06-6.58q-0.19-.6-0.73-2.74h-0.08q-0.41,1.79-.72,2.76L301.29,407h-2l-3.06-11.22H298l1.65,6.44a26.11,26.11,0,0,1,.65,3h0.08q0.11-.58.36-1.51t0.44-1.47l2.06-6.44h1.84l2,6.44a21.79,21.79,0,0,1,.78,3H308a10.86,10.86,0,0,1,.22-1.14q0.18-.77,2.13-8.26h1.76L309,407h-2Z" transform="translate(-8.5 -7.6)"/><path d="M321,407l-0.34-1.6h-0.08a4.74,4.74,0,0,1-1.67,1.43,5.11,5.11,0,0,1-2.08.37,3.75,3.75,0,0,1-2.62-.86,3.13,3.13,0,0,1-.95-2.45q0-3.4,5.43-3.56l1.9-.06v-0.7a2.84,2.84,0,0,0-.57-2,2.34,2.34,0,0,0-1.82-.63,7.4,7.4,0,0,0-3.17.86l-0.52-1.3a8.15,8.15,0,0,1,3.8-1,4.27,4.27,0,0,1,3,.89,3.72,3.72,0,0,1,1,2.86V407H321Zm-3.84-1.2a3.45,3.45,0,0,0,2.49-.87,3.21,3.21,0,0,0,.91-2.44v-1l-1.7.07a6.19,6.19,0,0,0-2.92.63,1.9,1.9,0,0,0-.9,1.74,1.75,1.75,0,0,0,.56,1.4A2.31,2.31,0,0,0,317.2,405.82Z" transform="translate(-8.5 -7.6)"/><path d="M330.92,395.59a6.64,6.64,0,0,1,1.34.12L332,397.29a5.79,5.79,0,0,0-1.23-.15,3,3,0,0,0-2.33,1.11,4,4,0,0,0-1,2.75v6h-1.7V395.8h1.4l0.19,2.08h0.08a4.93,4.93,0,0,1,1.5-1.69A3.39,3.39,0,0,1,330.92,395.59Z" transform="translate(-8.5 -7.6)"/><path d="M339.1,407.22a5.15,5.15,0,0,1-3.93-1.52,5.86,5.86,0,0,1-1.44-4.21,6.51,6.51,0,0,1,1.34-4.31,4.44,4.44,0,0,1,3.59-1.6A4.23,4.23,0,0,1,342,397a5.31,5.31,0,0,1,1.23,3.66v1.07h-7.73a4.45,4.45,0,0,0,1,3,3.46,3.46,0,0,0,2.67,1,9,9,0,0,0,3.58-.76v1.51a9,9,0,0,1-1.7.56A9.59,9.59,0,0,1,339.1,407.22ZM338.64,397a2.77,2.77,0,0,0-2.15.88,4.05,4.05,0,0,0-.95,2.44h5.87a3.73,3.73,0,0,0-.72-2.46A2.52,2.52,0,0,0,338.64,397Z" transform="translate(-8.5 -7.6)"/><path d="M263.87,334.07h-3.51L251,321.63,248.32,324v10.05h-3V308.41h3v12.72L260,308.41h3.53l-10.32,11.14Z" transform="translate(-8.5 -7.6)"/><path d="M275.08,334.42a8.84,8.84,0,0,1-6.73-2.6,10.05,10.05,0,0,1-2.47-7.21,11.15,11.15,0,0,1,2.29-7.39,7.61,7.61,0,0,1,6.15-2.74,7.25,7.25,0,0,1,5.72,2.38,9.11,9.11,0,0,1,2.11,6.27V325H268.9a7.62,7.62,0,0,0,1.71,5.14,5.92,5.92,0,0,0,4.57,1.75,15.48,15.48,0,0,0,6.14-1.3v2.6a15.46,15.46,0,0,1-2.92,1A16.4,16.4,0,0,1,275.08,334.42Zm-0.79-17.5a4.76,4.76,0,0,0-3.69,1.51,7,7,0,0,0-1.62,4.18H279a6.4,6.4,0,0,0-1.23-4.22A4.32,4.32,0,0,0,274.29,316.92Z" transform="translate(-8.5 -7.6)"/><path d="M295.89,314.48a11.46,11.46,0,0,1,2.3.21l-0.4,2.7a9.91,9.91,0,0,0-2.11-.26,5.13,5.13,0,0,0-4,1.9,6.91,6.91,0,0,0-1.66,4.72v10.32h-2.91V314.83h2.4l0.33,3.56H290a8.45,8.45,0,0,1,2.58-2.9A5.8,5.8,0,0,1,295.89,314.48Z" transform="translate(-8.5 -7.6)"/><path d="M314.95,334.07V321.63a5,5,0,0,0-1.07-3.51,4.36,4.36,0,0,0-3.35-1.16,5.52,5.52,0,0,0-4.42,1.63q-1.4,1.63-1.4,5.39v10.09h-2.91V314.83h2.37l0.47,2.63h0.14a6,6,0,0,1,2.51-2.2,8.17,8.17,0,0,1,3.6-.78,7.31,7.31,0,0,1,5.23,1.68q1.75,1.68,1.75,5.36v12.55h-2.91Z" transform="translate(-8.5 -7.6)"/><path d="M332,334.42a8.84,8.84,0,0,1-6.73-2.6,10.05,10.05,0,0,1-2.47-7.21,11.15,11.15,0,0,1,2.29-7.39,7.61,7.61,0,0,1,6.15-2.74,7.25,7.25,0,0,1,5.72,2.38,9.11,9.11,0,0,1,2.11,6.27V325H325.79a7.62,7.62,0,0,0,1.71,5.14,5.92,5.92,0,0,0,4.57,1.75,15.48,15.48,0,0,0,6.14-1.3v2.6a15.46,15.46,0,0,1-2.92,1A16.39,16.39,0,0,1,332,334.42Zm-0.79-17.5a4.76,4.76,0,0,0-3.69,1.51,7,7,0,0,0-1.62,4.18h10.05a6.4,6.4,0,0,0-1.23-4.22A4.32,4.32,0,0,0,331.18,316.92Z" transform="translate(-8.5 -7.6)"/><path d="M346.92,334.07H344v-27.3h2.91v27.3Z" transform="translate(-8.5 -7.6)"/><path d="M253.29,182.12a6.29,6.29,0,0,1-2.46,5.28,10.66,10.66,0,0,1-6.67,1.89,16.7,16.7,0,0,1-7-1.18v-2.88a18.53,18.53,0,0,0,3.44,1.05,18.13,18.13,0,0,0,3.69.39,7.43,7.43,0,0,0,4.49-1.13,3.72,3.72,0,0,0,1.51-3.15,4,4,0,0,0-.54-2.18,5,5,0,0,0-1.79-1.57,25.08,25.08,0,0,0-3.82-1.63,12.17,12.17,0,0,1-5.12-3,6.7,6.7,0,0,1-1.54-4.58,5.7,5.7,0,0,1,2.23-4.72,9.26,9.26,0,0,1,5.9-1.75,17.37,17.37,0,0,1,7,1.4l-0.93,2.6a15.91,15.91,0,0,0-6.18-1.33,6,6,0,0,0-3.7,1,3.35,3.35,0,0,0-1.33,2.83,4.33,4.33,0,0,0,.49,2.19,4.62,4.62,0,0,0,1.66,1.56,20.6,20.6,0,0,0,3.57,1.57,14.15,14.15,0,0,1,5.55,3.09A6.07,6.07,0,0,1,253.29,182.12Z" transform="translate(-8.5 -7.6)"/><path d="M255,169.71h3.12l4.21,11a41.81,41.81,0,0,1,1.72,5.42h0.14q0.23-.9,1-3.06T270,169.71h3.12l-8.27,21.9a10.92,10.92,0,0,1-2.87,4.61,6.1,6.1,0,0,1-4,1.36,11.7,11.7,0,0,1-2.63-.3v-2.33a10.13,10.13,0,0,0,2.16.21q3,0,4.28-3.37l1.07-2.74Z" transform="translate(-8.5 -7.6)"/><path d="M288.61,183.7a4.82,4.82,0,0,1-2,4.14A9.41,9.41,0,0,1,281,189.3a12.22,12.22,0,0,1-6-1.21v-2.7a14.35,14.35,0,0,0,3,1.11,12.4,12.4,0,0,0,3.06.4,6.94,6.94,0,0,0,3.51-.73,2.51,2.51,0,0,0,.25-4.14,15.33,15.33,0,0,0-3.8-1.89,20.63,20.63,0,0,1-3.82-1.75,5.21,5.21,0,0,1-1.68-1.69,4.42,4.42,0,0,1-.55-2.26,4.32,4.32,0,0,1,1.91-3.71,8.91,8.91,0,0,1,5.25-1.36,15.35,15.35,0,0,1,6.07,1.26l-1,2.37a14,14,0,0,0-5.25-1.19,6,6,0,0,0-3.12.65,2,2,0,0,0-1.05,1.79,2.18,2.18,0,0,0,.39,1.32,3.89,3.89,0,0,0,1.27,1,28.3,28.3,0,0,0,3.37,1.42,12.59,12.59,0,0,1,4.62,2.51A4.43,4.43,0,0,1,288.61,183.7Z" transform="translate(-8.5 -7.6)"/><path d="M299.56,186.89a9.51,9.51,0,0,0,1.49-.11,9.65,9.65,0,0,0,1.14-.24v2.23a5.32,5.32,0,0,1-1.4.38,10.57,10.57,0,0,1-1.66.15q-5.58,0-5.58-5.88V172H290.8v-1.4l2.75-1.21,1.23-4.11h1.68v4.46h5.58V172h-5.58V183.3a3.89,3.89,0,0,0,.82,2.67A2.87,2.87,0,0,0,299.56,186.89Z" transform="translate(-8.5 -7.6)"/><path d="M314.16,189.3a8.84,8.84,0,0,1-6.73-2.6,10.05,10.05,0,0,1-2.47-7.21,11.15,11.15,0,0,1,2.29-7.39,7.61,7.61,0,0,1,6.15-2.74,7.25,7.25,0,0,1,5.72,2.38,9.11,9.11,0,0,1,2.11,6.27v1.84H308a7.62,7.62,0,0,0,1.71,5.14,5.92,5.92,0,0,0,4.57,1.75,15.49,15.49,0,0,0,6.14-1.3v2.6a15.45,15.45,0,0,1-2.92,1A16.4,16.4,0,0,1,314.16,189.3Zm-0.79-17.5a4.76,4.76,0,0,0-3.69,1.51,7,7,0,0,0-1.62,4.18h10.05a6.4,6.4,0,0,0-1.23-4.22A4.32,4.32,0,0,0,313.37,171.8Z" transform="translate(-8.5 -7.6)"/><path d="M350.71,188.95V176.43a5.2,5.2,0,0,0-1-3.45,3.8,3.8,0,0,0-3.05-1.15,4.93,4.93,0,0,0-4,1.56,7.42,7.42,0,0,0-1.3,4.81v10.74h-2.91V176.43a5.19,5.19,0,0,0-1-3.45,3.83,3.83,0,0,0-3.07-1.15,4.76,4.76,0,0,0-4,1.64q-1.27,1.64-1.27,5.38v10.09H326.2V169.71h2.37l0.47,2.63h0.14a5.72,5.72,0,0,1,2.33-2.19,7.1,7.1,0,0,1,3.36-.79q4.51,0,5.9,3.26h0.14a6.14,6.14,0,0,1,2.49-2.39,7.73,7.73,0,0,1,3.72-.88A6.52,6.52,0,0,1,352,171q1.62,1.68,1.62,5.36v12.55h-2.91Z" transform="translate(-8.5 -7.6)"/><path d="M239.38,228.12a6.29,6.29,0,0,1-2.46,5.28,10.66,10.66,0,0,1-6.67,1.89,16.7,16.7,0,0,1-7-1.18v-2.88a18.53,18.53,0,0,0,3.44,1.05,18.13,18.13,0,0,0,3.69.39,7.43,7.43,0,0,0,4.49-1.13,3.72,3.72,0,0,0,1.51-3.15,4,4,0,0,0-.54-2.18,5,5,0,0,0-1.79-1.57,25.08,25.08,0,0,0-3.82-1.63,12.17,12.17,0,0,1-5.12-3,6.7,6.7,0,0,1-1.54-4.58,5.7,5.7,0,0,1,2.23-4.72,9.26,9.26,0,0,1,5.9-1.75,17.38,17.38,0,0,1,7,1.4l-0.93,2.6a15.91,15.91,0,0,0-6.18-1.33,6,6,0,0,0-3.7,1,3.35,3.35,0,0,0-1.33,2.83,4.33,4.33,0,0,0,.49,2.18,4.62,4.62,0,0,0,1.66,1.56,20.6,20.6,0,0,0,3.57,1.57,14.15,14.15,0,0,1,5.55,3.09A6.07,6.07,0,0,1,239.38,228.12Z" transform="translate(-8.5 -7.6)"/><path d="M260.79,225.31a10.61,10.61,0,0,1-2.37,7.34,8.34,8.34,0,0,1-6.54,2.64,8.67,8.67,0,0,1-4.58-1.21,8,8,0,0,1-3.09-3.47,12.11,12.11,0,0,1-1.09-5.3q0-4.7,2.35-7.33a8.32,8.32,0,0,1,6.53-2.62,8.13,8.13,0,0,1,6.41,2.68A10.56,10.56,0,0,1,260.79,225.31Zm-14.65,0a9.12,9.12,0,0,0,1.47,5.62,5.85,5.85,0,0,0,8.68,0,9.08,9.08,0,0,0,1.48-5.62,8.94,8.94,0,0,0-1.48-5.57,5.21,5.21,0,0,0-4.38-1.9,5.13,5.13,0,0,0-4.32,1.88A9,9,0,0,0,246.14,225.31Z" transform="translate(-8.5 -7.6)"/><path d="M274.56,218h-4.9v17h-2.91V218h-3.44v-1.32l3.44-1.05v-1.07q0-7.09,6.19-7.09a12.76,12.76,0,0,1,3.58.61l-0.75,2.33a9.62,9.62,0,0,0-2.88-.54,2.8,2.8,0,0,0-2.44,1.1,6.12,6.12,0,0,0-.79,3.52v1.25h4.9V218Z" transform="translate(-8.5 -7.6)"/><path d="M284.29,232.89a9.51,9.51,0,0,0,1.49-.11,9.65,9.65,0,0,0,1.14-.24v2.23a5.32,5.32,0,0,1-1.4.38,10.57,10.57,0,0,1-1.66.15q-5.58,0-5.58-5.88V218h-2.75v-1.4l2.75-1.21,1.23-4.11h1.68v4.46h5.58V218H281.2V229.3A3.89,3.89,0,0,0,282,232,2.87,2.87,0,0,0,284.29,232.89Z" transform="translate(-8.5 -7.6)"/><path d="M306.47,234.95l-3.53-11.28q-0.33-1-1.25-4.7h-0.14q-0.7,3.07-1.23,4.74l-3.63,11.25h-3.37l-5.25-19.23h3.05l2.83,11a44.83,44.83,0,0,1,1.11,5.11h0.14q0.19-1,.62-2.59t0.75-2.52l3.53-11h3.16l3.44,11a37.27,37.27,0,0,1,1.33,5.07h0.14a18.36,18.36,0,0,1,.38-1.95q0.31-1.32,3.66-14.16h3l-5.32,19.23h-3.46Z" transform="translate(-8.5 -7.6)"/><path d="M330.54,234.95L330,232.21h-0.14a8.11,8.11,0,0,1-2.87,2.45,8.75,8.75,0,0,1-3.57.64,6.43,6.43,0,0,1-4.48-1.47,5.38,5.38,0,0,1-1.62-4.19q0-5.83,9.32-6.11l3.26-.1v-1.19a4.87,4.87,0,0,0-1-3.34,4,4,0,0,0-3.11-1.08,12.69,12.69,0,0,0-5.44,1.47l-0.9-2.23a13.73,13.73,0,0,1,3.12-1.21,13.51,13.51,0,0,1,3.4-.44,7.33,7.33,0,0,1,5.1,1.53q1.66,1.53,1.66,4.9v13.13h-2.16ZM324,232.89a5.91,5.91,0,0,0,4.27-1.49,5.52,5.52,0,0,0,1.55-4.18v-1.74l-2.91.12a10.59,10.59,0,0,0-5,1.08,3.25,3.25,0,0,0-1.54,3,3,3,0,0,0,1,2.4A4,4,0,0,0,324,232.89Z" transform="translate(-8.5 -7.6)"/><path d="M347.47,215.36a11.46,11.46,0,0,1,2.3.21l-0.4,2.7a9.91,9.91,0,0,0-2.11-.26,5.13,5.13,0,0,0-4,1.9,6.91,6.91,0,0,0-1.66,4.72v10.32H338.7V215.71h2.4l0.33,3.56h0.14a8.45,8.45,0,0,1,2.58-2.9A5.8,5.8,0,0,1,347.47,215.36Z" transform="translate(-8.5 -7.6)"/><path d="M361.49,235.3a8.84,8.84,0,0,1-6.73-2.6,10.05,10.05,0,0,1-2.47-7.21,11.15,11.15,0,0,1,2.29-7.39,7.61,7.61,0,0,1,6.15-2.74,7.25,7.25,0,0,1,5.72,2.38,9.11,9.11,0,0,1,2.11,6.27v1.84H355.32A7.62,7.62,0,0,0,357,231a5.92,5.92,0,0,0,4.57,1.75,15.48,15.48,0,0,0,6.14-1.3v2.6a15.46,15.46,0,0,1-2.92,1A16.39,16.39,0,0,1,361.49,235.3Zm-0.79-17.5a4.76,4.76,0,0,0-3.69,1.51,7,7,0,0,0-1.62,4.18h10.05a6.4,6.4,0,0,0-1.23-4.22A4.32,4.32,0,0,0,360.7,217.8Z" transform="translate(-8.5 -7.6)"/><path d="M233.11,49.91v16.6a9,9,0,0,1-2.65,6.9,10.16,10.16,0,0,1-7.28,2.51q-4.63,0-7.17-2.53a9.37,9.37,0,0,1-2.54-6.95V49.91h3V66.65a6.59,6.59,0,0,0,1.75,4.93,7.08,7.08,0,0,0,5.16,1.72,6.83,6.83,0,0,0,5-1.73,6.65,6.65,0,0,0,1.75-5V49.91h3Z" transform="translate(-8.5 -7.6)"/><path d="M251.87,70.32a4.82,4.82,0,0,1-2,4.14,9.4,9.4,0,0,1-5.62,1.46,12.21,12.21,0,0,1-6-1.21V72a14.43,14.43,0,0,0,3,1.11,12.42,12.42,0,0,0,3.06.4,7,7,0,0,0,3.51-.73,2.51,2.51,0,0,0,.25-4.14,15.32,15.32,0,0,0-3.8-1.89A20.6,20.6,0,0,1,240.47,65a5.22,5.22,0,0,1-1.68-1.69,4.42,4.42,0,0,1-.55-2.26,4.31,4.31,0,0,1,1.91-3.71A8.91,8.91,0,0,1,245.39,56a15.35,15.35,0,0,1,6.07,1.26l-1,2.37a13.94,13.94,0,0,0-5.25-1.19,6,6,0,0,0-3.12.65A2,2,0,0,0,241,60.86a2.18,2.18,0,0,0,.39,1.32,3.89,3.89,0,0,0,1.27,1A28.36,28.36,0,0,0,246,64.64a12.59,12.59,0,0,1,4.62,2.51A4.43,4.43,0,0,1,251.87,70.32Z" transform="translate(-8.5 -7.6)"/><path d="M264.73,75.92a8.84,8.84,0,0,1-6.73-2.6,10.05,10.05,0,0,1-2.47-7.21,11.15,11.15,0,0,1,2.29-7.39A7.61,7.61,0,0,1,264,56a7.25,7.25,0,0,1,5.72,2.38,9.11,9.11,0,0,1,2.11,6.27v1.84H258.55a7.62,7.62,0,0,0,1.71,5.14,5.92,5.92,0,0,0,4.57,1.75,15.48,15.48,0,0,0,6.14-1.3v2.6a15.43,15.43,0,0,1-2.92,1A16.43,16.43,0,0,1,264.73,75.92Zm-0.79-17.5a4.76,4.76,0,0,0-3.69,1.51,7,7,0,0,0-1.62,4.18h10.05a6.4,6.4,0,0,0-1.23-4.22A4.32,4.32,0,0,0,263.94,58.42Z" transform="translate(-8.5 -7.6)"/><path d="M285.54,56a11.39,11.39,0,0,1,2.3.21l-0.4,2.7a9.93,9.93,0,0,0-2.11-.26,5.13,5.13,0,0,0-4,1.9,6.91,6.91,0,0,0-1.66,4.72V75.57h-2.91V56.34h2.4l0.33,3.56h0.14a8.45,8.45,0,0,1,2.58-2.9A5.81,5.81,0,0,1,285.54,56Z" transform="translate(-8.5 -7.6)"/><path d="M317.34,75.57l-3.19-8.16H303.86l-3.16,8.16h-3l10.14-25.76h2.51l10.09,25.76h-3.09Zm-4.12-10.84-3-7.95q-0.58-1.51-1.19-3.7a33.37,33.37,0,0,1-1.11,3.7l-3,7.95h8.3Z" transform="translate(-8.5 -7.6)"/><path d="M332.46,75.92a8.33,8.33,0,0,1-3.43-.69,6.45,6.45,0,0,1-2.61-2.13h-0.21a25.93,25.93,0,0,1,.21,3.19V84.2h-2.91V56.34h2.37l0.4,2.63h0.14A6.77,6.77,0,0,1,329,56.69a8,8,0,0,1,3.42-.7,7.11,7.11,0,0,1,5.9,2.61q2.08,2.62,2.08,7.33t-2.11,7.36A7.12,7.12,0,0,1,332.46,75.92ZM332,58.46a5.16,5.16,0,0,0-4.26,1.63q-1.32,1.63-1.35,5.19v0.65q0,4.05,1.35,5.8a5.14,5.14,0,0,0,4.33,1.75,4.51,4.51,0,0,0,3.9-2,9.57,9.57,0,0,0,1.41-5.56A9.21,9.21,0,0,0,336,60.38,4.65,4.65,0,0,0,332,58.46Z" transform="translate(-8.5 -7.6)"/><path d="M354.48,75.92a8.33,8.33,0,0,1-3.43-.69,6.45,6.45,0,0,1-2.61-2.13h-0.21a25.93,25.93,0,0,1,.21,3.19V84.2h-2.91V56.34h2.37l0.4,2.63h0.14a6.77,6.77,0,0,1,2.62-2.28,8,8,0,0,1,3.42-.7,7.11,7.11,0,0,1,5.9,2.61q2.08,2.62,2.08,7.33t-2.11,7.36A7.12,7.12,0,0,1,354.48,75.92Zm-0.42-17.46a5.16,5.16,0,0,0-4.26,1.63q-1.32,1.63-1.35,5.19v0.65q0,4.05,1.35,5.8a5.14,5.14,0,0,0,4.33,1.75,4.51,4.51,0,0,0,3.9-2,9.57,9.57,0,0,0,1.41-5.56A9.21,9.21,0,0,0,358,60.38,4.65,4.65,0,0,0,354.06,58.46Z" transform="translate(-8.5 -7.6)"/><path d="M380,70.32a4.82,4.82,0,0,1-2,4.14,9.4,9.4,0,0,1-5.62,1.46,12.21,12.21,0,0,1-6-1.21V72a14.43,14.43,0,0,0,3,1.11,12.42,12.42,0,0,0,3.06.4,7,7,0,0,0,3.51-.73,2.51,2.51,0,0,0,.25-4.14,15.34,15.34,0,0,0-3.8-1.89A20.56,20.56,0,0,1,368.57,65a5.21,5.21,0,0,1-1.68-1.69,4.41,4.41,0,0,1-.55-2.26,4.31,4.31,0,0,1,1.91-3.71A8.91,8.91,0,0,1,373.49,56a15.35,15.35,0,0,1,6.07,1.26l-1,2.37a13.94,13.94,0,0,0-5.25-1.19,6,6,0,0,0-3.12.65,2,2,0,0,0-1.05,1.79,2.18,2.18,0,0,0,.39,1.32,3.9,3.9,0,0,0,1.27,1,28.44,28.44,0,0,0,3.37,1.42,12.59,12.59,0,0,1,4.62,2.51A4.43,4.43,0,0,1,380,70.32Z" transform="translate(-8.5 -7.6)"/><circle class="cls-4" cx="239.75" cy="98.22" r="7.79"/><path d="M248.25,114.61a8.79,8.79,0,1,1,8.79-8.79A8.8,8.8,0,0,1,248.25,114.61Zm0-15.58a6.79,6.79,0,1,0,6.79,6.79A6.8,6.8,0,0,0,248.25,99Z" transform="translate(-8.5 -7.6)"/><circle class="cls-5" cx="309.34" cy="95.51" r="7.79"/><path d="M317.84,111.9a8.79,8.79,0,1,1,8.79-8.79A8.8,8.8,0,0,1,317.84,111.9Zm0-15.59a6.79,6.79,0,1,0,6.79,6.79A6.8,6.8,0,0,0,317.84,96.32Z" transform="translate(-8.5 -7.6)"/><circle class="cls-6" cx="274.55" cy="106.01" r="7.79"/><path d="M283,122.4a8.79,8.79,0,1,1,8.79-8.79A8.8,8.8,0,0,1,283,122.4Zm0-15.58a6.79,6.79,0,1,0,6.79,6.79A6.8,6.8,0,0,0,283,106.82Z" transform="translate(-8.5 -7.6)"/><circle class="cls-4" cx="299.71" cy="8.31" r="7.31"/><path d="M308.21,24.22a8.31,8.31,0,1,1,8.31-8.31A8.32,8.32,0,0,1,308.21,24.22Zm0-14.62a6.31,6.31,0,1,0,6.31,6.31A6.32,6.32,0,0,0,308.21,9.6Z" transform="translate(-8.5 -7.6)"/><circle class="cls-7" cx="262.01" cy="15.62" r="7.31"/><path d="M270.5,31.53a8.31,8.31,0,1,1,8.31-8.31A8.32,8.32,0,0,1,270.5,31.53Zm0-14.62a6.31,6.31,0,1,0,6.31,6.31A6.32,6.32,0,0,0,270.5,16.91Z" transform="translate(-8.5 -7.6)"/><circle class="cls-8" cx="335.56" cy="18.68" r="7.31"/><path d="M344.06,34.59a8.31,8.31,0,1,1,8.31-8.31A8.32,8.32,0,0,1,344.06,34.59Zm0-14.62a6.31,6.31,0,1,0,6.31,6.31A6.32,6.32,0,0,0,344.06,20Z" transform="translate(-8.5 -7.6)"/><path class="cls-1" d="M185.17,68c-19.34.06-42,4.73-42,155.4s18.68,146.94,42,146.94" transform="translate(-8.5 -7.6)"/><path d="M181.18,70.13a2,2,0,0,1-.13-4c1.53-.1,3-0.13,4.12-0.13h0a2,2,0,0,1,0,4c-1.06,0-2.45,0-3.86.12h-0.14Z" transform="translate(-8.5 -7.6)"/><path d="M172.62,371.69a2,2,0,0,1-.39,0,21.73,21.73,0,0,1-8.21-3.36,2,2,0,0,1,2.26-3.3,17.8,17.8,0,0,0,6.73,2.73A2,2,0,0,1,172.62,371.69Zm-13.13-8.79a2,2,0,0,1-1.64-.85,42.34,42.34,0,0,1-4.09-7.47,2,2,0,0,1,3.67-1.59,38.4,38.4,0,0,0,3.69,6.76A2,2,0,0,1,159.49,362.9Zm-6.65-14.76a2,2,0,0,1-1.91-1.42c-0.74-2.45-1.45-5.15-2.09-8a2,2,0,1,1,3.9-.88c0.63,2.77,1.31,5.37,2,7.73A2,2,0,0,1,152.84,348.14Zm-3.65-15.85a2,2,0,0,1-2-1.65c-0.45-2.55-.88-5.28-1.27-8.11a2,2,0,1,1,4-.55c0.39,2.78.81,5.47,1.25,8a2,2,0,0,1-1.62,2.32A2,2,0,0,1,149.18,332.29Zm-2.28-16.12a2,2,0,0,1-2-1.77c-0.29-2.61-.57-5.35-0.83-8.14a2,2,0,1,1,4-.37c0.25,2.77.53,5.48,0.82,8.06a2,2,0,0,1-1.76,2.21H146.9ZM145.4,300a2,2,0,0,1-2-1.85q-0.3-3.93-.55-8.15a2,2,0,1,1,4-.24q0.26,4.19.55,8.1a2,2,0,0,1-1.84,2.14H145.4Zm-1-16.26a2,2,0,0,1-2-1.9q-0.2-4-.36-8.16a2,2,0,0,1,4-.16q0.16,4.18.36,8.12a2,2,0,0,1-1.9,2.1h-0.1ZM143.75,267a1.83,1.83,0,0,1-2-1.73c-0.08-2.65-.16-5.27-0.22-8.06a2,2,0,0,1,2-2,2,2,0,0,1,2,2c0.06,2.78.14,5.29,0.22,7.93a1.82,1.82,0,0,1-1.94,1.87h-0.06Zm-0.38-16a2,2,0,0,1-2-1.9c0-2.66-.08-5.34-0.11-8.12a2,2,0,0,1,2-2h0a2,2,0,0,1,2,2c0,2.77.07,5.41,0.11,8.07a1.93,1.93,0,0,1-2,2h0Zm-0.18-16a2.07,2.07,0,0,1-2-2.07c0-2.67,0-5.27,0-8a1.9,1.9,0,0,1,2-1.88h0a1.87,1.87,0,0,1,2,1.84q0,4.15,0,8.14a2,2,0,0,1-2,2h0Zm0-16h0a2.21,2.21,0,0,1-2-2.24c0-2.77,0-5.61.06-8.28a2.07,2.07,0,0,1,2-2,2,2,0,0,1,2,2c0,2.66,0,5.59-.06,8.36A2.2,2.2,0,0,1,143.18,219Zm0.18-17h0a1.89,1.89,0,0,1-2-1.92c0-2.78.11-5.44,0.17-8.1a2,2,0,0,1,2-1.92,2,2,0,0,1,1.95,2.06c-0.07,2.65-.12,5.25-0.17,8A1.91,1.91,0,0,1,143.36,202Zm0.41-16H143.7a2,2,0,0,1-1.93-2.09c0.09-2.79.19-5.52,0.31-8.18a2,2,0,1,1,4,.16c-0.11,2.64-.21,5.38-0.31,8.15A2,2,0,0,1,143.77,186Zm0.69-16.34h-0.11a2,2,0,0,1-1.89-2.1q0.22-4.19.48-8.16a2,2,0,0,1,4,.26q-0.25,3.94-.47,8.11A2,2,0,0,1,144.46,169.66Zm1.05-16.26h-0.16a2,2,0,0,1-1.84-2.15q0.33-4.21.7-8.15a2,2,0,0,1,4,.38q-0.37,3.91-.7,8.08A2,2,0,0,1,145.52,153.4Zm1.54-16.22h-0.23a2,2,0,0,1-1.76-2.21c0.31-2.78.65-5.52,1-8.13a2,2,0,1,1,4,.54c-0.35,2.58-.69,5.29-1,8A2,2,0,0,1,147.06,137.18ZM149.27,121l-0.33,0a2,2,0,0,1-1.65-2.3c0.46-2.8,1-5.52,1.47-8.08a2,2,0,1,1,3.92.79c-0.51,2.51-1,5.18-1.45,7.94A2,2,0,0,1,149.27,121Zm3.25-16a2,2,0,0,1-1.94-2.49c0.71-2.81,1.47-5.49,2.26-8a2,2,0,0,1,3.81,1.23c-0.77,2.38-1.5,5-2.19,7.7A2,2,0,0,1,152.52,105.1Zm5.06-15.45a2,2,0,0,1-1.83-2.79,55.21,55.21,0,0,1,3.89-7.49A2,2,0,0,1,163,81.49a51.2,51.2,0,0,0-3.6,6.94A2,2,0,0,1,157.58,89.64Zm8.84-13.51a2,2,0,0,1-1.36-3.46,23.27,23.27,0,0,1,7.44-4.74A2,2,0,0,1,174,71.65a19.36,19.36,0,0,0-6.18,3.95A2,2,0,0,1,166.42,76.13Z" transform="translate(-8.5 -7.6)"/><path d="M181.92,372.35h-0.75a2,2,0,0,1,0-4c0.24,0,.49,0,0.74,0h3.25a2,2,0,1,1,0,4h-3.26Z" transform="translate(-8.5 -7.6)"/><path d="M143.66,225.4h-4a2,2,0,0,1,0-4h4A2,2,0,0,1,143.66,225.4Z" transform="translate(-8.5 -7.6)"/><path d="M131.32,225.4H123a2,2,0,1,1,0-4h8.34A2,2,0,0,1,131.32,225.4Zm-16.69,0h-8.34a2,2,0,1,1,0-4h8.34A2,2,0,0,1,114.63,225.4Zm-16.69,0H89.6a2,2,0,0,1,0-4h8.34A2,2,0,0,1,97.94,225.4Zm-16.69,0H72.91a2,2,0,0,1,0-4h8.34A2,2,0,0,1,81.25,225.4Zm-16.69,0H56.22a2,2,0,1,1,0-4h8.34A2,2,0,1,1,64.56,225.4Zm-16.69,0H39.53a2,2,0,0,1,0-4h8.34A2,2,0,0,1,47.87,225.4Zm-16.69,0H22.84a2,2,0,1,1,0-4h8.34A2,2,0,0,1,31.19,225.4Z" transform="translate(-8.5 -7.6)"/><path d="M14.5,225.4h-4a2,2,0,0,1,0-4h4A2,2,0,0,1,14.5,225.4Z" transform="translate(-8.5 -7.6)"/><path d="M38.56,179.57H36.83l-3-10q-0.22-.67-0.48-1.68a9.81,9.81,0,0,1-.28-1.22,23.35,23.35,0,0,1-.72,3l-2.93,10H27.68l-4-15h1.85l2.37,9.26a34.44,34.44,0,0,1,.72,3.53,25.47,25.47,0,0,1,.82-3.67l2.69-9.12H34l2.82,9.2a28,28,0,0,1,.83,3.59,30.74,30.74,0,0,1,.74-3.55l2.36-9.24h1.85Z" transform="translate(-8.5 -7.6)"/><path d="M44.52,165.29a1.13,1.13,0,0,1,.29-0.86,1.06,1.06,0,0,1,1.43,0,1.11,1.11,0,0,1,.3.85,1.13,1.13,0,0,1-.3.86,1,1,0,0,1-1.43,0A1.15,1.15,0,0,1,44.52,165.29Zm1.85,14.28h-1.7V168.33h1.7v11.24Z" transform="translate(-8.5 -7.6)"/><path d="M57.66,179.57V172.3a2.93,2.93,0,0,0-.63-2.05,2.55,2.55,0,0,0-2-.68,3.23,3.23,0,0,0-2.58,1,4.81,4.81,0,0,0-.82,3.15v5.9H50V168.33h1.38l0.28,1.54h0.08a3.48,3.48,0,0,1,1.47-1.29,4.77,4.77,0,0,1,2.1-.46,4.27,4.27,0,0,1,3.06,1,4.17,4.17,0,0,1,1,3.13v7.33h-1.7Z" transform="translate(-8.5 -7.6)"/><path d="M70.51,178.06H70.42a4,4,0,0,1-3.53,1.71,4.17,4.17,0,0,1-3.43-1.51A6.63,6.63,0,0,1,62.23,174a6.75,6.75,0,0,1,1.23-4.32,4.14,4.14,0,0,1,3.42-1.54,4.09,4.09,0,0,1,3.51,1.66h0.13L70.46,169l0-.79v-4.57h1.7v16H70.73Zm-3.4.29a3.1,3.1,0,0,0,2.53-.95,4.79,4.79,0,0,0,.78-3.06V174a5.64,5.64,0,0,0-.79-3.41,3,3,0,0,0-2.54-1,2.61,2.61,0,0,0-2.29,1.16A5.79,5.79,0,0,0,64,174a5.55,5.55,0,0,0,.79,3.25A2.67,2.67,0,0,0,67.1,178.35Z" transform="translate(-8.5 -7.6)"/><path d="M85.43,173.94A6.2,6.2,0,0,1,84,178.23a4.88,4.88,0,0,1-3.82,1.54,5.07,5.07,0,0,1-2.68-.71,4.67,4.67,0,0,1-1.8-2,7.08,7.08,0,0,1-.64-3.1,6.19,6.19,0,0,1,1.37-4.28,4.86,4.86,0,0,1,3.81-1.53A4.75,4.75,0,0,1,84,169.7,6.17,6.17,0,0,1,85.43,173.94Zm-8.56,0a5.33,5.33,0,0,0,.86,3.28,3.42,3.42,0,0,0,5.07,0,5.31,5.31,0,0,0,.87-3.29,5.22,5.22,0,0,0-.87-3.26,3,3,0,0,0-2.56-1.11,3,3,0,0,0-2.52,1.1A5.28,5.28,0,0,0,76.87,173.94Z" transform="translate(-8.5 -7.6)"/><path d="M97.59,179.57L95.53,173q-0.19-.6-0.73-2.75H94.72Q94.31,172,94,173l-2.12,6.57h-2l-3.07-11.24h1.78l1.66,6.45a26,26,0,0,1,.65,3H91q0.11-.58.36-1.51t0.44-1.47l2.06-6.45h1.85l2,6.45a21.77,21.77,0,0,1,.78,3h0.08a10.85,10.85,0,0,1,.22-1.14q0.18-.77,2.14-8.27h1.76l-3.11,11.24h-2Z" transform="translate(-8.5 -7.6)"/><path d="M112,176.5a2.82,2.82,0,0,1-1.17,2.42,5.49,5.49,0,0,1-3.28.85,7.13,7.13,0,0,1-3.49-.71v-1.58a8.43,8.43,0,0,0,1.74.65,7.26,7.26,0,0,0,1.79.24,4.06,4.06,0,0,0,2.05-.43,1.47,1.47,0,0,0,.15-2.42,9,9,0,0,0-2.22-1.1,12,12,0,0,1-2.23-1,3,3,0,0,1-1-1,2.58,2.58,0,0,1-.32-1.32,2.52,2.52,0,0,1,1.12-2.17,5.21,5.21,0,0,1,3.07-.79,9,9,0,0,1,3.55.74l-0.6,1.38a8.14,8.14,0,0,0-3.07-.7,3.53,3.53,0,0,0-1.83.38,1.17,1.17,0,0,0-.62,1,1.28,1.28,0,0,0,.23.77,2.28,2.28,0,0,0,.74.6,16.61,16.61,0,0,0,2,.83,7.35,7.35,0,0,1,2.7,1.47A2.59,2.59,0,0,1,112,176.5Z" transform="translate(-8.5 -7.6)"/><path d="M32.11,204.77L27,191.48H26.94q0.14,1.58.14,3.75v9.54H25.47v-15H28.1l4.75,12.37h0.08l4.79-12.37h2.6v15H38.58v-9.66q0-1.66.14-3.61H38.64l-5.13,13.27h-1.4Z" transform="translate(-8.5 -7.6)"/><path d="M51.09,204.77l-0.34-1.6H50.67A4.73,4.73,0,0,1,49,204.6a5.12,5.12,0,0,1-2.09.37,3.75,3.75,0,0,1-2.62-.86,3.14,3.14,0,0,1-.95-2.45q0-3.4,5.44-3.57l1.91-.06v-0.7a2.85,2.85,0,0,0-.57-2,2.34,2.34,0,0,0-1.82-.63,7.42,7.42,0,0,0-3.18.86l-0.52-1.3a8,8,0,0,1,1.82-.71,7.88,7.88,0,0,1,2-.26,4.28,4.28,0,0,1,3,.89,3.72,3.72,0,0,1,1,2.86v7.67H51.09Zm-3.85-1.2a3.45,3.45,0,0,0,2.5-.87,3.22,3.22,0,0,0,.91-2.44v-1l-1.7.07a6.19,6.19,0,0,0-2.93.63,1.9,1.9,0,0,0-.9,1.74,1.75,1.75,0,0,0,.56,1.4A2.32,2.32,0,0,0,47.24,203.57Z" transform="translate(-8.5 -7.6)"/><path d="M60.35,205a4.79,4.79,0,0,1-3.78-1.5,6.18,6.18,0,0,1-1.34-4.25,6.37,6.37,0,0,1,1.36-4.36,4.89,4.89,0,0,1,3.87-1.54,7.68,7.68,0,0,1,1.62.17,5.34,5.34,0,0,1,1.27.41l-0.52,1.45A8,8,0,0,0,61.6,195a5.5,5.5,0,0,0-1.18-.15q-3.42,0-3.42,4.37a5.2,5.2,0,0,0,.84,3.18,2.91,2.91,0,0,0,2.48,1.11,7.57,7.57,0,0,0,2.88-.6v1.51A6.14,6.14,0,0,1,60.35,205Z" transform="translate(-8.5 -7.6)"/><path d="M84.58,197.25a8.25,8.25,0,0,1-1.82,5.66A6.4,6.4,0,0,1,77.7,205a6.48,6.48,0,0,1-5.11-2,8.32,8.32,0,0,1-1.8-5.72,8.21,8.21,0,0,1,1.8-5.68,6.52,6.52,0,0,1,5.13-2,6.39,6.39,0,0,1,5,2.05A8.24,8.24,0,0,1,84.58,197.25Zm-11.95,0a7.11,7.11,0,0,0,1.3,4.62,5.3,5.3,0,0,0,7.53,0,9,9,0,0,0,0-9.21,4.54,4.54,0,0,0-3.75-1.56,4.63,4.63,0,0,0-3.79,1.57A7,7,0,0,0,72.63,197.25Z" transform="translate(-8.5 -7.6)"/><path d="M96.38,200.78a3.68,3.68,0,0,1-1.44,3.09A6.22,6.22,0,0,1,91,205a9.76,9.76,0,0,1-4.1-.69v-1.68a10.8,10.8,0,0,0,2,.62,10.57,10.57,0,0,0,2.15.23,4.34,4.34,0,0,0,2.63-.66,2.17,2.17,0,0,0,.88-1.84,2.37,2.37,0,0,0-.31-1.28,2.92,2.92,0,0,0-1-.92,14.66,14.66,0,0,0-2.23-1A7.12,7.12,0,0,1,88,196a3.92,3.92,0,0,1-.9-2.68,3.33,3.33,0,0,1,1.3-2.76,5.41,5.41,0,0,1,3.45-1,10.15,10.15,0,0,1,4.11.82l-0.54,1.52a9.29,9.29,0,0,0-3.61-.78,3.49,3.49,0,0,0-2.16.59,2,2,0,0,0-.78,1.65,2.53,2.53,0,0,0,.29,1.28,2.7,2.7,0,0,0,1,.91,12.06,12.06,0,0,0,2.09.92,8.27,8.27,0,0,1,3.25,1.8A3.55,3.55,0,0,1,96.38,200.78Z" transform="translate(-8.5 -7.6)"/><path d="M109.42,204.77h-2l-4-6.59-4.1,6.59H97.47l5-7.83-4.65-7.16h1.93l3.72,5.94,3.75-5.94h1.86l-4.65,7.1Z" transform="translate(-8.5 -7.6)"/><rect class="cls-1" x="563.68" y="268.86" width="205.92" height="93.88"/><rect class="cls-2" x="574.41" y="51.89" width="200" height="33.31" rx="5.07" ry="5.07"/><rect class="cls-3" x="567.82" y="362.75" width="213.19" height="61.06"/><path d="M790,431.9H575.82V369.84H790V431.9Zm-213.19-1H789V370.84H576.82V430.9Z" transform="translate(-8.5 -7.6)"/><rect class="cls-2" x="579.23" y="269.14" width="190.38" height="93.61"/><path d="M778.6,370.84H587.22V276.24H778.6v94.61Zm-190.38-1H777.6V277.24H588.22v92.61Z" transform="translate(-8.5 -7.6)"/><rect class="cls-2" x="579.23" y="118.5" width="190.38" height="150.64"/><path d="M778.6,277.24H587.22V125.6H778.6V277.24Zm-190.38-1H777.6V126.6H588.22V276.24Z" transform="translate(-8.5 -7.6)"/><path d="M647.92,407h-1.74v-7H638.3v7h-1.74V392h1.74v6.37h7.88V392h1.74v15Z" transform="translate(-8.5 -7.6)"/><path d="M658.67,407l-0.34-1.6h-0.08a4.73,4.73,0,0,1-1.67,1.43,5.1,5.1,0,0,1-2.08.37,3.75,3.75,0,0,1-2.62-.86,3.13,3.13,0,0,1-.95-2.45q0-3.4,5.44-3.56l1.9-.06v-0.7a2.84,2.84,0,0,0-.57-2,2.34,2.34,0,0,0-1.82-.63,7.4,7.4,0,0,0-3.17.86l-0.52-1.3a8.16,8.16,0,0,1,3.8-1,4.27,4.27,0,0,1,3,.89,3.72,3.72,0,0,1,1,2.86V407h-1.26Zm-3.84-1.2a3.45,3.45,0,0,0,2.49-.87,3.22,3.22,0,0,0,.91-2.44v-1l-1.7.07a6.19,6.19,0,0,0-2.92.63,1.9,1.9,0,0,0-.9,1.74,1.75,1.75,0,0,0,.56,1.4A2.31,2.31,0,0,0,654.83,405.82Z" transform="translate(-8.5 -7.6)"/><path d="M668.55,395.59a6.65,6.65,0,0,1,1.34.12l-0.24,1.58a5.77,5.77,0,0,0-1.23-.15,3,3,0,0,0-2.33,1.11,4,4,0,0,0-1,2.75v6h-1.7V395.8h1.4l0.19,2.08h0.08a4.93,4.93,0,0,1,1.5-1.69A3.39,3.39,0,0,1,668.55,395.59Z" transform="translate(-8.5 -7.6)"/><path d="M679.63,405.51h-0.09a4,4,0,0,1-3.52,1.71,4.17,4.17,0,0,1-3.42-1.5,6.62,6.62,0,0,1-1.22-4.28,6.73,6.73,0,0,1,1.23-4.31,4.13,4.13,0,0,1,3.42-1.54,4.08,4.08,0,0,1,3.5,1.66h0.13l-0.07-.81,0-.79v-4.57h1.7V407h-1.38Zm-3.4.29a3.09,3.09,0,0,0,2.52-.95,4.79,4.79,0,0,0,.78-3.06v-0.36a5.63,5.63,0,0,0-.79-3.4,3,3,0,0,0-2.53-1,2.6,2.6,0,0,0-2.29,1.16,5.78,5.78,0,0,0-.79,3.28,5.54,5.54,0,0,0,.79,3.25A2.67,2.67,0,0,0,676.23,405.8Z" transform="translate(-8.5 -7.6)"/><path d="M694,407l-2.06-6.58q-0.19-.6-0.73-2.74h-0.08q-0.41,1.79-.72,2.76L688.29,407h-2l-3.06-11.22H685l1.65,6.44a26.11,26.11,0,0,1,.65,3h0.08q0.11-.58.36-1.51t0.43-1.47l2.06-6.44h1.84l2,6.44a21.86,21.86,0,0,1,.78,3H695a10.76,10.76,0,0,1,.22-1.14q0.18-.77,2.13-8.26h1.76L696,407h-2Z" transform="translate(-8.5 -7.6)"/><path d="M708,407l-0.34-1.6h-0.08a4.74,4.74,0,0,1-1.67,1.43,5.1,5.1,0,0,1-2.08.37,3.75,3.75,0,0,1-2.62-.86,3.13,3.13,0,0,1-.95-2.45q0-3.4,5.43-3.56l1.9-.06v-0.7a2.84,2.84,0,0,0-.57-2,2.34,2.34,0,0,0-1.82-.63,7.4,7.4,0,0,0-3.17.86l-0.52-1.3a8.16,8.16,0,0,1,3.8-1,4.27,4.27,0,0,1,3,.89,3.72,3.72,0,0,1,1,2.86V407H708Zm-3.84-1.2a3.45,3.45,0,0,0,2.49-.87,3.21,3.21,0,0,0,.91-2.44v-1l-1.7.07a6.19,6.19,0,0,0-2.92.63,1.9,1.9,0,0,0-.9,1.74,1.75,1.75,0,0,0,.56,1.4A2.31,2.31,0,0,0,704.2,405.82Z" transform="translate(-8.5 -7.6)"/><path d="M717.92,395.59a6.64,6.64,0,0,1,1.34.12L719,397.29a5.79,5.79,0,0,0-1.23-.15,3,3,0,0,0-2.33,1.11,4,4,0,0,0-1,2.75v6h-1.7V395.8h1.4l0.19,2.08h0.08a4.93,4.93,0,0,1,1.5-1.69A3.39,3.39,0,0,1,717.92,395.59Z" transform="translate(-8.5 -7.6)"/><path d="M726.1,407.22a5.15,5.15,0,0,1-3.93-1.52,5.86,5.86,0,0,1-1.44-4.21,6.51,6.51,0,0,1,1.34-4.31,4.44,4.44,0,0,1,3.59-1.6A4.23,4.23,0,0,1,729,397a5.31,5.31,0,0,1,1.23,3.66v1.07h-7.73a4.45,4.45,0,0,0,1,3,3.46,3.46,0,0,0,2.67,1,9,9,0,0,0,3.58-.76v1.51a9,9,0,0,1-1.7.56A9.59,9.59,0,0,1,726.1,407.22ZM725.64,397a2.77,2.77,0,0,0-2.15.88,4.05,4.05,0,0,0-.95,2.44h5.87a3.73,3.73,0,0,0-.72-2.46A2.52,2.52,0,0,0,725.64,397Z" transform="translate(-8.5 -7.6)"/><path d="M650.87,334.07h-3.51L638,321.63,635.32,324v10.05h-3V308.41h3v12.72L647,308.41h3.53l-10.32,11.14Z" transform="translate(-8.5 -7.6)"/><path d="M662.08,334.42a8.84,8.84,0,0,1-6.73-2.6,10.05,10.05,0,0,1-2.46-7.21,11.15,11.15,0,0,1,2.29-7.39,7.6,7.6,0,0,1,6.15-2.74,7.25,7.25,0,0,1,5.72,2.38,9.11,9.11,0,0,1,2.11,6.27V325H655.9a7.62,7.62,0,0,0,1.71,5.14,5.92,5.92,0,0,0,4.57,1.75,15.48,15.48,0,0,0,6.14-1.3v2.6a15.43,15.43,0,0,1-2.92,1A16.39,16.39,0,0,1,662.08,334.42Zm-0.79-17.5a4.76,4.76,0,0,0-3.69,1.51,7,7,0,0,0-1.62,4.18H666a6.4,6.4,0,0,0-1.23-4.22A4.32,4.32,0,0,0,661.29,316.92Z" transform="translate(-8.5 -7.6)"/><path d="M682.89,314.48a11.46,11.46,0,0,1,2.3.21l-0.4,2.7a9.91,9.91,0,0,0-2.11-.26,5.12,5.12,0,0,0-4,1.9,6.91,6.91,0,0,0-1.66,4.72v10.32h-2.91V314.83h2.4l0.33,3.56H677a8.45,8.45,0,0,1,2.58-2.9A5.8,5.8,0,0,1,682.89,314.48Z" transform="translate(-8.5 -7.6)"/><path d="M701.95,334.07V321.63a5,5,0,0,0-1.07-3.51,4.36,4.36,0,0,0-3.35-1.16,5.52,5.52,0,0,0-4.42,1.63q-1.4,1.63-1.4,5.39v10.09h-2.91V314.83h2.37l0.47,2.63h0.14a6,6,0,0,1,2.51-2.2,8.17,8.17,0,0,1,3.6-.78,7.3,7.3,0,0,1,5.23,1.68q1.75,1.68,1.75,5.36v12.55h-2.91Z" transform="translate(-8.5 -7.6)"/><path d="M719,334.42a8.84,8.84,0,0,1-6.73-2.6,10.05,10.05,0,0,1-2.47-7.21,11.15,11.15,0,0,1,2.29-7.39,7.61,7.61,0,0,1,6.15-2.74,7.25,7.25,0,0,1,5.72,2.38,9.11,9.11,0,0,1,2.11,6.27V325H712.79a7.62,7.62,0,0,0,1.71,5.14,5.92,5.92,0,0,0,4.57,1.75,15.48,15.48,0,0,0,6.14-1.3v2.6a15.46,15.46,0,0,1-2.92,1A16.39,16.39,0,0,1,719,334.42Zm-0.79-17.5a4.76,4.76,0,0,0-3.69,1.51,7,7,0,0,0-1.62,4.18h10.05a6.4,6.4,0,0,0-1.23-4.22A4.32,4.32,0,0,0,718.18,316.92Z" transform="translate(-8.5 -7.6)"/><path d="M733.92,334.07H731v-27.3h2.91v27.3Z" transform="translate(-8.5 -7.6)"/><path d="M640.29,182.12a6.29,6.29,0,0,1-2.46,5.28,10.66,10.66,0,0,1-6.67,1.89,16.7,16.7,0,0,1-7-1.18v-2.88a18.55,18.55,0,0,0,3.44,1.05,18.14,18.14,0,0,0,3.69.39,7.44,7.44,0,0,0,4.49-1.13,3.71,3.71,0,0,0,1.51-3.15,4,4,0,0,0-.54-2.18,5,5,0,0,0-1.79-1.57,25,25,0,0,0-3.82-1.63,12.17,12.17,0,0,1-5.12-3,6.7,6.7,0,0,1-1.54-4.58,5.7,5.7,0,0,1,2.23-4.72,9.26,9.26,0,0,1,5.9-1.75,17.37,17.37,0,0,1,7,1.4l-0.93,2.6a15.91,15.91,0,0,0-6.18-1.33,6,6,0,0,0-3.7,1,3.36,3.36,0,0,0-1.33,2.83,4.33,4.33,0,0,0,.49,2.19,4.62,4.62,0,0,0,1.66,1.56,20.59,20.59,0,0,0,3.57,1.57,14.15,14.15,0,0,1,5.55,3.09A6.07,6.07,0,0,1,640.29,182.12Z" transform="translate(-8.5 -7.6)"/><path d="M642,169.71h3.12l4.21,11a41.81,41.81,0,0,1,1.72,5.42h0.14q0.23-.9,1-3.06T657,169.71h3.12l-8.27,21.9a10.92,10.92,0,0,1-2.87,4.61,6.1,6.1,0,0,1-4,1.36,11.7,11.7,0,0,1-2.63-.3v-2.33a10.14,10.14,0,0,0,2.16.21q3,0,4.28-3.37l1.07-2.74Z" transform="translate(-8.5 -7.6)"/><path d="M675.61,183.7a4.82,4.82,0,0,1-2,4.14A9.41,9.41,0,0,1,668,189.3a12.22,12.22,0,0,1-6-1.21v-2.7a14.37,14.37,0,0,0,3,1.11,12.4,12.4,0,0,0,3.06.4,6.94,6.94,0,0,0,3.51-.73,2.51,2.51,0,0,0,.25-4.14,15.35,15.35,0,0,0-3.8-1.89,20.64,20.64,0,0,1-3.82-1.75,5.22,5.22,0,0,1-1.68-1.69,4.42,4.42,0,0,1-.55-2.26,4.32,4.32,0,0,1,1.91-3.71,8.91,8.91,0,0,1,5.25-1.36,15.35,15.35,0,0,1,6.07,1.26l-1,2.37a14,14,0,0,0-5.25-1.19,6,6,0,0,0-3.12.65,2,2,0,0,0-1.05,1.79,2.18,2.18,0,0,0,.39,1.32,3.88,3.88,0,0,0,1.27,1,28.23,28.23,0,0,0,3.37,1.42,12.58,12.58,0,0,1,4.62,2.51A4.42,4.42,0,0,1,675.61,183.7Z" transform="translate(-8.5 -7.6)"/><path d="M686.56,186.89a9.49,9.49,0,0,0,1.49-.11,9.63,9.63,0,0,0,1.14-.24v2.23a5.32,5.32,0,0,1-1.39.38,10.57,10.57,0,0,1-1.66.15q-5.58,0-5.58-5.88V172H677.8v-1.4l2.75-1.21,1.23-4.11h1.68v4.46h5.58V172h-5.58V183.3a3.89,3.89,0,0,0,.83,2.67A2.87,2.87,0,0,0,686.56,186.89Z" transform="translate(-8.5 -7.6)"/><path d="M701.16,189.3a8.84,8.84,0,0,1-6.73-2.6,10.05,10.05,0,0,1-2.47-7.21,11.15,11.15,0,0,1,2.29-7.39,7.61,7.61,0,0,1,6.15-2.74,7.25,7.25,0,0,1,5.72,2.38,9.11,9.11,0,0,1,2.11,6.27v1.84H695a7.62,7.62,0,0,0,1.71,5.14,5.92,5.92,0,0,0,4.57,1.75,15.48,15.48,0,0,0,6.14-1.3v2.6a15.46,15.46,0,0,1-2.92,1A16.41,16.41,0,0,1,701.16,189.3Zm-0.79-17.5a4.76,4.76,0,0,0-3.69,1.51,7,7,0,0,0-1.62,4.18h10.05a6.41,6.41,0,0,0-1.23-4.22A4.33,4.33,0,0,0,700.37,171.8Z" transform="translate(-8.5 -7.6)"/><path d="M737.71,188.95V176.43a5.2,5.2,0,0,0-1-3.45,3.8,3.8,0,0,0-3.05-1.15,4.93,4.93,0,0,0-4,1.56,7.42,7.42,0,0,0-1.3,4.81v10.74h-2.91V176.43a5.19,5.19,0,0,0-1-3.45,3.83,3.83,0,0,0-3.07-1.15,4.76,4.76,0,0,0-4,1.64q-1.27,1.64-1.27,5.38v10.09H713.2V169.71h2.37l0.47,2.63h0.14a5.72,5.72,0,0,1,2.33-2.19,7.1,7.1,0,0,1,3.36-.79q4.51,0,5.9,3.26h0.14a6.14,6.14,0,0,1,2.49-2.39,7.73,7.73,0,0,1,3.72-.88A6.52,6.52,0,0,1,739,171q1.62,1.68,1.62,5.36v12.55h-2.91Z" transform="translate(-8.5 -7.6)"/><path d="M626.38,228.12a6.29,6.29,0,0,1-2.46,5.28,10.66,10.66,0,0,1-6.67,1.89,16.69,16.69,0,0,1-7-1.18v-2.88a18.52,18.52,0,0,0,3.44,1.05,18.12,18.12,0,0,0,3.68.39,7.43,7.43,0,0,0,4.49-1.13,3.72,3.72,0,0,0,1.51-3.15,4,4,0,0,0-.54-2.18,5,5,0,0,0-1.79-1.57,25.12,25.12,0,0,0-3.82-1.63,12.17,12.17,0,0,1-5.12-3,6.7,6.7,0,0,1-1.54-4.58,5.7,5.7,0,0,1,2.23-4.72,9.26,9.26,0,0,1,5.9-1.75,17.38,17.38,0,0,1,7,1.4l-0.93,2.6a15.91,15.91,0,0,0-6.18-1.33,6,6,0,0,0-3.7,1,3.35,3.35,0,0,0-1.33,2.83,4.33,4.33,0,0,0,.49,2.18,4.62,4.62,0,0,0,1.66,1.56,20.61,20.61,0,0,0,3.57,1.57,14.15,14.15,0,0,1,5.55,3.09A6.07,6.07,0,0,1,626.38,228.12Z" transform="translate(-8.5 -7.6)"/><path d="M647.79,225.31q0,4.7-2.37,7.34a8.34,8.34,0,0,1-6.54,2.64,8.67,8.67,0,0,1-4.58-1.21,8,8,0,0,1-3.09-3.47,12.11,12.11,0,0,1-1.09-5.3q0-4.7,2.35-7.33a8.32,8.32,0,0,1,6.53-2.62,8.13,8.13,0,0,1,6.41,2.68A10.56,10.56,0,0,1,647.79,225.31Zm-14.65,0a9.12,9.12,0,0,0,1.47,5.62,5.85,5.85,0,0,0,8.68,0,9.08,9.08,0,0,0,1.48-5.62,8.94,8.94,0,0,0-1.48-5.57,5.21,5.21,0,0,0-4.38-1.9,5.13,5.13,0,0,0-4.32,1.88A9,9,0,0,0,633.14,225.31Z" transform="translate(-8.5 -7.6)"/><path d="M661.56,218h-4.9v17h-2.91V218h-3.44v-1.32l3.44-1.05v-1.07q0-7.09,6.19-7.09a12.75,12.75,0,0,1,3.58.61l-0.75,2.33a9.62,9.62,0,0,0-2.88-.54,2.8,2.8,0,0,0-2.44,1.1,6.12,6.12,0,0,0-.79,3.52v1.25h4.9V218Z" transform="translate(-8.5 -7.6)"/><path d="M671.29,232.89a9.49,9.49,0,0,0,1.49-.11,9.63,9.63,0,0,0,1.14-.24v2.23a5.32,5.32,0,0,1-1.39.38,10.57,10.57,0,0,1-1.66.15q-5.58,0-5.58-5.88V218h-2.75v-1.4l2.75-1.21,1.23-4.11h1.68v4.46h5.58V218H668.2V229.3A3.89,3.89,0,0,0,669,232,2.87,2.87,0,0,0,671.29,232.89Z" transform="translate(-8.5 -7.6)"/><path d="M693.46,234.95l-3.53-11.28q-0.33-1-1.25-4.7h-0.14q-0.7,3.07-1.23,4.74l-3.63,11.25h-3.37l-5.25-19.23h3.05l2.83,11a44.94,44.94,0,0,1,1.11,5.11h0.14q0.19-1,.62-2.59t0.75-2.52l3.53-11h3.16l3.44,11a37.27,37.27,0,0,1,1.33,5.07h0.14a18.52,18.52,0,0,1,.38-1.95q0.31-1.32,3.66-14.16h3l-5.32,19.23h-3.46Z" transform="translate(-8.5 -7.6)"/><path d="M717.54,234.95L717,232.21h-0.14a8.11,8.11,0,0,1-2.87,2.45,8.75,8.75,0,0,1-3.57.64,6.43,6.43,0,0,1-4.48-1.47,5.38,5.38,0,0,1-1.62-4.19q0-5.83,9.32-6.11l3.26-.1v-1.19a4.87,4.87,0,0,0-1-3.34,4,4,0,0,0-3.11-1.08,12.69,12.69,0,0,0-5.44,1.47l-0.9-2.23a13.73,13.73,0,0,1,3.12-1.21,13.51,13.51,0,0,1,3.4-.44,7.33,7.33,0,0,1,5.1,1.53q1.66,1.53,1.66,4.9v13.13h-2.16ZM711,232.89a5.91,5.91,0,0,0,4.27-1.49,5.52,5.52,0,0,0,1.55-4.18v-1.74l-2.91.12a10.59,10.59,0,0,0-5,1.08,3.25,3.25,0,0,0-1.54,3,3,3,0,0,0,1,2.4A4,4,0,0,0,711,232.89Z" transform="translate(-8.5 -7.6)"/><path d="M734.47,215.36a11.46,11.46,0,0,1,2.3.21l-0.4,2.7a9.91,9.91,0,0,0-2.11-.26,5.13,5.13,0,0,0-4,1.9,6.91,6.91,0,0,0-1.66,4.72v10.32H725.7V215.71h2.4l0.33,3.56h0.14a8.45,8.45,0,0,1,2.58-2.9A5.8,5.8,0,0,1,734.47,215.36Z" transform="translate(-8.5 -7.6)"/><path d="M748.49,235.3a8.84,8.84,0,0,1-6.73-2.6,10.05,10.05,0,0,1-2.47-7.21,11.15,11.15,0,0,1,2.29-7.39,7.61,7.61,0,0,1,6.15-2.74,7.25,7.25,0,0,1,5.72,2.38,9.11,9.11,0,0,1,2.11,6.27v1.84H742.32A7.62,7.62,0,0,0,744,231a5.92,5.92,0,0,0,4.57,1.75,15.48,15.48,0,0,0,6.14-1.3v2.6a15.46,15.46,0,0,1-2.92,1A16.39,16.39,0,0,1,748.49,235.3Zm-0.79-17.5a4.76,4.76,0,0,0-3.69,1.51,7,7,0,0,0-1.62,4.18h10.05a6.4,6.4,0,0,0-1.23-4.22A4.32,4.32,0,0,0,747.7,217.8Z" transform="translate(-8.5 -7.6)"/><path d="M620.11,49.91v16.6a9,9,0,0,1-2.65,6.9,10.16,10.16,0,0,1-7.28,2.51q-4.63,0-7.17-2.53a9.37,9.37,0,0,1-2.54-6.95V49.91h3V66.65a6.59,6.59,0,0,0,1.75,4.93,7.08,7.08,0,0,0,5.16,1.72,6.83,6.83,0,0,0,5-1.73,6.65,6.65,0,0,0,1.75-5V49.91h3Z" transform="translate(-8.5 -7.6)"/><path d="M638.87,70.32a4.82,4.82,0,0,1-2,4.14,9.4,9.4,0,0,1-5.62,1.46,12.21,12.21,0,0,1-6-1.21V72a14.41,14.41,0,0,0,3,1.11,12.42,12.42,0,0,0,3.06.4,7,7,0,0,0,3.51-.73,2.51,2.51,0,0,0,.25-4.14,15.3,15.3,0,0,0-3.8-1.89A20.59,20.59,0,0,1,627.47,65a5.21,5.21,0,0,1-1.68-1.69,4.42,4.42,0,0,1-.55-2.26,4.31,4.31,0,0,1,1.91-3.71A8.91,8.91,0,0,1,632.39,56a15.35,15.35,0,0,1,6.07,1.26l-1,2.37a13.93,13.93,0,0,0-5.25-1.19,6,6,0,0,0-3.12.65A2,2,0,0,0,628,60.86a2.18,2.18,0,0,0,.39,1.32,3.9,3.9,0,0,0,1.27,1A28.44,28.44,0,0,0,633,64.64a12.59,12.59,0,0,1,4.62,2.51A4.43,4.43,0,0,1,638.87,70.32Z" transform="translate(-8.5 -7.6)"/><path d="M651.73,75.92a8.84,8.84,0,0,1-6.73-2.6,10.05,10.05,0,0,1-2.47-7.21,11.15,11.15,0,0,1,2.29-7.39A7.61,7.61,0,0,1,651,56a7.25,7.25,0,0,1,5.72,2.38,9.12,9.12,0,0,1,2.11,6.27v1.84H645.55a7.62,7.62,0,0,0,1.71,5.14,5.92,5.92,0,0,0,4.57,1.75,15.48,15.48,0,0,0,6.14-1.3v2.6a15.45,15.45,0,0,1-2.92,1A16.44,16.44,0,0,1,651.73,75.92Zm-0.79-17.5a4.75,4.75,0,0,0-3.69,1.51,7,7,0,0,0-1.62,4.18h10.05a6.41,6.41,0,0,0-1.23-4.22A4.33,4.33,0,0,0,650.94,58.42Z" transform="translate(-8.5 -7.6)"/><path d="M672.54,56a11.39,11.39,0,0,1,2.3.21l-0.4,2.7a9.93,9.93,0,0,0-2.11-.26,5.13,5.13,0,0,0-4,1.9,6.91,6.91,0,0,0-1.66,4.72V75.57h-2.91V56.34h2.4l0.33,3.56h0.14a8.45,8.45,0,0,1,2.58-2.9A5.81,5.81,0,0,1,672.54,56Z" transform="translate(-8.5 -7.6)"/><path d="M704.34,75.57l-3.19-8.16H690.86l-3.16,8.16h-3l10.14-25.76h2.51l10.09,25.76h-3.09Zm-4.12-10.84-3-7.95q-0.58-1.51-1.19-3.7a33.37,33.37,0,0,1-1.11,3.7l-3,7.95h8.3Z" transform="translate(-8.5 -7.6)"/><path d="M719.46,75.92a8.33,8.33,0,0,1-3.43-.69,6.45,6.45,0,0,1-2.61-2.13h-0.21a25.93,25.93,0,0,1,.21,3.19V84.2h-2.91V56.34h2.37l0.4,2.63h0.14A6.77,6.77,0,0,1,716,56.69a8,8,0,0,1,3.42-.7,7.11,7.11,0,0,1,5.9,2.61q2.08,2.62,2.08,7.33t-2.11,7.36A7.12,7.12,0,0,1,719.46,75.92ZM719,58.46a5.16,5.16,0,0,0-4.26,1.63q-1.32,1.63-1.35,5.19v0.65q0,4.05,1.35,5.8a5.14,5.14,0,0,0,4.33,1.75,4.51,4.51,0,0,0,3.9-2,9.57,9.57,0,0,0,1.41-5.56A9.21,9.21,0,0,0,723,60.38,4.65,4.65,0,0,0,719,58.46Z" transform="translate(-8.5 -7.6)"/><path d="M741.49,75.92a8.33,8.33,0,0,1-3.43-.69,6.45,6.45,0,0,1-2.61-2.13h-0.21a25.93,25.93,0,0,1,.21,3.19V84.2h-2.91V56.34h2.37l0.4,2.63h0.14a6.77,6.77,0,0,1,2.62-2.28,8,8,0,0,1,3.42-.7,7.11,7.11,0,0,1,5.9,2.61q2.08,2.62,2.08,7.33t-2.11,7.36A7.12,7.12,0,0,1,741.49,75.92Zm-0.42-17.46a5.16,5.16,0,0,0-4.26,1.63q-1.32,1.63-1.35,5.19v0.65q0,4.05,1.35,5.8a5.14,5.14,0,0,0,4.33,1.75,4.51,4.51,0,0,0,3.9-2,9.57,9.57,0,0,0,1.41-5.56A9.21,9.21,0,0,0,745,60.38,4.65,4.65,0,0,0,741.06,58.46Z" transform="translate(-8.5 -7.6)"/><path d="M767,70.32a4.82,4.82,0,0,1-2,4.14,9.4,9.4,0,0,1-5.62,1.46,12.21,12.21,0,0,1-6-1.21V72a14.43,14.43,0,0,0,3,1.11,12.42,12.42,0,0,0,3.06.4,7,7,0,0,0,3.51-.73,2.51,2.51,0,0,0,.25-4.14,15.34,15.34,0,0,0-3.8-1.89A20.56,20.56,0,0,1,755.57,65a5.21,5.21,0,0,1-1.68-1.69,4.41,4.41,0,0,1-.55-2.26,4.31,4.31,0,0,1,1.91-3.71A8.91,8.91,0,0,1,760.49,56a15.35,15.35,0,0,1,6.07,1.26l-1,2.37a13.94,13.94,0,0,0-5.25-1.19,6,6,0,0,0-3.12.65,2,2,0,0,0-1.05,1.79,2.18,2.18,0,0,0,.39,1.32,3.9,3.9,0,0,0,1.27,1,28.44,28.44,0,0,0,3.37,1.42,12.59,12.59,0,0,1,4.62,2.51A4.43,4.43,0,0,1,767,70.32Z" transform="translate(-8.5 -7.6)"/><circle class="cls-4" cx="626.75" cy="98.22" r="7.79"/><path d="M635.25,114.61a8.79,8.79,0,1,1,8.79-8.79A8.8,8.8,0,0,1,635.25,114.61Zm0-15.58a6.79,6.79,0,1,0,6.79,6.79A6.8,6.8,0,0,0,635.25,99Z" transform="translate(-8.5 -7.6)"/><circle class="cls-5" cx="696.34" cy="95.51" r="7.79"/><path d="M704.84,111.9a8.79,8.79,0,1,1,8.79-8.79A8.8,8.8,0,0,1,704.84,111.9Zm0-15.59a6.79,6.79,0,1,0,6.79,6.79A6.8,6.8,0,0,0,704.84,96.32Z" transform="translate(-8.5 -7.6)"/><circle class="cls-6" cx="661.55" cy="106.01" r="7.79"/><path d="M670,122.4a8.79,8.79,0,1,1,8.79-8.79A8.8,8.8,0,0,1,670,122.4Zm0-15.58a6.79,6.79,0,1,0,6.79,6.79A6.8,6.8,0,0,0,670,106.82Z" transform="translate(-8.5 -7.6)"/><circle class="cls-4" cx="686.71" cy="8.31" r="7.31"/><path d="M695.21,24.22a8.31,8.31,0,1,1,8.31-8.31A8.32,8.32,0,0,1,695.21,24.22Zm0-14.62a6.31,6.31,0,1,0,6.31,6.31A6.32,6.32,0,0,0,695.21,9.6Z" transform="translate(-8.5 -7.6)"/><circle class="cls-7" cx="649.01" cy="15.62" r="7.31"/><path d="M657.5,31.53a8.31,8.31,0,1,1,8.31-8.31A8.32,8.32,0,0,1,657.5,31.53Zm0-14.62a6.31,6.31,0,1,0,6.31,6.31A6.32,6.32,0,0,0,657.5,16.91Z" transform="translate(-8.5 -7.6)"/><circle class="cls-8" cx="722.56" cy="18.68" r="7.31"/><path d="M731.06,34.59a8.31,8.31,0,1,1,8.31-8.31A8.32,8.32,0,0,1,731.06,34.59Zm0-14.62a6.31,6.31,0,1,0,6.31,6.31A6.32,6.32,0,0,0,731.06,20Z" transform="translate(-8.5 -7.6)"/><path class="cls-1" d="M572.17,276.33c-19.34,0-42,1.47-42,48.25s18.68,45.63,42,45.63" transform="translate(-8.5 -7.6)"/><path d="M568.18,278a1.85,1.85,0,0,1-2-1.77,2.07,2.07,0,0,1,2-2.12c1.36,0,2.71-.11,4-0.11h0a2.15,2.15,0,0,1,2,2.17,1.92,1.92,0,0,1-2,1.9c-1.31,0-2.63-.06-4-0.06h0Z" transform="translate(-8.5 -7.6)"/><path d="M559.7,372h-0.12a51.51,51.51,0,0,1-8.56-1.15,2,2,0,1,1,.91-3.9,47.7,47.7,0,0,0,7.9,1.05A2,2,0,0,1,559.7,372Zm-15.91-4.15a2,2,0,0,1-1-.3,22.93,22.93,0,0,1-6.58-6.15,2,2,0,0,1,3.23-2.35,19,19,0,0,0,5.45,5.1A2,2,0,0,1,543.78,367.86Zm-9.83-13a2,2,0,0,1-1.88-1.31,53.26,53.26,0,0,1-2.25-8.32,2,2,0,1,1,3.93-.75,49.27,49.27,0,0,0,2.08,7.69A2,2,0,0,1,534,354.9Zm-3.29-16.23a2,2,0,0,1-2-1.82c-0.24-2.63-.39-5.46-0.46-8.42a2,2,0,1,1,4-.09c0.07,2.88.22,5.62,0.44,8.16a2,2,0,0,1-1.81,2.17h-0.18ZM530.24,322h-0.07a2,2,0,0,1-1.93-2c0.1-3,.3-5.78.6-8.42a2,2,0,0,1,4,.46q-0.43,3.81-.58,8.09A2,2,0,0,1,530.24,322Zm2-16.4a2,2,0,0,1-2-2.44,53.23,53.23,0,0,1,2.55-8.23,2,2,0,0,1,3.71,1.51,49.15,49.15,0,0,0-2.35,7.61A2,2,0,0,1,532.19,305.6Zm6.42-15.19a2,2,0,0,1-1.62-3.18,28.55,28.55,0,0,1,6.26-6.31,2,2,0,1,1,2.36,3.23,24.54,24.54,0,0,0-5.38,5.43A2,2,0,0,1,538.61,290.41Zm13.18-9.66a2,2,0,0,1-.65-3.89,42.37,42.37,0,0,1,8.49-1.91,2,2,0,0,1,.51,4,38.41,38.41,0,0,0-7.7,1.73A2,2,0,0,1,551.79,280.75Z" transform="translate(-8.5 -7.6)"/><path d="M568.17,372.22a2.11,2.11,0,0,1,0-4.22h0l4,0.11a2,2,0,0,1,2,2.05,2,2,0,0,1-2,2Z" transform="translate(-8.5 -7.6)"/><path d="M530.66,322.66h-4a2,2,0,0,1,0-4h4A2,2,0,0,1,530.66,322.66Z" transform="translate(-8.5 -7.6)"/><path d="M519.29,322.66h-7.37a2,2,0,1,1,0-4h7.37A2,2,0,0,1,519.29,322.66Zm-14.74,0h-7.37a2,2,0,0,1,0-4h7.37A2,2,0,1,1,504.55,322.66Zm-14.74,0h-7.37a2,2,0,1,1,0-4h7.37A2,2,0,0,1,489.81,322.66Zm-14.74,0h-7.37a2,2,0,0,1,0-4h7.37A2,2,0,1,1,475.06,322.66Zm-14.74,0h-7.37a2,2,0,1,1,0-4h7.37A2,2,0,0,1,460.32,322.66Zm-14.74,0H438.2a2,2,0,0,1,0-4h7.37A2,2,0,0,1,445.58,322.66Z" transform="translate(-8.5 -7.6)"/><path d="M430.83,322.66h-4a2,2,0,0,1,0-4h4A2,2,0,1,1,430.83,322.66Z" transform="translate(-8.5 -7.6)"/><path d="M447.89,298.68v-15h1.74V297.1h6.61v1.58h-8.36Z" transform="translate(-8.5 -7.6)"/><path d="M458.39,284.4a1.13,1.13,0,0,1,.29-0.86,1.06,1.06,0,0,1,1.43,0,1.11,1.11,0,0,1,.3.85,1.13,1.13,0,0,1-.3.86,1,1,0,0,1-1.43,0A1.15,1.15,0,0,1,458.39,284.4Zm1.85,14.28h-1.7V287.44h1.7v11.24Z" transform="translate(-8.5 -7.6)"/><path d="M471.54,298.68v-7.27a2.93,2.93,0,0,0-.63-2.05,2.55,2.55,0,0,0-2-.68,3.23,3.23,0,0,0-2.58,1,4.81,4.81,0,0,0-.82,3.15v5.9h-1.7V287.44h1.38l0.28,1.54h0.08a3.48,3.48,0,0,1,1.47-1.29,4.77,4.77,0,0,1,2.1-.46,4.27,4.27,0,0,1,3.06,1,4.17,4.17,0,0,1,1,3.13v7.33h-1.7Z" transform="translate(-8.5 -7.6)"/><path d="M478.33,287.44v7.29a2.93,2.93,0,0,0,.63,2.05,2.55,2.55,0,0,0,2,.68,3.2,3.2,0,0,0,2.58-1,4.87,4.87,0,0,0,.81-3.15v-5.91H486v11.24h-1.4l-0.25-1.51h-0.09a3.39,3.39,0,0,1-1.45,1.27,4.88,4.88,0,0,1-2.12.44,4.29,4.29,0,0,1-3.07-1,4.14,4.14,0,0,1-1-3.12v-7.35h1.72Z" transform="translate(-8.5 -7.6)"/><path d="M492.33,292.93l-3.91-5.49h1.94l3,4.31,3-4.31h1.92l-3.91,5.49,4.11,5.75h-1.93l-3.15-4.55-3.18,4.55h-1.93Z" transform="translate(-8.5 -7.6)"/></svg>