<?xml version="1.0" encoding="utf-8"?>
<!-- Generator: Adobe Illustrator 19.2.0, SVG Export Plug-In . SVG Version: 6.00 Build 0)  -->
<svg version="1.1" id="Layer_1" xmlns="http://www.w3.org/2000/svg" xmlns:xlink="http://www.w3.org/1999/xlink" x="0px" y="0px"
	 viewBox="0 0 800 340" style="enable-background:new 0 0 800 340;" xml:space="preserve">
<style type="text/css">
	.st0{fill:#FFFFFF;}
</style>
<g>
	<g>
		<path class="st0" d="M615.4,326H184.6c-21.5,0-39-17.5-39-39V60c0-21.5,17.5-39,39-39h430.8c21.5,0,39,17.5,39,39v227
			C654.4,308.5,637,326,615.4,326z"/>
		<path d="M615.4,326.5H184.6c-21.8,0-39.5-17.7-39.5-39.5V60c0-21.8,17.7-39.5,39.5-39.5h430.8c21.8,0,39.5,17.7,39.5,39.5v227
			C654.9,308.8,637.2,326.5,615.4,326.5z M184.6,21.5c-21.2,0-38.5,17.3-38.5,38.5v227c0,21.2,17.3,38.5,38.5,38.5h430.8
			c21.2,0,38.5-17.3,38.5-38.5V60c0-21.2-17.3-38.5-38.5-38.5H184.6z"/>
	</g>
	<g>
		<path class="st0" d="M600.2,166.7H199.8c-9.2,0-16.7-7.5-16.7-16.7v-26.6c0-9.2,7.5-16.7,16.7-16.7h400.4
			c9.2,0,16.7,7.5,16.7,16.7v26.6C616.9,159.3,609.4,166.7,600.2,166.7z"/>
		<path d="M600.2,167.2H199.8c-9.5,0-17.2-7.7-17.2-17.2v-26.6c0-9.5,7.7-17.2,17.2-17.2h400.4c9.5,0,17.2,7.7,17.2,17.2v26.6
			C617.4,159.5,609.7,167.2,600.2,167.2z M199.8,107.3c-8.9,0-16.2,7.3-16.2,16.2v26.6c0,8.9,7.3,16.2,16.2,16.2h400.4
			c8.9,0,16.2-7.3,16.2-16.2v-26.6c0-8.9-7.3-16.2-16.2-16.2H199.8z"/>
	</g>
	<g>
		<path d="M343.2,144.9l-2.4-6.3h-7.9l-2.4,6.3h-2.3l7.8-19.7h1.9l7.7,19.7H343.2z M340,136.5l-2.3-6.1c-0.3-0.8-0.6-1.7-0.9-2.8
			c-0.2,0.9-0.5,1.8-0.8,2.8l-2.3,6.1H340z"/>
		<path d="M354.8,145.1c-1,0-1.8-0.2-2.6-0.5c-0.8-0.4-1.5-0.9-2-1.6H350c0.1,0.9,0.2,1.7,0.2,2.4v6.1h-2.2v-21.4h1.8l0.3,2h0.1
			c0.6-0.8,1.2-1.4,2-1.7s1.6-0.5,2.6-0.5c2,0,3.5,0.7,4.5,2c1.1,1.3,1.6,3.2,1.6,5.6c0,2.4-0.5,4.3-1.6,5.6
			C358.2,144.5,356.7,145.1,354.8,145.1z M354.4,131.7c-1.5,0-2.6,0.4-3.3,1.3c-0.7,0.8-1,2.2-1,4v0.5c0,2.1,0.3,3.6,1,4.4
			c0.7,0.9,1.8,1.3,3.3,1.3c1.3,0,2.3-0.5,3-1.5c0.7-1,1.1-2.5,1.1-4.3c0-1.8-0.4-3.2-1.1-4.2S355.8,131.7,354.4,131.7z"/>
		<path d="M371.6,145.1c-1,0-1.8-0.2-2.6-0.5c-0.8-0.4-1.5-0.9-2-1.6h-0.2c0.1,0.9,0.2,1.7,0.2,2.4v6.1h-2.2v-21.4h1.8l0.3,2h0.1
			c0.6-0.8,1.2-1.4,2-1.7s1.6-0.5,2.6-0.5c2,0,3.5,0.7,4.5,2c1.1,1.3,1.6,3.2,1.6,5.6c0,2.4-0.5,4.3-1.6,5.6
			C375.1,144.5,373.6,145.1,371.6,145.1z M371.3,131.7c-1.5,0-2.6,0.4-3.3,1.3c-0.7,0.8-1,2.2-1,4v0.5c0,2.1,0.3,3.6,1,4.4
			c0.7,0.9,1.8,1.3,3.3,1.3c1.3,0,2.3-0.5,3-1.5c0.7-1,1.1-2.5,1.1-4.3c0-1.8-0.4-3.2-1.1-4.2S372.6,131.7,371.3,131.7z"/>
		<path d="M383.9,144.9h-2.2v-20.9h2.2V144.9z"/>
		<path d="M388.4,126.1c0-0.5,0.1-0.9,0.4-1.1c0.3-0.2,0.6-0.4,0.9-0.4c0.4,0,0.7,0.1,0.9,0.4c0.3,0.2,0.4,0.6,0.4,1.1
			s-0.1,0.9-0.4,1.1c-0.3,0.2-0.6,0.4-0.9,0.4c-0.4,0-0.7-0.1-0.9-0.4C388.6,127,388.4,126.6,388.4,126.1z M390.9,144.9h-2.2v-14.7
			h2.2V144.9z"/>
		<path d="M401.5,145.1c-2.1,0-3.8-0.7-5-2c-1.2-1.3-1.8-3.2-1.8-5.6c0-2.5,0.6-4.4,1.8-5.7s2.9-2,5.1-2c0.7,0,1.4,0.1,2.1,0.2
			c0.7,0.2,1.3,0.3,1.7,0.5l-0.7,1.9c-0.5-0.2-1-0.4-1.6-0.5c-0.6-0.1-1.1-0.2-1.5-0.2c-3,0-4.5,1.9-4.5,5.7c0,1.8,0.4,3.2,1.1,4.2
			c0.7,1,1.8,1.5,3.2,1.5c1.2,0,2.5-0.3,3.8-0.8v2C404.2,144.9,403,145.1,401.5,145.1z"/>
		<path d="M417.8,144.9l-0.4-2.1h-0.1c-0.7,0.9-1.5,1.5-2.2,1.9s-1.6,0.5-2.7,0.5c-1.5,0-2.6-0.4-3.4-1.1c-0.8-0.8-1.2-1.8-1.2-3.2
			c0-3,2.4-4.5,7.1-4.7l2.5-0.1v-0.9c0-1.2-0.2-2-0.7-2.6s-1.3-0.8-2.4-0.8c-1.2,0-2.6,0.4-4.2,1.1l-0.7-1.7
			c0.7-0.4,1.5-0.7,2.4-0.9c0.9-0.2,1.7-0.3,2.6-0.3c1.8,0,3.1,0.4,3.9,1.2c0.8,0.8,1.3,2,1.3,3.8v10.1H417.8z M412.7,143.3
			c1.4,0,2.5-0.4,3.3-1.1c0.8-0.8,1.2-1.8,1.2-3.2v-1.3l-2.2,0.1c-1.8,0.1-3.1,0.3-3.8,0.8c-0.8,0.5-1.2,1.2-1.2,2.3
			c0,0.8,0.2,1.4,0.7,1.8C411.2,143.1,411.8,143.3,412.7,143.3z"/>
		<path d="M428.8,143.3c0.4,0,0.8,0,1.1-0.1s0.7-0.1,0.9-0.2v1.7c-0.2,0.1-0.6,0.2-1.1,0.3c-0.5,0.1-0.9,0.1-1.3,0.1
			c-2.9,0-4.3-1.5-4.3-4.5v-8.8h-2.1v-1.1l2.1-0.9l0.9-3.1h1.3v3.4h4.3v1.7h-4.3v8.7c0,0.9,0.2,1.6,0.6,2
			C427.5,143,428,143.3,428.8,143.3z"/>
		<path d="M433.6,126.1c0-0.5,0.1-0.9,0.4-1.1c0.3-0.2,0.6-0.4,0.9-0.4c0.4,0,0.7,0.1,0.9,0.4c0.3,0.2,0.4,0.6,0.4,1.1
			s-0.1,0.9-0.4,1.1c-0.3,0.2-0.6,0.4-0.9,0.4c-0.4,0-0.7-0.1-0.9-0.4C433.7,127,433.6,126.6,433.6,126.1z M436,144.9h-2.2v-14.7
			h2.2V144.9z"/>
		<path d="M453.4,137.5c0,2.4-0.6,4.3-1.8,5.6s-2.9,2-5,2c-1.3,0-2.5-0.3-3.5-0.9c-1-0.6-1.8-1.5-2.4-2.7c-0.6-1.2-0.8-2.5-0.8-4.1
			c0-2.4,0.6-4.3,1.8-5.6c1.2-1.3,2.9-2,5-2c2.1,0,3.7,0.7,4.9,2.1S453.4,135.1,453.4,137.5z M442.2,137.5c0,1.9,0.4,3.3,1.1,4.3
			c0.8,1,1.9,1.5,3.3,1.5c1.5,0,2.6-0.5,3.3-1.5c0.8-1,1.1-2.4,1.1-4.3c0-1.9-0.4-3.3-1.1-4.3c-0.8-1-1.9-1.5-3.4-1.5
			c-1.5,0-2.6,0.5-3.3,1.4C442.6,134.1,442.2,135.6,442.2,137.5z"/>
		<path d="M467.4,144.9v-9.5c0-1.2-0.3-2.1-0.8-2.7s-1.4-0.9-2.6-0.9c-1.5,0-2.7,0.4-3.4,1.3c-0.7,0.8-1.1,2.2-1.1,4.1v7.7h-2.2
			v-14.7h1.8l0.4,2h0.1c0.5-0.7,1.1-1.3,1.9-1.7s1.7-0.6,2.8-0.6c1.8,0,3.1,0.4,4,1.3c0.9,0.9,1.3,2.2,1.3,4.1v9.6H467.4z"/>
	</g>
	<g>
		<path class="st0" d="M600.2,235.6H199.8c-9.2,0-16.7-7.5-16.7-16.7v-26.6c0-9.2,7.5-16.7,16.7-16.7h400.4
			c9.2,0,16.7,7.5,16.7,16.7v26.6C616.9,228.1,609.4,235.6,600.2,235.6z"/>
		<path d="M600.2,236.1H199.8c-9.5,0-17.2-7.7-17.2-17.2v-26.6c0-9.5,7.7-17.2,17.2-17.2h400.4c9.5,0,17.2,7.7,17.2,17.2v26.6
			C617.4,228.4,609.7,236.1,600.2,236.1z M199.8,176.2c-8.9,0-16.2,7.3-16.2,16.2v26.6c0,8.9,7.3,16.2,16.2,16.2h400.4
			c8.9,0,16.2-7.3,16.2-16.2v-26.6c0-8.9-7.3-16.2-16.2-16.2H199.8z"/>
	</g>
	<g>
		<path d="M340.5,195.8c-2.2,0-3.9,0.7-5.1,2.2c-1.3,1.4-1.9,3.4-1.9,5.9c0,2.6,0.6,4.6,1.8,6c1.2,1.4,2.9,2.1,5.2,2.1
			c1.4,0,2.9-0.2,4.7-0.7v2c-1.4,0.5-3,0.8-5,0.8c-2.9,0-5.1-0.9-6.7-2.6c-1.6-1.8-2.4-4.3-2.4-7.5c0-2,0.4-3.8,1.1-5.3
			c0.8-1.5,1.9-2.7,3.3-3.5c1.4-0.8,3.1-1.2,5-1.2c2.1,0,3.9,0.4,5.4,1.1l-1,2C343.4,196.1,342,195.8,340.5,195.8z"/>
		<path d="M361.8,206.3c0,2.4-0.6,4.3-1.8,5.6s-2.9,2-5,2c-1.3,0-2.5-0.3-3.5-0.9c-1-0.6-1.8-1.5-2.4-2.7c-0.6-1.2-0.8-2.5-0.8-4.1
			c0-2.4,0.6-4.3,1.8-5.6c1.2-1.3,2.9-2,5-2c2.1,0,3.7,0.7,4.9,2.1S361.8,204,361.8,206.3z M350.6,206.3c0,1.9,0.4,3.3,1.1,4.3
			c0.8,1,1.9,1.5,3.3,1.5c1.5,0,2.6-0.5,3.3-1.5c0.8-1,1.1-2.4,1.1-4.3c0-1.9-0.4-3.3-1.1-4.3c-0.8-1-1.9-1.5-3.4-1.5
			c-1.5,0-2.6,0.5-3.3,1.4C351,203,350.6,204.4,350.6,206.3z"/>
		<path d="M375.8,213.7v-9.5c0-1.2-0.3-2.1-0.8-2.7s-1.4-0.9-2.6-0.9c-1.5,0-2.7,0.4-3.4,1.3c-0.7,0.8-1.1,2.2-1.1,4.1v7.7h-2.2V199
			h1.8l0.4,2h0.1c0.5-0.7,1.1-1.3,1.9-1.7s1.7-0.6,2.8-0.6c1.8,0,3.1,0.4,4,1.3c0.9,0.9,1.3,2.2,1.3,4.1v9.6H375.8z"/>
		<path d="M389.3,200.7h-3.8v13h-2.2v-13h-2.6v-1l2.6-0.8V198c0-3.6,1.6-5.4,4.7-5.4c0.8,0,1.7,0.2,2.7,0.5l-0.6,1.8
			c-0.9-0.3-1.6-0.4-2.2-0.4c-0.8,0-1.5,0.3-1.9,0.8c-0.4,0.6-0.6,1.5-0.6,2.7v1h3.8V200.7z M391.8,195c0-0.5,0.1-0.9,0.4-1.1
			c0.3-0.2,0.6-0.4,0.9-0.4c0.4,0,0.7,0.1,0.9,0.4c0.3,0.2,0.4,0.6,0.4,1.1s-0.1,0.9-0.4,1.1c-0.3,0.2-0.6,0.4-0.9,0.4
			c-0.4,0-0.7-0.1-0.9-0.4S391.8,195.5,391.8,195z M394.2,213.7H392V199h2.2V213.7z"/>
		<path d="M411,199v1.4l-2.7,0.3c0.3,0.3,0.5,0.7,0.7,1.2s0.3,1.1,0.3,1.7c0,1.4-0.5,2.6-1.5,3.5c-1,0.9-2.3,1.3-4.1,1.3
			c-0.4,0-0.9,0-1.2-0.1c-1,0.5-1.4,1.1-1.4,1.9c0,0.4,0.2,0.7,0.5,0.9s0.9,0.3,1.7,0.3h2.6c1.6,0,2.8,0.3,3.7,1
			c0.9,0.7,1.3,1.6,1.3,2.9c0,1.6-0.7,2.9-2,3.7c-1.3,0.9-3.2,1.3-5.7,1.3c-1.9,0-3.4-0.4-4.5-1.1c-1-0.7-1.6-1.7-1.6-3
			c0-0.9,0.3-1.7,0.9-2.3c0.6-0.7,1.4-1.1,2.4-1.3c-0.4-0.2-0.7-0.4-0.9-0.8c-0.3-0.4-0.4-0.8-0.4-1.3c0-0.5,0.1-1,0.4-1.4
			c0.3-0.4,0.7-0.8,1.4-1.2c-0.8-0.3-1.4-0.8-1.9-1.6c-0.5-0.8-0.7-1.6-0.7-2.6c0-1.6,0.5-2.9,1.5-3.7c1-0.9,2.3-1.3,4.1-1.3
			c0.8,0,1.5,0.1,2.1,0.3H411z M399.2,216.2c0,0.8,0.3,1.4,1,1.8c0.7,0.4,1.6,0.6,2.9,0.6c1.9,0,3.3-0.3,4.2-0.8
			c0.9-0.6,1.4-1.3,1.4-2.3c0-0.8-0.2-1.4-0.7-1.7c-0.5-0.3-1.4-0.5-2.8-0.5h-2.7c-1,0-1.8,0.2-2.4,0.7
			C399.5,214.6,399.2,215.3,399.2,216.2z M400.4,203.7c0,1,0.3,1.8,0.9,2.3c0.6,0.5,1.4,0.8,2.4,0.8c2.2,0,3.3-1.1,3.3-3.2
			c0-2.2-1.1-3.3-3.3-3.3c-1,0-1.9,0.3-2.4,0.8C400.7,201.7,400.4,202.6,400.4,203.7z"/>
		<path d="M427.8,200.7h-3.8v13h-2.2v-13h-2.6v-1l2.6-0.8V198c0-3.6,1.6-5.4,4.7-5.4c0.8,0,1.7,0.2,2.7,0.5l-0.6,1.8
			c-0.9-0.3-1.6-0.4-2.2-0.4c-0.8,0-1.5,0.3-1.9,0.8c-0.4,0.6-0.6,1.5-0.6,2.7v1h3.8V200.7z M430.3,195c0-0.5,0.1-0.9,0.4-1.1
			c0.3-0.2,0.6-0.4,0.9-0.4c0.4,0,0.7,0.1,0.9,0.4c0.3,0.2,0.4,0.6,0.4,1.1s-0.1,0.9-0.4,1.1c-0.3,0.2-0.6,0.4-0.9,0.4
			c-0.4,0-0.7-0.1-0.9-0.4S430.3,195.5,430.3,195z M432.7,213.7h-2.2V199h2.2V213.7z"/>
		<path d="M439.7,213.7h-2.2v-20.9h2.2V213.7z"/>
		<path d="M450.7,214c-2.2,0-3.9-0.7-5.2-2c-1.3-1.3-1.9-3.2-1.9-5.5c0-2.4,0.6-4.3,1.8-5.7c1.2-1.4,2.7-2.1,4.7-2.1
			c1.8,0,3.3,0.6,4.4,1.8s1.6,2.8,1.6,4.8v1.4h-10.2c0,1.7,0.5,3,1.3,3.9c0.8,0.9,2,1.3,3.5,1.3c1.6,0,3.2-0.3,4.7-1v2
			c-0.8,0.3-1.5,0.6-2.2,0.7C452.5,213.9,451.7,214,450.7,214z M450.1,200.6c-1.2,0-2.1,0.4-2.8,1.2c-0.7,0.8-1.1,1.8-1.2,3.2h7.7
			c0-1.4-0.3-2.5-0.9-3.2C452.1,200.9,451.2,200.6,450.1,200.6z"/>
		<path d="M469.4,209.7c0,1.4-0.5,2.4-1.5,3.2s-2.5,1.1-4.3,1.1c-2,0-3.5-0.3-4.6-0.9V211c0.7,0.4,1.5,0.6,2.3,0.8
			c0.8,0.2,1.6,0.3,2.3,0.3c1.2,0,2.1-0.2,2.7-0.6c0.6-0.4,0.9-0.9,0.9-1.7c0-0.6-0.2-1.1-0.7-1.5c-0.5-0.4-1.5-0.9-2.9-1.4
			c-1.4-0.5-2.3-1-2.9-1.3c-0.6-0.4-1-0.8-1.3-1.3c-0.3-0.5-0.4-1.1-0.4-1.7c0-1.2,0.5-2.1,1.5-2.8s2.3-1,4-1c1.6,0,3.1,0.3,4.7,1
			l-0.8,1.8c-1.5-0.6-2.8-0.9-4-0.9c-1.1,0-1.9,0.2-2.4,0.5c-0.5,0.3-0.8,0.8-0.8,1.4c0,0.4,0.1,0.7,0.3,1s0.5,0.5,1,0.8
			s1.3,0.6,2.6,1.1c1.7,0.6,2.9,1.3,3.5,1.9C469.1,207.9,469.4,208.7,469.4,209.7z"/>
	</g>
	<g>
		<path class="st0" d="M600.2,304.4H199.8c-9.2,0-16.7-7.5-16.7-16.7v-26.6c0-9.2,7.5-16.7,16.7-16.7h400.4
			c9.2,0,16.7,7.5,16.7,16.7v26.6C616.9,297,609.4,304.4,600.2,304.4z"/>
		<path d="M600.2,304.9H199.8c-9.5,0-17.2-7.7-17.2-17.2v-26.6c0-9.5,7.7-17.2,17.2-17.2h400.4c9.5,0,17.2,7.7,17.2,17.2v26.6
			C617.4,297.2,609.7,304.9,600.2,304.9z M199.8,245c-8.9,0-16.2,7.3-16.2,16.2v26.6c0,8.9,7.3,16.2,16.2,16.2h400.4
			c8.9,0,16.2-7.3,16.2-16.2v-26.6c0-8.9-7.3-16.2-16.2-16.2H199.8z"/>
	</g>
	<g>
		<path d="M318.4,272.5c0,3.2-0.9,5.7-2.6,7.4s-4.3,2.6-7.6,2.6h-5.4v-19.7h6c3.1,0,5.4,0.8,7.1,2.5S318.4,269.5,318.4,272.5z
			 M316,272.6c0-2.6-0.6-4.5-1.9-5.8c-1.3-1.3-3.2-1.9-5.7-1.9H305v15.7h2.8c2.7,0,4.8-0.7,6.1-2C315.3,277.2,316,275.2,316,272.6z"
			/>
		<path d="M335.2,275.1c0,2.4-0.6,4.3-1.8,5.6s-2.9,2-5,2c-1.3,0-2.5-0.3-3.5-0.9c-1-0.6-1.8-1.5-2.4-2.7c-0.6-1.2-0.8-2.5-0.8-4.1
			c0-2.4,0.6-4.3,1.8-5.6c1.2-1.3,2.9-2,5-2c2.1,0,3.7,0.7,4.9,2.1S335.2,272.8,335.2,275.1z M324,275.1c0,1.9,0.4,3.3,1.1,4.3
			c0.8,1,1.9,1.5,3.3,1.5c1.5,0,2.6-0.5,3.3-1.5c0.8-1,1.1-2.4,1.1-4.3c0-1.9-0.4-3.3-1.1-4.3c-0.8-1-1.9-1.5-3.4-1.5
			c-1.5,0-2.6,0.5-3.3,1.4C324.3,271.8,324,273.2,324,275.1z"/>
		<path d="M345,282.8c-2.1,0-3.8-0.7-5-2c-1.2-1.3-1.8-3.2-1.8-5.6c0-2.5,0.6-4.4,1.8-5.7s2.9-2,5.1-2c0.7,0,1.4,0.1,2.1,0.2
			c0.7,0.2,1.3,0.3,1.7,0.5l-0.7,1.9c-0.5-0.2-1-0.4-1.6-0.5c-0.6-0.1-1.1-0.2-1.5-0.2c-3,0-4.5,1.9-4.5,5.7c0,1.8,0.4,3.2,1.1,4.2
			c0.7,1,1.8,1.5,3.2,1.5c1.2,0,2.5-0.3,3.8-0.8v2C347.7,282.5,346.5,282.8,345,282.8z"/>
		<path d="M354.3,267.8v9.6c0,1.2,0.3,2.1,0.8,2.7s1.4,0.9,2.6,0.9c1.5,0,2.7-0.4,3.4-1.3c0.7-0.8,1.1-2.2,1.1-4.1v-7.7h2.2v14.7
			h-1.8l-0.3-2h-0.1c-0.5,0.7-1.1,1.3-1.9,1.7c-0.8,0.4-1.7,0.6-2.8,0.6c-1.8,0-3.1-0.4-4-1.3c-0.9-0.9-1.3-2.2-1.3-4.1v-9.6H354.3z
			"/>
		<path d="M387.9,282.5v-9.6c0-1.2-0.3-2.1-0.8-2.6c-0.5-0.6-1.3-0.9-2.3-0.9c-1.4,0-2.4,0.4-3.1,1.2c-0.7,0.8-1,2-1,3.7v8.2h-2.2
			v-9.6c0-1.2-0.3-2.1-0.8-2.6c-0.5-0.6-1.3-0.9-2.4-0.9c-1.4,0-2.4,0.4-3.1,1.3c-0.6,0.8-1,2.2-1,4.1v7.7h-2.2v-14.7h1.8l0.4,2h0.1
			c0.4-0.7,1-1.3,1.8-1.7c0.8-0.4,1.6-0.6,2.6-0.6c2.3,0,3.8,0.8,4.5,2.5h0.1c0.4-0.8,1.1-1.4,1.9-1.8c0.8-0.4,1.8-0.7,2.9-0.7
			c1.7,0,2.9,0.4,3.7,1.3c0.8,0.9,1.2,2.2,1.2,4.1v9.6H387.9z"/>
		<path d="M401,282.8c-2.2,0-3.9-0.7-5.2-2c-1.3-1.3-1.9-3.2-1.9-5.5c0-2.4,0.6-4.3,1.8-5.7c1.2-1.4,2.7-2.1,4.7-2.1
			c1.8,0,3.3,0.6,4.4,1.8s1.6,2.8,1.6,4.8v1.4h-10.2c0,1.7,0.5,3,1.3,3.9c0.8,0.9,2,1.3,3.5,1.3c1.6,0,3.2-0.3,4.7-1v2
			c-0.8,0.3-1.5,0.6-2.2,0.7C402.8,282.7,401.9,282.8,401,282.8z M400.3,269.4c-1.2,0-2.1,0.4-2.8,1.2c-0.7,0.8-1.1,1.8-1.2,3.2h7.7
			c0-1.4-0.3-2.5-0.9-3.2C402.4,269.8,401.5,269.4,400.3,269.4z"/>
		<path d="M420.3,282.5V273c0-1.2-0.3-2.1-0.8-2.7s-1.4-0.9-2.6-0.9c-1.5,0-2.7,0.4-3.4,1.3c-0.7,0.8-1.1,2.2-1.1,4.1v7.7h-2.2
			v-14.7h1.8l0.4,2h0.1c0.5-0.7,1.1-1.3,1.9-1.7s1.7-0.6,2.8-0.6c1.8,0,3.1,0.4,4,1.3c0.9,0.9,1.3,2.2,1.3,4.1v9.6H420.3z"/>
		<path d="M431.8,280.9c0.4,0,0.8,0,1.1-0.1s0.7-0.1,0.9-0.2v1.7c-0.2,0.1-0.6,0.2-1.1,0.3c-0.5,0.1-0.9,0.1-1.3,0.1
			c-2.9,0-4.3-1.5-4.3-4.5v-8.8h-2.1v-1.1l2.1-0.9l0.9-3.1h1.3v3.4h4.3v1.7h-4.3v8.7c0,0.9,0.2,1.6,0.6,2
			C430.5,280.7,431.1,280.9,431.8,280.9z"/>
		<path d="M445.9,282.5l-0.4-2.1h-0.1c-0.7,0.9-1.5,1.5-2.2,1.9s-1.6,0.5-2.7,0.5c-1.5,0-2.6-0.4-3.4-1.1c-0.8-0.8-1.2-1.8-1.2-3.2
			c0-3,2.4-4.5,7.1-4.7l2.5-0.1v-0.9c0-1.2-0.2-2-0.7-2.6s-1.3-0.8-2.4-0.8c-1.2,0-2.6,0.4-4.2,1.1l-0.7-1.7
			c0.7-0.4,1.5-0.7,2.4-0.9c0.9-0.2,1.7-0.3,2.6-0.3c1.8,0,3.1,0.4,3.9,1.2c0.8,0.8,1.3,2,1.3,3.8v10.1H445.9z M440.8,280.9
			c1.4,0,2.5-0.4,3.3-1.1c0.8-0.8,1.2-1.8,1.2-3.2v-1.3l-2.2,0.1c-1.8,0.1-3.1,0.3-3.8,0.8c-0.8,0.5-1.2,1.2-1.2,2.3
			c0,0.8,0.2,1.4,0.7,1.8C439.3,280.7,439.9,280.9,440.8,280.9z"/>
		<path d="M456.9,280.9c0.4,0,0.8,0,1.1-0.1s0.7-0.1,0.9-0.2v1.7c-0.2,0.1-0.6,0.2-1.1,0.3c-0.5,0.1-0.9,0.1-1.3,0.1
			c-2.9,0-4.3-1.5-4.3-4.5v-8.8h-2.1v-1.1l2.1-0.9l0.9-3.1h1.3v3.4h4.3v1.7h-4.3v8.7c0,0.9,0.2,1.6,0.6,2
			C455.6,280.7,456.1,280.9,456.9,280.9z"/>
		<path d="M461.7,263.8c0-0.5,0.1-0.9,0.4-1.1c0.3-0.2,0.6-0.4,0.9-0.4c0.4,0,0.7,0.1,0.9,0.4c0.3,0.2,0.4,0.6,0.4,1.1
			s-0.1,0.9-0.4,1.1c-0.3,0.2-0.6,0.4-0.9,0.4c-0.4,0-0.7-0.1-0.9-0.4C461.8,264.7,461.7,264.3,461.7,263.8z M464.1,282.5h-2.2
			v-14.7h2.2V282.5z"/>
		<path d="M481.5,275.1c0,2.4-0.6,4.3-1.8,5.6s-2.9,2-5,2c-1.3,0-2.5-0.3-3.5-0.9c-1-0.6-1.8-1.5-2.4-2.7c-0.6-1.2-0.8-2.5-0.8-4.1
			c0-2.4,0.6-4.3,1.8-5.6c1.2-1.3,2.9-2,5-2c2.1,0,3.7,0.7,4.9,2.1S481.5,272.8,481.5,275.1z M470.3,275.1c0,1.9,0.4,3.3,1.1,4.3
			c0.8,1,1.9,1.5,3.3,1.5c1.5,0,2.6-0.5,3.3-1.5c0.8-1,1.1-2.4,1.1-4.3c0-1.9-0.4-3.3-1.1-4.3c-0.8-1-1.9-1.5-3.4-1.5
			c-1.5,0-2.6,0.5-3.3,1.4C470.7,271.8,470.3,273.2,470.3,275.1z"/>
		<path d="M495.5,282.5V273c0-1.2-0.3-2.1-0.8-2.7s-1.4-0.9-2.6-0.9c-1.5,0-2.7,0.4-3.4,1.3c-0.7,0.8-1.1,2.2-1.1,4.1v7.7h-2.2
			v-14.7h1.8l0.4,2h0.1c0.5-0.7,1.1-1.3,1.9-1.7s1.7-0.6,2.8-0.6c1.8,0,3.1,0.4,4,1.3c0.9,0.9,1.3,2.2,1.3,4.1v9.6H495.5z"/>
	</g>
	<g>
		<path d="M347.8,57.6c0,2.7-0.9,4.8-2.7,6.3c-1.8,1.5-4.4,2.2-7.7,2.2h-2.7v9.8h-4.3V49.7h7.6c3.3,0,5.7,0.7,7.4,2
			S347.8,55,347.8,57.6z M334.7,62.5h2.3c2.2,0,3.8-0.4,4.8-1.1c1-0.8,1.5-2,1.5-3.6c0-1.5-0.5-2.6-1.4-3.4
			c-0.9-0.7-2.4-1.1-4.3-1.1h-3V62.5z"/>
		<path d="M365,75.9l-0.8-2.8H364c-1,1.2-1.9,2-2.9,2.5s-2.2,0.7-3.7,0.7c-2,0-3.5-0.5-4.6-1.6s-1.6-2.5-1.6-4.5
			c0-2,0.8-3.6,2.3-4.6c1.5-1,3.8-1.6,7-1.7l3.4-0.1v-1.1c0-1.3-0.3-2.2-0.9-2.8c-0.6-0.6-1.5-0.9-2.8-0.9c-1,0-2,0.1-2.9,0.4
			c-0.9,0.3-1.8,0.7-2.7,1.1l-1.4-3c1.1-0.6,2.3-1,3.5-1.3c1.3-0.3,2.5-0.4,3.6-0.4c2.5,0,4.4,0.6,5.7,1.7c1.3,1.1,1.9,2.8,1.9,5.2
			v13.4H365z M358.7,73.1c1.5,0,2.8-0.4,3.7-1.3c0.9-0.9,1.4-2.1,1.4-3.6v-1.7l-2.6,0.1c-2,0.1-3.4,0.4-4.3,1
			c-0.9,0.6-1.4,1.5-1.4,2.7c0,0.9,0.3,1.6,0.8,2.1S357.6,73.1,358.7,73.1z"/>
		<path d="M381.9,76.3c-3,0-5.3-0.9-6.9-2.6c-1.6-1.8-2.3-4.3-2.3-7.6c0-3.3,0.8-5.9,2.5-7.7c1.6-1.8,4-2.7,7.1-2.7
			c2.1,0,4,0.4,5.7,1.2l-1.3,3.4c-1.8-0.7-3.3-1-4.4-1c-3.4,0-5.2,2.3-5.2,6.8c0,2.2,0.4,3.9,1.3,5c0.9,1.1,2.1,1.7,3.8,1.7
			c1.9,0,3.7-0.5,5.3-1.4v3.7c-0.8,0.4-1.6,0.8-2.4,1S383.1,76.3,381.9,76.3z"/>
		<path d="M396.2,65.5l2.4-3l6-6.4h4.9l-8,8.5l8.5,11.3h-5l-6.4-8.7l-2.3,1.9v6.8h-4.2V48h4.2v13.6l-0.2,3.8H396.2z"/>
		<path d="M425.6,75.9l-0.8-2.8h-0.1c-1,1.2-1.9,2-2.9,2.5s-2.2,0.7-3.7,0.7c-2,0-3.5-0.5-4.6-1.6s-1.6-2.5-1.6-4.5
			c0-2,0.8-3.6,2.3-4.6c1.5-1,3.8-1.6,7-1.7l3.4-0.1v-1.1c0-1.3-0.3-2.2-0.9-2.8c-0.6-0.6-1.5-0.9-2.8-0.9c-1,0-2,0.1-2.9,0.4
			c-0.9,0.3-1.8,0.7-2.7,1.1l-1.4-3c1.1-0.6,2.3-1,3.5-1.3c1.3-0.3,2.5-0.4,3.6-0.4c2.5,0,4.4,0.6,5.7,1.7c1.3,1.1,1.9,2.8,1.9,5.2
			v13.4H425.6z M419.3,73.1c1.5,0,2.8-0.4,3.7-1.3c0.9-0.9,1.4-2.1,1.4-3.6v-1.7l-2.6,0.1c-2,0.1-3.4,0.4-4.3,1
			c-0.9,0.6-1.4,1.5-1.4,2.7c0,0.9,0.3,1.6,0.8,2.1S418.2,73.1,419.3,73.1z"/>
		<path d="M451.2,56.1v2.3l-3.4,0.6c0.3,0.4,0.6,0.9,0.8,1.5s0.3,1.3,0.3,1.9c0,2-0.7,3.7-2.1,4.8c-1.4,1.2-3.4,1.8-5.8,1.8
			c-0.6,0-1.2,0-1.7-0.1c-0.9,0.6-1.4,1.2-1.4,2c0,0.5,0.2,0.8,0.6,1c0.4,0.2,1.2,0.3,2.3,0.3h3.5c2.2,0,3.9,0.5,5,1.4
			c1.1,0.9,1.7,2.3,1.7,4c0,2.3-0.9,4-2.8,5.2c-1.9,1.2-4.5,1.8-8,1.8c-2.7,0-4.8-0.5-6.2-1.4s-2.1-2.3-2.1-4.1
			c0-1.2,0.4-2.2,1.2-3.1c0.8-0.8,1.9-1.4,3.2-1.7c-0.6-0.2-1-0.6-1.4-1.2s-0.5-1.1-0.5-1.7c0-0.7,0.2-1.4,0.6-1.9
			c0.4-0.5,1-1,1.9-1.5c-1-0.4-1.9-1.2-2.5-2.2c-0.6-1-1-2.2-1-3.5c0-2.2,0.7-3.8,2-5s3.3-1.8,5.8-1.8c0.6,0,1.2,0,1.8,0.1
			c0.6,0.1,1.1,0.2,1.4,0.2H451.2z M435.6,79c0,0.9,0.4,1.6,1.2,2.1c0.8,0.5,2,0.7,3.5,0.7c2.3,0,4-0.3,5.1-1
			c1.1-0.7,1.7-1.5,1.7-2.6c0-0.9-0.3-1.5-0.9-1.8c-0.6-0.4-1.8-0.5-3.4-0.5h-3.2c-1.2,0-2.2,0.3-2.9,0.9S435.6,78.1,435.6,79z
			 M437.4,62.5c0,1.2,0.3,2.2,1,2.9c0.6,0.7,1.6,1,2.8,1c2.4,0,3.7-1.3,3.7-3.9c0-1.3-0.3-2.3-0.9-3c-0.6-0.7-1.5-1.1-2.8-1.1
			c-1.2,0-2.1,0.3-2.8,1C437.8,60.2,437.4,61.2,437.4,62.5z"/>
		<path d="M463.6,76.3c-3.1,0-5.5-0.9-7.2-2.7s-2.6-4.3-2.6-7.4c0-3.2,0.8-5.8,2.4-7.7c1.6-1.9,3.8-2.8,6.7-2.8
			c2.6,0,4.7,0.8,6.2,2.4c1.5,1.6,2.3,3.8,2.3,6.6V67h-13.2c0.1,1.9,0.6,3.4,1.6,4.4c1,1,2.4,1.6,4.1,1.6c1.2,0,2.3-0.1,3.3-0.3
			c1-0.2,2.1-0.6,3.3-1.1V75c-1,0.5-2.1,0.8-3.1,1C466.2,76.2,465,76.3,463.6,76.3z M462.8,58.9c-1.3,0-2.4,0.4-3.2,1.3
			s-1.3,2.1-1.4,3.7h9c0-1.6-0.4-2.9-1.2-3.7C465.2,59.3,464.2,58.9,462.8,58.9z"/>
	</g>
</g>
</svg>
