<?xml version="1.0" encoding="utf-8"?>
<!-- Generator: Adobe Illustrator 19.2.0, SVG Export Plug-In . SVG Version: 6.00 Build 0)  -->
<svg version="1.1" id="Layer_1" xmlns="http://www.w3.org/2000/svg" xmlns:xlink="http://www.w3.org/1999/xlink" x="0px" y="0px"
	 viewBox="0 0 470 142" style="enable-background:new 0 0 470 142;" xml:space="preserve">
<style type="text/css">
	.st0{fill:#0F0F0F;}
	.st1{fill:#FFFFFF;}
	.st2{fill:#AD2523;}
	.st3{fill:#484AB8;}
	.st4{fill:#0D0D0D;}
	.st5{clip-path:url(#SVGID_2_);}
</style>
<g>
	<ellipse class="st0" cx="350.2" cy="136.4" rx="12.6" ry="4.4"/>
</g>
<g>
	<polygon class="st0" points="330.1,107.6 337.7,136.5 362.8,136.5 370.4,107.4 	"/>
</g>
<g>
	<ellipse class="st0" cx="350.2" cy="107.1" rx="20.3" ry="7.1"/>
</g>
<g>
	<ellipse class="st1" cx="350.2" cy="106.7" rx="16.6" ry="5.4"/>
</g>
<g>
	<g>
		
			<rect x="210" y="31.8" transform="matrix(8.103123e-003 -1 1 8.103123e-003 142.301 279.4168)" class="st2" width="4" height="72.4"/>
	</g>
	<g>
		<g>
			<path class="st2" d="M260.3,68.4c-5.7,2.1-12.8,5.6-17.2,9.4l3.5-9.5l-3.4-9.5C247.6,62.6,254.6,66.2,260.3,68.4z"/>
		</g>
	</g>
</g>
<g>
	<g>
		
			<rect x="93" y="31.3" transform="matrix(8.107823e-003 -1 1 8.107823e-003 27.2327 161.5164)" class="st2" width="4" height="71.5"/>
	</g>
	<g>
		<g>
			<path class="st2" d="M142.8,67.4c-5.7,2.1-12.8,5.6-17.2,9.4l3.5-9.5l-3.4-9.5C130.2,61.6,137.2,65.3,142.8,67.4z"/>
		</g>
	</g>
</g>
<g>
	<rect x="293.7" y="65.5" class="st3" width="117.1" height="4"/>
</g>
<g>
	<g>
		<g>
			<ellipse class="st1" cx="59.2" cy="67.5" rx="30.7" ry="27.2"/>
		</g>
		<g>
			<path d="M59.2,97.1c-18.2,0-33.1-13.3-33.1-29.6S41,37.9,59.2,37.9s33.1,13.3,33.1,29.6S77.4,97.1,59.2,97.1z M59.2,42.7
				c-15.6,0-28.3,11.1-28.3,24.8s12.7,24.8,28.3,24.8s28.3-11.1,28.3-24.8S74.8,42.7,59.2,42.7z"/>
		</g>
	</g>
	<g>
		<g>
			<g>
				<g>
					<rect x="46.6" y="47.9" transform="matrix(0.8102 -0.5862 0.5862 0.8102 -21.9485 38.8532)" width="4.7" height="10.8"/>
				</g>
			</g>
			<g>
				<g>
					<g>
						<polygon points="46.4,59.8 57.2,64.6 56,52.8 						"/>
					</g>
				</g>
			</g>
		</g>
		<g>
			<g>
				<g>
					<rect x="44.9" y="70.5" transform="matrix(0.8343 -0.5513 0.5513 0.8343 -31.6783 40.2643)" width="12.5" height="4.7"/>
				</g>
			</g>
			<g>
				<g>
					<g>
						<polygon points="44.1,70.4 38.9,80.9 50.6,80.2 						"/>
					</g>
				</g>
			</g>
		</g>
		<g>
			<g>
				<g>
					<rect x="67.2" y="76.3" transform="matrix(0.8101 -0.5862 0.5862 0.8101 -34.6841 56.2793)" width="4.7" height="10.8"/>
				</g>
			</g>
			<g>
				<g>
					<g>
						<polygon points="72.2,75.2 61.4,70.4 62.6,82.2 						"/>
					</g>
				</g>
			</g>
		</g>
		<g>
			<g>
				<g>
					<rect x="61.1" y="59.8" transform="matrix(0.8343 -0.5513 0.5513 0.8343 -23.1203 47.3977)" width="12.5" height="4.7"/>
				</g>
			</g>
			<g>
				<g>
					<g>
						<polygon points="74.3,64.6 79.6,54 67.8,54.8 						"/>
					</g>
				</g>
			</g>
		</g>
	</g>
</g>
<g>
	<g>
		<g>
			<ellipse class="st1" cx="410.8" cy="67.5" rx="30.7" ry="27.2"/>
		</g>
		<g>
			<path d="M410.8,97.1c-18.2,0-33.1-13.3-33.1-29.6s14.8-29.6,33.1-29.6c18.2,0,33.1,13.3,33.1,29.6S429,97.1,410.8,97.1z
				 M410.8,42.7c-15.6,0-28.3,11.1-28.3,24.8s12.7,24.8,28.3,24.8c15.6,0,28.3-11.1,28.3-24.8S426.4,42.7,410.8,42.7z"/>
		</g>
	</g>
	<g>
		<g>
			<g>
				<g>
					<rect x="398.2" y="47.9" transform="matrix(0.8102 -0.5862 0.5862 0.8102 44.7931 244.9453)" width="4.7" height="10.8"/>
				</g>
			</g>
			<g>
				<g>
					<g>
						<polygon points="398,59.8 408.7,64.6 407.5,52.8 						"/>
					</g>
				</g>
			</g>
		</g>
		<g>
			<g>
				<g>
					<rect x="396.5" y="70.5" transform="matrix(0.8343 -0.5513 0.5513 0.8343 26.5775 234.0889)" width="12.5" height="4.7"/>
				</g>
			</g>
			<g>
				<g>
					<g>
						<polygon points="395.7,70.4 390.4,80.9 402.2,80.2 						"/>
					</g>
				</g>
			</g>
		</g>
		<g>
			<g>
				<g>
					<rect x="418.7" y="76.3" transform="matrix(0.8101 -0.5862 0.5862 0.8101 32.0663 262.3836)" width="4.7" height="10.8"/>
				</g>
			</g>
			<g>
				<g>
					<g>
						<polygon points="423.7,75.2 413,70.4 414.2,82.2 						"/>
					</g>
				</g>
			</g>
		</g>
		<g>
			<g>
				<g>
					<rect x="412.6" y="59.8" transform="matrix(0.8343 -0.5513 0.5513 0.8343 35.1355 241.2223)" width="12.5" height="4.7"/>
				</g>
			</g>
			<g>
				<g>
					<g>
						<polygon points="425.9,64.6 431.1,54 419.4,54.8 						"/>
					</g>
				</g>
			</g>
		</g>
	</g>
</g>
<g>
	<g>
		<g>
			<ellipse class="st1" cx="176.4" cy="67.4" rx="30.7" ry="27.2"/>
		</g>
		<g>
			<path d="M176.4,97c-18.2,0-33.1-13.3-33.1-29.6s14.8-29.6,33.1-29.6s33.1,13.3,33.1,29.6S194.6,97,176.4,97z M176.4,42.6
				c-15.6,0-28.3,11.1-28.3,24.8s12.7,24.8,28.3,24.8s28.3-11.1,28.3-24.8S192,42.6,176.4,42.6z"/>
		</g>
	</g>
	<g>
		<g>
			<g>
				<g>
					<rect x="163.8" y="47.8" transform="matrix(0.8102 -0.5862 0.5862 0.8102 0.3441 107.5359)" width="4.7" height="10.8"/>
				</g>
			</g>
			<g>
				<g>
					<g>
						<polygon points="163.6,59.7 174.4,64.5 173.1,52.8 						"/>
					</g>
				</g>
			</g>
		</g>
		<g>
			<g>
				<g>
					<rect x="162.1" y="70.4" transform="matrix(0.8343 -0.5513 0.5513 0.8343 -12.217 104.8597)" width="12.5" height="4.7"/>
				</g>
			</g>
			<g>
				<g>
					<g>
						<polygon points="161.3,70.3 156.1,80.9 167.8,80.2 						"/>
					</g>
				</g>
			</g>
		</g>
		<g>
			<g>
				<g>
					<rect x="184.4" y="76.2" transform="matrix(0.8101 -0.5862 0.5862 0.8101 -12.3886 124.966)" width="4.7" height="10.8"/>
				</g>
			</g>
			<g>
				<g>
					<g>
						<polygon points="189.3,75.2 178.6,70.3 179.8,82.1 						"/>
					</g>
				</g>
			</g>
		</g>
		<g>
			<g>
				<g>
					<rect x="178.2" y="59.7" transform="matrix(0.8343 -0.5513 0.5513 0.8343 -3.659 111.993)" width="12.5" height="4.7"/>
				</g>
			</g>
			<g>
				<g>
					<g>
						<polygon points="191.5,64.5 196.8,54 185,54.7 						"/>
					</g>
				</g>
			</g>
		</g>
	</g>
</g>
<g>
	<g>
		<g>
			<g>
				
					<rect x="48" y="6.2" transform="matrix(1 -4.733461e-003 4.733461e-003 1 -5.793341e-002 0.2808)" class="st1" width="22.6" height="12.3"/>
			</g>
			<g>
				<path class="st2" d="M71.4,19.3L71.4,5.3L47,5.5l0.1,13.9L71.4,19.3z M69.6,7.1l0,10.5l-20.9,0.1l0-10.5L69.6,7.1z"/>
			</g>
		</g>
		<g>
			<g>
				<polygon class="st2" points="59.3,12.8 70.7,6.7 70.3,5.9 59.3,11.9 48.1,5.9 47.8,6.7 				"/>
			</g>
		</g>
	</g>
	<g>
		<g>
			<path class="st4" d="M47.6,32.7h-1.5v-7.8h-2.7v-1.3h6.8v1.3h-2.7V32.7z"/>
		</g>
		<g>
			<path class="st4" d="M54.8,32.7h-1.5v-7.8h-2.7v-1.3h6.8v1.3h-2.7V32.7z"/>
		</g>
		<g>
			<path class="st4" d="M58.9,32.7v-9.1h1.5v7.8h3.9v1.3H58.9z"/>
		</g>
		<g>
			<path class="st4" d="M74.6,32.7h-6.2v-1.1l2.3-2.4c0.7-0.7,1.2-1.2,1.4-1.5c0.2-0.3,0.4-0.6,0.5-0.8c0.1-0.3,0.2-0.5,0.2-0.8
				c0-0.4-0.1-0.7-0.4-1c-0.2-0.2-0.6-0.4-1-0.4c-0.3,0-0.7,0.1-1,0.2c-0.3,0.1-0.7,0.4-1.1,0.7l-0.8-1c0.5-0.4,1-0.7,1.5-0.9
				s1-0.3,1.5-0.3c0.8,0,1.5,0.2,2,0.7s0.8,1,0.8,1.8c0,0.4-0.1,0.8-0.2,1.2c-0.1,0.4-0.4,0.8-0.7,1.1s-0.8,0.9-1.5,1.6l-1.6,1.5
				v0.1h4.3V32.7z"/>
		</g>
	</g>
</g>
<g>
	<g>
		<g>
			<g>
				
					<rect x="165.2" y="6.2" transform="matrix(1 -4.733461e-003 4.733461e-003 1 -5.662056e-002 0.8355)" class="st1" width="22.6" height="12.3"/>
			</g>
			<g>
				<path class="st2" d="M188.6,19.3l-0.1-13.9l-24.4,0.2l0.1,13.9L188.6,19.3z M186.8,7.1l0,10.5l-20.9,0.1l0-10.5L186.8,7.1z"/>
			</g>
		</g>
		<g>
			<g>
				<polygon class="st2" points="176.5,12.8 187.9,6.7 187.5,5.9 176.5,11.9 165.2,5.9 165,6.7 				"/>
			</g>
		</g>
	</g>
	<g>
		<g>
			<path class="st4" d="M164.8,32.7h-1.5v-7.8h-2.7v-1.3h6.8v1.3h-2.7V32.7z"/>
		</g>
		<g>
			<path class="st4" d="M172,32.7h-1.5v-7.8h-2.7v-1.3h6.8v1.3H172V32.7z"/>
		</g>
		<g>
			<path class="st4" d="M176.1,32.7v-9.1h1.5v7.8h3.9v1.3H176.1z"/>
		</g>
		<g>
			<path class="st4" d="M190,32.7h-1.5v-5.9c0-0.7,0-1.3,0-1.7c-0.1,0.1-0.2,0.2-0.4,0.3c-0.1,0.1-0.6,0.5-1.4,1.1l-0.7-0.9l2.7-2.1
				h1.2V32.7z"/>
		</g>
	</g>
</g>
<g>
	<g>
		<g>
			<g>
				
					<rect x="282.4" y="6.2" transform="matrix(1 -4.733461e-003 4.733461e-003 1 -5.530823e-002 1.3902)" class="st1" width="22.6" height="12.3"/>
			</g>
			<g>
				<path class="st2" d="M305.8,19.3l-0.1-13.9l-24.4,0.2l0.1,13.9L305.8,19.3z M304,7.1l0,10.5L283,17.6l0-10.5L304,7.1z"/>
			</g>
		</g>
		<g>
			<g>
				<polygon class="st2" points="293.7,12.8 305.1,6.7 304.7,5.9 293.7,11.9 282.4,5.9 282.2,6.7 				"/>
			</g>
		</g>
	</g>
	<g>
		<g>
			<path class="st4" d="M282,32.7h-1.5v-7.8h-2.7v-1.3h6.8v1.3H282V32.7z"/>
		</g>
		<g>
			<path class="st4" d="M289.2,32.7h-1.5v-7.8H285v-1.3h6.8v1.3h-2.7V32.7z"/>
		</g>
		<g>
			<path class="st4" d="M293.3,32.7v-9.1h1.5v7.8h3.9v1.3H293.3z"/>
		</g>
		<g>
			<path class="st4" d="M309,28.1c0,1.6-0.3,2.8-0.8,3.5c-0.5,0.8-1.3,1.2-2.3,1.2c-1,0-1.8-0.4-2.3-1.2s-0.8-2-0.8-3.5
				c0-1.6,0.3-2.8,0.8-3.6c0.5-0.8,1.3-1.1,2.3-1.1c1,0,1.8,0.4,2.3,1.2S309,26.6,309,28.1z M304.3,28.1c0,1.2,0.1,2.1,0.4,2.7
				c0.3,0.5,0.7,0.8,1.2,0.8s1-0.3,1.2-0.8c0.3-0.5,0.4-1.4,0.4-2.6c0-1.2-0.1-2.1-0.4-2.7c-0.3-0.5-0.7-0.8-1.2-0.8s-1,0.3-1.2,0.8
				C304.4,26,304.3,26.9,304.3,28.1z"/>
		</g>
	</g>
</g>
<g>
	<defs>
		<path id="SVGID_1_" d="M359,102.1v-9.6h-25v12.7c0,0.5-0.5,1-0.5,1.5c0,3,7.5,5.4,16.7,5.4c9.2,0,16.5-2.4,16.5-5.4
			C366.7,104.8,364,103.1,359,102.1z"/>
	</defs>
	<clipPath id="SVGID_2_">
		<use xlink:href="#SVGID_1_"  style="overflow:visible;"/>
	</clipPath>
	<g class="st5">
		<g>
			<g>
				
					<rect x="343.1" y="98.8" transform="matrix(0.9599 -0.2802 0.2802 0.9599 -16.8485 102.2772)" class="st1" width="12.3" height="22.6"/>
			</g>
			<g>
				<path class="st2" d="M346,123.6l13.4-3.9l-6.9-23.4l-13.4,3.9L346,123.6z M357.3,118.5l-10.1,2.9l-5.8-20.1l10.1-2.9
					L357.3,118.5z"/>
			</g>
		</g>
		<g>
			<g>
				<polygon class="st2" points="348.9,110.2 358,119.5 358.6,118.8 349.8,110 352.5,97.5 351.6,97.4 				"/>
			</g>
		</g>
	</g>
</g>
<g>
	<g>
		<path class="st2" d="M338.9,95.6c-11.5-14.1-29.3-24.4-45.5-26.2l0.5-4c17.1,2,36,12.8,48.1,27.7L338.9,95.6z"/>
	</g>
	<g>
		<g>
			<path class="st2" d="M347.2,104.3c-4.9-3.5-11.9-7.3-17.5-8.7l9.8-2.5l5.9-8.2C344.7,90.6,345.7,98.5,347.2,104.3z"/>
		</g>
	</g>
</g>
<g>
	<g>
		<g>
			<ellipse class="st1" cx="293.6" cy="67.3" rx="30.7" ry="27.2"/>
		</g>
		<g>
			<path d="M293.6,96.9c-18.2,0-33.1-13.3-33.1-29.6s14.8-29.6,33.1-29.6c18.2,0,33.1,13.3,33.1,29.6S311.8,96.9,293.6,96.9z
				 M293.6,42.5c-15.6,0-28.3,11.1-28.3,24.8s12.7,24.8,28.3,24.8s28.3-11.1,28.3-24.8S309.2,42.5,293.6,42.5z"/>
		</g>
	</g>
	<g>
		<g>
			<g>
				<g>
					<rect x="281" y="47.7" transform="matrix(0.8102 -0.5862 0.5862 0.8102 22.6366 176.2185)" width="4.7" height="10.8"/>
				</g>
			</g>
			<g>
				<g>
					<g>
						<polygon points="280.8,59.6 291.5,64.4 290.3,52.7 						"/>
					</g>
				</g>
			</g>
		</g>
		<g>
			<g>
				<g>
					<rect x="279.3" y="70.3" transform="matrix(0.8343 -0.5513 0.5513 0.8343 7.2443 169.455)" width="12.5" height="4.7"/>
				</g>
			</g>
			<g>
				<g>
					<g>
						<polygon points="278.5,70.2 273.2,80.8 285,80.1 						"/>
					</g>
				</g>
			</g>
		</g>
		<g>
			<g>
				<g>
					<rect x="301.6" y="76.1" transform="matrix(0.8101 -0.5862 0.5862 0.8101 9.9069 193.6528)" width="4.7" height="10.8"/>
				</g>
			</g>
			<g>
				<g>
					<g>
						<polygon points="306.5,75.1 295.8,70.3 297,82 						"/>
					</g>
				</g>
			</g>
		</g>
		<g>
			<g>
				<g>
					<rect x="295.4" y="59.6" transform="matrix(0.8343 -0.5513 0.5513 0.8343 15.8023 176.5884)" width="12.5" height="4.7"/>
				</g>
			</g>
			<g>
				<g>
					<g>
						<polygon points="308.7,64.4 313.9,53.9 302.2,54.6 						"/>
					</g>
				</g>
			</g>
		</g>
	</g>
</g>
<g>
	<g>
		<path d="M154.8,123c0,0.9-0.3,1.5-0.9,2s-1.4,0.7-2.5,0.7h-1v3.4h-1v-8.6h2.2C153.7,120.5,154.8,121.3,154.8,123z M150.3,124.8
			h0.9c0.9,0,1.5-0.1,1.9-0.4s0.6-0.7,0.6-1.4c0-0.6-0.2-1-0.6-1.3s-0.9-0.4-1.7-0.4h-1.1V124.8z"/>
	</g>
	<g>
		<path d="M160.4,129l-0.2-0.9h0c-0.3,0.4-0.6,0.7-1,0.8s-0.7,0.2-1.2,0.2c-0.6,0-1.1-0.2-1.5-0.5s-0.5-0.8-0.5-1.4c0-1.3,1-2,3.1-2
			l1.1,0v-0.4c0-0.5-0.1-0.9-0.3-1.1s-0.6-0.4-1-0.4c-0.5,0-1.1,0.2-1.8,0.5l-0.3-0.7c0.3-0.2,0.7-0.3,1-0.4s0.8-0.1,1.1-0.1
			c0.8,0,1.3,0.2,1.7,0.5s0.6,0.9,0.6,1.6v4.4H160.4z M158.2,128.3c0.6,0,1.1-0.2,1.4-0.5s0.5-0.8,0.5-1.4v-0.6l-1,0
			c-0.8,0-1.3,0.1-1.7,0.4s-0.5,0.5-0.5,1c0,0.4,0.1,0.6,0.3,0.8S157.8,128.3,158.2,128.3z"/>
	</g>
	<g>
		<path d="M165.7,129.1c-0.9,0-1.6-0.3-2.2-0.9s-0.8-1.4-0.8-2.4c0-1.1,0.3-1.9,0.8-2.5s1.3-0.9,2.2-0.9c0.3,0,0.6,0,0.9,0.1
			s0.6,0.1,0.7,0.2l-0.3,0.8c-0.2-0.1-0.4-0.2-0.7-0.2s-0.5-0.1-0.7-0.1c-1.3,0-2,0.8-2,2.5c0,0.8,0.2,1.4,0.5,1.8s0.8,0.6,1.4,0.6
			c0.5,0,1.1-0.1,1.6-0.3v0.9C166.9,129,166.3,129.1,165.7,129.1z"/>
	</g>
	<g>
		<path d="M169.8,125.7c0.2-0.2,0.4-0.6,0.8-0.9l2.1-2.2h1.2l-2.6,2.7l2.8,3.7h-1.2l-2.3-3l-0.7,0.6v2.4h-1v-9.1h1v4.8
			C169.8,125,169.8,125.3,169.8,125.7L169.8,125.7z"/>
	</g>
	<g>
		<path d="M177.8,129.1c-0.9,0-1.7-0.3-2.2-0.9s-0.8-1.4-0.8-2.4c0-1,0.3-1.9,0.8-2.5s1.2-0.9,2.1-0.9c0.8,0,1.4,0.3,1.9,0.8
			s0.7,1.2,0.7,2.1v0.6h-4.4c0,0.8,0.2,1.3,0.6,1.7s0.9,0.6,1.5,0.6c0.7,0,1.4-0.1,2.1-0.4v0.9c-0.3,0.1-0.7,0.3-1,0.3
			S178.3,129.1,177.8,129.1z M177.6,123.3c-0.5,0-0.9,0.2-1.2,0.5s-0.5,0.8-0.5,1.4h3.4c0-0.6-0.1-1.1-0.4-1.4
			S178.1,123.3,177.6,123.3z"/>
	</g>
	<g>
		<path d="M183.9,128.3c0.2,0,0.3,0,0.5,0s0.3-0.1,0.4-0.1v0.7c-0.1,0.1-0.3,0.1-0.5,0.1s-0.4,0-0.6,0c-1.2,0-1.9-0.7-1.9-2v-3.8
			H181v-0.5l0.9-0.4l0.4-1.4h0.6v1.5h1.9v0.8h-1.9v3.8c0,0.4,0.1,0.7,0.3,0.9S183.6,128.3,183.9,128.3z"/>
	</g>
	<g>
		<path d="M189.1,120.9c0-0.2,0.1-0.4,0.2-0.5s0.2-0.2,0.4-0.2c0.2,0,0.3,0.1,0.4,0.2s0.2,0.3,0.2,0.5s-0.1,0.4-0.2,0.5
			s-0.2,0.2-0.4,0.2c-0.2,0-0.3-0.1-0.4-0.2S189.1,121.1,189.1,120.9z M190.2,129h-1v-6.4h1V129z"/>
	</g>
	<g>
		<path d="M196.4,127.3c0,0.6-0.2,1.1-0.7,1.4s-1.1,0.5-1.9,0.5c-0.9,0-1.5-0.1-2-0.4v-0.9c0.3,0.2,0.6,0.3,1,0.4s0.7,0.1,1,0.1
			c0.5,0,0.9-0.1,1.2-0.2s0.4-0.4,0.4-0.7c0-0.3-0.1-0.5-0.3-0.6s-0.6-0.4-1.3-0.6c-0.6-0.2-1-0.4-1.3-0.6s-0.4-0.4-0.6-0.6
			s-0.2-0.5-0.2-0.8c0-0.5,0.2-0.9,0.6-1.2s1-0.5,1.8-0.5c0.7,0,1.4,0.1,2,0.4l-0.3,0.8c-0.6-0.3-1.2-0.4-1.8-0.4
			c-0.5,0-0.8,0.1-1,0.2s-0.4,0.3-0.4,0.6c0,0.2,0,0.3,0.1,0.4s0.2,0.2,0.4,0.3s0.6,0.3,1.1,0.5c0.8,0.3,1.3,0.6,1.5,0.8
			S196.4,126.8,196.4,127.3z"/>
	</g>
	<g>
		<path d="M205.4,128.2L205.4,128.2c-0.5,0.7-1.2,1-2.1,1c-0.8,0-1.5-0.3-2-0.9s-0.7-1.4-0.7-2.4s0.2-1.9,0.7-2.5s1.1-0.9,2-0.9
			c0.9,0,1.5,0.3,2,0.9h0.1l0-0.5l0-0.5v-2.6h1v9.1h-0.8L205.4,128.2z M203.5,128.3c0.7,0,1.1-0.2,1.4-0.5s0.4-0.9,0.4-1.7v-0.2
			c0-0.9-0.2-1.6-0.5-1.9s-0.8-0.6-1.5-0.6c-0.6,0-1,0.2-1.3,0.7s-0.5,1.1-0.5,1.9c0,0.8,0.2,1.4,0.5,1.9S202.9,128.3,203.5,128.3z"
			/>
	</g>
	<g>
		<path d="M208.3,120.9c0-0.2,0.1-0.4,0.2-0.5s0.2-0.2,0.4-0.2c0.2,0,0.3,0.1,0.4,0.2s0.2,0.3,0.2,0.5s-0.1,0.4-0.2,0.5
			s-0.2,0.2-0.4,0.2c-0.2,0-0.3-0.1-0.4-0.2S208.3,121.1,208.3,120.9z M209.4,129h-1v-6.4h1V129z"/>
	</g>
	<g>
		<path d="M215.6,127.3c0,0.6-0.2,1.1-0.7,1.4s-1.1,0.5-1.9,0.5c-0.9,0-1.5-0.1-2-0.4v-0.9c0.3,0.2,0.6,0.3,1,0.4s0.7,0.1,1,0.1
			c0.5,0,0.9-0.1,1.2-0.2s0.4-0.4,0.4-0.7c0-0.3-0.1-0.5-0.3-0.6s-0.6-0.4-1.3-0.6c-0.6-0.2-1-0.4-1.3-0.6s-0.4-0.4-0.6-0.6
			s-0.2-0.5-0.2-0.8c0-0.5,0.2-0.9,0.6-1.2s1-0.5,1.8-0.5c0.7,0,1.4,0.1,2,0.4l-0.3,0.8c-0.6-0.3-1.2-0.4-1.8-0.4
			c-0.5,0-0.8,0.1-1,0.2s-0.4,0.3-0.4,0.6c0,0.2,0,0.3,0.1,0.4s0.2,0.2,0.4,0.3s0.6,0.3,1.1,0.5c0.8,0.3,1.3,0.6,1.5,0.8
			S215.6,126.8,215.6,127.3z"/>
	</g>
	<g>
		<path d="M219.8,129.1c-0.9,0-1.6-0.3-2.2-0.9s-0.8-1.4-0.8-2.4c0-1.1,0.3-1.9,0.8-2.5s1.3-0.9,2.2-0.9c0.3,0,0.6,0,0.9,0.1
			s0.6,0.1,0.7,0.2l-0.3,0.8c-0.2-0.1-0.4-0.2-0.7-0.2s-0.5-0.1-0.7-0.1c-1.3,0-2,0.8-2,2.5c0,0.8,0.2,1.4,0.5,1.8s0.8,0.6,1.4,0.6
			c0.5,0,1.1-0.1,1.6-0.3v0.9C221,129,220.4,129.1,219.8,129.1z"/>
	</g>
	<g>
		<path d="M226.9,129l-0.2-0.9h0c-0.3,0.4-0.6,0.7-1,0.8s-0.7,0.2-1.2,0.2c-0.6,0-1.1-0.2-1.5-0.5s-0.5-0.8-0.5-1.4c0-1.3,1-2,3.1-2
			l1.1,0v-0.4c0-0.5-0.1-0.9-0.3-1.1s-0.6-0.4-1-0.4c-0.5,0-1.1,0.2-1.8,0.5l-0.3-0.7c0.3-0.2,0.7-0.3,1-0.4s0.8-0.1,1.1-0.1
			c0.8,0,1.3,0.2,1.7,0.5s0.6,0.9,0.6,1.6v4.4H226.9z M224.7,128.3c0.6,0,1.1-0.2,1.4-0.5s0.5-0.8,0.5-1.4v-0.6l-1,0
			c-0.8,0-1.3,0.1-1.7,0.4s-0.5,0.5-0.5,1c0,0.4,0.1,0.6,0.3,0.8S224.3,128.3,224.7,128.3z"/>
	</g>
	<g>
		<path d="M232.5,122.5c0.3,0,0.5,0,0.8,0.1l-0.1,0.9c-0.3-0.1-0.5-0.1-0.7-0.1c-0.5,0-1,0.2-1.3,0.6s-0.6,0.9-0.6,1.6v3.4h-1v-6.4
			h0.8l0.1,1.2h0c0.2-0.4,0.5-0.7,0.9-1S232.1,122.5,232.5,122.5z"/>
	</g>
	<g>
		<path d="M238.8,128.2L238.8,128.2c-0.5,0.7-1.2,1-2.1,1c-0.8,0-1.5-0.3-2-0.9s-0.7-1.4-0.7-2.4s0.2-1.9,0.7-2.5s1.1-0.9,2-0.9
			c0.9,0,1.5,0.3,2,0.9h0.1l0-0.5l0-0.5v-2.6h1v9.1H239L238.8,128.2z M236.9,128.3c0.7,0,1.1-0.2,1.4-0.5s0.4-0.9,0.4-1.7v-0.2
			c0-0.9-0.2-1.6-0.5-1.9s-0.8-0.6-1.5-0.6c-0.6,0-1,0.2-1.3,0.7s-0.5,1.1-0.5,1.9c0,0.8,0.2,1.4,0.5,1.9S236.3,128.3,236.9,128.3z"
			/>
	</g>
	<g>
		<path d="M244.5,129.1c-0.9,0-1.7-0.3-2.2-0.9s-0.8-1.4-0.8-2.4c0-1,0.3-1.9,0.8-2.5s1.2-0.9,2.1-0.9c0.8,0,1.4,0.3,1.9,0.8
			s0.7,1.2,0.7,2.1v0.6h-4.4c0,0.8,0.2,1.3,0.6,1.7s0.9,0.6,1.5,0.6c0.7,0,1.4-0.1,2.1-0.4v0.9c-0.3,0.1-0.7,0.3-1,0.3
			S245,129.1,244.5,129.1z M244.3,123.3c-0.5,0-0.9,0.2-1.2,0.5s-0.5,0.8-0.5,1.4h3.4c0-0.6-0.1-1.1-0.4-1.4
			S244.8,123.3,244.3,123.3z"/>
	</g>
	<g>
		<path d="M252.9,128.2L252.9,128.2c-0.5,0.7-1.2,1-2.1,1c-0.8,0-1.5-0.3-2-0.9s-0.7-1.4-0.7-2.4s0.2-1.9,0.7-2.5s1.1-0.9,2-0.9
			c0.9,0,1.5,0.3,2,0.9h0.1l0-0.5l0-0.5v-2.6h1v9.1h-0.8L252.9,128.2z M251,128.3c0.7,0,1.1-0.2,1.4-0.5s0.4-0.9,0.4-1.7v-0.2
			c0-0.9-0.2-1.6-0.5-1.9s-0.8-0.6-1.5-0.6c-0.6,0-1,0.2-1.3,0.7s-0.5,1.1-0.5,1.9c0,0.8,0.2,1.4,0.5,1.9S250.4,128.3,251,128.3z"/>
	</g>
	<g>
		<path d="M263.4,128.2L263.4,128.2c-0.5,0.7-1.2,1-2.1,1c-0.8,0-1.5-0.3-2-0.9s-0.7-1.4-0.7-2.4s0.2-1.9,0.7-2.5s1.1-0.9,2-0.9
			c0.9,0,1.5,0.3,2,0.9h0.1l0-0.5l0-0.5v-2.6h1v9.1h-0.8L263.4,128.2z M261.5,128.3c0.7,0,1.1-0.2,1.4-0.5s0.4-0.9,0.4-1.7v-0.2
			c0-0.9-0.2-1.6-0.5-1.9s-0.8-0.6-1.5-0.6c-0.6,0-1,0.2-1.3,0.7s-0.5,1.1-0.5,1.9c0,0.8,0.2,1.4,0.5,1.9S260.9,128.3,261.5,128.3z"
			/>
	</g>
	<g>
		<path d="M267.3,122.6v4.2c0,0.5,0.1,0.9,0.4,1.2s0.6,0.4,1.1,0.4c0.7,0,1.2-0.2,1.5-0.6s0.5-1,0.5-1.8v-3.4h1v6.4h-0.8l-0.1-0.9
			h-0.1c-0.2,0.3-0.5,0.6-0.8,0.7s-0.8,0.3-1.2,0.3c-0.8,0-1.4-0.2-1.8-0.6s-0.6-1-0.6-1.8v-4.2H267.3z"/>
	</g>
	<g>
		<path d="M276.5,129.1c-0.9,0-1.7-0.3-2.2-0.9s-0.8-1.4-0.8-2.4c0-1,0.3-1.9,0.8-2.5s1.2-0.9,2.1-0.9c0.8,0,1.4,0.3,1.9,0.8
			s0.7,1.2,0.7,2.1v0.6h-4.4c0,0.8,0.2,1.3,0.6,1.7s0.9,0.6,1.5,0.6c0.7,0,1.4-0.1,2.1-0.4v0.9c-0.3,0.1-0.7,0.3-1,0.3
			S276.9,129.1,276.5,129.1z M276.2,123.3c-0.5,0-0.9,0.2-1.2,0.5s-0.5,0.8-0.5,1.4h3.4c0-0.6-0.1-1.1-0.4-1.4
			S276.7,123.3,276.2,123.3z"/>
	</g>
	<g>
		<path d="M285.7,128.3c0.2,0,0.3,0,0.5,0s0.3-0.1,0.4-0.1v0.7c-0.1,0.1-0.3,0.1-0.5,0.1s-0.4,0-0.6,0c-1.2,0-1.9-0.7-1.9-2v-3.8
			h-0.9v-0.5l0.9-0.4l0.4-1.4h0.6v1.5h1.9v0.8h-1.9v3.8c0,0.4,0.1,0.7,0.3,0.9S285.4,128.3,285.7,128.3z"/>
	</g>
	<g>
		<path d="M293.4,125.8c0,1-0.3,1.9-0.8,2.5s-1.3,0.9-2.2,0.9c-0.6,0-1.1-0.1-1.5-0.4s-0.8-0.7-1-1.2s-0.4-1.1-0.4-1.8
			c0-1,0.3-1.9,0.8-2.4s1.3-0.9,2.2-0.9c0.9,0,1.6,0.3,2.1,0.9S293.4,124.8,293.4,125.8z M288.5,125.8c0,0.8,0.2,1.4,0.5,1.9
			s0.8,0.6,1.4,0.6s1.1-0.2,1.5-0.6s0.5-1.1,0.5-1.9c0-0.8-0.2-1.4-0.5-1.9s-0.8-0.6-1.5-0.6c-0.6,0-1.1,0.2-1.4,0.6
			S288.5,125,288.5,125.8z"/>
	</g>
	<g>
		<path d="M301,129h-1v-7.7h-2.7v-0.9h6.4v0.9H301V129z"/>
	</g>
	<g>
		<path d="M307.6,129h-1v-7.7h-2.7v-0.9h6.4v0.9h-2.7V129z"/>
	</g>
	<g>
		<path d="M311.6,129v-8.6h1v7.7h3.8v0.9H311.6z"/>
	</g>
	<g>
		<path d="M326.1,124.7c0,1.5-0.2,2.6-0.7,3.3s-1.2,1.1-2.1,1.1c-0.9,0-1.6-0.4-2.1-1.1s-0.7-1.8-0.7-3.3c0-1.5,0.2-2.6,0.7-3.3
			s1.2-1.1,2.1-1.1c0.9,0,1.6,0.4,2.1,1.1S326.1,123.3,326.1,124.7z M321.4,124.7c0,1.2,0.1,2.2,0.4,2.7s0.8,0.9,1.4,0.9
			c0.6,0,1.1-0.3,1.4-0.9s0.4-1.5,0.4-2.7s-0.1-2.1-0.4-2.7s-0.8-0.9-1.4-0.9c-0.6,0-1.1,0.3-1.4,0.8S321.4,123.5,321.4,124.7z"/>
	</g>
</g>
</svg>
