<?xml version="1.0" encoding="utf-8"?>
<!-- Generator: Adobe Illustrator 19.2.0, SVG Export Plug-In . SVG Version: 6.00 Build 0)  -->
<svg version="1.1" id="Layer_1" xmlns="http://www.w3.org/2000/svg" xmlns:xlink="http://www.w3.org/1999/xlink" x="0px" y="0px"
	 viewBox="0 0 520 170" style="enable-background:new 0 0 520 170;" xml:space="preserve">
<style type="text/css">
	.st0{fill:#484AB8;}
	.st1{fill:#FFFFFF;}
	.st2{fill:#3D3D3D;}
</style>
<g>
	<g>
		<path class="st0" d="M169,93.3l-2.3-1.9c1.9-2.3,3.8-4.5,5.6-6.6l2.3,2C172.7,88.9,170.9,91.1,169,93.3z M351,93.3
			c-1.2-1.4-2.3-2.8-3.5-4.2l2.3-1.9c1.2,1.4,2.3,2.8,3.5,4.3L351,93.3z M341.9,82.6c-1.9-2.2-3.9-4.3-5.7-6.4l2.2-2
			c1.9,2,3.8,4.2,5.8,6.4L341.9,82.6z M180.2,80.4l-2.2-2c2-2.2,4-4.3,5.9-6.3l2.2,2.1C184.2,76.1,182.2,78.2,180.2,80.4z M330.3,70
			c-2-2.1-4.1-4.1-6.1-6l2.1-2.2c2,1.9,4.1,4,6.2,6.1L330.3,70z M192.1,68l-2.1-2.1c2.1-2.1,4.2-4.1,6.3-6l2,2.2
			C196.2,64,194.1,66,192.1,68z M317.9,58.3c-2.2-1.9-4.4-3.7-6.5-5.5l1.9-2.4c2.2,1.7,4.4,3.6,6.7,5.5L317.9,58.3z M204.7,56.5
			l-1.9-2.3c2.3-1.9,4.6-3.7,6.8-5.4l1.8,2.4C209.1,52.8,206.9,54.6,204.7,56.5z M304.5,47.7c-2.4-1.7-4.8-3.2-7.1-4.6l1.5-2.6
			c2.4,1.4,4.9,3,7.3,4.7L304.5,47.7z M218.3,46.3l-1.7-2.5c2.5-1.6,5-3.2,7.4-4.5l1.5,2.6C223.1,43.2,220.7,44.7,218.3,46.3z
			 M289.9,39.1c-2.6-1.3-5.2-2.4-7.8-3.3l1-2.8c2.7,1,5.4,2.1,8.1,3.4L289.9,39.1z M233.1,38l-1.2-2.7c2.7-1.2,5.5-2.3,8.2-3.1
			l0.9,2.9C238.4,35.9,235.7,36.9,233.1,38z M274.1,33.5c-2.8-0.6-5.5-1.1-8.3-1.3l0.3-3c2.9,0.3,5.8,0.7,8.7,1.4L274.1,33.5z
			 M249.1,33l-0.6-2.9c2.9-0.5,5.8-0.9,8.7-1l0.1,3C254.7,32.1,251.9,32.4,249.1,33z"/>
	</g>
	<g>
		<g>
			<path class="st1" d="M192.7,34.8c-0.6,1.4-0.9,2.8-0.9,4.4c0,7.2,7.1,13,15.8,13c1.1,0,2.3-0.1,3.3-0.3c2.6,5.2,8.6,8.8,15.8,8.8
				c5,0,9.4-1.8,12.5-4.6c2.1,1.7,5.1,2.8,8.4,2.8c1.3,0,2.5-0.2,3.7-0.5c2,5.1,6.9,8.7,12.7,8.7c6.2,0,11.4-4.1,13.1-9.8
				c2.8,2,6.8,3.3,11.3,3.3c4.4,0,8.3-1.2,11-3.1c1.8,0.9,3.8,1.4,5.9,1.4c7.3,0,13.3-6,13.3-13.3c0-5.4-3.2-10-7.7-12.1
				c0.4-1.1,0.6-2.2,0.6-3.3c0-6.6-6.6-12-14.7-12c-0.7,0-1.3,0.1-2,0.1c0,0,0-0.1,0-0.1c0-8.4-8.8-15.2-19.7-15.2
				c-7.5,0-13.9,3.2-17.3,7.9c-2.8-2.7-6.9-4.4-11.5-4.4c-2.8,0-5.4,0.6-7.7,1.8c-3-1.8-6.7-2.9-10.6-2.9c-8.4,0-15.4,4.8-17.6,11.5
				c-1.3-0.2-2.6-0.3-3.9-0.3c-9.4,0-17,5.2-17,11.6C189.5,30.5,190.7,32.9,192.7,34.8z"/>
			<path class="st2" d="M264,68.1c-5.8,0-10.9-3.3-13.3-8.5c-1,0.2-2.1,0.3-3.1,0.3c-3.1,0-6-0.9-8.3-2.5c-3.4,2.8-7.8,4.3-12.6,4.3
				c-7,0-13.3-3.4-16.3-8.7c-0.9,0.1-1.9,0.2-2.8,0.2c-9.3,0-16.8-6.3-16.8-14c0-1.4,0.3-2.8,0.8-4.1c-2-2.1-3.1-4.5-3.1-7.1
				c0-6.9,8.1-12.6,18-12.6c1.1,0,2.2,0.1,3.3,0.2c2.6-6.7,10-11.3,18.3-11.3c3.8,0,7.5,1,10.7,2.8c2.3-1.1,5-1.6,7.6-1.6
				c4.2,0,8.3,1.4,11.3,4c3.8-4.6,10.3-7.5,17.4-7.5c11,0,20,6.8,20.6,15.3c0.4,0,0.7,0,1,0c8.7,0,15.7,5.8,15.7,13
				c0,0.9-0.1,1.9-0.4,2.8c4.6,2.5,7.5,7.3,7.5,12.6c0,7.9-6.4,14.3-14.3,14.3c-2,0-4-0.4-5.8-1.2c-3,1.9-6.9,3-11.1,3
				c-4,0-7.8-1-10.8-2.8C275.4,64.3,270,68.1,264,68.1z M251.9,57.2l0.3,0.8c1.9,4.9,6.5,8,11.8,8c5.6,0,10.5-3.7,12.1-9.1l0.4-1.4
				l1.1,0.8c2.7,2,6.6,3.1,10.7,3.1c3.9,0,7.8-1.1,10.4-3l0.5-0.3l0.5,0.3c1.7,0.8,3.5,1.3,5.4,1.3c6.8,0,12.3-5.5,12.3-12.3
				c0-4.8-2.8-9.1-7.1-11.2l-0.8-0.4l0.3-0.9c0.4-1,0.5-2,0.5-3c0-6.1-6.1-11-13.7-11c-0.6,0-1.2,0-1.9,0.1l-1.1,0.1l0-1.3
				c0-7.8-8.4-14.2-18.7-14.2c-6.9,0-13.2,2.9-16.5,7.5l-0.7,0.9l-0.8-0.8c-2.8-2.6-6.7-4.1-10.8-4.1c-2.5,0-5,0.6-7.2,1.7l-0.5,0.2
				l-0.5-0.3c-3-1.8-6.5-2.8-10.1-2.8c-7.7,0-14.6,4.4-16.7,10.8l-0.3,0.8l-0.8-0.1c-1.3-0.2-2.5-0.3-3.8-0.3c-8.8,0-16,4.7-16,10.6
				c0,2.2,1,4.3,3,6.1l0.5,0.5l-0.3,0.6c-0.6,1.3-0.9,2.6-0.9,4c0,6.6,6.6,12,14.8,12c1,0,2.1-0.1,3.2-0.3l0.7-0.1l0.3,0.7
				c2.5,5,8.3,8.2,14.9,8.2c4.5,0,8.8-1.6,11.8-4.3l0.6-0.6l0.7,0.5c2.1,1.7,4.8,2.6,7.7,2.6c1.2,0,2.3-0.2,3.4-0.4L251.9,57.2z"/>
		</g>
		<g>
			<g>
				<path d="M217.2,36.1c0,0.9-0.3,1.5-0.9,2c-0.6,0.5-1.5,0.7-2.6,0.7c-1,0-1.9-0.2-2.7-0.6v-1.9c0.6,0.3,1.2,0.5,1.6,0.6
					c0.4,0.1,0.9,0.2,1.2,0.2c0.4,0,0.8-0.1,1-0.3s0.4-0.4,0.4-0.8c0-0.2-0.1-0.4-0.2-0.5c-0.1-0.1-0.3-0.3-0.5-0.4
					c-0.2-0.1-0.6-0.4-1.2-0.6c-0.6-0.3-1-0.5-1.3-0.8c-0.3-0.3-0.5-0.5-0.7-0.9s-0.3-0.7-0.3-1.2c0-0.8,0.3-1.5,0.9-2
					s1.4-0.7,2.4-0.7c0.5,0,1,0.1,1.4,0.2c0.5,0.1,0.9,0.3,1.4,0.5l-0.7,1.6c-0.5-0.2-0.9-0.4-1.3-0.4c-0.3-0.1-0.7-0.1-1-0.1
					c-0.4,0-0.7,0.1-0.9,0.3c-0.2,0.2-0.3,0.4-0.3,0.7c0,0.2,0,0.3,0.1,0.5c0.1,0.1,0.2,0.3,0.4,0.4s0.6,0.3,1.3,0.7
					c0.9,0.4,1.5,0.9,1.8,1.3C217,35,217.2,35.5,217.2,36.1z"/>
			</g>
			<g>
				<path d="M223.4,38.8l-0.4-1H223c-0.3,0.4-0.7,0.7-1,0.9c-0.4,0.2-0.8,0.2-1.4,0.2c-0.7,0-1.3-0.2-1.7-0.6
					c-0.4-0.4-0.6-1-0.6-1.7c0-0.8,0.3-1.3,0.8-1.7c0.5-0.4,1.4-0.6,2.5-0.6l1.3,0v-0.3c0-0.7-0.4-1.1-1.1-1.1
					c-0.6,0-1.3,0.2-2.1,0.5l-0.7-1.3c0.8-0.4,1.8-0.7,2.8-0.7c1,0,1.7,0.2,2.3,0.6c0.5,0.4,0.8,1.1,0.8,1.9v4.9H223.4z M222.8,35.4
					l-0.8,0c-0.6,0-1,0.1-1.3,0.3c-0.3,0.2-0.4,0.5-0.4,0.9c0,0.6,0.3,0.8,1,0.8c0.5,0,0.8-0.1,1.1-0.4c0.3-0.3,0.4-0.6,0.4-1.1
					V35.4z"/>
			</g>
			<g>
				<path d="M229.9,37.3c0.3,0,0.8-0.1,1.3-0.2v1.5c-0.5,0.2-1.1,0.3-1.8,0.3c-0.8,0-1.4-0.2-1.7-0.6s-0.5-1-0.5-1.8V33h-1v-0.8
					l1.1-0.7l0.6-1.5h1.3v1.6h2V33h-2v3.5c0,0.3,0.1,0.5,0.2,0.6C229.4,37.3,229.6,37.3,229.9,37.3z"/>
			</g>
			<g>
				<path d="M235.9,38.9c-1.2,0-2.1-0.3-2.8-1c-0.7-0.6-1-1.6-1-2.8c0-1.2,0.3-2.2,0.9-2.8c0.6-0.7,1.5-1,2.5-1c1,0,1.8,0.3,2.4,0.9
					s0.9,1.4,0.9,2.4v1h-4.7c0,0.6,0.2,1,0.5,1.3s0.8,0.5,1.3,0.5c0.4,0,0.9,0,1.2-0.1c0.4-0.1,0.8-0.2,1.2-0.4v1.5
					c-0.3,0.2-0.7,0.3-1.1,0.4C237,38.9,236.5,38.9,235.9,38.9z M235.7,32.8c-0.4,0-0.8,0.1-1,0.4c-0.2,0.3-0.4,0.6-0.4,1.1h2.8
					c0-0.5-0.1-0.9-0.4-1.1C236.4,32.9,236.1,32.8,235.7,32.8z"/>
			</g>
			<g>
				<path d="M242.5,38.8h-2V28.6h2V38.8z"/>
			</g>
			<g>
				<path d="M246.6,38.8h-2V28.6h2V38.8z"/>
			</g>
			<g>
				<path d="M248.6,29.6c0-0.6,0.4-1,1.1-1c0.7,0,1.1,0.3,1.1,1c0,0.3-0.1,0.5-0.3,0.7c-0.2,0.2-0.5,0.3-0.8,0.3
					C249,30.6,248.6,30.3,248.6,29.6z M250.7,38.8h-2v-7.3h2V38.8z"/>
			</g>
			<g>
				<path d="M255.9,37.3c0.3,0,0.8-0.1,1.3-0.2v1.5c-0.5,0.2-1.1,0.3-1.8,0.3c-0.8,0-1.4-0.2-1.7-0.6s-0.5-1-0.5-1.8V33h-1v-0.8
					l1.1-0.7l0.6-1.5h1.3v1.6h2V33h-2v3.5c0,0.3,0.1,0.5,0.2,0.6C255.4,37.3,255.6,37.3,255.9,37.3z"/>
			</g>
			<g>
				<path d="M261.9,38.9c-1.2,0-2.1-0.3-2.8-1s-1-1.6-1-2.8c0-1.2,0.3-2.2,0.9-2.8c0.6-0.7,1.5-1,2.5-1c1,0,1.8,0.3,2.4,0.9
					c0.6,0.6,0.9,1.4,0.9,2.4v1h-4.7c0,0.6,0.2,1,0.5,1.3c0.3,0.3,0.8,0.5,1.3,0.5c0.4,0,0.9,0,1.2-0.1c0.4-0.1,0.8-0.2,1.2-0.4v1.5
					c-0.3,0.2-0.7,0.3-1.1,0.4S262.5,38.9,261.9,38.9z M261.6,32.8c-0.4,0-0.8,0.1-1,0.4c-0.2,0.3-0.4,0.6-0.4,1.1h2.8
					c0-0.5-0.1-0.9-0.4-1.1C262.4,32.9,262,32.8,261.6,32.8z"/>
			</g>
			<g>
				<path d="M270.1,38.8v-9.6h2v7.9h3.9v1.7H270.1z"/>
			</g>
			<g>
				<path d="M277.5,29.6c0-0.6,0.4-1,1.1-1c0.7,0,1.1,0.3,1.1,1c0,0.3-0.1,0.5-0.3,0.7c-0.2,0.2-0.5,0.3-0.8,0.3
					C277.8,30.6,277.5,30.3,277.5,29.6z M279.5,38.8h-2v-7.3h2V38.8z"/>
			</g>
			<g>
				<path d="M288.4,38.8h-2v-4.3c0-0.5-0.1-0.9-0.3-1.2c-0.2-0.3-0.5-0.4-0.9-0.4c-0.6,0-1,0.2-1.2,0.6s-0.4,1-0.4,1.9v3.4h-2v-7.3
					h1.5l0.3,0.9h0.1c0.2-0.4,0.5-0.6,0.9-0.8s0.8-0.3,1.3-0.3c0.8,0,1.5,0.2,1.9,0.7s0.7,1.1,0.7,2V38.8z"/>
			</g>
			<g>
				<path d="M292.3,34.8l0.9-1.1l2-2.2h2.2l-2.9,3.2l3.1,4.1h-2.3l-2.1-3l-0.9,0.7v2.3h-2V28.6h2v4.5L292.3,34.8L292.3,34.8z"/>
			</g>
		</g>
	</g>
	<g>
		<g>
			
				<rect x="57.4" y="132.8" transform="matrix(0.9973 -7.307435e-002 7.307435e-002 0.9973 -9.6324 8.3567)" class="st0" width="103.9" height="6"/>
		</g>
		<g>
			<g>
				<g>
					<ellipse class="st1" cx="57.6" cy="139.6" rx="30.7" ry="27.2"/>
				</g>
				<g>
					<path d="M57.6,169.2c-18.2,0-33.1-13.3-33.1-29.6S39.4,110,57.6,110s33.1,13.3,33.1,29.6S75.8,169.2,57.6,169.2z M57.6,114.8
						c-15.6,0-28.3,11.1-28.3,24.8c0,13.7,12.7,24.8,28.3,24.8s28.3-11.1,28.3-24.8C85.9,125.9,73.2,114.8,57.6,114.8z"/>
				</g>
			</g>
			<g>
				<g>
					<g>
						<g>
							<rect x="45" y="120" transform="matrix(0.8102 -0.5862 0.5862 0.8102 -64.5349 51.5867)" width="4.7" height="10.8"/>
						</g>
					</g>
					<g>
						<g>
							<g>
								<polygon points="44.8,131.9 55.5,136.7 54.3,125 								"/>
							</g>
						</g>
					</g>
				</g>
				<g>
					<g>
						<g>
							<rect x="43.3" y="142.6" transform="matrix(0.8343 -0.5513 0.5513 0.8343 -71.7088 51.314)" width="12.5" height="4.7"/>
						</g>
					</g>
					<g>
						<g>
							<g>
								<polygon points="42.5,142.5 37.2,153.1 49,152.4 								"/>
							</g>
						</g>
					</g>
				</g>
				<g>
					<g>
						<g>
							<rect x="65.5" y="148.4" transform="matrix(0.8101 -0.5862 0.5862 0.8101 -77.2732 69.0145)" width="4.7" height="10.8"/>
						</g>
					</g>
					<g>
						<g>
							<g>
								<polygon points="70.5,147.4 59.8,142.5 61,154.3 								"/>
							</g>
						</g>
					</g>
				</g>
				<g>
					<g>
						<g>
							<rect x="59.4" y="131.9" transform="matrix(0.8343 -0.5513 0.5513 0.8343 -63.1508 58.4474)" width="12.5" height="4.7"/>
						</g>
					</g>
					<g>
						<g>
							<g>
								<polygon points="72.7,136.7 77.9,126.2 66.2,126.9 								"/>
							</g>
						</g>
					</g>
				</g>
			</g>
		</g>
		<g>
			<g>
				<polygon points="128.8,140 179.6,140 176.8,125 131.4,125 				"/>
			</g>
			<g>
				<rect x="150.6" y="107.1" width="7.2" height="29.4"/>
			</g>
			<g>
				<g>
					<path d="M173.6,111.1c-15.6,0-28.2-12.6-28.2-28.2c0-3.5,0.6-6.9,1.8-10c-4.6,5-7.5,11.7-7.5,19.1c0,15.5,12.6,28.1,28.1,28.1
						c11.9,0,22-7.4,26.2-17.8C188.9,107.7,181.6,111.1,173.6,111.1z"/>
				</g>
				<g>
					<rect x="148.6" y="99.3" transform="matrix(0.6059 -0.7955 0.7955 0.6059 -17.673 167.8683)" width="24" height="5"/>
				</g>
				<g>
					<circle cx="167.9" cy="92.2" r="3.9"/>
				</g>
			</g>
		</g>
	</g>
	<g>
		<g>
			
				<rect x="407.6" y="83.9" transform="matrix(7.314005e-002 -0.9973 0.9973 7.314005e-002 245.1232 535.3956)" class="st0" width="6" height="103.9"/>
		</g>
		<g>
			<g>
				<g>
					<ellipse class="st1" cx="462.4" cy="139.6" rx="30.7" ry="27.2"/>
				</g>
				<g>
					<path d="M462.4,169.2c18.2,0,33.1-13.3,33.1-29.6S480.6,110,462.4,110s-33.1,13.3-33.1,29.6S444.2,169.2,462.4,169.2z
						 M462.4,114.8c15.6,0,28.3,11.1,28.3,24.8s-12.7,24.8-28.3,24.8s-28.3-11.1-28.3-24.8S446.8,114.8,462.4,114.8z"/>
				</g>
			</g>
			<g>
				<g>
					<g>
						<g>
							<rect x="467.2" y="123.1" transform="matrix(0.5862 -0.8102 0.8102 0.5862 93.9454 434.8003)" width="10.8" height="4.7"/>
						</g>
					</g>
					<g>
						<g>
							<g>
								<polygon points="475.2,131.9 464.5,136.7 465.7,125 								"/>
							</g>
						</g>
					</g>
				</g>
				<g>
					<g>
						<g>
							<rect x="468.1" y="138.7" transform="matrix(0.5513 -0.8343 0.8343 0.5513 90.1707 457.5648)" width="4.7" height="12.5"/>
						</g>
					</g>
					<g>
						<g>
							<g>
								<polygon points="477.5,142.5 482.8,153.1 471,152.4 								"/>
							</g>
						</g>
					</g>
				</g>
				<g>
					<g>
						<g>
							<rect x="446.7" y="151.4" transform="matrix(0.5862 -0.8101 0.8101 0.5862 62.4518 429.8904)" width="10.8" height="4.7"/>
						</g>
					</g>
					<g>
						<g>
							<g>
								<polygon points="449.5,147.4 460.2,142.5 459,154.3 								"/>
							</g>
						</g>
					</g>
				</g>
				<g>
					<g>
						<g>
							<rect x="452" y="128" transform="matrix(0.5513 -0.8343 0.8343 0.5513 91.8283 439.3069)" width="4.7" height="12.5"/>
						</g>
					</g>
					<g>
						<g>
							<g>
								<polygon points="447.3,136.7 442.1,126.2 453.8,126.9 								"/>
							</g>
						</g>
					</g>
				</g>
			</g>
		</g>
		<g>
			<g>
				<polygon points="391.2,140 340.4,140 343.2,125 388.6,125 				"/>
			</g>
			<g>
				
					<rect x="362.2" y="107.1" transform="matrix(-1 -1.224647e-016 1.224647e-016 -1 731.6072 243.5586)" width="7.2" height="29.4"/>
			</g>
			<g>
				<g>
					<path d="M346.4,111.1c15.6,0,28.2-12.6,28.2-28.2c0-3.5-0.6-6.9-1.8-10c4.6,5,7.5,11.7,7.5,19.1c0,15.5-12.6,28.1-28.1,28.1
						c-11.9,0-22-7.4-26.2-17.8C331.1,107.7,338.4,111.1,346.4,111.1z"/>
				</g>
				<g>
					<rect x="356.9" y="89.8" transform="matrix(0.7956 -0.6059 0.6059 0.7956 11.815 238.5583)" width="5" height="24"/>
				</g>
				<g>
					<circle cx="352.1" cy="92.2" r="3.9"/>
				</g>
			</g>
		</g>
	</g>
</g>
</svg>
