<?xml version="1.0" encoding="utf-8"?>
<!-- Generator: Adobe Illustrator 19.2.0, SVG Export Plug-In . SVG Version: 6.00 Build 0)  -->
<svg version="1.1" id="Layer_1" xmlns="http://www.w3.org/2000/svg" xmlns:xlink="http://www.w3.org/1999/xlink" x="0px" y="0px"
	 viewBox="0 0 470 65" style="enable-background:new 0 0 470 65;" xml:space="preserve">
<style type="text/css">
	.st0{fill:#B84848;}
	.st1{fill:#484AB8;}
	.st2{fill:#FFFFFF;}
</style>
<g>
	<g>
		<g>
			<path class="st0" d="M256,40.3c-0.5,0-1-0.2-1.4-0.6c-0.6-0.6-0.6-0.6-0.4-6c0-0.2,0-0.3,0-0.5c-0.4,0.4-0.7,0.7-1,1.1
				c-4.9,5-4.9,5-5.8,5c0,0,0,0,0,0c-0.5,0-1-0.2-1.4-0.6c-0.3-0.3-0.3-0.3-1.5-3.4c-0.2-0.5-0.4-1-0.6-1.5c0,0-0.1,0.1-0.1,0.1
				c-3.7,3.8-3.7,3.8-4.6,3.8c-0.5,0-1.1-0.2-1.4-0.6c-0.4-0.4-0.4-0.4-1.3-4.3c-0.1-0.4-0.2-0.8-0.3-1.2c-0.5,0.5-1,1-1.5,1.5
				c-4.9,5-4.9,5-5.8,5c-0.5,0-1-0.2-1.4-0.6c-0.4-0.4-0.4-0.4-1.3-3.9c-0.1-0.4-0.2-0.9-0.4-1.4c-0.3,0.3-0.6,0.7-0.9,1
				c-4.1,4.2-4.1,4.2-5,4.2c-0.5,0-1-0.2-1.4-0.6c-0.3-0.3-0.3-0.3-1.7-3.6c-0.1-0.3-0.3-0.7-0.5-1.1c-0.4,0.5-0.9,0.9-1.4,1.4
				c-4.5,4.6-4.5,4.6-5.5,4.6c-0.6,0-1.1-0.2-1.4-0.6c-0.2-0.2-0.2-0.2-2.4-4.2c-0.1-0.1-0.2-0.3-0.2-0.4c-0.6,0.6-1.2,1.2-1.7,1.8
				c-4.3,4.4-4.3,4.4-5.2,4.4c-0.5,0-1.1-0.2-1.4-0.6c-0.4-0.4-0.4-0.4-1.4-4.7c-0.1-0.3-0.1-0.6-0.2-0.9c-0.5,0.5-1,1-1.4,1.4
				c-3.8,3.9-3.8,3.9-4.7,3.9c-0.5,0-1.1-0.2-1.4-0.6c-0.5-0.5-0.5-0.5-1.1-5.7c0-0.1,0-0.1,0-0.2c-0.7,0.8-1.5,1.6-2.2,2.3
				c-5.4,5.5-5.4,5.5-6.3,5.5c-0.5,0-1-0.2-1.4-0.6c-0.6-0.6-0.6-0.6-0.9-6.4c-0.2,0.1-0.4,0.1-0.6,0.1l0-2l0.5-0.5l-0.5,0.5
				l-1.3-1.5c0.1-0.1,0.7-0.7,1.2-1.2c1.5-1.5,1.6-1.7,2.5-1.7c0,0,0,0,0,0c0.5,0,1,0.2,1.4,0.6c0.6,0.6,0.6,0.6,0.8,4.4
				c0,0.6,0.1,1.2,0.1,1.9c0.6-0.6,1.2-1.2,1.8-1.8c5.6-5.7,5.6-5.7,6.6-5.7c0.6,0,1,0.2,1.4,0.6c0.5,0.5,0.5,0.5,1.1,5.4
				c0,0.1,0,0.3,0.1,0.4c0.1-0.1,0.2-0.3,0.4-0.4c4.4-4.5,4.4-4.5,5.3-4.5c0.5,0,1.1,0.2,1.4,0.6c0.4,0.4,0.4,0.4,1.6,5.2
				c0,0.1,0.1,0.2,0.1,0.3c0.4-0.4,0.9-0.9,1.3-1.3c4.2-4.3,4.2-4.3,5.1-4.3c0.5,0,1.1,0.2,1.4,0.6c0.2,0.2,0.2,0.2,1.8,3.2
				c0.3,0.5,0.5,1,0.8,1.4c0.7-0.7,1.5-1.5,2.1-2.2c4-4.1,4-4.1,4.9-4.1c0,0,0,0,0,0c0.5,0,1,0.2,1.4,0.6c0.3,0.3,0.3,0.3,2,4.4
				c0,0.1,0.1,0.2,0.1,0.3c0.5-0.5,1-1,1.5-1.5c3.9-4,3.9-4,4.8-4c0,0,0,0,0,0c0.5,0,1,0.2,1.4,0.6c0.4,0.4,0.4,0.4,1.7,5.3
				c0.7-0.7,1.3-1.4,2-2c4.5-4.6,4.5-4.6,5.4-4.6c0.5,0,1.1,0.2,1.4,0.6c0.4,0.4,0.4,0.4,1.6,5.5c0.2-0.2,0.4-0.5,0.6-0.7
				c2.8-2.9,2.8-2.9,3.7-2.9c0.6,0,1.1,0.2,1.4,0.6c0.3,0.3,0.3,0.3,2.1,4.9c0.7-0.7,1.5-1.5,2.3-2.3c5.2-5.3,5.2-5.3,6.1-5.3
				c0,0,0,0,0,0c0.5,0,1,0.2,1.4,0.6c0.6,0.6,0.7,0.7,0.4,6.5c0.5-0.5,0.9-0.9,1.4-1.4c1.1-1.1,2.1-2.1,2.9-2.9
				c1.5-1.5,2.7-2.7,4.1-1.3c0.4,0.4,0.4,0.4,1.6,4.4c0.1,0.3,0.2,0.7,0.3,1c0.6-0.6,1.2-1.3,1.8-1.8c4.3-4.4,4.3-4.4,5.2-4.4
				c0,0,0,0,0,0c0.5,0,1,0.2,1.4,0.6c0.5,0.5,0.5,0.5,1.4,5.9c0.1-0.1,0.2-0.2,0.3-0.3c5.1-5.2,5.1-5.2,6.1-5.2c0,0,0,0,0,0
				c0.5,0,1,0.2,1.4,0.6c0.5,0.5,0.5,0.5,1.1,4.9c0,0.2,0.1,0.5,0.1,0.7c1.1-1.1,1.3-1.1,1.9-1.1l0,2l-1.4,1.4l1.4-1.4l1.3,1.5
				c-0.2,0.2-1,1-1.7,1.7c-2.1,2.1-2.1,2.1-3,2.1c-0.5,0-1-0.2-1.4-0.6c-0.5-0.5-0.5-0.5-1.2-5.7c-0.6,0.6-1.3,1.3-1.8,1.8
				c-3.6,3.7-3.6,3.7-4.5,3.7c0,0,0,0,0,0c-0.5,0-1-0.2-1.4-0.6c-0.5-0.5-0.5-0.5-1.2-4.9c-0.1-0.3-0.1-0.7-0.2-1
				c-0.4,0.4-0.7,0.8-1.1,1.1c-4.6,4.8-4.6,4.8-5.6,4.8c0,0,0,0,0,0c-0.5,0-1-0.2-1.4-0.6c-0.4-0.4-0.4-0.4-1.8-5
				c0-0.1-0.1-0.2-0.1-0.3c-0.6,0.6-1.2,1.2-1.8,1.8C256.9,40.3,256.9,40.3,256,40.3C256,40.3,256,40.3,256,40.3z"/>
		</g>
	</g>
	<g>
		<rect x="77.6" y="28.5" class="st1" width="98.1" height="8"/>
	</g>
	<g>
		<rect x="286.3" y="28.5" class="st1" width="106.1" height="8"/>
	</g>
	<g>
		<g>
			<g>
				<ellipse class="st2" cx="77.6" cy="32.5" rx="30.7" ry="27.2"/>
			</g>
			<g>
				<path d="M77.6,62.1c-18.2,0-33.1-13.3-33.1-29.6S59.4,2.9,77.6,2.9s33.1,13.3,33.1,29.6S95.9,62.1,77.6,62.1z M77.6,7.7
					C62,7.7,49.3,18.8,49.3,32.5S62,57.3,77.6,57.3S106,46.2,106,32.5S93.3,7.7,77.6,7.7z"/>
			</g>
		</g>
		<g>
			<g>
				<g>
					<g>
						<rect x="65.1" y="12.9" transform="matrix(0.8102 -0.5862 0.5862 0.8102 2.0654 43.006)" width="4.7" height="10.8"/>
					</g>
				</g>
				<g>
					<g>
						<g>
							<polygon points="64.8,24.8 75.6,29.6 74.4,17.8 							"/>
						</g>
					</g>
				</g>
			</g>
			<g>
				<g>
					<g>
						<rect x="63.3" y="35.5" transform="matrix(0.8343 -0.5513 0.5513 0.8343 -9.3302 44.6191)" width="12.5" height="4.7"/>
					</g>
				</g>
				<g>
					<g>
						<g>
							<polygon points="62.6,35.4 57.3,45.9 69.1,45.2 							"/>
						</g>
					</g>
				</g>
			</g>
			<g>
				<g>
					<g>
						<rect x="85.6" y="41.3" transform="matrix(0.8101 -0.5862 0.5862 0.8101 -10.6686 60.4318)" width="4.7" height="10.8"/>
					</g>
				</g>
				<g>
					<g>
						<g>
							<polygon points="90.6,40.2 79.8,35.4 81,47.2 							"/>
						</g>
					</g>
				</g>
			</g>
			<g>
				<g>
					<g>
						<rect x="79.5" y="24.8" transform="matrix(0.8343 -0.5513 0.5513 0.8343 -0.7722 51.7525)" width="12.5" height="4.7"/>
					</g>
				</g>
				<g>
					<g>
						<g>
							<polygon points="92.7,29.6 98,19 86.2,19.8 							"/>
						</g>
					</g>
				</g>
			</g>
		</g>
	</g>
	<g>
		<g>
			<g>
				<ellipse class="st2" cx="392.4" cy="32.5" rx="30.7" ry="27.2"/>
			</g>
			<g>
				<path d="M392.4,62.1c-18.2,0-33.1-13.3-33.1-29.6s14.8-29.6,33.1-29.6c18.2,0,33.1,13.3,33.1,29.6S410.6,62.1,392.4,62.1z
					 M392.4,7.7c-15.6,0-28.3,11.1-28.3,24.8s12.7,24.8,28.3,24.8c15.6,0,28.3-11.1,28.3-24.8S408,7.7,392.4,7.7z"/>
			</g>
		</g>
		<g>
			<g>
				<g>
					<g>
						<rect x="379.8" y="12.9" transform="matrix(0.8102 -0.5862 0.5862 0.8102 61.8138 227.5037)" width="4.7" height="10.8"/>
					</g>
				</g>
				<g>
					<g>
						<g>
							<polygon points="379.5,24.8 390.3,29.6 389.1,17.8 							"/>
						</g>
					</g>
				</g>
			</g>
			<g>
				<g>
					<g>
						<rect x="378.1" y="35.5" transform="matrix(0.8343 -0.5513 0.5513 0.8343 42.8215 218.1349)" width="12.5" height="4.7"/>
					</g>
				</g>
				<g>
					<g>
						<g>
							<polygon points="377.3,35.4 372,45.9 383.8,45.2 							"/>
						</g>
					</g>
				</g>
			</g>
			<g>
				<g>
					<g>
						<rect x="400.3" y="41.3" transform="matrix(0.8101 -0.5862 0.5862 0.8101 49.0878 244.9406)" width="4.7" height="10.8"/>
					</g>
				</g>
				<g>
					<g>
						<g>
							<polygon points="405.3,40.2 394.5,35.4 395.8,47.2 							"/>
						</g>
					</g>
				</g>
			</g>
			<g>
				<g>
					<g>
						<rect x="394.2" y="24.8" transform="matrix(0.8343 -0.5513 0.5513 0.8343 51.3795 225.2682)" width="12.5" height="4.7"/>
					</g>
				</g>
				<g>
					<g>
						<g>
							<polygon points="407.4,29.6 412.7,19 400.9,19.8 							"/>
						</g>
					</g>
				</g>
			</g>
		</g>
	</g>
</g>
<g>
	<path d="M204.5,6.8h3c1.4,0,2.3,0.2,2.9,0.6c0.6,0.4,0.9,1,0.9,1.8c0,0.6-0.1,1-0.4,1.4c-0.3,0.4-0.6,0.6-1.1,0.7v0.1
		c0.6,0.1,1,0.4,1.3,0.8c0.3,0.4,0.4,0.9,0.4,1.5c0,0.9-0.3,1.6-0.9,2s-1.5,0.7-2.6,0.7h-3.6V6.8z M206.6,10.6h1.2
		c0.5,0,0.9-0.1,1.2-0.3s0.4-0.5,0.4-0.8c0-0.4-0.1-0.6-0.4-0.8s-0.7-0.2-1.3-0.2h-1.1V10.6z M206.6,12.2v2.5h1.3
		c0.6,0,1-0.1,1.2-0.3c0.3-0.2,0.4-0.5,0.4-1c0-0.8-0.6-1.2-1.7-1.2H206.6z"/>
	<path d="M218,16.4l-0.4-1h-0.1c-0.3,0.4-0.7,0.7-1,0.9c-0.4,0.2-0.8,0.2-1.4,0.2c-0.7,0-1.3-0.2-1.7-0.6c-0.4-0.4-0.6-1-0.6-1.7
		c0-0.8,0.3-1.3,0.8-1.7c0.5-0.4,1.4-0.6,2.5-0.6l1.3,0v-0.3c0-0.7-0.4-1.1-1.1-1.1c-0.6,0-1.3,0.2-2.1,0.5l-0.7-1.3
		c0.8-0.4,1.8-0.7,2.8-0.7c1,0,1.7,0.2,2.3,0.6c0.5,0.4,0.8,1.1,0.8,1.9v4.9H218z M217.4,13l-0.8,0c-0.6,0-1,0.1-1.3,0.3
		c-0.3,0.2-0.4,0.5-0.4,0.9c0,0.6,0.3,0.8,1,0.8c0.5,0,0.8-0.1,1.1-0.4c0.3-0.3,0.4-0.6,0.4-1.1V13z"/>
	<path d="M223.8,16.5c-0.9,0-1.5-0.3-2-1c-0.5-0.7-0.7-1.6-0.7-2.8c0-1.2,0.2-2.1,0.7-2.8c0.5-0.7,1.2-1,2.1-1
		c0.9,0,1.6,0.4,2.1,1.1h0.1c-0.1-0.5-0.1-1-0.1-1.5V6.2h2v10.2h-1.5l-0.4-0.9h-0.1C225.4,16.2,224.7,16.5,223.8,16.5z M224.5,14.9
		c0.5,0,0.9-0.1,1.1-0.4c0.2-0.3,0.4-0.8,0.4-1.5v-0.2c0-0.8-0.1-1.3-0.4-1.7s-0.6-0.5-1.2-0.5c-0.4,0-0.8,0.2-1,0.6
		c-0.2,0.4-0.4,0.9-0.4,1.6c0,0.7,0.1,1.3,0.4,1.6C223.6,14.7,224,14.9,224.5,14.9z"/>
	<path d="M233.5,16.4V6.8h2v7.9h3.9v1.7H233.5z"/>
	<path d="M240.9,7.2c0-0.6,0.4-1,1.1-1c0.7,0,1.1,0.3,1.1,1c0,0.3-0.1,0.5-0.3,0.7c-0.2,0.2-0.5,0.3-0.8,0.3
		C241.2,8.2,240.9,7.8,240.9,7.2z M242.9,16.4h-2V9.1h2V16.4z"/>
	<path d="M251.8,16.4h-2v-4.3c0-0.5-0.1-0.9-0.3-1.2c-0.2-0.3-0.5-0.4-0.9-0.4c-0.6,0-1,0.2-1.2,0.6s-0.4,1-0.4,1.9v3.4h-2V9.1h1.5
		l0.3,0.9h0.1c0.2-0.4,0.5-0.6,0.9-0.8s0.8-0.3,1.3-0.3c0.8,0,1.5,0.2,1.9,0.7s0.7,1.1,0.7,2V16.4z"/>
	<path d="M255.7,12.4l0.9-1.1l2-2.2h2.2l-2.9,3.2l3.1,4.1h-2.3l-2.1-3l-0.9,0.7v2.3h-2V6.2h2v4.5L255.7,12.4L255.7,12.4z"/>
</g>
</svg>
