<?xml version="1.0" encoding="utf-8"?>
<!-- Generator: Adobe Illustrator 19.2.0, SVG Export Plug-In . SVG Version: 6.00 Build 0)  -->
<svg version="1.1" id="Layer_1" xmlns="http://www.w3.org/2000/svg" xmlns:xlink="http://www.w3.org/1999/xlink" x="0px" y="0px"
	 viewBox="0 0 675 220" style="enable-background:new 0 0 675 220;" xml:space="preserve">
<style type="text/css">
	.st0{fill:#AD2523;}
	.st1{fill:#FFFFFF;}
</style>
<g>
	<g>
		<g>
			
				<rect x="347.6" y="83.3" transform="matrix(0.5921 -0.8059 0.8059 0.5921 91.8801 354.1039)" class="st0" width="96.3" height="6"/>
		</g>
		<g>
			<g>
				<path class="st0" d="M356.5,139.7c2.5-8.7,4.4-20.4,3.7-29.1l8.4,12.6l14.6,4.3C374.7,129.4,364.1,134.7,356.5,139.7z"/>
			</g>
		</g>
	</g>
	<g>
		<g>
			
				<rect x="485.5" y="85.8" transform="matrix(0.8207 -0.5714 0.5714 0.8207 10.2973 303.4124)" class="st0" width="6" height="99.1"/>
		</g>
		<g>
			<g>
				<path class="st0" d="M449.9,79.8c7.5,5.2,17.9,10.8,26.4,12.9l-14.7,3.9l-8.8,12.4C453.8,100.3,452.2,88.6,449.9,79.8z"/>
			</g>
		</g>
	</g>
	<g>
		<g>
			<rect x="334.1" y="171.6" class="st0" width="119.5" height="6"/>
		</g>
		<g>
			<g>
				<path class="st0" d="M471.7,174.7c-8.5,3.2-19.1,8.5-25.7,14.2l5.2-14.3l-5.1-14.3C452.7,166.1,463.2,171.5,471.7,174.7z"/>
			</g>
		</g>
	</g>
	<g>
		<g>
			
				<rect x="208" y="114.1" transform="matrix(1.205792e-002 -0.9999 0.9999 1.205792e-002 34.6857 382.6256)" class="st0" width="6" height="119.3"/>
		</g>
		<g>
			<g>
				<path class="st0" d="M288.7,174.7c-8.6,3.1-19.2,8.3-25.8,14l5.3-14.2l-5-14.3C269.7,165.9,280.2,171.4,288.7,174.7z"/>
			</g>
		</g>
	</g>
	<g>
		<g>
			<g>
				<ellipse class="st1" cx="151.4" cy="174.7" rx="41.6" ry="36.9"/>
			</g>
			<g>
				<path d="M151.4,214.8c24.7,0,44.8-18,44.8-40.1s-20.1-40.1-44.8-40.1s-44.8,18-44.8,40.1S126.6,214.8,151.4,214.8z M151.4,141
					c21.2,0,38.4,15.1,38.4,33.7s-17.2,33.7-38.4,33.7S113,193.3,113,174.7S130.2,141,151.4,141z"/>
			</g>
		</g>
		<g>
			<g>
				<g>
					<g>
						<rect x="157.8" y="152.3" transform="matrix(0.5862 -0.8102 0.8102 0.5862 -57.6082 198.158)" width="14.7" height="6.4"/>
					</g>
				</g>
				<g>
					<g>
						<g>
							<polygon points="168.7,164.2 154.1,170.7 155.8,154.8 							"/>
						</g>
					</g>
				</g>
			</g>
			<g>
				<g>
					<g>
						<rect x="159.1" y="173.5" transform="matrix(0.5513 -0.8343 0.8343 0.5513 -78.964 217.0317)" width="6.4" height="16.9"/>
					</g>
				</g>
				<g>
					<g>
						<g>
							<polygon points="171.8,178.6 178.9,192.9 163,192 							"/>
						</g>
					</g>
				</g>
			</g>
			<g>
				<g>
					<g>
						<rect x="130" y="190.7" transform="matrix(0.5862 -0.8101 0.8101 0.5862 -100.2817 191.5153)" width="14.7" height="6.4"/>
					</g>
				</g>
				<g>
					<g>
						<g>
							<polygon points="133.8,185.2 148.4,178.7 146.8,194.6 							"/>
						</g>
					</g>
				</g>
			</g>
			<g>
				<g>
					<g>
						<rect x="137.2" y="159" transform="matrix(0.5513 -0.8343 0.8343 0.5513 -76.717 192.283)" width="6.4" height="16.9"/>
					</g>
				</g>
				<g>
					<g>
						<g>
							<polygon points="130.9,170.8 123.8,156.5 139.7,157.4 							"/>
						</g>
					</g>
				</g>
			</g>
		</g>
	</g>
	<g>
		<g>
			<g>
				<ellipse class="st1" cx="334.1" cy="174.7" rx="41.6" ry="36.9"/>
			</g>
			<g>
				<path d="M334.1,214.8c24.7,0,44.8-18,44.8-40.1s-20.1-40.1-44.8-40.1c-24.7,0-44.8,18-44.8,40.1S309.4,214.8,334.1,214.8z
					 M334.1,141c21.2,0,38.4,15.1,38.4,33.7s-17.2,33.7-38.4,33.7c-21.2,0-38.4-15.1-38.4-33.7S312.9,141,334.1,141z"/>
			</g>
		</g>
		<g>
			<g>
				<g>
					<g>
						<rect x="340.6" y="152.3" transform="matrix(0.5862 -0.8102 0.8102 0.5862 18.0112 346.2129)" width="14.7" height="6.4"/>
					</g>
				</g>
				<g>
					<g>
						<g>
							<polygon points="351.5,164.2 336.9,170.7 338.5,154.8 							"/>
						</g>
					</g>
				</g>
			</g>
			<g>
				<g>
					<g>
						<rect x="341.8" y="173.5" transform="matrix(0.5513 -0.8343 0.8343 0.5513 3.0322 369.4975)" width="6.4" height="16.9"/>
					</g>
				</g>
				<g>
					<g>
						<g>
							<polygon points="354.5,178.6 361.7,192.9 345.7,192 							"/>
						</g>
					</g>
				</g>
			</g>
			<g>
				<g>
					<g>
						<rect x="312.8" y="190.7" transform="matrix(0.5862 -0.8101 0.8101 0.5862 -24.6686 339.5656)" width="14.7" height="6.4"/>
					</g>
				</g>
				<g>
					<g>
						<g>
							<polygon points="316.6,185.2 331.2,178.7 329.5,194.6 							"/>
						</g>
					</g>
				</g>
			</g>
			<g>
				<g>
					<g>
						<rect x="320" y="159" transform="matrix(0.5513 -0.8343 0.8343 0.5513 5.2792 344.7488)" width="6.4" height="16.9"/>
					</g>
				</g>
				<g>
					<g>
						<g>
							<polygon points="313.7,170.8 306.5,156.5 322.5,157.4 							"/>
						</g>
					</g>
				</g>
			</g>
		</g>
	</g>
	<g>
		<g>
			<g>
				<ellipse class="st1" cx="425.5" cy="45.9" rx="41.6" ry="36.9"/>
			</g>
			<g>
				<path d="M425.5,86c24.7,0,44.8-18,44.8-40.1S450.2,5.8,425.5,5.8c-24.7,0-44.8,18-44.8,40.1S400.8,86,425.5,86z M425.5,12.2
					c21.2,0,38.4,15.1,38.4,33.7s-17.2,33.7-38.4,33.7c-21.2,0-38.4-15.1-38.4-33.7S404.3,12.2,425.5,12.2z"/>
			</g>
		</g>
		<g>
			<g>
				<g>
					<g>
						<rect x="432" y="23.5" transform="matrix(0.5862 -0.8102 0.8102 0.5862 160.1634 366.9471)" width="14.7" height="6.4"/>
					</g>
				</g>
				<g>
					<g>
						<g>
							<polygon points="442.8,35.4 428.3,42 429.9,26.1 							"/>
						</g>
					</g>
				</g>
			</g>
			<g>
				<g>
					<g>
						<rect x="433.2" y="44.7" transform="matrix(0.5513 -0.8343 0.8343 0.5513 151.4813 387.9432)" width="6.4" height="16.9"/>
					</g>
				</g>
				<g>
					<g>
						<g>
							<polygon points="445.9,49.8 453.1,64.1 437.1,63.2 							"/>
						</g>
					</g>
				</g>
			</g>
			<g>
				<g>
					<g>
						<rect x="404.1" y="61.9" transform="matrix(0.5862 -0.8101 0.8101 0.5862 117.477 360.302)" width="14.7" height="6.4"/>
					</g>
				</g>
				<g>
					<g>
						<g>
							<polygon points="407.9,56.4 422.5,49.9 420.9,65.8 							"/>
						</g>
					</g>
				</g>
			</g>
			<g>
				<g>
					<g>
						<rect x="411.3" y="30.2" transform="matrix(0.5513 -0.8343 0.8343 0.5513 153.7283 363.1945)" width="6.4" height="16.9"/>
					</g>
				</g>
				<g>
					<g>
						<g>
							<polygon points="405,42 397.9,27.7 413.8,28.6 							"/>
						</g>
					</g>
				</g>
			</g>
		</g>
	</g>
	<g>
		<g>
			<g>
				<ellipse class="st1" cx="516.8" cy="174.7" rx="41.6" ry="36.9"/>
			</g>
			<g>
				<path d="M516.8,214.8c24.7,0,44.8-18,44.8-40.1s-20.1-40.1-44.8-40.1c-24.7,0-44.8,18-44.8,40.1S492.1,214.8,516.8,214.8z
					 M516.8,141c21.2,0,38.4,15.1,38.4,33.7s-17.2,33.7-38.4,33.7c-21.2,0-38.4-15.1-38.4-33.7S495.7,141,516.8,141z"/>
			</g>
		</g>
		<g>
			<g>
				<g>
					<g>
						<rect x="523.3" y="152.3" transform="matrix(0.5862 -0.8102 0.8102 0.5862 93.6307 494.2678)" width="14.7" height="6.4"/>
					</g>
				</g>
				<g>
					<g>
						<g>
							<polygon points="534.2,164.2 519.6,170.7 521.3,154.8 							"/>
						</g>
					</g>
				</g>
			</g>
			<g>
				<g>
					<g>
						<rect x="524.6" y="173.5" transform="matrix(0.5513 -0.8343 0.8343 0.5513 85.0283 521.9633)" width="6.4" height="16.9"/>
					</g>
				</g>
				<g>
					<g>
						<g>
							<polygon points="537.3,178.6 544.4,192.9 528.5,192 							"/>
						</g>
					</g>
				</g>
			</g>
			<g>
				<g>
					<g>
						<rect x="495.5" y="190.7" transform="matrix(0.5862 -0.8101 0.8101 0.5862 50.9444 487.6158)" width="14.7" height="6.4"/>
					</g>
				</g>
				<g>
					<g>
						<g>
							<polygon points="499.3,185.2 513.9,178.7 512.3,194.6 							"/>
						</g>
					</g>
				</g>
			</g>
			<g>
				<g>
					<g>
						<rect x="502.7" y="159" transform="matrix(0.5513 -0.8343 0.8343 0.5513 87.2753 497.2146)" width="6.4" height="16.9"/>
					</g>
				</g>
				<g>
					<g>
						<g>
							<polygon points="496.4,170.8 489.3,156.5 505.2,157.4 							"/>
						</g>
					</g>
				</g>
			</g>
		</g>
	</g>
	<g>
		<g>
			<g>
				
					<rect x="215.2" y="150.9" transform="matrix(1 -4.733461e-003 4.733461e-003 1 -0.741 1.0739)" class="st1" width="22.6" height="12.3"/>
			</g>
			<g>
				<path class="st0" d="M238.6,164l-0.1-13.9l-24.4,0.2l0.1,13.9L238.6,164z M236.8,151.8l0,10.5l-20.9,0.1l0-10.5L236.8,151.8z"/>
			</g>
		</g>
		<g>
			<g>
				<polygon class="st0" points="226.5,157.5 237.9,151.4 237.5,150.6 226.5,156.6 215.3,150.6 215,151.4 				"/>
			</g>
		</g>
	</g>
</g>
<g>
	<g>
		<path class="st0" d="M77,215.5l-2.5-4.3l7.4-4.3l2.5,4.3L77,215.5z M91.9,206.9l-2.5-4.3l7.4-4.3l2.5,4.3L91.9,206.9z"/>
	</g>
	<g>
		<g>
			<path class="st0" d="M111.2,192.9c-4.8,5.8-10.2,14.1-12.6,21l-2.2-12.4l-9.7-8.1C93.8,194.7,103.7,194.2,111.2,192.9z"/>
		</g>
	</g>
</g>
</svg>
