<?xml version="1.0" encoding="utf-8"?>
<!-- Generator: Adobe Illustrator 19.2.0, SVG Export Plug-In . SVG Version: 6.00 Build 0)  -->
<svg version="1.1" id="Layer_1" xmlns="http://www.w3.org/2000/svg" xmlns:xlink="http://www.w3.org/1999/xlink" x="0px" y="0px"
	 viewBox="0 0 800 440" style="enable-background:new 0 0 800 440;" xml:space="preserve">
<style type="text/css">
	.st0{fill:#0B743B;}
	.st1{fill:#FF1732;}
	.st2{fill:#FFCB8B;}
</style>
<g>
	
		<rect x="459.3" y="190" transform="matrix(0.7722 -0.6354 0.6354 0.7722 -77.5986 359.6677)" class="st0" width="7" height="196.2"/>
</g>
<g>
	
		<rect x="325.1" y="13.7" transform="matrix(0.7635 -0.6458 0.6458 0.7635 -4.9458 242.5305)" class="st0" width="7" height="228.7"/>
</g>
<g>
	<rect x="386.5" y="137.8" transform="matrix(0.9252 -0.3796 0.3796 0.9252 -10.7314 228.254)" width="374" height="7"/>
</g>
<g>
	
		<rect x="547.7" y="96.7" transform="matrix(0.2591 -0.9658 0.9658 0.2591 164.263 719.6355)" class="st1" width="7" height="312.1"/>
</g>
<g>
	<rect x="368.6" y="134.3" transform="matrix(0.6906 -0.7232 0.7232 0.6906 46.2742 383.7443)" width="206.1" height="7"/>
</g>
<g>
	<rect x="201.4" y="302.3" transform="matrix(0.6388 -0.7694 0.7694 0.6388 -118.6421 358.8651)" width="243" height="7"/>
</g>
<g>
	
		<rect x="43.7" y="267.6" transform="matrix(0.9463 -0.3233 0.3233 0.9463 -75.4632 87.921)" class="st1" width="366.5" height="7"/>
</g>
<g>
	<rect x="247.9" y="13.5" transform="matrix(0.2791 -0.9603 0.9603 0.2791 19.3501 363.0162)" width="7" height="310.2"/>
</g>
<g>
	<circle class="st2" cx="102.5" cy="125.3" r="31"/>
	<path d="M102.5,157.4c-17.7,0-32-14.4-32-32s14.4-32,32-32s32,14.4,32,32S120.2,157.4,102.5,157.4z M102.5,95.3
		c-16.6,0-30,13.5-30,30c0,16.6,13.5,30,30,30s30-13.5,30-30C132.5,108.8,119.1,95.3,102.5,95.3z"/>
</g>
<g>
	<circle class="st2" cx="400.4" cy="211.9" r="31"/>
	<path d="M400.4,243.9c-17.7,0-32-14.4-32-32s14.4-32,32-32s32,14.4,32,32S418,243.9,400.4,243.9z M400.4,181.9
		c-16.6,0-30,13.5-30,30c0,16.6,13.5,30,30,30c16.6,0,30-13.5,30-30C430.4,195.3,416.9,181.9,400.4,181.9z"/>
</g>
<g>
	<circle class="st2" cx="254.1" cy="40.7" r="31"/>
	<path d="M254.1,72.8c-17.7,0-32-14.4-32-32s14.4-32,32-32s32,14.4,32,32S271.8,72.8,254.1,72.8z M254.1,10.7c-16.6,0-30,13.5-30,30
		c0,16.6,13.5,30,30,30c16.6,0,30-13.5,30-30C284.2,24.2,270.7,10.7,254.1,10.7z"/>
</g>
<g>
	<circle class="st2" cx="524.7" cy="361.4" r="31"/>
	<path d="M524.7,393.5c-17.7,0-32-14.4-32-32s14.4-32,32-32s32,14.4,32,32S542.4,393.5,524.7,393.5z M524.7,331.4
		c-16.6,0-30,13.5-30,30c0,16.6,13.5,30,30,30s30-13.5,30-30C554.8,344.9,541.3,331.4,524.7,331.4z"/>
</g>
<g>
	<circle class="st2" cx="701.9" cy="293.2" r="31"/>
	<path d="M701.9,325.2c-17.7,0-32-14.4-32-32s14.4-32,32-32s32,14.4,32,32S719.6,325.2,701.9,325.2z M701.9,263.2
		c-16.6,0-30,13.5-30,30c0,16.6,13.5,30,30,30s30-13.5,30-30C732,276.6,718.5,263.2,701.9,263.2z"/>
</g>
<g>
	<circle class="st2" cx="746.5" cy="70.4" r="31"/>
	<path d="M746.5,102.4c-17.7,0-32-14.4-32-32s14.4-32,32-32s32,14.4,32,32S764.1,102.4,746.5,102.4z M746.5,40.3
		c-16.6,0-30,13.5-30,30s13.5,30,30,30s30-13.5,30-30S763,40.3,746.5,40.3z"/>
</g>
<g>
	<circle class="st2" cx="245.2" cy="399.3" r="31"/>
	<path d="M245.2,431.3c-17.7,0-32-14.4-32-32c0-17.7,14.4-32,32-32s32,14.4,32,32C277.2,416.9,262.9,431.3,245.2,431.3z
		 M245.2,369.2c-16.6,0-30,13.5-30,30s13.5,30,30,30s30-13.5,30-30S261.8,369.2,245.2,369.2z"/>
</g>
<g>
	<circle class="st2" cx="53.5" cy="330.4" r="31"/>
	<path d="M53.5,362.4c-17.7,0-32-14.4-32-32s14.4-32,32-32s32,14.4,32,32S71.2,362.4,53.5,362.4z M53.5,300.4c-16.6,0-30,13.5-30,30
		c0,16.6,13.5,30,30,30c16.6,0,30-13.5,30-30C83.6,313.8,70.1,300.4,53.5,300.4z"/>
</g>
<g>
	<path d="M111.1,138.5l-2.9-8.1H97l-2.9,8.1h-5l10.9-29.3h5.2l10.9,29.3H111.1z M106.9,126.3l-2.7-7.9c-0.2-0.5-0.5-1.4-0.8-2.5
		c-0.4-1.1-0.6-2-0.7-2.5c-0.4,1.6-0.9,3.4-1.6,5.4l-2.6,7.6H106.9z"/>
</g>
<g>
	<path d="M45.2,314.6h8.7c4,0,6.9,0.6,8.7,1.8c1.8,1.2,2.7,3,2.7,5.5c0,1.7-0.4,3.1-1.3,4.3c-0.9,1.1-2.1,1.8-3.8,2.1v0.2
		c2,0.4,3.6,1.1,4.5,2.3c1,1.1,1.4,2.7,1.4,4.6c0,2.6-0.9,4.7-2.7,6.2c-1.8,1.5-4.4,2.2-7.6,2.2H45.2V314.6z M50,326.7h4.6
		c2,0,3.5-0.3,4.4-0.9c0.9-0.6,1.4-1.7,1.4-3.2c0-1.4-0.5-2.4-1.5-3s-2.6-0.9-4.7-0.9H50V326.7z M50,330.5v9.2H55
		c2,0,3.5-0.4,4.5-1.1c1-0.8,1.5-2,1.5-3.6c0-1.5-0.5-2.6-1.6-3.4c-1-0.7-2.6-1.1-4.7-1.1H50z"/>
</g>
<g>
	<path d="M387.3,297.4h-4.8v-13.2H369v13.2h-4.8v-29.2h4.8v11.9h13.5v-11.9h4.8V297.4z"/>
	<path d="M410,297.4l-0.7-2.9h-0.2c-0.7,1-1.6,1.8-2.8,2.4s-2.6,0.9-4.1,0.9c-2.7,0-4.7-0.7-6-2s-2-3.3-2-6v-14.4h4.7v13.6
		c0,1.7,0.3,3,1,3.8c0.7,0.8,1.8,1.3,3.3,1.3c2,0,3.4-0.6,4.3-1.8c0.9-1.2,1.4-3.2,1.4-5.9v-11h4.7v22.1H410z"/>
	<path d="M431.7,274.9c2.8,0,4.9,1,6.4,3c1.5,2,2.3,4.8,2.3,8.4c0,3.6-0.8,6.4-2.3,8.5c-1.6,2-3.7,3-6.5,3c-2.8,0-5-1-6.5-3h-0.3
		l-0.9,2.6h-3.5v-31.1h4.7v7.4c0,0.5,0,1.4-0.1,2.4c-0.1,1.1-0.1,1.8-0.1,2.1h0.2C426.6,276,428.8,274.9,431.7,274.9z M430.5,278.7
		c-1.9,0-3.3,0.6-4.1,1.7s-1.3,3-1.3,5.6v0.3c0,2.7,0.4,4.6,1.3,5.8c0.9,1.2,2.2,1.8,4.2,1.8c1.7,0,2.9-0.7,3.8-2
		c0.9-1.3,1.3-3.2,1.3-5.7C435.6,281.2,433.9,278.7,430.5,278.7z"/>
</g>
<g>
	<path d="M267.4,39.9c0,4.8-1.3,8.5-4,11c-2.7,2.5-6.5,3.8-11.6,3.8h-8.2V25.6h9c4.6,0,8.3,1.3,10.8,3.8
		C266.1,31.9,267.4,35.4,267.4,39.9z M262.4,40.1c0-7-3.3-10.5-9.8-10.5h-4.1v21.2h3.4C258.8,50.8,262.4,47.2,262.4,40.1z"/>
</g>
<g>
	<path d="M254.2,411.8h-16.5v-29.2h16.5v4h-11.7v7.9h11v4h-11v9.2h11.7V411.8z"/>
</g>
<g>
	<path d="M703.4,290.6h10.7v14.6c-1.8,0.6-3.4,1-5.1,1.2c-1.6,0.2-3.4,0.4-5.2,0.4c-4.4,0-7.8-1.3-10.2-3.9
		c-2.4-2.6-3.6-6.3-3.6-11.1c0-4.7,1.4-8.4,4.1-11c2.7-2.7,6.4-4,11.2-4c3,0,5.9,0.6,8.7,1.8l-1.7,4c-2.4-1.1-4.7-1.6-7.1-1.6
		c-3.1,0-5.6,1-7.4,2.9s-2.7,4.6-2.7,8c0,3.6,0.8,6.3,2.4,8.1c1.6,1.9,4,2.8,7,2.8c1.5,0,3.2-0.2,5-0.6v-7.5h-6V290.6z"/>
</g>
<g>
	<path d="M522.8,373.8h-4.7v-29.2h16.5v4h-11.7v9.1h11v4.1h-11V373.8z"/>
</g>
<g>
	<path d="M758.6,84.7h-4.8V71.5h-13.5v13.2h-4.8V55.5h4.8v11.9h13.5V55.5h4.8V84.7z"/>
</g>
<g>
	<circle class="st2" cx="542.1" cy="63.3" r="31"/>
	<path d="M542.1,95.3c-17.7,0-32-14.4-32-32s14.4-32,32-32s32,14.4,32,32S559.8,95.3,542.1,95.3z M542.1,33.2c-16.6,0-30,13.5-30,30
		c0,16.6,13.5,30,30,30s30-13.5,30-30C572.2,46.7,558.7,33.2,542.1,33.2z"/>
</g>
<g>
	<path d="M540.4,77.3V48.2h4.8v29.2H540.4z"/>
</g>
<g>
	<g>
		<path class="st1" d="M369.7,223.4l-0.7-1.9c1-0.3,1.9-0.7,2.9-1l0.6,1.9C371.6,222.8,370.6,223.1,369.7,223.4z"/>
	</g>
	<g>
		<path class="st1" d="M378.5,220.7l-0.5-1.9c2.1-0.6,4.2-1,6.2-1.5l0.4,2C382.6,219.6,380.6,220.1,378.5,220.7z M422.1,219.5
			c-2.1-0.4-4.2-0.8-6.2-1l0.3-2c2.1,0.3,4.2,0.6,6.3,1.1L422.1,219.5z M390.8,218.2l-0.3-2c2.1-0.3,4.3-0.5,6.4-0.6l0.1,2
			C395,217.8,392.9,218,390.8,218.2z M409.6,217.8c-2.1-0.2-4.2-0.2-6.3-0.3l0-2c2.1,0,4.3,0.1,6.4,0.3L409.6,217.8z"/>
	</g>
	<g>
		<path class="st1" d="M431.1,221.6c-1-0.3-1.9-0.5-2.9-0.7l0.5-1.9c1,0.2,1.9,0.5,2.9,0.8L431.1,221.6z"/>
	</g>
</g>
<g>
	<path class="st0" d="M420,237.6c-0.8-1.1-1.7-2.3-2.5-3.4l1.6-1.2c0.8,1.1,1.7,2.2,2.5,3.4L420,237.6z M413.9,229.5
		c-1.3-1.6-2.5-3.2-3.7-4.7l1.6-1.2c1.2,1.5,2.4,3.1,3.7,4.7L413.9,229.5z M406.5,220.1c-1.3-1.6-2.6-3.1-3.8-4.6l1.5-1.3
		c1.2,1.5,2.5,3,3.8,4.6L406.5,220.1z M398.8,210.9c-1.4-1.6-2.7-3.1-3.9-4.5l1.5-1.3c1.3,1.4,2.6,2.9,4,4.5L398.8,210.9z
		 M390.8,202c-1.4-1.5-2.7-3-4-4.4l1.5-1.4c1.3,1.4,2.7,2.9,4.1,4.4L390.8,202z M382.7,193.2c-1.4-1.5-2.7-3-4-4.5l1.5-1.3
		c1.3,1.4,2.6,2.9,4,4.4L382.7,193.2z"/>
</g>
<g>
	<g>
		<path class="st1" d="M305.5,228.4c-0.4,0-0.8-0.3-0.9-0.7c-0.2-0.5,0.1-1.1,0.6-1.3l34.8-11.9c0.5-0.2,1.1,0.1,1.3,0.6
			s-0.1,1.1-0.6,1.3l-34.8,11.9C305.8,228.4,305.6,228.4,305.5,228.4z"/>
	</g>
	<g>
		<g>
			<path class="st1" d="M351.7,211.6c-4.7,3.8-10.2,9.5-13.1,14.5l0.2-10.1l-6.3-7.9C337.9,210.3,345.7,211.4,351.7,211.6z"/>
		</g>
	</g>
</g>
<g>
	<g>
		<path class="st1" d="M483.6,220.7c-0.1,0-0.2,0-0.3,0l-35.5-9.5c-0.5-0.1-0.8-0.7-0.7-1.2c0.1-0.5,0.7-0.8,1.2-0.7l35.5,9.5
			c0.5,0.1,0.8,0.7,0.7,1.2C484.4,220.4,484,220.7,483.6,220.7z"/>
	</g>
	<g>
		<g>
			<path class="st1" d="M495.2,222.8c-6,0.6-13.8,2.2-19,4.8l5.8-8.3l-0.9-10.1C484.4,214,490.3,219.3,495.2,222.8z"/>
		</g>
	</g>
</g>
<g>
	<g>
		<path class="st0" d="M465.4,267.8c-0.3,0-0.6-0.1-0.8-0.4L441.3,239c-0.4-0.4-0.3-1.1,0.1-1.4c0.4-0.4,1.1-0.3,1.4,0.1l23.4,28.4
			c0.4,0.4,0.3,1.1-0.1,1.4C465.9,267.7,465.6,267.8,465.4,267.8z"/>
	</g>
	<g>
		<g>
			<path class="st0" d="M473.1,276.1c-5.2-3-12.5-6.2-18.2-7.2l9.5-3.4l5.2-8.7C469.4,262.6,471.1,270.4,473.1,276.1z"/>
		</g>
	</g>
</g>
<g>
	<g>
		<path class="st0" d="M375.5,160c-0.3,0-0.6-0.1-0.8-0.4L351,131.6c-0.4-0.4-0.3-1.1,0.1-1.4c0.4-0.4,1.1-0.3,1.4,0.1l23.7,28.1
			c0.4,0.4,0.3,1.1-0.1,1.4C376,160,375.7,160,375.5,160z"/>
	</g>
	<g>
		<g>
			<path class="st0" d="M383.3,168.3c-5.3-3-12.6-6-18.3-6.9l9.5-3.5l5-8.8C379.4,154.9,381.2,162.6,383.3,168.3z"/>
		</g>
	</g>
</g>
</svg>
