<?xml version="1.0" encoding="utf-8"?>
<!-- Generator: Adobe Illustrator 19.2.0, SVG Export Plug-In . SVG Version: 6.00 Build 0)  -->
<svg version="1.1" id="Layer_1" xmlns="http://www.w3.org/2000/svg" xmlns:xlink="http://www.w3.org/1999/xlink" x="0px" y="0px"
	 viewBox="0 0 800 440" style="enable-background:new 0 0 800 440;" xml:space="preserve">
<style type="text/css">
	.st0{fill:#FF1732;}
	.st1{fill:#0B743B;}
	.st2{fill:#FFCB8B;}
</style>
<g>
	<rect x="468.3" y="213.1" transform="matrix(0.607 -0.7947 0.7947 0.607 83.8665 602.7856)" width="366.2" height="7"/>
</g>
<g>
	<rect x="428.4" y="63" transform="matrix(0.7678 -0.6407 0.6407 0.7678 -48.4976 330.6093)" width="7" height="338.4"/>
</g>
<g>
	<rect x="259.5" y="377.5" transform="matrix(0.991 -0.1342 0.1342 0.991 -47.5161 57.2021)" width="282" height="7"/>
</g>
<g>
	<rect x="110" y="13" transform="matrix(0.7723 -0.6353 0.6353 0.7723 -57.8875 102.1503)" class="st0" width="7" height="237.7"/>
</g>
<g>
	<rect x="176.9" y="-74.7" transform="matrix(0.213 -0.9771 0.9771 0.213 72.5437 232.2)" width="7" height="291.4"/>
</g>
<g>
	<rect x="438.6" y="13" transform="matrix(0.2843 -0.9587 0.9587 0.2843 184.609 522.2816)" width="7" height="248.9"/>
</g>
<g>
	<rect x="549.3" y="118.5" transform="matrix(0.8916 -0.4528 0.4528 0.8916 16.5005 312.8751)" width="224.9" height="7"/>
</g>
<g>
	<rect x="455.7" y="264" transform="matrix(0.1113 -0.9938 0.9938 0.1113 223.7035 785.1585)" width="190.4" height="7"/>
</g>
<g>
	
		<rect x="222.7" y="282.9" transform="matrix(0.7981 -0.6026 0.6026 0.7981 -89.5769 305.5567)" class="st1" width="376.8" height="7"/>
</g>
<g>
	<rect x="165.6" y="159.4" transform="matrix(0.7402 -0.6724 0.6724 0.7402 -43.0122 214.3829)" width="180.7" height="7"/>
</g>
<g>
	<rect x="50" y="39.2" transform="matrix(0.9944 -0.106 0.106 0.9944 -19.373 6.7233)" width="7" height="292.7"/>
</g>
<g>
	<circle class="st2" cx="38" cy="40" r="31"/>
	<path d="M38,72.1c-17.7,0-32-14.4-32-32S20.4,8,38,8s32,14.4,32,32S55.7,72.1,38,72.1z M38,10C21.5,10,8,23.5,8,40
		c0,16.6,13.5,30,30,30c16.6,0,30-13.5,30-30C68.1,23.5,54.6,10,38,10z"/>
</g>
<g>
	<circle class="st2" cx="189" cy="223.6" r="31"/>
	<path d="M189,255.6c-17.7,0-32-14.4-32-32s14.4-32,32-32s32,14.4,32,32S206.7,255.6,189,255.6z M189,193.6c-16.6,0-30,13.5-30,30
		c0,16.6,13.5,30,30,30c16.6,0,30-13.5,30-30C219.1,207,205.6,193.6,189,193.6z"/>
</g>
<g>
	<circle class="st2" cx="322.8" cy="102.1" r="31"/>
	<path d="M322.8,134.1c-17.7,0-32-14.4-32-32s14.4-32,32-32s32,14.4,32,32S340.4,134.1,322.8,134.1z M322.8,72.1
		c-16.6,0-30,13.5-30,30s13.5,30,30,30c16.6,0,30-13.5,30-30S339.3,72.1,322.8,72.1z"/>
</g>
<g>
	<circle class="st2" cx="540.3" cy="362.1" r="31"/>
	<path d="M540.3,394.2c-17.7,0-32-14.4-32-32s14.4-32,32-32s32,14.4,32,32S557.9,394.2,540.3,394.2z M540.3,332.1
		c-16.6,0-30,13.5-30,30c0,16.6,13.5,30,30,30c16.6,0,30-13.5,30-30C570.3,345.6,556.8,332.1,540.3,332.1z"/>
</g>
<g>
	<circle class="st2" cx="561.5" cy="172.9" r="31"/>
	<path d="M561.5,204.9c-17.7,0-32-14.4-32-32s14.4-32,32-32s32,14.4,32,32S579.1,204.9,561.5,204.9z M561.5,142.8
		c-16.6,0-30,13.5-30,30s13.5,30,30,30c16.6,0,30-13.5,30-30S578,142.8,561.5,142.8z"/>
</g>
<g>
	<circle class="st2" cx="762" cy="71.1" r="31"/>
	<path d="M762,103.1c-17.7,0-32-14.4-32-32s14.4-32,32-32s32,14.4,32,32S779.6,103.1,762,103.1z M762,41c-16.6,0-30,13.5-30,30
		c0,16.6,13.5,30,30,30s30-13.5,30-30C792,54.5,778.5,41,762,41z"/>
</g>
<g>
	<circle class="st2" cx="260.7" cy="400" r="31"/>
	<path d="M260.7,432c-17.7,0-32-14.4-32-32s14.4-32,32-32s32,14.4,32,32S278.4,432,260.7,432z M260.7,369.9c-16.6,0-30,13.5-30,30
		c0,16.6,13.5,30,30,30s30-13.5,30-30C290.7,383.4,277.3,369.9,260.7,369.9z"/>
</g>
<g>
	<circle class="st2" cx="69.1" cy="331.1" r="31"/>
	<path d="M69.1,363.1c-17.7,0-32-14.4-32-32s14.4-32,32-32s32,14.4,32,32S86.7,363.1,69.1,363.1z M69.1,301c-16.6,0-30,13.5-30,30
		s13.5,30,30,30c16.6,0,30-13.5,30-30S85.6,301,69.1,301z"/>
</g>
<g>
	<path d="M46.6,53.2l-2.9-8.1H32.6l-2.9,8.1h-5l10.9-29.3h5.2l10.9,29.3H46.6z M42.4,41l-2.7-7.9c-0.2-0.5-0.5-1.4-0.8-2.5
		c-0.4-1.1-0.6-2-0.7-2.5c-0.4,1.6-0.9,3.4-1.6,5.4L33.9,41H42.4z"/>
</g>
<g>
	<path d="M60.7,315.3h8.7c4,0,6.9,0.6,8.7,1.8c1.8,1.2,2.7,3,2.7,5.5c0,1.7-0.4,3.1-1.3,4.3c-0.9,1.1-2.1,1.8-3.8,2.1v0.2
		c2,0.4,3.6,1.1,4.5,2.3c1,1.1,1.4,2.7,1.4,4.6c0,2.6-0.9,4.7-2.7,6.2c-1.8,1.5-4.4,2.2-7.6,2.2H60.7V315.3z M65.5,327.4h4.6
		c2,0,3.5-0.3,4.4-0.9c0.9-0.6,1.4-1.7,1.4-3.2c0-1.4-0.5-2.4-1.5-3s-2.6-0.9-4.7-0.9h-4.1V327.4z M65.5,331.2v9.2h5.1
		c2,0,3.5-0.4,4.5-1.1c1-0.8,1.5-2,1.5-3.6c0-1.5-0.5-2.6-1.6-3.4c-1-0.7-2.6-1.1-4.7-1.1H65.5z"/>
</g>
<g>
	<path d="M189.7,213.2c-2.7,0-4.9,1-6.5,2.9c-1.6,1.9-2.4,4.6-2.4,8c0,3.6,0.8,6.3,2.3,8.1c1.5,1.8,3.7,2.8,6.6,2.8
		c1.2,0,2.4-0.1,3.6-0.4s2.4-0.6,3.6-0.9v4.1c-2.3,0.9-4.9,1.3-7.8,1.3c-4.3,0-7.6-1.3-9.8-3.9c-2.3-2.6-3.4-6.3-3.4-11.1
		c0-3,0.6-5.7,1.7-8c1.1-2.3,2.7-4,4.8-5.2s4.6-1.8,7.4-1.8c3,0,5.7,0.6,8.3,1.9l-1.7,4c-1-0.5-2-0.9-3.1-1.2
		S190.9,213.2,189.7,213.2z"/>
</g>
<g>
	<path d="M336.1,101.3c0,4.8-1.3,8.5-4,11c-2.7,2.5-6.5,3.8-11.6,3.8h-8.2V87h9c4.6,0,8.3,1.3,10.8,3.8
		C334.8,93.2,336.1,96.8,336.1,101.3z M331,101.5c0-7-3.3-10.5-9.8-10.5h-4.1v21.2h3.4C327.5,112.2,331,108.6,331,101.5z"/>
</g>
<g>
	<path d="M269.7,412.5h-16.5v-29.2h16.5v4H258v7.9h11v4h-11v9.2h11.7V412.5z"/>
</g>
<g>
	<path d="M562.9,170.3h10.7V185c-1.8,0.6-3.4,1-5.1,1.2c-1.6,0.2-3.4,0.4-5.2,0.4c-4.4,0-7.8-1.3-10.2-3.9
		c-2.4-2.6-3.6-6.3-3.6-11.1c0-4.7,1.4-8.4,4.1-11c2.7-2.7,6.4-4,11.2-4c3,0,5.9,0.6,8.7,1.8l-1.7,4c-2.4-1.1-4.7-1.6-7.1-1.6
		c-3.1,0-5.6,1-7.4,2.9s-2.7,4.6-2.7,8c0,3.6,0.8,6.3,2.4,8.1c1.6,1.9,4,2.8,7,2.8c1.5,0,3.2-0.2,5-0.6v-7.5h-6V170.3z"/>
</g>
<g>
	<path d="M538.4,374.5h-4.7v-29.2h16.5v4h-11.7v9.1h11v4.1h-11V374.5z"/>
</g>
<g>
	<path d="M774.1,85.4h-4.8V72.2h-13.5v13.2h-4.8V56.2h4.8v11.9h13.5V56.2h4.8V85.4z"/>
</g>
<g>
	<g>
		<path class="st0" d="M139.8,135.9c-0.3,0-0.6-0.1-0.8-0.4l-23.4-28.4c-0.4-0.4-0.3-1.1,0.1-1.4c0.4-0.4,1.1-0.3,1.4,0.1l23.4,28.4
			c0.4,0.4,0.3,1.1-0.1,1.4C140.2,135.9,140,135.9,139.8,135.9z"/>
	</g>
	<g>
		<g>
			<path class="st0" d="M147.4,144.3c-5.2-3-12.5-6.2-18.2-7.2l9.5-3.4l5.2-8.7C143.8,130.8,145.5,138.5,147.4,144.3z"/>
		</g>
	</g>
</g>
<g>
	<g>
		<path class="st1" d="M358.8,302.1c-0.3,0-0.6-0.1-0.8-0.4c-0.3-0.4-0.2-1.1,0.2-1.4l29.3-22.2c0.4-0.3,1.1-0.2,1.4,0.2
			c0.3,0.4,0.2,1.1-0.2,1.4l-29.3,22.2C359.2,302.1,359,302.1,358.8,302.1z"/>
	</g>
	<g>
		<g>
			<path class="st1" d="M397.7,271.7c-3.3,5.1-6.7,12.2-7.9,17.9l-3-9.7l-8.5-5.5C384.1,274.8,391.9,273.5,397.7,271.7z"/>
		</g>
	</g>
</g>
</svg>
