<?xml version="1.0" encoding="utf-8"?>
<!-- Generator: Adobe Illustrator 19.2.0, SVG Export Plug-In . SVG Version: 6.00 Build 0)  -->
<svg version="1.1" id="Layer_1" xmlns="http://www.w3.org/2000/svg" xmlns:xlink="http://www.w3.org/1999/xlink" x="0px" y="0px"
	 viewBox="0 0 800 440" style="enable-background:new 0 0 800 440;" xml:space="preserve">
<style type="text/css">
	.st0{fill:#FFCB8B;}
	.st1{fill:#FF1732;}
	.st2{fill:#0B743B;}
	.st3{fill:#0D1587;}
	.st4{fill:#FFFFFF;}
</style>
<g>
	<rect x="459.3" y="190" transform="matrix(0.7722 -0.6354 0.6354 0.7722 -77.5986 359.6677)" width="7" height="196.2"/>
</g>
<g>
	<rect x="325.1" y="13.7" transform="matrix(0.7635 -0.6458 0.6458 0.7635 -4.9458 242.5305)" width="7" height="228.7"/>
</g>
<g>
	<rect x="386.5" y="137.8" transform="matrix(0.9252 -0.3796 0.3796 0.9252 -10.7314 228.254)" width="374" height="7"/>
</g>
<g>
	<rect x="547.7" y="96.7" transform="matrix(0.2591 -0.9658 0.9658 0.2591 164.263 719.6355)" width="7" height="312.1"/>
</g>
<g>
	<rect x="368.6" y="134.3" transform="matrix(0.6906 -0.7232 0.7232 0.6906 46.2742 383.7443)" width="206.1" height="7"/>
</g>
<g>
	<rect x="201.4" y="302.3" transform="matrix(0.6388 -0.7694 0.7694 0.6388 -118.6421 358.8651)" width="243" height="7"/>
</g>
<g>
	<rect x="43.7" y="267.6" transform="matrix(0.9463 -0.3233 0.3233 0.9463 -75.4632 87.921)" width="366.5" height="7"/>
</g>
<g>
	<rect x="247.9" y="13.5" transform="matrix(0.2791 -0.9603 0.9603 0.2791 19.3501 363.0162)" width="7" height="310.2"/>
</g>
<g>
	<circle class="st0" cx="102.5" cy="125.3" r="31"/>
	<path d="M102.5,157.4c-17.7,0-32-14.4-32-32s14.4-32,32-32s32,14.4,32,32S120.2,157.4,102.5,157.4z M102.5,95.3
		c-16.6,0-30,13.5-30,30c0,16.6,13.5,30,30,30s30-13.5,30-30C132.5,108.8,119.1,95.3,102.5,95.3z"/>
</g>
<g>
	<circle class="st0" cx="400.4" cy="211.9" r="31"/>
	<path d="M400.4,243.9c-17.7,0-32-14.4-32-32s14.4-32,32-32s32,14.4,32,32S418,243.9,400.4,243.9z M400.4,181.9
		c-16.6,0-30,13.5-30,30c0,16.6,13.5,30,30,30c16.6,0,30-13.5,30-30C430.4,195.3,416.9,181.9,400.4,181.9z"/>
</g>
<g>
	<circle class="st0" cx="254.1" cy="40.7" r="31"/>
	<path d="M254.1,72.8c-17.7,0-32-14.4-32-32s14.4-32,32-32s32,14.4,32,32S271.8,72.8,254.1,72.8z M254.1,10.7c-16.6,0-30,13.5-30,30
		c0,16.6,13.5,30,30,30c16.6,0,30-13.5,30-30C284.2,24.2,270.7,10.7,254.1,10.7z"/>
</g>
<g>
	<circle class="st0" cx="524.7" cy="361.4" r="31"/>
	<path d="M524.7,393.5c-17.7,0-32-14.4-32-32s14.4-32,32-32s32,14.4,32,32S542.4,393.5,524.7,393.5z M524.7,331.4
		c-16.6,0-30,13.5-30,30c0,16.6,13.5,30,30,30s30-13.5,30-30C554.8,344.9,541.3,331.4,524.7,331.4z"/>
</g>
<g>
	<circle class="st0" cx="701.9" cy="293.2" r="31"/>
	<path d="M701.9,325.2c-17.7,0-32-14.4-32-32s14.4-32,32-32s32,14.4,32,32S719.6,325.2,701.9,325.2z M701.9,263.2
		c-16.6,0-30,13.5-30,30c0,16.6,13.5,30,30,30s30-13.5,30-30C732,276.6,718.5,263.2,701.9,263.2z"/>
</g>
<g>
	<circle class="st0" cx="746.5" cy="70.4" r="31"/>
	<path d="M746.5,102.4c-17.7,0-32-14.4-32-32s14.4-32,32-32s32,14.4,32,32S764.1,102.4,746.5,102.4z M746.5,40.3
		c-16.6,0-30,13.5-30,30s13.5,30,30,30s30-13.5,30-30S763,40.3,746.5,40.3z"/>
</g>
<g>
	<circle class="st0" cx="245.2" cy="399.3" r="31"/>
	<path d="M245.2,431.3c-17.7,0-32-14.4-32-32c0-17.7,14.4-32,32-32s32,14.4,32,32C277.2,416.9,262.9,431.3,245.2,431.3z
		 M245.2,369.2c-16.6,0-30,13.5-30,30s13.5,30,30,30s30-13.5,30-30S261.8,369.2,245.2,369.2z"/>
</g>
<g>
	<circle class="st0" cx="53.5" cy="330.4" r="31"/>
	<path d="M53.5,362.4c-17.7,0-32-14.4-32-32s14.4-32,32-32s32,14.4,32,32S71.2,362.4,53.5,362.4z M53.5,300.4c-16.6,0-30,13.5-30,30
		c0,16.6,13.5,30,30,30c16.6,0,30-13.5,30-30C83.6,313.8,70.1,300.4,53.5,300.4z"/>
</g>
<g>
	<path d="M111.1,138.5l-2.9-8.1H97l-2.9,8.1h-5l10.9-29.3h5.2l10.9,29.3H111.1z M106.9,126.3l-2.7-7.9c-0.2-0.5-0.5-1.4-0.8-2.5
		c-0.4-1.1-0.6-2-0.7-2.5c-0.4,1.6-0.9,3.4-1.6,5.4l-2.6,7.6H106.9z"/>
</g>
<g>
	<path d="M45.2,314.6h8.7c4,0,6.9,0.6,8.7,1.8c1.8,1.2,2.7,3,2.7,5.5c0,1.7-0.4,3.1-1.3,4.3c-0.9,1.1-2.1,1.8-3.8,2.1v0.2
		c2,0.4,3.6,1.1,4.5,2.3c1,1.1,1.4,2.7,1.4,4.6c0,2.6-0.9,4.7-2.7,6.2c-1.8,1.5-4.4,2.2-7.6,2.2H45.2V314.6z M50,326.7h4.6
		c2,0,3.5-0.3,4.4-0.9c0.9-0.6,1.4-1.7,1.4-3.2c0-1.4-0.5-2.4-1.5-3s-2.6-0.9-4.7-0.9H50V326.7z M50,330.5v9.2H55
		c2,0,3.5-0.4,4.5-1.1c1-0.8,1.5-2,1.5-3.6c0-1.5-0.5-2.6-1.6-3.4c-1-0.7-2.6-1.1-4.7-1.1H50z"/>
</g>
<g>
	<path d="M387.3,297.4h-4.8v-13.2H369v13.2h-4.8v-29.2h4.8v11.9h13.5v-11.9h4.8V297.4z"/>
	<path d="M410,297.4l-0.7-2.9h-0.2c-0.7,1-1.6,1.8-2.8,2.4s-2.6,0.9-4.1,0.9c-2.7,0-4.7-0.7-6-2s-2-3.3-2-6v-14.4h4.7v13.6
		c0,1.7,0.3,3,1,3.8c0.7,0.8,1.8,1.3,3.3,1.3c2,0,3.4-0.6,4.3-1.8c0.9-1.2,1.4-3.2,1.4-5.9v-11h4.7v22.1H410z"/>
	<path d="M431.7,274.9c2.8,0,4.9,1,6.4,3c1.5,2,2.3,4.8,2.3,8.4c0,3.6-0.8,6.4-2.3,8.5c-1.6,2-3.7,3-6.5,3c-2.8,0-5-1-6.5-3h-0.3
		l-0.9,2.6h-3.5v-31.1h4.7v7.4c0,0.5,0,1.4-0.1,2.4c-0.1,1.1-0.1,1.8-0.1,2.1h0.2C426.6,276,428.8,274.9,431.7,274.9z M430.5,278.7
		c-1.9,0-3.3,0.6-4.1,1.7s-1.3,3-1.3,5.6v0.3c0,2.7,0.4,4.6,1.3,5.8c0.9,1.2,2.2,1.8,4.2,1.8c1.7,0,2.9-0.7,3.8-2
		c0.9-1.3,1.3-3.2,1.3-5.7C435.6,281.2,433.9,278.7,430.5,278.7z"/>
</g>
<g>
	<path d="M267.4,39.9c0,4.8-1.3,8.5-4,11c-2.7,2.5-6.5,3.8-11.6,3.8h-8.2V25.6h9c4.6,0,8.3,1.3,10.8,3.8
		C266.1,31.9,267.4,35.4,267.4,39.9z M262.4,40.1c0-7-3.3-10.5-9.8-10.5h-4.1v21.2h3.4C258.8,50.8,262.4,47.2,262.4,40.1z"/>
</g>
<g>
	<path d="M254.2,411.8h-16.5v-29.2h16.5v4h-11.7v7.9h11v4h-11v9.2h11.7V411.8z"/>
</g>
<g>
	<path d="M703.4,290.6h10.7v14.6c-1.8,0.6-3.4,1-5.1,1.2c-1.6,0.2-3.4,0.4-5.2,0.4c-4.4,0-7.8-1.3-10.2-3.9
		c-2.4-2.6-3.6-6.3-3.6-11.1c0-4.7,1.4-8.4,4.1-11c2.7-2.7,6.4-4,11.2-4c3,0,5.9,0.6,8.7,1.8l-1.7,4c-2.4-1.1-4.7-1.6-7.1-1.6
		c-3.1,0-5.6,1-7.4,2.9s-2.7,4.6-2.7,8c0,3.6,0.8,6.3,2.4,8.1c1.6,1.9,4,2.8,7,2.8c1.5,0,3.2-0.2,5-0.6v-7.5h-6V290.6z"/>
</g>
<g>
	<path d="M522.8,373.8h-4.7v-29.2h16.5v4h-11.7v9.1h11v4.1h-11V373.8z"/>
</g>
<g>
	<path d="M758.6,84.7h-4.8V71.5h-13.5v13.2h-4.8V55.5h4.8v11.9h13.5V55.5h4.8V84.7z"/>
</g>
<g>
	<circle class="st0" cx="542.1" cy="63.3" r="31"/>
	<path d="M542.1,95.3c-17.7,0-32-14.4-32-32s14.4-32,32-32s32,14.4,32,32S559.8,95.3,542.1,95.3z M542.1,33.2c-16.6,0-30,13.5-30,30
		c0,16.6,13.5,30,30,30s30-13.5,30-30C572.2,46.7,558.7,33.2,542.1,33.2z"/>
</g>
<g>
	<path d="M540.4,77.3V48.2h4.8v29.2H540.4z"/>
</g>
<g>
	<g>
		<path class="st1" d="M371.7,222.4l-0.7-1.9c0.9-0.3,1.9-0.7,2.7-1.1l0.8,1.8C373.6,221.7,372.7,222.1,371.7,222.4z"/>
	</g>
	<g>
		<path class="st1" d="M379.4,218.7l-1.1-1.7c1.5-1,2.9-2,4-3.2l1.4,1.4C382.5,216.5,381,217.7,379.4,218.7z M387.1,210.8l-1.8-0.9
			c0.8-1.5,1.3-3.1,1.5-4.7l2,0.2C388.6,207.2,388,209.1,387.1,210.8z"/>
	</g>
	<g>
		<path class="st1" d="M386.4,200.2c-0.2-0.9-0.6-1.8-1-2.6l1.8-0.9c0.5,1,0.9,2,1.2,3L386.4,200.2z"/>
	</g>
	<g>
		<g>
			<path class="st1" d="M381.8,191.5c3.1,2,7.3,4,10.7,4.8l-5.8,1.8l-3.3,5.1C383.6,199.7,382.8,195,381.8,191.5z"/>
		</g>
	</g>
</g>
<g>
	<g>
		<path class="st1" d="M112.5,293.6c-0.4,0-0.8-0.3-0.9-0.7c-0.2-0.5,0.1-1.1,0.6-1.3l34.8-11.9c0.5-0.2,1.1,0.1,1.3,0.6
			s-0.1,1.1-0.6,1.3l-34.8,11.9C112.7,293.6,112.6,293.6,112.5,293.6z"/>
	</g>
	<g>
		<g>
			<path class="st1" d="M158.7,276.8c-4.7,3.8-10.2,9.5-13.1,14.5l0.2-10.1l-6.3-7.9C144.8,275.6,152.7,276.7,158.7,276.8z"/>
		</g>
	</g>
</g>
<g>
	<g>
		<path class="st2" d="M171.9,308.2c-0.4,0-0.8-0.3-0.9-0.7c-0.2-0.5,0.1-1.1,0.6-1.3l34.8-11.9c0.5-0.2,1.1,0.1,1.3,0.6
			s-0.1,1.1-0.6,1.3l-34.8,11.9C172.1,308.2,172,308.2,171.9,308.2z"/>
	</g>
	<g>
		<g>
			<path class="st2" d="M218.1,291.5c-4.7,3.8-10.2,9.5-13.1,14.5l0.2-10.1l-6.3-7.9C204.2,290.2,212,291.3,218.1,291.5z"/>
		</g>
	</g>
</g>
<g>
	<g>
		<path class="st3" d="M195.6,265.2c-0.4,0-0.8-0.3-0.9-0.7c-0.2-0.5,0.1-1.1,0.6-1.3l34.8-11.9c0.5-0.2,1.1,0.1,1.3,0.6
			c0.2,0.5-0.1,1.1-0.6,1.3l-34.8,11.9C195.8,265.2,195.7,265.2,195.6,265.2z"/>
	</g>
	<g>
		<g>
			<path class="st3" d="M241.8,248.5c-4.7,3.8-10.2,9.5-13.1,14.5l0.2-10.1l-6.3-7.9C227.9,247.2,235.8,248.3,241.8,248.5z"/>
		</g>
	</g>
</g>
<g>
	<g>
		<rect x="371.2" y="220" transform="matrix(0.9396 -0.3423 0.3423 0.9396 -53.1299 140.9541)" class="st3" width="3" height="2"/>
	</g>
	<g>
		<path class="st3" d="M380.6,219.2l-0.7-1.9l6.1-2.3l0.7,1.9L380.6,219.2z M392.8,214.6l-0.7-1.9c2.1-0.8,4.1-1.5,6.1-2.3l0.7,1.9
			C396.9,213.1,394.9,213.9,392.8,214.6z M405,210.2l-0.7-1.9c2.1-0.8,4.1-1.5,6.1-2.2l0.7,1.9C409.1,208.7,407.1,209.4,405,210.2z"
			/>
	</g>
	<g>
		<path class="st3" d="M417.3,205.8l-0.6-1.9c1-0.3,1.9-0.7,2.8-1l0.6,1.9C419.2,205.2,418.2,205.5,417.3,205.8z"/>
	</g>
	<g>
		<g>
			<path class="st3" d="M426.7,201.7c-2.8,2.3-6.2,5.7-7.9,8.7l0.2-6.1l-3.8-4.8C418.3,200.8,423,201.5,426.7,201.7z"/>
		</g>
	</g>
</g>
<g>
	<g>
		<path class="st2" d="M371.7,222.4l-0.7-1.9c1-0.4,1.9-0.7,2.9-1l0.6,1.9C373.6,221.8,372.6,222.1,371.7,222.4z"/>
	</g>
	<g>
		<path class="st2" d="M405,223.7c-1.5-0.8-3.1-1.6-4.8-2.2l0.7-1.9c1.7,0.6,3.4,1.4,5,2.3L405,223.7z M379.6,220.2l-0.4-2
			c1.8-0.4,3.7-0.6,5.4-0.7l0.1,2C383.1,219.6,381.3,219.9,379.6,220.2z M395.2,220.1c-1.7-0.3-3.4-0.6-5.2-0.7l0.1-2
			c1.8,0.1,3.7,0.3,5.5,0.7L395.2,220.1z"/>
	</g>
	<g>
		<path class="st2" d="M411.7,228.4c-0.7-0.6-1.5-1.3-2.3-1.8l1.2-1.6c0.8,0.6,1.6,1.3,2.4,1.9L411.7,228.4z"/>
	</g>
	<g>
		<g>
			<path class="st2" d="M417.4,232.8c-3.3-1.5-7.8-3-11.3-3.2l5.5-2.6l2.6-5.5C414.4,225,415.9,229.5,417.4,232.8z"/>
		</g>
	</g>
</g>
<g>
	<g>
		<path class="st1" d="M379.8,162.3c-0.3,0-0.6-0.1-0.8-0.4l-23.4-28.4c-0.4-0.4-0.3-1.1,0.1-1.4s1.1-0.3,1.4,0.1l23.4,28.4
			c0.4,0.4,0.3,1.1-0.1,1.4C380.3,162.2,380,162.3,379.8,162.3z"/>
	</g>
	<g>
		<g>
			<path class="st1" d="M348.8,123.6c5.2,3,12.5,6.2,18.2,7.2l-9.5,3.4l-5.2,8.7C352.5,137.1,350.8,129.3,348.8,123.6z"/>
		</g>
	</g>
</g>
<g>
	<g>
		<path class="st3" d="M489.1,195.8c-0.4,0-0.8-0.2-0.9-0.6c-0.2-0.5,0-1.1,0.5-1.3l34-14c0.5-0.2,1.1,0,1.3,0.5
			c0.2,0.5,0,1.1-0.5,1.3l-34,14C489.3,195.8,489.2,195.8,489.1,195.8z"/>
	</g>
	<g>
		<g>
			<path class="st3" d="M534.3,176.2c-4.5,4.1-9.6,10.1-12.2,15.3l-0.4-10.1l-6.8-7.5C520.3,175.8,528.2,176.5,534.3,176.2z"/>
		</g>
	</g>
</g>
<g>
	<g>
		<path class="st2" d="M483.3,281.5c-0.3,0-0.6-0.1-0.8-0.4l-23.4-28.4c-0.4-0.4-0.3-1.1,0.1-1.4c0.4-0.4,1.1-0.3,1.4,0.1l23.4,28.4
			c0.4,0.4,0.3,1.1-0.1,1.4C483.8,281.4,483.6,281.5,483.3,281.5z"/>
	</g>
	<g>
		<g>
			<path class="st2" d="M491,289.8c-5.2-3-12.5-6.2-18.2-7.2l9.5-3.4l5.2-8.7C487.3,276.4,489,284.1,491,289.8z"/>
		</g>
	</g>
</g>
<g>
	<g>
		
			<rect x="112.2" y="278.8" transform="matrix(0.9463 -0.3233 0.3233 0.9463 -84.9022 53.5461)" class="st4" width="13" height="7.1"/>
		<path class="st1" d="M113.4,288.4l-2.6-7.6l13.3-4.5l2.6,7.6L113.4,288.4z M112.1,281.4l2,5.7l11.4-3.9l-2-5.7L112.1,281.4z"/>
	</g>
	<g>
		<polygon class="st1" points="118.8,282.6 111.4,281.4 111.5,280.9 118.6,282.1 123.6,276.7 123.9,277.1 		"/>
	</g>
</g>
<g>
	<g>
		
			<rect x="177.2" y="307.8" transform="matrix(0.9463 -0.3233 0.3233 0.9463 -90.7871 76.1171)" class="st4" width="13" height="7.1"/>
		<path class="st2" d="M178.4,317.4l-2.6-7.6l13.3-4.5l2.6,7.6L178.4,317.4z M177.1,310.4l2,5.7l11.4-3.9l-2-5.7L177.1,310.4z"/>
	</g>
	<g>
		<polygon class="st2" points="183.8,311.6 176.4,310.4 176.5,309.9 183.6,311.1 188.6,305.7 188.9,306.1 		"/>
	</g>
</g>
<g>
	<g>
		
			<rect x="194.2" y="250.8" transform="matrix(0.9463 -0.3233 0.3233 0.9463 -71.4469 78.5521)" class="st4" width="13" height="7.1"/>
		<path class="st3" d="M195.4,260.4l-2.6-7.6l13.3-4.5l2.6,7.6L195.4,260.4z M194.1,253.4l2,5.7l11.4-3.9l-2-5.7L194.1,253.4z"/>
	</g>
	<g>
		<polygon class="st3" points="200.8,254.6 193.4,253.4 193.5,252.9 200.6,254.1 205.6,248.7 205.9,249.1 		"/>
	</g>
</g>
<g>
	<g>
		
			<rect x="494.2" y="194.8" transform="matrix(0.9227 -0.3856 0.3856 0.9227 -37.7577 208.4147)" class="st4" width="13" height="7.1"/>
		<path class="st3" d="M495.8,204.8l-3.1-7.4l12.9-5.4l3.1,7.4L495.8,204.8z M494,197.9l2.3,5.6l11.1-4.6l-2.3-5.6L494,197.9z"/>
	</g>
	<g>
		<polygon class="st3" points="500.8,198.6 493.3,197.8 493.4,197.3 500.6,198.1 505.2,192.4 505.6,192.7 		"/>
	</g>
</g>
<g>
	<g>
		
			<rect x="467.2" y="251.8" transform="matrix(0.6445 0.7646 -0.7646 0.6445 363.6299 -271.439)" class="st4" width="13" height="7.1"/>
		<path class="st2" d="M475.2,263.3l-9-10.7l6.2-5.2l9,10.7L475.2,263.3z M467.5,252.7l7.7,9.2l4.6-3.9l-7.7-9.2L467.5,252.7z"/>
	</g>
	<g>
		<polygon class="st2" points="480.5,258.3 473.5,255.5 472,248.1 472.5,248 473.9,255.2 480.7,257.8 		"/>
	</g>
</g>
<g>
	<g>
		
			<rect x="375.2" y="142.8" transform="matrix(0.6582 0.7529 -0.7529 0.6582 240.6563 -237.3665)" class="st4" width="13" height="7.1"/>
		<path class="st1" d="M383.3,154.3l-9.2-10.5l6.1-5.3l9.2,10.5L383.3,154.3z M375.5,143.8l7.9,9l4.6-4l-7.9-9L375.5,143.8z"/>
	</g>
	<g>
		<polygon class="st1" points="388.6,149.2 381.5,146.5 379.9,139.2 380.4,139.1 381.9,146.2 388.8,148.7 		"/>
	</g>
</g>
<g>
	<g>
		
			<rect x="389.4" y="201" transform="matrix(-4.573094e-003 1 -1 -4.573094e-003 597.6707 -189.1774)" class="st4" width="7.1" height="3.9"/>
		<path class="st1" d="M395.1,206.6l-4.3,0l0-7.5l4.3,0L395.1,206.6z M391.2,206.2l3.5,0l0-6.7l-3.5,0L391.2,206.2z"/>
	</g>
	<g>
		<polygon class="st1" points="394.8,206.5 392.9,202.9 394.8,199.3 395,199.4 393.1,202.9 395,206.4 		"/>
	</g>
</g>
<g>
	<g>
		
			<rect x="404.1" y="211.9" transform="matrix(0.9305 -0.3663 0.3663 0.9305 -49.9764 164.1216)" class="st4" width="6.8" height="3.7"/>
		<path class="st3" d="M404.9,217l-1.5-3.8l6.7-2.7l1.5,3.8L404.9,217z M403.9,213.4l1.2,3.1l6-2.4l-1.2-3.1L403.9,213.4z"/>
	</g>
	<g>
		<polygon class="st3" points="407.5,213.9 407.5,213.9 403.6,213.4 403.7,213.2 407.5,213.7 409.9,210.7 410.1,210.8 		"/>
	</g>
</g>
<g>
	<g>
		
			<rect x="393.8" y="222.9" transform="matrix(0.9654 0.2609 -0.2609 0.9654 72.4293 -95.8966)" class="st4" width="7.2" height="3.9"/>
		<path class="st2" d="M400.5,227.9l-7.4-2l1.1-4.2l7.4,2L400.5,227.9z M393.6,225.6l6.6,1.8l0.9-3.4l-6.6-1.8L393.6,225.6z"/>
	</g>
	<g>
		<polygon class="st2" points="397.3,224.9 397.3,224.9 394.3,222.1 394.5,221.9 397.4,224.7 401.3,223.8 401.4,224 		"/>
	</g>
</g>
</svg>
