<?xml version="1.0" encoding="utf-8"?>
<!-- Generator: Adobe Illustrator 19.2.0, SVG Export Plug-In . SVG Version: 6.00 Build 0)  -->
<svg version="1.1" id="Layer_1" xmlns="http://www.w3.org/2000/svg" xmlns:xlink="http://www.w3.org/1999/xlink" x="0px" y="0px"
	 viewBox="0 0 800 400" style="enable-background:new 0 0 800 400;" xml:space="preserve">
<style type="text/css">
	.st0{fill:#FF1732;}
	.st1{fill:#0D1587;}
	.st2{fill:#FFFFFF;}
	.st3{opacity:0.15;}
</style>
<g>
	<path d="M43.3,50.8l-3.4-9.5h-13l-3.3,9.5h-5.9l12.8-34.2h6.1l12.8,34.2H43.3z M38.5,36.5l-3.2-9.3c-0.2-0.6-0.6-1.6-1-2.9
		c-0.4-1.3-0.7-2.3-0.9-2.9c-0.4,1.9-1,4-1.8,6.3l-3.1,8.9H38.5z"/>
	<path d="M58.6,50.8h-5.5V14.5h5.5V50.8z"/>
	<path d="M66.1,18.2c0-1,0.3-1.7,0.8-2.3s1.3-0.8,2.3-0.8c1,0,1.7,0.3,2.2,0.8s0.8,1.3,0.8,2.3c0,0.9-0.3,1.7-0.8,2.2
		s-1.3,0.8-2.2,0.8c-1,0-1.8-0.3-2.3-0.8S66.1,19.1,66.1,18.2z M71.9,50.8h-5.5V25h5.5V50.8z"/>
	<path d="M90.2,51.3c-3.9,0-6.9-1.1-8.9-3.4c-2-2.3-3-5.5-3-9.8c0-4.3,1.1-7.7,3.2-10s5.2-3.5,9.2-3.5c2.7,0,5.2,0.5,7.3,1.5
		l-1.7,4.4c-2.3-0.9-4.2-1.4-5.7-1.4c-4.5,0-6.7,3-6.7,8.9c0,2.9,0.6,5.1,1.7,6.5c1.1,1.5,2.7,2.2,4.9,2.2c2.4,0,4.7-0.6,6.9-1.8
		v4.8c-1,0.6-2,1-3.1,1.2C93.1,51.2,91.8,51.3,90.2,51.3z"/>
	<path d="M114.7,51.3c-4,0-7.1-1.2-9.4-3.5c-2.3-2.3-3.4-5.6-3.4-9.7c0-4.2,1-7.5,3.1-9.9c2.1-2.4,5-3.6,8.6-3.6
		c3.4,0,6.1,1,8.1,3.1c2,2.1,3,4.9,3,8.5v3h-17.2c0.1,2.5,0.8,4.4,2,5.8c1.3,1.3,3.1,2,5.4,2c1.5,0,2.9-0.1,4.3-0.4
		c1.3-0.3,2.7-0.8,4.2-1.4v4.5c-1.3,0.6-2.7,1.1-4.1,1.4C118,51.1,116.4,51.3,114.7,51.3z M113.7,28.7c-1.7,0-3.1,0.6-4.2,1.7
		c-1,1.1-1.7,2.7-1.9,4.8h11.7c0-2.1-0.5-3.7-1.5-4.8C116.8,29.3,115.4,28.7,113.7,28.7z"/>
</g>
<g>
	<path d="M696.4,16.7h10.1c4.7,0,8.1,0.7,10.2,2.1c2.1,1.4,3.1,3.5,3.1,6.5c0,2-0.5,3.6-1.5,5c-1,1.3-2.5,2.2-4.4,2.5V33
		c2.4,0.5,4.2,1.3,5.3,2.7c1.1,1.3,1.7,3.1,1.7,5.4c0,3.1-1.1,5.5-3.2,7.2s-5.1,2.6-8.9,2.6h-12.3V16.7z M702,30.8h5.4
		c2.3,0,4-0.4,5.1-1.1c1.1-0.7,1.6-2,1.6-3.8c0-1.6-0.6-2.8-1.7-3.5c-1.2-0.7-3-1.1-5.5-1.1H702V30.8z M702,35.3v10.8h5.9
		c2.3,0,4.1-0.4,5.3-1.3c1.2-0.9,1.8-2.3,1.8-4.2c0-1.8-0.6-3.1-1.8-3.9c-1.2-0.9-3.1-1.3-5.5-1.3H702z"/>
	<path d="M750.2,37.9c0,4.2-1.1,7.5-3.2,9.9c-2.2,2.4-5.2,3.5-9,3.5c-2.4,0-4.5-0.5-6.4-1.6c-1.8-1.1-3.3-2.6-4.3-4.7
		c-1-2-1.5-4.4-1.5-7.1c0-4.2,1.1-7.4,3.2-9.8c2.1-2.3,5.2-3.5,9.1-3.5c3.7,0,6.7,1.2,8.9,3.6C749.1,30.6,750.2,33.8,750.2,37.9z
		 M731.4,37.9c0,6,2.2,8.9,6.6,8.9c4.4,0,6.5-3,6.5-8.9c0-5.9-2.2-8.8-6.6-8.8c-2.3,0-4,0.8-5,2.3C731.9,32.8,731.4,35,731.4,37.9z"
		/>
	<path d="M769.7,24.6c3.2,0,5.7,1.2,7.5,3.5s2.7,5.6,2.7,9.8c0,4.2-0.9,7.5-2.7,9.9c-1.8,2.4-4.3,3.5-7.6,3.5
		c-3.3,0-5.8-1.2-7.6-3.5h-0.4l-1,3.1h-4.1V14.5h5.5v8.6c0,0.6,0,1.6-0.1,2.8c-0.1,1.3-0.1,2.1-0.1,2.4h0.2
		C763.7,25.8,766.3,24.6,769.7,24.6z M768.2,29c-2.2,0-3.8,0.6-4.8,1.9c-1,1.3-1.5,3.5-1.5,6.5v0.4c0,3.1,0.5,5.4,1.5,6.8
		c1,1.4,2.6,2.1,4.9,2.1c1.9,0,3.4-0.8,4.4-2.3c1-1.5,1.5-3.8,1.5-6.7C774.3,32,772.2,29,768.2,29z"/>
</g>
<g>
	<g>
		<path class="st0" d="M71.2,130.2c-0.8,0-1.5-0.7-1.5-1.5c0-0.8,0.7-1.5,1.5-1.5l262.2-0.1h0c0.8,0,1.5,0.7,1.5,1.5
			c0,0.8-0.7,1.5-1.5,1.5L71.2,130.2z"/>
	</g>
	<g>
		<g>
			<path class="st0" d="M351.5,128.6c-8.5,3.2-19.1,8.6-25.6,14.3l5.2-14.3l-5.2-14.3C332.4,120,343,125.4,351.5,128.6z"/>
		</g>
	</g>
</g>
<g>
	<g>
		<path class="st1" d="M736.6,185.6L736.6,185.6l-262.2,0c-0.8,0-1.5-0.7-1.5-1.5c0-0.8,0.7-1.5,1.5-1.5l0,0l262.2,0
			c0.8,0,1.5,0.7,1.5,1.5C738.1,184.9,737.4,185.6,736.6,185.6z"/>
	</g>
	<g>
		<g>
			<path class="st1" d="M456.3,184.1c8.5-3.2,19.1-8.6,25.6-14.3l-5.2,14.3l5.2,14.3C475.4,192.6,464.8,187.2,456.3,184.1z"/>
		</g>
	</g>
</g>
<g>
	<g>
		
			<rect x="88.5" y="86" transform="matrix(1 -5.072367e-003 5.072367e-003 1 -0.5107 0.5905)" class="st2" width="55.3" height="30"/>
		<path class="st0" d="M87.1,117.6l-0.2-33l58.3-0.3l0.2,33L87.1,117.6z M89.9,87.6l0.1,27l52.3-0.3l-0.1-27L89.9,87.6z"/>
	</g>
	<g>
		<polygon class="st0" points="116.2,102.1 87.9,87 88.9,85.2 116.1,99.8 143.3,84.9 144.2,86.7 		"/>
	</g>
</g>
<g>
	<path d="M181.1,80.9c0.9,0.6,2.3,1.1,3.7,1.1c2.1,0,3.4-1.1,3.4-2.8c0-1.5-0.9-2.4-3-3.2c-2.6-0.9-4.3-2.3-4.3-4.6
		c0-2.5,2.1-4.4,5.2-4.4c1.7,0,2.9,0.4,3.6,0.8l-0.6,1.7c-0.5-0.3-1.6-0.8-3.1-0.8c-2.2,0-3,1.3-3,2.4c0,1.5,1,2.3,3.2,3.1
		c2.7,1.1,4.1,2.4,4.1,4.8c0,2.5-1.8,4.7-5.7,4.7c-1.6,0-3.3-0.5-4.1-1L181.1,80.9z"/>
	<path d="M201.6,75.9h-6.3v5.8h7v1.8h-9.1V67.3h8.7V69h-6.6v5.1h6.3V75.9z"/>
	<path d="M218.4,85.8c-2.2-0.6-4.3-1.2-6.2-1.9c-0.3-0.1-0.7-0.2-1-0.2c-3.8-0.1-7.1-3-7.1-8.2c0-5.2,3.2-8.5,7.5-8.5
		c4.4,0,7.2,3.4,7.2,8.2c0,4.2-1.9,6.8-4.6,7.8v0.1c1.6,0.4,3.4,0.8,4.7,1L218.4,85.8z M216.7,75.3c0-3.2-1.7-6.6-5.1-6.6
		c-3.5,0-5.3,3.3-5.2,6.8c0,3.4,1.9,6.5,5.1,6.5C214.8,82,216.7,79,216.7,75.3z"/>
	<path d="M221,73.8c0-0.9,0.6-1.5,1.4-1.5c0.8,0,1.4,0.6,1.4,1.5c0,0.8-0.6,1.5-1.4,1.5C221.6,75.3,221,74.6,221,73.8z M221,82.2
		c0-0.9,0.6-1.5,1.4-1.5c0.8,0,1.4,0.6,1.4,1.5c0,0.8-0.6,1.5-1.4,1.5C221.6,83.7,221,83.1,221,82.2z"/>
	<path d="M240.6,69.8L240.6,69.8l-2.8,1.5l-0.4-1.6l3.4-1.8h1.8v15.6h-2V69.8z"/>
	<path d="M257.2,69.4c-0.4,0-1,0-1.6,0.1c-3.3,0.6-5.1,3-5.4,5.5h0.1c0.7-1,2-1.8,3.8-1.8c2.8,0,4.7,2,4.7,5c0,2.9-1.9,5.5-5.2,5.5
		c-3.3,0-5.5-2.6-5.5-6.6c0-3.1,1.1-5.5,2.6-7c1.3-1.3,3-2.1,5-2.3c0.6-0.1,1.2-0.1,1.5-0.1V69.4z M256.6,78.4
		c0-2.2-1.3-3.6-3.2-3.6c-1.3,0-2.4,0.8-3,1.9c-0.1,0.2-0.2,0.6-0.2,0.9c0,2.6,1.2,4.5,3.4,4.5C255.4,82.1,256.6,80.6,256.6,78.4z"
		/>
	<path d="M267.1,83.5v-4.2h-7.2v-1.4l7-10h2.3v9.7h2.2v1.7h-2.2v4.2H267.1z M267.1,77.6v-5.2c0-0.8,0-1.6,0.1-2.4h-0.1
		c-0.5,0.9-0.9,1.6-1.3,2.3l-3.8,5.3v0H267.1z"/>
	<path d="M184,107.2l-1.7,5.1h-2.2l5.5-16.2h2.5l5.5,16.2h-2.2l-1.7-5.1H184z M189.3,105.5l-1.6-4.7c-0.4-1.1-0.6-2-0.8-3h0
		c-0.2,1-0.5,1.9-0.8,2.9l-1.6,4.7H189.3z"/>
	<path d="M207,111.7c-0.8,0.4-2.3,0.8-4.3,0.8c-4.6,0-8-2.9-8-8.2c0-5.1,3.4-8.5,8.4-8.5c2,0,3.3,0.4,3.8,0.7l-0.5,1.7
		c-0.8-0.4-1.9-0.7-3.3-0.7c-3.8,0-6.3,2.4-6.3,6.7c0,4,2.3,6.5,6.2,6.5c1.3,0,2.6-0.3,3.4-0.7L207,111.7z"/>
	<path d="M209.6,96.1h2.1v7.8h0.1c0.4-0.6,0.9-1.2,1.3-1.7l4.9-6.1h2.6l-5.9,6.9l6.3,9.3h-2.5l-5.3-7.9l-1.5,1.8v6.2h-2.1V96.1z"/>
	<path d="M222.6,102.6c0-0.9,0.6-1.5,1.4-1.5c0.8,0,1.4,0.6,1.4,1.5c0,0.8-0.6,1.5-1.4,1.5C223.2,104.1,222.6,103.4,222.6,102.6z
		 M222.6,111c0-0.9,0.6-1.5,1.4-1.5c0.8,0,1.4,0.6,1.4,1.5c0,0.8-0.6,1.5-1.4,1.5C223.2,112.5,222.6,111.9,222.6,111z"/>
	<path d="M237.6,112.3V111l1.7-1.6c4-3.8,5.8-5.8,5.8-8.2c0-1.6-0.8-3-3.1-3c-1.4,0-2.6,0.7-3.3,1.3L238,98c1.1-0.9,2.6-1.6,4.4-1.6
		c3.4,0,4.8,2.3,4.8,4.5c0,2.9-2.1,5.2-5.4,8.4l-1.2,1.2v0h7v1.8H237.6z"/>
	<path d="M259.2,98.4h-6l-0.6,4c0.4,0,0.7-0.1,1.3-0.1c1.2,0,2.4,0.3,3.4,0.8c1.2,0.7,2.2,2,2.2,4c0,3-2.4,5.3-5.8,5.3
		c-1.7,0-3.1-0.5-3.9-1l0.5-1.6c0.6,0.4,1.9,0.9,3.3,0.9c2,0,3.7-1.3,3.7-3.4c0-2-1.4-3.5-4.5-3.5c-0.9,0-1.6,0.1-2.2,0.2l1-7.5h7.5
		V98.4z"/>
</g>
<g>
	<g>
		
			<rect x="660.8" y="140.9" transform="matrix(1 -5.072367e-003 5.072367e-003 1 -0.7817 3.494)" class="st2" width="55.3" height="30"/>
		<path class="st1" d="M659.4,172.5l-0.2-33l58.3-0.3l0.2,33L659.4,172.5z M662.2,142.5l0.1,27l52.3-0.3l-0.1-27L662.2,142.5z"/>
	</g>
	<g>
		<polygon class="st1" points="688.4,157 660.2,141.9 661.2,140.1 688.4,154.7 715.5,139.8 716.5,141.6 		"/>
	</g>
</g>
<g>
	<path d="M527.2,134.9c0.9,0.6,2.3,1.1,3.7,1.1c2.1,0,3.4-1.1,3.4-2.8c0-1.5-0.9-2.4-3-3.2c-2.6-0.9-4.3-2.3-4.3-4.6
		c0-2.5,2.1-4.4,5.2-4.4c1.7,0,2.9,0.4,3.6,0.8l-0.6,1.7c-0.5-0.3-1.6-0.8-3.1-0.8c-2.2,0-3,1.3-3,2.4c0,1.5,1,2.3,3.2,3.1
		c2.7,1.1,4.1,2.4,4.1,4.8c0,2.5-1.8,4.7-5.7,4.7c-1.6,0-3.3-0.5-4.1-1L527.2,134.9z"/>
	<path d="M547.7,129.9h-6.3v5.8h7v1.8h-9.1v-16.2h8.7v1.8h-6.6v5.1h6.3V129.9z"/>
	<path d="M564.5,139.8c-2.2-0.6-4.3-1.2-6.2-1.9c-0.3-0.1-0.7-0.2-1-0.2c-3.8-0.1-7.1-3-7.1-8.2c0-5.2,3.2-8.5,7.5-8.5
		c4.4,0,7.2,3.4,7.2,8.2c0,4.2-1.9,6.8-4.6,7.8v0.1c1.6,0.4,3.4,0.8,4.7,1L564.5,139.8z M562.8,129.3c0-3.2-1.7-6.6-5.1-6.6
		c-3.5,0-5.3,3.3-5.2,6.8c0,3.4,1.9,6.5,5.1,6.5C560.9,136,562.8,133,562.8,129.3z"/>
	<path d="M567.1,127.8c0-0.9,0.6-1.5,1.4-1.5s1.4,0.6,1.4,1.5c0,0.8-0.6,1.5-1.4,1.5C567.7,129.3,567.1,128.6,567.1,127.8z
		 M567.1,136.2c0-0.9,0.6-1.5,1.4-1.5s1.4,0.6,1.4,1.5c0,0.8-0.6,1.5-1.4,1.5C567.7,137.7,567.1,137.1,567.1,136.2z"/>
	<path d="M582.1,137.5v-1.3l1.7-1.6c4-3.8,5.8-5.8,5.8-8.2c0-1.6-0.8-3-3.1-3c-1.4,0-2.6,0.7-3.3,1.3l-0.7-1.5
		c1.1-0.9,2.6-1.6,4.4-1.6c3.4,0,4.8,2.3,4.8,4.5c0,2.9-2.1,5.2-5.4,8.4l-1.2,1.2v0h7v1.8H582.1z"/>
	<path d="M603.3,123.4c-0.4,0-1,0-1.6,0.1c-3.3,0.6-5.1,3-5.4,5.5h0.1c0.7-1,2-1.8,3.8-1.8c2.8,0,4.7,2,4.7,5c0,2.9-1.9,5.5-5.2,5.5
		c-3.3,0-5.5-2.6-5.5-6.6c0-3.1,1.1-5.5,2.6-7c1.3-1.3,3-2.1,5-2.3c0.6-0.1,1.2-0.1,1.5-0.1V123.4z M602.7,132.4
		c0-2.2-1.3-3.6-3.2-3.6c-1.3,0-2.4,0.8-3,1.9c-0.1,0.2-0.2,0.6-0.2,0.9c0,2.6,1.2,4.5,3.4,4.5C601.5,136.1,602.7,134.6,602.7,132.4
		z"/>
	<path d="M530.1,161.2l-1.7,5.1h-2.2l5.5-16.2h2.5l5.5,16.2h-2.2l-1.7-5.1H530.1z M535.4,159.6l-1.6-4.7c-0.4-1.1-0.6-2-0.8-3h0
		c-0.2,1-0.5,1.9-0.8,2.9l-1.6,4.7H535.4z"/>
	<path d="M553.2,165.7c-0.8,0.4-2.3,0.8-4.3,0.8c-4.6,0-8-2.9-8-8.2c0-5.1,3.4-8.5,8.4-8.5c2,0,3.3,0.4,3.8,0.7l-0.5,1.7
		c-0.8-0.4-1.9-0.7-3.3-0.7c-3.8,0-6.3,2.4-6.3,6.7c0,4,2.3,6.5,6.2,6.5c1.3,0,2.6-0.3,3.4-0.7L553.2,165.7z"/>
	<path d="M555.8,150.1h2.1v7.8h0.1c0.4-0.6,0.9-1.2,1.3-1.7l4.9-6.1h2.6l-5.9,6.9l6.3,9.3h-2.5l-5.3-7.9l-1.5,1.8v6.2h-2.1V150.1z"
		/>
	<path d="M568.7,156.6c0-0.9,0.6-1.5,1.4-1.5s1.4,0.6,1.4,1.5c0,0.8-0.6,1.5-1.4,1.5C569.3,158.1,568.7,157.4,568.7,156.6z
		 M568.7,165c0-0.9,0.6-1.5,1.4-1.5s1.4,0.6,1.4,1.5c0,0.8-0.6,1.5-1.4,1.5C569.3,166.5,568.7,165.9,568.7,165z"/>
	<path d="M588.3,152.6L588.3,152.6l-2.8,1.5l-0.4-1.6l3.4-1.8h1.8v15.6h-2V152.6z"/>
	<path d="M604.9,152.2c-0.4,0-1,0-1.6,0.1c-3.3,0.6-5.1,3-5.4,5.5h0.1c0.7-1,2-1.8,3.8-1.8c2.8,0,4.7,2,4.7,5c0,2.9-1.9,5.5-5.2,5.5
		c-3.3,0-5.5-2.6-5.5-6.6c0-3.1,1.1-5.5,2.6-7c1.3-1.3,3-2.1,5-2.3c0.6-0.1,1.2-0.1,1.5-0.1V152.2z M604.3,161.2
		c0-2.2-1.3-3.6-3.2-3.6c-1.3,0-2.4,0.8-3,1.9c-0.1,0.2-0.2,0.6-0.2,0.9c0,2.6,1.2,4.5,3.4,4.5C603.1,164.9,604.3,163.4,604.3,161.2
		z"/>
	<path d="M614.9,166.3V162h-7.2v-1.4l7-10h2.3v9.7h2.2v1.7h-2.2v4.2H614.9z M614.9,160.4v-5.2c0-0.8,0-1.6,0.1-2.4h-0.1
		c-0.5,0.9-0.9,1.6-1.3,2.3l-3.8,5.3v0H614.9z"/>
</g>
<g>
	<g>
		<path class="st0" d="M71.2,259.8c-0.8,0-1.5-0.7-1.5-1.5c0-0.8,0.7-1.5,1.5-1.5l262.2-0.1c0.8,0,1.5,0.7,1.5,1.5
			c0,0.8-0.7,1.5-1.5,1.5L71.2,259.8L71.2,259.8z"/>
	</g>
	<g>
		<g>
			<path class="st0" d="M351.5,258.2c-8.5,3.2-19.1,8.6-25.6,14.3l5.2-14.3l-5.2-14.3C332.4,249.7,343,255,351.5,258.2z"/>
		</g>
	</g>
</g>
<g>
	<g>
		
			<rect x="88.5" y="215.6" transform="matrix(1 -5.072367e-003 5.072367e-003 1 -1.1683 0.5921)" class="st2" width="55.3" height="30"/>
		<path class="st0" d="M87.1,247.3l-0.2-33l58.3-0.3l0.2,33L87.1,247.3z M89.9,217.2l0.1,27l52.3-0.3l-0.1-27L89.9,217.2z"/>
	</g>
	<g>
		<polygon class="st0" points="116.2,231.8 87.9,216.6 88.9,214.9 116.1,229.5 143.3,214.6 144.2,216.3 		"/>
	</g>
</g>
<g>
	<path d="M177.1,210.6c0.9,0.6,2.3,1.1,3.7,1.1c2.1,0,3.4-1.1,3.4-2.8c0-1.5-0.9-2.4-3-3.2c-2.6-0.9-4.3-2.3-4.3-4.6
		c0-2.5,2.1-4.4,5.2-4.4c1.7,0,2.9,0.4,3.6,0.8l-0.6,1.7c-0.5-0.3-1.6-0.8-3.1-0.8c-2.2,0-3,1.3-3,2.4c0,1.5,1,2.3,3.2,3.1
		c2.7,1.1,4.1,2.4,4.1,4.8c0,2.5-1.8,4.7-5.7,4.7c-1.6,0-3.3-0.5-4.1-1L177.1,210.6z"/>
	<path d="M197.6,205.5h-6.3v5.8h7v1.8h-9.1v-16.2h8.7v1.8h-6.6v5.1h6.3V205.5z"/>
	<path d="M214.4,215.5c-2.2-0.6-4.3-1.2-6.2-1.9c-0.3-0.1-0.7-0.2-1-0.2c-3.8-0.1-7.1-3-7.1-8.2c0-5.2,3.2-8.5,7.5-8.5
		c4.4,0,7.2,3.4,7.2,8.2c0,4.2-1.9,6.8-4.6,7.8v0.1c1.6,0.4,3.4,0.8,4.7,1L214.4,215.5z M212.7,204.9c0-3.2-1.7-6.6-5.1-6.6
		c-3.5,0-5.3,3.3-5.2,6.8c0,3.4,1.9,6.5,5.1,6.5C210.8,211.7,212.7,208.6,212.7,204.9z"/>
	<path d="M217,203.4c0-0.9,0.6-1.5,1.4-1.5c0.8,0,1.4,0.6,1.4,1.5c0,0.8-0.6,1.5-1.4,1.5C217.6,204.9,217,204.3,217,203.4z
		 M217,211.9c0-0.9,0.6-1.5,1.4-1.5c0.8,0,1.4,0.6,1.4,1.5c0,0.8-0.6,1.5-1.4,1.5C217.6,213.4,217,212.7,217,211.9z"/>
	<path d="M236.6,199.5L236.6,199.5l-2.8,1.5l-0.4-1.6l3.4-1.8h1.8v15.6h-2V199.5z"/>
	<path d="M253.2,199c-0.4,0-1,0-1.6,0.1c-3.3,0.6-5.1,3-5.4,5.5h0.1c0.7-1,2-1.8,3.8-1.8c2.8,0,4.7,2,4.7,5c0,2.9-1.9,5.5-5.2,5.5
		c-3.3,0-5.5-2.6-5.5-6.6c0-3.1,1.1-5.5,2.6-7c1.3-1.3,3-2.1,5-2.3c0.6-0.1,1.2-0.1,1.5-0.1V199z M252.6,208c0-2.2-1.3-3.6-3.2-3.6
		c-1.3,0-2.4,0.8-3,1.9c-0.1,0.2-0.2,0.6-0.2,0.9c0,2.6,1.2,4.5,3.4,4.5C251.4,211.7,252.6,210.2,252.6,208z"/>
	<path d="M265.9,199.3h-6l-0.6,4c0.4,0,0.7-0.1,1.3-0.1c1.2,0,2.4,0.3,3.4,0.8c1.2,0.7,2.2,2,2.2,4c0,3-2.4,5.3-5.8,5.3
		c-1.7,0-3.1-0.5-3.9-1l0.5-1.6c0.6,0.4,1.9,0.9,3.3,0.9c2,0,3.7-1.3,3.7-3.4c0-2-1.4-3.5-4.5-3.5c-0.9,0-1.6,0.1-2.2,0.2l1-7.5h7.5
		V199.3z"/>
	<path d="M180,236.8l-1.7,5.1h-2.2l5.5-16.2h2.5l5.5,16.2h-2.2l-1.7-5.1H180z M185.3,235.2l-1.6-4.7c-0.4-1.1-0.6-2-0.8-3h0
		c-0.2,1-0.5,1.9-0.8,2.9l-1.6,4.7H185.3z"/>
	<path d="M203,241.4c-0.8,0.4-2.3,0.8-4.3,0.8c-4.6,0-8-2.9-8-8.2c0-5.1,3.4-8.5,8.4-8.5c2,0,3.3,0.4,3.8,0.7l-0.5,1.7
		c-0.8-0.4-1.9-0.7-3.3-0.7c-3.8,0-6.3,2.4-6.3,6.7c0,4,2.3,6.5,6.2,6.5c1.3,0,2.6-0.3,3.4-0.7L203,241.4z"/>
	<path d="M205.6,225.7h2.1v7.8h0.1c0.4-0.6,0.9-1.2,1.3-1.7l4.9-6.1h2.6l-5.9,6.9l6.3,9.3h-2.5l-5.3-7.9l-1.5,1.8v6.2h-2.1V225.7z"
		/>
	<path d="M218.6,232.2c0-0.9,0.6-1.5,1.4-1.5c0.8,0,1.4,0.6,1.4,1.5c0,0.8-0.6,1.5-1.4,1.5C219.2,233.7,218.6,233.1,218.6,232.2z
		 M218.6,240.7c0-0.9,0.6-1.5,1.4-1.5c0.8,0,1.4,0.6,1.4,1.5c0,0.8-0.6,1.5-1.4,1.5C219.2,242.2,218.6,241.5,218.6,240.7z"/>
	<path d="M233.6,241.9v-1.3l1.7-1.6c4-3.8,5.8-5.8,5.8-8.2c0-1.6-0.8-3-3.1-3c-1.4,0-2.6,0.7-3.3,1.3l-0.7-1.5
		c1.1-0.9,2.6-1.6,4.4-1.6c3.4,0,4.8,2.3,4.8,4.5c0,2.9-2.1,5.2-5.4,8.4l-1.2,1.2v0h7v1.8H233.6z"/>
	<path d="M254.8,227.8c-0.4,0-1,0-1.6,0.1c-3.3,0.6-5.1,3-5.4,5.5h0.1c0.7-1,2-1.8,3.8-1.8c2.8,0,4.7,2,4.7,5c0,2.9-1.9,5.5-5.2,5.5
		c-3.3,0-5.5-2.6-5.5-6.6c0-3.1,1.1-5.5,2.6-7c1.3-1.3,3-2.1,5-2.3c0.6-0.1,1.2-0.1,1.5-0.1V227.8z M254.2,236.8
		c0-2.2-1.3-3.6-3.2-3.6c-1.3,0-2.4,0.8-3,1.9c-0.1,0.2-0.2,0.6-0.2,0.9c0,2.6,1.2,4.5,3.4,4.5C253,240.5,254.2,239,254.2,236.8z"/>
</g>
<g>
	<g>
		<path class="st1" d="M736.6,316.4L736.6,316.4l-262.2,0c-0.8,0-1.5-0.7-1.5-1.5c0-0.8,0.7-1.5,1.5-1.5l0,0l262.2,0
			c0.8,0,1.5,0.7,1.5,1.5C738.1,315.7,737.4,316.4,736.6,316.4z"/>
	</g>
	<g>
		<g>
			<path class="st1" d="M456.3,314.9c8.5-3.2,19.1-8.6,25.6-14.3l-5.2,14.3l5.2,14.3C475.4,323.4,464.8,318.1,456.3,314.9z"/>
		</g>
	</g>
</g>
<g>
	<g>
		
			<rect x="660.8" y="271.7" transform="matrix(1 -5.072367e-003 5.072367e-003 1 -1.4453 3.4957)" class="st2" width="55.3" height="30"/>
		<path class="st1" d="M659.4,303.3l-0.2-33l58.3-0.3l0.2,33L659.4,303.3z M662.2,273.3l0.1,27l52.3-0.3l-0.1-27L662.2,273.3z"/>
	</g>
	<g>
		<polygon class="st1" points="688.4,287.8 660.2,272.7 661.2,270.9 688.4,285.5 715.5,270.6 716.5,272.4 		"/>
	</g>
</g>
<g>
	<path d="M527.2,265.7c0.9,0.6,2.3,1.1,3.7,1.1c2.1,0,3.4-1.1,3.4-2.8c0-1.5-0.9-2.4-3-3.2c-2.6-0.9-4.3-2.3-4.3-4.6
		c0-2.5,2.1-4.4,5.2-4.4c1.7,0,2.9,0.4,3.6,0.8l-0.6,1.7c-0.5-0.3-1.6-0.8-3.1-0.8c-2.2,0-3,1.3-3,2.4c0,1.5,1,2.3,3.2,3.1
		c2.7,1.1,4.1,2.4,4.1,4.8c0,2.5-1.8,4.7-5.7,4.7c-1.6,0-3.3-0.5-4.1-1L527.2,265.7z"/>
	<path d="M547.7,260.7h-6.3v5.8h7v1.8h-9.1v-16.2h8.7v1.8h-6.6v5.1h6.3V260.7z"/>
	<path d="M564.5,270.7c-2.2-0.6-4.3-1.2-6.2-1.9c-0.3-0.1-0.7-0.2-1-0.2c-3.8-0.1-7.1-3-7.1-8.2c0-5.2,3.2-8.5,7.5-8.5
		c4.4,0,7.2,3.4,7.2,8.2c0,4.2-1.9,6.8-4.6,7.8v0.1c1.6,0.4,3.4,0.8,4.7,1L564.5,270.7z M562.8,260.1c0-3.2-1.7-6.6-5.1-6.6
		c-3.5,0-5.3,3.3-5.2,6.8c0,3.4,1.9,6.5,5.1,6.5C560.9,266.8,562.8,263.8,562.8,260.1z"/>
	<path d="M567.1,258.6c0-0.9,0.6-1.5,1.4-1.5s1.4,0.6,1.4,1.5c0,0.8-0.6,1.5-1.4,1.5C567.7,260.1,567.1,259.4,567.1,258.6z
		 M567.1,267.1c0-0.9,0.6-1.5,1.4-1.5s1.4,0.6,1.4,1.5c0,0.8-0.6,1.5-1.4,1.5C567.7,268.5,567.1,267.9,567.1,267.1z"/>
	<path d="M582.1,268.3V267l1.7-1.6c4-3.8,5.8-5.8,5.8-8.2c0-1.6-0.8-3-3.1-3c-1.4,0-2.6,0.7-3.3,1.3l-0.7-1.5
		c1.1-0.9,2.6-1.6,4.4-1.6c3.4,0,4.8,2.3,4.8,4.5c0,2.9-2.1,5.2-5.4,8.4l-1.2,1.2v0h7v1.8H582.1z"/>
	<path d="M604.5,252.7v1.4l-6.8,14.2h-2.2l6.8-13.8v0h-7.6v-1.8H604.5z"/>
	<path d="M530.1,292l-1.7,5.1h-2.2l5.5-16.2h2.5l5.5,16.2h-2.2l-1.7-5.1H530.1z M535.4,290.4l-1.6-4.7c-0.4-1.1-0.6-2-0.8-3h0
		c-0.2,1-0.5,1.9-0.8,2.9l-1.6,4.7H535.4z"/>
	<path d="M553.2,296.6c-0.8,0.4-2.3,0.8-4.3,0.8c-4.6,0-8-2.9-8-8.2c0-5.1,3.4-8.5,8.4-8.5c2,0,3.3,0.4,3.8,0.7l-0.5,1.7
		c-0.8-0.4-1.9-0.7-3.3-0.7c-3.8,0-6.3,2.4-6.3,6.7c0,4,2.3,6.5,6.2,6.5c1.3,0,2.6-0.3,3.4-0.7L553.2,296.6z"/>
	<path d="M555.8,280.9h2.1v7.8h0.1c0.4-0.6,0.9-1.2,1.3-1.7l4.9-6.1h2.6l-5.9,6.9l6.3,9.3h-2.5l-5.3-7.9l-1.5,1.8v6.2h-2.1V280.9z"
		/>
	<path d="M568.7,287.4c0-0.9,0.6-1.5,1.4-1.5s1.4,0.6,1.4,1.5c0,0.8-0.6,1.5-1.4,1.5C569.3,288.9,568.7,288.2,568.7,287.4z
		 M568.7,295.9c0-0.9,0.6-1.5,1.4-1.5s1.4,0.6,1.4,1.5c0,0.8-0.6,1.5-1.4,1.5C569.3,297.3,568.7,296.7,568.7,295.9z"/>
	<path d="M588.3,283.4L588.3,283.4l-2.8,1.5l-0.4-1.6l3.4-1.8h1.8v15.6h-2V283.4z"/>
	<path d="M604.9,283c-0.4,0-1,0-1.6,0.1c-3.3,0.6-5.1,3-5.4,5.5h0.1c0.7-1,2-1.8,3.8-1.8c2.8,0,4.7,2,4.7,5c0,2.9-1.9,5.5-5.2,5.5
		c-3.3,0-5.5-2.6-5.5-6.6c0-3.1,1.1-5.5,2.6-7c1.3-1.3,3-2.1,5-2.3c0.6-0.1,1.2-0.1,1.5-0.1V283z M604.3,292c0-2.2-1.3-3.6-3.2-3.6
		c-1.3,0-2.4,0.8-3,1.9c-0.1,0.2-0.2,0.6-0.2,0.9c0,2.6,1.2,4.5,3.4,4.5C603.1,295.7,604.3,294.2,604.3,292z"/>
	<path d="M617.6,283.3h-6l-0.6,4c0.4,0,0.7-0.1,1.3-0.1c1.2,0,2.4,0.3,3.4,0.8c1.2,0.7,2.2,2,2.2,4c0,3-2.4,5.3-5.8,5.3
		c-1.7,0-3.1-0.5-3.9-1l0.5-1.6c0.6,0.4,1.9,0.9,3.3,0.9c2,0,3.7-1.3,3.7-3.4c0-2-1.4-3.5-4.5-3.5c-0.9,0-1.6,0.1-2.2,0.2l1-7.5h7.5
		V283.3z"/>
</g>
<g>
	<path d="M379.3,382.7c0-0.9,0.6-1.5,1.5-1.5c0.9,0,1.4,0.6,1.4,1.5c0,0.9-0.6,1.5-1.5,1.5C379.9,384.2,379.3,383.6,379.3,382.7z"/>
	<path d="M384.4,382.7c0-0.9,0.6-1.5,1.5-1.5c0.9,0,1.4,0.6,1.4,1.5c0,0.9-0.6,1.5-1.5,1.5C385,384.2,384.4,383.6,384.4,382.7z"/>
	<path d="M389.5,382.7c0-0.9,0.6-1.5,1.5-1.5c0.9,0,1.4,0.6,1.4,1.5c0,0.9-0.6,1.5-1.5,1.5C390.1,384.2,389.5,383.6,389.5,382.7z"/>
	<path d="M401.5,378.4c0,2.9,1.9,4.1,4.1,4.1c1.5,0,2.5-0.3,3.3-0.6l0.4,1.5c-0.8,0.3-2.1,0.7-3.9,0.7c-3.7,0-5.8-2.4-5.8-6
		s2.1-6.4,5.6-6.4c3.9,0,4.9,3.4,4.9,5.6c0,0.4,0,0.8-0.1,1H401.5z M407.8,376.9c0-1.4-0.6-3.5-3-3.5c-2.2,0-3.1,2-3.3,3.5H407.8z"
		/>
	<path d="M415.1,368.7v3.4h3.1v1.6h-3.1v6.4c0,1.5,0.4,2.3,1.6,2.3c0.6,0,1-0.1,1.3-0.1l0.1,1.6c-0.4,0.2-1.1,0.3-1.9,0.3
		c-1,0-1.8-0.3-2.3-0.9c-0.6-0.6-0.8-1.7-0.8-3.1v-6.5h-1.8v-1.6h1.8v-2.8L415.1,368.7z"/>
	<path d="M429,383.5c-0.6,0.3-1.8,0.7-3.4,0.7c-3.6,0-5.9-2.4-5.9-6.1c0-3.7,2.5-6.3,6.4-6.3c1.3,0,2.4,0.3,3,0.6l-0.5,1.7
		c-0.5-0.3-1.3-0.6-2.5-0.6c-2.7,0-4.2,2-4.2,4.5c0,2.7,1.8,4.4,4.1,4.4c1.2,0,2-0.3,2.6-0.6L429,383.5z"/>
</g>
<g class="st3">
	<g>
		<path class="st1" d="M735.6,80.6L735.6,80.6l-262.2,0c-0.8,0-1.5-0.7-1.5-1.5c0-0.8,0.7-1.5,1.5-1.5l0,0l262.2,0
			c0.8,0,1.5,0.7,1.5,1.5C737.1,79.9,736.4,80.6,735.6,80.6z"/>
	</g>
	<g>
		<g>
			<path class="st1" d="M455.3,79.1c8.5-3.2,19.1-8.6,25.6-14.3l-5.2,14.3l5.2,14.3C474.4,87.6,463.8,82.2,455.3,79.1z"/>
		</g>
	</g>
</g>
<g class="st3">
	<g>
		<path class="st0" d="M71.2,352.8c-0.8,0-1.5-0.7-1.5-1.5c0-0.8,0.7-1.5,1.5-1.5l262.2-0.1c0.8,0,1.5,0.7,1.5,1.5
			c0,0.8-0.7,1.5-1.5,1.5L71.2,352.8L71.2,352.8z"/>
	</g>
	<g>
		<g>
			<path class="st0" d="M351.5,351.2c-8.5,3.2-19.1,8.6-25.6,14.3l5.2-14.3l-5.2-14.3C332.4,342.7,343,348,351.5,351.2z"/>
		</g>
	</g>
</g>
<g class="st3">
	<g>
		
			<rect x="89.5" y="309.6" transform="matrix(1 -5.072367e-003 5.072367e-003 1 -1.645 0.5984)" class="st2" width="55.3" height="30"/>
		<path class="st0" d="M88.1,341.3l-0.2-33l58.3-0.3l0.2,33L88.1,341.3z M90.9,311.2l0.1,27l52.3-0.3l-0.1-27L90.9,311.2z"/>
	</g>
	<g>
		<polygon class="st0" points="117.2,325.8 88.9,310.6 89.9,308.9 117.1,323.5 144.3,308.6 145.2,310.3 		"/>
	</g>
</g>
</svg>
