<?xml version="1.0" encoding="utf-8"?>
<!-- Generator: Adobe Illustrator 19.2.0, SVG Export Plug-In . SVG Version: 6.00 Build 0)  -->
<svg version="1.1" id="Layer_1" xmlns="http://www.w3.org/2000/svg" xmlns:xlink="http://www.w3.org/1999/xlink" x="0px" y="0px"
	 viewBox="0 0 800 200" style="enable-background:new 0 0 800 200;" xml:space="preserve">
<style type="text/css">
	.st0{fill:#FFCB8B;}
	.st1{fill:#FF1732;}
	.st2{fill:#0D1587;}
	.st3{fill:#FFFFFF;}
</style>
<g>
	<g>
		
			<rect x="392.6" y="-184" transform="matrix(2.472963e-002 -0.9997 0.9997 2.472963e-002 290.2126 497.4804)" width="15" height="568.1"/>
	</g>
	<g>
		<circle class="st0" cx="116" cy="93" r="68.2"/>
		<path d="M116,162.1c-38.1,0-69.2-31-69.2-69.2s31-69.2,69.2-69.2s69.2,31,69.2,69.2S154.1,162.1,116,162.1z M116,25.8
			c-37,0-67.2,30.1-67.2,67.2c0,37,30.1,67.2,67.2,67.2c37,0,67.2-30.1,67.2-67.2C183.1,55.9,153,25.8,116,25.8z"/>
	</g>
	<g>
		<circle class="st0" cx="684" cy="107" r="68.2"/>
		<path d="M684,176.2c-38.1,0-69.2-31-69.2-69.2s31-69.2,69.2-69.2s69.2,31,69.2,69.2S722.2,176.2,684,176.2z M684,39.9
			c-37,0-67.2,30.1-67.2,67.2c0,37,30.1,67.2,67.2,67.2s67.2-30.1,67.2-67.2C751.2,70,721,39.9,684,39.9z"/>
	</g>
	<g>
		<path d="M91.3,106.2L88.4,98H77.2l-2.9,8.1h-5l10.9-29.3h5.2l10.9,29.3H91.3z M87.1,93.9L84.4,86c-0.2-0.5-0.5-1.4-0.8-2.5
			c-0.4-1.1-0.6-2-0.7-2.5c-0.4,1.6-0.9,3.4-1.6,5.4l-2.6,7.6H87.1z"/>
		<path d="M104.4,106.2h-4.7V75.1h4.7V106.2z"/>
		<path d="M110.8,78.2c0-0.8,0.2-1.5,0.7-1.9c0.5-0.5,1.1-0.7,2-0.7c0.8,0,1.5,0.2,1.9,0.7c0.5,0.5,0.7,1.1,0.7,1.9
			c0,0.8-0.2,1.4-0.7,1.9s-1.1,0.7-1.9,0.7c-0.9,0-1.5-0.2-2-0.7S110.8,79,110.8,78.2z M115.8,106.2h-4.7V84.1h4.7V106.2z"/>
		<path d="M131.4,106.6c-3.3,0-5.9-1-7.6-2.9c-1.7-1.9-2.6-4.7-2.6-8.4c0-3.7,0.9-6.6,2.7-8.6c1.8-2,4.4-3,7.9-3
			c2.3,0,4.4,0.4,6.3,1.3l-1.4,3.8c-2-0.8-3.6-1.2-4.9-1.2c-3.8,0-5.7,2.5-5.7,7.6c0,2.5,0.5,4.3,1.4,5.6c1,1.2,2.3,1.9,4.2,1.9
			c2.1,0,4.1-0.5,5.9-1.6v4.1c-0.8,0.5-1.7,0.8-2.7,1.1C133.9,106.4,132.8,106.6,131.4,106.6z"/>
		<path d="M152.4,106.6c-3.4,0-6.1-1-8.1-3s-2.9-4.8-2.9-8.3c0-3.6,0.9-6.4,2.7-8.5c1.8-2.1,4.3-3.1,7.4-3.1c2.9,0,5.2,0.9,6.9,2.7
			c1.7,1.8,2.5,4.2,2.5,7.3v2.5h-14.7c0.1,2.1,0.6,3.8,1.7,4.9s2.6,1.7,4.6,1.7c1.3,0,2.5-0.1,3.6-0.4c1.1-0.2,2.3-0.7,3.6-1.2v3.8
			c-1.1,0.5-2.3,0.9-3.5,1.2C155.2,106.4,153.9,106.6,152.4,106.6z M151.5,87.2c-1.5,0-2.7,0.5-3.6,1.4c-0.9,0.9-1.4,2.3-1.6,4.1h10
			c0-1.8-0.5-3.2-1.3-4.1S153,87.2,151.5,87.2z"/>
	</g>
	<g>
		<path d="M650.5,91.3h8.7c4,0,6.9,0.6,8.7,1.8c1.8,1.2,2.7,3,2.7,5.5c0,1.7-0.4,3.1-1.3,4.3c-0.9,1.1-2.1,1.8-3.8,2.1v0.2
			c2,0.4,3.6,1.1,4.5,2.3s1.4,2.7,1.4,4.6c0,2.6-0.9,4.7-2.7,6.2c-1.8,1.5-4.4,2.2-7.6,2.2h-10.5V91.3z M655.2,103.3h4.6
			c2,0,3.5-0.3,4.4-0.9c0.9-0.6,1.4-1.7,1.4-3.2c0-1.4-0.5-2.4-1.5-3c-1-0.6-2.6-0.9-4.7-0.9h-4.1V103.3z M655.2,107.2v9.2h5.1
			c2,0,3.5-0.4,4.5-1.1s1.5-2,1.5-3.6c0-1.5-0.5-2.6-1.6-3.4c-1-0.7-2.6-1.1-4.7-1.1H655.2z"/>
		<path d="M696.5,109.4c0,3.6-0.9,6.4-2.8,8.4c-1.8,2-4.4,3-7.7,3c-2.1,0-3.9-0.5-5.5-1.4c-1.6-0.9-2.8-2.3-3.7-4
			c-0.9-1.7-1.3-3.8-1.3-6.1c0-3.6,0.9-6.4,2.8-8.4c1.8-2,4.4-3,7.8-3c3.2,0,5.7,1,7.6,3.1C695.6,103.1,696.5,105.9,696.5,109.4z
			 M680.5,109.4c0,5.1,1.9,7.6,5.6,7.6c3.7,0,5.6-2.5,5.6-7.6c0-5-1.9-7.6-5.6-7.6c-2,0-3.4,0.7-4.3,2
			C680.9,105.1,680.5,106.9,680.5,109.4z"/>
		<path d="M713.2,98c2.8,0,4.9,1,6.4,3c1.5,2,2.3,4.8,2.3,8.4c0,3.6-0.8,6.4-2.3,8.5c-1.6,2-3.7,3-6.5,3c-2.8,0-5-1-6.5-3h-0.3
			l-0.9,2.6h-3.5V89.4h4.7v7.4c0,0.5,0,1.4-0.1,2.4c-0.1,1.1-0.1,1.8-0.1,2.1h0.2C708.1,99.1,710.3,98,713.2,98z M712,101.8
			c-1.9,0-3.3,0.6-4.1,1.7s-1.3,3-1.3,5.6v0.3c0,2.7,0.4,4.6,1.3,5.8c0.9,1.2,2.2,1.8,4.2,1.8c1.7,0,2.9-0.7,3.8-2
			c0.9-1.3,1.3-3.2,1.3-5.7C717.1,104.3,715.4,101.8,712,101.8z"/>
	</g>
	<g>
		<g>
			<path class="st1" d="M363.7,68C363.7,68,363.7,68,363.7,68l-115.6-2.1c-0.8,0-1.5-0.7-1.5-1.5c0-0.8,0.7-1.5,1.5-1.5l115.6,2.2
				c0.8,0,1.5,0.7,1.5,1.5C365.2,67.4,364.5,68,363.7,68z"/>
		</g>
		<g>
			<g>
				<path class="st1" d="M381.8,66.9c-8.6,3-19.2,8.2-25.9,13.8l5.4-14.2l-4.9-14.4C362.9,58,373.3,63.6,381.8,66.9z"/>
			</g>
		</g>
	</g>
	<g>
		<g>
			<path class="st2" d="M556.5,135C556.5,135,556.5,135,556.5,135l-123.9-1.8c-0.8,0-1.5-0.8-1.5-1.6c0-0.8,0.7-1.6,1.5-1.6
				c0,0,0,0,0,0l123.9,2.2c0.8,0,1.5,0.6,1.5,1.4C558,134.4,557.3,135,556.5,135z"/>
		</g>
		<g>
			<g>
				<path class="st2" d="M414.5,131.6c8.6-3,19.2-8.3,25.9-13.9l-5.4,14.2l4.9,14.3C433.4,140.5,422.9,134.9,414.5,131.6z"/>
			</g>
		</g>
	</g>
	<g>
		<g>
			
				<rect x="260.7" y="36.3" transform="matrix(0.9998 2.130389e-002 -2.130389e-002 0.9998 0.9946 -5.8384)" class="st3" width="27.6" height="15"/>
			<path class="st1" d="M289.2,52.6l-29.6-0.6l0.4-17l29.6,0.6L289.2,52.6z M261.6,50l25.6,0.5l0.3-13L261.8,37L261.6,50z"/>
		</g>
		<g>
			<polygon class="st1" points="274.5,44.3 260.6,36.4 261.1,35.5 274.5,43.2 288.3,36.1 288.7,37 			"/>
		</g>
	</g>
	<g>
		<g>
			
				<rect x="459" y="148" transform="matrix(0.9999 1.067988e-002 -1.067988e-002 0.9999 1.6858 -5.036)" class="st3" width="26.8" height="14.6"/>
			<path class="st2" d="M486.7,163.8l-28.8-0.3l0.2-16.6l28.8,0.3L486.7,163.8z M459.9,161.5l24.8,0.3l0.1-12.6l-24.8-0.3
				L459.9,161.5z"/>
		</g>
		<g>
			<polygon class="st2" points="472.4,155.9 458.8,148.3 459.3,147.5 472.4,154.8 485.6,147.7 486.1,148.6 			"/>
		</g>
	</g>
	<g>
		<g>
			
				<rect x="311.7" y="37.3" transform="matrix(0.9998 2.130389e-002 -2.130389e-002 0.9998 1.0274 -6.9246)" class="st3" width="27.6" height="15"/>
			<path class="st1" d="M340.2,53.6l-29.6-0.6l0.4-17l29.6,0.6L340.2,53.6z M312.6,51l25.6,0.5l0.3-13L312.8,38L312.6,51z"/>
		</g>
		<g>
			<polygon class="st1" points="325.5,45.3 311.6,37.4 312.1,36.5 325.5,44.2 339.3,37.1 339.7,38 			"/>
		</g>
	</g>
	<g>
		<g>
			
				<rect x="511" y="149" transform="matrix(0.9999 1.067988e-002 -1.067988e-002 0.9999 1.6994 -5.5913)" class="st3" width="26.8" height="14.6"/>
			<path class="st2" d="M538.7,164.8l-28.8-0.3l0.2-16.6l28.8,0.3L538.7,164.8z M511.9,162.5l24.8,0.3l0.1-12.6l-24.8-0.3
				L511.9,162.5z"/>
		</g>
		<g>
			<polygon class="st2" points="524.4,156.9 510.8,149.3 511.3,148.5 524.4,155.8 537.6,148.7 538.1,149.6 			"/>
		</g>
	</g>
	<g>
		<g>
			
				<rect x="208.7" y="35.3" transform="matrix(0.9998 2.130389e-002 -2.130389e-002 0.9998 0.9615 -4.7308)" class="st3" width="27.6" height="15"/>
			<path class="st1" d="M237.2,51.6l-29.6-0.6l0.4-17l29.6,0.6L237.2,51.6z M209.6,49l25.6,0.5l0.3-13L209.8,36L209.6,49z"/>
		</g>
		<g>
			<polygon class="st1" points="222.5,43.3 208.6,35.4 209.1,34.5 222.5,42.2 236.3,35.1 236.7,36 			"/>
		</g>
	</g>
	<g>
		<g>
			
				<rect x="561" y="150" transform="matrix(0.9999 1.067988e-002 -1.067988e-002 0.9999 1.713 -6.1252)" class="st3" width="26.8" height="14.6"/>
			<path class="st2" d="M588.7,165.8l-28.8-0.3l0.2-16.6l28.8,0.3L588.7,165.8z M561.9,163.5l24.8,0.3l0.1-12.6l-24.8-0.3
				L561.9,163.5z"/>
		</g>
		<g>
			<polygon class="st2" points="574.4,157.9 560.8,150.3 561.3,149.5 574.4,156.8 587.6,149.7 588.1,150.6 			"/>
		</g>
	</g>
</g>
</svg>
