<?xml version="1.0" encoding="utf-8"?>
<!-- Generator: Adobe Illustrator 19.2.0, SVG Export Plug-In . SVG Version: 6.00 Build 0)  -->
<svg version="1.1" id="Layer_1" xmlns="http://www.w3.org/2000/svg" xmlns:xlink="http://www.w3.org/1999/xlink" x="0px" y="0px"
	 viewBox="0 0 800 749" style="enable-background:new 0 0 800 749;" xml:space="preserve">
<style type="text/css">
	.st0{fill:#FFFFFF;}
</style>
<g>
	<g>
		<path class="st0" d="M615.4,731H184.6c-21.5,0-39-17.5-39-39V60c0-21.5,17.5-39,39-39h430.8c21.5,0,39,17.5,39,39v632
			C654.4,713.5,637,731,615.4,731z"/>
		<path d="M615.4,731.5H184.6c-21.8,0-39.5-17.7-39.5-39.5V60c0-21.8,17.7-39.5,39.5-39.5h430.8c21.8,0,39.5,17.7,39.5,39.5v632
			C654.9,713.8,637.2,731.5,615.4,731.5z M184.6,21.5c-21.2,0-38.5,17.3-38.5,38.5v632c0,21.2,17.3,38.5,38.5,38.5h430.8
			c21.2,0,38.5-17.3,38.5-38.5V60c0-21.2-17.3-38.5-38.5-38.5H184.6z"/>
	</g>
	<g>
		<path class="st0" d="M600.2,166.7H199.8c-9.2,0-16.7-7.5-16.7-16.7v-26.6c0-9.2,7.5-16.7,16.7-16.7h400.4
			c9.2,0,16.7,7.5,16.7,16.7v26.6C616.9,159.3,609.4,166.7,600.2,166.7z"/>
		<path d="M600.2,167.2H199.8c-9.5,0-17.2-7.7-17.2-17.2v-26.6c0-9.5,7.7-17.2,17.2-17.2h400.4c9.5,0,17.2,7.7,17.2,17.2v26.6
			C617.4,159.5,609.7,167.2,600.2,167.2z M199.8,107.3c-8.9,0-16.2,7.3-16.2,16.2v26.6c0,8.9,7.3,16.2,16.2,16.2h400.4
			c8.9,0,16.2-7.3,16.2-16.2v-26.6c0-8.9-7.3-16.2-16.2-16.2H199.8z"/>
	</g>
	<g>
		<path d="M339.7,144.9v-19.7h2.3v19.7H339.7z"/>
		<path d="M359.8,130.9c0,2-0.7,3.5-2,4.6c-1.4,1.1-3.3,1.6-5.8,1.6h-2.3v7.7h-2.3v-19.7h5.1C357.4,125.2,359.8,127.1,359.8,130.9z
			 M349.6,135.2h2.1c2,0,3.5-0.3,4.4-1c0.9-0.7,1.4-1.7,1.4-3.1c0-1.3-0.4-2.3-1.3-2.9c-0.9-0.6-2.2-1-4-1h-2.6V135.2z"/>
		<path d="M386,144.9h-2.3v-9.3h-10.4v9.3h-2.3v-19.7h2.3v8.4h10.4v-8.4h2.3V144.9z"/>
		<path d="M397.3,145.1c-2.2,0-3.9-0.7-5.2-2c-1.3-1.3-1.9-3.2-1.9-5.5c0-2.4,0.6-4.3,1.8-5.7c1.2-1.4,2.7-2.1,4.7-2.1
			c1.8,0,3.3,0.6,4.4,1.8s1.6,2.8,1.6,4.8v1.4h-10.2c0,1.7,0.5,3,1.3,3.9c0.8,0.9,2,1.3,3.5,1.3c1.6,0,3.2-0.3,4.7-1v2
			c-0.8,0.3-1.5,0.6-2.2,0.7C399.1,145,398.3,145.1,397.3,145.1z M396.7,131.7c-1.2,0-2.1,0.4-2.8,1.2c-0.7,0.8-1.1,1.8-1.2,3.2h7.7
			c0-1.4-0.3-2.5-0.9-3.2C398.7,132.1,397.9,131.7,396.7,131.7z"/>
		<path d="M415.6,144.9l-0.4-2.1H415c-0.7,0.9-1.5,1.5-2.2,1.9s-1.6,0.5-2.7,0.5c-1.5,0-2.6-0.4-3.4-1.1c-0.8-0.8-1.2-1.8-1.2-3.2
			c0-3,2.4-4.5,7.1-4.7l2.5-0.1v-0.9c0-1.2-0.2-2-0.7-2.6s-1.3-0.8-2.4-0.8c-1.2,0-2.6,0.4-4.2,1.1l-0.7-1.7
			c0.7-0.4,1.5-0.7,2.4-0.9c0.9-0.2,1.7-0.3,2.6-0.3c1.8,0,3.1,0.4,3.9,1.2c0.8,0.8,1.3,2,1.3,3.8v10.1H415.6z M410.5,143.3
			c1.4,0,2.5-0.4,3.3-1.1c0.8-0.8,1.2-1.8,1.2-3.2v-1.3l-2.2,0.1c-1.8,0.1-3.1,0.3-3.8,0.8c-0.8,0.5-1.2,1.2-1.2,2.3
			c0,0.8,0.2,1.4,0.7,1.8C409,143.1,409.7,143.3,410.5,143.3z"/>
		<path d="M431.9,142.9h-0.1c-1,1.5-2.6,2.2-4.6,2.2c-1.9,0-3.4-0.7-4.5-2s-1.6-3.2-1.6-5.6c0-2.4,0.5-4.3,1.6-5.7s2.6-2,4.5-2
			c2,0,3.5,0.7,4.6,2.2h0.2l-0.1-1.1l-0.1-1v-6h2.2v20.9h-1.8L431.9,142.9z M427.4,143.3c1.5,0,2.6-0.4,3.3-1.2c0.7-0.8,1-2.2,1-4
			v-0.5c0-2.1-0.3-3.6-1-4.5c-0.7-0.9-1.8-1.3-3.3-1.3c-1.3,0-2.3,0.5-3,1.5c-0.7,1-1,2.5-1,4.3c0,1.9,0.3,3.3,1,4.3
			C425,142.8,426.1,143.3,427.4,143.3z"/>
		<path d="M444.9,145.1c-2.2,0-3.9-0.7-5.2-2c-1.3-1.3-1.9-3.2-1.9-5.5c0-2.4,0.6-4.3,1.8-5.7c1.2-1.4,2.7-2.1,4.7-2.1
			c1.8,0,3.3,0.6,4.4,1.8s1.6,2.8,1.6,4.8v1.4h-10.2c0,1.7,0.5,3,1.3,3.9c0.8,0.9,2,1.3,3.5,1.3c1.6,0,3.2-0.3,4.7-1v2
			c-0.8,0.3-1.5,0.6-2.2,0.7C446.8,145,445.9,145.1,444.9,145.1z M444.3,131.7c-1.2,0-2.1,0.4-2.8,1.2c-0.7,0.8-1.1,1.8-1.2,3.2h7.7
			c0-1.4-0.3-2.5-0.9-3.2C446.4,132.1,445.5,131.7,444.3,131.7z"/>
		<path d="M460.9,129.8c0.7,0,1.2,0.1,1.8,0.2l-0.3,2.1c-0.6-0.1-1.1-0.2-1.6-0.2c-1.2,0-2.2,0.5-3.1,1.5s-1.3,2.2-1.3,3.6v7.9h-2.2
			v-14.7h1.8l0.3,2.7h0.1c0.5-1,1.2-1.7,2-2.2S460,129.8,460.9,129.8z"/>
	</g>
	<g>
		<path class="st0" d="M600.2,235.6H199.8c-9.2,0-16.7-7.5-16.7-16.7v-26.6c0-9.2,7.5-16.7,16.7-16.7h400.4
			c9.2,0,16.7,7.5,16.7,16.7v26.6C616.9,228.1,609.4,235.6,600.2,235.6z"/>
		<path d="M600.2,236.1H199.8c-9.5,0-17.2-7.7-17.2-17.2v-26.6c0-9.5,7.7-17.2,17.2-17.2h400.4c9.5,0,17.2,7.7,17.2,17.2v26.6
			C617.4,228.4,609.7,236.1,600.2,236.1z M199.8,176.2c-8.9,0-16.2,7.3-16.2,16.2v26.6c0,8.9,7.3,16.2,16.2,16.2h400.4
			c8.9,0,16.2-7.3,16.2-16.2v-26.6c0-8.9-7.3-16.2-16.2-16.2H199.8z"/>
	</g>
	<g>
		<path d="M338.9,208.5c0,1.7-0.6,3.1-1.9,4c-1.3,1-3,1.5-5.1,1.5c-2.3,0-4.1-0.3-5.4-0.9v-2.2c0.8,0.3,1.7,0.6,2.6,0.8
			c1,0.2,1.9,0.3,2.8,0.3c1.5,0,2.7-0.3,3.4-0.9s1.2-1.4,1.2-2.4c0-0.7-0.1-1.2-0.4-1.7s-0.7-0.8-1.4-1.2s-1.6-0.8-2.9-1.3
			c-1.8-0.7-3.1-1.4-3.9-2.3c-0.8-0.9-1.2-2.1-1.2-3.5c0-1.5,0.6-2.7,1.7-3.6s2.6-1.3,4.5-1.3c2,0,3.8,0.4,5.4,1.1l-0.7,2
			c-1.6-0.7-3.2-1-4.7-1c-1.2,0-2.2,0.3-2.8,0.8c-0.7,0.5-1,1.2-1,2.2c0,0.7,0.1,1.2,0.4,1.7c0.3,0.4,0.7,0.8,1.3,1.2
			c0.6,0.4,1.5,0.8,2.7,1.2c2.1,0.7,3.5,1.5,4.3,2.4C338.5,206,338.9,207.1,338.9,208.5z"/>
		<path d="M355.3,206.3c0,2.4-0.6,4.3-1.8,5.6s-2.9,2-5,2c-1.3,0-2.5-0.3-3.5-0.9c-1-0.6-1.8-1.5-2.4-2.7c-0.6-1.2-0.8-2.5-0.8-4.1
			c0-2.4,0.6-4.3,1.8-5.6c1.2-1.3,2.9-2,5-2c2.1,0,3.7,0.7,4.9,2.1S355.3,204,355.3,206.3z M344.1,206.3c0,1.9,0.4,3.3,1.1,4.3
			c0.8,1,1.9,1.5,3.3,1.5c1.5,0,2.6-0.5,3.3-1.5c0.8-1,1.1-2.4,1.1-4.3c0-1.9-0.4-3.3-1.1-4.3c-0.8-1-1.9-1.5-3.4-1.5
			c-1.5,0-2.6,0.5-3.3,1.4C344.5,203,344.1,204.4,344.1,206.3z"/>
		<path d="M361.3,199v9.6c0,1.2,0.3,2.1,0.8,2.7s1.4,0.9,2.6,0.9c1.5,0,2.7-0.4,3.4-1.3c0.7-0.8,1.1-2.2,1.1-4.1V199h2.2v14.7h-1.8
			l-0.3-2h-0.1c-0.5,0.7-1.1,1.3-1.9,1.7c-0.8,0.4-1.7,0.6-2.8,0.6c-1.8,0-3.1-0.4-4-1.3c-0.9-0.9-1.3-2.2-1.3-4.1V199H361.3z"/>
		<path d="M382.8,198.7c0.7,0,1.2,0.1,1.8,0.2l-0.3,2.1c-0.6-0.1-1.1-0.2-1.6-0.2c-1.2,0-2.2,0.5-3.1,1.5s-1.3,2.2-1.3,3.6v7.9h-2.2
			V199h1.8l0.3,2.7h0.1c0.5-1,1.2-1.7,2-2.2S381.9,198.7,382.8,198.7z"/>
		<path d="M393.3,214c-2.1,0-3.8-0.7-5-2c-1.2-1.3-1.8-3.2-1.8-5.6c0-2.5,0.6-4.4,1.8-5.7s2.9-2,5.1-2c0.7,0,1.4,0.1,2.1,0.2
			c0.7,0.2,1.3,0.3,1.7,0.5l-0.7,1.9c-0.5-0.2-1-0.4-1.6-0.5c-0.6-0.1-1.1-0.2-1.5-0.2c-3,0-4.5,1.9-4.5,5.7c0,1.8,0.4,3.2,1.1,4.2
			c0.7,1,1.8,1.5,3.2,1.5c1.2,0,2.5-0.3,3.8-0.8v2C396,213.7,394.8,214,393.3,214z"/>
		<path d="M406.7,214c-2.2,0-3.9-0.7-5.2-2c-1.3-1.3-1.9-3.2-1.9-5.5c0-2.4,0.6-4.3,1.8-5.7c1.2-1.4,2.7-2.1,4.7-2.1
			c1.8,0,3.3,0.6,4.4,1.8s1.6,2.8,1.6,4.8v1.4H402c0,1.7,0.5,3,1.3,3.9c0.8,0.9,2,1.3,3.5,1.3c1.6,0,3.2-0.3,4.7-1v2
			c-0.8,0.3-1.5,0.6-2.2,0.7C408.5,213.9,407.7,214,406.7,214z M406.1,200.6c-1.2,0-2.1,0.4-2.8,1.2c-0.7,0.8-1.1,1.8-1.2,3.2h7.7
			c0-1.4-0.3-2.5-0.9-3.2C408.2,200.9,407.3,200.6,406.1,200.6z"/>
		<path d="M435.9,199.8c0,2-0.7,3.5-2,4.6c-1.4,1.1-3.3,1.6-5.8,1.6h-2.3v7.7h-2.3V194h5.1C433.4,194,435.9,195.9,435.9,199.8z
			 M425.7,204h2.1c2,0,3.5-0.3,4.4-1c0.9-0.7,1.4-1.7,1.4-3.1c0-1.3-0.4-2.3-1.3-2.9c-0.9-0.6-2.2-1-4-1h-2.6V204z"/>
		<path d="M452.4,206.3c0,2.4-0.6,4.3-1.8,5.6s-2.9,2-5,2c-1.3,0-2.5-0.3-3.5-0.9c-1-0.6-1.8-1.5-2.4-2.7c-0.6-1.2-0.8-2.5-0.8-4.1
			c0-2.4,0.6-4.3,1.8-5.6c1.2-1.3,2.9-2,5-2c2.1,0,3.7,0.7,4.9,2.1S452.4,204,452.4,206.3z M441.2,206.3c0,1.9,0.4,3.3,1.1,4.3
			c0.8,1,1.9,1.5,3.3,1.5c1.5,0,2.6-0.5,3.3-1.5c0.8-1,1.1-2.4,1.1-4.3c0-1.9-0.4-3.3-1.1-4.3c-0.8-1-1.9-1.5-3.4-1.5
			c-1.5,0-2.6,0.5-3.3,1.4C441.5,203,441.2,204.4,441.2,206.3z"/>
		<path d="M463,198.7c0.7,0,1.2,0.1,1.8,0.2l-0.3,2.1c-0.6-0.1-1.1-0.2-1.6-0.2c-1.2,0-2.2,0.5-3.1,1.5s-1.3,2.2-1.3,3.6v7.9h-2.2
			V199h1.8l0.3,2.7h0.1c0.5-1,1.2-1.7,2-2.2S462.1,198.7,463,198.7z"/>
		<path d="M472.3,212.1c0.4,0,0.8,0,1.1-0.1s0.7-0.1,0.9-0.2v1.7c-0.2,0.1-0.6,0.2-1.1,0.3c-0.5,0.1-0.9,0.1-1.3,0.1
			c-2.9,0-4.3-1.5-4.3-4.5v-8.8h-2.1v-1.1l2.1-0.9l0.9-3.1h1.3v3.4h4.3v1.7h-4.3v8.7c0,0.9,0.2,1.6,0.6,2
			C471,211.9,471.6,212.1,472.3,212.1z"/>
	</g>
	<g>
		<path class="st0" d="M600.2,304.4H199.8c-9.2,0-16.7-7.5-16.7-16.7v-26.6c0-9.2,7.5-16.7,16.7-16.7h400.4
			c9.2,0,16.7,7.5,16.7,16.7v26.6C616.9,297,609.4,304.4,600.2,304.4z"/>
		<path d="M600.2,304.9H199.8c-9.5,0-17.2-7.7-17.2-17.2v-26.6c0-9.5,7.7-17.2,17.2-17.2h400.4c9.5,0,17.2,7.7,17.2,17.2v26.6
			C617.4,297.2,609.7,304.9,600.2,304.9z M199.8,245c-8.9,0-16.2,7.3-16.2,16.2v26.6c0,8.9,7.3,16.2,16.2,16.2h400.4
			c8.9,0,16.2-7.3,16.2-16.2v-26.6c0-8.9-7.3-16.2-16.2-16.2H199.8z"/>
	</g>
	<g>
		<path d="M313.8,272.5c0,3.2-0.9,5.7-2.6,7.4s-4.3,2.6-7.6,2.6h-5.4v-19.7h6c3.1,0,5.4,0.8,7.1,2.5S313.8,269.5,313.8,272.5z
			 M311.4,272.6c0-2.6-0.6-4.5-1.9-5.8c-1.3-1.3-3.2-1.9-5.7-1.9h-3.3v15.7h2.8c2.7,0,4.8-0.7,6.1-2
			C310.7,277.2,311.4,275.2,311.4,272.6z"/>
		<path d="M324.1,282.8c-2.2,0-3.9-0.7-5.2-2c-1.3-1.3-1.9-3.2-1.9-5.5c0-2.4,0.6-4.3,1.8-5.7c1.2-1.4,2.7-2.1,4.7-2.1
			c1.8,0,3.3,0.6,4.4,1.8s1.6,2.8,1.6,4.8v1.4h-10.2c0,1.7,0.5,3,1.3,3.9c0.8,0.9,2,1.3,3.5,1.3c1.6,0,3.2-0.3,4.7-1v2
			c-0.8,0.3-1.5,0.6-2.2,0.7C325.9,282.7,325.1,282.8,324.1,282.8z M323.5,269.4c-1.2,0-2.1,0.4-2.8,1.2c-0.7,0.8-1.1,1.8-1.2,3.2
			h7.7c0-1.4-0.3-2.5-0.9-3.2C325.6,269.8,324.7,269.4,323.5,269.4z"/>
		<path d="M342.8,278.5c0,1.4-0.5,2.4-1.5,3.2s-2.5,1.1-4.3,1.1c-2,0-3.5-0.3-4.6-0.9v-2.1c0.7,0.4,1.5,0.6,2.3,0.8
			c0.8,0.2,1.6,0.3,2.3,0.3c1.2,0,2.1-0.2,2.7-0.6c0.6-0.4,0.9-0.9,0.9-1.7c0-0.6-0.2-1.1-0.7-1.5c-0.5-0.4-1.5-0.9-2.9-1.4
			c-1.4-0.5-2.3-1-2.9-1.3c-0.6-0.4-1-0.8-1.3-1.3c-0.3-0.5-0.4-1.1-0.4-1.7c0-1.2,0.5-2.1,1.5-2.8s2.3-1,4-1c1.6,0,3.1,0.3,4.7,1
			l-0.8,1.8c-1.5-0.6-2.8-0.9-4-0.9c-1.1,0-1.9,0.2-2.4,0.5c-0.5,0.3-0.8,0.8-0.8,1.4c0,0.4,0.1,0.7,0.3,1s0.5,0.5,1,0.8
			s1.3,0.6,2.6,1.1c1.7,0.6,2.9,1.3,3.5,1.9C342.5,276.7,342.8,277.5,342.8,278.5z"/>
		<path d="M351.2,280.9c0.4,0,0.8,0,1.1-0.1s0.7-0.1,0.9-0.2v1.7c-0.2,0.1-0.6,0.2-1.1,0.3c-0.5,0.1-0.9,0.1-1.3,0.1
			c-2.9,0-4.3-1.5-4.3-4.5v-8.8h-2.1v-1.1l2.1-0.9l0.9-3.1h1.3v3.4h4.3v1.7h-4.3v8.7c0,0.9,0.2,1.6,0.6,2
			C349.9,280.7,350.5,280.9,351.2,280.9z"/>
		<path d="M356,263.8c0-0.5,0.1-0.9,0.4-1.1c0.3-0.2,0.6-0.4,0.9-0.4c0.4,0,0.7,0.1,0.9,0.4c0.3,0.2,0.4,0.6,0.4,1.1
			s-0.1,0.9-0.4,1.1c-0.3,0.2-0.6,0.4-0.9,0.4c-0.4,0-0.7-0.1-0.9-0.4C356.1,264.7,356,264.3,356,263.8z M358.4,282.5h-2.2v-14.7
			h2.2V282.5z"/>
		<path d="M373.2,282.5V273c0-1.2-0.3-2.1-0.8-2.7s-1.4-0.9-2.6-0.9c-1.5,0-2.7,0.4-3.4,1.3c-0.7,0.8-1.1,2.2-1.1,4.1v7.7h-2.2
			v-14.7h1.8l0.4,2h0.1c0.5-0.7,1.1-1.3,1.9-1.7s1.7-0.6,2.8-0.6c1.8,0,3.1,0.4,4,1.3c0.9,0.9,1.3,2.2,1.3,4.1v9.6H373.2z"/>
		<path d="M389.1,282.5l-0.4-2.1h-0.1c-0.7,0.9-1.5,1.5-2.2,1.9s-1.6,0.5-2.7,0.5c-1.5,0-2.6-0.4-3.4-1.1c-0.8-0.8-1.2-1.8-1.2-3.2
			c0-3,2.4-4.5,7.1-4.7l2.5-0.1v-0.9c0-1.2-0.2-2-0.7-2.6s-1.3-0.8-2.4-0.8c-1.2,0-2.6,0.4-4.2,1.1l-0.7-1.7
			c0.7-0.4,1.5-0.7,2.4-0.9c0.9-0.2,1.7-0.3,2.6-0.3c1.8,0,3.1,0.4,3.9,1.2c0.8,0.8,1.3,2,1.3,3.8v10.1H389.1z M384.1,280.9
			c1.4,0,2.5-0.4,3.3-1.1c0.8-0.8,1.2-1.8,1.2-3.2v-1.3l-2.2,0.1c-1.8,0.1-3.1,0.3-3.8,0.8c-0.8,0.5-1.2,1.2-1.2,2.3
			c0,0.8,0.2,1.4,0.7,1.8C382.5,280.7,383.2,280.9,384.1,280.9z"/>
		<path d="M400.1,280.9c0.4,0,0.8,0,1.1-0.1s0.7-0.1,0.9-0.2v1.7c-0.2,0.1-0.6,0.2-1.1,0.3c-0.5,0.1-0.9,0.1-1.3,0.1
			c-2.9,0-4.3-1.5-4.3-4.5v-8.8h-2.1v-1.1l2.1-0.9l0.9-3.1h1.3v3.4h4.3v1.7h-4.3v8.7c0,0.9,0.2,1.6,0.6,2
			C398.8,280.7,399.4,280.9,400.1,280.9z"/>
		<path d="M404.9,263.8c0-0.5,0.1-0.9,0.4-1.1c0.3-0.2,0.6-0.4,0.9-0.4c0.4,0,0.7,0.1,0.9,0.4c0.3,0.2,0.4,0.6,0.4,1.1
			s-0.1,0.9-0.4,1.1c-0.3,0.2-0.6,0.4-0.9,0.4c-0.4,0-0.7-0.1-0.9-0.4C405,264.7,404.9,264.3,404.9,263.8z M407.3,282.5h-2.2v-14.7
			h2.2V282.5z"/>
		<path d="M424.8,275.1c0,2.4-0.6,4.3-1.8,5.6s-2.9,2-5,2c-1.3,0-2.5-0.3-3.5-0.9c-1-0.6-1.8-1.5-2.4-2.7c-0.6-1.2-0.8-2.5-0.8-4.1
			c0-2.4,0.6-4.3,1.8-5.6c1.2-1.3,2.9-2,5-2c2.1,0,3.7,0.7,4.9,2.1S424.8,272.8,424.8,275.1z M413.6,275.1c0,1.9,0.4,3.3,1.1,4.3
			c0.8,1,1.9,1.5,3.3,1.5c1.5,0,2.6-0.5,3.3-1.5c0.8-1,1.1-2.4,1.1-4.3c0-1.9-0.4-3.3-1.1-4.3c-0.8-1-1.9-1.5-3.4-1.5
			c-1.5,0-2.6,0.5-3.3,1.4C413.9,271.8,413.6,273.2,413.6,275.1z"/>
		<path d="M438.8,282.5V273c0-1.2-0.3-2.1-0.8-2.7s-1.4-0.9-2.6-0.9c-1.5,0-2.7,0.4-3.4,1.3c-0.7,0.8-1.1,2.2-1.1,4.1v7.7h-2.2
			v-14.7h1.8l0.4,2h0.1c0.5-0.7,1.1-1.3,1.9-1.7s1.7-0.6,2.8-0.6c1.8,0,3.1,0.4,4,1.3c0.9,0.9,1.3,2.2,1.3,4.1v9.6H438.8z"/>
		<path d="M465.6,268.6c0,2-0.7,3.5-2,4.6c-1.4,1.1-3.3,1.6-5.8,1.6h-2.3v7.7h-2.3v-19.7h5.1C463.1,262.9,465.6,264.8,465.6,268.6z
			 M455.4,272.8h2.1c2,0,3.5-0.3,4.4-1c0.9-0.7,1.4-1.7,1.4-3.1c0-1.3-0.4-2.3-1.3-2.9c-0.9-0.6-2.2-1-4-1h-2.6V272.8z"/>
		<path d="M482.1,275.1c0,2.4-0.6,4.3-1.8,5.6s-2.9,2-5,2c-1.3,0-2.5-0.3-3.5-0.9c-1-0.6-1.8-1.5-2.4-2.7c-0.6-1.2-0.8-2.5-0.8-4.1
			c0-2.4,0.6-4.3,1.8-5.6c1.2-1.3,2.9-2,5-2c2.1,0,3.7,0.7,4.9,2.1S482.1,272.8,482.1,275.1z M470.8,275.1c0,1.9,0.4,3.3,1.1,4.3
			c0.8,1,1.9,1.5,3.3,1.5c1.5,0,2.6-0.5,3.3-1.5c0.8-1,1.1-2.4,1.1-4.3c0-1.9-0.4-3.3-1.1-4.3c-0.8-1-1.9-1.5-3.4-1.5
			c-1.5,0-2.6,0.5-3.3,1.4C471.2,271.8,470.8,273.2,470.8,275.1z"/>
		<path d="M492.7,267.5c0.7,0,1.2,0.1,1.8,0.2l-0.3,2.1c-0.6-0.1-1.1-0.2-1.6-0.2c-1.2,0-2.2,0.5-3.1,1.5s-1.3,2.2-1.3,3.6v7.9H486
			v-14.7h1.8l0.3,2.7h0.1c0.5-1,1.2-1.7,2-2.2S491.8,267.5,492.7,267.5z"/>
		<path d="M502,280.9c0.4,0,0.8,0,1.1-0.1c0.4-0.1,0.7-0.1,0.9-0.2v1.7c-0.2,0.1-0.6,0.2-1.1,0.3c-0.5,0.1-0.9,0.1-1.3,0.1
			c-2.9,0-4.3-1.5-4.3-4.5v-8.8h-2.1v-1.1l2.1-0.9l0.9-3.1h1.3v3.4h4.3v1.7h-4.3v8.7c0,0.9,0.2,1.6,0.6,2
			C500.7,280.7,501.2,280.9,502,280.9z"/>
	</g>
	<g>
		<path d="M314.9,75.9h-4.3V53.4h-7.7v-3.7h19.7v3.7h-7.7V75.9z"/>
		<path d="M337.9,53c-2.5,0-4.4,0.9-5.8,2.6c-1.4,1.7-2.1,4.2-2.1,7.2c0,3.2,0.7,5.7,2,7.3c1.4,1.7,3.3,2.5,5.9,2.5
			c1.1,0,2.2-0.1,3.2-0.3c1-0.2,2.1-0.5,3.3-0.9v3.7c-2.1,0.8-4.4,1.2-7,1.2c-3.8,0-6.8-1.2-8.9-3.5c-2.1-2.3-3.1-5.7-3.1-10
			c0-2.7,0.5-5.1,1.5-7.2c1-2,2.4-3.6,4.3-4.7c1.9-1.1,4.1-1.6,6.7-1.6c2.7,0,5.2,0.6,7.4,1.7l-1.5,3.6c-0.9-0.4-1.8-0.8-2.8-1.1
			S339,53,337.9,53z"/>
		<path d="M367.4,57.6c0,2.7-0.9,4.8-2.7,6.3c-1.8,1.5-4.4,2.2-7.7,2.2h-2.7v9.8H350V49.7h7.6c3.3,0,5.7,0.7,7.4,2
			S367.4,55,367.4,57.6z M354.3,62.5h2.3c2.2,0,3.8-0.4,4.8-1.1c1-0.8,1.5-2,1.5-3.6c0-1.5-0.5-2.6-1.4-3.4
			c-0.9-0.7-2.4-1.1-4.3-1.1h-3V62.5z"/>
		<path d="M399.6,57.6c0,2.7-0.9,4.8-2.7,6.3c-1.8,1.5-4.4,2.2-7.7,2.2h-2.7v9.8h-4.3V49.7h7.6c3.3,0,5.7,0.7,7.4,2
			S399.6,55,399.6,57.6z M386.5,62.5h2.3c2.2,0,3.8-0.4,4.8-1.1c1-0.8,1.5-2,1.5-3.6c0-1.5-0.5-2.6-1.4-3.4
			c-0.9-0.7-2.4-1.1-4.3-1.1h-3V62.5z"/>
		<path d="M416.8,75.9l-0.8-2.8h-0.1c-1,1.2-1.9,2-2.9,2.5s-2.2,0.7-3.7,0.7c-2,0-3.5-0.5-4.6-1.6s-1.6-2.5-1.6-4.5
			c0-2,0.8-3.6,2.3-4.6c1.5-1,3.8-1.6,7-1.7l3.4-0.1v-1.1c0-1.3-0.3-2.2-0.9-2.8c-0.6-0.6-1.5-0.9-2.8-0.9c-1,0-2,0.1-2.9,0.4
			c-0.9,0.3-1.8,0.7-2.7,1.1l-1.4-3c1.1-0.6,2.3-1,3.5-1.3c1.3-0.3,2.5-0.4,3.6-0.4c2.5,0,4.4,0.6,5.7,1.7c1.3,1.1,1.9,2.8,1.9,5.2
			v13.4H416.8z M410.5,73.1c1.5,0,2.8-0.4,3.7-1.3c0.9-0.9,1.4-2.1,1.4-3.6v-1.7l-2.6,0.1c-2,0.1-3.4,0.4-4.3,1
			c-0.9,0.6-1.4,1.5-1.4,2.7c0,0.9,0.3,1.6,0.8,2.1S409.5,73.1,410.5,73.1z"/>
		<path d="M433.7,76.3c-3,0-5.3-0.9-6.9-2.6c-1.6-1.8-2.3-4.3-2.3-7.6c0-3.3,0.8-5.9,2.5-7.7c1.6-1.8,4-2.7,7.1-2.7
			c2.1,0,4,0.4,5.7,1.2l-1.3,3.4c-1.8-0.7-3.3-1-4.4-1c-3.4,0-5.2,2.3-5.2,6.8c0,2.2,0.4,3.9,1.3,5c0.9,1.1,2.1,1.7,3.8,1.7
			c1.9,0,3.7-0.5,5.3-1.4v3.7c-0.8,0.4-1.6,0.8-2.4,1S434.9,76.3,433.7,76.3z"/>
		<path d="M448,65.5l2.4-3l6-6.4h4.9l-8,8.5l8.5,11.3h-5l-6.4-8.7l-2.3,1.9v6.8h-4.2V48h4.2v13.6l-0.2,3.8H448z"/>
		<path d="M473.6,76.3c-3.1,0-5.5-0.9-7.2-2.7s-2.6-4.3-2.6-7.4c0-3.2,0.8-5.8,2.4-7.7c1.6-1.9,3.8-2.8,6.7-2.8
			c2.6,0,4.7,0.8,6.2,2.4c1.5,1.6,2.3,3.8,2.3,6.6V67h-13.2c0.1,1.9,0.6,3.4,1.6,4.4c1,1,2.4,1.6,4.1,1.6c1.2,0,2.3-0.1,3.3-0.3
			c1-0.2,2.1-0.6,3.3-1.1V75c-1,0.5-2.1,0.8-3.1,1C476.2,76.2,475,76.3,473.6,76.3z M472.9,58.9c-1.3,0-2.4,0.4-3.2,1.3
			s-1.3,2.1-1.4,3.7h9c0-1.6-0.4-2.9-1.2-3.7C475.3,59.3,474.2,58.9,472.9,58.9z"/>
		<path d="M493.5,72.9c1,0,2.1-0.2,3.1-0.5v3.2c-0.5,0.2-1.1,0.4-1.8,0.5c-0.7,0.1-1.5,0.2-2.3,0.2c-4,0-6-2.1-6-6.3V59.3h-2.7v-1.9
			l2.9-1.5l1.4-4.2h2.6v4.4h5.7v3.2h-5.7v10.6c0,1,0.3,1.8,0.8,2.3S492.7,72.9,493.5,72.9z"/>
	</g>
	<g>
		<path class="st0" d="M600.2,372.7H199.8c-9.2,0-16.7-7.5-16.7-16.7v-26.6c0-9.2,7.5-16.7,16.7-16.7h400.4
			c9.2,0,16.7,7.5,16.7,16.7v26.6C616.9,365.3,609.4,372.7,600.2,372.7z"/>
		<path d="M600.2,373.2H199.8c-9.5,0-17.2-7.7-17.2-17.2v-26.6c0-9.5,7.7-17.2,17.2-17.2h400.4c9.5,0,17.2,7.7,17.2,17.2v26.6
			C617.4,365.5,609.7,373.2,600.2,373.2z M199.8,313.3c-8.9,0-16.2,7.3-16.2,16.2v26.6c0,8.9,7.3,16.2,16.2,16.2h400.4
			c8.9,0,16.2-7.3,16.2-16.2v-26.6c0-8.9-7.3-16.2-16.2-16.2H199.8z"/>
	</g>
	<g>
		<path d="M294.2,345.6c0,1.7-0.6,3.1-1.9,4c-1.3,1-3,1.5-5.1,1.5c-2.3,0-4.1-0.3-5.4-0.9V348c0.8,0.3,1.7,0.6,2.6,0.8
			c1,0.2,1.9,0.3,2.8,0.3c1.5,0,2.7-0.3,3.4-0.9s1.2-1.4,1.2-2.4c0-0.7-0.1-1.2-0.4-1.7s-0.7-0.8-1.4-1.2s-1.6-0.8-2.9-1.3
			c-1.8-0.7-3.1-1.4-3.9-2.3c-0.8-0.9-1.2-2.1-1.2-3.5c0-1.5,0.6-2.7,1.7-3.6s2.6-1.3,4.5-1.3c2,0,3.8,0.4,5.4,1.1l-0.7,2
			c-1.6-0.7-3.2-1-4.7-1c-1.2,0-2.2,0.3-2.8,0.8c-0.7,0.5-1,1.2-1,2.2c0,0.7,0.1,1.2,0.4,1.7c0.3,0.4,0.7,0.8,1.3,1.2
			c0.6,0.4,1.5,0.8,2.7,1.2c2.1,0.7,3.5,1.5,4.3,2.4C293.8,343.2,294.2,344.3,294.2,345.6z"/>
		<path d="M304.1,351.1c-2.2,0-3.9-0.7-5.2-2c-1.3-1.3-1.9-3.2-1.9-5.5c0-2.4,0.6-4.3,1.8-5.7c1.2-1.4,2.7-2.1,4.7-2.1
			c1.8,0,3.3,0.6,4.4,1.8s1.6,2.8,1.6,4.8v1.4h-10.2c0,1.7,0.5,3,1.3,3.9c0.8,0.9,2,1.3,3.5,1.3c1.6,0,3.2-0.3,4.7-1v2
			c-0.8,0.3-1.5,0.6-2.2,0.7C305.9,351.1,305.1,351.1,304.1,351.1z M303.5,337.7c-1.2,0-2.1,0.4-2.8,1.2c-0.7,0.8-1.1,1.8-1.2,3.2
			h7.7c0-1.4-0.3-2.5-0.9-3.2C305.5,338.1,304.6,337.7,303.5,337.7z"/>
		<path d="M318.5,351.1c-1.9,0-3.4-0.7-4.5-2c-1.1-1.3-1.6-3.2-1.6-5.6c0-2.4,0.5-4.3,1.6-5.6s2.6-2,4.5-2c2,0,3.6,0.8,4.7,2.3h0.1
			l0.3-2h1.8v21.4h-2.2v-6.3c0-0.9,0-1.7,0.1-2.3h-0.2C322.2,350.4,320.6,351.1,318.5,351.1z M318.9,349.3c1.5,0,2.6-0.4,3.3-1.2
			s1-2.1,1.1-4v-0.5c0-2.1-0.3-3.5-1-4.5c-0.7-0.9-1.8-1.4-3.3-1.4c-1.3,0-2.3,0.5-3,1.5c-0.7,1-1,2.5-1,4.3c0,1.9,0.3,3.3,1,4.2
			C316.5,348.8,317.5,349.3,318.9,349.3z"/>
		<path d="M332.3,336.1v9.6c0,1.2,0.3,2.1,0.8,2.7s1.4,0.9,2.6,0.9c1.5,0,2.7-0.4,3.4-1.3c0.7-0.8,1.1-2.2,1.1-4.1v-7.7h2.2v14.7
			h-1.8l-0.3-2h-0.1c-0.5,0.7-1.1,1.3-1.9,1.7c-0.8,0.4-1.7,0.6-2.8,0.6c-1.8,0-3.1-0.4-4-1.3c-0.9-0.9-1.3-2.2-1.3-4.1v-9.6H332.3z
			"/>
		<path d="M353.3,351.1c-2.2,0-3.9-0.7-5.2-2c-1.3-1.3-1.9-3.2-1.9-5.5c0-2.4,0.6-4.3,1.8-5.7c1.2-1.4,2.7-2.1,4.7-2.1
			c1.8,0,3.3,0.6,4.4,1.8s1.6,2.8,1.6,4.8v1.4h-10.2c0,1.7,0.5,3,1.3,3.9c0.8,0.9,2,1.3,3.5,1.3c1.6,0,3.2-0.3,4.7-1v2
			c-0.8,0.3-1.5,0.6-2.2,0.7C355.1,351.1,354.3,351.1,353.3,351.1z M352.7,337.7c-1.2,0-2.1,0.4-2.8,1.2c-0.7,0.8-1.1,1.8-1.2,3.2
			h7.7c0-1.4-0.3-2.5-0.9-3.2C354.8,338.1,353.9,337.7,352.7,337.7z"/>
		<path d="M372.6,350.9v-9.5c0-1.2-0.3-2.1-0.8-2.7s-1.4-0.9-2.6-0.9c-1.5,0-2.7,0.4-3.4,1.3c-0.7,0.8-1.1,2.2-1.1,4.1v7.7h-2.2
			v-14.7h1.8l0.4,2h0.1c0.5-0.7,1.1-1.3,1.9-1.7s1.7-0.6,2.8-0.6c1.8,0,3.1,0.4,4,1.3c0.9,0.9,1.3,2.2,1.3,4.1v9.6H372.6z"/>
		<path d="M385.3,351.1c-2.1,0-3.8-0.7-5-2c-1.2-1.3-1.8-3.2-1.8-5.6c0-2.5,0.6-4.4,1.8-5.7s2.9-2,5.1-2c0.7,0,1.4,0.1,2.1,0.2
			c0.7,0.2,1.3,0.3,1.7,0.5l-0.7,1.9c-0.5-0.2-1-0.4-1.6-0.5c-0.6-0.1-1.1-0.2-1.5-0.2c-3,0-4.5,1.9-4.5,5.7c0,1.8,0.4,3.2,1.1,4.2
			c0.7,1,1.8,1.5,3.2,1.5c1.2,0,2.5-0.3,3.8-0.8v2C388.1,350.9,386.8,351.1,385.3,351.1z"/>
		<path d="M398.8,351.1c-2.2,0-3.9-0.7-5.2-2c-1.3-1.3-1.9-3.2-1.9-5.5c0-2.4,0.6-4.3,1.8-5.7c1.2-1.4,2.7-2.1,4.7-2.1
			c1.8,0,3.3,0.6,4.4,1.8s1.6,2.8,1.6,4.8v1.4H394c0,1.7,0.5,3,1.3,3.9c0.8,0.9,2,1.3,3.5,1.3c1.6,0,3.2-0.3,4.7-1v2
			c-0.8,0.3-1.5,0.6-2.2,0.7C400.6,351.1,399.8,351.1,398.8,351.1z M398.2,337.7c-1.2,0-2.1,0.4-2.8,1.2c-0.7,0.8-1.1,1.8-1.2,3.2
			h7.7c0-1.4-0.3-2.5-0.9-3.2C400.2,338.1,399.3,337.7,398.2,337.7z"/>
		<path d="M430.8,350.9h-2.6l-10.7-16.5h-0.1c0.1,1.9,0.2,3.7,0.2,5.3v11.2h-2.1v-19.7h2.6l10.7,16.4h0.1c0-0.2-0.1-1-0.1-2.3
			c-0.1-1.3-0.1-2.3-0.1-2.8v-11.3h2.1V350.9z"/>
		<path d="M438,336.1v9.6c0,1.2,0.3,2.1,0.8,2.7s1.4,0.9,2.6,0.9c1.5,0,2.7-0.4,3.4-1.3c0.7-0.8,1.1-2.2,1.1-4.1v-7.7h2.2v14.7h-1.8
			l-0.3-2h-0.1c-0.5,0.7-1.1,1.3-1.9,1.7c-0.8,0.4-1.7,0.6-2.8,0.6c-1.8,0-3.1-0.4-4-1.3c-0.9-0.9-1.3-2.2-1.3-4.1v-9.6H438z"/>
		<path d="M471.6,350.9v-9.6c0-1.2-0.3-2.1-0.8-2.6c-0.5-0.6-1.3-0.9-2.3-0.9c-1.4,0-2.4,0.4-3.1,1.2c-0.7,0.8-1,2-1,3.7v8.2h-2.2
			v-9.6c0-1.2-0.3-2.1-0.8-2.6c-0.5-0.6-1.3-0.9-2.4-0.9c-1.4,0-2.4,0.4-3.1,1.3c-0.6,0.8-1,2.2-1,4.1v7.7h-2.2v-14.7h1.8l0.4,2h0.1
			c0.4-0.7,1-1.3,1.8-1.7c0.8-0.4,1.6-0.6,2.6-0.6c2.3,0,3.8,0.8,4.5,2.5h0.1c0.4-0.8,1.1-1.4,1.9-1.8c0.8-0.4,1.8-0.7,2.9-0.7
			c1.7,0,2.9,0.4,3.7,1.3c0.8,0.9,1.2,2.2,1.2,4.1v9.6H471.6z"/>
		<path d="M485.3,335.9c1.9,0,3.4,0.7,4.5,2c1.1,1.3,1.6,3.2,1.6,5.6c0,2.4-0.5,4.3-1.6,5.6c-1.1,1.3-2.6,2-4.5,2
			c-1,0-1.8-0.2-2.6-0.5c-0.8-0.4-1.5-0.9-2-1.6h-0.2l-0.5,1.9h-1.6v-20.9h2.2v5.1c0,1.1,0,2.2-0.1,3.1h0.1
			C481.7,336.6,483.2,335.9,485.3,335.9z M485,337.7c-1.5,0-2.6,0.4-3.3,1.3c-0.7,0.9-1,2.3-1,4.4c0,2.1,0.3,3.6,1,4.4
			c0.7,0.9,1.8,1.3,3.3,1.3c1.4,0,2.4-0.5,3.1-1.5s1-2.4,1-4.3c0-1.9-0.3-3.3-1-4.3S486.4,337.7,485,337.7z"/>
		<path d="M501.5,351.1c-2.2,0-3.9-0.7-5.2-2c-1.3-1.3-1.9-3.2-1.9-5.5c0-2.4,0.6-4.3,1.8-5.7c1.2-1.4,2.7-2.1,4.7-2.1
			c1.8,0,3.3,0.6,4.4,1.8s1.6,2.8,1.6,4.8v1.4h-10.2c0,1.7,0.5,3,1.3,3.9c0.8,0.9,2,1.3,3.5,1.3c1.6,0,3.2-0.3,4.7-1v2
			c-0.8,0.3-1.5,0.6-2.2,0.7C503.4,351.1,502.5,351.1,501.5,351.1z M500.9,337.7c-1.2,0-2.1,0.4-2.8,1.2c-0.7,0.8-1.1,1.8-1.2,3.2
			h7.7c0-1.4-0.3-2.5-0.9-3.2C503,338.1,502.1,337.7,500.9,337.7z"/>
		<path d="M517.5,335.8c0.7,0,1.2,0.1,1.8,0.2l-0.3,2.1c-0.6-0.1-1.1-0.2-1.6-0.2c-1.2,0-2.2,0.5-3.1,1.5c-0.8,1-1.3,2.2-1.3,3.6
			v7.9h-2.2v-14.7h1.8l0.3,2.7h0.1c0.5-1,1.2-1.7,2-2.2C515.7,336.1,516.6,335.8,517.5,335.8z"/>
	</g>
	<g>
		<path class="st0" d="M600.2,441.1H199.8c-9.2,0-16.7-7.5-16.7-16.7v-26.6c0-9.2,7.5-16.7,16.7-16.7h400.4
			c9.2,0,16.7,7.5,16.7,16.7v26.6C616.9,433.6,609.4,441.1,600.2,441.1z"/>
		<path d="M600.2,441.6H199.8c-9.5,0-17.2-7.7-17.2-17.2v-26.6c0-9.5,7.7-17.2,17.2-17.2h400.4c9.5,0,17.2,7.7,17.2,17.2v26.6
			C617.4,433.9,609.7,441.6,600.2,441.6z M199.8,381.7c-8.9,0-16.2,7.3-16.2,16.2v26.6c0,8.9,7.3,16.2,16.2,16.2h400.4
			c8.9,0,16.2-7.3,16.2-16.2v-26.6c0-8.9-7.3-16.2-16.2-16.2H199.8z"/>
	</g>
	<g>
		<path d="M332.2,419.2l-2.4-6.3h-7.9l-2.4,6.3h-2.3l7.8-19.7h1.9l7.7,19.7H332.2z M329,410.9l-2.3-6.1c-0.3-0.8-0.6-1.7-0.9-2.8
			c-0.2,0.9-0.5,1.8-0.8,2.8l-2.3,6.1H329z"/>
		<path d="M345.7,401.3c-2.2,0-3.9,0.7-5.1,2.2c-1.3,1.4-1.9,3.4-1.9,5.9c0,2.6,0.6,4.6,1.8,6c1.2,1.4,2.9,2.1,5.2,2.1
			c1.4,0,2.9-0.2,4.7-0.7v2c-1.4,0.5-3,0.8-5,0.8c-2.9,0-5.1-0.9-6.7-2.6s-2.4-4.3-2.4-7.5c0-2,0.4-3.8,1.1-5.3
			c0.8-1.5,1.9-2.7,3.3-3.5c1.4-0.8,3.1-1.2,5-1.2c2.1,0,3.9,0.4,5.4,1.1l-1,2C348.7,401.6,347.2,401.3,345.7,401.3z"/>
		<path d="M368.8,419.2h-2.7l-7.2-9.5l-2.1,1.8v7.7h-2.3v-19.7h2.3v9.8l8.9-9.8h2.7l-7.9,8.5L368.8,419.2z"/>
		<path d="M394.1,419.2h-2.6l-10.7-16.5h-0.1c0.1,1.9,0.2,3.7,0.2,5.3v11.2h-2.1v-19.7h2.6L392,416h0.1c0-0.2-0.1-1-0.1-2.3
			c-0.1-1.3-0.1-2.3-0.1-2.8v-11.3h2.1V419.2z"/>
		<path d="M401.2,404.5v9.6c0,1.2,0.3,2.1,0.8,2.7s1.4,0.9,2.6,0.9c1.5,0,2.7-0.4,3.4-1.3c0.7-0.8,1.1-2.2,1.1-4.1v-7.7h2.2v14.7
			h-1.8l-0.3-2H409c-0.5,0.7-1.1,1.3-1.9,1.7c-0.8,0.4-1.7,0.6-2.8,0.6c-1.8,0-3.1-0.4-4-1.3c-0.9-0.9-1.3-2.2-1.3-4.1v-9.6H401.2z"
			/>
		<path d="M434.8,419.2v-9.6c0-1.2-0.3-2.1-0.8-2.6c-0.5-0.6-1.3-0.9-2.3-0.9c-1.4,0-2.4,0.4-3.1,1.2c-0.7,0.8-1,2-1,3.7v8.2h-2.2
			v-9.6c0-1.2-0.3-2.1-0.8-2.6c-0.5-0.6-1.3-0.9-2.4-0.9c-1.4,0-2.4,0.4-3.1,1.3s-1,2.2-1,4.1v7.7H416v-14.7h1.8l0.4,2h0.1
			c0.4-0.7,1-1.3,1.8-1.7s1.6-0.6,2.6-0.6c2.3,0,3.8,0.8,4.5,2.5h0.1c0.4-0.8,1.1-1.4,1.9-1.8c0.8-0.4,1.8-0.7,2.9-0.7
			c1.7,0,2.9,0.4,3.7,1.3c0.8,0.9,1.2,2.2,1.2,4.1v9.6H434.8z"/>
		<path d="M448.5,404.2c1.9,0,3.4,0.7,4.5,2c1.1,1.3,1.6,3.2,1.6,5.6c0,2.4-0.5,4.3-1.6,5.6c-1.1,1.3-2.6,2-4.5,2
			c-1,0-1.8-0.2-2.6-0.5c-0.8-0.4-1.5-0.9-2-1.6h-0.2l-0.5,1.9h-1.6v-20.9h2.2v5.1c0,1.1,0,2.2-0.1,3.1h0.1
			C444.9,404.9,446.5,404.2,448.5,404.2z M448.2,406.1c-1.5,0-2.6,0.4-3.3,1.3s-1,2.3-1,4.4c0,2.1,0.3,3.6,1,4.4
			c0.7,0.9,1.8,1.3,3.3,1.3c1.4,0,2.4-0.5,3.1-1.5c0.7-1,1-2.4,1-4.3c0-1.9-0.3-3.3-1-4.3S449.6,406.1,448.2,406.1z"/>
		<path d="M464.8,419.5c-2.2,0-3.9-0.7-5.2-2c-1.3-1.3-1.9-3.2-1.9-5.5c0-2.4,0.6-4.3,1.8-5.7c1.2-1.4,2.7-2.1,4.7-2.1
			c1.8,0,3.3,0.6,4.4,1.8c1.1,1.2,1.6,2.8,1.6,4.8v1.4H460c0,1.7,0.5,3,1.3,3.9s2,1.3,3.5,1.3c1.6,0,3.2-0.3,4.7-1v2
			c-0.8,0.3-1.5,0.6-2.2,0.7C466.6,419.4,465.8,419.5,464.8,419.5z M464.2,406.1c-1.2,0-2.1,0.4-2.8,1.2c-0.7,0.8-1.1,1.8-1.2,3.2
			h7.7c0-1.4-0.3-2.5-0.9-3.2C466.2,406.4,465.3,406.1,464.2,406.1z"/>
		<path d="M480.7,404.2c0.7,0,1.2,0.1,1.8,0.2l-0.3,2.1c-0.6-0.1-1.1-0.2-1.6-0.2c-1.2,0-2.2,0.5-3.1,1.5c-0.8,1-1.3,2.2-1.3,3.6
			v7.9H474v-14.7h1.8l0.3,2.7h0.1c0.5-1,1.2-1.7,2-2.2S479.8,404.2,480.7,404.2z"/>
	</g>
	<g>
		<path class="st0" d="M600.2,509.9H199.8c-9.2,0-16.7-7.5-16.7-16.7v-26.6c0-9.2,7.5-16.7,16.7-16.7h400.4
			c9.2,0,16.7,7.5,16.7,16.7v26.6C616.9,502.5,609.4,509.9,600.2,509.9z"/>
		<path d="M600.2,510.4H199.8c-9.5,0-17.2-7.7-17.2-17.2v-26.6c0-9.5,7.7-17.2,17.2-17.2h400.4c9.5,0,17.2,7.7,17.2,17.2v26.6
			C617.4,502.7,609.7,510.4,600.2,510.4z M199.8,450.5c-8.9,0-16.2,7.3-16.2,16.2v26.6c0,8.9,7.3,16.2,16.2,16.2h400.4
			c8.9,0,16.2-7.3,16.2-16.2v-26.6c0-8.9-7.3-16.2-16.2-16.2H199.8z"/>
	</g>
	<g>
		<path d="M338.9,488h-2.3l-4-13.2c-0.2-0.6-0.4-1.3-0.6-2.2c-0.2-0.9-0.4-1.4-0.4-1.6c-0.2,1.2-0.5,2.5-0.9,3.9l-3.8,13.1h-2.3
			l-5.2-19.7h2.4l3.1,12.1c0.4,1.7,0.7,3.2,0.9,4.6c0.2-1.6,0.6-3.2,1.1-4.8l3.5-12h2.4l3.7,12.1c0.4,1.4,0.8,3,1.1,4.7
			c0.2-1.3,0.5-2.8,1-4.7l3.1-12.1h2.4L338.9,488z"/>
		<path d="M346.7,469.3c0-0.5,0.1-0.9,0.4-1.1s0.6-0.4,0.9-0.4c0.4,0,0.7,0.1,0.9,0.4s0.4,0.6,0.4,1.1s-0.1,0.9-0.4,1.1
			c-0.3,0.2-0.6,0.4-0.9,0.4c-0.4,0-0.7-0.1-0.9-0.4C346.9,470.2,346.7,469.8,346.7,469.3z M349.2,488h-2.2v-14.7h2.2V488z"/>
		<path d="M364,488v-9.5c0-1.2-0.3-2.1-0.8-2.7s-1.4-0.9-2.6-0.9c-1.5,0-2.7,0.4-3.4,1.3c-0.7,0.8-1.1,2.2-1.1,4.1v7.7h-2.2v-14.7
			h1.8l0.4,2h0.1c0.5-0.7,1.1-1.3,1.9-1.7c0.8-0.4,1.7-0.6,2.8-0.6c1.8,0,3.1,0.4,4,1.3s1.3,2.2,1.3,4.1v9.6H364z"/>
		<path d="M380.8,486h-0.1c-1,1.5-2.6,2.2-4.6,2.2c-1.9,0-3.4-0.7-4.5-2c-1.1-1.3-1.6-3.2-1.6-5.6c0-2.4,0.5-4.3,1.6-5.7
			c1.1-1.3,2.6-2,4.5-2c2,0,3.5,0.7,4.6,2.2h0.2l-0.1-1.1l-0.1-1v-6h2.2V488h-1.8L380.8,486z M376.4,486.4c1.5,0,2.6-0.4,3.3-1.2
			c0.7-0.8,1-2.2,1-4v-0.5c0-2.1-0.3-3.6-1-4.5c-0.7-0.9-1.8-1.3-3.3-1.3c-1.3,0-2.3,0.5-3,1.5c-0.7,1-1,2.5-1,4.3
			c0,1.9,0.3,3.3,1,4.3C374,485.9,375,486.4,376.4,486.4z"/>
		<path d="M400.4,480.6c0,2.4-0.6,4.3-1.8,5.6c-1.2,1.3-2.9,2-5,2c-1.3,0-2.5-0.3-3.5-0.9c-1-0.6-1.8-1.5-2.4-2.7
			c-0.6-1.2-0.8-2.5-0.8-4.1c0-2.4,0.6-4.3,1.8-5.6c1.2-1.3,2.9-2,5-2c2.1,0,3.7,0.7,4.9,2.1C399.8,476.4,400.4,478.3,400.4,480.6z
			 M389.2,480.6c0,1.9,0.4,3.3,1.1,4.3s1.9,1.5,3.3,1.5s2.6-0.5,3.3-1.5s1.1-2.4,1.1-4.3c0-1.9-0.4-3.3-1.1-4.3
			c-0.8-1-1.9-1.5-3.4-1.5c-1.5,0-2.6,0.5-3.3,1.4S389.2,478.7,389.2,480.6z"/>
		<path d="M416.3,488l-2.7-8.6c-0.2-0.5-0.5-1.7-1-3.6h-0.1c-0.4,1.6-0.7,2.8-0.9,3.6l-2.8,8.6h-2.6l-4-14.7h2.3
			c1,3.7,1.7,6.5,2.2,8.5c0.5,1.9,0.8,3.2,0.9,3.9h0.1c0.1-0.5,0.3-1.2,0.5-2s0.4-1.5,0.6-1.9l2.7-8.5h2.4l2.6,8.5
			c0.5,1.5,0.8,2.8,1,3.9h0.1c0-0.3,0.1-0.8,0.3-1.5c0.2-0.7,1.1-4.3,2.8-10.9h2.3L419,488H416.3z"/>
		<path d="M444.3,482.8c0,1.7-0.6,3.1-1.9,4c-1.3,1-3,1.5-5.1,1.5c-2.3,0-4.1-0.3-5.4-0.9v-2.2c0.8,0.3,1.7,0.6,2.6,0.8
			s1.9,0.3,2.8,0.3c1.5,0,2.7-0.3,3.4-0.9c0.8-0.6,1.2-1.4,1.2-2.4c0-0.7-0.1-1.2-0.4-1.7c-0.3-0.4-0.7-0.8-1.4-1.2
			c-0.6-0.4-1.6-0.8-2.9-1.3c-1.8-0.7-3.1-1.4-3.9-2.3c-0.8-0.9-1.2-2.1-1.2-3.5c0-1.5,0.6-2.7,1.7-3.6s2.6-1.3,4.5-1.3
			c2,0,3.8,0.4,5.4,1.1l-0.7,2c-1.6-0.7-3.2-1-4.7-1c-1.2,0-2.2,0.3-2.8,0.8s-1,1.2-1,2.2c0,0.7,0.1,1.2,0.4,1.7
			c0.3,0.4,0.7,0.8,1.3,1.2c0.6,0.4,1.5,0.8,2.7,1.2c2.1,0.7,3.5,1.5,4.3,2.4S444.3,481.4,444.3,482.8z"/>
		<path d="M447.8,469.3c0-0.5,0.1-0.9,0.4-1.1c0.3-0.2,0.6-0.4,0.9-0.4c0.4,0,0.7,0.1,0.9,0.4c0.3,0.2,0.4,0.6,0.4,1.1
			s-0.1,0.9-0.4,1.1c-0.3,0.2-0.6,0.4-0.9,0.4c-0.4,0-0.7-0.1-0.9-0.4C447.9,470.2,447.8,469.8,447.8,469.3z M450.2,488H448v-14.7
			h2.2V488z"/>
		<path d="M464.4,488h-10.7v-1.5l8-11.5h-7.5v-1.7h10v1.7l-7.9,11.3h8.1V488z"/>
		<path d="M474.1,488.3c-2.2,0-3.9-0.7-5.2-2c-1.3-1.3-1.9-3.2-1.9-5.5c0-2.4,0.6-4.3,1.8-5.7s2.7-2.1,4.7-2.1
			c1.8,0,3.3,0.6,4.4,1.8c1.1,1.2,1.6,2.8,1.6,4.8v1.4h-10.2c0,1.7,0.5,3,1.3,3.9s2,1.3,3.5,1.3c1.6,0,3.2-0.3,4.7-1v2
			c-0.8,0.3-1.5,0.6-2.2,0.7C475.9,488.2,475.1,488.3,474.1,488.3z M473.5,474.9c-1.2,0-2.1,0.4-2.8,1.2c-0.7,0.8-1.1,1.8-1.2,3.2
			h7.7c0-1.4-0.3-2.5-0.9-3.2C475.5,475.3,474.6,474.9,473.5,474.9z"/>
	</g>
	<g>
		<path class="st0" d="M600.2,578.7H199.8c-9.2,0-16.7-7.5-16.7-16.7v-26.6c0-9.2,7.5-16.7,16.7-16.7h400.4
			c9.2,0,16.7,7.5,16.7,16.7v26.6C616.9,571.3,609.4,578.7,600.2,578.7z"/>
		<path d="M600.2,579.2H199.8c-9.5,0-17.2-7.7-17.2-17.2v-26.6c0-9.5,7.7-17.2,17.2-17.2h400.4c9.5,0,17.2,7.7,17.2,17.2v26.6
			C617.4,571.5,609.7,579.2,600.2,579.2z M199.8,519.3c-8.9,0-16.2,7.3-16.2,16.2v26.6c0,8.9,7.3,16.2,16.2,16.2h400.4
			c8.9,0,16.2-7.3,16.2-16.2v-26.6c0-8.9-7.3-16.2-16.2-16.2H199.8z"/>
	</g>
	<g>
		<path class="st0" d="M600.2,647.1H199.8c-9.2,0-16.7-7.5-16.7-16.7v-26.6c0-9.2,7.5-16.7,16.7-16.7h400.4
			c9.2,0,16.7,7.5,16.7,16.7v26.6C616.9,639.6,609.4,647.1,600.2,647.1z"/>
		<path d="M600.2,647.6H199.8c-9.5,0-17.2-7.7-17.2-17.2v-26.6c0-9.5,7.7-17.2,17.2-17.2h400.4c9.5,0,17.2,7.7,17.2,17.2v26.6
			C617.4,639.9,609.7,647.6,600.2,647.6z M199.8,587.7c-8.9,0-16.2,7.3-16.2,16.2v26.6c0,8.9,7.3,16.2,16.2,16.2h400.4
			c8.9,0,16.2-7.3,16.2-16.2v-26.6c0-8.9-7.3-16.2-16.2-16.2H199.8z"/>
	</g>
	<g>
		<path d="M344.6,607.3c-2.2,0-3.9,0.7-5.1,2.2c-1.3,1.4-1.9,3.4-1.9,5.9c0,2.6,0.6,4.6,1.8,6c1.2,1.4,2.9,2.1,5.2,2.1
			c1.4,0,2.9-0.2,4.7-0.7v2c-1.4,0.5-3,0.8-5,0.8c-2.9,0-5.1-0.9-6.7-2.6s-2.4-4.3-2.4-7.5c0-2,0.4-3.8,1.1-5.3
			c0.8-1.5,1.9-2.7,3.3-3.5c1.4-0.8,3.1-1.2,5-1.2c2.1,0,3.9,0.4,5.4,1.1l-1,2C347.6,607.6,346.1,607.3,344.6,607.3z"/>
		<path d="M363.3,625.2v-9.5c0-1.2-0.3-2.1-0.8-2.7s-1.4-0.9-2.6-0.9c-1.6,0-2.7,0.4-3.4,1.3s-1.1,2.2-1.1,4.1v7.7h-2.2v-20.9h2.2
			v6.3c0,0.8,0,1.4-0.1,1.9h0.1c0.4-0.7,1.1-1.3,1.9-1.7c0.8-0.4,1.7-0.6,2.8-0.6c1.8,0,3.2,0.4,4.1,1.3c0.9,0.9,1.4,2.2,1.4,4.1
			v9.6H363.3z"/>
		<path d="M376.4,625.5c-2.2,0-3.9-0.7-5.2-2c-1.3-1.3-1.9-3.2-1.9-5.5c0-2.4,0.6-4.3,1.8-5.7s2.7-2.1,4.7-2.1
			c1.8,0,3.3,0.6,4.4,1.8c1.1,1.2,1.6,2.8,1.6,4.8v1.4h-10.2c0,1.7,0.5,3,1.3,3.9s2,1.3,3.5,1.3c1.6,0,3.2-0.3,4.7-1v2
			c-0.8,0.3-1.5,0.6-2.2,0.7C378.2,625.4,377.4,625.5,376.4,625.5z M375.8,612.1c-1.2,0-2.1,0.4-2.8,1.2c-0.7,0.8-1.1,1.8-1.2,3.2
			h7.7c0-1.4-0.3-2.5-0.9-3.2C377.8,612.4,377,612.1,375.8,612.1z"/>
		<path d="M391.5,625.5c-2.1,0-3.8-0.7-5-2c-1.2-1.3-1.8-3.2-1.8-5.6c0-2.5,0.6-4.4,1.8-5.7c1.2-1.3,2.9-2,5.1-2
			c0.7,0,1.4,0.1,2.1,0.2s1.3,0.3,1.7,0.5l-0.7,1.9c-0.5-0.2-1-0.4-1.6-0.5s-1.1-0.2-1.5-0.2c-3,0-4.5,1.9-4.5,5.7
			c0,1.8,0.4,3.2,1.1,4.2c0.7,1,1.8,1.5,3.2,1.5c1.2,0,2.5-0.3,3.8-0.8v2C394.2,625.2,393,625.5,391.5,625.5z"/>
		<path d="M400.9,617.6c0.4-0.5,1-1.3,1.8-2.2l4.8-5h2.6l-6,6.3l6.4,8.5h-2.7l-5.2-7l-1.7,1.5v5.5h-2.2v-20.9h2.2v11.1
			c0,0.5,0,1.3-0.1,2.3H400.9z"/>
		<path d="M422.7,621.2c0,1.4-0.5,2.4-1.5,3.2c-1,0.7-2.5,1.1-4.3,1.1c-2,0-3.5-0.3-4.6-0.9v-2.1c0.7,0.4,1.5,0.6,2.3,0.8
			c0.8,0.2,1.6,0.3,2.3,0.3c1.2,0,2.1-0.2,2.7-0.6c0.6-0.4,0.9-0.9,0.9-1.7c0-0.6-0.2-1.1-0.7-1.5c-0.5-0.4-1.5-0.9-2.9-1.4
			c-1.4-0.5-2.3-1-2.9-1.3c-0.6-0.4-1-0.8-1.3-1.3c-0.3-0.5-0.4-1.1-0.4-1.7c0-1.2,0.5-2.1,1.5-2.8c1-0.7,2.3-1,4-1
			c1.6,0,3.1,0.3,4.7,1l-0.8,1.8c-1.5-0.6-2.8-0.9-4-0.9c-1.1,0-1.9,0.2-2.4,0.5c-0.5,0.3-0.8,0.8-0.8,1.4c0,0.4,0.1,0.7,0.3,1
			c0.2,0.3,0.5,0.5,1,0.8s1.3,0.6,2.6,1.1c1.7,0.6,2.9,1.3,3.5,1.9C422.4,619.4,422.7,620.2,422.7,621.2z"/>
		<path d="M428.4,610.5v9.6c0,1.2,0.3,2.1,0.8,2.7s1.4,0.9,2.6,0.9c1.5,0,2.7-0.4,3.4-1.3s1.1-2.2,1.1-4.1v-7.7h2.2v14.7h-1.8
			l-0.3-2h-0.1c-0.5,0.7-1.1,1.3-1.9,1.7c-0.8,0.4-1.7,0.6-2.8,0.6c-1.8,0-3.1-0.4-4-1.3c-0.9-0.9-1.3-2.2-1.3-4.1v-9.6H428.4z"/>
		<path d="M462,625.2v-9.6c0-1.2-0.3-2.1-0.8-2.6c-0.5-0.6-1.3-0.9-2.3-0.9c-1.4,0-2.4,0.4-3.1,1.2s-1,2-1,3.7v8.2h-2.2v-9.6
			c0-1.2-0.3-2.1-0.8-2.6c-0.5-0.6-1.3-0.9-2.4-0.9c-1.4,0-2.4,0.4-3.1,1.3c-0.7,0.8-1,2.2-1,4.1v7.7h-2.2v-14.7h1.8l0.4,2h0.1
			c0.4-0.7,1-1.3,1.8-1.7c0.8-0.4,1.6-0.6,2.6-0.6c2.3,0,3.8,0.8,4.5,2.5h0.1c0.4-0.8,1.1-1.4,1.9-1.8c0.8-0.4,1.8-0.7,2.9-0.7
			c1.7,0,2.9,0.4,3.7,1.3c0.8,0.9,1.2,2.2,1.2,4.1v9.6H462z"/>
	</g>
	<g>
		<path class="st0" d="M600.2,715.4H199.8c-9.2,0-16.7-7.5-16.7-16.7v-26.6c0-9.2,7.5-16.7,16.7-16.7h400.4
			c9.2,0,16.7,7.5,16.7,16.7v26.6C616.9,708,609.4,715.4,600.2,715.4z"/>
		<path d="M600.2,715.9H199.8c-9.5,0-17.2-7.7-17.2-17.2v-26.6c0-9.5,7.7-17.2,17.2-17.2h400.4c9.5,0,17.2,7.7,17.2,17.2v26.6
			C617.4,708.2,609.7,715.9,600.2,715.9z M199.8,656c-8.9,0-16.2,7.3-16.2,16.2v26.6c0,8.9,7.3,16.2,16.2,16.2h400.4
			c8.9,0,16.2-7.3,16.2-16.2v-26.6c0-8.9-7.3-16.2-16.2-16.2H199.8z"/>
	</g>
	<g>
		<path d="M388.2,683.5c0,3.2-0.9,5.7-2.6,7.4s-4.3,2.6-7.6,2.6h-5.4v-19.7h6c3.1,0,5.4,0.8,7.1,2.5S388.2,680.5,388.2,683.5z
			 M385.8,683.6c0-2.6-0.6-4.5-1.9-5.8c-1.3-1.3-3.2-1.9-5.7-1.9h-3.3v15.7h2.8c2.7,0,4.8-0.7,6.1-2
			C385.1,688.2,385.8,686.2,385.8,683.6z"/>
		<path d="M401.3,693.5l-0.4-2.1h-0.1c-0.7,0.9-1.5,1.5-2.2,1.9s-1.6,0.5-2.7,0.5c-1.5,0-2.6-0.4-3.4-1.1s-1.2-1.8-1.2-3.2
			c0-3,2.4-4.5,7.1-4.7l2.5-0.1v-0.9c0-1.2-0.2-2-0.7-2.6c-0.5-0.6-1.3-0.8-2.4-0.8c-1.2,0-2.6,0.4-4.2,1.1l-0.7-1.7
			c0.7-0.4,1.5-0.7,2.4-0.9c0.9-0.2,1.7-0.3,2.6-0.3c1.8,0,3.1,0.4,3.9,1.2c0.8,0.8,1.3,2,1.3,3.8v10.1H401.3z M396.2,692
			c1.4,0,2.5-0.4,3.3-1.1s1.2-1.8,1.2-3.2v-1.3l-2.2,0.1c-1.8,0.1-3.1,0.3-3.8,0.8c-0.8,0.5-1.2,1.2-1.2,2.3c0,0.8,0.2,1.4,0.7,1.8
			C394.7,691.7,395.4,692,396.2,692z"/>
		<path d="M412.3,692c0.4,0,0.8,0,1.1-0.1c0.4-0.1,0.7-0.1,0.9-0.2v1.7c-0.2,0.1-0.6,0.2-1.1,0.3c-0.5,0.1-0.9,0.1-1.3,0.1
			c-2.9,0-4.3-1.5-4.3-4.5v-8.8h-2.1v-1.1l2.1-0.9l0.9-3.1h1.3v3.4h4.3v1.7h-4.3v8.7c0,0.9,0.2,1.6,0.6,2
			C411,691.7,411.6,692,412.3,692z"/>
		<path d="M426.3,693.5l-0.4-2.1h-0.1c-0.7,0.9-1.5,1.5-2.2,1.9s-1.6,0.5-2.7,0.5c-1.5,0-2.6-0.4-3.4-1.1s-1.2-1.8-1.2-3.2
			c0-3,2.4-4.5,7.1-4.7l2.5-0.1v-0.9c0-1.2-0.2-2-0.7-2.6c-0.5-0.6-1.3-0.8-2.4-0.8c-1.2,0-2.6,0.4-4.2,1.1l-0.7-1.7
			c0.7-0.4,1.5-0.7,2.4-0.9c0.9-0.2,1.7-0.3,2.6-0.3c1.8,0,3.1,0.4,3.9,1.2c0.8,0.8,1.3,2,1.3,3.8v10.1H426.3z M421.3,692
			c1.4,0,2.5-0.4,3.3-1.1s1.2-1.8,1.2-3.2v-1.3l-2.2,0.1c-1.8,0.1-3.1,0.3-3.8,0.8c-0.8,0.5-1.2,1.2-1.2,2.3c0,0.8,0.2,1.4,0.7,1.8
			C419.7,691.7,420.4,692,421.3,692z"/>
	</g>
	<g>
		<path d="M372.6,556.9h-2.3v-19.7h11v2h-8.7v7.2h8.1v2h-8.1V556.9z"/>
		<path d="M386.5,556.9h-2.2v-20.9h2.2V556.9z"/>
		<path d="M400.2,556.9l-0.4-2.1h-0.1c-0.7,0.9-1.5,1.5-2.2,1.9s-1.6,0.5-2.7,0.5c-1.5,0-2.6-0.4-3.4-1.1c-0.8-0.8-1.2-1.8-1.2-3.2
			c0-3,2.4-4.5,7.1-4.7l2.5-0.1v-0.9c0-1.2-0.2-2-0.7-2.6c-0.5-0.6-1.3-0.8-2.4-0.8c-1.2,0-2.6,0.4-4.2,1.1l-0.7-1.7
			c0.7-0.4,1.5-0.7,2.4-0.9c0.9-0.2,1.7-0.3,2.6-0.3c1.8,0,3.1,0.4,3.9,1.2s1.3,2,1.3,3.8v10.1H400.2z M395.2,555.3
			c1.4,0,2.5-0.4,3.3-1.1c0.8-0.8,1.2-1.8,1.2-3.2v-1.3l-2.2,0.1c-1.8,0.1-3.1,0.3-3.8,0.8c-0.8,0.5-1.2,1.2-1.2,2.3
			c0,0.8,0.2,1.4,0.7,1.8C393.6,555.1,394.3,555.3,395.2,555.3z"/>
		<path d="M418.6,542.1v1.4l-2.7,0.3c0.3,0.3,0.5,0.7,0.7,1.2c0.2,0.5,0.3,1.1,0.3,1.7c0,1.4-0.5,2.6-1.5,3.5
			c-1,0.9-2.3,1.3-4.1,1.3c-0.4,0-0.9,0-1.2-0.1c-1,0.5-1.4,1.1-1.4,1.9c0,0.4,0.2,0.7,0.5,0.9c0.3,0.2,0.9,0.3,1.7,0.3h2.6
			c1.6,0,2.8,0.3,3.7,1c0.9,0.7,1.3,1.6,1.3,2.9c0,1.6-0.7,2.9-2,3.7c-1.3,0.9-3.2,1.3-5.7,1.3c-1.9,0-3.4-0.4-4.5-1.1
			c-1-0.7-1.6-1.7-1.6-3c0-0.9,0.3-1.7,0.9-2.3c0.6-0.7,1.4-1.1,2.4-1.3c-0.4-0.2-0.7-0.4-0.9-0.8c-0.3-0.4-0.4-0.8-0.4-1.3
			c0-0.5,0.1-1,0.4-1.4c0.3-0.4,0.7-0.8,1.4-1.2c-0.8-0.3-1.4-0.8-1.9-1.6s-0.7-1.6-0.7-2.6c0-1.6,0.5-2.9,1.5-3.7s2.3-1.3,4.1-1.3
			c0.8,0,1.5,0.1,2.1,0.3H418.6z M406.8,559.3c0,0.8,0.3,1.4,1,1.8c0.7,0.4,1.6,0.6,2.9,0.6c1.9,0,3.3-0.3,4.2-0.8s1.4-1.3,1.4-2.3
			c0-0.8-0.2-1.4-0.7-1.7c-0.5-0.3-1.4-0.5-2.8-0.5H410c-1,0-1.8,0.2-2.4,0.7C407.1,557.7,406.8,558.4,406.8,559.3z M408,546.8
			c0,1,0.3,1.8,0.9,2.3s1.4,0.8,2.4,0.8c2.2,0,3.3-1.1,3.3-3.2c0-2.2-1.1-3.3-3.3-3.3c-1,0-1.9,0.3-2.4,0.8S408,545.7,408,546.8z"/>
		<path d="M431.1,552.8c0,1.4-0.5,2.4-1.5,3.2s-2.5,1.1-4.3,1.1c-2,0-3.5-0.3-4.6-0.9v-2.1c0.7,0.4,1.5,0.6,2.3,0.8
			c0.8,0.2,1.6,0.3,2.3,0.3c1.2,0,2.1-0.2,2.7-0.6c0.6-0.4,0.9-0.9,0.9-1.7c0-0.6-0.2-1.1-0.7-1.5c-0.5-0.4-1.5-0.9-2.9-1.4
			c-1.4-0.5-2.3-1-2.9-1.3c-0.6-0.4-1-0.8-1.3-1.3c-0.3-0.5-0.4-1.1-0.4-1.7c0-1.2,0.5-2.1,1.5-2.8c1-0.7,2.3-1,4-1
			c1.6,0,3.1,0.3,4.7,1l-0.8,1.8c-1.5-0.6-2.8-0.9-4-0.9c-1.1,0-1.9,0.2-2.4,0.5s-0.8,0.8-0.8,1.4c0,0.4,0.1,0.7,0.3,1
			c0.2,0.3,0.5,0.5,1,0.8s1.3,0.6,2.6,1.1c1.7,0.6,2.9,1.3,3.5,1.9C430.8,551,431.1,551.9,431.1,552.8z"/>
	</g>
	<g>
		<path class="st0" d="M261.6,562.9h-46.3c-3.6,0-6.6-3-6.6-6.6v-15c0-3.6,3-6.6,6.6-6.6h46.3c3.6,0,6.6,3,6.6,6.6v15
			C268.2,560,265.3,562.9,261.6,562.9z"/>
		<path d="M261.6,563.4h-46.3c-3.9,0-7.1-3.2-7.1-7.1v-15c0-3.9,3.2-7.1,7.1-7.1h46.3c3.9,0,7.1,3.2,7.1,7.1v15
			C268.7,560.2,265.5,563.4,261.6,563.4z M215.3,535.2c-3.4,0-6.1,2.7-6.1,6.1v15c0,3.4,2.7,6.1,6.1,6.1h46.3c3.4,0,6.1-2.7,6.1-6.1
			v-15c0-3.4-2.7-6.1-6.1-6.1H215.3z"/>
	</g>
	<g>
		<path d="M224.1,553.5c0.7,0.4,1.7,0.8,2.8,0.8c1.6,0,2.5-0.8,2.5-2.1c0-1.1-0.6-1.8-2.3-2.4c-2-0.7-3.2-1.7-3.2-3.4
			c0-1.9,1.6-3.3,3.9-3.3c1.2,0,2.1,0.3,2.7,0.6l-0.4,1.3c-0.4-0.2-1.2-0.6-2.3-0.6c-1.7,0-2.3,1-2.3,1.8c0,1.1,0.7,1.7,2.4,2.3
			c2.1,0.8,3.1,1.8,3.1,3.6c0,1.9-1.4,3.5-4.2,3.5c-1.2,0-2.4-0.3-3.1-0.8L224.1,553.5z"/>
		<path d="M235.9,555.4v-5.1l-3.8-7h1.8l1.7,3.3c0.5,0.9,0.8,1.7,1.2,2.5h0c0.3-0.8,0.8-1.6,1.2-2.5l1.7-3.3h1.8l-4.1,7v5.2H235.9z"
			/>
		<path d="M242.8,555.4v-12.1h1.7l3.9,6.1c0.9,1.4,1.6,2.7,2.2,3.9l0,0c-0.1-1.6-0.2-3.1-0.2-5v-5.1h1.5v12.1h-1.6l-3.9-6.2
			c-0.8-1.3-1.7-2.7-2.3-4.1l-0.1,0c0.1,1.5,0.1,3,0.1,5v5.2H242.8z"/>
	</g>
	<g>
		<path class="st0" d="M329.9,562.9h-46.4c-3.6,0-6.6-2.9-6.6-6.6v-15.1c0-3.6,2.9-6.6,6.6-6.6h46.4c3.6,0,6.6,2.9,6.6,6.6v15.1
			C336.5,560,333.6,562.9,329.9,562.9z"/>
		<path d="M329.9,563.4h-46.4c-3.9,0-7.1-3.2-7.1-7.1v-15.1c0-3.9,3.2-7.1,7.1-7.1h46.4c3.9,0,7.1,3.2,7.1,7.1v15.1
			C337,560.2,333.8,563.4,329.9,563.4z M283.6,535.2c-3.4,0-6.1,2.7-6.1,6.1v15.1c0,3.4,2.7,6.1,6.1,6.1h46.4c3.4,0,6.1-2.7,6.1-6.1
			v-15.1c0-3.4-2.7-6.1-6.1-6.1H283.6z"/>
	</g>
	<g>
		<path d="M294.3,551.6l-1.3,3.8h-1.6l4.1-12.1h1.9l4.1,12.1h-1.7l-1.3-3.8H294.3z M298.3,550.3l-1.2-3.5c-0.3-0.8-0.5-1.5-0.6-2.2
			h0c-0.2,0.7-0.4,1.5-0.6,2.2l-1.2,3.5H298.3z"/>
		<path d="M311.6,555c-0.6,0.3-1.7,0.6-3.2,0.6c-3.4,0-6-2.2-6-6.1c0-3.8,2.6-6.4,6.3-6.4c1.5,0,2.5,0.3,2.9,0.5l-0.4,1.3
			c-0.6-0.3-1.4-0.5-2.4-0.5c-2.8,0-4.7,1.8-4.7,5c0,3,1.7,4.9,4.7,4.9c1,0,1.9-0.2,2.6-0.5L311.6,555z"/>
		<path d="M313.5,543.3h1.6v5.9h0.1c0.3-0.5,0.6-0.9,1-1.3l3.7-4.6h1.9l-4.4,5.1l4.7,7h-1.9l-4-6l-1.2,1.3v4.6h-1.6V543.3z"/>
	</g>
	<g>
		<path class="st0" d="M516.5,562.9h-46.4c-3.6,0-6.6-2.9-6.6-6.6v-15.1c0-3.6,2.9-6.6,6.6-6.6h46.4c3.6,0,6.6,2.9,6.6,6.6v15.1
			C523,560,520.1,562.9,516.5,562.9z"/>
		<path d="M516.5,563.4h-46.4c-3.9,0-7.1-3.2-7.1-7.1v-15.1c0-3.9,3.2-7.1,7.1-7.1h46.4c3.9,0,7.1,3.2,7.1,7.1v15.1
			C523.5,560.2,520.4,563.4,516.5,563.4z M470.1,535.2c-3.4,0-6.1,2.7-6.1,6.1v15.1c0,3.3,2.7,6.1,6.1,6.1h46.4
			c3.3,0,6.1-2.7,6.1-6.1v-15.1c0-3.3-2.7-6.1-6.1-6.1H470.1z"/>
	</g>
	<g>
		<path d="M480.6,543.4c0.8-0.2,1.9-0.3,3-0.3c1.7,0,2.8,0.3,3.5,1c0.6,0.5,1,1.4,1,2.3c0,1.6-1,2.7-2.3,3.1v0.1
			c0.9,0.3,1.5,1.2,1.8,2.4c0.4,1.7,0.7,2.9,0.9,3.3h-1.6c-0.2-0.3-0.5-1.4-0.8-2.9c-0.4-1.7-1-2.3-2.4-2.4h-1.5v5.3h-1.6V543.4z
			 M482.1,548.9h1.6c1.7,0,2.7-0.9,2.7-2.3c0-1.6-1.1-2.3-2.8-2.3c-0.8,0-1.3,0.1-1.5,0.1V548.9z"/>
		<path d="M490,553.5c0.7,0.4,1.7,0.8,2.8,0.8c1.6,0,2.5-0.8,2.5-2.1c0-1.1-0.6-1.8-2.3-2.4c-2-0.7-3.2-1.7-3.2-3.4
			c0-1.9,1.6-3.3,3.9-3.3c1.2,0,2.1,0.3,2.7,0.6l-0.4,1.3c-0.4-0.2-1.2-0.6-2.3-0.6c-1.7,0-2.3,1-2.3,1.8c0,1.1,0.7,1.7,2.4,2.3
			c2.1,0.8,3.1,1.8,3.1,3.6c0,1.9-1.4,3.5-4.2,3.5c-1.2,0-2.4-0.3-3.1-0.8L490,553.5z"/>
		<path d="M501.4,544.6h-3.7v-1.3h9v1.3H503v10.8h-1.6V544.6z"/>
	</g>
	<g>
		<path class="st0" d="M584.7,562.9h-46.3c-3.6,0-6.6-3-6.6-6.6v-15c0-3.6,3-6.6,6.6-6.6h46.3c3.6,0,6.6,3,6.6,6.6v15
			C591.3,560,588.4,562.9,584.7,562.9z"/>
		<path d="M584.7,563.4h-46.3c-3.9,0-7.1-3.2-7.1-7.1v-15c0-3.9,3.2-7.1,7.1-7.1h46.3c3.9,0,7.1,3.2,7.1,7.1v15
			C591.8,560.2,588.6,563.4,584.7,563.4z M538.4,535.2c-3.4,0-6.1,2.7-6.1,6.1v15c0,3.4,2.7,6.1,6.1,6.1h46.3c3.4,0,6.1-2.7,6.1-6.1
			v-15c0-3.4-2.7-6.1-6.1-6.1H538.4z"/>
	</g>
	<g>
		<path d="M550.2,543.3h6.5v1.3h-5v4h4.6v1.3h-4.6v5.5h-1.6V543.3z"/>
		<path d="M560.5,543.3v12.1h-1.6v-12.1H560.5z"/>
		<path d="M563.2,555.4v-12.1h1.7l3.9,6.1c0.9,1.4,1.6,2.7,2.2,3.9l0,0c-0.1-1.6-0.2-3.1-0.2-5v-5.1h1.5v12.1h-1.6l-3.9-6.2
			c-0.8-1.3-1.7-2.7-2.3-4.1l-0.1,0c0.1,1.5,0.1,3,0.1,5v5.2H563.2z"/>
	</g>
</g>
</svg>
