<?xml version="1.0" encoding="utf-8"?>
<!-- Generator: Adobe Illustrator 19.2.0, SVG Export Plug-In . SVG Version: 6.00 Build 0)  -->
<svg version="1.1" id="Layer_1" xmlns="http://www.w3.org/2000/svg" xmlns:xlink="http://www.w3.org/1999/xlink" x="0px" y="0px"
	 viewBox="0 0 800 350" style="enable-background:new 0 0 800 350;" xml:space="preserve">
<style type="text/css">
	.st0{fill:#FFFFFF;}
	.st1{fill:#FF1732;}
	.st2{fill:#0D1587;}
</style>
<g>
	<path class="st0" d="M488.1,138h-27.5c-2.3,0-4.2-1.9-4.2-4.2v-10.3c0-2.3,1.9-4.2,4.2-4.2h27.5c2.3,0,4.2,1.9,4.2,4.2v10.3
		C492.3,136.1,490.4,138,488.1,138z"/>
	<path d="M488.1,138.5h-27.5c-2.6,0-4.7-2.1-4.7-4.7v-10.3c0-2.6,2.1-4.7,4.7-4.7h27.5c2.6,0,4.7,2.1,4.7,4.7v10.3
		C492.8,136.4,490.7,138.5,488.1,138.5z M460.6,119.8c-2,0-3.7,1.6-3.7,3.7v10.3c0,2,1.6,3.7,3.7,3.7h27.5c2,0,3.7-1.6,3.7-3.7
		v-10.3c0-2-1.6-3.7-3.7-3.7H460.6z"/>
</g>
<g>
	<path class="st0" d="M339.6,98.2h-27.5c-2.3,0-4.2-1.9-4.2-4.2V83.7c0-2.3,1.9-4.2,4.2-4.2h27.5c2.3,0,4.2,1.9,4.2,4.2v10.3
		C343.7,96.4,341.9,98.2,339.6,98.2z"/>
	<path d="M339.6,98.7h-27.5c-2.6,0-4.7-2.1-4.7-4.7V83.7c0-2.6,2.1-4.7,4.7-4.7h27.5c2.6,0,4.7,2.1,4.7,4.7v10.3
		C344.2,96.7,342.1,98.7,339.6,98.7z M312.1,80.1c-2,0-3.7,1.6-3.7,3.7v10.3c0,2,1.6,3.7,3.7,3.7h27.5c2,0,3.7-1.6,3.7-3.7V83.7
		c0-2-1.6-3.7-3.7-3.7H312.1z"/>
</g>
<g>
	<path d="M43.3,50.8l-3.4-9.5h-13l-3.3,9.5h-5.9l12.8-34.2h6.1l12.8,34.2H43.3z M38.5,36.5l-3.2-9.3c-0.2-0.6-0.6-1.6-1-2.9
		c-0.4-1.3-0.7-2.3-0.9-2.9c-0.4,1.9-1,4-1.8,6.3l-3.1,8.9H38.5z"/>
	<path d="M58.6,50.8h-5.5V14.5h5.5V50.8z"/>
	<path d="M66.1,18.2c0-1,0.3-1.7,0.8-2.3s1.3-0.8,2.3-0.8c1,0,1.7,0.3,2.2,0.8s0.8,1.3,0.8,2.3c0,0.9-0.3,1.7-0.8,2.2
		s-1.3,0.8-2.2,0.8c-1,0-1.8-0.3-2.3-0.8S66.1,19.1,66.1,18.2z M71.9,50.8h-5.5V25h5.5V50.8z"/>
	<path d="M90.2,51.3c-3.9,0-6.9-1.1-8.9-3.4c-2-2.3-3-5.5-3-9.8c0-4.3,1.1-7.7,3.2-10s5.2-3.5,9.2-3.5c2.7,0,5.2,0.5,7.3,1.5
		l-1.7,4.4c-2.3-0.9-4.2-1.4-5.7-1.4c-4.5,0-6.7,3-6.7,8.9c0,2.9,0.6,5.1,1.7,6.5c1.1,1.5,2.7,2.2,4.9,2.2c2.4,0,4.7-0.6,6.9-1.8
		v4.8c-1,0.6-2,1-3.1,1.2C93.1,51.2,91.8,51.3,90.2,51.3z"/>
	<path d="M114.7,51.3c-4,0-7.1-1.2-9.4-3.5c-2.3-2.3-3.4-5.6-3.4-9.7c0-4.2,1-7.5,3.1-9.9c2.1-2.4,5-3.6,8.6-3.6
		c3.4,0,6.1,1,8.1,3.1c2,2.1,3,4.9,3,8.5v3h-17.2c0.1,2.5,0.8,4.4,2,5.8c1.3,1.3,3.1,2,5.4,2c1.5,0,2.9-0.1,4.3-0.4
		c1.3-0.3,2.7-0.8,4.2-1.4v4.5c-1.3,0.6-2.7,1.1-4.1,1.4C118,51.1,116.4,51.3,114.7,51.3z M113.7,28.7c-1.7,0-3.1,0.6-4.2,1.7
		c-1,1.1-1.7,2.7-1.9,4.8h11.7c0-2.1-0.5-3.7-1.5-4.8C116.8,29.3,115.4,28.7,113.7,28.7z"/>
</g>
<g>
	<path d="M696.4,16.7h10.1c4.7,0,8.1,0.7,10.2,2.1c2.1,1.4,3.1,3.5,3.1,6.5c0,2-0.5,3.6-1.5,5c-1,1.3-2.5,2.2-4.4,2.5V33
		c2.4,0.5,4.2,1.3,5.3,2.7c1.1,1.3,1.7,3.1,1.7,5.4c0,3.1-1.1,5.5-3.2,7.2s-5.1,2.6-8.9,2.6h-12.3V16.7z M702,30.8h5.4
		c2.3,0,4-0.4,5.1-1.1c1.1-0.7,1.6-2,1.6-3.8c0-1.6-0.6-2.8-1.7-3.5c-1.2-0.7-3-1.1-5.5-1.1H702V30.8z M702,35.3v10.8h5.9
		c2.3,0,4.1-0.4,5.3-1.3c1.2-0.9,1.8-2.3,1.8-4.2c0-1.8-0.6-3.1-1.8-3.9c-1.2-0.9-3.1-1.3-5.5-1.3H702z"/>
	<path d="M750.2,37.9c0,4.2-1.1,7.5-3.2,9.9c-2.2,2.4-5.2,3.5-9,3.5c-2.4,0-4.5-0.5-6.4-1.6c-1.8-1.1-3.3-2.6-4.3-4.7
		c-1-2-1.5-4.4-1.5-7.1c0-4.2,1.1-7.4,3.2-9.8c2.1-2.3,5.2-3.5,9.1-3.5c3.7,0,6.7,1.2,8.9,3.6C749.1,30.6,750.2,33.8,750.2,37.9z
		 M731.4,37.9c0,6,2.2,8.9,6.6,8.9c4.4,0,6.5-3,6.5-8.9c0-5.9-2.2-8.8-6.6-8.8c-2.3,0-4,0.8-5,2.3C731.9,32.8,731.4,35,731.4,37.9z"
		/>
	<path d="M769.7,24.6c3.2,0,5.7,1.2,7.5,3.5s2.7,5.6,2.7,9.8c0,4.2-0.9,7.5-2.7,9.9c-1.8,2.4-4.3,3.5-7.6,3.5
		c-3.3,0-5.8-1.2-7.6-3.5h-0.4l-1,3.1h-4.1V14.5h5.5v8.6c0,0.6,0,1.6-0.1,2.8c-0.1,1.3-0.1,2.1-0.1,2.4h0.2
		C763.7,25.8,766.3,24.6,769.7,24.6z M768.2,29c-2.2,0-3.8,0.6-4.8,1.9c-1,1.3-1.5,3.5-1.5,6.5v0.4c0,3.1,0.5,5.4,1.5,6.8
		c1,1.4,2.6,2.1,4.9,2.1c1.9,0,3.4-0.8,4.4-2.3c1-1.5,1.5-3.8,1.5-6.7C774.3,32,772.2,29,768.2,29z"/>
</g>
<g>
	<g>
		<path class="st1" d="M71.2,130.2c-0.8,0-1.5-0.7-1.5-1.5c0-0.8,0.7-1.5,1.5-1.5l262.2-0.1h0c0.8,0,1.5,0.7,1.5,1.5
			c0,0.8-0.7,1.5-1.5,1.5L71.2,130.2z"/>
	</g>
	<g>
		<g>
			<path class="st1" d="M351.5,128.6c-8.5,3.2-19.1,8.6-25.6,14.3l5.2-14.3l-5.2-14.3C332.4,120,343,125.4,351.5,128.6z"/>
		</g>
	</g>
</g>
<g>
	<g>
		<path class="st2" d="M736.6,185.6L736.6,185.6l-262.2,0c-0.8,0-1.5-0.7-1.5-1.5c0-0.8,0.7-1.5,1.5-1.5l0,0l262.2,0
			c0.8,0,1.5,0.7,1.5,1.5C738.1,184.9,737.4,185.6,736.6,185.6z"/>
	</g>
	<g>
		<g>
			<path class="st2" d="M456.3,184.1c8.5-3.2,19.1-8.6,25.6-14.3l-5.2,14.3l5.2,14.3C475.4,192.6,464.8,187.2,456.3,184.1z"/>
		</g>
	</g>
</g>
<g>
	<g>
		
			<rect x="88.5" y="86" transform="matrix(1 -5.072367e-003 5.072367e-003 1 -0.5107 0.5905)" class="st0" width="55.3" height="30"/>
		<path class="st1" d="M87.1,117.6l-0.2-33l58.3-0.3l0.2,33L87.1,117.6z M89.9,87.6l0.1,27l52.3-0.3l-0.1-27L89.9,87.6z"/>
	</g>
	<g>
		<polygon class="st1" points="116.2,102.1 87.9,87 88.9,85.2 116.1,99.8 143.3,84.9 144.2,86.7 		"/>
	</g>
</g>
<g>
	<path d="M181.1,80.9c0.9,0.6,2.3,1.1,3.7,1.1c2.1,0,3.4-1.1,3.4-2.8c0-1.5-0.9-2.4-3-3.2c-2.6-0.9-4.3-2.3-4.3-4.6
		c0-2.5,2.1-4.4,5.2-4.4c1.7,0,2.9,0.4,3.6,0.8l-0.6,1.7c-0.5-0.3-1.6-0.8-3.1-0.8c-2.2,0-3,1.3-3,2.4c0,1.5,1,2.3,3.2,3.1
		c2.7,1.1,4.1,2.4,4.1,4.8c0,2.5-1.8,4.7-5.7,4.7c-1.6,0-3.3-0.5-4.1-1L181.1,80.9z"/>
	<path d="M201.6,75.9h-6.3v5.8h7v1.8h-9.1V67.3h8.7V69h-6.6v5.1h6.3V75.9z"/>
	<path d="M218.4,85.8c-2.2-0.6-4.3-1.2-6.2-1.9c-0.3-0.1-0.7-0.2-1-0.2c-3.8-0.1-7.1-3-7.1-8.2c0-5.2,3.2-8.5,7.5-8.5
		c4.4,0,7.2,3.4,7.2,8.2c0,4.2-1.9,6.8-4.6,7.8v0.1c1.6,0.4,3.4,0.8,4.7,1L218.4,85.8z M216.7,75.3c0-3.2-1.7-6.6-5.1-6.6
		c-3.5,0-5.3,3.3-5.2,6.8c0,3.4,1.9,6.5,5.1,6.5C214.8,82,216.7,79,216.7,75.3z"/>
	<path d="M221,73.8c0-0.9,0.6-1.5,1.4-1.5c0.8,0,1.4,0.6,1.4,1.5c0,0.8-0.6,1.5-1.4,1.5C221.6,75.3,221,74.6,221,73.8z M221,82.2
		c0-0.9,0.6-1.5,1.4-1.5c0.8,0,1.4,0.6,1.4,1.5c0,0.8-0.6,1.5-1.4,1.5C221.6,83.7,221,83.1,221,82.2z"/>
	<path d="M246.1,67.9v1.4l-6.8,14.2h-2.2l6.8-13.8v0h-7.6v-1.8H246.1z"/>
	<path d="M248.8,81c0.6,0.4,2,1,3.5,1c2.7,0,3.6-1.7,3.5-3c0-2.2-2-3.1-4-3.1h-1.2v-1.6h1.2c1.5,0,3.5-0.8,3.5-2.6
		c0-1.2-0.8-2.4-2.7-2.4c-1.2,0-2.4,0.6-3.1,1l-0.6-1.5c0.8-0.6,2.4-1.2,4.1-1.2c3.1,0,4.5,1.8,4.5,3.7c0,1.6-1,3-2.9,3.7v0
		c1.9,0.4,3.5,1.8,3.5,4c0,2.5-1.9,4.7-5.7,4.7c-1.8,0-3.3-0.6-4.1-1.1L248.8,81z"/>
	<path d="M184,107.2l-1.7,5.1h-2.2l5.5-16.2h2.5l5.5,16.2h-2.2l-1.7-5.1H184z M189.3,105.5l-1.6-4.7c-0.4-1.1-0.6-2-0.8-3h0
		c-0.2,1-0.5,1.9-0.8,2.9l-1.6,4.7H189.3z"/>
	<path d="M207,111.7c-0.8,0.4-2.3,0.8-4.3,0.8c-4.6,0-8-2.9-8-8.2c0-5.1,3.4-8.5,8.4-8.5c2,0,3.3,0.4,3.8,0.7l-0.5,1.7
		c-0.8-0.4-1.9-0.7-3.3-0.7c-3.8,0-6.3,2.4-6.3,6.7c0,4,2.3,6.5,6.2,6.5c1.3,0,2.6-0.3,3.4-0.7L207,111.7z"/>
	<path d="M209.6,96.1h2.1v7.8h0.1c0.4-0.6,0.9-1.2,1.3-1.7l4.9-6.1h2.6l-5.9,6.9l6.3,9.3h-2.5l-5.3-7.9l-1.5,1.8v6.2h-2.1V96.1z"/>
	<path d="M222.6,102.6c0-0.9,0.6-1.5,1.4-1.5c0.8,0,1.4,0.6,1.4,1.5c0,0.8-0.6,1.5-1.4,1.5C223.2,104.1,222.6,103.4,222.6,102.6z
		 M222.6,111c0-0.9,0.6-1.5,1.4-1.5c0.8,0,1.4,0.6,1.4,1.5c0,0.8-0.6,1.5-1.4,1.5C223.2,112.5,222.6,111.9,222.6,111z"/>
</g>
<g>
	<g>
		
			<rect x="660.8" y="140.9" transform="matrix(1 -5.072367e-003 5.072367e-003 1 -0.7817 3.494)" class="st0" width="55.3" height="30"/>
		<path class="st2" d="M659.4,172.5l-0.2-33l58.3-0.3l0.2,33L659.4,172.5z M662.2,142.5l0.1,27l52.3-0.3l-0.1-27L662.2,142.5z"/>
	</g>
	<g>
		<polygon class="st2" points="688.4,157 660.2,141.9 661.2,140.1 688.4,154.7 715.5,139.8 716.5,141.6 		"/>
	</g>
</g>
<g>
	<path d="M527.2,134.9c0.9,0.6,2.3,1.1,3.7,1.1c2.1,0,3.4-1.1,3.4-2.8c0-1.5-0.9-2.4-3-3.2c-2.6-0.9-4.3-2.3-4.3-4.6
		c0-2.5,2.1-4.4,5.2-4.4c1.7,0,2.9,0.4,3.6,0.8l-0.6,1.7c-0.5-0.3-1.6-0.8-3.1-0.8c-2.2,0-3,1.3-3,2.4c0,1.5,1,2.3,3.2,3.1
		c2.7,1.1,4.1,2.4,4.1,4.8c0,2.5-1.8,4.7-5.7,4.7c-1.6,0-3.3-0.5-4.1-1L527.2,134.9z"/>
	<path d="M547.7,129.9h-6.3v5.8h7v1.8h-9.1v-16.2h8.7v1.8h-6.6v5.1h6.3V129.9z"/>
	<path d="M564.5,139.8c-2.2-0.6-4.3-1.2-6.2-1.9c-0.3-0.1-0.7-0.2-1-0.2c-3.8-0.1-7.1-3-7.1-8.2c0-5.2,3.2-8.5,7.5-8.5
		c4.4,0,7.2,3.4,7.2,8.2c0,4.2-1.9,6.8-4.6,7.8v0.1c1.6,0.4,3.4,0.8,4.7,1L564.5,139.8z M562.8,129.3c0-3.2-1.7-6.6-5.1-6.6
		c-3.5,0-5.3,3.3-5.2,6.8c0,3.4,1.9,6.5,5.1,6.5C560.9,136,562.8,133,562.8,129.3z"/>
	<path d="M567.1,127.8c0-0.9,0.6-1.5,1.4-1.5s1.4,0.6,1.4,1.5c0,0.8-0.6,1.5-1.4,1.5C567.7,129.3,567.1,128.6,567.1,127.8z
		 M567.1,136.2c0-0.9,0.6-1.5,1.4-1.5s1.4,0.6,1.4,1.5c0,0.8-0.6,1.5-1.4,1.5C567.7,137.7,567.1,137.1,567.1,136.2z"/>
	<path d="M582.1,137.5v-1.3l1.7-1.6c4-3.8,5.8-5.8,5.8-8.2c0-1.6-0.8-3-3.1-3c-1.4,0-2.6,0.7-3.3,1.3l-0.7-1.5
		c1.1-0.9,2.6-1.6,4.4-1.6c3.4,0,4.8,2.3,4.8,4.5c0,2.9-2.1,5.2-5.4,8.4l-1.2,1.2v0h7v1.8H582.1z"/>
	<path d="M603.3,123.4c-0.4,0-1,0-1.6,0.1c-3.3,0.6-5.1,3-5.4,5.5h0.1c0.7-1,2-1.8,3.8-1.8c2.8,0,4.7,2,4.7,5c0,2.9-1.9,5.5-5.2,5.5
		c-3.3,0-5.5-2.6-5.5-6.6c0-3.1,1.1-5.5,2.6-7c1.3-1.3,3-2.1,5-2.3c0.6-0.1,1.2-0.1,1.5-0.1V123.4z M602.7,132.4
		c0-2.2-1.3-3.6-3.2-3.6c-1.3,0-2.4,0.8-3,1.9c-0.1,0.2-0.2,0.6-0.2,0.9c0,2.6,1.2,4.5,3.4,4.5C601.5,136.1,602.7,134.6,602.7,132.4
		z"/>
	<path d="M530.1,161.2l-1.7,5.1h-2.2l5.5-16.2h2.5l5.5,16.2h-2.2l-1.7-5.1H530.1z M535.4,159.6l-1.6-4.7c-0.4-1.1-0.6-2-0.8-3h0
		c-0.2,1-0.5,1.9-0.8,2.9l-1.6,4.7H535.4z"/>
	<path d="M553.2,165.7c-0.8,0.4-2.3,0.8-4.3,0.8c-4.6,0-8-2.9-8-8.2c0-5.1,3.4-8.5,8.4-8.5c2,0,3.3,0.4,3.8,0.7l-0.5,1.7
		c-0.8-0.4-1.9-0.7-3.3-0.7c-3.8,0-6.3,2.4-6.3,6.7c0,4,2.3,6.5,6.2,6.5c1.3,0,2.6-0.3,3.4-0.7L553.2,165.7z"/>
	<path d="M555.8,150.1h2.1v7.8h0.1c0.4-0.6,0.9-1.2,1.3-1.7l4.9-6.1h2.6l-5.9,6.9l6.3,9.3h-2.5l-5.3-7.9l-1.5,1.8v6.2h-2.1V150.1z"
		/>
	<path d="M568.7,156.6c0-0.9,0.6-1.5,1.4-1.5s1.4,0.6,1.4,1.5c0,0.8-0.6,1.5-1.4,1.5C569.3,158.1,568.7,157.4,568.7,156.6z
		 M568.7,165c0-0.9,0.6-1.5,1.4-1.5s1.4,0.6,1.4,1.5c0,0.8-0.6,1.5-1.4,1.5C569.3,166.5,568.7,165.9,568.7,165z"/>
	<path d="M593.8,150.7v1.4l-6.8,14.2h-2.2l6.8-13.8v0H584v-1.8H593.8z"/>
	<path d="M596.5,163.8c0.6,0.4,2,1,3.5,1c2.7,0,3.6-1.7,3.5-3c0-2.2-2-3.1-4-3.1h-1.2v-1.6h1.2c1.5,0,3.5-0.8,3.5-2.6
		c0-1.2-0.8-2.4-2.7-2.4c-1.2,0-2.4,0.6-3.1,1l-0.6-1.5c0.8-0.6,2.4-1.2,4.1-1.2c3.1,0,4.5,1.8,4.5,3.7c0,1.6-1,3-2.9,3.7v0
		c1.9,0.4,3.5,1.8,3.5,4c0,2.5-1.9,4.7-5.7,4.7c-1.8,0-3.3-0.6-4.1-1.1L596.5,163.8z"/>
</g>
<g>
	<g>
		<path class="st1" d="M71.2,259.8c-0.8,0-1.5-0.7-1.5-1.5c0-0.8,0.7-1.5,1.5-1.5l262.2-0.1c0.8,0,1.5,0.7,1.5,1.5
			c0,0.8-0.7,1.5-1.5,1.5L71.2,259.8L71.2,259.8z"/>
	</g>
	<g>
		<g>
			<path class="st1" d="M351.5,258.2c-8.5,3.2-19.1,8.6-25.6,14.3l5.2-14.3l-5.2-14.3C332.4,249.7,343,255,351.5,258.2z"/>
		</g>
	</g>
</g>
<g>
	<g>
		
			<rect x="88.5" y="215.6" transform="matrix(1 -5.072367e-003 5.072367e-003 1 -1.1683 0.5921)" class="st0" width="55.3" height="30"/>
		<path class="st1" d="M87.1,247.3l-0.2-33l58.3-0.3l0.2,33L87.1,247.3z M89.9,217.2l0.1,27l52.3-0.3l-0.1-27L89.9,217.2z"/>
	</g>
	<g>
		<polygon class="st1" points="116.2,231.8 87.9,216.6 88.9,214.9 116.1,229.5 143.3,214.6 144.2,216.3 		"/>
	</g>
</g>
<g>
	<path d="M177.1,210.6c0.9,0.6,2.3,1.1,3.7,1.1c2.1,0,3.4-1.1,3.4-2.8c0-1.5-0.9-2.4-3-3.2c-2.6-0.9-4.3-2.3-4.3-4.6
		c0-2.5,2.1-4.4,5.2-4.4c1.7,0,2.9,0.4,3.6,0.8l-0.6,1.7c-0.5-0.3-1.6-0.8-3.1-0.8c-2.2,0-3,1.3-3,2.4c0,1.5,1,2.3,3.2,3.1
		c2.7,1.1,4.1,2.4,4.1,4.8c0,2.5-1.8,4.7-5.7,4.7c-1.6,0-3.3-0.5-4.1-1L177.1,210.6z"/>
	<path d="M197.6,205.5h-6.3v5.8h7v1.8h-9.1v-16.2h8.7v1.8h-6.6v5.1h6.3V205.5z"/>
	<path d="M214.4,215.5c-2.2-0.6-4.3-1.2-6.2-1.9c-0.3-0.1-0.7-0.2-1-0.2c-3.8-0.1-7.1-3-7.1-8.2c0-5.2,3.2-8.5,7.5-8.5
		c4.4,0,7.2,3.4,7.2,8.2c0,4.2-1.9,6.8-4.6,7.8v0.1c1.6,0.4,3.4,0.8,4.7,1L214.4,215.5z M212.7,204.9c0-3.2-1.7-6.6-5.1-6.6
		c-3.5,0-5.3,3.3-5.2,6.8c0,3.4,1.9,6.5,5.1,6.5C210.8,211.7,212.7,208.6,212.7,204.9z"/>
	<path d="M217,203.4c0-0.9,0.6-1.5,1.4-1.5c0.8,0,1.4,0.6,1.4,1.5c0,0.8-0.6,1.5-1.4,1.5C217.6,204.9,217,204.3,217,203.4z
		 M217,211.9c0-0.9,0.6-1.5,1.4-1.5c0.8,0,1.4,0.6,1.4,1.5c0,0.8-0.6,1.5-1.4,1.5C217.6,213.4,217,212.7,217,211.9z"/>
	<path d="M242.1,197.5v1.4l-6.8,14.2h-2.2l6.8-13.8v0h-7.6v-1.8H242.1z"/>
	<path d="M250.8,213.1v-4.2h-7.2v-1.4l7-10h2.3v9.7h2.2v1.7h-2.2v4.2H250.8z M250.8,207.2V202c0-0.8,0-1.6,0.1-2.4h-0.1
		c-0.5,0.9-0.9,1.6-1.3,2.3l-3.8,5.3v0H250.8z"/>
	<path d="M180,236.8l-1.7,5.1h-2.2l5.5-16.2h2.5l5.5,16.2h-2.2l-1.7-5.1H180z M185.3,235.2l-1.6-4.7c-0.4-1.1-0.6-2-0.8-3h0
		c-0.2,1-0.5,1.9-0.8,2.9l-1.6,4.7H185.3z"/>
	<path d="M203,241.4c-0.8,0.4-2.3,0.8-4.3,0.8c-4.6,0-8-2.9-8-8.2c0-5.1,3.4-8.5,8.4-8.5c2,0,3.3,0.4,3.8,0.7l-0.5,1.7
		c-0.8-0.4-1.9-0.7-3.3-0.7c-3.8,0-6.3,2.4-6.3,6.7c0,4,2.3,6.5,6.2,6.5c1.3,0,2.6-0.3,3.4-0.7L203,241.4z"/>
	<path d="M205.6,225.7h2.1v7.8h0.1c0.4-0.6,0.9-1.2,1.3-1.7l4.9-6.1h2.6l-5.9,6.9l6.3,9.3h-2.5l-5.3-7.9l-1.5,1.8v6.2h-2.1V225.7z"
		/>
	<path d="M218.6,232.2c0-0.9,0.6-1.5,1.4-1.5c0.8,0,1.4,0.6,1.4,1.5c0,0.8-0.6,1.5-1.4,1.5C219.2,233.7,218.6,233.1,218.6,232.2z
		 M218.6,240.7c0-0.9,0.6-1.5,1.4-1.5c0.8,0,1.4,0.6,1.4,1.5c0,0.8-0.6,1.5-1.4,1.5C219.2,242.2,218.6,241.5,218.6,240.7z"/>
	<path d="M243.7,226.3v1.4l-6.8,14.2h-2.2l6.8-13.8v0h-7.6v-1.8H243.7z"/>
	<path d="M246.4,239.5c0.6,0.4,2,1,3.5,1c2.7,0,3.6-1.7,3.5-3c0-2.2-2-3.1-4-3.1h-1.2v-1.6h1.2c1.5,0,3.5-0.8,3.5-2.6
		c0-1.2-0.8-2.4-2.7-2.4c-1.2,0-2.4,0.6-3.1,1l-0.6-1.5c0.8-0.6,2.4-1.2,4.1-1.2c3.1,0,4.5,1.8,4.5,3.7c0,1.6-1,3-2.9,3.7v0
		c1.9,0.4,3.5,1.8,3.5,4c0,2.5-1.9,4.7-5.7,4.7c-1.8,0-3.3-0.6-4.1-1.1L246.4,239.5z"/>
</g>
<g>
	<path d="M142.7,319.4l-1.7,5.2h-2.2l5.6-16.5h2.6l5.6,16.5h-2.3l-1.8-5.2H142.7z M148.1,317.8l-1.6-4.8c-0.4-1.1-0.6-2.1-0.9-3h0
		c-0.2,1-0.5,2-0.8,3l-1.6,4.8H148.1z"/>
	<path d="M155,324.6v-10.2h-1.7v-1.6h1.7v-0.6c0-1.7,0.4-3.2,1.4-4.1c0.8-0.8,1.9-1.1,2.9-1.1c0.8,0,1.4,0.2,1.8,0.3l-0.3,1.7
		c-0.3-0.1-0.8-0.3-1.4-0.3c-1.8,0-2.3,1.6-2.3,3.4v0.6h2.9v1.6h-2.9v10.2H155z"/>
	<path d="M164.8,309.4v3.4h3.1v1.6h-3.1v6.4c0,1.5,0.4,2.3,1.6,2.3c0.6,0,1-0.1,1.3-0.1l0.1,1.6c-0.4,0.2-1.1,0.3-1.9,0.3
		c-1,0-1.8-0.3-2.3-0.9c-0.6-0.6-0.8-1.7-0.8-3.1v-6.5h-1.8v-1.6h1.8v-2.8L164.8,309.4z"/>
	<path d="M171.4,319.1c0,2.9,1.9,4.1,4.1,4.1c1.5,0,2.5-0.3,3.3-0.6l0.4,1.5c-0.8,0.3-2.1,0.7-3.9,0.7c-3.7,0-5.8-2.4-5.8-6
		s2.1-6.4,5.6-6.4c3.9,0,4.9,3.4,4.9,5.6c0,0.4,0,0.8-0.1,1H171.4z M177.7,317.5c0-1.4-0.6-3.5-3-3.5c-2.2,0-3.1,2-3.3,3.5H177.7z"
		/>
	<path d="M182.5,316.5c0-1.4,0-2.6-0.1-3.7h1.9l0.1,2.3h0.1c0.5-1.6,1.8-2.6,3.3-2.6c0.2,0,0.4,0,0.6,0.1v2c-0.2,0-0.4-0.1-0.7-0.1
		c-1.5,0-2.6,1.2-2.9,2.8c0,0.3-0.1,0.6-0.1,1v6.3h-2.1V316.5z"/>
	<path d="M198.3,309.4v3.4h3.1v1.6h-3.1v6.4c0,1.5,0.4,2.3,1.6,2.3c0.6,0,1-0.1,1.3-0.1l0.1,1.6c-0.4,0.2-1.1,0.3-1.9,0.3
		c-1,0-1.8-0.3-2.3-0.9c-0.6-0.6-0.8-1.7-0.8-3.1v-6.5h-1.8v-1.6h1.8v-2.8L198.3,309.4z"/>
	<path d="M203.8,307.2h2.2v7.4h0c0.3-0.6,0.9-1.2,1.5-1.5c0.6-0.4,1.4-0.6,2.2-0.6c1.6,0,4.1,1,4.1,5.1v7.1h-2.2v-6.8
		c0-1.9-0.7-3.5-2.7-3.5c-1.4,0-2.5,1-2.9,2.2c-0.1,0.3-0.1,0.6-0.1,1v7.2h-2.2V307.2z"/>
	<path d="M219.8,309.4c0,0.7-0.5,1.3-1.4,1.3c-0.8,0-1.3-0.6-1.3-1.3c0-0.8,0.6-1.3,1.3-1.3C219.3,308.1,219.8,308.7,219.8,309.4z
		 M217.4,324.6v-11.9h2.2v11.9H217.4z"/>
	<path d="M222.9,322.4c0.6,0.4,1.8,0.9,2.8,0.9c1.6,0,2.3-0.8,2.3-1.8c0-1-0.6-1.6-2.2-2.2c-2.1-0.8-3.1-1.9-3.1-3.4
		c0-1.9,1.5-3.5,4.1-3.5c1.2,0,2.3,0.3,2.9,0.7l-0.5,1.6c-0.5-0.3-1.3-0.7-2.4-0.7c-1.3,0-2,0.7-2,1.6c0,1,0.7,1.4,2.3,2
		c2.1,0.8,3.1,1.8,3.1,3.6c0,2.1-1.6,3.6-4.4,3.6c-1.3,0-2.5-0.3-3.3-0.8L222.9,322.4z"/>
	<path d="M240.7,309.4v3.4h3.1v1.6h-3.1v6.4c0,1.5,0.4,2.3,1.6,2.3c0.6,0,1-0.1,1.3-0.1l0.1,1.6c-0.4,0.2-1.1,0.3-1.9,0.3
		c-1,0-1.8-0.3-2.3-0.9c-0.6-0.6-0.8-1.7-0.8-3.1v-6.5h-1.8v-1.6h1.8v-2.8L240.7,309.4z"/>
	<path d="M246.2,307.2h2.2v7.4h0c0.3-0.6,0.9-1.2,1.5-1.5c0.6-0.4,1.4-0.6,2.2-0.6c1.6,0,4.1,1,4.1,5.1v7.1h-2.2v-6.8
		c0-1.9-0.7-3.5-2.7-3.5c-1.4,0-2.5,1-2.9,2.2c-0.1,0.3-0.1,0.6-0.1,1v7.2h-2.2V307.2z"/>
	<path d="M259.8,316.5c0-1.4,0-2.6-0.1-3.7h1.9l0.1,2.3h0.1c0.5-1.6,1.8-2.6,3.3-2.6c0.2,0,0.4,0,0.6,0.1v2c-0.2,0-0.4-0.1-0.7-0.1
		c-1.5,0-2.6,1.2-2.9,2.8c0,0.3-0.1,0.6-0.1,1v6.3h-2.1V316.5z"/>
	<path d="M268.8,319.1c0,2.9,1.9,4.1,4.1,4.1c1.5,0,2.5-0.3,3.3-0.6l0.4,1.5c-0.8,0.3-2.1,0.7-3.9,0.7c-3.7,0-5.8-2.4-5.8-6
		s2.1-6.4,5.6-6.4c3.9,0,4.9,3.4,4.9,5.6c0,0.4,0,0.8-0.1,1H268.8z M275.1,317.5c0-1.4-0.6-3.5-3-3.5c-2.2,0-3.1,2-3.3,3.5H275.1z"
		/>
	<path d="M281.1,319.1c0,2.9,1.9,4.1,4.1,4.1c1.5,0,2.5-0.3,3.3-0.6l0.4,1.5c-0.8,0.3-2.1,0.7-3.9,0.7c-3.7,0-5.8-2.4-5.8-6
		s2.1-6.4,5.6-6.4c3.9,0,4.9,3.4,4.9,5.6c0,0.4,0,0.8-0.1,1H281.1z M287.4,317.5c0-1.4-0.6-3.5-3-3.5c-2.2,0-3.1,2-3.3,3.5H287.4z"
		/>
	<path d="M297.8,317.2v1.6h-6.1v-1.6H297.8z"/>
	<path d="M301.1,312.8l1.6,6c0.3,1.3,0.7,2.6,0.9,3.8h0.1c0.3-1.2,0.7-2.5,1.1-3.8l1.9-6.1h1.8l1.8,5.9c0.4,1.4,0.8,2.7,1.1,3.9h0.1
		c0.2-1.2,0.5-2.5,0.9-3.9l1.7-6h2.1l-3.8,11.9h-2l-1.8-5.7c-0.4-1.3-0.8-2.5-1.1-3.9h0c-0.3,1.4-0.7,2.6-1.1,3.9l-1.9,5.6h-2
		l-3.6-11.9H301.1z"/>
	<path d="M324.8,324.6l-0.2-1.5h-0.1c-0.7,0.9-1.9,1.8-3.6,1.8c-2.4,0-3.6-1.7-3.6-3.4c0-2.9,2.5-4.4,7.1-4.4v-0.2
		c0-1-0.3-2.7-2.7-2.7c-1.1,0-2.3,0.3-3.1,0.9l-0.5-1.4c1-0.6,2.4-1.1,3.9-1.1c3.6,0,4.5,2.5,4.5,4.9v4.4c0,1,0,2,0.2,2.8H324.8z
		 M324.5,318.6c-2.4,0-5,0.4-5,2.7c0,1.4,0.9,2.1,2,2.1c1.5,0,2.5-1,2.9-2c0.1-0.2,0.1-0.5,0.1-0.7V318.6z"/>
	<path d="M330.6,312.8l2.6,7c0.3,0.8,0.6,1.7,0.8,2.4h0c0.2-0.7,0.5-1.6,0.8-2.5l2.4-7h2.3l-3.2,8.5c-1.5,4.1-2.6,6.2-4.1,7.4
		c-1.1,0.9-2.1,1.3-2.6,1.4l-0.5-1.8c0.5-0.2,1.3-0.5,1.9-1.1c0.6-0.5,1.3-1.3,1.8-2.4c0.1-0.2,0.2-0.4,0.2-0.5s0-0.3-0.1-0.6
		l-4.4-10.9H330.6z"/>
	<path d="M346.6,307.2h2.2v7.4h0c0.3-0.6,0.9-1.2,1.5-1.5c0.6-0.4,1.4-0.6,2.2-0.6c1.6,0,4.1,1,4.1,5.1v7.1h-2.2v-6.8
		c0-1.9-0.7-3.5-2.7-3.5c-1.4,0-2.5,1-2.9,2.2c-0.1,0.3-0.1,0.6-0.1,1v7.2h-2.2V307.2z"/>
	<path d="M366.8,324.6l-0.2-1.5h-0.1c-0.7,0.9-1.9,1.8-3.6,1.8c-2.4,0-3.6-1.7-3.6-3.4c0-2.9,2.5-4.4,7.1-4.4v-0.2
		c0-1-0.3-2.7-2.7-2.7c-1.1,0-2.3,0.3-3.1,0.9l-0.5-1.4c1-0.6,2.4-1.1,3.9-1.1c3.6,0,4.5,2.5,4.5,4.9v4.4c0,1,0,2,0.2,2.8H366.8z
		 M366.4,318.6c-2.4,0-5,0.4-5,2.7c0,1.4,0.9,2.1,2,2.1c1.5,0,2.5-1,2.9-2c0.1-0.2,0.1-0.5,0.1-0.7V318.6z"/>
	<path d="M372,316c0-1.2,0-2.2-0.1-3.2h1.9l0.1,2h0c0.6-1.1,2-2.2,3.9-2.2c1.6,0,4.2,1,4.2,5.1v7.1H380v-6.8c0-1.9-0.7-3.5-2.7-3.5
		c-1.4,0-2.5,1-2.9,2.2c-0.1,0.3-0.1,0.6-0.1,1v7.1H372V316z"/>
	<path d="M395.9,307.2v14.3c0,1.1,0,2.3,0.1,3.1H394l-0.1-2.1h0c-0.7,1.3-2.1,2.3-4,2.3c-2.9,0-5.1-2.4-5.1-6c0-3.9,2.4-6.4,5.3-6.4
		c1.8,0,3,0.9,3.6,1.8h0v-7.1H395.9z M393.7,317.6c0-0.3,0-0.6-0.1-0.9c-0.3-1.4-1.5-2.5-3.1-2.5c-2.2,0-3.6,2-3.6,4.6
		c0,2.4,1.2,4.4,3.5,4.4c1.4,0,2.8-1,3.2-2.6c0.1-0.3,0.1-0.6,0.1-0.9V317.6z"/>
	<path d="M399.2,322.4c0.6,0.4,1.8,0.9,2.8,0.9c1.6,0,2.3-0.8,2.3-1.8c0-1-0.6-1.6-2.2-2.2c-2.1-0.8-3.1-1.9-3.1-3.4
		c0-1.9,1.5-3.5,4.1-3.5c1.2,0,2.3,0.3,2.9,0.7l-0.5,1.6c-0.5-0.3-1.3-0.7-2.4-0.7c-1.3,0-2,0.7-2,1.6c0,1,0.7,1.4,2.3,2
		c2.1,0.8,3.1,1.8,3.1,3.6c0,2.1-1.6,3.6-4.4,3.6c-1.3,0-2.5-0.3-3.3-0.8L399.2,322.4z"/>
	<path d="M409.2,307.2h2.2v7.4h0c0.3-0.6,0.9-1.2,1.5-1.5c0.6-0.4,1.4-0.6,2.2-0.6c1.6,0,4.1,1,4.1,5.1v7.1h-2.2v-6.8
		c0-1.9-0.7-3.5-2.7-3.5c-1.4,0-2.5,1-2.9,2.2c-0.1,0.3-0.1,0.6-0.1,1v7.2h-2.2V307.2z"/>
	<path d="M429.3,324.6l-0.2-1.5h-0.1c-0.7,0.9-1.9,1.8-3.6,1.8c-2.4,0-3.6-1.7-3.6-3.4c0-2.9,2.5-4.4,7.1-4.4v-0.2
		c0-1-0.3-2.7-2.7-2.7c-1.1,0-2.3,0.3-3.1,0.9l-0.5-1.4c1-0.6,2.4-1.1,3.9-1.1c3.6,0,4.5,2.5,4.5,4.9v4.4c0,1,0,2,0.2,2.8H429.3z
		 M429,318.6c-2.4,0-5,0.4-5,2.7c0,1.4,0.9,2.1,2,2.1c1.5,0,2.5-1,2.9-2c0.1-0.2,0.1-0.5,0.1-0.7V318.6z"/>
	<path d="M436.7,318.2L436.7,318.2c0.3-0.4,0.8-0.9,1.1-1.3l3.5-4.1h2.6l-4.6,4.9l5.2,7h-2.6l-4.1-5.7l-1.1,1.2v4.5h-2.1v-17.4h2.1
		V318.2z"/>
	<path d="M447.3,319.1c0,2.9,1.9,4.1,4.1,4.1c1.5,0,2.5-0.3,3.3-0.6l0.4,1.5c-0.8,0.3-2.1,0.7-3.9,0.7c-3.7,0-5.8-2.4-5.8-6
		s2.1-6.4,5.6-6.4c3.9,0,4.9,3.4,4.9,5.6c0,0.4,0,0.8-0.1,1H447.3z M453.6,317.5c0-1.4-0.6-3.5-3-3.5c-2.2,0-3.1,2-3.3,3.5H453.6z"
		/>
	<path d="M456.7,327.7c0.5-1.4,1.2-4.1,1.5-5.9l2.4-0.2c-0.6,2.1-1.6,4.8-2.3,6L456.7,327.7z"/>
	<path d="M468.4,316.5c0-1.4,0-2.6-0.1-3.7h1.9l0.1,2.3h0.1c0.5-1.6,1.8-2.6,3.3-2.6c0.2,0,0.4,0,0.6,0.1v2c-0.2,0-0.4-0.1-0.7-0.1
		c-1.5,0-2.6,1.2-2.9,2.8c0,0.3-0.1,0.6-0.1,1v6.3h-2.1V316.5z"/>
	<path d="M477.3,319.1c0,2.9,1.9,4.1,4.1,4.1c1.5,0,2.5-0.3,3.3-0.6l0.4,1.5c-0.8,0.3-2.1,0.7-3.9,0.7c-3.7,0-5.8-2.4-5.8-6
		s2.1-6.4,5.6-6.4c3.9,0,4.9,3.4,4.9,5.6c0,0.4,0,0.8-0.1,1H477.3z M483.7,317.5c0-1.4-0.6-3.5-3-3.5c-2.2,0-3.1,2-3.3,3.5H483.7z"
		/>
	<path d="M498.7,312.8c0,0.9-0.1,1.8-0.1,3.3v6.9c0,2.7-0.5,4.4-1.7,5.4c-1.2,1.1-2.8,1.4-4.3,1.4c-1.4,0-3-0.3-3.9-1l0.5-1.6
		c0.8,0.5,2,0.9,3.5,0.9c2.2,0,3.8-1.2,3.8-4.1v-1.3h0c-0.7,1.1-1.9,2-3.8,2c-2.9,0-5.1-2.5-5.1-5.8c0-4,2.6-6.3,5.3-6.3
		c2.1,0,3.2,1.1,3.7,2.1h0l0.1-1.8H498.7z M496.4,317.5c0-0.4,0-0.7-0.1-1c-0.4-1.3-1.4-2.3-3-2.3c-2.1,0-3.5,1.7-3.5,4.5
		c0,2.3,1.2,4.3,3.5,4.3c1.3,0,2.5-0.8,3-2.2c0.1-0.4,0.2-0.8,0.2-1.2V317.5z"/>
	<path d="M512.1,321.4c0,1.2,0,2.3,0.1,3.2h-1.9l-0.1-1.9h0c-0.6,1-1.8,2.2-3.9,2.2c-1.9,0-4.1-1-4.1-5.2v-6.9h2.2v6.6
		c0,2.3,0.7,3.8,2.6,3.8c1.4,0,2.5-1,2.8-2c0.1-0.3,0.2-0.7,0.2-1.1v-7.3h2.2V321.4z"/>
	<path d="M515.7,307.2h2.2v17.4h-2.2V307.2z"/>
	<path d="M528,324.6l-0.2-1.5h-0.1c-0.7,0.9-1.9,1.8-3.6,1.8c-2.4,0-3.6-1.7-3.6-3.4c0-2.9,2.5-4.4,7.1-4.4v-0.2
		c0-1-0.3-2.7-2.7-2.7c-1.1,0-2.3,0.3-3.1,0.9l-0.5-1.4c1-0.6,2.4-1.1,3.9-1.1c3.6,0,4.5,2.5,4.5,4.9v4.4c0,1,0,2,0.2,2.8H528z
		 M527.7,318.6c-2.4,0-5,0.4-5,2.7c0,1.4,0.9,2.1,2,2.1c1.5,0,2.5-1,2.9-2c0.1-0.2,0.1-0.5,0.1-0.7V318.6z"/>
	<path d="M533.3,316.5c0-1.4,0-2.6-0.1-3.7h1.9l0.1,2.3h0.1c0.5-1.6,1.8-2.6,3.3-2.6c0.2,0,0.4,0,0.6,0.1v2c-0.2,0-0.4-0.1-0.7-0.1
		c-1.5,0-2.6,1.2-2.9,2.8c0,0.3-0.1,0.6-0.1,1v6.3h-2.1V316.5z"/>
	<path d="M549.1,309.4v3.4h3.1v1.6h-3.1v6.4c0,1.5,0.4,2.3,1.6,2.3c0.6,0,1-0.1,1.3-0.1l0.1,1.6c-0.4,0.2-1.1,0.3-1.9,0.3
		c-1,0-1.8-0.3-2.3-0.9c-0.6-0.6-0.8-1.7-0.8-3.1v-6.5h-1.8v-1.6h1.8v-2.8L549.1,309.4z"/>
	<path d="M554.6,316.5c0-1.4,0-2.6-0.1-3.7h1.9l0.1,2.3h0.1c0.5-1.6,1.8-2.6,3.3-2.6c0.2,0,0.4,0,0.6,0.1v2c-0.2,0-0.4-0.1-0.7-0.1
		c-1.5,0-2.6,1.2-2.9,2.8c0,0.3-0.1,0.6-0.1,1v6.3h-2.1V316.5z"/>
	<path d="M569.1,324.6l-0.2-1.5h-0.1c-0.7,0.9-1.9,1.8-3.6,1.8c-2.4,0-3.6-1.7-3.6-3.4c0-2.9,2.5-4.4,7.1-4.4v-0.2
		c0-1-0.3-2.7-2.7-2.7c-1.1,0-2.3,0.3-3.1,0.9l-0.5-1.4c1-0.6,2.4-1.1,3.9-1.1c3.6,0,4.5,2.5,4.5,4.9v4.4c0,1,0,2,0.2,2.8H569.1z
		 M568.8,318.6c-2.4,0-5,0.4-5,2.7c0,1.4,0.9,2.1,2,2.1c1.5,0,2.5-1,2.9-2c0.1-0.2,0.1-0.5,0.1-0.7V318.6z"/>
	<path d="M589.2,309.3c-0.5-0.3-1.4-0.6-2.4-0.6c-2.3,0-3,1.6-3,3.5v0.6h6.9v11.9h-2.2v-10.2h-4.7v10.2h-2.2v-10.2h-5v10.2h-2.1
		v-10.2h-1.7v-1.6h1.7v-0.4c0-1.5,0.4-2.9,1.4-3.9c0.7-0.7,1.7-1.2,3-1.2c0.8,0,1.6,0.3,2.1,0.5l-0.6,1.6c-0.4-0.2-0.9-0.4-1.5-0.4
		c-0.7,0-1.2,0.2-1.5,0.6c-0.6,0.6-0.8,1.7-0.8,2.7v0.5h5v-0.6c0-3.1,1.9-5.2,5.2-5.2c1.1,0,2.3,0.3,2.9,0.8L589.2,309.3z"/>
	<path d="M602.8,324.2c-0.6,0.3-1.8,0.7-3.4,0.7c-3.6,0-5.9-2.4-5.9-6.1c0-3.7,2.5-6.3,6.4-6.3c1.3,0,2.4,0.3,3,0.6l-0.5,1.7
		c-0.5-0.3-1.3-0.6-2.5-0.6c-2.7,0-4.2,2-4.2,4.5c0,2.7,1.8,4.4,4.1,4.4c1.2,0,2-0.3,2.6-0.6L602.8,324.2z"/>
	<path d="M610.2,322.4c0.6,0.4,1.8,0.9,2.8,0.9c1.6,0,2.3-0.8,2.3-1.8c0-1-0.6-1.6-2.2-2.2c-2.1-0.8-3.1-1.9-3.1-3.4
		c0-1.9,1.5-3.5,4.1-3.5c1.2,0,2.3,0.3,2.9,0.7l-0.5,1.6c-0.5-0.3-1.3-0.7-2.4-0.7c-1.3,0-2,0.7-2,1.6c0,1,0.7,1.4,2.3,2
		c2.1,0.8,3.1,1.8,3.1,3.6c0,2.1-1.6,3.6-4.4,3.6c-1.3,0-2.5-0.3-3.3-0.8L610.2,322.4z"/>
	<path d="M622.8,309.4v3.4h3.1v1.6h-3.1v6.4c0,1.5,0.4,2.3,1.6,2.3c0.6,0,1-0.1,1.3-0.1l0.1,1.6c-0.4,0.2-1.1,0.3-1.9,0.3
		c-1,0-1.8-0.3-2.3-0.9c-0.6-0.6-0.8-1.7-0.8-3.1v-6.5h-1.8v-1.6h1.8v-2.8L622.8,309.4z"/>
	<path d="M634.9,324.6l-0.2-1.5h-0.1c-0.7,0.9-1.9,1.8-3.6,1.8c-2.4,0-3.6-1.7-3.6-3.4c0-2.9,2.5-4.4,7.1-4.4v-0.2
		c0-1-0.3-2.7-2.7-2.7c-1.1,0-2.3,0.3-3.1,0.9l-0.5-1.4c1-0.6,2.4-1.1,3.9-1.1c3.6,0,4.5,2.5,4.5,4.9v4.4c0,1,0,2,0.2,2.8H634.9z
		 M634.6,318.6c-2.4,0-5,0.4-5,2.7c0,1.4,0.9,2.1,2,2.1c1.5,0,2.5-1,2.9-2c0.1-0.2,0.1-0.5,0.1-0.7V318.6z"/>
	<path d="M640.2,316.5c0-1.4,0-2.6-0.1-3.7h1.9l0.1,2.3h0.1c0.5-1.6,1.8-2.6,3.3-2.6c0.2,0,0.4,0,0.6,0.1v2c-0.2,0-0.4-0.1-0.7-0.1
		c-1.5,0-2.6,1.2-2.9,2.8c0,0.3-0.1,0.6-0.1,1v6.3h-2.1V316.5z"/>
	<path d="M651.4,309.4v3.4h3.1v1.6h-3.1v6.4c0,1.5,0.4,2.3,1.6,2.3c0.6,0,1-0.1,1.3-0.1l0.1,1.6c-0.4,0.2-1.1,0.3-1.9,0.3
		c-1,0-1.8-0.3-2.3-0.9c-0.6-0.6-0.8-1.7-0.8-3.1v-6.5h-1.8v-1.6h1.8v-2.8L651.4,309.4z"/>
	<path d="M656.6,322.4c0.6,0.4,1.8,0.9,2.8,0.9c1.6,0,2.3-0.8,2.3-1.8c0-1-0.6-1.6-2.2-2.2c-2.1-0.8-3.1-1.9-3.1-3.4
		c0-1.9,1.5-3.5,4.1-3.5c1.2,0,2.3,0.3,2.9,0.7l-0.5,1.6c-0.5-0.3-1.3-0.7-2.4-0.7c-1.3,0-2,0.7-2,1.6c0,1,0.7,1.4,2.3,2
		c2.1,0.8,3.1,1.8,3.1,3.6c0,2.1-1.6,3.6-4.4,3.6c-1.3,0-2.5-0.3-3.3-0.8L656.6,322.4z"/>
	<path d="M665.8,323.4c0-0.9,0.6-1.5,1.5-1.5s1.4,0.6,1.4,1.5c0,0.9-0.6,1.5-1.5,1.5C666.4,324.9,665.8,324.2,665.8,323.4z"/>
</g>
<g>
	<path d="M314.9,91.9c0.5,0.3,1.3,0.6,2.2,0.6c1.2,0,2-0.7,2-1.6c0-0.9-0.5-1.4-1.8-1.9c-1.5-0.5-2.5-1.3-2.5-2.7
		c0-1.5,1.2-2.6,3.1-2.6c1,0,1.7,0.2,2.1,0.5l-0.3,1c-0.3-0.2-0.9-0.4-1.8-0.4c-1.3,0-1.8,0.8-1.8,1.4c0,0.9,0.6,1.3,1.9,1.8
		c1.6,0.6,2.4,1.4,2.4,2.8c0,1.5-1.1,2.7-3.3,2.7c-0.9,0-1.9-0.3-2.4-0.6L314.9,91.9z"/>
	<path d="M324.1,93.4v-4l-3-5.4h1.4l1.3,2.6c0.4,0.7,0.6,1.3,0.9,1.9h0c0.3-0.6,0.6-1.2,1-1.9l1.4-2.6h1.4l-3.2,5.4v4H324.1z"/>
	<path d="M329.5,93.4V84h1.3l3,4.8c0.7,1.1,1.2,2.1,1.7,3.1l0,0c-0.1-1.3-0.1-2.4-0.1-3.9V84h1.1v9.4h-1.2l-3-4.8
		c-0.7-1.1-1.3-2.1-1.8-3.2l0,0c0.1,1.2,0.1,2.3,0.1,3.9v4H329.5z"/>
</g>
<g>
	<path d="M463.5,131.7c0.5,0.3,1.3,0.6,2.2,0.6c1.2,0,2-0.7,2-1.6c0-0.9-0.5-1.4-1.8-1.9c-1.5-0.5-2.5-1.3-2.5-2.7
		c0-1.5,1.2-2.6,3.1-2.6c1,0,1.7,0.2,2.1,0.5l-0.3,1c-0.3-0.2-0.9-0.4-1.8-0.4c-1.3,0-1.8,0.8-1.8,1.4c0,0.9,0.6,1.3,1.9,1.8
		c1.6,0.6,2.4,1.4,2.4,2.8c0,1.5-1.1,2.7-3.3,2.7c-0.9,0-1.9-0.3-2.4-0.6L463.5,131.7z"/>
	<path d="M472.7,133.2v-4l-3-5.4h1.4l1.3,2.6c0.4,0.7,0.6,1.3,0.9,1.9h0c0.3-0.6,0.6-1.2,1-1.9l1.4-2.6h1.4l-3.2,5.4v4H472.7z"/>
	<path d="M478,133.2v-9.4h1.3l3,4.8c0.7,1.1,1.2,2.1,1.7,3.1l0,0c-0.1-1.3-0.1-2.4-0.1-3.9v-3.9h1.1v9.4h-1.2l-3-4.8
		c-0.7-1.1-1.3-2.1-1.8-3.2l0,0c0.1,1.2,0.1,2.3,0.1,3.9v4H478z"/>
</g>
<g>
	<path class="st0" d="M488.1,163.2h-27.5c-2.3,0-4.2-1.9-4.2-4.2v-10.3c0-2.3,1.9-4.2,4.2-4.2h27.5c2.3,0,4.2,1.9,4.2,4.2v10.3
		C492.3,161.4,490.4,163.2,488.1,163.2z"/>
	<path d="M488.1,163.7h-27.5c-2.6,0-4.7-2.1-4.7-4.7v-10.3c0-2.6,2.1-4.7,4.7-4.7h27.5c2.6,0,4.7,2.1,4.7,4.7v10.3
		C492.8,161.7,490.7,163.7,488.1,163.7z M460.6,145.1c-2,0-3.7,1.6-3.7,3.7v10.3c0,2,1.6,3.7,3.7,3.7h27.5c2,0,3.7-1.6,3.7-3.7
		v-10.3c0-2-1.6-3.7-3.7-3.7H460.6z"/>
</g>
<g>
	<path d="M465,155.4l-1,3h-1.3l3.2-9.4h1.5l3.2,9.4h-1.3l-1-3H465z M468,154.5l-0.9-2.7c-0.2-0.6-0.4-1.2-0.5-1.7h0
		c-0.1,0.6-0.3,1.1-0.5,1.7l-0.9,2.7H468z"/>
	<path d="M478.4,158.1c-0.4,0.2-1.3,0.4-2.5,0.4c-2.7,0-4.7-1.7-4.7-4.8c0-3,2-5,4.9-5c1.2,0,1.9,0.3,2.2,0.4l-0.3,1
		c-0.5-0.2-1.1-0.4-1.9-0.4c-2.2,0-3.7,1.4-3.7,3.9c0,2.3,1.3,3.8,3.6,3.8c0.7,0,1.5-0.2,2-0.4L478.4,158.1z"/>
	<path d="M479.9,149h1.2v4.6h0c0.3-0.4,0.5-0.7,0.7-1l2.9-3.5h1.5l-3.4,4l3.7,5.4h-1.4l-3.1-4.6l-0.9,1v3.6h-1.2V149z"/>
</g>
<g>
	<path class="st0" d="M339.6,232.4h-27.5c-2.3,0-4.2-1.9-4.2-4.2v-10.3c0-2.3,1.9-4.2,4.2-4.2h27.5c2.3,0,4.2,1.9,4.2,4.2v10.3
		C343.7,230.5,341.9,232.4,339.6,232.4z"/>
	<path d="M339.6,232.9h-27.5c-2.6,0-4.7-2.1-4.7-4.7v-10.3c0-2.6,2.1-4.7,4.7-4.7h27.5c2.6,0,4.7,2.1,4.7,4.7v10.3
		C344.2,230.8,342.1,232.9,339.6,232.9z M312.1,214.2c-2,0-3.7,1.6-3.7,3.7v10.3c0,2,1.6,3.7,3.7,3.7h27.5c2,0,3.7-1.6,3.7-3.7
		v-10.3c0-2-1.6-3.7-3.7-3.7H312.1z"/>
</g>
<g>
	<path d="M316.4,224.6l-1,3h-1.3l3.2-9.4h1.5l3.2,9.4h-1.3l-1-3H316.4z M319.5,223.6l-0.9-2.7c-0.2-0.6-0.4-1.2-0.5-1.7h0
		c-0.1,0.6-0.3,1.1-0.5,1.7l-0.9,2.7H319.5z"/>
	<path d="M329.8,227.2c-0.4,0.2-1.3,0.4-2.5,0.4c-2.7,0-4.7-1.7-4.7-4.8c0-3,2-5,4.9-5c1.2,0,1.9,0.3,2.2,0.4l-0.3,1
		c-0.5-0.2-1.1-0.4-1.9-0.4c-2.2,0-3.7,1.4-3.7,3.9c0,2.3,1.3,3.8,3.6,3.8c0.7,0,1.5-0.2,2-0.4L329.8,227.2z"/>
	<path d="M331.3,218.1h1.2v4.6h0c0.3-0.4,0.5-0.7,0.7-1l2.9-3.5h1.5l-3.4,4l3.7,5.4h-1.4l-3.1-4.6l-0.9,1v3.6h-1.2V218.1z"/>
</g>
</svg>
