<?xml version="1.0" encoding="utf-8"?>
<!-- Generator: Adobe Illustrator 19.2.0, SVG Export Plug-In . SVG Version: 6.00 Build 0)  -->
<svg version="1.1" id="Layer_1" xmlns="http://www.w3.org/2000/svg" xmlns:xlink="http://www.w3.org/1999/xlink" x="0px" y="0px"
	 viewBox="0 0 800 478" style="enable-background:new 0 0 800 478;" xml:space="preserve">
<style type="text/css">
	.st0{fill:#FFFFFF;}
</style>
<g>
	<g>
		<path class="st0" d="M615.4,459H184.6c-21.5,0-39-17.5-39-39V60c0-21.5,17.5-39,39-39h430.8c21.5,0,39,17.5,39,39v360
			C654.4,441.5,637,459,615.4,459z"/>
		<path d="M615.4,459.5H184.6c-21.8,0-39.5-17.7-39.5-39.5V60c0-21.8,17.7-39.5,39.5-39.5h430.8c21.8,0,39.5,17.7,39.5,39.5v360
			C654.9,441.8,637.2,459.5,615.4,459.5z M184.6,21.5c-21.2,0-38.5,17.3-38.5,38.5v360c0,21.2,17.3,38.5,38.5,38.5h430.8
			c21.2,0,38.5-17.3,38.5-38.5V60c0-21.2-17.3-38.5-38.5-38.5H184.6z"/>
	</g>
	<g>
		<path class="st0" d="M600.2,166.7H199.8c-9.2,0-16.7-7.5-16.7-16.7v-26.6c0-9.2,7.5-16.7,16.7-16.7h400.4
			c9.2,0,16.7,7.5,16.7,16.7v26.6C616.9,159.3,609.4,166.7,600.2,166.7z"/>
		<path d="M600.2,167.2H199.8c-9.5,0-17.2-7.7-17.2-17.2v-26.6c0-9.5,7.7-17.2,17.2-17.2h400.4c9.5,0,17.2,7.7,17.2,17.2v26.6
			C617.4,159.5,609.7,167.2,600.2,167.2z M199.8,107.3c-8.9,0-16.2,7.3-16.2,16.2v26.6c0,8.9,7.3,16.2,16.2,16.2h400.4
			c8.9,0,16.2-7.3,16.2-16.2v-26.6c0-8.9-7.3-16.2-16.2-16.2H199.8z"/>
	</g>
	<g>
		<path d="M339.7,144.9v-19.7h2.3v19.7H339.7z"/>
		<path d="M359.8,130.9c0,2-0.7,3.5-2,4.6c-1.4,1.1-3.3,1.6-5.8,1.6h-2.3v7.7h-2.3v-19.7h5.1C357.4,125.2,359.8,127.1,359.8,130.9z
			 M349.6,135.2h2.1c2,0,3.5-0.3,4.4-1c0.9-0.7,1.4-1.7,1.4-3.1c0-1.3-0.4-2.3-1.3-2.9c-0.9-0.6-2.2-1-4-1h-2.6V135.2z"/>
		<path d="M386,144.9h-2.3v-9.3h-10.4v9.3h-2.3v-19.7h2.3v8.4h10.4v-8.4h2.3V144.9z"/>
		<path d="M397.3,145.1c-2.2,0-3.9-0.7-5.2-2c-1.3-1.3-1.9-3.2-1.9-5.5c0-2.4,0.6-4.3,1.8-5.7c1.2-1.4,2.7-2.1,4.7-2.1
			c1.8,0,3.3,0.6,4.4,1.8s1.6,2.8,1.6,4.8v1.4h-10.2c0,1.7,0.5,3,1.3,3.9c0.8,0.9,2,1.3,3.5,1.3c1.6,0,3.2-0.3,4.7-1v2
			c-0.8,0.3-1.5,0.6-2.2,0.7C399.1,145,398.3,145.1,397.3,145.1z M396.7,131.7c-1.2,0-2.1,0.4-2.8,1.2c-0.7,0.8-1.1,1.8-1.2,3.2h7.7
			c0-1.4-0.3-2.5-0.9-3.2C398.7,132.1,397.9,131.7,396.7,131.7z"/>
		<path d="M415.6,144.9l-0.4-2.1H415c-0.7,0.9-1.5,1.5-2.2,1.9s-1.6,0.5-2.7,0.5c-1.5,0-2.6-0.4-3.4-1.1c-0.8-0.8-1.2-1.8-1.2-3.2
			c0-3,2.4-4.5,7.1-4.7l2.5-0.1v-0.9c0-1.2-0.2-2-0.7-2.6s-1.3-0.8-2.4-0.8c-1.2,0-2.6,0.4-4.2,1.1l-0.7-1.7
			c0.7-0.4,1.5-0.7,2.4-0.9c0.9-0.2,1.7-0.3,2.6-0.3c1.8,0,3.1,0.4,3.9,1.2c0.8,0.8,1.3,2,1.3,3.8v10.1H415.6z M410.5,143.3
			c1.4,0,2.5-0.4,3.3-1.1c0.8-0.8,1.2-1.8,1.2-3.2v-1.3l-2.2,0.1c-1.8,0.1-3.1,0.3-3.8,0.8c-0.8,0.5-1.2,1.2-1.2,2.3
			c0,0.8,0.2,1.4,0.7,1.8C409,143.1,409.7,143.3,410.5,143.3z"/>
		<path d="M431.9,142.9h-0.1c-1,1.5-2.6,2.2-4.6,2.2c-1.9,0-3.4-0.7-4.5-2s-1.6-3.2-1.6-5.6c0-2.4,0.5-4.3,1.6-5.7s2.6-2,4.5-2
			c2,0,3.5,0.7,4.6,2.2h0.2l-0.1-1.1l-0.1-1v-6h2.2v20.9h-1.8L431.9,142.9z M427.4,143.3c1.5,0,2.6-0.4,3.3-1.2c0.7-0.8,1-2.2,1-4
			v-0.5c0-2.1-0.3-3.6-1-4.5c-0.7-0.9-1.8-1.3-3.3-1.3c-1.3,0-2.3,0.5-3,1.5c-0.7,1-1,2.5-1,4.3c0,1.9,0.3,3.3,1,4.3
			C425,142.8,426.1,143.3,427.4,143.3z"/>
		<path d="M444.9,145.1c-2.2,0-3.9-0.7-5.2-2c-1.3-1.3-1.9-3.2-1.9-5.5c0-2.4,0.6-4.3,1.8-5.7c1.2-1.4,2.7-2.1,4.7-2.1
			c1.8,0,3.3,0.6,4.4,1.8s1.6,2.8,1.6,4.8v1.4h-10.2c0,1.7,0.5,3,1.3,3.9c0.8,0.9,2,1.3,3.5,1.3c1.6,0,3.2-0.3,4.7-1v2
			c-0.8,0.3-1.5,0.6-2.2,0.7C446.8,145,445.9,145.1,444.9,145.1z M444.3,131.7c-1.2,0-2.1,0.4-2.8,1.2c-0.7,0.8-1.1,1.8-1.2,3.2h7.7
			c0-1.4-0.3-2.5-0.9-3.2C446.4,132.1,445.5,131.7,444.3,131.7z"/>
		<path d="M460.9,129.8c0.7,0,1.2,0.1,1.8,0.2l-0.3,2.1c-0.6-0.1-1.1-0.2-1.6-0.2c-1.2,0-2.2,0.5-3.1,1.5s-1.3,2.2-1.3,3.6v7.9h-2.2
			v-14.7h1.8l0.3,2.7h0.1c0.5-1,1.2-1.7,2-2.2S460,129.8,460.9,129.8z"/>
	</g>
	<g>
		<path class="st0" d="M600.2,235.6H199.8c-9.2,0-16.7-7.5-16.7-16.7v-26.6c0-9.2,7.5-16.7,16.7-16.7h400.4
			c9.2,0,16.7,7.5,16.7,16.7v26.6C616.9,228.1,609.4,235.6,600.2,235.6z"/>
		<path d="M600.2,236.1H199.8c-9.5,0-17.2-7.7-17.2-17.2v-26.6c0-9.5,7.7-17.2,17.2-17.2h400.4c9.5,0,17.2,7.7,17.2,17.2v26.6
			C617.4,228.4,609.7,236.1,600.2,236.1z M199.8,176.2c-8.9,0-16.2,7.3-16.2,16.2v26.6c0,8.9,7.3,16.2,16.2,16.2h400.4
			c8.9,0,16.2-7.3,16.2-16.2v-26.6c0-8.9-7.3-16.2-16.2-16.2H199.8z"/>
	</g>
	<g>
		<path d="M338.9,208.5c0,1.7-0.6,3.1-1.9,4c-1.3,1-3,1.5-5.1,1.5c-2.3,0-4.1-0.3-5.4-0.9v-2.2c0.8,0.3,1.7,0.6,2.6,0.8
			c1,0.2,1.9,0.3,2.8,0.3c1.5,0,2.7-0.3,3.4-0.9s1.2-1.4,1.2-2.4c0-0.7-0.1-1.2-0.4-1.7s-0.7-0.8-1.4-1.2s-1.6-0.8-2.9-1.3
			c-1.8-0.7-3.1-1.4-3.9-2.3c-0.8-0.9-1.2-2.1-1.2-3.5c0-1.5,0.6-2.7,1.7-3.6s2.6-1.3,4.5-1.3c2,0,3.8,0.4,5.4,1.1l-0.7,2
			c-1.6-0.7-3.2-1-4.7-1c-1.2,0-2.2,0.3-2.8,0.8c-0.7,0.5-1,1.2-1,2.2c0,0.7,0.1,1.2,0.4,1.7c0.3,0.4,0.7,0.8,1.3,1.2
			c0.6,0.4,1.5,0.8,2.7,1.2c2.1,0.7,3.5,1.5,4.3,2.4C338.5,206,338.9,207.1,338.9,208.5z"/>
		<path d="M355.3,206.3c0,2.4-0.6,4.3-1.8,5.6s-2.9,2-5,2c-1.3,0-2.5-0.3-3.5-0.9c-1-0.6-1.8-1.5-2.4-2.7c-0.6-1.2-0.8-2.5-0.8-4.1
			c0-2.4,0.6-4.3,1.8-5.6c1.2-1.3,2.9-2,5-2c2.1,0,3.7,0.7,4.9,2.1S355.3,204,355.3,206.3z M344.1,206.3c0,1.9,0.4,3.3,1.1,4.3
			c0.8,1,1.9,1.5,3.3,1.5c1.5,0,2.6-0.5,3.3-1.5c0.8-1,1.1-2.4,1.1-4.3c0-1.9-0.4-3.3-1.1-4.3c-0.8-1-1.9-1.5-3.4-1.5
			c-1.5,0-2.6,0.5-3.3,1.4C344.5,203,344.1,204.4,344.1,206.3z"/>
		<path d="M361.3,199v9.6c0,1.2,0.3,2.1,0.8,2.7s1.4,0.9,2.6,0.9c1.5,0,2.7-0.4,3.4-1.3c0.7-0.8,1.1-2.2,1.1-4.1V199h2.2v14.7h-1.8
			l-0.3-2h-0.1c-0.5,0.7-1.1,1.3-1.9,1.7c-0.8,0.4-1.7,0.6-2.8,0.6c-1.8,0-3.1-0.4-4-1.3c-0.9-0.9-1.3-2.2-1.3-4.1V199H361.3z"/>
		<path d="M382.8,198.7c0.7,0,1.2,0.1,1.8,0.2l-0.3,2.1c-0.6-0.1-1.1-0.2-1.6-0.2c-1.2,0-2.2,0.5-3.1,1.5s-1.3,2.2-1.3,3.6v7.9h-2.2
			V199h1.8l0.3,2.7h0.1c0.5-1,1.2-1.7,2-2.2S381.9,198.7,382.8,198.7z"/>
		<path d="M393.3,214c-2.1,0-3.8-0.7-5-2c-1.2-1.3-1.8-3.2-1.8-5.6c0-2.5,0.6-4.4,1.8-5.7s2.9-2,5.1-2c0.7,0,1.4,0.1,2.1,0.2
			c0.7,0.2,1.3,0.3,1.7,0.5l-0.7,1.9c-0.5-0.2-1-0.4-1.6-0.5c-0.6-0.1-1.1-0.2-1.5-0.2c-3,0-4.5,1.9-4.5,5.7c0,1.8,0.4,3.2,1.1,4.2
			c0.7,1,1.8,1.5,3.2,1.5c1.2,0,2.5-0.3,3.8-0.8v2C396,213.7,394.8,214,393.3,214z"/>
		<path d="M406.7,214c-2.2,0-3.9-0.7-5.2-2c-1.3-1.3-1.9-3.2-1.9-5.5c0-2.4,0.6-4.3,1.8-5.7c1.2-1.4,2.7-2.1,4.7-2.1
			c1.8,0,3.3,0.6,4.4,1.8s1.6,2.8,1.6,4.8v1.4H402c0,1.7,0.5,3,1.3,3.9c0.8,0.9,2,1.3,3.5,1.3c1.6,0,3.2-0.3,4.7-1v2
			c-0.8,0.3-1.5,0.6-2.2,0.7C408.5,213.9,407.7,214,406.7,214z M406.1,200.6c-1.2,0-2.1,0.4-2.8,1.2c-0.7,0.8-1.1,1.8-1.2,3.2h7.7
			c0-1.4-0.3-2.5-0.9-3.2C408.2,200.9,407.3,200.6,406.1,200.6z"/>
		<path d="M435.9,199.8c0,2-0.7,3.5-2,4.6c-1.4,1.1-3.3,1.6-5.8,1.6h-2.3v7.7h-2.3V194h5.1C433.4,194,435.9,195.9,435.9,199.8z
			 M425.7,204h2.1c2,0,3.5-0.3,4.4-1c0.9-0.7,1.4-1.7,1.4-3.1c0-1.3-0.4-2.3-1.3-2.9c-0.9-0.6-2.2-1-4-1h-2.6V204z"/>
		<path d="M452.4,206.3c0,2.4-0.6,4.3-1.8,5.6s-2.9,2-5,2c-1.3,0-2.5-0.3-3.5-0.9c-1-0.6-1.8-1.5-2.4-2.7c-0.6-1.2-0.8-2.5-0.8-4.1
			c0-2.4,0.6-4.3,1.8-5.6c1.2-1.3,2.9-2,5-2c2.1,0,3.7,0.7,4.9,2.1S452.4,204,452.4,206.3z M441.2,206.3c0,1.9,0.4,3.3,1.1,4.3
			c0.8,1,1.9,1.5,3.3,1.5c1.5,0,2.6-0.5,3.3-1.5c0.8-1,1.1-2.4,1.1-4.3c0-1.9-0.4-3.3-1.1-4.3c-0.8-1-1.9-1.5-3.4-1.5
			c-1.5,0-2.6,0.5-3.3,1.4C441.5,203,441.2,204.4,441.2,206.3z"/>
		<path d="M463,198.7c0.7,0,1.2,0.1,1.8,0.2l-0.3,2.1c-0.6-0.1-1.1-0.2-1.6-0.2c-1.2,0-2.2,0.5-3.1,1.5s-1.3,2.2-1.3,3.6v7.9h-2.2
			V199h1.8l0.3,2.7h0.1c0.5-1,1.2-1.7,2-2.2S462.1,198.7,463,198.7z"/>
		<path d="M472.3,212.1c0.4,0,0.8,0,1.1-0.1s0.7-0.1,0.9-0.2v1.7c-0.2,0.1-0.6,0.2-1.1,0.3c-0.5,0.1-0.9,0.1-1.3,0.1
			c-2.9,0-4.3-1.5-4.3-4.5v-8.8h-2.1v-1.1l2.1-0.9l0.9-3.1h1.3v3.4h4.3v1.7h-4.3v8.7c0,0.9,0.2,1.6,0.6,2
			C471,211.9,471.6,212.1,472.3,212.1z"/>
	</g>
	<g>
		<path class="st0" d="M600.2,304.4H199.8c-9.2,0-16.7-7.5-16.7-16.7v-26.6c0-9.2,7.5-16.7,16.7-16.7h400.4
			c9.2,0,16.7,7.5,16.7,16.7v26.6C616.9,297,609.4,304.4,600.2,304.4z"/>
		<path d="M600.2,304.9H199.8c-9.5,0-17.2-7.7-17.2-17.2v-26.6c0-9.5,7.7-17.2,17.2-17.2h400.4c9.5,0,17.2,7.7,17.2,17.2v26.6
			C617.4,297.2,609.7,304.9,600.2,304.9z M199.8,245c-8.9,0-16.2,7.3-16.2,16.2v26.6c0,8.9,7.3,16.2,16.2,16.2h400.4
			c8.9,0,16.2-7.3,16.2-16.2v-26.6c0-8.9-7.3-16.2-16.2-16.2H199.8z"/>
	</g>
	<g>
		<path d="M313.8,272.5c0,3.2-0.9,5.7-2.6,7.4s-4.3,2.6-7.6,2.6h-5.4v-19.7h6c3.1,0,5.4,0.8,7.1,2.5S313.8,269.5,313.8,272.5z
			 M311.4,272.6c0-2.6-0.6-4.5-1.9-5.8c-1.3-1.3-3.2-1.9-5.7-1.9h-3.3v15.7h2.8c2.7,0,4.8-0.7,6.1-2
			C310.7,277.2,311.4,275.2,311.4,272.6z"/>
		<path d="M324.1,282.8c-2.2,0-3.9-0.7-5.2-2c-1.3-1.3-1.9-3.2-1.9-5.5c0-2.4,0.6-4.3,1.8-5.7c1.2-1.4,2.7-2.1,4.7-2.1
			c1.8,0,3.3,0.6,4.4,1.8s1.6,2.8,1.6,4.8v1.4h-10.2c0,1.7,0.5,3,1.3,3.9c0.8,0.9,2,1.3,3.5,1.3c1.6,0,3.2-0.3,4.7-1v2
			c-0.8,0.3-1.5,0.6-2.2,0.7C325.9,282.7,325.1,282.8,324.1,282.8z M323.5,269.4c-1.2,0-2.1,0.4-2.8,1.2c-0.7,0.8-1.1,1.8-1.2,3.2
			h7.7c0-1.4-0.3-2.5-0.9-3.2C325.6,269.8,324.7,269.4,323.5,269.4z"/>
		<path d="M342.8,278.5c0,1.4-0.5,2.4-1.5,3.2s-2.5,1.1-4.3,1.1c-2,0-3.5-0.3-4.6-0.9v-2.1c0.7,0.4,1.5,0.6,2.3,0.8
			c0.8,0.2,1.6,0.3,2.3,0.3c1.2,0,2.1-0.2,2.7-0.6c0.6-0.4,0.9-0.9,0.9-1.7c0-0.6-0.2-1.1-0.7-1.5c-0.5-0.4-1.5-0.9-2.9-1.4
			c-1.4-0.5-2.3-1-2.9-1.3c-0.6-0.4-1-0.8-1.3-1.3c-0.3-0.5-0.4-1.1-0.4-1.7c0-1.2,0.5-2.1,1.5-2.8s2.3-1,4-1c1.6,0,3.1,0.3,4.7,1
			l-0.8,1.8c-1.5-0.6-2.8-0.9-4-0.9c-1.1,0-1.9,0.2-2.4,0.5c-0.5,0.3-0.8,0.8-0.8,1.4c0,0.4,0.1,0.7,0.3,1s0.5,0.5,1,0.8
			s1.3,0.6,2.6,1.1c1.7,0.6,2.9,1.3,3.5,1.9C342.5,276.7,342.8,277.5,342.8,278.5z"/>
		<path d="M351.2,280.9c0.4,0,0.8,0,1.1-0.1s0.7-0.1,0.9-0.2v1.7c-0.2,0.1-0.6,0.2-1.1,0.3c-0.5,0.1-0.9,0.1-1.3,0.1
			c-2.9,0-4.3-1.5-4.3-4.5v-8.8h-2.1v-1.1l2.1-0.9l0.9-3.1h1.3v3.4h4.3v1.7h-4.3v8.7c0,0.9,0.2,1.6,0.6,2
			C349.9,280.7,350.5,280.9,351.2,280.9z"/>
		<path d="M356,263.8c0-0.5,0.1-0.9,0.4-1.1c0.3-0.2,0.6-0.4,0.9-0.4c0.4,0,0.7,0.1,0.9,0.4c0.3,0.2,0.4,0.6,0.4,1.1
			s-0.1,0.9-0.4,1.1c-0.3,0.2-0.6,0.4-0.9,0.4c-0.4,0-0.7-0.1-0.9-0.4C356.1,264.7,356,264.3,356,263.8z M358.4,282.5h-2.2v-14.7
			h2.2V282.5z"/>
		<path d="M373.2,282.5V273c0-1.2-0.3-2.1-0.8-2.7s-1.4-0.9-2.6-0.9c-1.5,0-2.7,0.4-3.4,1.3c-0.7,0.8-1.1,2.2-1.1,4.1v7.7h-2.2
			v-14.7h1.8l0.4,2h0.1c0.5-0.7,1.1-1.3,1.9-1.7s1.7-0.6,2.8-0.6c1.8,0,3.1,0.4,4,1.3c0.9,0.9,1.3,2.2,1.3,4.1v9.6H373.2z"/>
		<path d="M389.1,282.5l-0.4-2.1h-0.1c-0.7,0.9-1.5,1.5-2.2,1.9s-1.6,0.5-2.7,0.5c-1.5,0-2.6-0.4-3.4-1.1c-0.8-0.8-1.2-1.8-1.2-3.2
			c0-3,2.4-4.5,7.1-4.7l2.5-0.1v-0.9c0-1.2-0.2-2-0.7-2.6s-1.3-0.8-2.4-0.8c-1.2,0-2.6,0.4-4.2,1.1l-0.7-1.7
			c0.7-0.4,1.5-0.7,2.4-0.9c0.9-0.2,1.7-0.3,2.6-0.3c1.8,0,3.1,0.4,3.9,1.2c0.8,0.8,1.3,2,1.3,3.8v10.1H389.1z M384.1,280.9
			c1.4,0,2.5-0.4,3.3-1.1c0.8-0.8,1.2-1.8,1.2-3.2v-1.3l-2.2,0.1c-1.8,0.1-3.1,0.3-3.8,0.8c-0.8,0.5-1.2,1.2-1.2,2.3
			c0,0.8,0.2,1.4,0.7,1.8C382.5,280.7,383.2,280.9,384.1,280.9z"/>
		<path d="M400.1,280.9c0.4,0,0.8,0,1.1-0.1s0.7-0.1,0.9-0.2v1.7c-0.2,0.1-0.6,0.2-1.1,0.3c-0.5,0.1-0.9,0.1-1.3,0.1
			c-2.9,0-4.3-1.5-4.3-4.5v-8.8h-2.1v-1.1l2.1-0.9l0.9-3.1h1.3v3.4h4.3v1.7h-4.3v8.7c0,0.9,0.2,1.6,0.6,2
			C398.8,280.7,399.4,280.9,400.1,280.9z"/>
		<path d="M404.9,263.8c0-0.5,0.1-0.9,0.4-1.1c0.3-0.2,0.6-0.4,0.9-0.4c0.4,0,0.7,0.1,0.9,0.4c0.3,0.2,0.4,0.6,0.4,1.1
			s-0.1,0.9-0.4,1.1c-0.3,0.2-0.6,0.4-0.9,0.4c-0.4,0-0.7-0.1-0.9-0.4C405,264.7,404.9,264.3,404.9,263.8z M407.3,282.5h-2.2v-14.7
			h2.2V282.5z"/>
		<path d="M424.8,275.1c0,2.4-0.6,4.3-1.8,5.6s-2.9,2-5,2c-1.3,0-2.5-0.3-3.5-0.9c-1-0.6-1.8-1.5-2.4-2.7c-0.6-1.2-0.8-2.5-0.8-4.1
			c0-2.4,0.6-4.3,1.8-5.6c1.2-1.3,2.9-2,5-2c2.1,0,3.7,0.7,4.9,2.1S424.8,272.8,424.8,275.1z M413.6,275.1c0,1.9,0.4,3.3,1.1,4.3
			c0.8,1,1.9,1.5,3.3,1.5c1.5,0,2.6-0.5,3.3-1.5c0.8-1,1.1-2.4,1.1-4.3c0-1.9-0.4-3.3-1.1-4.3c-0.8-1-1.9-1.5-3.4-1.5
			c-1.5,0-2.6,0.5-3.3,1.4C413.9,271.8,413.6,273.2,413.6,275.1z"/>
		<path d="M438.8,282.5V273c0-1.2-0.3-2.1-0.8-2.7s-1.4-0.9-2.6-0.9c-1.5,0-2.7,0.4-3.4,1.3c-0.7,0.8-1.1,2.2-1.1,4.1v7.7h-2.2
			v-14.7h1.8l0.4,2h0.1c0.5-0.7,1.1-1.3,1.9-1.7s1.7-0.6,2.8-0.6c1.8,0,3.1,0.4,4,1.3c0.9,0.9,1.3,2.2,1.3,4.1v9.6H438.8z"/>
		<path d="M465.6,268.6c0,2-0.7,3.5-2,4.6c-1.4,1.1-3.3,1.6-5.8,1.6h-2.3v7.7h-2.3v-19.7h5.1C463.1,262.9,465.6,264.8,465.6,268.6z
			 M455.4,272.8h2.1c2,0,3.5-0.3,4.4-1c0.9-0.7,1.4-1.7,1.4-3.1c0-1.3-0.4-2.3-1.3-2.9c-0.9-0.6-2.2-1-4-1h-2.6V272.8z"/>
		<path d="M482.1,275.1c0,2.4-0.6,4.3-1.8,5.6s-2.9,2-5,2c-1.3,0-2.5-0.3-3.5-0.9c-1-0.6-1.8-1.5-2.4-2.7c-0.6-1.2-0.8-2.5-0.8-4.1
			c0-2.4,0.6-4.3,1.8-5.6c1.2-1.3,2.9-2,5-2c2.1,0,3.7,0.7,4.9,2.1S482.1,272.8,482.1,275.1z M470.8,275.1c0,1.9,0.4,3.3,1.1,4.3
			c0.8,1,1.9,1.5,3.3,1.5c1.5,0,2.6-0.5,3.3-1.5c0.8-1,1.1-2.4,1.1-4.3c0-1.9-0.4-3.3-1.1-4.3c-0.8-1-1.9-1.5-3.4-1.5
			c-1.5,0-2.6,0.5-3.3,1.4C471.2,271.8,470.8,273.2,470.8,275.1z"/>
		<path d="M492.7,267.5c0.7,0,1.2,0.1,1.8,0.2l-0.3,2.1c-0.6-0.1-1.1-0.2-1.6-0.2c-1.2,0-2.2,0.5-3.1,1.5s-1.3,2.2-1.3,3.6v7.9H486
			v-14.7h1.8l0.3,2.7h0.1c0.5-1,1.2-1.7,2-2.2S491.8,267.5,492.7,267.5z"/>
		<path d="M502,280.9c0.4,0,0.8,0,1.1-0.1c0.4-0.1,0.7-0.1,0.9-0.2v1.7c-0.2,0.1-0.6,0.2-1.1,0.3c-0.5,0.1-0.9,0.1-1.3,0.1
			c-2.9,0-4.3-1.5-4.3-4.5v-8.8h-2.1v-1.1l2.1-0.9l0.9-3.1h1.3v3.4h4.3v1.7h-4.3v8.7c0,0.9,0.2,1.6,0.6,2
			C500.7,280.7,501.2,280.9,502,280.9z"/>
	</g>
	<g>
		<path d="M321.4,49.7v17c0,1.9-0.4,3.6-1.2,5.1c-0.8,1.5-2,2.6-3.6,3.4c-1.6,0.8-3.5,1.2-5.6,1.2c-3.3,0-5.8-0.9-7.6-2.6
			s-2.7-4.1-2.7-7.1V49.7h4.3v16.6c0,2.2,0.5,3.8,1.5,4.8c1,1,2.6,1.5,4.6,1.5c4,0,6.1-2.1,6.1-6.4V49.7H321.4z"/>
		<path d="M349.4,62.6c0,4.3-1.2,7.6-3.6,9.9s-5.9,3.4-10.4,3.4h-7.3V49.7h8.1c4.2,0,7.4,1.1,9.8,3.4
			C348.3,55.3,349.4,58.5,349.4,62.6z M344.9,62.7c0-6.3-2.9-9.4-8.8-9.4h-3.7v19.1h3.1C341.8,72.3,344.9,69.1,344.9,62.7z"/>
		<path d="M372.5,57.6c0,2.7-0.9,4.8-2.7,6.3c-1.8,1.5-4.4,2.2-7.7,2.2h-2.7v9.8h-4.3V49.7h7.6c3.3,0,5.7,0.7,7.4,2
			S372.5,55,372.5,57.6z M359.4,62.5h2.3c2.2,0,3.8-0.4,4.8-1.1c1-0.8,1.5-2,1.5-3.6c0-1.5-0.5-2.6-1.4-3.4
			c-0.9-0.7-2.4-1.1-4.3-1.1h-3V62.5z"/>
		<path d="M404.7,57.6c0,2.7-0.9,4.8-2.7,6.3c-1.8,1.5-4.4,2.2-7.7,2.2h-2.7v9.8h-4.3V49.7h7.6c3.3,0,5.7,0.7,7.4,2
			S404.7,55,404.7,57.6z M391.6,62.5h2.3c2.2,0,3.8-0.4,4.8-1.1c1-0.8,1.5-2,1.5-3.6c0-1.5-0.5-2.6-1.4-3.4
			c-0.9-0.7-2.4-1.1-4.3-1.1h-3V62.5z"/>
		<path d="M421.9,75.9l-0.8-2.8h-0.1c-1,1.2-1.9,2-2.9,2.5s-2.2,0.7-3.7,0.7c-2,0-3.5-0.5-4.6-1.6s-1.6-2.5-1.6-4.5
			c0-2,0.8-3.6,2.3-4.6c1.5-1,3.8-1.6,7-1.7l3.4-0.1v-1.1c0-1.3-0.3-2.2-0.9-2.8c-0.6-0.6-1.5-0.9-2.8-0.9c-1,0-2,0.1-2.9,0.4
			c-0.9,0.3-1.8,0.7-2.7,1.1l-1.4-3c1.1-0.6,2.3-1,3.5-1.3c1.3-0.3,2.5-0.4,3.6-0.4c2.5,0,4.4,0.6,5.7,1.7c1.3,1.1,1.9,2.8,1.9,5.2
			v13.4H421.9z M415.6,73.1c1.5,0,2.8-0.4,3.7-1.3c0.9-0.9,1.4-2.1,1.4-3.6v-1.7l-2.6,0.1c-2,0.1-3.4,0.4-4.3,1
			c-0.9,0.6-1.4,1.5-1.4,2.7c0,0.9,0.3,1.6,0.8,2.1S414.5,73.1,415.6,73.1z"/>
		<path d="M438.8,76.3c-3,0-5.3-0.9-6.9-2.6c-1.6-1.8-2.3-4.3-2.3-7.6c0-3.3,0.8-5.9,2.5-7.7c1.6-1.8,4-2.7,7.1-2.7
			c2.1,0,4,0.4,5.7,1.2l-1.3,3.4c-1.8-0.7-3.3-1-4.4-1c-3.4,0-5.2,2.3-5.2,6.8c0,2.2,0.4,3.9,1.3,5c0.9,1.1,2.1,1.7,3.8,1.7
			c1.9,0,3.7-0.5,5.3-1.4v3.7c-0.8,0.4-1.6,0.8-2.4,1S440,76.3,438.8,76.3z"/>
		<path d="M453.1,65.5l2.4-3l6-6.4h4.9l-8,8.5l8.5,11.3h-5l-6.4-8.7l-2.3,1.9v6.8H449V48h4.2v13.6l-0.2,3.8H453.1z"/>
		<path d="M478.7,76.3c-3.1,0-5.5-0.9-7.2-2.7s-2.6-4.3-2.6-7.4c0-3.2,0.8-5.8,2.4-7.7c1.6-1.9,3.8-2.8,6.7-2.8
			c2.6,0,4.7,0.8,6.2,2.4c1.5,1.6,2.3,3.8,2.3,6.6V67h-13.2c0.1,1.9,0.6,3.4,1.6,4.4c1,1,2.4,1.6,4.1,1.6c1.2,0,2.3-0.1,3.3-0.3
			c1-0.2,2.1-0.6,3.3-1.1V75c-1,0.5-2.1,0.8-3.1,1C481.3,76.2,480.1,76.3,478.7,76.3z M477.9,58.9c-1.3,0-2.4,0.4-3.2,1.3
			s-1.3,2.1-1.4,3.7h9c0-1.6-0.4-2.9-1.2-3.7C480.3,59.3,479.3,58.9,477.9,58.9z"/>
		<path d="M498.6,72.9c1,0,2.1-0.2,3.1-0.5v3.2c-0.5,0.2-1.1,0.4-1.8,0.5c-0.7,0.1-1.5,0.2-2.3,0.2c-4,0-6-2.1-6-6.3V59.3h-2.7v-1.9
			l2.9-1.5l1.4-4.2h2.6v4.4h5.7v3.2h-5.7v10.6c0,1,0.3,1.8,0.8,2.3S497.8,72.9,498.6,72.9z"/>
	</g>
	<g>
		<path class="st0" d="M600.2,372.7H199.8c-9.2,0-16.7-7.5-16.7-16.7v-26.6c0-9.2,7.5-16.7,16.7-16.7h400.4
			c9.2,0,16.7,7.5,16.7,16.7v26.6C616.9,365.3,609.4,372.7,600.2,372.7z"/>
		<path d="M600.2,373.2H199.8c-9.5,0-17.2-7.7-17.2-17.2v-26.6c0-9.5,7.7-17.2,17.2-17.2h400.4c9.5,0,17.2,7.7,17.2,17.2v26.6
			C617.4,365.5,609.7,373.2,600.2,373.2z M199.8,313.3c-8.9,0-16.2,7.3-16.2,16.2v26.6c0,8.9,7.3,16.2,16.2,16.2h400.4
			c8.9,0,16.2-7.3,16.2-16.2v-26.6c0-8.9-7.3-16.2-16.2-16.2H199.8z"/>
	</g>
	<g>
		<path d="M344.6,333c-2.2,0-3.9,0.7-5.1,2.2c-1.3,1.4-1.9,3.4-1.9,5.9c0,2.6,0.6,4.6,1.8,6c1.2,1.4,2.9,2.1,5.2,2.1
			c1.4,0,2.9-0.2,4.7-0.7v2c-1.4,0.5-3,0.8-5,0.8c-2.9,0-5.1-0.9-6.7-2.6c-1.6-1.8-2.4-4.3-2.4-7.5c0-2,0.4-3.8,1.1-5.3
			c0.8-1.5,1.9-2.7,3.3-3.5c1.4-0.8,3.1-1.2,5-1.2c2.1,0,3.9,0.4,5.4,1.1l-1,2C347.6,333.3,346.1,333,344.6,333z"/>
		<path d="M363.3,350.9v-9.5c0-1.2-0.3-2.1-0.8-2.7s-1.4-0.9-2.6-0.9c-1.6,0-2.7,0.4-3.4,1.3c-0.7,0.8-1.1,2.2-1.1,4.1v7.7h-2.2
			v-20.9h2.2v6.3c0,0.8,0,1.4-0.1,1.9h0.1c0.4-0.7,1.1-1.3,1.9-1.7c0.8-0.4,1.7-0.6,2.8-0.6c1.8,0,3.2,0.4,4.1,1.3
			c0.9,0.9,1.4,2.2,1.4,4.1v9.6H363.3z"/>
		<path d="M376.4,351.1c-2.2,0-3.9-0.7-5.2-2c-1.3-1.3-1.9-3.2-1.9-5.5c0-2.4,0.6-4.3,1.8-5.7c1.2-1.4,2.7-2.1,4.7-2.1
			c1.8,0,3.3,0.6,4.4,1.8s1.6,2.8,1.6,4.8v1.4h-10.2c0,1.7,0.5,3,1.3,3.9c0.8,0.9,2,1.3,3.5,1.3c1.6,0,3.2-0.3,4.7-1v2
			c-0.8,0.3-1.5,0.6-2.2,0.7C378.2,351.1,377.4,351.1,376.4,351.1z M375.8,337.7c-1.2,0-2.1,0.4-2.8,1.2c-0.7,0.8-1.1,1.8-1.2,3.2
			h7.7c0-1.4-0.3-2.5-0.9-3.2C377.9,338.1,377,337.7,375.8,337.7z"/>
		<path d="M391.5,351.1c-2.1,0-3.8-0.7-5-2c-1.2-1.3-1.8-3.2-1.8-5.6c0-2.5,0.6-4.4,1.8-5.7s2.9-2,5.1-2c0.7,0,1.4,0.1,2.1,0.2
			c0.7,0.2,1.3,0.3,1.7,0.5l-0.7,1.9c-0.5-0.2-1-0.4-1.6-0.5c-0.6-0.1-1.1-0.2-1.5-0.2c-3,0-4.5,1.9-4.5,5.7c0,1.8,0.4,3.2,1.1,4.2
			c0.7,1,1.8,1.5,3.2,1.5c1.2,0,2.5-0.3,3.8-0.8v2C394.2,350.9,393,351.1,391.5,351.1z"/>
		<path d="M400.9,343.3c0.4-0.5,1-1.3,1.8-2.2l4.8-5h2.6l-6,6.3l6.4,8.5h-2.7l-5.2-7l-1.7,1.5v5.5h-2.2v-20.9h2.2V341
			c0,0.5,0,1.3-0.1,2.3H400.9z"/>
		<path d="M422.7,346.8c0,1.4-0.5,2.4-1.5,3.2s-2.5,1.1-4.3,1.1c-2,0-3.5-0.3-4.6-0.9v-2.1c0.7,0.4,1.5,0.6,2.3,0.8
			c0.8,0.2,1.6,0.3,2.3,0.3c1.2,0,2.1-0.2,2.7-0.6c0.6-0.4,0.9-0.9,0.9-1.7c0-0.6-0.2-1.1-0.7-1.5c-0.5-0.4-1.5-0.9-2.9-1.4
			c-1.4-0.5-2.3-1-2.9-1.3c-0.6-0.4-1-0.8-1.3-1.3c-0.3-0.5-0.4-1.1-0.4-1.7c0-1.2,0.5-2.1,1.5-2.8s2.3-1,4-1c1.6,0,3.1,0.3,4.7,1
			l-0.8,1.8c-1.5-0.6-2.8-0.9-4-0.9c-1.1,0-1.9,0.2-2.4,0.5c-0.5,0.3-0.8,0.8-0.8,1.4c0,0.4,0.1,0.7,0.3,1s0.5,0.5,1,0.8
			s1.3,0.6,2.6,1.1c1.7,0.6,2.9,1.3,3.5,1.9C422.4,345,422.7,345.9,422.7,346.8z"/>
		<path d="M428.4,336.1v9.6c0,1.2,0.3,2.1,0.8,2.7s1.4,0.9,2.6,0.9c1.5,0,2.7-0.4,3.4-1.3c0.7-0.8,1.1-2.2,1.1-4.1v-7.7h2.2v14.7
			h-1.8l-0.3-2h-0.1c-0.5,0.7-1.1,1.3-1.9,1.7c-0.8,0.4-1.7,0.6-2.8,0.6c-1.8,0-3.1-0.4-4-1.3c-0.9-0.9-1.3-2.2-1.3-4.1v-9.6H428.4z
			"/>
		<path d="M462,350.9v-9.6c0-1.2-0.3-2.1-0.8-2.6c-0.5-0.6-1.3-0.9-2.3-0.9c-1.4,0-2.4,0.4-3.1,1.2c-0.7,0.8-1,2-1,3.7v8.2h-2.2
			v-9.6c0-1.2-0.3-2.1-0.8-2.6c-0.5-0.6-1.3-0.9-2.4-0.9c-1.4,0-2.4,0.4-3.1,1.3c-0.6,0.8-1,2.2-1,4.1v7.7h-2.2v-14.7h1.8l0.4,2h0.1
			c0.4-0.7,1-1.3,1.8-1.7c0.8-0.4,1.6-0.6,2.6-0.6c2.3,0,3.8,0.8,4.5,2.5h0.1c0.4-0.8,1.1-1.4,1.9-1.8c0.8-0.4,1.8-0.7,2.9-0.7
			c1.7,0,2.9,0.4,3.7,1.3c0.8,0.9,1.2,2.2,1.2,4.1v9.6H462z"/>
	</g>
	<g>
		<path class="st0" d="M600.2,441.1H199.8c-9.2,0-16.7-7.5-16.7-16.7v-26.6c0-9.2,7.5-16.7,16.7-16.7h400.4
			c9.2,0,16.7,7.5,16.7,16.7v26.6C616.9,433.6,609.4,441.1,600.2,441.1z"/>
		<path d="M600.2,441.6H199.8c-9.5,0-17.2-7.7-17.2-17.2v-26.6c0-9.5,7.7-17.2,17.2-17.2h400.4c9.5,0,17.2,7.7,17.2,17.2v26.6
			C617.4,433.9,609.7,441.6,600.2,441.6z M199.8,381.7c-8.9,0-16.2,7.3-16.2,16.2v26.6c0,8.9,7.3,16.2,16.2,16.2h400.4
			c8.9,0,16.2-7.3,16.2-16.2v-26.6c0-8.9-7.3-16.2-16.2-16.2H199.8z"/>
	</g>
	<g>
		<path d="M388.2,409.2c0,3.2-0.9,5.7-2.6,7.4s-4.3,2.6-7.6,2.6h-5.4v-19.7h6c3.1,0,5.4,0.8,7.1,2.5S388.2,406.1,388.2,409.2z
			 M385.8,409.3c0-2.6-0.6-4.5-1.9-5.8c-1.3-1.3-3.2-1.9-5.7-1.9h-3.3v15.7h2.8c2.7,0,4.8-0.7,6.1-2
			C385.1,413.9,385.8,411.9,385.8,409.3z"/>
		<path d="M401.3,419.2l-0.4-2.1h-0.1c-0.7,0.9-1.5,1.5-2.2,1.9s-1.6,0.5-2.7,0.5c-1.5,0-2.6-0.4-3.4-1.1s-1.2-1.8-1.2-3.2
			c0-3,2.4-4.5,7.1-4.7l2.5-0.1v-0.9c0-1.2-0.2-2-0.7-2.6c-0.5-0.6-1.3-0.8-2.4-0.8c-1.2,0-2.6,0.4-4.2,1.1l-0.7-1.7
			c0.7-0.4,1.5-0.7,2.4-0.9c0.9-0.2,1.7-0.3,2.6-0.3c1.8,0,3.1,0.4,3.9,1.2c0.8,0.8,1.3,2,1.3,3.8v10.1H401.3z M396.2,417.6
			c1.4,0,2.5-0.4,3.3-1.1c0.8-0.8,1.2-1.8,1.2-3.2v-1.3l-2.2,0.1c-1.8,0.1-3.1,0.3-3.8,0.8c-0.8,0.5-1.2,1.2-1.2,2.3
			c0,0.8,0.2,1.4,0.7,1.8C394.7,417.4,395.4,417.6,396.2,417.6z"/>
		<path d="M412.3,417.6c0.4,0,0.8,0,1.1-0.1c0.4-0.1,0.7-0.1,0.9-0.2v1.7c-0.2,0.1-0.6,0.2-1.1,0.3c-0.5,0.1-0.9,0.1-1.3,0.1
			c-2.9,0-4.3-1.5-4.3-4.5v-8.8h-2.1v-1.1l2.1-0.9l0.9-3.1h1.3v3.4h4.3v1.7h-4.3v8.7c0,0.9,0.2,1.6,0.6,2
			C411,417.4,411.6,417.6,412.3,417.6z"/>
		<path d="M426.3,419.2l-0.4-2.1h-0.1c-0.7,0.9-1.5,1.5-2.2,1.9s-1.6,0.5-2.7,0.5c-1.5,0-2.6-0.4-3.4-1.1s-1.2-1.8-1.2-3.2
			c0-3,2.4-4.5,7.1-4.7l2.5-0.1v-0.9c0-1.2-0.2-2-0.7-2.6c-0.5-0.6-1.3-0.8-2.4-0.8c-1.2,0-2.6,0.4-4.2,1.1l-0.7-1.7
			c0.7-0.4,1.5-0.7,2.4-0.9c0.9-0.2,1.7-0.3,2.6-0.3c1.8,0,3.1,0.4,3.9,1.2c0.8,0.8,1.3,2,1.3,3.8v10.1H426.3z M421.3,417.6
			c1.4,0,2.5-0.4,3.3-1.1c0.8-0.8,1.2-1.8,1.2-3.2v-1.3l-2.2,0.1c-1.8,0.1-3.1,0.3-3.8,0.8c-0.8,0.5-1.2,1.2-1.2,2.3
			c0,0.8,0.2,1.4,0.7,1.8C419.7,417.4,420.4,417.6,421.3,417.6z"/>
	</g>
</g>
</svg>
