<?xml version="1.0" encoding="utf-8"?>
<!-- Generator: Adobe Illustrator 19.2.0, SVG Export Plug-In . SVG Version: 6.00 Build 0)  -->
<svg version="1.1" id="Layer_1" xmlns="http://www.w3.org/2000/svg" xmlns:xlink="http://www.w3.org/1999/xlink" x="0px" y="0px"
	 viewBox="0 0 600 412" style="enable-background:new 0 0 600 412;" xml:space="preserve">
<style type="text/css">
	.st0{fill:#FFFFFF;}
	.st1{fill:#F0F0F0;}
	.st2{fill:none;stroke:#000000;stroke-miterlimit:10;}
</style>
<g>
	<path d="M135.1,42.8h4.7c2.2,0,3.8,0.3,4.8,1s1.5,1.7,1.5,3.1c0,1-0.3,1.8-0.8,2.4s-1.4,1.1-2.4,1.2v0.1c2.5,0.4,3.8,1.8,3.8,4
		c0,1.5-0.5,2.6-1.5,3.5s-2.4,1.3-4.2,1.3h-5.8V42.8z M137,49.9h3.2c1.4,0,2.3-0.2,2.9-0.6c0.6-0.4,0.9-1.1,0.9-2.2
		c0-0.9-0.3-1.6-1-2c-0.7-0.4-1.7-0.6-3.2-0.6H137V49.9z M137,51.6v6.2h3.5c1.3,0,2.4-0.3,3-0.8s1-1.3,1-2.4c0-1-0.3-1.8-1-2.3
		c-0.7-0.5-1.7-0.7-3.2-0.7H137z"/>
	<path d="M149.7,43.6c0-0.4,0.1-0.7,0.3-0.9c0.2-0.2,0.5-0.3,0.8-0.3c0.3,0,0.6,0.1,0.8,0.3c0.2,0.2,0.3,0.5,0.3,0.9
		c0,0.4-0.1,0.7-0.3,0.9c-0.2,0.2-0.5,0.3-0.8,0.3c-0.3,0-0.6-0.1-0.8-0.3C149.8,44.4,149.7,44,149.7,43.6z M151.8,59.4h-1.9V47h1.9
		V59.4z"/>
	<path d="M164.3,59.4v-8.1c0-1-0.2-1.8-0.7-2.3s-1.2-0.8-2.2-0.8c-1.3,0-2.3,0.4-2.9,1.1s-0.9,1.9-0.9,3.5v6.5h-1.9V47h1.5l0.3,1.7
		h0.1c0.4-0.6,0.9-1.1,1.6-1.4c0.7-0.3,1.5-0.5,2.3-0.5c1.5,0,2.6,0.4,3.4,1.1c0.8,0.7,1.1,1.9,1.1,3.5v8.1H164.3z"/>
	<path d="M177.7,59.4l-0.4-1.8h-0.1c-0.6,0.8-1.2,1.3-1.9,1.6s-1.4,0.4-2.3,0.4c-1.2,0-2.2-0.3-2.9-1c-0.7-0.6-1.1-1.5-1.1-2.7
		c0-2.5,2-3.8,6-4l2.1-0.1v-0.8c0-1-0.2-1.7-0.6-2.2c-0.4-0.5-1.1-0.7-2-0.7c-1,0-2.2,0.3-3.5,1l-0.6-1.4c0.6-0.3,1.3-0.6,2-0.8
		s1.5-0.3,2.2-0.3c1.5,0,2.6,0.3,3.3,1c0.7,0.7,1.1,1.7,1.1,3.2v8.5H177.7z M173.4,58.1c1.2,0,2.1-0.3,2.8-1c0.7-0.6,1-1.5,1-2.7
		v-1.1l-1.9,0.1c-1.5,0.1-2.6,0.3-3.2,0.7s-1,1.1-1,1.9c0,0.7,0.2,1.2,0.6,1.6S172.7,58.1,173.4,58.1z"/>
	<path d="M188.7,46.8c0.6,0,1,0,1.5,0.1l-0.3,1.8c-0.5-0.1-1-0.2-1.4-0.2c-1,0-1.9,0.4-2.6,1.2c-0.7,0.8-1.1,1.8-1.1,3.1v6.7H183V47
		h1.6l0.2,2.3h0.1c0.5-0.8,1-1.4,1.7-1.9C187.2,47,187.9,46.8,188.7,46.8z"/>
	<path d="M190.5,47h2l2.7,7.1c0.6,1.6,1,2.8,1.1,3.5h0.1c0.1-0.4,0.3-1,0.6-2s1.3-3.8,3.1-8.6h2l-5.4,14.2c-0.5,1.4-1.1,2.4-1.9,3
		c-0.7,0.6-1.6,0.9-2.6,0.9c-0.6,0-1.1-0.1-1.7-0.2v-1.5c0.4,0.1,0.9,0.1,1.4,0.1c1.3,0,2.2-0.7,2.8-2.2l0.7-1.8L190.5,47z"/>
</g>
<g>
	<path d="M272.2,59.4h-1.9v-7.8h-8.8v7.8h-1.9V42.8h1.9v7.1h8.8v-7.1h1.9V59.4z"/>
	<path d="M281.7,59.7c-1.8,0-3.3-0.6-4.4-1.7c-1.1-1.1-1.6-2.7-1.6-4.7c0-2,0.5-3.6,1.5-4.8c1-1.2,2.3-1.8,4-1.8
		c1.6,0,2.8,0.5,3.7,1.5c0.9,1,1.4,2.4,1.4,4.1v1.2h-8.6c0,1.5,0.4,2.6,1.1,3.3c0.7,0.8,1.7,1.1,3,1.1c1.3,0,2.7-0.3,4-0.8v1.7
		c-0.7,0.3-1.3,0.5-1.9,0.6C283.3,59.6,282.6,59.7,281.7,59.7z M281.2,48.3c-1,0-1.8,0.3-2.4,1c-0.6,0.7-0.9,1.6-1.1,2.7h6.5
		c0-1.2-0.3-2.1-0.8-2.7C283,48.7,282.2,48.3,281.2,48.3z"/>
	<path d="M292.5,53.1l-4.3-6.1h2.1l3.3,4.8l3.3-4.8h2.1l-4.3,6.1l4.6,6.4h-2.1l-3.5-5l-3.5,5H288L292.5,53.1z"/>
</g>
<g>
	<path d="M361.3,51c0,2.7-0.7,4.8-2.2,6.3c-1.5,1.5-3.6,2.2-6.4,2.2H348V42.8h5.1c2.6,0,4.6,0.7,6,2.1
		C360.6,46.4,361.3,48.4,361.3,51z M359.3,51c0-2.2-0.5-3.8-1.6-4.9c-1.1-1.1-2.7-1.6-4.8-1.6H350v13.3h2.4c2.3,0,4-0.6,5.2-1.7
		S359.3,53.3,359.3,51z"/>
	<path d="M370,59.7c-1.8,0-3.3-0.6-4.4-1.7c-1.1-1.1-1.6-2.7-1.6-4.7c0-2,0.5-3.6,1.5-4.8c1-1.2,2.3-1.8,4-1.8
		c1.6,0,2.8,0.5,3.7,1.5c0.9,1,1.4,2.4,1.4,4.1v1.2H366c0,1.5,0.4,2.6,1.1,3.3c0.7,0.8,1.7,1.1,3,1.1c1.3,0,2.7-0.3,4-0.8v1.7
		c-0.7,0.3-1.3,0.5-1.9,0.6S370.8,59.7,370,59.7z M369.5,48.3c-1,0-1.8,0.3-2.4,1c-0.6,0.7-0.9,1.6-1.1,2.7h6.5
		c0-1.2-0.3-2.1-0.8-2.7C371.2,48.7,370.5,48.3,369.5,48.3z"/>
	<path d="M382.8,59.7c-1.8,0-3.2-0.6-4.2-1.7c-1-1.1-1.5-2.7-1.5-4.7c0-2.1,0.5-3.7,1.5-4.8s2.4-1.7,4.3-1.7c0.6,0,1.2,0.1,1.8,0.2
		c0.6,0.1,1.1,0.3,1.4,0.5l-0.6,1.6c-0.4-0.2-0.9-0.3-1.4-0.4s-0.9-0.2-1.3-0.2c-2.5,0-3.8,1.6-3.8,4.8c0,1.5,0.3,2.7,0.9,3.5
		s1.5,1.2,2.7,1.2c1,0,2.1-0.2,3.2-0.7V59C385.1,59.5,384,59.7,382.8,59.7z"/>
	<path d="M388.7,43.6c0-0.4,0.1-0.7,0.3-0.9s0.5-0.3,0.8-0.3c0.3,0,0.6,0.1,0.8,0.3c0.2,0.2,0.3,0.5,0.3,0.9c0,0.4-0.1,0.7-0.3,0.9
		c-0.2,0.2-0.5,0.3-0.8,0.3c-0.3,0-0.6-0.1-0.8-0.3S388.7,44,388.7,43.6z M390.8,59.4h-1.9V47h1.9V59.4z"/>
	<path d="M410.6,59.4v-8.1c0-1-0.2-1.7-0.6-2.2c-0.4-0.5-1.1-0.7-2-0.7c-1.2,0-2,0.3-2.6,1c-0.6,0.7-0.8,1.7-0.8,3.1v7h-1.9v-8.1
		c0-1-0.2-1.7-0.6-2.2c-0.4-0.5-1.1-0.7-2-0.7c-1.2,0-2,0.4-2.6,1.1c-0.5,0.7-0.8,1.9-0.8,3.5v6.5h-1.9V47h1.5l0.3,1.7h0.1
		c0.4-0.6,0.9-1.1,1.5-1.4s1.4-0.5,2.2-0.5c1.9,0,3.2,0.7,3.8,2.1h0.1c0.4-0.7,0.9-1.2,1.6-1.5c0.7-0.4,1.5-0.6,2.4-0.6
		c1.4,0,2.5,0.4,3.2,1.1c0.7,0.7,1.1,1.9,1.1,3.5v8.1H410.6z"/>
	<path d="M424.1,59.4l-0.4-1.8h-0.1c-0.6,0.8-1.2,1.3-1.9,1.6c-0.6,0.3-1.4,0.4-2.3,0.4c-1.2,0-2.2-0.3-2.9-1
		c-0.7-0.6-1.1-1.5-1.1-2.7c0-2.5,2-3.8,6-4l2.1-0.1v-0.8c0-1-0.2-1.7-0.6-2.2c-0.4-0.5-1.1-0.7-2-0.7c-1,0-2.2,0.3-3.5,1l-0.6-1.4
		c0.6-0.3,1.3-0.6,2-0.8c0.7-0.2,1.5-0.3,2.2-0.3c1.5,0,2.6,0.3,3.3,1c0.7,0.7,1.1,1.7,1.1,3.2v8.5H424.1z M419.8,58.1
		c1.2,0,2.1-0.3,2.8-1c0.7-0.6,1-1.5,1-2.7v-1.1l-1.9,0.1c-1.5,0.1-2.6,0.3-3.2,0.7s-1,1.1-1,1.9c0,0.7,0.2,1.2,0.6,1.6
		S419.1,58.1,419.8,58.1z"/>
	<path d="M431.2,59.4h-1.9V41.8h1.9V59.4z"/>
</g>
<g>
	<rect x="111.5" y="74.5" class="st0" width="334" height="309.2"/>
	<path d="M445,75v308.2H112V75H445 M446,74h-1H112h-1v1v308.2v1h1h333h1v-1V75V74L446,74z"/>
</g>
<rect x="112" y="99.7" class="st1" width="333" height="18.6"/>
<rect x="112" y="118.3" class="st0" width="333" height="18.6"/>
<rect x="112" y="136.9" class="st1" width="333" height="18.6"/>
<rect x="112" y="155.5" class="st0" width="333" height="18.6"/>
<rect x="112" y="174.1" class="st1" width="333" height="18.6"/>
<rect x="112" y="192.7" class="st0" width="333" height="18.6"/>
<rect x="112" y="211.3" class="st1" width="333" height="18.6"/>
<rect x="112" y="229.9" class="st0" width="333" height="18.6"/>
<rect x="112" y="248.5" class="st1" width="333" height="18.6"/>
<rect x="112" y="267.1" class="st0" width="333" height="18.6"/>
<rect x="112" y="285.8" class="st1" width="333" height="18.6"/>
<rect x="112" y="304.4" class="st0" width="333" height="18.6"/>
<rect x="112" y="323" class="st1" width="333" height="18.6"/>
<rect x="112" y="341.6" class="st0" width="333" height="18.6"/>
<rect x="112" y="360.2" class="st1" width="333" height="23"/>
<line class="st2" x1="223" y1="33" x2="223" y2="383.2"/>
<line class="st2" x1="334" y1="33" x2="334" y2="383.2"/>
<g>
	<g>
		<path d="M158.8,90.2c0,1.7-0.3,3-0.8,3.9s-1.4,1.3-2.5,1.3c-1.1,0-1.9-0.4-2.5-1.3s-0.8-2.2-0.8-3.8c0-1.7,0.3-3,0.8-3.9
			s1.4-1.3,2.5-1.3c1.1,0,1.9,0.4,2.5,1.3S158.8,88.5,158.8,90.2z M153.3,90.2c0,1.5,0.2,2.5,0.5,3.2s0.9,1,1.6,1
			c0.8,0,1.3-0.3,1.6-1s0.5-1.7,0.5-3.2s-0.2-2.5-0.5-3.2s-0.9-1-1.6-1c-0.7,0-1.3,0.3-1.6,1S153.3,88.7,153.3,90.2z"/>
		<path d="M166.8,90.2c0,1.7-0.3,3-0.8,3.9s-1.4,1.3-2.5,1.3c-1.1,0-1.9-0.4-2.5-1.3s-0.8-2.2-0.8-3.8c0-1.7,0.3-3,0.8-3.9
			s1.4-1.3,2.5-1.3c1.1,0,1.9,0.4,2.5,1.3S166.8,88.5,166.8,90.2z M161.3,90.2c0,1.5,0.2,2.5,0.5,3.2s0.9,1,1.6,1
			c0.8,0,1.3-0.3,1.6-1s0.5-1.7,0.5-3.2s-0.2-2.5-0.5-3.2s-0.9-1-1.6-1c-0.7,0-1.3,0.3-1.6,1S161.3,88.7,161.3,90.2z"/>
		<path d="M174.8,90.2c0,1.7-0.3,3-0.8,3.9s-1.4,1.3-2.5,1.3c-1.1,0-1.9-0.4-2.5-1.3s-0.8-2.2-0.8-3.8c0-1.7,0.3-3,0.8-3.9
			s1.4-1.3,2.5-1.3c1.1,0,1.9,0.4,2.5,1.3S174.8,88.5,174.8,90.2z M169.3,90.2c0,1.5,0.2,2.5,0.5,3.2s0.9,1,1.6,1
			c0.8,0,1.3-0.3,1.6-1s0.5-1.7,0.5-3.2s-0.2-2.5-0.5-3.2s-0.9-1-1.6-1c-0.7,0-1.3,0.3-1.6,1S169.3,88.7,169.3,90.2z"/>
		<path d="M182.8,90.2c0,1.7-0.3,3-0.8,3.9s-1.4,1.3-2.5,1.3c-1.1,0-1.9-0.4-2.5-1.3s-0.8-2.2-0.8-3.8c0-1.7,0.3-3,0.8-3.9
			s1.4-1.3,2.5-1.3c1.1,0,1.9,0.4,2.5,1.3S182.8,88.5,182.8,90.2z M177.4,90.2c0,1.5,0.2,2.5,0.5,3.2s0.9,1,1.6,1
			c0.8,0,1.3-0.3,1.6-1s0.5-1.7,0.5-3.2s-0.2-2.5-0.5-3.2s-0.9-1-1.6-1c-0.7,0-1.3,0.3-1.6,1S177.4,88.7,177.4,90.2z"/>
	</g>
	<g>
		<path d="M281.8,90.2c0,1.7-0.3,3-0.8,3.9s-1.4,1.3-2.5,1.3c-1.1,0-1.9-0.4-2.5-1.3s-0.8-2.2-0.8-3.8c0-1.7,0.3-3,0.8-3.9
			s1.4-1.3,2.5-1.3c1.1,0,1.9,0.4,2.5,1.3S281.8,88.5,281.8,90.2z M276.3,90.2c0,1.5,0.2,2.5,0.5,3.2s0.9,1,1.6,1
			c0.8,0,1.3-0.3,1.6-1s0.5-1.7,0.5-3.2s-0.2-2.5-0.5-3.2s-0.9-1-1.6-1c-0.7,0-1.3,0.3-1.6,1S276.3,88.7,276.3,90.2z"/>
	</g>
	<g>
		<path d="M392.8,90.2c0,1.7-0.3,3-0.8,3.9c-0.5,0.9-1.4,1.3-2.5,1.3c-1.1,0-1.9-0.4-2.5-1.3s-0.8-2.2-0.8-3.8c0-1.7,0.3-3,0.8-3.9
			c0.5-0.8,1.4-1.3,2.5-1.3c1.1,0,1.9,0.4,2.5,1.3C392.5,87.3,392.8,88.5,392.8,90.2z M387.3,90.2c0,1.5,0.2,2.5,0.5,3.2
			s0.9,1,1.6,1c0.8,0,1.3-0.3,1.6-1c0.3-0.7,0.5-1.7,0.5-3.2s-0.2-2.5-0.5-3.2c-0.3-0.7-0.9-1-1.6-1c-0.7,0-1.3,0.3-1.6,1
			S387.3,88.7,387.3,90.2z"/>
	</g>
</g>
<g>
	<g>
		<path d="M158.8,108.8c0,1.7-0.3,3-0.8,3.9s-1.4,1.3-2.5,1.3c-1.1,0-1.9-0.4-2.5-1.3s-0.8-2.2-0.8-3.8c0-1.7,0.3-3,0.8-3.9
			s1.4-1.3,2.5-1.3c1.1,0,1.9,0.4,2.5,1.3S158.8,107.2,158.8,108.8z M153.3,108.8c0,1.5,0.2,2.5,0.5,3.2s0.9,1,1.6,1
			c0.8,0,1.3-0.3,1.6-1s0.5-1.7,0.5-3.2s-0.2-2.5-0.5-3.2s-0.9-1-1.6-1c-0.7,0-1.3,0.3-1.6,1S153.3,107.4,153.3,108.8z"/>
		<path d="M166.8,108.8c0,1.7-0.3,3-0.8,3.9s-1.4,1.3-2.5,1.3c-1.1,0-1.9-0.4-2.5-1.3s-0.8-2.2-0.8-3.8c0-1.7,0.3-3,0.8-3.9
			s1.4-1.3,2.5-1.3c1.1,0,1.9,0.4,2.5,1.3S166.8,107.2,166.8,108.8z M161.3,108.8c0,1.5,0.2,2.5,0.5,3.2s0.9,1,1.6,1
			c0.8,0,1.3-0.3,1.6-1s0.5-1.7,0.5-3.2s-0.2-2.5-0.5-3.2s-0.9-1-1.6-1c-0.7,0-1.3,0.3-1.6,1S161.3,107.4,161.3,108.8z"/>
		<path d="M174.8,108.8c0,1.7-0.3,3-0.8,3.9s-1.4,1.3-2.5,1.3c-1.1,0-1.9-0.4-2.5-1.3s-0.8-2.2-0.8-3.8c0-1.7,0.3-3,0.8-3.9
			s1.4-1.3,2.5-1.3c1.1,0,1.9,0.4,2.5,1.3S174.8,107.2,174.8,108.8z M169.3,108.8c0,1.5,0.2,2.5,0.5,3.2s0.9,1,1.6,1
			c0.8,0,1.3-0.3,1.6-1s0.5-1.7,0.5-3.2s-0.2-2.5-0.5-3.2s-0.9-1-1.6-1c-0.7,0-1.3,0.3-1.6,1S169.3,107.4,169.3,108.8z"/>
		<path d="M180.4,113.8h-1.1v-7.1c0-0.6,0-1.2,0.1-1.7c-0.1,0.1-0.2,0.2-0.3,0.3s-0.7,0.5-1.6,1.3l-0.6-0.8l2.6-2h1V113.8z"/>
	</g>
	<g>
		<path d="M279.4,113.8h-1.1v-7.1c0-0.6,0-1.2,0.1-1.7c-0.1,0.1-0.2,0.2-0.3,0.3s-0.7,0.5-1.6,1.3l-0.6-0.8l2.6-2h1V113.8z"/>
	</g>
	<g>
		<path d="M390.4,113.8h-1.1v-7.1c0-0.6,0-1.2,0.1-1.7c-0.1,0.1-0.2,0.2-0.3,0.3c-0.1,0.1-0.7,0.5-1.6,1.3l-0.6-0.8l2.6-2h1V113.8z"
			/>
	</g>
</g>
<g>
	<g>
		<path d="M158.8,127.5c0,1.7-0.3,3-0.8,3.9s-1.4,1.3-2.5,1.3c-1.1,0-1.9-0.4-2.5-1.3s-0.8-2.2-0.8-3.8c0-1.7,0.3-3,0.8-3.9
			s1.4-1.3,2.5-1.3c1.1,0,1.9,0.4,2.5,1.3S158.8,125.8,158.8,127.5z M153.3,127.5c0,1.5,0.2,2.5,0.5,3.2s0.9,1,1.6,1
			c0.8,0,1.3-0.3,1.6-1s0.5-1.7,0.5-3.2s-0.2-2.5-0.5-3.2s-0.9-1-1.6-1c-0.7,0-1.3,0.3-1.6,1S153.3,126,153.3,127.5z"/>
		<path d="M166.8,127.5c0,1.7-0.3,3-0.8,3.9s-1.4,1.3-2.5,1.3c-1.1,0-1.9-0.4-2.5-1.3s-0.8-2.2-0.8-3.8c0-1.7,0.3-3,0.8-3.9
			s1.4-1.3,2.5-1.3c1.1,0,1.9,0.4,2.5,1.3S166.8,125.8,166.8,127.5z M161.3,127.5c0,1.5,0.2,2.5,0.5,3.2s0.9,1,1.6,1
			c0.8,0,1.3-0.3,1.6-1s0.5-1.7,0.5-3.2s-0.2-2.5-0.5-3.2s-0.9-1-1.6-1c-0.7,0-1.3,0.3-1.6,1S161.3,126,161.3,127.5z"/>
		<path d="M172.4,132.5h-1.1v-7.1c0-0.6,0-1.2,0.1-1.7c-0.1,0.1-0.2,0.2-0.3,0.3s-0.7,0.5-1.6,1.3l-0.6-0.8l2.6-2h1V132.5z"/>
		<path d="M182.8,127.5c0,1.7-0.3,3-0.8,3.9s-1.4,1.3-2.5,1.3c-1.1,0-1.9-0.4-2.5-1.3s-0.8-2.2-0.8-3.8c0-1.7,0.3-3,0.8-3.9
			s1.4-1.3,2.5-1.3c1.1,0,1.9,0.4,2.5,1.3S182.8,125.8,182.8,127.5z M177.4,127.5c0,1.5,0.2,2.5,0.5,3.2s0.9,1,1.6,1
			c0.8,0,1.3-0.3,1.6-1s0.5-1.7,0.5-3.2s-0.2-2.5-0.5-3.2s-0.9-1-1.6-1c-0.7,0-1.3,0.3-1.6,1S177.4,126,177.4,127.5z"/>
	</g>
	<g>
		<path d="M281.8,132.5h-6.6v-1l2.6-2.6c0.8-0.8,1.3-1.4,1.6-1.7s0.4-0.7,0.6-1s0.2-0.7,0.2-1.1c0-0.5-0.2-1-0.5-1.3
			s-0.8-0.5-1.3-0.5c-0.4,0-0.8,0.1-1.2,0.2s-0.8,0.4-1.2,0.7l-0.6-0.8c0.9-0.8,1.9-1.1,3-1.1c0.9,0,1.7,0.2,2.2,0.7
			s0.8,1.1,0.8,1.9c0,0.6-0.2,1.3-0.5,1.9s-1,1.4-2,2.4l-2.2,2.1v0.1h5.1V132.5z"/>
	</g>
	<g>
		<path d="M392.8,132.5h-6.6v-1l2.6-2.6c0.8-0.8,1.3-1.4,1.6-1.7c0.3-0.3,0.4-0.7,0.6-1c0.1-0.3,0.2-0.7,0.2-1.1
			c0-0.5-0.2-1-0.5-1.3c-0.3-0.3-0.8-0.5-1.3-0.5c-0.4,0-0.8,0.1-1.2,0.2c-0.4,0.1-0.8,0.4-1.2,0.7l-0.6-0.8c0.9-0.8,1.9-1.1,3-1.1
			c0.9,0,1.7,0.2,2.2,0.7s0.8,1.1,0.8,1.9c0,0.6-0.2,1.3-0.5,1.9s-1,1.4-2,2.4l-2.2,2.1v0.1h5.1V132.5z"/>
	</g>
</g>
<g>
	<g>
		<path d="M158.8,146.1c0,1.7-0.3,3-0.8,3.9s-1.4,1.3-2.5,1.3c-1.1,0-1.9-0.4-2.5-1.3s-0.8-2.2-0.8-3.8c0-1.7,0.3-3,0.8-3.9
			s1.4-1.3,2.5-1.3c1.1,0,1.9,0.4,2.5,1.3S158.8,144.4,158.8,146.1z M153.3,146.1c0,1.5,0.2,2.5,0.5,3.2s0.9,1,1.6,1
			c0.8,0,1.3-0.3,1.6-1s0.5-1.7,0.5-3.2s-0.2-2.5-0.5-3.2s-0.9-1-1.6-1c-0.7,0-1.3,0.3-1.6,1S153.3,144.6,153.3,146.1z"/>
		<path d="M166.8,146.1c0,1.7-0.3,3-0.8,3.9s-1.4,1.3-2.5,1.3c-1.1,0-1.9-0.4-2.5-1.3s-0.8-2.2-0.8-3.8c0-1.7,0.3-3,0.8-3.9
			s1.4-1.3,2.5-1.3c1.1,0,1.9,0.4,2.5,1.3S166.8,144.4,166.8,146.1z M161.3,146.1c0,1.5,0.2,2.5,0.5,3.2s0.9,1,1.6,1
			c0.8,0,1.3-0.3,1.6-1s0.5-1.7,0.5-3.2s-0.2-2.5-0.5-3.2s-0.9-1-1.6-1c-0.7,0-1.3,0.3-1.6,1S161.3,144.6,161.3,146.1z"/>
		<path d="M172.4,151.1h-1.1V144c0-0.6,0-1.2,0.1-1.7c-0.1,0.1-0.2,0.2-0.3,0.3s-0.7,0.5-1.6,1.3l-0.6-0.8l2.6-2h1V151.1z"/>
		<path d="M180.4,151.1h-1.1V144c0-0.6,0-1.2,0.1-1.7c-0.1,0.1-0.2,0.2-0.3,0.3s-0.7,0.5-1.6,1.3l-0.6-0.8l2.6-2h1V151.1z"/>
	</g>
	<g>
		<path d="M281.4,143.5c0,0.6-0.2,1.2-0.5,1.6s-0.9,0.7-1.5,0.8v0.1c0.8,0.1,1.4,0.4,1.8,0.8s0.6,0.9,0.6,1.6c0,1-0.3,1.7-1,2.2
			s-1.6,0.8-2.8,0.8c-0.5,0-1,0-1.5-0.1s-0.9-0.2-1.3-0.4v-1.1c0.4,0.2,0.9,0.4,1.4,0.5s1,0.2,1.4,0.2c1.7,0,2.6-0.7,2.6-2
			c0-1.2-1-1.8-2.9-1.8h-1v-1h1c0.8,0,1.4-0.2,1.9-0.5s0.7-0.8,0.7-1.4c0-0.5-0.2-0.9-0.5-1.1s-0.8-0.4-1.4-0.4
			c-0.4,0-0.9,0.1-1.2,0.2s-0.8,0.3-1.3,0.7l-0.6-0.8c0.4-0.3,0.9-0.6,1.4-0.8s1.1-0.3,1.7-0.3c1,0,1.7,0.2,2.3,0.7
			S281.4,142.7,281.4,143.5z"/>
	</g>
	<g>
		<path d="M392.4,143.5c0,0.6-0.2,1.2-0.5,1.6c-0.4,0.4-0.9,0.7-1.5,0.8v0.1c0.8,0.1,1.4,0.4,1.8,0.8c0.4,0.4,0.6,0.9,0.6,1.6
			c0,1-0.3,1.7-1,2.2c-0.7,0.5-1.6,0.8-2.8,0.8c-0.5,0-1,0-1.5-0.1c-0.4-0.1-0.9-0.2-1.3-0.4v-1.1c0.4,0.2,0.9,0.4,1.4,0.5
			c0.5,0.1,1,0.2,1.4,0.2c1.7,0,2.6-0.7,2.6-2c0-1.2-1-1.8-2.9-1.8h-1v-1h1c0.8,0,1.4-0.2,1.9-0.5c0.5-0.3,0.7-0.8,0.7-1.4
			c0-0.5-0.2-0.9-0.5-1.1s-0.8-0.4-1.4-0.4c-0.4,0-0.8,0.1-1.2,0.2c-0.4,0.1-0.8,0.3-1.3,0.7l-0.6-0.8c0.4-0.3,0.9-0.6,1.4-0.8
			c0.5-0.2,1.1-0.3,1.7-0.3c1,0,1.7,0.2,2.3,0.7C392.1,142.1,392.4,142.7,392.4,143.5z"/>
	</g>
</g>
<g>
	<g>
		<path d="M158.8,164.7c0,1.7-0.3,3-0.8,3.9s-1.4,1.3-2.5,1.3c-1.1,0-1.9-0.4-2.5-1.3s-0.8-2.2-0.8-3.8c0-1.7,0.3-3,0.8-3.9
			s1.4-1.3,2.5-1.3c1.1,0,1.9,0.4,2.5,1.3S158.8,163.1,158.8,164.7z M153.3,164.7c0,1.5,0.2,2.5,0.5,3.2s0.9,1,1.6,1
			c0.8,0,1.3-0.3,1.6-1s0.5-1.7,0.5-3.2s-0.2-2.5-0.5-3.2s-0.9-1-1.6-1c-0.7,0-1.3,0.3-1.6,1S153.3,163.3,153.3,164.7z"/>
		<path d="M164.4,169.7h-1.1v-7.1c0-0.6,0-1.2,0.1-1.7c-0.1,0.1-0.2,0.2-0.3,0.3s-0.7,0.5-1.6,1.3l-0.6-0.8l2.6-2h1V169.7z"/>
		<path d="M174.8,164.7c0,1.7-0.3,3-0.8,3.9s-1.4,1.3-2.5,1.3c-1.1,0-1.9-0.4-2.5-1.3s-0.8-2.2-0.8-3.8c0-1.7,0.3-3,0.8-3.9
			s1.4-1.3,2.5-1.3c1.1,0,1.9,0.4,2.5,1.3S174.8,163.1,174.8,164.7z M169.3,164.7c0,1.5,0.2,2.5,0.5,3.2s0.9,1,1.6,1
			c0.8,0,1.3-0.3,1.6-1s0.5-1.7,0.5-3.2s-0.2-2.5-0.5-3.2s-0.9-1-1.6-1c-0.7,0-1.3,0.3-1.6,1S169.3,163.3,169.3,164.7z"/>
		<path d="M182.8,164.7c0,1.7-0.3,3-0.8,3.9s-1.4,1.3-2.5,1.3c-1.1,0-1.9-0.4-2.5-1.3s-0.8-2.2-0.8-3.8c0-1.7,0.3-3,0.8-3.9
			s1.4-1.3,2.5-1.3c1.1,0,1.9,0.4,2.5,1.3S182.8,163.1,182.8,164.7z M177.4,164.7c0,1.5,0.2,2.5,0.5,3.2s0.9,1,1.6,1
			c0.8,0,1.3-0.3,1.6-1s0.5-1.7,0.5-3.2s-0.2-2.5-0.5-3.2s-0.9-1-1.6-1c-0.7,0-1.3,0.3-1.6,1S177.4,163.3,177.4,164.7z"/>
	</g>
	<g>
		<path d="M282.2,167.4h-1.5v2.3h-1.1v-2.3h-4.9v-1l4.7-6.8h1.2v6.7h1.5V167.4z M279.7,166.4v-3.3c0-0.7,0-1.4,0.1-2.2h-0.1
			c-0.2,0.4-0.4,0.8-0.6,1.1l-3.1,4.4H279.7z"/>
	</g>
	<g>
		<path d="M393.2,167.4h-1.5v2.3h-1.1v-2.3h-4.9v-1l4.7-6.8h1.2v6.7h1.5V167.4z M390.7,166.4v-3.3c0-0.7,0-1.4,0.1-2.2h-0.1
			c-0.2,0.4-0.4,0.8-0.6,1.1l-3.1,4.4H390.7z"/>
	</g>
</g>
<g>
	<g>
		<path d="M158.8,183.4c0,1.7-0.3,3-0.8,3.9s-1.4,1.3-2.5,1.3c-1.1,0-1.9-0.4-2.5-1.3s-0.8-2.2-0.8-3.8c0-1.7,0.3-3,0.8-3.9
			s1.4-1.3,2.5-1.3c1.1,0,1.9,0.4,2.5,1.3S158.8,181.7,158.8,183.4z M153.3,183.4c0,1.5,0.2,2.5,0.5,3.2s0.9,1,1.6,1
			c0.8,0,1.3-0.3,1.6-1s0.5-1.7,0.5-3.2s-0.2-2.5-0.5-3.2s-0.9-1-1.6-1c-0.7,0-1.3,0.3-1.6,1S153.3,181.9,153.3,183.4z"/>
		<path d="M164.4,188.4h-1.1v-7.1c0-0.6,0-1.2,0.1-1.7c-0.1,0.1-0.2,0.2-0.3,0.3s-0.7,0.5-1.6,1.3l-0.6-0.8l2.6-2h1V188.4z"/>
		<path d="M174.8,183.4c0,1.7-0.3,3-0.8,3.9s-1.4,1.3-2.5,1.3c-1.1,0-1.9-0.4-2.5-1.3s-0.8-2.2-0.8-3.8c0-1.7,0.3-3,0.8-3.9
			s1.4-1.3,2.5-1.3c1.1,0,1.9,0.4,2.5,1.3S174.8,181.7,174.8,183.4z M169.3,183.4c0,1.5,0.2,2.5,0.5,3.2s0.9,1,1.6,1
			c0.8,0,1.3-0.3,1.6-1s0.5-1.7,0.5-3.2s-0.2-2.5-0.5-3.2s-0.9-1-1.6-1c-0.7,0-1.3,0.3-1.6,1S169.3,181.9,169.3,183.4z"/>
		<path d="M180.4,188.4h-1.1v-7.1c0-0.6,0-1.2,0.1-1.7c-0.1,0.1-0.2,0.2-0.3,0.3s-0.7,0.5-1.6,1.3l-0.6-0.8l2.6-2h1V188.4z"/>
	</g>
	<g>
		<path d="M278.3,182.3c1.1,0,1.9,0.3,2.5,0.8s0.9,1.2,0.9,2.1c0,1-0.3,1.8-1,2.4s-1.6,0.9-2.7,0.9c-1.1,0-2-0.2-2.6-0.5v-1.1
			c0.3,0.2,0.7,0.4,1.2,0.5s0.9,0.2,1.4,0.2c0.8,0,1.4-0.2,1.9-0.6s0.7-0.9,0.7-1.6c0-1.4-0.9-2.1-2.6-2.1c-0.4,0-1,0.1-1.7,0.2
			l-0.6-0.4l0.4-4.7h5v1h-4l-0.3,3C277.3,182.3,277.8,182.3,278.3,182.3z"/>
	</g>
	<g>
		<path d="M389.3,182.3c1.1,0,1.9,0.3,2.5,0.8c0.6,0.5,0.9,1.2,0.9,2.1c0,1-0.3,1.8-1,2.4c-0.7,0.6-1.6,0.9-2.7,0.9
			c-1.1,0-2-0.2-2.6-0.5v-1.1c0.3,0.2,0.7,0.4,1.2,0.5c0.5,0.1,0.9,0.2,1.4,0.2c0.8,0,1.4-0.2,1.9-0.6s0.7-0.9,0.7-1.6
			c0-1.4-0.9-2.1-2.6-2.1c-0.4,0-1,0.1-1.7,0.2l-0.6-0.4l0.4-4.7h5v1h-4l-0.3,3C388.3,182.3,388.8,182.3,389.3,182.3z"/>
	</g>
</g>
<g>
	<g>
		<path d="M158.8,202c0,1.7-0.3,3-0.8,3.9s-1.4,1.3-2.5,1.3c-1.1,0-1.9-0.4-2.5-1.3s-0.8-2.2-0.8-3.8c0-1.7,0.3-3,0.8-3.9
			s1.4-1.3,2.5-1.3c1.1,0,1.9,0.4,2.5,1.3S158.8,200.3,158.8,202z M153.3,202c0,1.5,0.2,2.5,0.5,3.2s0.9,1,1.6,1
			c0.8,0,1.3-0.3,1.6-1s0.5-1.7,0.5-3.2s-0.2-2.5-0.5-3.2s-0.9-1-1.6-1c-0.7,0-1.3,0.3-1.6,1S153.3,200.5,153.3,202z"/>
		<path d="M164.4,207h-1.1v-7.1c0-0.6,0-1.2,0.1-1.7c-0.1,0.1-0.2,0.2-0.3,0.3s-0.7,0.5-1.6,1.3l-0.6-0.8l2.6-2h1V207z"/>
		<path d="M172.4,207h-1.1v-7.1c0-0.6,0-1.2,0.1-1.7c-0.1,0.1-0.2,0.2-0.3,0.3s-0.7,0.5-1.6,1.3l-0.6-0.8l2.6-2h1V207z"/>
		<path d="M182.8,202c0,1.7-0.3,3-0.8,3.9s-1.4,1.3-2.5,1.3c-1.1,0-1.9-0.4-2.5-1.3s-0.8-2.2-0.8-3.8c0-1.7,0.3-3,0.8-3.9
			s1.4-1.3,2.5-1.3c1.1,0,1.9,0.4,2.5,1.3S182.8,200.3,182.8,202z M177.4,202c0,1.5,0.2,2.5,0.5,3.2s0.9,1,1.6,1
			c0.8,0,1.3-0.3,1.6-1s0.5-1.7,0.5-3.2s-0.2-2.5-0.5-3.2s-0.9-1-1.6-1c-0.7,0-1.3,0.3-1.6,1S177.4,200.5,177.4,202z"/>
	</g>
	<g>
		<path d="M275.3,202.7c0-2,0.4-3.4,1.1-4.4s1.9-1.5,3.4-1.5c0.5,0,0.9,0,1.2,0.1v1c-0.4-0.1-0.8-0.2-1.2-0.2c-1.1,0-1.9,0.3-2.5,1
			s-0.9,1.7-0.9,3.1h0.1c0.5-0.8,1.3-1.2,2.4-1.2c0.9,0,1.6,0.3,2.1,0.8s0.8,1.3,0.8,2.2c0,1-0.3,1.9-0.9,2.5s-1.3,0.9-2.3,0.9
			c-1,0-1.9-0.4-2.5-1.2S275.3,204.1,275.3,202.7z M278.7,206.2c0.6,0,1.1-0.2,1.5-0.6s0.5-1,0.5-1.8c0-0.7-0.2-1.2-0.5-1.6
			s-0.8-0.6-1.5-0.6c-0.4,0-0.8,0.1-1.1,0.3s-0.6,0.4-0.8,0.7s-0.3,0.6-0.3,0.9c0,0.5,0.1,0.9,0.3,1.3s0.4,0.7,0.8,1
			S278.2,206.2,278.7,206.2z"/>
	</g>
	<g>
		<path d="M386.3,202.7c0-2,0.4-3.4,1.1-4.4c0.8-1,1.9-1.5,3.4-1.5c0.5,0,0.9,0,1.2,0.1v1c-0.4-0.1-0.8-0.2-1.2-0.2
			c-1.1,0-1.9,0.3-2.5,1c-0.6,0.7-0.9,1.7-0.9,3.1h0.1c0.5-0.8,1.3-1.2,2.4-1.2c0.9,0,1.6,0.3,2.1,0.8c0.5,0.5,0.8,1.3,0.8,2.2
			c0,1-0.3,1.9-0.9,2.5s-1.3,0.9-2.3,0.9c-1,0-1.9-0.4-2.5-1.2C386.6,205.2,386.3,204.1,386.3,202.7z M389.7,206.2
			c0.6,0,1.1-0.2,1.5-0.6c0.4-0.4,0.5-1,0.5-1.8c0-0.7-0.2-1.2-0.5-1.6c-0.3-0.4-0.8-0.6-1.5-0.6c-0.4,0-0.8,0.1-1.1,0.3
			s-0.6,0.4-0.8,0.7c-0.2,0.3-0.3,0.6-0.3,0.9c0,0.5,0.1,0.9,0.3,1.3c0.2,0.4,0.4,0.7,0.8,1S389.2,206.2,389.7,206.2z"/>
	</g>
</g>
<g>
	<g>
		<path d="M158.8,220.6c0,1.7-0.3,3-0.8,3.9c-0.5,0.9-1.4,1.3-2.5,1.3c-1.1,0-1.9-0.4-2.5-1.3c-0.6-0.9-0.8-2.2-0.8-3.8
			c0-1.7,0.3-3,0.8-3.9c0.5-0.8,1.4-1.3,2.5-1.3c1.1,0,1.9,0.4,2.5,1.3C158.5,217.7,158.8,219,158.8,220.6z M153.3,220.6
			c0,1.5,0.2,2.5,0.5,3.2s0.9,1,1.6,1c0.8,0,1.3-0.3,1.6-1c0.3-0.7,0.5-1.7,0.5-3.2s-0.2-2.5-0.5-3.2c-0.3-0.7-0.9-1-1.6-1
			c-0.7,0-1.3,0.3-1.6,1C153.5,218.1,153.3,219.2,153.3,220.6z"/>
		<path d="M164.4,225.6h-1.1v-7.1c0-0.6,0-1.2,0.1-1.7c-0.1,0.1-0.2,0.2-0.3,0.3c-0.1,0.1-0.7,0.5-1.6,1.3l-0.6-0.8l2.6-2h1V225.6z"
			/>
		<path d="M172.4,225.6h-1.1v-7.1c0-0.6,0-1.2,0.1-1.7c-0.1,0.1-0.2,0.2-0.3,0.3c-0.1,0.1-0.7,0.5-1.6,1.3l-0.6-0.8l2.6-2h1V225.6z"
			/>
		<path d="M180.4,225.6h-1.1v-7.1c0-0.6,0-1.2,0.1-1.7c-0.1,0.1-0.2,0.2-0.3,0.3c-0.1,0.1-0.7,0.5-1.6,1.3l-0.6-0.8l2.6-2h1V225.6z"
			/>
	</g>
	<g>
		<path d="M276.4,225.6l4.1-8.9h-5.4v-1h6.7v0.9l-4.1,9.1H276.4z"/>
	</g>
	<g>
		<path d="M387.4,225.6l4.1-8.9h-5.4v-1h6.7v0.9l-4.1,9.1H387.4z"/>
	</g>
</g>
<g>
	<g>
		<path d="M156.4,244.3h-1.1v-7.1c0-0.6,0-1.2,0.1-1.7c-0.1,0.1-0.2,0.2-0.3,0.3c-0.1,0.1-0.7,0.5-1.6,1.3l-0.6-0.8l2.6-2h1V244.3z"
			/>
		<path d="M166.8,239.3c0,1.7-0.3,3-0.8,3.9c-0.5,0.9-1.4,1.3-2.5,1.3c-1.1,0-1.9-0.4-2.5-1.3c-0.6-0.9-0.8-2.2-0.8-3.8
			c0-1.7,0.3-3,0.8-3.9c0.5-0.8,1.4-1.3,2.5-1.3c1.1,0,1.9,0.4,2.5,1.3C166.5,236.3,166.8,237.6,166.8,239.3z M161.3,239.3
			c0,1.5,0.2,2.5,0.5,3.2s0.9,1,1.6,1c0.8,0,1.3-0.3,1.6-1c0.3-0.7,0.5-1.7,0.5-3.2s-0.2-2.5-0.5-3.2c-0.3-0.7-0.9-1-1.6-1
			c-0.7,0-1.3,0.3-1.6,1C161.5,236.8,161.3,237.8,161.3,239.3z"/>
		<path d="M174.8,239.3c0,1.7-0.3,3-0.8,3.9c-0.5,0.9-1.4,1.3-2.5,1.3c-1.1,0-1.9-0.4-2.5-1.3c-0.6-0.9-0.8-2.2-0.8-3.8
			c0-1.7,0.3-3,0.8-3.9c0.5-0.8,1.4-1.3,2.5-1.3c1.1,0,1.9,0.4,2.5,1.3C174.5,236.3,174.8,237.6,174.8,239.3z M169.3,239.3
			c0,1.5,0.2,2.5,0.5,3.2s0.9,1,1.6,1c0.8,0,1.3-0.3,1.6-1c0.3-0.7,0.5-1.7,0.5-3.2s-0.2-2.5-0.5-3.2c-0.3-0.7-0.9-1-1.6-1
			c-0.7,0-1.3,0.3-1.6,1C169.5,236.8,169.3,237.8,169.3,239.3z"/>
		<path d="M182.8,239.3c0,1.7-0.3,3-0.8,3.9c-0.5,0.9-1.4,1.3-2.5,1.3c-1.1,0-1.9-0.4-2.5-1.3c-0.6-0.9-0.8-2.2-0.8-3.8
			c0-1.7,0.3-3,0.8-3.9c0.5-0.8,1.4-1.3,2.5-1.3c1.1,0,1.9,0.4,2.5,1.3C182.5,236.3,182.8,237.6,182.8,239.3z M177.4,239.3
			c0,1.5,0.2,2.5,0.5,3.2s0.9,1,1.6,1c0.8,0,1.3-0.3,1.6-1c0.3-0.7,0.5-1.7,0.5-3.2s-0.2-2.5-0.5-3.2c-0.3-0.7-0.9-1-1.6-1
			c-0.7,0-1.3,0.3-1.6,1C177.5,236.8,177.4,237.8,177.4,239.3z"/>
	</g>
	<g>
		<path d="M278.5,234.1c0.9,0,1.6,0.2,2.2,0.6s0.8,1,0.8,1.8c0,0.5-0.2,0.9-0.5,1.3c-0.3,0.4-0.8,0.8-1.5,1.1
			c0.8,0.4,1.4,0.8,1.7,1.2c0.3,0.4,0.5,0.9,0.5,1.5c0,0.8-0.3,1.5-0.9,2c-0.6,0.5-1.4,0.7-2.4,0.7c-1.1,0-1.9-0.2-2.5-0.7
			c-0.6-0.5-0.9-1.1-0.9-2c0-1.1,0.7-2,2.1-2.7c-0.6-0.4-1.1-0.7-1.4-1.2c-0.3-0.4-0.4-0.9-0.4-1.4c0-0.7,0.3-1.3,0.8-1.7
			S277.6,234.1,278.5,234.1z M276.3,241.8c0,0.5,0.2,1,0.6,1.3c0.4,0.3,0.9,0.5,1.6,0.5c0.7,0,1.2-0.2,1.6-0.5
			c0.4-0.3,0.6-0.8,0.6-1.3c0-0.4-0.2-0.8-0.5-1.2c-0.4-0.3-1-0.7-1.9-1c-0.7,0.3-1.2,0.6-1.5,1
			C276.5,240.8,276.3,241.3,276.3,241.8z M278.5,235.1c-0.6,0-1,0.1-1.3,0.4s-0.5,0.6-0.5,1.1c0,0.4,0.1,0.8,0.4,1.1
			s0.8,0.6,1.5,0.9c0.7-0.3,1.1-0.6,1.4-0.9s0.4-0.7,0.4-1.1c0-0.5-0.2-0.8-0.5-1.1C279.5,235.2,279.1,235.1,278.5,235.1z"/>
	</g>
	<g>
		<path d="M389.5,234.1c0.9,0,1.6,0.2,2.2,0.6s0.8,1,0.8,1.8c0,0.5-0.2,0.9-0.5,1.3c-0.3,0.4-0.8,0.8-1.5,1.1
			c0.8,0.4,1.4,0.8,1.7,1.2c0.3,0.4,0.5,0.9,0.5,1.5c0,0.8-0.3,1.5-0.9,2c-0.6,0.5-1.4,0.7-2.4,0.7c-1.1,0-1.9-0.2-2.5-0.7
			c-0.6-0.5-0.9-1.1-0.9-2c0-1.1,0.7-2,2.1-2.7c-0.6-0.4-1.1-0.7-1.4-1.2c-0.3-0.4-0.4-0.9-0.4-1.4c0-0.7,0.3-1.3,0.8-1.7
			C387.9,234.4,388.6,234.1,389.5,234.1z M387.3,241.8c0,0.5,0.2,1,0.6,1.3c0.4,0.3,0.9,0.5,1.6,0.5c0.7,0,1.2-0.2,1.6-0.5
			c0.4-0.3,0.6-0.8,0.6-1.3c0-0.4-0.2-0.8-0.5-1.2c-0.4-0.3-1-0.7-1.9-1c-0.7,0.3-1.2,0.6-1.5,1
			C387.5,240.8,387.3,241.3,387.3,241.8z M389.5,235.1c-0.6,0-1,0.1-1.3,0.4c-0.3,0.3-0.5,0.6-0.5,1.1c0,0.4,0.1,0.8,0.4,1.1
			c0.3,0.3,0.8,0.6,1.5,0.9c0.7-0.3,1.1-0.6,1.4-0.9c0.3-0.3,0.4-0.7,0.4-1.1c0-0.5-0.2-0.8-0.5-1.1
			C390.5,235.2,390.1,235.1,389.5,235.1z"/>
	</g>
</g>
<g>
	<g>
		<path d="M156.4,262.9h-1.1v-7.1c0-0.6,0-1.2,0.1-1.7c-0.1,0.1-0.2,0.2-0.3,0.3c-0.1,0.1-0.7,0.5-1.6,1.3l-0.6-0.8l2.6-2h1V262.9z"
			/>
		<path d="M166.8,257.9c0,1.7-0.3,3-0.8,3.9c-0.5,0.9-1.4,1.3-2.5,1.3c-1.1,0-1.9-0.4-2.5-1.3c-0.6-0.9-0.8-2.2-0.8-3.8
			c0-1.7,0.3-3,0.8-3.9c0.5-0.8,1.4-1.3,2.5-1.3c1.1,0,1.9,0.4,2.5,1.3C166.5,255,166.8,256.2,166.8,257.9z M161.3,257.9
			c0,1.5,0.2,2.5,0.5,3.2s0.9,1,1.6,1c0.8,0,1.3-0.3,1.6-1c0.3-0.7,0.5-1.7,0.5-3.2s-0.2-2.5-0.5-3.2c-0.3-0.7-0.9-1-1.6-1
			c-0.7,0-1.3,0.3-1.6,1C161.5,255.4,161.3,256.4,161.3,257.9z"/>
		<path d="M174.8,257.9c0,1.7-0.3,3-0.8,3.9c-0.5,0.9-1.4,1.3-2.5,1.3c-1.1,0-1.9-0.4-2.5-1.3c-0.6-0.9-0.8-2.2-0.8-3.8
			c0-1.7,0.3-3,0.8-3.9c0.5-0.8,1.4-1.3,2.5-1.3c1.1,0,1.9,0.4,2.5,1.3C174.5,255,174.8,256.2,174.8,257.9z M169.3,257.9
			c0,1.5,0.2,2.5,0.5,3.2s0.9,1,1.6,1c0.8,0,1.3-0.3,1.6-1c0.3-0.7,0.5-1.7,0.5-3.2s-0.2-2.5-0.5-3.2c-0.3-0.7-0.9-1-1.6-1
			c-0.7,0-1.3,0.3-1.6,1C169.5,255.4,169.3,256.4,169.3,257.9z"/>
		<path d="M180.4,262.9h-1.1v-7.1c0-0.6,0-1.2,0.1-1.7c-0.1,0.1-0.2,0.2-0.3,0.3c-0.1,0.1-0.7,0.5-1.6,1.3l-0.6-0.8l2.6-2h1V262.9z"
			/>
	</g>
	<g>
		<path d="M281.8,257.2c0,3.9-1.5,5.9-4.5,5.9c-0.5,0-0.9,0-1.3-0.1v-1c0.4,0.1,0.8,0.2,1.2,0.2c1.1,0,1.9-0.3,2.5-1
			s0.9-1.7,0.9-3.1h-0.1c-0.3,0.4-0.6,0.7-1,0.9s-0.9,0.3-1.4,0.3c-0.9,0-1.6-0.3-2.1-0.8c-0.5-0.5-0.8-1.3-0.8-2.2
			c0-1,0.3-1.9,0.9-2.5s1.3-0.9,2.3-0.9c0.7,0,1.3,0.2,1.8,0.5s0.9,0.9,1.2,1.5C281.6,255.5,281.8,256.3,281.8,257.2z M278.4,253.7
			c-0.7,0-1.2,0.2-1.5,0.6c-0.4,0.4-0.5,1-0.5,1.8c0,0.7,0.2,1.2,0.5,1.5s0.8,0.6,1.5,0.6c0.4,0,0.8-0.1,1.1-0.3
			c0.3-0.2,0.6-0.4,0.8-0.7c0.2-0.3,0.3-0.6,0.3-0.9c0-0.5-0.1-0.9-0.3-1.3c-0.2-0.4-0.4-0.7-0.8-1S278.8,253.7,278.4,253.7z"/>
	</g>
	<g>
		<path d="M392.8,257.2c0,3.9-1.5,5.9-4.5,5.9c-0.5,0-0.9,0-1.3-0.1v-1c0.4,0.1,0.8,0.2,1.2,0.2c1.1,0,1.9-0.3,2.5-1
			c0.6-0.7,0.9-1.7,0.9-3.1h-0.1c-0.3,0.4-0.6,0.7-1,0.9c-0.4,0.2-0.9,0.3-1.4,0.3c-0.9,0-1.6-0.3-2.1-0.8c-0.5-0.5-0.8-1.3-0.8-2.2
			c0-1,0.3-1.9,0.9-2.5s1.3-0.9,2.3-0.9c0.7,0,1.3,0.2,1.8,0.5c0.5,0.3,0.9,0.9,1.2,1.5C392.6,255.5,392.8,256.3,392.8,257.2z
			 M389.4,253.7c-0.7,0-1.2,0.2-1.5,0.6c-0.4,0.4-0.5,1-0.5,1.8c0,0.7,0.2,1.2,0.5,1.5s0.8,0.6,1.5,0.6c0.4,0,0.8-0.1,1.1-0.3
			c0.3-0.2,0.6-0.4,0.8-0.7c0.2-0.3,0.3-0.6,0.3-0.9c0-0.5-0.1-0.9-0.3-1.3c-0.2-0.4-0.4-0.7-0.8-1S389.8,253.7,389.4,253.7z"/>
	</g>
</g>
<g>
	<g>
		<path d="M156.4,281.5h-1.1v-7.1c0-0.6,0-1.2,0.1-1.7c-0.1,0.1-0.2,0.2-0.3,0.3c-0.1,0.1-0.7,0.5-1.6,1.3l-0.6-0.8l2.6-2h1V281.5z"
			/>
		<path d="M166.8,276.5c0,1.7-0.3,3-0.8,3.9c-0.5,0.9-1.4,1.3-2.5,1.3c-1.1,0-1.9-0.4-2.5-1.3s-0.8-2.2-0.8-3.8c0-1.7,0.3-3,0.8-3.9
			c0.5-0.8,1.4-1.3,2.5-1.3c1.1,0,1.9,0.4,2.5,1.3C166.5,273.6,166.8,274.9,166.8,276.5z M161.3,276.5c0,1.5,0.2,2.5,0.5,3.2
			s0.9,1,1.6,1c0.8,0,1.3-0.3,1.6-1s0.5-1.7,0.5-3.2s-0.2-2.5-0.5-3.2s-0.9-1-1.6-1c-0.7,0-1.3,0.3-1.6,1S161.3,275.1,161.3,276.5z"
			/>
		<path d="M172.4,281.5h-1.1v-7.1c0-0.6,0-1.2,0.1-1.7c-0.1,0.1-0.2,0.2-0.3,0.3c-0.1,0.1-0.7,0.5-1.6,1.3l-0.6-0.8l2.6-2h1V281.5z"
			/>
		<path d="M182.8,276.5c0,1.7-0.3,3-0.8,3.9c-0.5,0.9-1.4,1.3-2.5,1.3c-1.1,0-1.9-0.4-2.5-1.3s-0.8-2.2-0.8-3.8c0-1.7,0.3-3,0.8-3.9
			c0.5-0.8,1.4-1.3,2.5-1.3c1.1,0,1.9,0.4,2.5,1.3C182.5,273.6,182.8,274.9,182.8,276.5z M177.4,276.5c0,1.5,0.2,2.5,0.5,3.2
			s0.9,1,1.6,1c0.8,0,1.3-0.3,1.6-1s0.5-1.7,0.5-3.2s-0.2-2.5-0.5-3.2s-0.9-1-1.6-1c-0.7,0-1.3,0.3-1.6,1S177.4,275.1,177.4,276.5z"
			/>
	</g>
	<g>
		<path d="M281.7,281.5l-1.2-3.2h-4l-1.2,3.2h-1.2l4-10h1l3.9,10H281.7z M280.1,277.3l-1.2-3.1c-0.2-0.4-0.3-0.9-0.5-1.4
			c-0.1,0.4-0.2,0.9-0.4,1.4l-1.2,3.1H280.1z"/>
	</g>
	<g>
		<path d="M386.4,281.5h-1.1v-7.1c0-0.6,0-1.2,0.1-1.7c-0.1,0.1-0.2,0.2-0.3,0.3c-0.1,0.1-0.7,0.5-1.6,1.3l-0.6-0.8l2.6-2h1V281.5z"
			/>
		<path d="M396.8,276.5c0,1.7-0.3,3-0.8,3.9c-0.5,0.9-1.4,1.3-2.5,1.3c-1.1,0-1.9-0.4-2.5-1.3s-0.8-2.2-0.8-3.8c0-1.7,0.3-3,0.8-3.9
			c0.5-0.8,1.4-1.3,2.5-1.3c1.1,0,1.9,0.4,2.5,1.3C396.5,273.6,396.8,274.9,396.8,276.5z M391.3,276.5c0,1.5,0.2,2.5,0.5,3.2
			s0.9,1,1.6,1c0.8,0,1.3-0.3,1.6-1c0.3-0.7,0.5-1.7,0.5-3.2s-0.2-2.5-0.5-3.2c-0.3-0.7-0.9-1-1.6-1c-0.7,0-1.3,0.3-1.6,1
			S391.3,275.1,391.3,276.5z"/>
	</g>
</g>
<g>
	<g>
		<path d="M156.4,300.2h-1.1v-7.1c0-0.6,0-1.2,0.1-1.7c-0.1,0.1-0.2,0.2-0.3,0.3c-0.1,0.1-0.7,0.5-1.6,1.3l-0.6-0.8l2.6-2h1V300.2z"
			/>
		<path d="M166.8,295.2c0,1.7-0.3,3-0.8,3.9c-0.5,0.9-1.4,1.3-2.5,1.3c-1.1,0-1.9-0.4-2.5-1.3c-0.6-0.9-0.8-2.2-0.8-3.8
			c0-1.7,0.3-3,0.8-3.9c0.5-0.8,1.4-1.3,2.5-1.3c1.1,0,1.9,0.4,2.5,1.3C166.5,292.2,166.8,293.5,166.8,295.2z M161.3,295.2
			c0,1.5,0.2,2.5,0.5,3.2s0.9,1,1.6,1c0.8,0,1.3-0.3,1.6-1c0.3-0.7,0.5-1.7,0.5-3.2s-0.2-2.5-0.5-3.2c-0.3-0.7-0.9-1-1.6-1
			c-0.7,0-1.3,0.3-1.6,1C161.5,292.7,161.3,293.7,161.3,295.2z"/>
		<path d="M172.4,300.2h-1.1v-7.1c0-0.6,0-1.2,0.1-1.7c-0.1,0.1-0.2,0.2-0.3,0.3c-0.1,0.1-0.7,0.5-1.6,1.3l-0.6-0.8l2.6-2h1V300.2z"
			/>
		<path d="M180.4,300.2h-1.1v-7.1c0-0.6,0-1.2,0.1-1.7c-0.1,0.1-0.2,0.2-0.3,0.3c-0.1,0.1-0.7,0.5-1.6,1.3l-0.6-0.8l2.6-2h1V300.2z"
			/>
	</g>
	<g>
		<path d="M275.3,290.2h2.8c1.3,0,2.3,0.2,2.9,0.6c0.6,0.4,0.9,1,0.9,1.9c0,0.6-0.2,1.1-0.5,1.5c-0.3,0.4-0.8,0.6-1.4,0.7v0.1
			c1.5,0.3,2.3,1.1,2.3,2.4c0,0.9-0.3,1.6-0.9,2.1c-0.6,0.5-1.4,0.8-2.5,0.8h-3.5V290.2z M276.5,294.5h1.9c0.8,0,1.4-0.1,1.8-0.4
			c0.4-0.3,0.5-0.7,0.5-1.3c0-0.6-0.2-1-0.6-1.2c-0.4-0.2-1-0.4-1.9-0.4h-1.7V294.5z M276.5,295.4v3.7h2.1c0.8,0,1.4-0.2,1.8-0.5
			c0.4-0.3,0.6-0.8,0.6-1.5c0-0.6-0.2-1.1-0.6-1.4c-0.4-0.3-1.1-0.4-1.9-0.4H276.5z"/>
	</g>
	<g>
		<path d="M386.4,300.2h-1.1v-7.1c0-0.6,0-1.2,0.1-1.7c-0.1,0.1-0.2,0.2-0.3,0.3c-0.1,0.1-0.7,0.5-1.6,1.3l-0.6-0.8l2.6-2h1V300.2z"
			/>
		<path d="M394.4,300.2h-1.1v-7.1c0-0.6,0-1.2,0.1-1.7c-0.1,0.1-0.2,0.2-0.3,0.3c-0.1,0.1-0.7,0.5-1.6,1.3l-0.6-0.8l2.6-2h1V300.2z"
			/>
	</g>
</g>
<g>
	<g>
		<path d="M156.4,318.8h-1.1v-7.1c0-0.6,0-1.2,0.1-1.7c-0.1,0.1-0.2,0.2-0.3,0.3c-0.1,0.1-0.7,0.5-1.6,1.3l-0.6-0.8l2.6-2h1V318.8z"
			/>
		<path d="M164.4,318.8h-1.1v-7.1c0-0.6,0-1.2,0.1-1.7c-0.1,0.1-0.2,0.2-0.3,0.3c-0.1,0.1-0.7,0.5-1.6,1.3l-0.6-0.8l2.6-2h1V318.8z"
			/>
		<path d="M174.8,313.8c0,1.7-0.3,3-0.8,3.9c-0.5,0.9-1.4,1.3-2.5,1.3c-1.1,0-1.9-0.4-2.5-1.3c-0.6-0.9-0.8-2.2-0.8-3.8
			c0-1.7,0.3-3,0.8-3.9c0.5-0.8,1.4-1.3,2.5-1.3c1.1,0,1.9,0.4,2.5,1.3C174.5,310.9,174.8,312.1,174.8,313.8z M169.3,313.8
			c0,1.5,0.2,2.5,0.5,3.2s0.9,1,1.6,1c0.8,0,1.3-0.3,1.6-1c0.3-0.7,0.5-1.7,0.5-3.2s-0.2-2.5-0.5-3.2c-0.3-0.7-0.9-1-1.6-1
			c-0.7,0-1.3,0.3-1.6,1C169.5,311.3,169.3,312.3,169.3,313.8z"/>
		<path d="M182.8,313.8c0,1.7-0.3,3-0.8,3.9c-0.5,0.9-1.4,1.3-2.5,1.3c-1.1,0-1.9-0.4-2.5-1.3c-0.6-0.9-0.8-2.2-0.8-3.8
			c0-1.7,0.3-3,0.8-3.9c0.5-0.8,1.4-1.3,2.5-1.3c1.1,0,1.9,0.4,2.5,1.3C182.5,310.9,182.8,312.1,182.8,313.8z M177.3,313.8
			c0,1.5,0.2,2.5,0.5,3.2s0.9,1,1.6,1c0.8,0,1.3-0.3,1.6-1c0.3-0.7,0.5-1.7,0.5-3.2s-0.2-2.5-0.5-3.2c-0.3-0.7-0.9-1-1.6-1
			c-0.7,0-1.3,0.3-1.6,1C177.5,311.3,177.3,312.3,177.3,313.8z"/>
	</g>
	<g>
		<path d="M279.7,309.7c-1.1,0-2,0.4-2.6,1.1s-1,1.7-1,3c0,1.3,0.3,2.3,0.9,3c0.6,0.7,1.5,1.1,2.6,1.1c0.7,0,1.5-0.1,2.4-0.4v1
			c-0.7,0.3-1.5,0.4-2.6,0.4c-1.5,0-2.6-0.4-3.4-1.3c-0.8-0.9-1.2-2.2-1.2-3.8c0-1,0.2-1.9,0.6-2.7c0.4-0.8,0.9-1.4,1.7-1.8
			c0.7-0.4,1.6-0.6,2.6-0.6c1,0,2,0.2,2.7,0.6l-0.5,1C281.2,309.9,280.5,309.7,279.7,309.7z"/>
	</g>
	<g>
		<path d="M386.4,318.8h-1.1v-7.1c0-0.6,0-1.2,0.1-1.7c-0.1,0.1-0.2,0.2-0.3,0.3c-0.1,0.1-0.7,0.5-1.6,1.3l-0.6-0.8l2.6-2h1V318.8z"
			/>
		<path d="M396.8,318.8h-6.6v-1l2.6-2.6c0.8-0.8,1.3-1.4,1.6-1.7c0.3-0.3,0.4-0.7,0.6-1c0.1-0.3,0.2-0.7,0.2-1.1
			c0-0.5-0.2-1-0.5-1.3c-0.3-0.3-0.8-0.5-1.3-0.5c-0.4,0-0.8,0.1-1.2,0.2c-0.4,0.1-0.8,0.4-1.2,0.7l-0.6-0.8c0.9-0.8,1.9-1.1,3-1.1
			c0.9,0,1.7,0.2,2.2,0.7c0.5,0.5,0.8,1.1,0.8,1.9c0,0.6-0.2,1.3-0.5,1.9c-0.4,0.6-1,1.4-2,2.4l-2.2,2.1v0.1h5.1V318.8z"/>
	</g>
</g>
<g>
	<g>
		<path d="M156.4,337.4h-1.1v-7.1c0-0.6,0-1.2,0.1-1.7c-0.1,0.1-0.2,0.2-0.3,0.3c-0.1,0.1-0.7,0.5-1.6,1.3l-0.6-0.8l2.6-2h1V337.4z"
			/>
		<path d="M164.4,337.4h-1.1v-7.1c0-0.6,0-1.2,0.1-1.7c-0.1,0.1-0.2,0.2-0.3,0.3c-0.1,0.1-0.7,0.5-1.6,1.3l-0.6-0.8l2.6-2h1V337.4z"
			/>
		<path d="M174.8,332.4c0,1.7-0.3,3-0.8,3.9c-0.5,0.9-1.4,1.3-2.5,1.3c-1.1,0-1.9-0.4-2.5-1.3c-0.6-0.9-0.8-2.2-0.8-3.8
			c0-1.7,0.3-3,0.8-3.9c0.5-0.8,1.4-1.3,2.5-1.3c1.1,0,1.9,0.4,2.5,1.3C174.5,329.5,174.8,330.8,174.8,332.4z M169.3,332.4
			c0,1.5,0.2,2.5,0.5,3.2s0.9,1,1.6,1c0.8,0,1.3-0.3,1.6-1c0.3-0.7,0.5-1.7,0.5-3.2s-0.2-2.5-0.5-3.2c-0.3-0.7-0.9-1-1.6-1
			c-0.7,0-1.3,0.3-1.6,1C169.5,329.9,169.3,331,169.3,332.4z"/>
		<path d="M180.4,337.4h-1.1v-7.1c0-0.6,0-1.2,0.1-1.7c-0.1,0.1-0.2,0.2-0.3,0.3c-0.1,0.1-0.7,0.5-1.6,1.3l-0.6-0.8l2.6-2h1V337.4z"
			/>
	</g>
	<g>
		<path d="M282.7,332.3c0,1.6-0.4,2.9-1.3,3.8c-0.9,0.9-2.2,1.3-3.9,1.3h-2.8v-10h3.1c1.6,0,2.8,0.4,3.6,1.3
			S282.7,330.8,282.7,332.3z M281.5,332.4c0-1.3-0.3-2.3-1-2.9c-0.7-0.7-1.6-1-2.9-1h-1.7v8h1.4c1.4,0,2.4-0.3,3.1-1
			C281.2,334.7,281.5,333.7,281.5,332.4z"/>
	</g>
	<g>
		<path d="M386.4,337.4h-1.1v-7.1c0-0.6,0-1.2,0.1-1.7c-0.1,0.1-0.2,0.2-0.3,0.3c-0.1,0.1-0.7,0.5-1.6,1.3l-0.6-0.8l2.6-2h1V337.4z"
			/>
		<path d="M396.4,329.8c0,0.6-0.2,1.2-0.5,1.6c-0.4,0.4-0.9,0.7-1.5,0.8v0.1c0.8,0.1,1.4,0.4,1.8,0.8c0.4,0.4,0.6,0.9,0.6,1.6
			c0,1-0.3,1.7-1,2.2c-0.7,0.5-1.6,0.8-2.8,0.8c-0.5,0-1,0-1.5-0.1c-0.4-0.1-0.9-0.2-1.3-0.4V336c0.4,0.2,0.9,0.4,1.4,0.5
			c0.5,0.1,1,0.2,1.4,0.2c1.7,0,2.6-0.7,2.6-2c0-1.2-1-1.8-2.9-1.8h-1v-1h1c0.8,0,1.4-0.2,1.9-0.5c0.5-0.3,0.7-0.8,0.7-1.4
			c0-0.5-0.2-0.9-0.5-1.1c-0.3-0.3-0.8-0.4-1.4-0.4c-0.4,0-0.9,0.1-1.2,0.2c-0.4,0.1-0.8,0.3-1.3,0.7l-0.6-0.8
			c0.4-0.3,0.9-0.6,1.4-0.8c0.5-0.2,1.1-0.3,1.7-0.3c1,0,1.7,0.2,2.3,0.7C396.1,328.4,396.4,329,396.4,329.8z"/>
	</g>
</g>
<g>
	<g>
		<path d="M156.4,356.1h-1.1V349c0-0.6,0-1.2,0.1-1.7c-0.1,0.1-0.2,0.2-0.3,0.3c-0.1,0.1-0.7,0.5-1.6,1.3l-0.6-0.8l2.6-2h1V356.1z"
			/>
		<path d="M164.4,356.1h-1.1V349c0-0.6,0-1.2,0.1-1.7c-0.1,0.1-0.2,0.2-0.3,0.3c-0.1,0.1-0.7,0.5-1.6,1.3l-0.6-0.8l2.6-2h1V356.1z"
			/>
		<path d="M172.4,356.1h-1.1V349c0-0.6,0-1.2,0.1-1.7c-0.1,0.1-0.2,0.2-0.3,0.3c-0.1,0.1-0.7,0.5-1.6,1.3l-0.6-0.8l2.6-2h1V356.1z"
			/>
		<path d="M182.8,351.1c0,1.7-0.3,3-0.8,3.9c-0.5,0.9-1.4,1.3-2.5,1.3c-1.1,0-1.9-0.4-2.5-1.3c-0.6-0.9-0.8-2.2-0.8-3.8
			c0-1.7,0.3-3,0.8-3.9c0.5-0.8,1.4-1.3,2.5-1.3c1.1,0,1.9,0.4,2.5,1.3C182.5,348.1,182.8,349.4,182.8,351.1z M177.4,351.1
			c0,1.5,0.2,2.5,0.5,3.2s0.9,1,1.6,1c0.8,0,1.3-0.3,1.6-1c0.3-0.7,0.5-1.7,0.5-3.2s-0.2-2.5-0.5-3.2c-0.3-0.7-0.9-1-1.6-1
			c-0.7,0-1.3,0.3-1.6,1C177.5,348.6,177.4,349.6,177.4,351.1z"/>
	</g>
	<g>
		<path d="M281.6,356.1H276v-10h5.6v1h-4.4v3.2h4.1v1h-4.1v3.7h4.4V356.1z"/>
	</g>
	<g>
		<path d="M386.4,356.1h-1.1V349c0-0.6,0-1.2,0.1-1.7c-0.1,0.1-0.2,0.2-0.3,0.3c-0.1,0.1-0.7,0.5-1.6,1.3l-0.6-0.8l2.6-2h1V356.1z"
			/>
		<path d="M397.2,353.8h-1.5v2.3h-1.1v-2.3h-4.9v-1l4.7-6.8h1.2v6.7h1.5V353.8z M394.7,352.7v-3.3c0-0.7,0-1.4,0.1-2.2h-0.1
			c-0.2,0.4-0.4,0.8-0.6,1.1l-3.1,4.4H394.7z"/>
	</g>
</g>
<g>
	<g>
		<path d="M156.4,374.7h-1.1v-7.1c0-0.6,0-1.2,0.1-1.7c-0.1,0.1-0.2,0.2-0.3,0.3c-0.1,0.1-0.7,0.5-1.6,1.3l-0.6-0.8l2.6-2h1V374.7z"
			/>
		<path d="M164.4,374.7h-1.1v-7.1c0-0.6,0-1.2,0.1-1.7c-0.1,0.1-0.2,0.2-0.3,0.3c-0.1,0.1-0.7,0.5-1.6,1.3l-0.6-0.8l2.6-2h1V374.7z"
			/>
		<path d="M172.4,374.7h-1.1v-7.1c0-0.6,0-1.2,0.1-1.7c-0.1,0.1-0.2,0.2-0.3,0.3c-0.1,0.1-0.7,0.5-1.6,1.3l-0.6-0.8l2.6-2h1V374.7z"
			/>
		<path d="M180.4,374.7h-1.1v-7.1c0-0.6,0-1.2,0.1-1.7c-0.1,0.1-0.2,0.2-0.3,0.3c-0.1,0.1-0.7,0.5-1.6,1.3l-0.6-0.8l2.6-2h1V374.7z"
			/>
	</g>
	<g>
		<path d="M277.4,374.7h-1.2v-10h5.6v1h-4.4v3.7h4.1v1h-4.1V374.7z"/>
	</g>
	<g>
		<path d="M386.4,374.7h-1.1v-7.1c0-0.6,0-1.2,0.1-1.7c-0.1,0.1-0.2,0.2-0.3,0.3c-0.1,0.1-0.7,0.5-1.6,1.3l-0.6-0.8l2.6-2h1V374.7z"
			/>
		<path d="M393.3,368.6c1.1,0,1.9,0.3,2.5,0.8c0.6,0.5,0.9,1.2,0.9,2.1c0,1-0.3,1.8-1,2.4c-0.7,0.6-1.6,0.9-2.7,0.9
			c-1.1,0-2-0.2-2.6-0.5v-1.1c0.3,0.2,0.7,0.4,1.2,0.5c0.5,0.1,0.9,0.2,1.4,0.2c0.8,0,1.4-0.2,1.9-0.6c0.4-0.4,0.7-0.9,0.7-1.6
			c0-1.4-0.9-2.1-2.6-2.1c-0.4,0-1,0.1-1.7,0.2l-0.6-0.4l0.4-4.7h5v1h-4l-0.3,3C392.3,368.7,392.8,368.6,393.3,368.6z"/>
	</g>
</g>
</svg>
