<?xml version="1.0" encoding="utf-8"?>
<!-- Generator: Adobe Illustrator 19.2.0, SVG Export Plug-In . SVG Version: 6.00 Build 0)  -->
<svg version="1.1" id="Layer_1" xmlns="http://www.w3.org/2000/svg" xmlns:xlink="http://www.w3.org/1999/xlink" x="0px" y="0px"
	 viewBox="0 0 800 412" style="enable-background:new 0 0 800 412;" xml:space="preserve">
<style type="text/css">
	.st0{fill:#FFFFFF;}
	.st1{fill:#F0F0F0;}
	.st2{fill:none;stroke:#000000;stroke-miterlimit:10;}
</style>
<g>
	<path d="M235.1,42.8h4.7c2.2,0,3.8,0.3,4.8,1s1.5,1.7,1.5,3.1c0,1-0.3,1.8-0.8,2.4s-1.4,1.1-2.4,1.2v0.1c2.5,0.4,3.8,1.8,3.8,4
		c0,1.5-0.5,2.6-1.5,3.5s-2.4,1.3-4.2,1.3h-5.8V42.8z M237,49.9h3.2c1.4,0,2.3-0.2,2.9-0.6c0.6-0.4,0.9-1.1,0.9-2.2
		c0-0.9-0.3-1.6-1-2c-0.7-0.4-1.7-0.6-3.2-0.6H237V49.9z M237,51.6v6.2h3.5c1.3,0,2.4-0.3,3-0.8s1-1.3,1-2.4c0-1-0.3-1.8-1-2.3
		c-0.7-0.5-1.7-0.7-3.2-0.7H237z"/>
	<path d="M249.7,43.6c0-0.4,0.1-0.7,0.3-0.9c0.2-0.2,0.5-0.3,0.8-0.3c0.3,0,0.6,0.1,0.8,0.3c0.2,0.2,0.3,0.5,0.3,0.9
		c0,0.4-0.1,0.7-0.3,0.9c-0.2,0.2-0.5,0.3-0.8,0.3c-0.3,0-0.6-0.1-0.8-0.3C249.8,44.4,249.7,44,249.7,43.6z M251.8,59.4h-1.9V47h1.9
		V59.4z"/>
	<path d="M264.3,59.4v-8.1c0-1-0.2-1.8-0.7-2.3s-1.2-0.8-2.2-0.8c-1.3,0-2.3,0.4-2.9,1.1s-0.9,1.9-0.9,3.5v6.5h-1.9V47h1.5l0.3,1.7
		h0.1c0.4-0.6,0.9-1.1,1.6-1.4c0.7-0.3,1.5-0.5,2.3-0.5c1.5,0,2.6,0.4,3.4,1.1c0.8,0.7,1.1,1.9,1.1,3.5v8.1H264.3z"/>
	<path d="M277.7,59.4l-0.4-1.8h-0.1c-0.6,0.8-1.2,1.3-1.9,1.6s-1.4,0.4-2.3,0.4c-1.2,0-2.2-0.3-2.9-1c-0.7-0.6-1.1-1.5-1.1-2.7
		c0-2.5,2-3.8,6-4l2.1-0.1v-0.8c0-1-0.2-1.7-0.6-2.2c-0.4-0.5-1.1-0.7-2-0.7c-1,0-2.2,0.3-3.5,1l-0.6-1.4c0.6-0.3,1.3-0.6,2-0.8
		s1.5-0.3,2.2-0.3c1.5,0,2.6,0.3,3.3,1c0.7,0.7,1.1,1.7,1.1,3.2v8.5H277.7z M273.4,58.1c1.2,0,2.1-0.3,2.8-1c0.7-0.6,1-1.5,1-2.7
		v-1.1l-1.9,0.1c-1.5,0.1-2.6,0.3-3.2,0.7s-1,1.1-1,1.9c0,0.7,0.2,1.2,0.6,1.6S272.7,58.1,273.4,58.1z"/>
	<path d="M288.7,46.8c0.6,0,1,0,1.5,0.1l-0.3,1.8c-0.5-0.1-1-0.2-1.4-0.2c-1,0-1.9,0.4-2.6,1.2c-0.7,0.8-1.1,1.8-1.1,3.1v6.7H283V47
		h1.6l0.2,2.3h0.1c0.5-0.8,1-1.4,1.7-1.9C287.2,47,287.9,46.8,288.7,46.8z"/>
	<path d="M290.5,47h2l2.7,7.1c0.6,1.6,1,2.8,1.1,3.5h0.1c0.1-0.4,0.3-1,0.6-2s1.3-3.8,3.1-8.6h2l-5.4,14.2c-0.5,1.4-1.1,2.4-1.9,3
		c-0.7,0.6-1.6,0.9-2.6,0.9c-0.6,0-1.1-0.1-1.7-0.2v-1.5c0.4,0.1,0.9,0.1,1.4,0.1c1.3,0,2.2-0.7,2.8-2.2l0.7-1.8L290.5,47z"/>
</g>
<g>
	<path d="M372.2,59.4h-1.9v-7.8h-8.8v7.8h-1.9V42.8h1.9v7.1h8.8v-7.1h1.9V59.4z"/>
	<path d="M381.7,59.7c-1.8,0-3.3-0.6-4.4-1.7c-1.1-1.1-1.6-2.7-1.6-4.7c0-2,0.5-3.6,1.5-4.8c1-1.2,2.3-1.8,4-1.8
		c1.6,0,2.8,0.5,3.7,1.5c0.9,1,1.4,2.4,1.4,4.1v1.2h-8.6c0,1.5,0.4,2.6,1.1,3.3c0.7,0.8,1.7,1.1,3,1.1c1.3,0,2.7-0.3,4-0.8v1.7
		c-0.7,0.3-1.3,0.5-1.9,0.6C383.3,59.6,382.6,59.7,381.7,59.7z M381.2,48.3c-1,0-1.8,0.3-2.4,1c-0.6,0.7-0.9,1.6-1.1,2.7h6.5
		c0-1.2-0.3-2.1-0.8-2.7C383,48.7,382.2,48.3,381.2,48.3z"/>
	<path d="M392.5,53.1l-4.3-6.1h2.1l3.3,4.8l3.3-4.8h2.1l-4.3,6.1l4.6,6.4h-2.1l-3.5-5l-3.5,5H388L392.5,53.1z"/>
</g>
<g>
	<path d="M461.3,51c0,2.7-0.7,4.8-2.2,6.3c-1.5,1.5-3.6,2.2-6.4,2.2H448V42.8h5.1c2.6,0,4.6,0.7,6,2.1
		C460.6,46.4,461.3,48.4,461.3,51z M459.3,51c0-2.2-0.5-3.8-1.6-4.9c-1.1-1.1-2.7-1.6-4.8-1.6H450v13.3h2.4c2.3,0,4-0.6,5.2-1.7
		S459.3,53.3,459.3,51z"/>
	<path d="M470,59.7c-1.8,0-3.3-0.6-4.4-1.7c-1.1-1.1-1.6-2.7-1.6-4.7c0-2,0.5-3.6,1.5-4.8c1-1.2,2.3-1.8,4-1.8
		c1.6,0,2.8,0.5,3.7,1.5c0.9,1,1.4,2.4,1.4,4.1v1.2H466c0,1.5,0.4,2.6,1.1,3.3c0.7,0.8,1.7,1.1,3,1.1c1.3,0,2.7-0.3,4-0.8v1.7
		c-0.7,0.3-1.3,0.5-1.9,0.6S470.8,59.7,470,59.7z M469.5,48.3c-1,0-1.8,0.3-2.4,1c-0.6,0.7-0.9,1.6-1.1,2.7h6.5
		c0-1.2-0.3-2.1-0.8-2.7C471.2,48.7,470.5,48.3,469.5,48.3z"/>
	<path d="M482.8,59.7c-1.8,0-3.2-0.6-4.2-1.7c-1-1.1-1.5-2.7-1.5-4.7c0-2.1,0.5-3.7,1.5-4.8s2.4-1.7,4.3-1.7c0.6,0,1.2,0.1,1.8,0.2
		c0.6,0.1,1.1,0.3,1.4,0.5l-0.6,1.6c-0.4-0.2-0.9-0.3-1.4-0.4s-0.9-0.2-1.3-0.2c-2.5,0-3.8,1.6-3.8,4.8c0,1.5,0.3,2.7,0.9,3.5
		s1.5,1.2,2.7,1.2c1,0,2.1-0.2,3.2-0.7V59C485.1,59.5,484,59.7,482.8,59.7z"/>
	<path d="M488.7,43.6c0-0.4,0.1-0.7,0.3-0.9s0.5-0.3,0.8-0.3c0.3,0,0.6,0.1,0.8,0.3c0.2,0.2,0.3,0.5,0.3,0.9c0,0.4-0.1,0.7-0.3,0.9
		c-0.2,0.2-0.5,0.3-0.8,0.3c-0.3,0-0.6-0.1-0.8-0.3S488.7,44,488.7,43.6z M490.8,59.4h-1.9V47h1.9V59.4z"/>
	<path d="M510.6,59.4v-8.1c0-1-0.2-1.7-0.6-2.2c-0.4-0.5-1.1-0.7-2-0.7c-1.2,0-2,0.3-2.6,1c-0.6,0.7-0.8,1.7-0.8,3.1v7h-1.9v-8.1
		c0-1-0.2-1.7-0.6-2.2c-0.4-0.5-1.1-0.7-2-0.7c-1.2,0-2,0.4-2.6,1.1c-0.5,0.7-0.8,1.9-0.8,3.5v6.5h-1.9V47h1.5l0.3,1.7h0.1
		c0.4-0.6,0.9-1.1,1.5-1.4s1.4-0.5,2.2-0.5c1.9,0,3.2,0.7,3.8,2.1h0.1c0.4-0.7,0.9-1.2,1.6-1.5c0.7-0.4,1.5-0.6,2.4-0.6
		c1.4,0,2.5,0.4,3.2,1.1c0.7,0.7,1.1,1.9,1.1,3.5v8.1H510.6z"/>
	<path d="M524.1,59.4l-0.4-1.8h-0.1c-0.6,0.8-1.2,1.3-1.9,1.6c-0.6,0.3-1.4,0.4-2.3,0.4c-1.2,0-2.2-0.3-2.9-1
		c-0.7-0.6-1.1-1.5-1.1-2.7c0-2.5,2-3.8,6-4l2.1-0.1v-0.8c0-1-0.2-1.7-0.6-2.2c-0.4-0.5-1.1-0.7-2-0.7c-1,0-2.2,0.3-3.5,1l-0.6-1.4
		c0.6-0.3,1.3-0.6,2-0.8c0.7-0.2,1.5-0.3,2.2-0.3c1.5,0,2.6,0.3,3.3,1c0.7,0.7,1.1,1.7,1.1,3.2v8.5H524.1z M519.8,58.1
		c1.2,0,2.1-0.3,2.8-1c0.7-0.6,1-1.5,1-2.7v-1.1l-1.9,0.1c-1.5,0.1-2.6,0.3-3.2,0.7s-1,1.1-1,1.9c0,0.7,0.2,1.2,0.6,1.6
		S519.1,58.1,519.8,58.1z"/>
	<path d="M531.2,59.4h-1.9V41.8h1.9V59.4z"/>
</g>
<g>
	<rect x="211.5" y="74.5" class="st0" width="334" height="309.2"/>
	<path d="M545,75v308.2H212V75H545 M546,74h-1H212h-1v1v308.2v1h1h333h1v-1V75V74L546,74z"/>
</g>
<rect x="212" y="99.7" class="st1" width="333" height="18.6"/>
<rect x="212" y="118.3" class="st0" width="333" height="18.6"/>
<rect x="212" y="136.9" class="st1" width="333" height="18.6"/>
<rect x="212" y="155.5" class="st0" width="333" height="18.6"/>
<rect x="212" y="174.1" class="st1" width="333" height="18.6"/>
<rect x="212" y="192.7" class="st0" width="333" height="18.6"/>
<rect x="212" y="211.3" class="st1" width="333" height="18.6"/>
<rect x="212" y="229.9" class="st0" width="333" height="18.6"/>
<rect x="212" y="248.5" class="st1" width="333" height="18.6"/>
<rect x="212" y="267.1" class="st0" width="333" height="18.6"/>
<rect x="212" y="285.8" class="st1" width="333" height="18.6"/>
<rect x="212" y="304.4" class="st0" width="333" height="18.6"/>
<rect x="212" y="323" class="st1" width="333" height="18.6"/>
<rect x="212" y="341.6" class="st0" width="333" height="18.6"/>
<rect x="212" y="360.2" class="st1" width="333" height="23"/>
<line class="st2" x1="323" y1="33" x2="323" y2="383.2"/>
<line class="st2" x1="434" y1="33" x2="434" y2="383.2"/>
<g>
	<g>
		<path d="M258.8,90.2c0,1.7-0.3,3-0.8,3.9s-1.4,1.3-2.5,1.3c-1.1,0-1.9-0.4-2.5-1.3s-0.8-2.2-0.8-3.8c0-1.7,0.3-3,0.8-3.9
			s1.4-1.3,2.5-1.3c1.1,0,1.9,0.4,2.5,1.3S258.8,88.5,258.8,90.2z M253.3,90.2c0,1.5,0.2,2.5,0.5,3.2s0.9,1,1.6,1
			c0.8,0,1.3-0.3,1.6-1s0.5-1.7,0.5-3.2s-0.2-2.5-0.5-3.2s-0.9-1-1.6-1c-0.7,0-1.3,0.3-1.6,1S253.3,88.7,253.3,90.2z"/>
		<path d="M266.8,90.2c0,1.7-0.3,3-0.8,3.9s-1.4,1.3-2.5,1.3c-1.1,0-1.9-0.4-2.5-1.3s-0.8-2.2-0.8-3.8c0-1.7,0.3-3,0.8-3.9
			s1.4-1.3,2.5-1.3c1.1,0,1.9,0.4,2.5,1.3S266.8,88.5,266.8,90.2z M261.3,90.2c0,1.5,0.2,2.5,0.5,3.2s0.9,1,1.6,1
			c0.8,0,1.3-0.3,1.6-1s0.5-1.7,0.5-3.2s-0.2-2.5-0.5-3.2s-0.9-1-1.6-1c-0.7,0-1.3,0.3-1.6,1S261.3,88.7,261.3,90.2z"/>
		<path d="M274.8,90.2c0,1.7-0.3,3-0.8,3.9s-1.4,1.3-2.5,1.3c-1.1,0-1.9-0.4-2.5-1.3s-0.8-2.2-0.8-3.8c0-1.7,0.3-3,0.8-3.9
			s1.4-1.3,2.5-1.3c1.1,0,1.9,0.4,2.5,1.3S274.8,88.5,274.8,90.2z M269.3,90.2c0,1.5,0.2,2.5,0.5,3.2s0.9,1,1.6,1
			c0.8,0,1.3-0.3,1.6-1s0.5-1.7,0.5-3.2s-0.2-2.5-0.5-3.2s-0.9-1-1.6-1c-0.7,0-1.3,0.3-1.6,1S269.3,88.7,269.3,90.2z"/>
		<path d="M282.8,90.2c0,1.7-0.3,3-0.8,3.9s-1.4,1.3-2.5,1.3c-1.1,0-1.9-0.4-2.5-1.3s-0.8-2.2-0.8-3.8c0-1.7,0.3-3,0.8-3.9
			s1.4-1.3,2.5-1.3c1.1,0,1.9,0.4,2.5,1.3S282.8,88.5,282.8,90.2z M277.4,90.2c0,1.5,0.2,2.5,0.5,3.2s0.9,1,1.6,1
			c0.8,0,1.3-0.3,1.6-1s0.5-1.7,0.5-3.2s-0.2-2.5-0.5-3.2s-0.9-1-1.6-1c-0.7,0-1.3,0.3-1.6,1S277.4,88.7,277.4,90.2z"/>
	</g>
	<g>
		<path d="M381.8,90.2c0,1.7-0.3,3-0.8,3.9s-1.4,1.3-2.5,1.3c-1.1,0-1.9-0.4-2.5-1.3s-0.8-2.2-0.8-3.8c0-1.7,0.3-3,0.8-3.9
			s1.4-1.3,2.5-1.3c1.1,0,1.9,0.4,2.5,1.3S381.8,88.5,381.8,90.2z M376.3,90.2c0,1.5,0.2,2.5,0.5,3.2s0.9,1,1.6,1
			c0.8,0,1.3-0.3,1.6-1s0.5-1.7,0.5-3.2s-0.2-2.5-0.5-3.2s-0.9-1-1.6-1c-0.7,0-1.3,0.3-1.6,1S376.3,88.7,376.3,90.2z"/>
	</g>
	<g>
		<path d="M492.8,90.2c0,1.7-0.3,3-0.8,3.9c-0.5,0.9-1.4,1.3-2.5,1.3c-1.1,0-1.9-0.4-2.5-1.3s-0.8-2.2-0.8-3.8c0-1.7,0.3-3,0.8-3.9
			c0.5-0.8,1.4-1.3,2.5-1.3c1.1,0,1.9,0.4,2.5,1.3C492.5,87.3,492.8,88.5,492.8,90.2z M487.3,90.2c0,1.5,0.2,2.5,0.5,3.2
			s0.9,1,1.6,1c0.8,0,1.3-0.3,1.6-1c0.3-0.7,0.5-1.7,0.5-3.2s-0.2-2.5-0.5-3.2c-0.3-0.7-0.9-1-1.6-1c-0.7,0-1.3,0.3-1.6,1
			S487.3,88.7,487.3,90.2z"/>
	</g>
</g>
<g>
	<g>
		<path d="M258.8,108.8c0,1.7-0.3,3-0.8,3.9s-1.4,1.3-2.5,1.3c-1.1,0-1.9-0.4-2.5-1.3s-0.8-2.2-0.8-3.8c0-1.7,0.3-3,0.8-3.9
			s1.4-1.3,2.5-1.3c1.1,0,1.9,0.4,2.5,1.3S258.8,107.2,258.8,108.8z M253.3,108.8c0,1.5,0.2,2.5,0.5,3.2s0.9,1,1.6,1
			c0.8,0,1.3-0.3,1.6-1s0.5-1.7,0.5-3.2s-0.2-2.5-0.5-3.2s-0.9-1-1.6-1c-0.7,0-1.3,0.3-1.6,1S253.3,107.4,253.3,108.8z"/>
		<path d="M266.8,108.8c0,1.7-0.3,3-0.8,3.9s-1.4,1.3-2.5,1.3c-1.1,0-1.9-0.4-2.5-1.3s-0.8-2.2-0.8-3.8c0-1.7,0.3-3,0.8-3.9
			s1.4-1.3,2.5-1.3c1.1,0,1.9,0.4,2.5,1.3S266.8,107.2,266.8,108.8z M261.3,108.8c0,1.5,0.2,2.5,0.5,3.2s0.9,1,1.6,1
			c0.8,0,1.3-0.3,1.6-1s0.5-1.7,0.5-3.2s-0.2-2.5-0.5-3.2s-0.9-1-1.6-1c-0.7,0-1.3,0.3-1.6,1S261.3,107.4,261.3,108.8z"/>
		<path d="M274.8,108.8c0,1.7-0.3,3-0.8,3.9s-1.4,1.3-2.5,1.3c-1.1,0-1.9-0.4-2.5-1.3s-0.8-2.2-0.8-3.8c0-1.7,0.3-3,0.8-3.9
			s1.4-1.3,2.5-1.3c1.1,0,1.9,0.4,2.5,1.3S274.8,107.2,274.8,108.8z M269.3,108.8c0,1.5,0.2,2.5,0.5,3.2s0.9,1,1.6,1
			c0.8,0,1.3-0.3,1.6-1s0.5-1.7,0.5-3.2s-0.2-2.5-0.5-3.2s-0.9-1-1.6-1c-0.7,0-1.3,0.3-1.6,1S269.3,107.4,269.3,108.8z"/>
		<path d="M280.4,113.8h-1.1v-7.1c0-0.6,0-1.2,0.1-1.7c-0.1,0.1-0.2,0.2-0.3,0.3s-0.7,0.5-1.6,1.3l-0.6-0.8l2.6-2h1V113.8z"/>
	</g>
	<g>
		<path d="M379.4,113.8h-1.1v-7.1c0-0.6,0-1.2,0.1-1.7c-0.1,0.1-0.2,0.2-0.3,0.3s-0.7,0.5-1.6,1.3l-0.6-0.8l2.6-2h1V113.8z"/>
	</g>
	<g>
		<path d="M490.4,113.8h-1.1v-7.1c0-0.6,0-1.2,0.1-1.7c-0.1,0.1-0.2,0.2-0.3,0.3c-0.1,0.1-0.7,0.5-1.6,1.3l-0.6-0.8l2.6-2h1V113.8z"
			/>
	</g>
</g>
<g>
	<g>
		<path d="M258.8,127.5c0,1.7-0.3,3-0.8,3.9s-1.4,1.3-2.5,1.3c-1.1,0-1.9-0.4-2.5-1.3s-0.8-2.2-0.8-3.8c0-1.7,0.3-3,0.8-3.9
			s1.4-1.3,2.5-1.3c1.1,0,1.9,0.4,2.5,1.3S258.8,125.8,258.8,127.5z M253.3,127.5c0,1.5,0.2,2.5,0.5,3.2s0.9,1,1.6,1
			c0.8,0,1.3-0.3,1.6-1s0.5-1.7,0.5-3.2s-0.2-2.5-0.5-3.2s-0.9-1-1.6-1c-0.7,0-1.3,0.3-1.6,1S253.3,126,253.3,127.5z"/>
		<path d="M266.8,127.5c0,1.7-0.3,3-0.8,3.9s-1.4,1.3-2.5,1.3c-1.1,0-1.9-0.4-2.5-1.3s-0.8-2.2-0.8-3.8c0-1.7,0.3-3,0.8-3.9
			s1.4-1.3,2.5-1.3c1.1,0,1.9,0.4,2.5,1.3S266.8,125.8,266.8,127.5z M261.3,127.5c0,1.5,0.2,2.5,0.5,3.2s0.9,1,1.6,1
			c0.8,0,1.3-0.3,1.6-1s0.5-1.7,0.5-3.2s-0.2-2.5-0.5-3.2s-0.9-1-1.6-1c-0.7,0-1.3,0.3-1.6,1S261.3,126,261.3,127.5z"/>
		<path d="M272.4,132.5h-1.1v-7.1c0-0.6,0-1.2,0.1-1.7c-0.1,0.1-0.2,0.2-0.3,0.3s-0.7,0.5-1.6,1.3l-0.6-0.8l2.6-2h1V132.5z"/>
		<path d="M282.8,127.5c0,1.7-0.3,3-0.8,3.9s-1.4,1.3-2.5,1.3c-1.1,0-1.9-0.4-2.5-1.3s-0.8-2.2-0.8-3.8c0-1.7,0.3-3,0.8-3.9
			s1.4-1.3,2.5-1.3c1.1,0,1.9,0.4,2.5,1.3S282.8,125.8,282.8,127.5z M277.4,127.5c0,1.5,0.2,2.5,0.5,3.2s0.9,1,1.6,1
			c0.8,0,1.3-0.3,1.6-1s0.5-1.7,0.5-3.2s-0.2-2.5-0.5-3.2s-0.9-1-1.6-1c-0.7,0-1.3,0.3-1.6,1S277.4,126,277.4,127.5z"/>
	</g>
	<g>
		<path d="M381.8,132.5h-6.6v-1l2.6-2.6c0.8-0.8,1.3-1.4,1.6-1.7s0.4-0.7,0.6-1s0.2-0.7,0.2-1.1c0-0.5-0.2-1-0.5-1.3
			s-0.8-0.5-1.3-0.5c-0.4,0-0.8,0.1-1.2,0.2s-0.8,0.4-1.2,0.7l-0.6-0.8c0.9-0.8,1.9-1.1,3-1.1c0.9,0,1.7,0.2,2.2,0.7
			s0.8,1.1,0.8,1.9c0,0.6-0.2,1.3-0.5,1.9s-1,1.4-2,2.4l-2.2,2.1v0.1h5.1V132.5z"/>
	</g>
	<g>
		<path d="M492.8,132.5h-6.6v-1l2.6-2.6c0.8-0.8,1.3-1.4,1.6-1.7c0.3-0.3,0.4-0.7,0.6-1c0.1-0.3,0.2-0.7,0.2-1.1
			c0-0.5-0.2-1-0.5-1.3c-0.3-0.3-0.8-0.5-1.3-0.5c-0.4,0-0.8,0.1-1.2,0.2c-0.4,0.1-0.8,0.4-1.2,0.7l-0.6-0.8c0.9-0.8,1.9-1.1,3-1.1
			c0.9,0,1.7,0.2,2.2,0.7s0.8,1.1,0.8,1.9c0,0.6-0.2,1.3-0.5,1.9s-1,1.4-2,2.4l-2.2,2.1v0.1h5.1V132.5z"/>
	</g>
</g>
<g>
	<g>
		<path d="M258.8,146.1c0,1.7-0.3,3-0.8,3.9s-1.4,1.3-2.5,1.3c-1.1,0-1.9-0.4-2.5-1.3s-0.8-2.2-0.8-3.8c0-1.7,0.3-3,0.8-3.9
			s1.4-1.3,2.5-1.3c1.1,0,1.9,0.4,2.5,1.3S258.8,144.4,258.8,146.1z M253.3,146.1c0,1.5,0.2,2.5,0.5,3.2s0.9,1,1.6,1
			c0.8,0,1.3-0.3,1.6-1s0.5-1.7,0.5-3.2s-0.2-2.5-0.5-3.2s-0.9-1-1.6-1c-0.7,0-1.3,0.3-1.6,1S253.3,144.6,253.3,146.1z"/>
		<path d="M266.8,146.1c0,1.7-0.3,3-0.8,3.9s-1.4,1.3-2.5,1.3c-1.1,0-1.9-0.4-2.5-1.3s-0.8-2.2-0.8-3.8c0-1.7,0.3-3,0.8-3.9
			s1.4-1.3,2.5-1.3c1.1,0,1.9,0.4,2.5,1.3S266.8,144.4,266.8,146.1z M261.3,146.1c0,1.5,0.2,2.5,0.5,3.2s0.9,1,1.6,1
			c0.8,0,1.3-0.3,1.6-1s0.5-1.7,0.5-3.2s-0.2-2.5-0.5-3.2s-0.9-1-1.6-1c-0.7,0-1.3,0.3-1.6,1S261.3,144.6,261.3,146.1z"/>
		<path d="M272.4,151.1h-1.1V144c0-0.6,0-1.2,0.1-1.7c-0.1,0.1-0.2,0.2-0.3,0.3s-0.7,0.5-1.6,1.3l-0.6-0.8l2.6-2h1V151.1z"/>
		<path d="M280.4,151.1h-1.1V144c0-0.6,0-1.2,0.1-1.7c-0.1,0.1-0.2,0.2-0.3,0.3s-0.7,0.5-1.6,1.3l-0.6-0.8l2.6-2h1V151.1z"/>
	</g>
	<g>
		<path d="M381.4,143.5c0,0.6-0.2,1.2-0.5,1.6s-0.9,0.7-1.5,0.8v0.1c0.8,0.1,1.4,0.4,1.8,0.8s0.6,0.9,0.6,1.6c0,1-0.3,1.7-1,2.2
			s-1.6,0.8-2.8,0.8c-0.5,0-1,0-1.5-0.1s-0.9-0.2-1.3-0.4v-1.1c0.4,0.2,0.9,0.4,1.4,0.5s1,0.2,1.4,0.2c1.7,0,2.6-0.7,2.6-2
			c0-1.2-1-1.8-2.9-1.8h-1v-1h1c0.8,0,1.4-0.2,1.9-0.5s0.7-0.8,0.7-1.4c0-0.5-0.2-0.9-0.5-1.1s-0.8-0.4-1.4-0.4
			c-0.4,0-0.9,0.1-1.2,0.2s-0.8,0.3-1.3,0.7l-0.6-0.8c0.4-0.3,0.9-0.6,1.4-0.8s1.1-0.3,1.7-0.3c1,0,1.7,0.2,2.3,0.7
			S381.4,142.7,381.4,143.5z"/>
	</g>
	<g>
		<path d="M492.4,143.5c0,0.6-0.2,1.2-0.5,1.6c-0.4,0.4-0.9,0.7-1.5,0.8v0.1c0.8,0.1,1.4,0.4,1.8,0.8c0.4,0.4,0.6,0.9,0.6,1.6
			c0,1-0.3,1.7-1,2.2c-0.7,0.5-1.6,0.8-2.8,0.8c-0.5,0-1,0-1.5-0.1c-0.4-0.1-0.9-0.2-1.3-0.4v-1.1c0.4,0.2,0.9,0.4,1.4,0.5
			c0.5,0.1,1,0.2,1.4,0.2c1.7,0,2.6-0.7,2.6-2c0-1.2-1-1.8-2.9-1.8h-1v-1h1c0.8,0,1.4-0.2,1.9-0.5c0.5-0.3,0.7-0.8,0.7-1.4
			c0-0.5-0.2-0.9-0.5-1.1s-0.8-0.4-1.4-0.4c-0.4,0-0.8,0.1-1.2,0.2c-0.4,0.1-0.8,0.3-1.3,0.7l-0.6-0.8c0.4-0.3,0.9-0.6,1.4-0.8
			c0.5-0.2,1.1-0.3,1.7-0.3c1,0,1.7,0.2,2.3,0.7C492.1,142.1,492.4,142.7,492.4,143.5z"/>
	</g>
</g>
<g>
	<g>
		<path d="M258.8,164.7c0,1.7-0.3,3-0.8,3.9s-1.4,1.3-2.5,1.3c-1.1,0-1.9-0.4-2.5-1.3s-0.8-2.2-0.8-3.8c0-1.7,0.3-3,0.8-3.9
			s1.4-1.3,2.5-1.3c1.1,0,1.9,0.4,2.5,1.3S258.8,163.1,258.8,164.7z M253.3,164.7c0,1.5,0.2,2.5,0.5,3.2s0.9,1,1.6,1
			c0.8,0,1.3-0.3,1.6-1s0.5-1.7,0.5-3.2s-0.2-2.5-0.5-3.2s-0.9-1-1.6-1c-0.7,0-1.3,0.3-1.6,1S253.3,163.3,253.3,164.7z"/>
		<path d="M264.4,169.7h-1.1v-7.1c0-0.6,0-1.2,0.1-1.7c-0.1,0.1-0.2,0.2-0.3,0.3s-0.7,0.5-1.6,1.3l-0.6-0.8l2.6-2h1V169.7z"/>
		<path d="M274.8,164.7c0,1.7-0.3,3-0.8,3.9s-1.4,1.3-2.5,1.3c-1.1,0-1.9-0.4-2.5-1.3s-0.8-2.2-0.8-3.8c0-1.7,0.3-3,0.8-3.9
			s1.4-1.3,2.5-1.3c1.1,0,1.9,0.4,2.5,1.3S274.8,163.1,274.8,164.7z M269.3,164.7c0,1.5,0.2,2.5,0.5,3.2s0.9,1,1.6,1
			c0.8,0,1.3-0.3,1.6-1s0.5-1.7,0.5-3.2s-0.2-2.5-0.5-3.2s-0.9-1-1.6-1c-0.7,0-1.3,0.3-1.6,1S269.3,163.3,269.3,164.7z"/>
		<path d="M282.8,164.7c0,1.7-0.3,3-0.8,3.9s-1.4,1.3-2.5,1.3c-1.1,0-1.9-0.4-2.5-1.3s-0.8-2.2-0.8-3.8c0-1.7,0.3-3,0.8-3.9
			s1.4-1.3,2.5-1.3c1.1,0,1.9,0.4,2.5,1.3S282.8,163.1,282.8,164.7z M277.4,164.7c0,1.5,0.2,2.5,0.5,3.2s0.9,1,1.6,1
			c0.8,0,1.3-0.3,1.6-1s0.5-1.7,0.5-3.2s-0.2-2.5-0.5-3.2s-0.9-1-1.6-1c-0.7,0-1.3,0.3-1.6,1S277.4,163.3,277.4,164.7z"/>
	</g>
	<g>
		<path d="M382.2,167.4h-1.5v2.3h-1.1v-2.3h-4.9v-1l4.7-6.8h1.2v6.7h1.5V167.4z M379.7,166.4v-3.3c0-0.7,0-1.4,0.1-2.2h-0.1
			c-0.2,0.4-0.4,0.8-0.6,1.1l-3.1,4.4H379.7z"/>
	</g>
	<g>
		<path d="M493.2,167.4h-1.5v2.3h-1.1v-2.3h-4.9v-1l4.7-6.8h1.2v6.7h1.5V167.4z M490.7,166.4v-3.3c0-0.7,0-1.4,0.1-2.2h-0.1
			c-0.2,0.4-0.4,0.8-0.6,1.1l-3.1,4.4H490.7z"/>
	</g>
</g>
<g>
	<g>
		<path d="M258.8,183.4c0,1.7-0.3,3-0.8,3.9s-1.4,1.3-2.5,1.3c-1.1,0-1.9-0.4-2.5-1.3s-0.8-2.2-0.8-3.8c0-1.7,0.3-3,0.8-3.9
			s1.4-1.3,2.5-1.3c1.1,0,1.9,0.4,2.5,1.3S258.8,181.7,258.8,183.4z M253.3,183.4c0,1.5,0.2,2.5,0.5,3.2s0.9,1,1.6,1
			c0.8,0,1.3-0.3,1.6-1s0.5-1.7,0.5-3.2s-0.2-2.5-0.5-3.2s-0.9-1-1.6-1c-0.7,0-1.3,0.3-1.6,1S253.3,181.9,253.3,183.4z"/>
		<path d="M264.4,188.4h-1.1v-7.1c0-0.6,0-1.2,0.1-1.7c-0.1,0.1-0.2,0.2-0.3,0.3s-0.7,0.5-1.6,1.3l-0.6-0.8l2.6-2h1V188.4z"/>
		<path d="M274.8,183.4c0,1.7-0.3,3-0.8,3.9s-1.4,1.3-2.5,1.3c-1.1,0-1.9-0.4-2.5-1.3s-0.8-2.2-0.8-3.8c0-1.7,0.3-3,0.8-3.9
			s1.4-1.3,2.5-1.3c1.1,0,1.9,0.4,2.5,1.3S274.8,181.7,274.8,183.4z M269.3,183.4c0,1.5,0.2,2.5,0.5,3.2s0.9,1,1.6,1
			c0.8,0,1.3-0.3,1.6-1s0.5-1.7,0.5-3.2s-0.2-2.5-0.5-3.2s-0.9-1-1.6-1c-0.7,0-1.3,0.3-1.6,1S269.3,181.9,269.3,183.4z"/>
		<path d="M280.4,188.4h-1.1v-7.1c0-0.6,0-1.2,0.1-1.7c-0.1,0.1-0.2,0.2-0.3,0.3s-0.7,0.5-1.6,1.3l-0.6-0.8l2.6-2h1V188.4z"/>
	</g>
	<g>
		<path d="M378.3,182.3c1.1,0,1.9,0.3,2.5,0.8s0.9,1.2,0.9,2.1c0,1-0.3,1.8-1,2.4s-1.6,0.9-2.7,0.9c-1.1,0-2-0.2-2.6-0.5v-1.1
			c0.3,0.2,0.7,0.4,1.2,0.5s0.9,0.2,1.4,0.2c0.8,0,1.4-0.2,1.9-0.6s0.7-0.9,0.7-1.6c0-1.4-0.9-2.1-2.6-2.1c-0.4,0-1,0.1-1.7,0.2
			l-0.6-0.4l0.4-4.7h5v1h-4l-0.3,3C377.3,182.3,377.8,182.3,378.3,182.3z"/>
	</g>
	<g>
		<path d="M489.3,182.3c1.1,0,1.9,0.3,2.5,0.8c0.6,0.5,0.9,1.2,0.9,2.1c0,1-0.3,1.8-1,2.4c-0.7,0.6-1.6,0.9-2.7,0.9
			c-1.1,0-2-0.2-2.6-0.5v-1.1c0.3,0.2,0.7,0.4,1.2,0.5c0.5,0.1,0.9,0.2,1.4,0.2c0.8,0,1.4-0.2,1.9-0.6s0.7-0.9,0.7-1.6
			c0-1.4-0.9-2.1-2.6-2.1c-0.4,0-1,0.1-1.7,0.2l-0.6-0.4l0.4-4.7h5v1h-4l-0.3,3C488.3,182.3,488.8,182.3,489.3,182.3z"/>
	</g>
</g>
<g>
	<g>
		<path d="M258.8,202c0,1.7-0.3,3-0.8,3.9s-1.4,1.3-2.5,1.3c-1.1,0-1.9-0.4-2.5-1.3s-0.8-2.2-0.8-3.8c0-1.7,0.3-3,0.8-3.9
			s1.4-1.3,2.5-1.3c1.1,0,1.9,0.4,2.5,1.3S258.8,200.3,258.8,202z M253.3,202c0,1.5,0.2,2.5,0.5,3.2s0.9,1,1.6,1
			c0.8,0,1.3-0.3,1.6-1s0.5-1.7,0.5-3.2s-0.2-2.5-0.5-3.2s-0.9-1-1.6-1c-0.7,0-1.3,0.3-1.6,1S253.3,200.5,253.3,202z"/>
		<path d="M264.4,207h-1.1v-7.1c0-0.6,0-1.2,0.1-1.7c-0.1,0.1-0.2,0.2-0.3,0.3s-0.7,0.5-1.6,1.3l-0.6-0.8l2.6-2h1V207z"/>
		<path d="M272.4,207h-1.1v-7.1c0-0.6,0-1.2,0.1-1.7c-0.1,0.1-0.2,0.2-0.3,0.3s-0.7,0.5-1.6,1.3l-0.6-0.8l2.6-2h1V207z"/>
		<path d="M282.8,202c0,1.7-0.3,3-0.8,3.9s-1.4,1.3-2.5,1.3c-1.1,0-1.9-0.4-2.5-1.3s-0.8-2.2-0.8-3.8c0-1.7,0.3-3,0.8-3.9
			s1.4-1.3,2.5-1.3c1.1,0,1.9,0.4,2.5,1.3S282.8,200.3,282.8,202z M277.4,202c0,1.5,0.2,2.5,0.5,3.2s0.9,1,1.6,1
			c0.8,0,1.3-0.3,1.6-1s0.5-1.7,0.5-3.2s-0.2-2.5-0.5-3.2s-0.9-1-1.6-1c-0.7,0-1.3,0.3-1.6,1S277.4,200.5,277.4,202z"/>
	</g>
	<g>
		<path d="M375.3,202.7c0-2,0.4-3.4,1.1-4.4s1.9-1.5,3.4-1.5c0.5,0,0.9,0,1.2,0.1v1c-0.4-0.1-0.8-0.2-1.2-0.2c-1.1,0-1.9,0.3-2.5,1
			s-0.9,1.7-0.9,3.1h0.1c0.5-0.8,1.3-1.2,2.4-1.2c0.9,0,1.6,0.3,2.1,0.8s0.8,1.3,0.8,2.2c0,1-0.3,1.9-0.9,2.5s-1.3,0.9-2.3,0.9
			c-1,0-1.9-0.4-2.5-1.2S375.3,204.1,375.3,202.7z M378.7,206.2c0.6,0,1.1-0.2,1.5-0.6s0.5-1,0.5-1.8c0-0.7-0.2-1.2-0.5-1.6
			s-0.8-0.6-1.5-0.6c-0.4,0-0.8,0.1-1.1,0.3s-0.6,0.4-0.8,0.7s-0.3,0.6-0.3,0.9c0,0.5,0.1,0.9,0.3,1.3s0.4,0.7,0.8,1
			S378.2,206.2,378.7,206.2z"/>
	</g>
	<g>
		<path d="M486.3,202.7c0-2,0.4-3.4,1.1-4.4c0.8-1,1.9-1.5,3.4-1.5c0.5,0,0.9,0,1.2,0.1v1c-0.4-0.1-0.8-0.2-1.2-0.2
			c-1.1,0-1.9,0.3-2.5,1c-0.6,0.7-0.9,1.7-0.9,3.1h0.1c0.5-0.8,1.3-1.2,2.4-1.2c0.9,0,1.6,0.3,2.1,0.8c0.5,0.5,0.8,1.3,0.8,2.2
			c0,1-0.3,1.9-0.9,2.5s-1.3,0.9-2.3,0.9c-1,0-1.9-0.4-2.5-1.2C486.6,205.2,486.3,204.1,486.3,202.7z M489.7,206.2
			c0.6,0,1.1-0.2,1.5-0.6c0.4-0.4,0.5-1,0.5-1.8c0-0.7-0.2-1.2-0.5-1.6c-0.3-0.4-0.8-0.6-1.5-0.6c-0.4,0-0.8,0.1-1.1,0.3
			s-0.6,0.4-0.8,0.7c-0.2,0.3-0.3,0.6-0.3,0.9c0,0.5,0.1,0.9,0.3,1.3c0.2,0.4,0.4,0.7,0.8,1S489.2,206.2,489.7,206.2z"/>
	</g>
</g>
<g>
	<g>
		<path d="M258.8,220.6c0,1.7-0.3,3-0.8,3.9c-0.5,0.9-1.4,1.3-2.5,1.3c-1.1,0-1.9-0.4-2.5-1.3c-0.6-0.9-0.8-2.2-0.8-3.8
			c0-1.7,0.3-3,0.8-3.9c0.5-0.8,1.4-1.3,2.5-1.3c1.1,0,1.9,0.4,2.5,1.3C258.5,217.7,258.8,219,258.8,220.6z M253.3,220.6
			c0,1.5,0.2,2.5,0.5,3.2s0.9,1,1.6,1c0.8,0,1.3-0.3,1.6-1c0.3-0.7,0.5-1.7,0.5-3.2s-0.2-2.5-0.5-3.2c-0.3-0.7-0.9-1-1.6-1
			c-0.7,0-1.3,0.3-1.6,1C253.5,218.1,253.3,219.2,253.3,220.6z"/>
		<path d="M264.4,225.6h-1.1v-7.1c0-0.6,0-1.2,0.1-1.7c-0.1,0.1-0.2,0.2-0.3,0.3c-0.1,0.1-0.7,0.5-1.6,1.3l-0.6-0.8l2.6-2h1V225.6z"
			/>
		<path d="M272.4,225.6h-1.1v-7.1c0-0.6,0-1.2,0.1-1.7c-0.1,0.1-0.2,0.2-0.3,0.3c-0.1,0.1-0.7,0.5-1.6,1.3l-0.6-0.8l2.6-2h1V225.6z"
			/>
		<path d="M280.4,225.6h-1.1v-7.1c0-0.6,0-1.2,0.1-1.7c-0.1,0.1-0.2,0.2-0.3,0.3c-0.1,0.1-0.7,0.5-1.6,1.3l-0.6-0.8l2.6-2h1V225.6z"
			/>
	</g>
	<g>
		<path d="M376.4,225.6l4.1-8.9h-5.4v-1h6.7v0.9l-4.1,9.1H376.4z"/>
	</g>
	<g>
		<path d="M487.4,225.6l4.1-8.9h-5.4v-1h6.7v0.9l-4.1,9.1H487.4z"/>
	</g>
</g>
<g>
	<g>
		<path d="M256.4,244.3h-1.1v-7.1c0-0.6,0-1.2,0.1-1.7c-0.1,0.1-0.2,0.2-0.3,0.3c-0.1,0.1-0.7,0.5-1.6,1.3l-0.6-0.8l2.6-2h1V244.3z"
			/>
		<path d="M266.8,239.3c0,1.7-0.3,3-0.8,3.9c-0.5,0.9-1.4,1.3-2.5,1.3c-1.1,0-1.9-0.4-2.5-1.3c-0.6-0.9-0.8-2.2-0.8-3.8
			c0-1.7,0.3-3,0.8-3.9c0.5-0.8,1.4-1.3,2.5-1.3c1.1,0,1.9,0.4,2.5,1.3C266.5,236.3,266.8,237.6,266.8,239.3z M261.3,239.3
			c0,1.5,0.2,2.5,0.5,3.2s0.9,1,1.6,1c0.8,0,1.3-0.3,1.6-1c0.3-0.7,0.5-1.7,0.5-3.2s-0.2-2.5-0.5-3.2c-0.3-0.7-0.9-1-1.6-1
			c-0.7,0-1.3,0.3-1.6,1C261.5,236.8,261.3,237.8,261.3,239.3z"/>
		<path d="M274.8,239.3c0,1.7-0.3,3-0.8,3.9c-0.5,0.9-1.4,1.3-2.5,1.3c-1.1,0-1.9-0.4-2.5-1.3c-0.6-0.9-0.8-2.2-0.8-3.8
			c0-1.7,0.3-3,0.8-3.9c0.5-0.8,1.4-1.3,2.5-1.3c1.1,0,1.9,0.4,2.5,1.3C274.5,236.3,274.8,237.6,274.8,239.3z M269.3,239.3
			c0,1.5,0.2,2.5,0.5,3.2s0.9,1,1.6,1c0.8,0,1.3-0.3,1.6-1c0.3-0.7,0.5-1.7,0.5-3.2s-0.2-2.5-0.5-3.2c-0.3-0.7-0.9-1-1.6-1
			c-0.7,0-1.3,0.3-1.6,1C269.5,236.8,269.3,237.8,269.3,239.3z"/>
		<path d="M282.8,239.3c0,1.7-0.3,3-0.8,3.9c-0.5,0.9-1.4,1.3-2.5,1.3c-1.1,0-1.9-0.4-2.5-1.3c-0.6-0.9-0.8-2.2-0.8-3.8
			c0-1.7,0.3-3,0.8-3.9c0.5-0.8,1.4-1.3,2.5-1.3c1.1,0,1.9,0.4,2.5,1.3C282.5,236.3,282.8,237.6,282.8,239.3z M277.4,239.3
			c0,1.5,0.2,2.5,0.5,3.2s0.9,1,1.6,1c0.8,0,1.3-0.3,1.6-1c0.3-0.7,0.5-1.7,0.5-3.2s-0.2-2.5-0.5-3.2c-0.3-0.7-0.9-1-1.6-1
			c-0.7,0-1.3,0.3-1.6,1C277.5,236.8,277.4,237.8,277.4,239.3z"/>
	</g>
	<g>
		<path d="M378.5,234.1c0.9,0,1.6,0.2,2.2,0.6s0.8,1,0.8,1.8c0,0.5-0.2,0.9-0.5,1.3c-0.3,0.4-0.8,0.8-1.5,1.1
			c0.8,0.4,1.4,0.8,1.7,1.2c0.3,0.4,0.5,0.9,0.5,1.5c0,0.8-0.3,1.5-0.9,2c-0.6,0.5-1.4,0.7-2.4,0.7c-1.1,0-1.9-0.2-2.5-0.7
			c-0.6-0.5-0.9-1.1-0.9-2c0-1.1,0.7-2,2.1-2.7c-0.6-0.4-1.1-0.7-1.4-1.2c-0.3-0.4-0.4-0.9-0.4-1.4c0-0.7,0.3-1.3,0.8-1.7
			S377.6,234.1,378.5,234.1z M376.3,241.8c0,0.5,0.2,1,0.6,1.3c0.4,0.3,0.9,0.5,1.6,0.5c0.7,0,1.2-0.2,1.6-0.5
			c0.4-0.3,0.6-0.8,0.6-1.3c0-0.4-0.2-0.8-0.5-1.2c-0.4-0.3-1-0.7-1.9-1c-0.7,0.3-1.2,0.6-1.5,1
			C376.5,240.8,376.3,241.3,376.3,241.8z M378.5,235.1c-0.6,0-1,0.1-1.3,0.4s-0.5,0.6-0.5,1.1c0,0.4,0.1,0.8,0.4,1.1
			s0.8,0.6,1.5,0.9c0.7-0.3,1.1-0.6,1.4-0.9s0.4-0.7,0.4-1.1c0-0.5-0.2-0.8-0.5-1.1C379.5,235.2,379.1,235.1,378.5,235.1z"/>
	</g>
	<g>
		<path d="M489.5,234.1c0.9,0,1.6,0.2,2.2,0.6s0.8,1,0.8,1.8c0,0.5-0.2,0.9-0.5,1.3c-0.3,0.4-0.8,0.8-1.5,1.1
			c0.8,0.4,1.4,0.8,1.7,1.2c0.3,0.4,0.5,0.9,0.5,1.5c0,0.8-0.3,1.5-0.9,2c-0.6,0.5-1.4,0.7-2.4,0.7c-1.1,0-1.9-0.2-2.5-0.7
			c-0.6-0.5-0.9-1.1-0.9-2c0-1.1,0.7-2,2.1-2.7c-0.6-0.4-1.1-0.7-1.4-1.2c-0.3-0.4-0.4-0.9-0.4-1.4c0-0.7,0.3-1.3,0.8-1.7
			C487.9,234.4,488.6,234.1,489.5,234.1z M487.3,241.8c0,0.5,0.2,1,0.6,1.3c0.4,0.3,0.9,0.5,1.6,0.5c0.7,0,1.2-0.2,1.6-0.5
			c0.4-0.3,0.6-0.8,0.6-1.3c0-0.4-0.2-0.8-0.5-1.2c-0.4-0.3-1-0.7-1.9-1c-0.7,0.3-1.2,0.6-1.5,1
			C487.5,240.8,487.3,241.3,487.3,241.8z M489.5,235.1c-0.6,0-1,0.1-1.3,0.4c-0.3,0.3-0.5,0.6-0.5,1.1c0,0.4,0.1,0.8,0.4,1.1
			c0.3,0.3,0.8,0.6,1.5,0.9c0.7-0.3,1.1-0.6,1.4-0.9c0.3-0.3,0.4-0.7,0.4-1.1c0-0.5-0.2-0.8-0.5-1.1
			C490.5,235.2,490.1,235.1,489.5,235.1z"/>
	</g>
</g>
<g>
	<g>
		<path d="M256.4,262.9h-1.1v-7.1c0-0.6,0-1.2,0.1-1.7c-0.1,0.1-0.2,0.2-0.3,0.3c-0.1,0.1-0.7,0.5-1.6,1.3l-0.6-0.8l2.6-2h1V262.9z"
			/>
		<path d="M266.8,257.9c0,1.7-0.3,3-0.8,3.9c-0.5,0.9-1.4,1.3-2.5,1.3c-1.1,0-1.9-0.4-2.5-1.3c-0.6-0.9-0.8-2.2-0.8-3.8
			c0-1.7,0.3-3,0.8-3.9c0.5-0.8,1.4-1.3,2.5-1.3c1.1,0,1.9,0.4,2.5,1.3C266.5,255,266.8,256.2,266.8,257.9z M261.3,257.9
			c0,1.5,0.2,2.5,0.5,3.2s0.9,1,1.6,1c0.8,0,1.3-0.3,1.6-1c0.3-0.7,0.5-1.7,0.5-3.2s-0.2-2.5-0.5-3.2c-0.3-0.7-0.9-1-1.6-1
			c-0.7,0-1.3,0.3-1.6,1C261.5,255.4,261.3,256.4,261.3,257.9z"/>
		<path d="M274.8,257.9c0,1.7-0.3,3-0.8,3.9c-0.5,0.9-1.4,1.3-2.5,1.3c-1.1,0-1.9-0.4-2.5-1.3c-0.6-0.9-0.8-2.2-0.8-3.8
			c0-1.7,0.3-3,0.8-3.9c0.5-0.8,1.4-1.3,2.5-1.3c1.1,0,1.9,0.4,2.5,1.3C274.5,255,274.8,256.2,274.8,257.9z M269.3,257.9
			c0,1.5,0.2,2.5,0.5,3.2s0.9,1,1.6,1c0.8,0,1.3-0.3,1.6-1c0.3-0.7,0.5-1.7,0.5-3.2s-0.2-2.5-0.5-3.2c-0.3-0.7-0.9-1-1.6-1
			c-0.7,0-1.3,0.3-1.6,1C269.5,255.4,269.3,256.4,269.3,257.9z"/>
		<path d="M280.4,262.9h-1.1v-7.1c0-0.6,0-1.2,0.1-1.7c-0.1,0.1-0.2,0.2-0.3,0.3c-0.1,0.1-0.7,0.5-1.6,1.3l-0.6-0.8l2.6-2h1V262.9z"
			/>
	</g>
	<g>
		<path d="M381.8,257.2c0,3.9-1.5,5.9-4.5,5.9c-0.5,0-0.9,0-1.3-0.1v-1c0.4,0.1,0.8,0.2,1.2,0.2c1.1,0,1.9-0.3,2.5-1
			s0.9-1.7,0.9-3.1h-0.1c-0.3,0.4-0.6,0.7-1,0.9s-0.9,0.3-1.4,0.3c-0.9,0-1.6-0.3-2.1-0.8c-0.5-0.5-0.8-1.3-0.8-2.2
			c0-1,0.3-1.9,0.9-2.5s1.3-0.9,2.3-0.9c0.7,0,1.3,0.2,1.8,0.5s0.9,0.9,1.2,1.5C381.6,255.5,381.8,256.3,381.8,257.2z M378.4,253.7
			c-0.7,0-1.2,0.2-1.5,0.6c-0.4,0.4-0.5,1-0.5,1.8c0,0.7,0.2,1.2,0.5,1.5s0.8,0.6,1.5,0.6c0.4,0,0.8-0.1,1.1-0.3
			c0.3-0.2,0.6-0.4,0.8-0.7c0.2-0.3,0.3-0.6,0.3-0.9c0-0.5-0.1-0.9-0.3-1.3c-0.2-0.4-0.4-0.7-0.8-1S378.8,253.7,378.4,253.7z"/>
	</g>
	<g>
		<path d="M492.8,257.2c0,3.9-1.5,5.9-4.5,5.9c-0.5,0-0.9,0-1.3-0.1v-1c0.4,0.1,0.8,0.2,1.2,0.2c1.1,0,1.9-0.3,2.5-1
			c0.6-0.7,0.9-1.7,0.9-3.1h-0.1c-0.3,0.4-0.6,0.7-1,0.9c-0.4,0.2-0.9,0.3-1.4,0.3c-0.9,0-1.6-0.3-2.1-0.8c-0.5-0.5-0.8-1.3-0.8-2.2
			c0-1,0.3-1.9,0.9-2.5s1.3-0.9,2.3-0.9c0.7,0,1.3,0.2,1.8,0.5c0.5,0.3,0.9,0.9,1.2,1.5C492.6,255.5,492.8,256.3,492.8,257.2z
			 M489.4,253.7c-0.7,0-1.2,0.2-1.5,0.6c-0.4,0.4-0.5,1-0.5,1.8c0,0.7,0.2,1.2,0.5,1.5s0.8,0.6,1.5,0.6c0.4,0,0.8-0.1,1.1-0.3
			c0.3-0.2,0.6-0.4,0.8-0.7c0.2-0.3,0.3-0.6,0.3-0.9c0-0.5-0.1-0.9-0.3-1.3c-0.2-0.4-0.4-0.7-0.8-1S489.8,253.7,489.4,253.7z"/>
	</g>
</g>
<g>
	<g>
		<path d="M256.4,281.5h-1.1v-7.1c0-0.6,0-1.2,0.1-1.7c-0.1,0.1-0.2,0.2-0.3,0.3c-0.1,0.1-0.7,0.5-1.6,1.3l-0.6-0.8l2.6-2h1V281.5z"
			/>
		<path d="M266.8,276.5c0,1.7-0.3,3-0.8,3.9c-0.5,0.9-1.4,1.3-2.5,1.3c-1.1,0-1.9-0.4-2.5-1.3s-0.8-2.2-0.8-3.8c0-1.7,0.3-3,0.8-3.9
			c0.5-0.8,1.4-1.3,2.5-1.3c1.1,0,1.9,0.4,2.5,1.3C266.5,273.6,266.8,274.9,266.8,276.5z M261.3,276.5c0,1.5,0.2,2.5,0.5,3.2
			s0.9,1,1.6,1c0.8,0,1.3-0.3,1.6-1s0.5-1.7,0.5-3.2s-0.2-2.5-0.5-3.2s-0.9-1-1.6-1c-0.7,0-1.3,0.3-1.6,1S261.3,275.1,261.3,276.5z"
			/>
		<path d="M272.4,281.5h-1.1v-7.1c0-0.6,0-1.2,0.1-1.7c-0.1,0.1-0.2,0.2-0.3,0.3c-0.1,0.1-0.7,0.5-1.6,1.3l-0.6-0.8l2.6-2h1V281.5z"
			/>
		<path d="M282.8,276.5c0,1.7-0.3,3-0.8,3.9c-0.5,0.9-1.4,1.3-2.5,1.3c-1.1,0-1.9-0.4-2.5-1.3s-0.8-2.2-0.8-3.8c0-1.7,0.3-3,0.8-3.9
			c0.5-0.8,1.4-1.3,2.5-1.3c1.1,0,1.9,0.4,2.5,1.3C282.5,273.6,282.8,274.9,282.8,276.5z M277.4,276.5c0,1.5,0.2,2.5,0.5,3.2
			s0.9,1,1.6,1c0.8,0,1.3-0.3,1.6-1s0.5-1.7,0.5-3.2s-0.2-2.5-0.5-3.2s-0.9-1-1.6-1c-0.7,0-1.3,0.3-1.6,1S277.4,275.1,277.4,276.5z"
			/>
	</g>
	<g>
		<path d="M381.7,281.5l-1.2-3.2h-4l-1.2,3.2h-1.2l4-10h1l3.9,10H381.7z M380.1,277.3l-1.2-3.1c-0.2-0.4-0.3-0.9-0.5-1.4
			c-0.1,0.4-0.2,0.9-0.4,1.4l-1.2,3.1H380.1z"/>
	</g>
	<g>
		<path d="M486.4,281.5h-1.1v-7.1c0-0.6,0-1.2,0.1-1.7c-0.1,0.1-0.2,0.2-0.3,0.3c-0.1,0.1-0.7,0.5-1.6,1.3l-0.6-0.8l2.6-2h1V281.5z"
			/>
		<path d="M496.8,276.5c0,1.7-0.3,3-0.8,3.9c-0.5,0.9-1.4,1.3-2.5,1.3c-1.1,0-1.9-0.4-2.5-1.3s-0.8-2.2-0.8-3.8c0-1.7,0.3-3,0.8-3.9
			c0.5-0.8,1.4-1.3,2.5-1.3c1.1,0,1.9,0.4,2.5,1.3C496.5,273.6,496.8,274.9,496.8,276.5z M491.3,276.5c0,1.5,0.2,2.5,0.5,3.2
			s0.9,1,1.6,1c0.8,0,1.3-0.3,1.6-1c0.3-0.7,0.5-1.7,0.5-3.2s-0.2-2.5-0.5-3.2c-0.3-0.7-0.9-1-1.6-1c-0.7,0-1.3,0.3-1.6,1
			S491.3,275.1,491.3,276.5z"/>
	</g>
</g>
<g>
	<g>
		<path d="M256.4,300.2h-1.1v-7.1c0-0.6,0-1.2,0.1-1.7c-0.1,0.1-0.2,0.2-0.3,0.3c-0.1,0.1-0.7,0.5-1.6,1.3l-0.6-0.8l2.6-2h1V300.2z"
			/>
		<path d="M266.8,295.2c0,1.7-0.3,3-0.8,3.9c-0.5,0.9-1.4,1.3-2.5,1.3c-1.1,0-1.9-0.4-2.5-1.3c-0.6-0.9-0.8-2.2-0.8-3.8
			c0-1.7,0.3-3,0.8-3.9c0.5-0.8,1.4-1.3,2.5-1.3c1.1,0,1.9,0.4,2.5,1.3C266.5,292.2,266.8,293.5,266.8,295.2z M261.3,295.2
			c0,1.5,0.2,2.5,0.5,3.2s0.9,1,1.6,1c0.8,0,1.3-0.3,1.6-1c0.3-0.7,0.5-1.7,0.5-3.2s-0.2-2.5-0.5-3.2c-0.3-0.7-0.9-1-1.6-1
			c-0.7,0-1.3,0.3-1.6,1C261.5,292.7,261.3,293.7,261.3,295.2z"/>
		<path d="M272.4,300.2h-1.1v-7.1c0-0.6,0-1.2,0.1-1.7c-0.1,0.1-0.2,0.2-0.3,0.3c-0.1,0.1-0.7,0.5-1.6,1.3l-0.6-0.8l2.6-2h1V300.2z"
			/>
		<path d="M280.4,300.2h-1.1v-7.1c0-0.6,0-1.2,0.1-1.7c-0.1,0.1-0.2,0.2-0.3,0.3c-0.1,0.1-0.7,0.5-1.6,1.3l-0.6-0.8l2.6-2h1V300.2z"
			/>
	</g>
	<g>
		<path d="M375.3,290.2h2.8c1.3,0,2.3,0.2,2.9,0.6c0.6,0.4,0.9,1,0.9,1.9c0,0.6-0.2,1.1-0.5,1.5c-0.3,0.4-0.8,0.6-1.4,0.7v0.1
			c1.5,0.3,2.3,1.1,2.3,2.4c0,0.9-0.3,1.6-0.9,2.1c-0.6,0.5-1.4,0.8-2.5,0.8h-3.5V290.2z M376.5,294.5h1.9c0.8,0,1.4-0.1,1.8-0.4
			c0.4-0.3,0.5-0.7,0.5-1.3c0-0.6-0.2-1-0.6-1.2c-0.4-0.2-1-0.4-1.9-0.4h-1.7V294.5z M376.5,295.4v3.7h2.1c0.8,0,1.4-0.2,1.8-0.5
			c0.4-0.3,0.6-0.8,0.6-1.5c0-0.6-0.2-1.1-0.6-1.4c-0.4-0.3-1.1-0.4-1.9-0.4H376.5z"/>
	</g>
	<g>
		<path d="M486.4,300.2h-1.1v-7.1c0-0.6,0-1.2,0.1-1.7c-0.1,0.1-0.2,0.2-0.3,0.3c-0.1,0.1-0.7,0.5-1.6,1.3l-0.6-0.8l2.6-2h1V300.2z"
			/>
		<path d="M494.4,300.2h-1.1v-7.1c0-0.6,0-1.2,0.1-1.7c-0.1,0.1-0.2,0.2-0.3,0.3c-0.1,0.1-0.7,0.5-1.6,1.3l-0.6-0.8l2.6-2h1V300.2z"
			/>
	</g>
</g>
<g>
	<g>
		<path d="M256.4,318.8h-1.1v-7.1c0-0.6,0-1.2,0.1-1.7c-0.1,0.1-0.2,0.2-0.3,0.3c-0.1,0.1-0.7,0.5-1.6,1.3l-0.6-0.8l2.6-2h1V318.8z"
			/>
		<path d="M264.4,318.8h-1.1v-7.1c0-0.6,0-1.2,0.1-1.7c-0.1,0.1-0.2,0.2-0.3,0.3c-0.1,0.1-0.7,0.5-1.6,1.3l-0.6-0.8l2.6-2h1V318.8z"
			/>
		<path d="M274.8,313.8c0,1.7-0.3,3-0.8,3.9c-0.5,0.9-1.4,1.3-2.5,1.3c-1.1,0-1.9-0.4-2.5-1.3c-0.6-0.9-0.8-2.2-0.8-3.8
			c0-1.7,0.3-3,0.8-3.9c0.5-0.8,1.4-1.3,2.5-1.3c1.1,0,1.9,0.4,2.5,1.3C274.5,310.9,274.8,312.1,274.8,313.8z M269.3,313.8
			c0,1.5,0.2,2.5,0.5,3.2s0.9,1,1.6,1c0.8,0,1.3-0.3,1.6-1c0.3-0.7,0.5-1.7,0.5-3.2s-0.2-2.5-0.5-3.2c-0.3-0.7-0.9-1-1.6-1
			c-0.7,0-1.3,0.3-1.6,1C269.5,311.3,269.3,312.3,269.3,313.8z"/>
		<path d="M282.8,313.8c0,1.7-0.3,3-0.8,3.9c-0.5,0.9-1.4,1.3-2.5,1.3c-1.1,0-1.9-0.4-2.5-1.3c-0.6-0.9-0.8-2.2-0.8-3.8
			c0-1.7,0.3-3,0.8-3.9c0.5-0.8,1.4-1.3,2.5-1.3c1.1,0,1.9,0.4,2.5,1.3C282.5,310.9,282.8,312.1,282.8,313.8z M277.3,313.8
			c0,1.5,0.2,2.5,0.5,3.2s0.9,1,1.6,1c0.8,0,1.3-0.3,1.6-1c0.3-0.7,0.5-1.7,0.5-3.2s-0.2-2.5-0.5-3.2c-0.3-0.7-0.9-1-1.6-1
			c-0.7,0-1.3,0.3-1.6,1C277.5,311.3,277.3,312.3,277.3,313.8z"/>
	</g>
	<g>
		<path d="M379.7,309.7c-1.1,0-2,0.4-2.6,1.1s-1,1.7-1,3c0,1.3,0.3,2.3,0.9,3c0.6,0.7,1.5,1.1,2.6,1.1c0.7,0,1.5-0.1,2.4-0.4v1
			c-0.7,0.3-1.5,0.4-2.6,0.4c-1.5,0-2.6-0.4-3.4-1.3c-0.8-0.9-1.2-2.2-1.2-3.8c0-1,0.2-1.9,0.6-2.7c0.4-0.8,0.9-1.4,1.7-1.8
			c0.7-0.4,1.6-0.6,2.6-0.6c1,0,2,0.2,2.7,0.6l-0.5,1C381.2,309.9,380.5,309.7,379.7,309.7z"/>
	</g>
	<g>
		<path d="M486.4,318.8h-1.1v-7.1c0-0.6,0-1.2,0.1-1.7c-0.1,0.1-0.2,0.2-0.3,0.3c-0.1,0.1-0.7,0.5-1.6,1.3l-0.6-0.8l2.6-2h1V318.8z"
			/>
		<path d="M496.8,318.8h-6.6v-1l2.6-2.6c0.8-0.8,1.3-1.4,1.6-1.7c0.3-0.3,0.4-0.7,0.6-1c0.1-0.3,0.2-0.7,0.2-1.1
			c0-0.5-0.2-1-0.5-1.3c-0.3-0.3-0.8-0.5-1.3-0.5c-0.4,0-0.8,0.1-1.2,0.2c-0.4,0.1-0.8,0.4-1.2,0.7l-0.6-0.8c0.9-0.8,1.9-1.1,3-1.1
			c0.9,0,1.7,0.2,2.2,0.7c0.5,0.5,0.8,1.1,0.8,1.9c0,0.6-0.2,1.3-0.5,1.9c-0.4,0.6-1,1.4-2,2.4l-2.2,2.1v0.1h5.1V318.8z"/>
	</g>
</g>
<g>
	<g>
		<path d="M256.4,337.4h-1.1v-7.1c0-0.6,0-1.2,0.1-1.7c-0.1,0.1-0.2,0.2-0.3,0.3c-0.1,0.1-0.7,0.5-1.6,1.3l-0.6-0.8l2.6-2h1V337.4z"
			/>
		<path d="M264.4,337.4h-1.1v-7.1c0-0.6,0-1.2,0.1-1.7c-0.1,0.1-0.2,0.2-0.3,0.3c-0.1,0.1-0.7,0.5-1.6,1.3l-0.6-0.8l2.6-2h1V337.4z"
			/>
		<path d="M274.8,332.4c0,1.7-0.3,3-0.8,3.9c-0.5,0.9-1.4,1.3-2.5,1.3c-1.1,0-1.9-0.4-2.5-1.3c-0.6-0.9-0.8-2.2-0.8-3.8
			c0-1.7,0.3-3,0.8-3.9c0.5-0.8,1.4-1.3,2.5-1.3c1.1,0,1.9,0.4,2.5,1.3C274.5,329.5,274.8,330.8,274.8,332.4z M269.3,332.4
			c0,1.5,0.2,2.5,0.5,3.2s0.9,1,1.6,1c0.8,0,1.3-0.3,1.6-1c0.3-0.7,0.5-1.7,0.5-3.2s-0.2-2.5-0.5-3.2c-0.3-0.7-0.9-1-1.6-1
			c-0.7,0-1.3,0.3-1.6,1C269.5,329.9,269.3,331,269.3,332.4z"/>
		<path d="M280.4,337.4h-1.1v-7.1c0-0.6,0-1.2,0.1-1.7c-0.1,0.1-0.2,0.2-0.3,0.3c-0.1,0.1-0.7,0.5-1.6,1.3l-0.6-0.8l2.6-2h1V337.4z"
			/>
	</g>
	<g>
		<path d="M382.7,332.3c0,1.6-0.4,2.9-1.3,3.8c-0.9,0.9-2.2,1.3-3.9,1.3h-2.8v-10h3.1c1.6,0,2.8,0.4,3.6,1.3
			S382.7,330.8,382.7,332.3z M381.5,332.4c0-1.3-0.3-2.3-1-2.9c-0.7-0.7-1.6-1-2.9-1h-1.7v8h1.4c1.4,0,2.4-0.3,3.1-1
			C381.2,334.7,381.5,333.7,381.5,332.4z"/>
	</g>
	<g>
		<path d="M486.4,337.4h-1.1v-7.1c0-0.6,0-1.2,0.1-1.7c-0.1,0.1-0.2,0.2-0.3,0.3c-0.1,0.1-0.7,0.5-1.6,1.3l-0.6-0.8l2.6-2h1V337.4z"
			/>
		<path d="M496.4,329.8c0,0.6-0.2,1.2-0.5,1.6c-0.4,0.4-0.9,0.7-1.5,0.8v0.1c0.8,0.1,1.4,0.4,1.8,0.8c0.4,0.4,0.6,0.9,0.6,1.6
			c0,1-0.3,1.7-1,2.2c-0.7,0.5-1.6,0.8-2.8,0.8c-0.5,0-1,0-1.5-0.1c-0.4-0.1-0.9-0.2-1.3-0.4V336c0.4,0.2,0.9,0.4,1.4,0.5
			c0.5,0.1,1,0.2,1.4,0.2c1.7,0,2.6-0.7,2.6-2c0-1.2-1-1.8-2.9-1.8h-1v-1h1c0.8,0,1.4-0.2,1.9-0.5c0.5-0.3,0.7-0.8,0.7-1.4
			c0-0.5-0.2-0.9-0.5-1.1c-0.3-0.3-0.8-0.4-1.4-0.4c-0.4,0-0.9,0.1-1.2,0.2c-0.4,0.1-0.8,0.3-1.3,0.7l-0.6-0.8
			c0.4-0.3,0.9-0.6,1.4-0.8c0.5-0.2,1.1-0.3,1.7-0.3c1,0,1.7,0.2,2.3,0.7C496.1,328.4,496.4,329,496.4,329.8z"/>
	</g>
</g>
<g>
	<g>
		<path d="M256.4,356.1h-1.1V349c0-0.6,0-1.2,0.1-1.7c-0.1,0.1-0.2,0.2-0.3,0.3c-0.1,0.1-0.7,0.5-1.6,1.3l-0.6-0.8l2.6-2h1V356.1z"
			/>
		<path d="M264.4,356.1h-1.1V349c0-0.6,0-1.2,0.1-1.7c-0.1,0.1-0.2,0.2-0.3,0.3c-0.1,0.1-0.7,0.5-1.6,1.3l-0.6-0.8l2.6-2h1V356.1z"
			/>
		<path d="M272.4,356.1h-1.1V349c0-0.6,0-1.2,0.1-1.7c-0.1,0.1-0.2,0.2-0.3,0.3c-0.1,0.1-0.7,0.5-1.6,1.3l-0.6-0.8l2.6-2h1V356.1z"
			/>
		<path d="M282.8,351.1c0,1.7-0.3,3-0.8,3.9c-0.5,0.9-1.4,1.3-2.5,1.3c-1.1,0-1.9-0.4-2.5-1.3c-0.6-0.9-0.8-2.2-0.8-3.8
			c0-1.7,0.3-3,0.8-3.9c0.5-0.8,1.4-1.3,2.5-1.3c1.1,0,1.9,0.4,2.5,1.3C282.5,348.1,282.8,349.4,282.8,351.1z M277.4,351.1
			c0,1.5,0.2,2.5,0.5,3.2s0.9,1,1.6,1c0.8,0,1.3-0.3,1.6-1c0.3-0.7,0.5-1.7,0.5-3.2s-0.2-2.5-0.5-3.2c-0.3-0.7-0.9-1-1.6-1
			c-0.7,0-1.3,0.3-1.6,1C277.5,348.6,277.4,349.6,277.4,351.1z"/>
	</g>
	<g>
		<path d="M381.6,356.1H376v-10h5.6v1h-4.4v3.2h4.1v1h-4.1v3.7h4.4V356.1z"/>
	</g>
	<g>
		<path d="M486.4,356.1h-1.1V349c0-0.6,0-1.2,0.1-1.7c-0.1,0.1-0.2,0.2-0.3,0.3c-0.1,0.1-0.7,0.5-1.6,1.3l-0.6-0.8l2.6-2h1V356.1z"
			/>
		<path d="M497.2,353.8h-1.5v2.3h-1.1v-2.3h-4.9v-1l4.7-6.8h1.2v6.7h1.5V353.8z M494.7,352.7v-3.3c0-0.7,0-1.4,0.1-2.2h-0.1
			c-0.2,0.4-0.4,0.8-0.6,1.1l-3.1,4.4H494.7z"/>
	</g>
</g>
<g>
	<g>
		<path d="M256.4,374.7h-1.1v-7.1c0-0.6,0-1.2,0.1-1.7c-0.1,0.1-0.2,0.2-0.3,0.3c-0.1,0.1-0.7,0.5-1.6,1.3l-0.6-0.8l2.6-2h1V374.7z"
			/>
		<path d="M264.4,374.7h-1.1v-7.1c0-0.6,0-1.2,0.1-1.7c-0.1,0.1-0.2,0.2-0.3,0.3c-0.1,0.1-0.7,0.5-1.6,1.3l-0.6-0.8l2.6-2h1V374.7z"
			/>
		<path d="M272.4,374.7h-1.1v-7.1c0-0.6,0-1.2,0.1-1.7c-0.1,0.1-0.2,0.2-0.3,0.3c-0.1,0.1-0.7,0.5-1.6,1.3l-0.6-0.8l2.6-2h1V374.7z"
			/>
		<path d="M280.4,374.7h-1.1v-7.1c0-0.6,0-1.2,0.1-1.7c-0.1,0.1-0.2,0.2-0.3,0.3c-0.1,0.1-0.7,0.5-1.6,1.3l-0.6-0.8l2.6-2h1V374.7z"
			/>
	</g>
	<g>
		<path d="M377.4,374.7h-1.2v-10h5.6v1h-4.4v3.7h4.1v1h-4.1V374.7z"/>
	</g>
	<g>
		<path d="M486.4,374.7h-1.1v-7.1c0-0.6,0-1.2,0.1-1.7c-0.1,0.1-0.2,0.2-0.3,0.3c-0.1,0.1-0.7,0.5-1.6,1.3l-0.6-0.8l2.6-2h1V374.7z"
			/>
		<path d="M493.3,368.6c1.1,0,1.9,0.3,2.5,0.8c0.6,0.5,0.9,1.2,0.9,2.1c0,1-0.3,1.8-1,2.4c-0.7,0.6-1.6,0.9-2.7,0.9
			c-1.1,0-2-0.2-2.6-0.5v-1.1c0.3,0.2,0.7,0.4,1.2,0.5c0.5,0.1,0.9,0.2,1.4,0.2c0.8,0,1.4-0.2,1.9-0.6c0.4-0.4,0.7-0.9,0.7-1.6
			c0-1.4-0.9-2.1-2.6-2.1c-0.4,0-1,0.1-1.7,0.2l-0.6-0.4l0.4-4.7h5v1h-4l-0.3,3C492.3,368.7,492.8,368.6,493.3,368.6z"/>
	</g>
</g>
</svg>
