<?xml version="1.0" encoding="utf-8"?>
<!-- Generator: Adobe Illustrator 19.2.0, SVG Export Plug-In . SVG Version: 6.00 Build 0)  -->
<svg version="1.1" id="Layer_1" xmlns="http://www.w3.org/2000/svg" xmlns:xlink="http://www.w3.org/1999/xlink" x="0px" y="0px"
	 viewBox="0 0 600 88" style="enable-background:new 0 0 600 88;" xml:space="preserve">
<style type="text/css">
	.st0{fill:#FFFFFF;}
	.st1{fill:#21B24B;}
	.st2{fill:#484AB8;}
</style>
<g>
	<g>
		<g>
			<path class="st0" d="M485.9,64.9h-35.3c-2.8,0-5.1-2.3-5.1-5.1V36c0-2.8,2.3-5.1,5.1-5.1h35.3c2.8,0,5.1,2.3,5.1,5.1v23.9
				C490.9,62.6,488.7,64.9,485.9,64.9z"/>
			<path d="M485.9,66.4h-35.3c-3.6,0-6.6-2.9-6.6-6.6V36c0-3.6,2.9-6.6,6.6-6.6h35.3c3.6,0,6.6,2.9,6.6,6.6v23.9
				C492.4,63.5,489.5,66.4,485.9,66.4z M450.6,32.4c-2,0-3.6,1.6-3.6,3.6v23.9c0,2,1.6,3.6,3.6,3.6h35.3c2,0,3.6-1.6,3.6-3.6V36
				c0-2-1.6-3.6-3.6-3.6H450.6z"/>
		</g>
		<g>
			<g>
				<path class="st0" d="M443.4,83.2c-1.1,0-1.5-0.8-1-1.7l5.5-9.1c0.6-0.9,1.9-1.8,3-1.8h34.9c1.1,0,2.5,0.9,3,1.8l5.6,9.4
					c0.6,0.9,0.1,1.7-1,1.7L443.4,83.2z"/>
			</g>
			<g>
				<path d="M493.6,85.5C493.6,85.5,493.6,85.5,493.6,85.5l-50.2-0.6c-1.1,0-2-0.6-2.4-1.4c-0.5-0.8-0.4-1.9,0.2-2.8l5.5-8.9
					c0.9-1.6,2.9-2.3,4.3-2.3h34.9c1.4,0,3.4,0.7,4.3,2.3l5.6,9.3c0.6,0.9,0.6,2.1,0.2,2.9S494.7,85.5,493.6,85.5z M444.1,81.7
					l48.8,0.4l-5.2-8.7c-0.3-0.4-1.1-0.8-1.7-0.8H451c-0.7,0-1.5,0.4-1.7,0.8L444.1,81.7z"/>
			</g>
		</g>
		<g>
			<rect x="459.9" y="64.9" width="16.7" height="5.8"/>
		</g>
		<g>
			<path class="st1" d="M483.5,59.3H453c-0.7,0-1.2-0.5-1.2-1.2V37.7c0-0.7,0.5-1.2,1.2-1.2h30.4c0.7,0,1.2,0.5,1.2,1.2v20.4
				C484.7,58.8,484.1,59.3,483.5,59.3z"/>
		</g>
	</g>
	<g>
		<path d="M452.3,4.4h4.1c1.9,0,3.2,0.3,4,0.8c0.8,0.5,1.3,1.4,1.3,2.5c0,0.8-0.2,1.4-0.6,1.9c-0.4,0.5-0.9,0.8-1.5,0.9v0.1
			c0.8,0.2,1.4,0.5,1.8,1s0.6,1.2,0.6,2c0,1.2-0.4,2.1-1.3,2.8c-0.9,0.7-2,1-3.5,1h-4.9V4.4z M455.1,9.6h1.6c0.8,0,1.3-0.1,1.6-0.3
			c0.3-0.2,0.5-0.6,0.5-1.2c0-0.5-0.2-0.9-0.6-1.1c-0.4-0.2-0.9-0.3-1.7-0.3h-1.5V9.6z M455.1,11.8v3.4h1.8c0.8,0,1.3-0.1,1.7-0.4
			c0.4-0.3,0.5-0.7,0.5-1.3c0-1.1-0.8-1.6-2.3-1.6H455.1z"/>
		<path d="M473.5,12.5c0,1.6-0.4,2.9-1.3,3.8c-0.9,0.9-2.1,1.4-3.6,1.4c-1,0-1.8-0.2-2.5-0.6c-0.7-0.4-1.3-1-1.7-1.8
			s-0.6-1.7-0.6-2.8c0-1.6,0.4-2.9,1.3-3.8c0.9-0.9,2.1-1.4,3.6-1.4c1,0,1.8,0.2,2.5,0.6c0.7,0.4,1.3,1,1.7,1.8
			C473.3,10.5,473.5,11.4,473.5,12.5z M466.6,12.5c0,1,0.2,1.7,0.5,2.2s0.9,0.8,1.6,0.8c0.7,0,1.3-0.3,1.6-0.8s0.5-1.3,0.5-2.3
			c0-1-0.2-1.7-0.5-2.2c-0.3-0.5-0.9-0.7-1.6-0.7c-0.7,0-1.3,0.2-1.6,0.7C466.8,10.7,466.6,11.5,466.6,12.5z"/>
		<path d="M481.4,7.3c1.2,0,2.1,0.5,2.8,1.4c0.7,0.9,1,2.2,1,3.8c0,1.7-0.3,2.9-1,3.8c-0.7,0.9-1.6,1.4-2.8,1.4
			c-1.2,0-2.1-0.4-2.8-1.3h-0.2l-0.5,1.1h-2.1V3.6h2.7v3.2c0,0.4,0,1.1-0.1,2h0.1C479.2,7.8,480.1,7.3,481.4,7.3z M480.5,9.5
			c-0.7,0-1.2,0.2-1.5,0.6c-0.3,0.4-0.5,1.1-0.5,2.1v0.3c0,1.1,0.2,1.8,0.5,2.3c0.3,0.5,0.8,0.7,1.5,0.7c0.6,0,1-0.3,1.3-0.8
			c0.3-0.5,0.5-1.3,0.5-2.3s-0.2-1.7-0.5-2.2C481.5,9.7,481.1,9.5,480.5,9.5z"/>
	</g>
</g>
<g>
	<g>
		<g>
			<path class="st0" d="M148.9,64.9h-35.3c-2.8,0-5.1-2.3-5.1-5.1V36c0-2.8,2.3-5.1,5.1-5.1h35.3c2.8,0,5.1,2.3,5.1,5.1v23.9
				C153.9,62.6,151.7,64.9,148.9,64.9z"/>
			<path d="M148.9,66.4h-35.3c-3.6,0-6.6-2.9-6.6-6.6V36c0-3.6,2.9-6.6,6.6-6.6h35.3c3.6,0,6.6,2.9,6.6,6.6v23.9
				C155.4,63.5,152.5,66.4,148.9,66.4z M113.6,32.4c-2,0-3.6,1.6-3.6,3.6v23.9c0,2,1.6,3.6,3.6,3.6h35.3c2,0,3.6-1.6,3.6-3.6V36
				c0-2-1.6-3.6-3.6-3.6H113.6z"/>
		</g>
		<g>
			<g>
				<path class="st0" d="M106.4,83.2c-1.1,0-1.5-0.8-1-1.7l5.5-9.1c0.6-0.9,1.9-1.8,3-1.8h34.9c1.1,0,2.5,0.9,3,1.8l5.6,9.4
					c0.6,0.9,0.1,1.7-1,1.7L106.4,83.2z"/>
			</g>
			<g>
				<path d="M156.6,85.5C156.6,85.5,156.6,85.5,156.6,85.5l-50.2-0.6c-1.1,0-2-0.6-2.4-1.4c-0.5-0.8-0.4-1.9,0.2-2.8l5.5-8.9
					c0.9-1.6,2.9-2.3,4.3-2.3h34.9c1.4,0,3.4,0.7,4.3,2.3l5.6,9.3c0.6,0.9,0.6,2.1,0.2,2.9S157.7,85.5,156.6,85.5z M107.1,81.7
					l48.8,0.4l-5.2-8.7c-0.3-0.4-1.1-0.8-1.7-0.8H114c-0.7,0-1.5,0.4-1.7,0.8L107.1,81.7z"/>
			</g>
		</g>
		<g>
			<rect x="122.9" y="64.9" width="16.7" height="5.8"/>
		</g>
		<g>
			<path class="st2" d="M146.5,59.3H116c-0.7,0-1.2-0.5-1.2-1.2V37.7c0-0.7,0.5-1.2,1.2-1.2h30.4c0.7,0,1.2,0.5,1.2,1.2v20.4
				C147.7,58.8,147.1,59.3,146.5,59.3z"/>
		</g>
	</g>
	<g>
		<path d="M118.9,17.5l-1-3.1h-4.8l-0.9,3.1h-3l4.6-13.2h3.4l4.6,13.2H118.9z M117.3,12.1c-0.9-2.8-1.4-4.4-1.5-4.8
			c-0.1-0.4-0.2-0.7-0.2-0.9c-0.2,0.8-0.8,2.7-1.7,5.7H117.3z"/>
		<path d="M126.1,17.5h-2.7V3.6h2.7V17.5z"/>
		<path d="M128.8,4.9c0-0.9,0.5-1.3,1.5-1.3s1.5,0.4,1.5,1.3c0,0.4-0.1,0.8-0.4,1c-0.2,0.2-0.6,0.4-1.1,0.4
			C129.3,6.2,128.8,5.8,128.8,4.9z M131.7,17.5h-2.7v-10h2.7V17.5z"/>
		<path d="M138.6,17.7c-3.1,0-4.7-1.7-4.7-5.1c0-1.7,0.4-3,1.3-3.9c0.8-0.9,2.1-1.3,3.6-1.3c1.2,0,2.2,0.2,3.1,0.7l-0.8,2.1
			c-0.4-0.2-0.8-0.3-1.2-0.4c-0.4-0.1-0.7-0.2-1.1-0.2c-1.4,0-2.1,1-2.1,3c0,2,0.7,2.9,2.1,2.9c0.5,0,1-0.1,1.5-0.2
			c0.4-0.1,0.9-0.4,1.3-0.7v2.3c-0.4,0.3-0.9,0.5-1.3,0.6C139.9,17.6,139.3,17.7,138.6,17.7z"/>
		<path d="M148.5,17.7c-1.6,0-2.9-0.4-3.8-1.3s-1.4-2.2-1.4-3.8c0-1.7,0.4-3,1.3-3.9c0.8-0.9,2-1.4,3.5-1.4c1.4,0,2.5,0.4,3.3,1.2
			c0.8,0.8,1.2,1.9,1.2,3.3v1.3h-6.5c0,0.8,0.3,1.4,0.7,1.8c0.4,0.4,1,0.7,1.8,0.7c0.6,0,1.2-0.1,1.7-0.2c0.5-0.1,1.1-0.3,1.7-0.6
			V17c-0.5,0.2-1,0.4-1.5,0.5C150,17.6,149.3,17.7,148.5,17.7z M148.1,9.2c-0.6,0-1,0.2-1.4,0.6c-0.3,0.4-0.5,0.9-0.6,1.6h3.8
			c0-0.7-0.2-1.2-0.5-1.6C149.2,9.4,148.7,9.2,148.1,9.2z"/>
	</g>
</g>
<g>
	<g>
		<path class="st2" d="M421.5,44.3H167c-1,0-1.8-0.8-1.8-1.8s0.8-1.8,1.8-1.8h254.4c1,0,1.8,0.8,1.8,1.8S422.4,44.3,421.5,44.3z"/>
	</g>
	<g>
		<g>
			<path class="st2" d="M432,42.5c-5,1.8-11.1,5-15,8.3l3-8.3l-3-8.3C420.9,37.5,427.1,40.7,432,42.5z"/>
		</g>
	</g>
</g>
<g>
	<path class="st2" d="M184.2,36.5v-8.6h1.4v8.6H184.2z"/>
	<path class="st2" d="M194.9,36.5l-0.3-0.9h0c-0.3,0.4-0.6,0.7-0.9,0.8s-0.7,0.2-1.2,0.2c-0.6,0-1.1-0.2-1.5-0.5s-0.5-0.8-0.5-1.5
		c0-0.7,0.2-1.2,0.7-1.5s1.3-0.5,2.3-0.6l1.1,0v-0.3c0-0.4-0.1-0.7-0.3-0.9s-0.5-0.3-0.9-0.3c-0.3,0-0.7,0-1,0.1s-0.6,0.2-0.9,0.3
		l-0.4-1c0.4-0.2,0.7-0.3,1.2-0.4s0.8-0.1,1.2-0.1c0.8,0,1.4,0.2,1.9,0.5s0.6,0.9,0.6,1.7v4.4H194.9z M192.8,35.6
		c0.5,0,0.9-0.1,1.2-0.4s0.5-0.7,0.5-1.2v-0.6l-0.8,0c-0.6,0-1.1,0.1-1.4,0.3s-0.4,0.5-0.4,0.9c0,0.3,0.1,0.5,0.3,0.7
		S192.5,35.6,192.8,35.6z"/>
	<path class="st2" d="M203.2,36.5h-1.4v-4c0-0.5-0.1-0.9-0.3-1.1s-0.5-0.4-0.9-0.4c-0.5,0-0.9,0.2-1.2,0.5s-0.4,0.9-0.4,1.7v3.2
		h-1.4V30h1.1l0.2,0.8h0.1c0.2-0.3,0.4-0.5,0.8-0.7s0.7-0.3,1.1-0.3c1,0,1.7,0.3,2,1h0.1c0.2-0.3,0.5-0.6,0.8-0.8s0.7-0.3,1.2-0.3
		c0.8,0,1.3,0.2,1.7,0.6s0.5,1,0.5,1.8v4.2h-1.4v-4c0-0.5-0.1-0.9-0.3-1.1s-0.5-0.4-0.9-0.4c-0.5,0-0.9,0.2-1.2,0.5
		s-0.4,0.8-0.4,1.5V36.5z"/>
	<path class="st2" d="M217.8,36.5l-0.9-2.4h-3.3l-0.8,2.4h-1.5l3.2-8.6h1.5l3.2,8.6H217.8z M216.6,32.9l-0.8-2.3
		c-0.1-0.2-0.1-0.4-0.2-0.7s-0.2-0.6-0.2-0.7c-0.1,0.5-0.3,1-0.5,1.6l-0.8,2.2H216.6z"/>
	<path class="st2" d="M221.7,36.5h-1.4v-9.1h1.4V36.5z"/>
	<path class="st2" d="M223.6,28.3c0-0.2,0.1-0.4,0.2-0.6s0.3-0.2,0.6-0.2c0.2,0,0.4,0.1,0.6,0.2s0.2,0.3,0.2,0.6
		c0,0.2-0.1,0.4-0.2,0.6s-0.3,0.2-0.6,0.2c-0.3,0-0.4-0.1-0.6-0.2S223.6,28.5,223.6,28.3z M225,36.5h-1.4V30h1.4V36.5z"/>
	<path class="st2" d="M229.6,36.6c-1,0-1.7-0.3-2.2-0.9s-0.8-1.4-0.8-2.5c0-1.1,0.3-1.9,0.8-2.5s1.3-0.9,2.3-0.9
		c0.7,0,1.3,0.1,1.8,0.4l-0.4,1.1c-0.6-0.2-1.1-0.3-1.4-0.3c-1.1,0-1.7,0.7-1.7,2.2c0,0.7,0.1,1.3,0.4,1.6s0.7,0.5,1.2,0.5
		c0.6,0,1.2-0.2,1.7-0.5v1.2c-0.2,0.1-0.5,0.2-0.8,0.3S230,36.6,229.6,36.6z"/>
	<path class="st2" d="M235.7,36.6c-1,0-1.8-0.3-2.4-0.9s-0.9-1.4-0.9-2.4c0-1.1,0.3-1.9,0.8-2.5s1.3-0.9,2.2-0.9
		c0.9,0,1.5,0.3,2,0.8s0.7,1.2,0.7,2.1v0.7H234c0,0.6,0.2,1.1,0.5,1.5s0.8,0.5,1.4,0.5c0.4,0,0.7,0,1.1-0.1s0.7-0.2,1.1-0.4v1.1
		c-0.3,0.2-0.7,0.3-1,0.3S236.2,36.6,235.7,36.6z M235.5,31c-0.4,0-0.8,0.1-1.1,0.4s-0.4,0.7-0.5,1.2h2.9c0-0.5-0.1-0.9-0.4-1.2
		S235.9,31,235.5,31z"/>
	<path class="st2" d="M241.3,35.3c-0.2,0.7-0.5,1.7-1,2.8h-1c0.3-1.1,0.5-2,0.6-2.9h1.4L241.3,35.3z"/>
	<path class="st2" d="M251.6,36.5h-1.4v-4c0-0.5-0.1-0.9-0.3-1.1s-0.5-0.4-0.9-0.4c-0.5,0-0.9,0.2-1.2,0.5s-0.4,0.9-0.4,1.7v3.2
		h-1.4V30h1.1l0.2,0.8h0.1c0.2-0.3,0.4-0.5,0.8-0.7s0.7-0.3,1.1-0.3c1,0,1.7,0.3,2,1h0.1c0.2-0.3,0.5-0.6,0.8-0.8s0.7-0.3,1.2-0.3
		c0.8,0,1.3,0.2,1.7,0.6s0.5,1,0.5,1.8v4.2h-1.4v-4c0-0.5-0.1-0.9-0.3-1.1s-0.5-0.4-0.9-0.4c-0.5,0-0.9,0.2-1.2,0.5
		s-0.4,0.8-0.4,1.5V36.5z"/>
	<path class="st2" d="M256.6,30h1.5l1.3,3.7c0.2,0.5,0.3,1,0.4,1.5h0c0-0.2,0.1-0.5,0.2-0.8s0.6-1.8,1.5-4.4h1.5l-2.8,7.3
		c-0.5,1.3-1.3,2-2.5,2c-0.3,0-0.6,0-0.9-0.1v-1.1c0.2,0,0.4,0.1,0.7,0.1c0.7,0,1.1-0.4,1.4-1.2l0.2-0.6L256.6,30z"/>
	<path class="st2" d="M269.4,36.6c-0.8,0-1.4-0.3-1.9-0.9s-0.7-1.4-0.7-2.5c0-1.1,0.2-1.9,0.7-2.5s1.1-0.9,1.9-0.9
		c0.9,0,1.5,0.3,1.9,0.9h0.1c-0.1-0.5-0.1-0.8-0.1-1.1v-2.4h1.4v9.1h-1.1l-0.2-0.8h-0.1C270.9,36.3,270.2,36.6,269.4,36.6z
		 M269.7,35.5c0.6,0,1-0.2,1.2-0.5s0.4-0.8,0.4-1.5v-0.2c0-0.8-0.1-1.4-0.4-1.7s-0.7-0.5-1.2-0.5c-0.5,0-0.9,0.2-1.1,0.6
		s-0.4,1-0.4,1.7c0,0.7,0.1,1.3,0.4,1.6S269.2,35.5,269.7,35.5z"/>
	<path class="st2" d="M277.5,36.6c-1,0-1.8-0.3-2.4-0.9s-0.9-1.4-0.9-2.4c0-1.1,0.3-1.9,0.8-2.5s1.3-0.9,2.2-0.9
		c0.9,0,1.5,0.3,2,0.8s0.7,1.2,0.7,2.1v0.7h-4.3c0,0.6,0.2,1.1,0.5,1.5s0.8,0.5,1.4,0.5c0.4,0,0.7,0,1.1-0.1s0.7-0.2,1.1-0.4v1.1
		c-0.3,0.2-0.7,0.3-1,0.3S277.9,36.6,277.5,36.6z M277.2,31c-0.4,0-0.8,0.1-1.1,0.4s-0.4,0.7-0.5,1.2h2.9c0-0.5-0.1-0.9-0.4-1.2
		S277.7,31,277.2,31z"/>
	<path class="st2" d="M284,35.5c0.3,0,0.7-0.1,1-0.2v1c-0.2,0.1-0.3,0.1-0.6,0.2s-0.5,0.1-0.7,0.1c-1.3,0-2-0.7-2-2.1v-3.5h-0.9
		v-0.6l0.9-0.5l0.5-1.4h0.8V30h1.8v1h-1.8v3.5c0,0.3,0.1,0.6,0.2,0.7S283.7,35.5,284,35.5z"/>
	<path class="st2" d="M290.3,36.5l-0.3-0.9h0c-0.3,0.4-0.6,0.7-0.9,0.8s-0.7,0.2-1.2,0.2c-0.6,0-1.1-0.2-1.5-0.5s-0.5-0.8-0.5-1.5
		c0-0.7,0.2-1.2,0.7-1.5s1.3-0.5,2.3-0.6l1.1,0v-0.3c0-0.4-0.1-0.7-0.3-0.9s-0.5-0.3-0.9-0.3c-0.3,0-0.7,0-1,0.1s-0.6,0.2-0.9,0.3
		l-0.4-1c0.4-0.2,0.7-0.3,1.2-0.4s0.8-0.1,1.2-0.1c0.8,0,1.4,0.2,1.9,0.5s0.6,0.9,0.6,1.7v4.4H290.3z M288.3,35.6
		c0.5,0,0.9-0.1,1.2-0.4s0.5-0.7,0.5-1.2v-0.6l-0.8,0c-0.6,0-1.1,0.1-1.4,0.3s-0.4,0.5-0.4,0.9c0,0.3,0.1,0.5,0.3,0.7
		S287.9,35.6,288.3,35.6z"/>
	<path class="st2" d="M293.2,28.3c0-0.2,0.1-0.4,0.2-0.6s0.3-0.2,0.6-0.2c0.2,0,0.4,0.1,0.6,0.2s0.2,0.3,0.2,0.6
		c0,0.2-0.1,0.4-0.2,0.6s-0.3,0.2-0.6,0.2c-0.3,0-0.4-0.1-0.6-0.2S293.2,28.5,293.2,28.3z M294.6,36.5h-1.4V30h1.4V36.5z"/>
	<path class="st2" d="M298,36.5h-1.4v-9.1h1.4V36.5z"/>
	<path class="st2" d="M304.3,34.7c0,0.6-0.2,1.1-0.7,1.5s-1.1,0.5-2,0.5c-0.9,0-1.6-0.1-2.1-0.4V35c0.8,0.4,1.5,0.5,2.1,0.5
		c0.8,0,1.3-0.3,1.3-0.8c0-0.2,0-0.3-0.1-0.4s-0.2-0.2-0.5-0.3s-0.5-0.3-0.9-0.4c-0.7-0.3-1.3-0.6-1.5-0.9s-0.4-0.7-0.4-1.1
		c0-0.6,0.2-1,0.7-1.3s1.1-0.5,1.8-0.5c0.8,0,1.5,0.2,2.2,0.5l-0.4,1c-0.7-0.3-1.3-0.4-1.8-0.4c-0.7,0-1.1,0.2-1.1,0.6
		c0,0.2,0.1,0.4,0.3,0.5c0.2,0.1,0.6,0.3,1.2,0.6c0.5,0.2,0.9,0.4,1.2,0.6s0.4,0.4,0.5,0.6S304.3,34.4,304.3,34.7z"/>
	<path class="st2" d="M313,36.5l-0.3-0.9h0c-0.3,0.4-0.6,0.7-0.9,0.8s-0.7,0.2-1.2,0.2c-0.6,0-1.1-0.2-1.5-0.5s-0.5-0.8-0.5-1.5
		c0-0.7,0.2-1.2,0.7-1.5s1.3-0.5,2.3-0.6l1.1,0v-0.3c0-0.4-0.1-0.7-0.3-0.9s-0.5-0.3-0.9-0.3c-0.3,0-0.7,0-1,0.1s-0.6,0.2-0.9,0.3
		l-0.4-1c0.4-0.2,0.7-0.3,1.2-0.4s0.8-0.1,1.2-0.1c0.8,0,1.4,0.2,1.9,0.5s0.6,0.9,0.6,1.7v4.4H313z M310.9,35.6
		c0.5,0,0.9-0.1,1.2-0.4s0.5-0.7,0.5-1.2v-0.6l-0.8,0c-0.6,0-1.1,0.1-1.4,0.3s-0.4,0.5-0.4,0.9c0,0.3,0.1,0.5,0.3,0.7
		S310.6,35.6,310.9,35.6z"/>
	<path class="st2" d="M319.1,29.9c0.3,0,0.5,0,0.7,0.1l-0.1,1.3c-0.2,0-0.4-0.1-0.6-0.1c-0.6,0-1,0.2-1.3,0.5s-0.5,0.8-0.5,1.4v3.4
		h-1.4V30h1.1l0.2,1.1h0.1c0.2-0.4,0.5-0.7,0.8-0.9S318.7,29.9,319.1,29.9z"/>
	<path class="st2" d="M323.9,36.6c-1,0-1.8-0.3-2.4-0.9s-0.9-1.4-0.9-2.4c0-1.1,0.3-1.9,0.8-2.5s1.3-0.9,2.2-0.9
		c0.9,0,1.5,0.3,2,0.8s0.7,1.2,0.7,2.1v0.7h-4.3c0,0.6,0.2,1.1,0.5,1.5s0.8,0.5,1.4,0.5c0.4,0,0.7,0,1.1-0.1s0.7-0.2,1.1-0.4v1.1
		c-0.3,0.2-0.7,0.3-1,0.3S324.3,36.6,323.9,36.6z M323.6,31c-0.4,0-0.8,0.1-1.1,0.4s-0.4,0.7-0.5,1.2h2.9c0-0.5-0.1-0.9-0.4-1.2
		S324,31,323.6,31z"/>
	<path class="st2" d="M336.5,36.5l-0.9-2.4h-3.3l-0.8,2.4h-1.5l3.2-8.6h1.5l3.2,8.6H336.5z M335.3,32.9l-0.8-2.3
		c-0.1-0.2-0.1-0.4-0.2-0.7s-0.2-0.6-0.2-0.7c-0.1,0.5-0.3,1-0.5,1.6l-0.8,2.2H335.3z"/>
	<path class="st2" d="M339.1,27.9h2.5c1.2,0,2,0.2,2.6,0.5s0.8,0.9,0.8,1.6c0,0.5-0.1,0.9-0.4,1.2s-0.6,0.5-1.1,0.6V32
		c0.6,0.1,1,0.3,1.3,0.7s0.4,0.8,0.4,1.4c0,0.8-0.3,1.4-0.8,1.8s-1.3,0.7-2.2,0.7h-3.1V27.9z M340.5,31.5h1.3c0.6,0,1-0.1,1.3-0.3
		s0.4-0.5,0.4-0.9c0-0.4-0.1-0.7-0.4-0.9s-0.8-0.3-1.4-0.3h-1.2V31.5z M340.5,32.6v2.7h1.5c0.6,0,1-0.1,1.3-0.3s0.4-0.6,0.4-1.1
		c0-0.4-0.2-0.8-0.5-1s-0.8-0.3-1.4-0.3H340.5z"/>
	<path class="st2" d="M350.7,29c-0.8,0-1.4,0.3-1.9,0.9s-0.7,1.4-0.7,2.4c0,1.1,0.2,1.8,0.7,2.4s1.1,0.8,1.9,0.8
		c0.4,0,0.7,0,1.1-0.1s0.7-0.2,1.1-0.3v1.2c-0.7,0.3-1.4,0.4-2.3,0.4c-1.3,0-2.2-0.4-2.9-1.1s-1-1.8-1-3.3c0-0.9,0.2-1.7,0.5-2.3
		s0.8-1.2,1.4-1.5s1.3-0.5,2.2-0.5c0.9,0,1.7,0.2,2.4,0.6l-0.5,1.2c-0.3-0.1-0.6-0.3-0.9-0.4S351.1,29,350.7,29z"/>
	<path class="st2" d="M354.3,35.8c0-0.3,0.1-0.5,0.2-0.7s0.4-0.2,0.6-0.2c0.3,0,0.5,0.1,0.7,0.2s0.2,0.4,0.2,0.6
		c0,0.3-0.1,0.5-0.2,0.7s-0.4,0.2-0.6,0.2s-0.5-0.1-0.6-0.2S354.3,36.1,354.3,35.8z"/>
</g>
<g>
	<g>
		<rect x="177.6" y="69.3" class="st1" width="254.4" height="3.5"/>
	</g>
	<g>
		<g>
			<path class="st1" d="M167,71c5,1.8,11.1,5,15,8.3l-3-8.3l3-8.3C178.2,66,172,69.2,167,71z"/>
		</g>
	</g>
</g>
<g>
	<path class="st1" d="M251.1,64.9v-8.6h1.4v8.6H251.1z"/>
	<path class="st1" d="M261.8,64.9l-0.3-0.9h0c-0.3,0.4-0.6,0.7-0.9,0.8s-0.7,0.2-1.2,0.2c-0.6,0-1.1-0.2-1.5-0.5s-0.5-0.8-0.5-1.5
		c0-0.7,0.2-1.2,0.7-1.5s1.3-0.5,2.3-0.6l1.1,0v-0.3c0-0.4-0.1-0.7-0.3-0.9s-0.5-0.3-0.9-0.3c-0.3,0-0.7,0-1,0.1s-0.6,0.2-0.9,0.3
		l-0.4-1c0.4-0.2,0.7-0.3,1.2-0.4s0.8-0.1,1.2-0.1c0.8,0,1.4,0.2,1.9,0.5s0.6,0.9,0.6,1.7v4.4H261.8z M259.8,64
		c0.5,0,0.9-0.1,1.2-0.4s0.5-0.7,0.5-1.2v-0.6l-0.8,0c-0.6,0-1.1,0.1-1.4,0.3s-0.4,0.5-0.4,0.9c0,0.3,0.1,0.5,0.3,0.7
		S259.4,64,259.8,64z"/>
	<path class="st1" d="M270.2,64.9h-1.4v-4c0-0.5-0.1-0.9-0.3-1.1s-0.5-0.4-0.9-0.4c-0.5,0-0.9,0.2-1.2,0.5s-0.4,0.9-0.4,1.7v3.2
		h-1.4v-6.5h1.1l0.2,0.8h0.1c0.2-0.3,0.4-0.5,0.8-0.7s0.7-0.3,1.1-0.3c1,0,1.7,0.3,2,1h0.1c0.2-0.3,0.5-0.6,0.8-0.8s0.7-0.3,1.2-0.3
		c0.8,0,1.3,0.2,1.7,0.6s0.5,1,0.5,1.8v4.2h-1.4v-4c0-0.5-0.1-0.9-0.3-1.1s-0.5-0.4-0.9-0.4c-0.5,0-0.9,0.2-1.2,0.5
		s-0.4,0.8-0.4,1.5V64.9z"/>
	<path class="st1" d="M279.5,56.3h2.5c1.2,0,2,0.2,2.6,0.5s0.8,0.9,0.8,1.6c0,0.5-0.1,0.9-0.4,1.2s-0.6,0.5-1.1,0.6v0.1
		c0.6,0.1,1,0.3,1.3,0.7s0.4,0.8,0.4,1.4c0,0.8-0.3,1.4-0.8,1.8s-1.3,0.7-2.2,0.7h-3.1V56.3z M280.9,59.9h1.3c0.6,0,1-0.1,1.3-0.3
		s0.4-0.5,0.4-0.9c0-0.4-0.1-0.7-0.4-0.9s-0.8-0.3-1.4-0.3h-1.2V59.9z M280.9,61v2.7h1.5c0.6,0,1-0.1,1.3-0.3s0.4-0.6,0.4-1.1
		c0-0.4-0.2-0.8-0.5-1s-0.8-0.3-1.4-0.3H280.9z"/>
	<path class="st1" d="M293,61.7c0,1.1-0.3,1.9-0.8,2.5s-1.3,0.9-2.3,0.9c-0.6,0-1.1-0.1-1.6-0.4s-0.8-0.7-1.1-1.2s-0.4-1.1-0.4-1.8
		c0-1.1,0.3-1.9,0.8-2.5s1.3-0.9,2.3-0.9c0.9,0,1.7,0.3,2.2,0.9S293,60.6,293,61.7z M288.3,61.7c0,1.5,0.6,2.2,1.7,2.2
		c1.1,0,1.6-0.7,1.6-2.2c0-1.5-0.6-2.2-1.7-2.2c-0.6,0-1,0.2-1.3,0.6S288.3,60.9,288.3,61.7z"/>
	<path class="st1" d="M297.9,58.3c0.8,0,1.4,0.3,1.9,0.9s0.7,1.4,0.7,2.5c0,1.1-0.2,1.9-0.7,2.5s-1.1,0.9-1.9,0.9
		c-0.8,0-1.5-0.3-1.9-0.9h-0.1l-0.3,0.8h-1v-9.1h1.4V58c0,0.2,0,0.4,0,0.7s0,0.5,0,0.6h0.1C296.4,58.6,297,58.3,297.9,58.3z
		 M297.5,59.4c-0.6,0-1,0.2-1.2,0.5s-0.4,0.9-0.4,1.6v0.1c0,0.8,0.1,1.4,0.4,1.7s0.7,0.5,1.2,0.5c0.5,0,0.9-0.2,1.1-0.6
		s0.4-0.9,0.4-1.7C299,60.2,298.5,59.4,297.5,59.4z"/>
	<path class="st1" d="M303.5,63.7c-0.2,0.7-0.5,1.7-1,2.8h-1c0.3-1.1,0.5-2,0.6-2.9h1.4L303.5,63.7z"/>
	<path class="st1" d="M313.8,64.9h-1.4v-4c0-0.5-0.1-0.9-0.3-1.1s-0.5-0.4-0.9-0.4c-0.5,0-0.9,0.2-1.2,0.5s-0.4,0.9-0.4,1.7v3.2
		h-1.4v-6.5h1.1l0.2,0.8h0.1c0.2-0.3,0.4-0.5,0.8-0.7s0.7-0.3,1.1-0.3c1,0,1.7,0.3,2,1h0.1c0.2-0.3,0.5-0.6,0.8-0.8s0.7-0.3,1.2-0.3
		c0.8,0,1.3,0.2,1.7,0.6s0.5,1,0.5,1.8v4.2h-1.4v-4c0-0.5-0.1-0.9-0.3-1.1s-0.5-0.4-0.9-0.4c-0.5,0-0.9,0.2-1.2,0.5
		s-0.4,0.8-0.4,1.5V64.9z"/>
	<path class="st1" d="M318.8,58.4h1.5l1.3,3.7c0.2,0.5,0.3,1,0.4,1.5h0c0-0.2,0.1-0.5,0.2-0.8s0.6-1.8,1.5-4.4h1.5l-2.8,7.3
		c-0.5,1.3-1.3,2-2.5,2c-0.3,0-0.6,0-0.9-0.1v-1.1c0.2,0,0.4,0.1,0.7,0.1c0.7,0,1.1-0.4,1.4-1.2l0.2-0.6L318.8,58.4z"/>
	<path class="st1" d="M331.6,65c-0.8,0-1.4-0.3-1.9-0.9s-0.7-1.4-0.7-2.5c0-1.1,0.2-1.9,0.7-2.5s1.1-0.9,1.9-0.9
		c0.9,0,1.5,0.3,1.9,0.9h0.1c-0.1-0.5-0.1-0.8-0.1-1.1v-2.4h1.4v9.1h-1.1l-0.2-0.8h-0.1C333.1,64.7,332.4,65,331.6,65z M331.9,63.9
		c0.6,0,1-0.2,1.2-0.5s0.4-0.8,0.4-1.5v-0.2c0-0.8-0.1-1.4-0.4-1.7s-0.7-0.5-1.2-0.5c-0.5,0-0.9,0.2-1.1,0.6s-0.4,1-0.4,1.7
		c0,0.7,0.1,1.3,0.4,1.6S331.4,63.9,331.9,63.9z"/>
	<path class="st1" d="M339.7,65c-1,0-1.8-0.3-2.4-0.9s-0.9-1.4-0.9-2.4c0-1.1,0.3-1.9,0.8-2.5s1.3-0.9,2.2-0.9c0.9,0,1.5,0.3,2,0.8
		s0.7,1.2,0.7,2.1V62h-4.3c0,0.6,0.2,1.1,0.5,1.5s0.8,0.5,1.4,0.5c0.4,0,0.7,0,1.1-0.1s0.7-0.2,1.1-0.4v1.1c-0.3,0.2-0.7,0.3-1,0.3
		S340.1,65,339.7,65z M339.4,59.4c-0.4,0-0.8,0.1-1.1,0.4s-0.4,0.7-0.5,1.2h2.9c0-0.5-0.1-0.9-0.4-1.2S339.9,59.4,339.4,59.4z"/>
	<path class="st1" d="M346.2,63.9c0.3,0,0.7-0.1,1-0.2v1c-0.2,0.1-0.3,0.1-0.6,0.2s-0.5,0.1-0.7,0.1c-1.3,0-2-0.7-2-2.1v-3.5H343
		v-0.6l0.9-0.5l0.5-1.4h0.8v1.4h1.8v1h-1.8v3.5c0,0.3,0.1,0.6,0.2,0.7S345.9,63.9,346.2,63.9z"/>
	<path class="st1" d="M352.5,64.9l-0.3-0.9h0c-0.3,0.4-0.6,0.7-0.9,0.8s-0.7,0.2-1.2,0.2c-0.6,0-1.1-0.2-1.5-0.5s-0.5-0.8-0.5-1.5
		c0-0.7,0.2-1.2,0.7-1.5S350,61,351,61l1.1,0v-0.3c0-0.4-0.1-0.7-0.3-0.9s-0.5-0.3-0.9-0.3c-0.3,0-0.7,0-1,0.1s-0.6,0.2-0.9,0.3
		l-0.4-1c0.4-0.2,0.7-0.3,1.2-0.4s0.8-0.1,1.2-0.1c0.8,0,1.4,0.2,1.9,0.5s0.6,0.9,0.6,1.7v4.4H352.5z M350.5,64
		c0.5,0,0.9-0.1,1.2-0.4s0.5-0.7,0.5-1.2v-0.6l-0.8,0c-0.6,0-1.1,0.1-1.4,0.3s-0.4,0.5-0.4,0.9c0,0.3,0.1,0.5,0.3,0.7
		S350.1,64,350.5,64z"/>
	<path class="st1" d="M355.4,56.7c0-0.2,0.1-0.4,0.2-0.6s0.3-0.2,0.6-0.2c0.2,0,0.4,0.1,0.6,0.2s0.2,0.3,0.2,0.6
		c0,0.2-0.1,0.4-0.2,0.6s-0.3,0.2-0.6,0.2c-0.3,0-0.4-0.1-0.6-0.2S355.4,56.9,355.4,56.7z M356.8,64.9h-1.4v-6.5h1.4V64.9z"/>
	<path class="st1" d="M360.2,64.9h-1.4v-9.1h1.4V64.9z"/>
	<path class="st1" d="M366.5,63.1c0,0.6-0.2,1.1-0.7,1.5s-1.1,0.5-2,0.5c-0.9,0-1.6-0.1-2.1-0.4v-1.2c0.8,0.4,1.5,0.5,2.1,0.5
		c0.8,0,1.3-0.3,1.3-0.8c0-0.2,0-0.3-0.1-0.4s-0.2-0.2-0.5-0.3s-0.5-0.3-0.9-0.4c-0.7-0.3-1.3-0.6-1.5-0.9s-0.4-0.7-0.4-1.1
		c0-0.6,0.2-1,0.7-1.3s1.1-0.5,1.8-0.5c0.8,0,1.5,0.2,2.2,0.5l-0.4,1c-0.7-0.3-1.3-0.4-1.8-0.4c-0.7,0-1.1,0.2-1.1,0.6
		c0,0.2,0.1,0.4,0.3,0.5s0.6,0.3,1.2,0.6c0.5,0.2,0.9,0.4,1.2,0.6s0.4,0.4,0.5,0.6S366.5,62.8,366.5,63.1z"/>
	<path class="st1" d="M375.2,64.9l-0.3-0.9h0c-0.3,0.4-0.6,0.7-0.9,0.8s-0.7,0.2-1.2,0.2c-0.6,0-1.1-0.2-1.5-0.5s-0.5-0.8-0.5-1.5
		c0-0.7,0.2-1.2,0.7-1.5s1.3-0.5,2.3-0.6l1.1,0v-0.3c0-0.4-0.1-0.7-0.3-0.9s-0.5-0.3-0.9-0.3c-0.3,0-0.7,0-1,0.1s-0.6,0.2-0.9,0.3
		l-0.4-1c0.4-0.2,0.7-0.3,1.2-0.4s0.8-0.1,1.2-0.1c0.8,0,1.4,0.2,1.9,0.5s0.6,0.9,0.6,1.7v4.4H375.2z M373.1,64
		c0.5,0,0.9-0.1,1.2-0.4s0.5-0.7,0.5-1.2v-0.6l-0.8,0c-0.6,0-1.1,0.1-1.4,0.3s-0.4,0.5-0.4,0.9c0,0.3,0.1,0.5,0.3,0.7
		S372.8,64,373.1,64z"/>
	<path class="st1" d="M381.3,58.3c0.3,0,0.5,0,0.7,0.1l-0.1,1.3c-0.2,0-0.4-0.1-0.6-0.1c-0.6,0-1,0.2-1.3,0.5s-0.5,0.8-0.5,1.4v3.4
		h-1.4v-6.5h1.1l0.2,1.1h0.1c0.2-0.4,0.5-0.7,0.8-0.9S381,58.3,381.3,58.3z"/>
	<path class="st1" d="M386.1,65c-1,0-1.8-0.3-2.4-0.9s-0.9-1.4-0.9-2.4c0-1.1,0.3-1.9,0.8-2.5s1.3-0.9,2.2-0.9c0.9,0,1.5,0.3,2,0.8
		s0.7,1.2,0.7,2.1V62h-4.3c0,0.6,0.2,1.1,0.5,1.5s0.8,0.5,1.4,0.5c0.4,0,0.7,0,1.1-0.1s0.7-0.2,1.1-0.4v1.1c-0.3,0.2-0.7,0.3-1,0.3
		S386.5,65,386.1,65z M385.8,59.4c-0.4,0-0.8,0.1-1.1,0.4s-0.4,0.7-0.5,1.2h2.9c0-0.5-0.1-0.9-0.4-1.2S386.3,59.4,385.8,59.4z"/>
	<path class="st1" d="M399.7,64.9h-1.6l-2.1-3.5l-2.2,3.5h-1.5l2.8-4.4l-2.7-4.1h1.6l2,3.2l2-3.2h1.5l-2.7,4.1L399.7,64.9z"/>
	<path class="st1" d="M403.3,60.3l2-3.9h1.5l-2.9,5.2v3.3h-1.4v-3.3l-2.8-5.3h1.5L403.3,60.3z"/>
	<path class="st1" d="M413.4,64.9h-6.1v-1l4.3-6.4h-4.2v-1.2h5.9v1l-4.3,6.4h4.5V64.9z"/>
	<path class="st1" d="M414.5,64.2c0-0.3,0.1-0.5,0.2-0.7s0.4-0.2,0.6-0.2c0.3,0,0.5,0.1,0.7,0.2s0.2,0.4,0.2,0.6
		c0,0.3-0.1,0.5-0.2,0.7s-0.4,0.2-0.6,0.2s-0.5-0.1-0.6-0.2S414.5,64.5,414.5,64.2z"/>
</g>
</svg>
