<?xml version="1.0" encoding="utf-8"?>
<!-- Generator: Adobe Illustrator 19.2.0, SVG Export Plug-In . SVG Version: 6.00 Build 0)  -->
<svg version="1.1" id="Layer_1" xmlns="http://www.w3.org/2000/svg" xmlns:xlink="http://www.w3.org/1999/xlink" x="0px" y="0px"
	 viewBox="0 0 600 209" style="enable-background:new 0 0 600 209;" xml:space="preserve">
<style type="text/css">
	.st0{fill:#484AB8;}
	.st1{fill:#FFFFFF;}
	.st2{fill:#B82025;}
</style>
<g>
	<g>
		<path class="st0" d="M291,110C291,110,291,110,291,110c-1,0-1.8-0.8-1.8-1.8l0-35.5H122.5c-1,0-1.8-0.8-1.8-1.8s0.8-1.8,1.8-1.8
			H291c0.5,0,0.9,0.2,1.2,0.5c0.3,0.3,0.5,0.8,0.5,1.2l0,37.2C292.8,109.2,292,110,291,110z"/>
	</g>
	<g>
		<g>
			<path class="st0" d="M291,118.8c1.8-5,5-11.1,8.3-15l-8.3,3l-8.3-3C286,107.7,289.2,113.9,291,118.8z"/>
		</g>
	</g>
</g>
<g>
	<g>
		<path d="M493,4.4h4.1c1.9,0,3.2,0.3,4,0.8c0.8,0.5,1.3,1.4,1.3,2.5c0,0.8-0.2,1.4-0.6,1.9c-0.4,0.5-0.9,0.8-1.5,0.9v0.1
			c0.8,0.2,1.4,0.5,1.8,1s0.6,1.2,0.6,2c0,1.2-0.4,2.1-1.3,2.8c-0.9,0.7-2,1-3.5,1H493V4.4z M495.8,9.6h1.6c0.8,0,1.3-0.1,1.6-0.3
			c0.3-0.2,0.5-0.6,0.5-1.2c0-0.5-0.2-0.9-0.6-1.1c-0.4-0.2-0.9-0.3-1.7-0.3h-1.5V9.6z M495.8,11.8v3.4h1.8c0.8,0,1.3-0.1,1.7-0.4
			c0.4-0.3,0.5-0.7,0.5-1.3c0-1.1-0.8-1.6-2.3-1.6H495.8z"/>
		<path d="M511.5,17.5l-0.5-1.4h-0.1c-0.5,0.6-0.9,1-1.4,1.2c-0.5,0.2-1.1,0.3-1.9,0.3c-1,0-1.7-0.3-2.3-0.8
			c-0.6-0.5-0.8-1.3-0.8-2.3c0-1.1,0.4-1.8,1.1-2.4c0.7-0.5,1.9-0.8,3.4-0.8l1.7-0.1v-0.4c0-1-0.5-1.5-1.6-1.5
			c-0.8,0-1.7,0.2-2.8,0.7l-0.9-1.8c1.2-0.6,2.4-0.9,3.8-0.9c1.3,0,2.4,0.3,3.1,0.9c0.7,0.6,1.1,1.5,1.1,2.7v6.7H511.5z M510.7,12.9
			l-1.1,0c-0.8,0-1.4,0.2-1.8,0.4c-0.4,0.3-0.6,0.7-0.6,1.2c0,0.8,0.4,1.2,1.3,1.2c0.6,0,1.1-0.2,1.5-0.5c0.4-0.4,0.6-0.8,0.6-1.5
			V12.9z"/>
		<path d="M525.5,17.5h-2.7v-5.9c0-0.7-0.1-1.3-0.4-1.6c-0.3-0.4-0.7-0.5-1.2-0.5c-0.8,0-1.3,0.3-1.7,0.8s-0.5,1.4-0.5,2.5v4.7h-2.7
			v-10h2.1l0.4,1.3h0.2c0.3-0.5,0.7-0.8,1.3-1.1c0.5-0.2,1.1-0.4,1.8-0.4c1.2,0,2,0.3,2.7,0.9c0.6,0.6,0.9,1.5,0.9,2.7V17.5z"/>
		<path d="M530.9,12.1l1.2-1.5l2.8-3h3.1l-4,4.3l4.2,5.7h-3.2l-2.9-4.1l-1.2,0.9v3.1h-2.7V3.6h2.7v6.2L530.9,12.1L530.9,12.1z"/>
	</g>
	<g>
		<g>
			<path class="st1" d="M531.5,81.9h-33.1c-2.9,0-5.2-2.3-5.2-5.2v-39c0-2.9,2.3-5.2,5.2-5.2h33.1c2.9,0,5.2,2.3,5.2,5.2v39
				C536.7,79.6,534.4,81.9,531.5,81.9z"/>
			<path d="M531.5,84.2h-33.1c-4.1,0-7.5-3.3-7.5-7.5v-39c0-4.1,3.3-7.5,7.5-7.5h33.1c4.1,0,7.5,3.3,7.5,7.5v39
				C539,80.8,535.6,84.2,531.5,84.2z M498.5,34.8c-1.6,0-3,1.3-3,3v39c0,1.6,1.3,3,3,3h33.1c1.6,0,3-1.3,3-3v-39c0-1.6-1.3-3-3-3
				H498.5z"/>
		</g>
		<g>
			<g>
				<rect x="499.5" y="41.9" width="31" height="4.5"/>
			</g>
			<g>
				<rect x="499.5" y="55" width="31" height="4.5"/>
			</g>
			<g>
				<rect x="499.5" y="68" width="31" height="4.5"/>
			</g>
		</g>
	</g>
</g>
<g>
	<g>
		<g>
			<path class="st1" d="M102.4,64.9H67.1c-2.8,0-5.1-2.3-5.1-5.1V36c0-2.8,2.3-5.1,5.1-5.1h35.3c2.8,0,5.1,2.3,5.1,5.1v23.9
				C107.4,62.6,105.2,64.9,102.4,64.9z"/>
			<path d="M102.4,66.4H67.1c-3.6,0-6.6-2.9-6.6-6.6V36c0-3.6,2.9-6.6,6.6-6.6h35.3c3.6,0,6.6,2.9,6.6,6.6v23.9
				C108.9,63.5,106,66.4,102.4,66.4z M67.1,32.4c-2,0-3.6,1.6-3.6,3.6v23.9c0,2,1.6,3.6,3.6,3.6h35.3c2,0,3.6-1.6,3.6-3.6V36
				c0-2-1.6-3.6-3.6-3.6H67.1z"/>
		</g>
		<g>
			<g>
				<path class="st1" d="M59.9,83.2c-1.1,0-1.5-0.8-1-1.7l5.5-9.1c0.6-0.9,1.9-1.8,3-1.8h34.9c1.1,0,2.5,0.9,3,1.8l5.6,9.4
					c0.6,0.9,0.1,1.7-1,1.7L59.9,83.2z"/>
			</g>
			<g>
				<path d="M110.1,85.5C110.1,85.5,110.1,85.5,110.1,85.5l-50.2-0.6c-1.1,0-2-0.6-2.4-1.4c-0.5-0.8-0.4-1.9,0.2-2.8l5.5-8.9
					c0.9-1.6,2.9-2.3,4.3-2.3h34.9c1.4,0,3.4,0.7,4.3,2.3l5.6,9.3c0.6,0.9,0.6,2.1,0.2,2.9S111.2,85.5,110.1,85.5z M60.6,81.7
					l48.8,0.4l-5.2-8.7c-0.3-0.4-1.1-0.8-1.7-0.8H67.5c-0.7,0-1.5,0.4-1.7,0.8L60.6,81.7z"/>
			</g>
		</g>
		<g>
			<rect x="76.4" y="64.9" width="16.7" height="5.8"/>
		</g>
		<g>
			<path class="st0" d="M100,59.3H69.5c-0.7,0-1.2-0.5-1.2-1.2V37.7c0-0.7,0.5-1.2,1.2-1.2H100c0.7,0,1.2,0.5,1.2,1.2v20.4
				C101.2,58.8,100.6,59.3,100,59.3z"/>
		</g>
	</g>
	<g>
		<path d="M72.4,17.5l-1-3.1h-4.8l-0.9,3.1h-3l4.6-13.2h3.4l4.6,13.2H72.4z M70.8,12.1c-0.9-2.8-1.4-4.4-1.5-4.8
			c-0.1-0.4-0.2-0.7-0.2-0.9c-0.2,0.8-0.8,2.7-1.7,5.7H70.8z"/>
		<path d="M79.6,17.5h-2.7V3.6h2.7V17.5z"/>
		<path d="M82.3,4.9c0-0.9,0.5-1.3,1.5-1.3s1.5,0.4,1.5,1.3c0,0.4-0.1,0.8-0.4,1c-0.2,0.2-0.6,0.4-1.1,0.4
			C82.8,6.2,82.3,5.8,82.3,4.9z M85.2,17.5h-2.7v-10h2.7V17.5z"/>
		<path d="M92.1,17.7c-3.1,0-4.7-1.7-4.7-5.1c0-1.7,0.4-3,1.3-3.9c0.8-0.9,2.1-1.3,3.6-1.3c1.2,0,2.2,0.2,3.1,0.7l-0.8,2.1
			c-0.4-0.2-0.8-0.3-1.2-0.4c-0.4-0.1-0.7-0.2-1.1-0.2c-1.4,0-2.1,1-2.1,3c0,2,0.7,2.9,2.1,2.9c0.5,0,1-0.1,1.5-0.2
			c0.4-0.1,0.9-0.4,1.3-0.7v2.3c-0.4,0.3-0.9,0.5-1.3,0.6C93.4,17.6,92.8,17.7,92.1,17.7z"/>
		<path d="M102,17.7c-1.6,0-2.9-0.4-3.8-1.3s-1.4-2.2-1.4-3.8c0-1.7,0.4-3,1.3-3.9c0.8-0.9,2-1.4,3.5-1.4c1.4,0,2.5,0.4,3.3,1.2
			c0.8,0.8,1.2,1.9,1.2,3.3v1.3h-6.5c0,0.8,0.3,1.4,0.7,1.8c0.4,0.4,1,0.7,1.8,0.7c0.6,0,1.2-0.1,1.7-0.2c0.5-0.1,1.1-0.3,1.7-0.6
			V17c-0.5,0.2-1,0.4-1.5,0.5C103.5,17.6,102.8,17.7,102,17.7z M101.6,9.2c-0.6,0-1,0.2-1.4,0.6c-0.3,0.4-0.5,0.9-0.6,1.6h3.8
			c0-0.7-0.2-1.2-0.5-1.6C102.7,9.4,102.2,9.2,101.6,9.2z"/>
	</g>
</g>
<g>
	<g>
		<path class="st2" d="M309.1,120.6c-1,0-1.8-0.8-1.8-1.8V69.3h159.6c1,0,1.8,0.8,1.8,1.8s-0.8,1.8-1.8,1.8H310.8v46
			C310.8,119.8,310.1,120.6,309.1,120.6z"/>
	</g>
	<g>
		<g>
			<path class="st2" d="M477.5,71.1c-5-1.8-11.1-5-15-8.3l3,8.3l-3,8.3C466.4,76,472.5,72.9,477.5,71.1z"/>
		</g>
	</g>
</g>
<g>
	<path class="st0" d="M134,62.6c0,0.8-0.3,1.4-0.8,1.8s-1.3,0.7-2.3,0.7s-1.8-0.2-2.4-0.5v-1.3c0.4,0.2,0.8,0.3,1.2,0.4
		s0.8,0.2,1.2,0.2c0.6,0,1-0.1,1.2-0.3s0.4-0.5,0.4-0.8c0-0.3-0.1-0.6-0.4-0.8s-0.7-0.5-1.5-0.8c-0.8-0.3-1.3-0.7-1.7-1.1
		s-0.5-0.9-0.5-1.5c0-0.7,0.3-1.3,0.8-1.7s1.2-0.6,2-0.6c0.8,0,1.6,0.2,2.4,0.5l-0.4,1.1c-0.8-0.3-1.4-0.5-2-0.5
		c-0.5,0-0.8,0.1-1,0.3s-0.4,0.5-0.4,0.8c0,0.2,0,0.4,0.1,0.6s0.2,0.3,0.5,0.4s0.6,0.3,1.2,0.6c0.6,0.3,1.1,0.5,1.4,0.7
		s0.5,0.5,0.6,0.8S134,62.2,134,62.6z"/>
	<path class="st0" d="M138.4,65c-1,0-1.8-0.3-2.4-0.9s-0.9-1.4-0.9-2.4c0-1.1,0.3-1.9,0.8-2.5s1.3-0.9,2.2-0.9c0.9,0,1.5,0.3,2,0.8
		s0.7,1.2,0.7,2.1V62h-4.3c0,0.6,0.2,1.1,0.5,1.5s0.8,0.5,1.4,0.5c0.4,0,0.7,0,1.1-0.1s0.7-0.2,1.1-0.4v1.1c-0.3,0.2-0.7,0.3-1,0.3
		S138.8,65,138.4,65z M138.1,59.4c-0.4,0-0.8,0.1-1.1,0.4s-0.4,0.7-0.5,1.2h2.9c0-0.5-0.1-0.9-0.4-1.2S138.5,59.4,138.1,59.4z"/>
	<path class="st0" d="M148.1,64.9h-1.4v-4c0-0.5-0.1-0.9-0.3-1.1s-0.5-0.4-1-0.4c-0.6,0-1,0.2-1.3,0.5s-0.4,0.9-0.4,1.7v3.2h-1.4
		v-6.5h1.1l0.2,0.8h0.1c0.2-0.3,0.5-0.5,0.8-0.7s0.8-0.3,1.2-0.3c1.6,0,2.3,0.8,2.3,2.4V64.9z"/>
	<path class="st0" d="M152.2,65c-0.8,0-1.4-0.3-1.9-0.9s-0.7-1.4-0.7-2.5c0-1.1,0.2-1.9,0.7-2.5s1.1-0.9,1.9-0.9
		c0.9,0,1.5,0.3,1.9,0.9h0.1c-0.1-0.5-0.1-0.8-0.1-1.1v-2.4h1.4v9.1h-1.1l-0.2-0.8h-0.1C153.7,64.7,153.1,65,152.2,65z M152.6,63.9
		c0.6,0,1-0.2,1.2-0.5s0.4-0.8,0.4-1.5v-0.2c0-0.8-0.1-1.4-0.4-1.7s-0.7-0.5-1.2-0.5c-0.5,0-0.9,0.2-1.1,0.6s-0.4,1-0.4,1.7
		c0,0.7,0.1,1.3,0.4,1.6S152.1,63.9,152.6,63.9z"/>
	<path class="st0" d="M165.9,62.3c0,0.6-0.2,1-0.6,1.4s-1,0.6-1.8,0.7v1.3h-0.8v-1.2c-1,0-1.8-0.2-2.4-0.4v-1.2
		c0.3,0.2,0.7,0.3,1.2,0.4s0.9,0.2,1.2,0.2v-2.2l-0.5-0.2c-0.6-0.2-1.1-0.5-1.4-0.9s-0.4-0.8-0.4-1.3c0-0.5,0.2-1,0.6-1.3
		s1-0.6,1.7-0.6v-1h0.8v1c0.8,0,1.5,0.2,2.3,0.5l-0.4,1.1c-0.6-0.2-1.2-0.4-1.8-0.4V60l0.4,0.2c0.7,0.3,1.3,0.6,1.5,0.9
		S165.9,61.8,165.9,62.3z M161.7,58.7c0,0.2,0.1,0.4,0.2,0.6s0.4,0.3,0.8,0.4v-1.8c-0.3,0-0.6,0.1-0.7,0.3S161.7,58.5,161.7,58.7z
		 M164.5,62.3c0-0.2-0.1-0.4-0.2-0.6s-0.4-0.3-0.8-0.4v1.9C164.2,63.1,164.5,62.8,164.5,62.3z"/>
	<path class="st0" d="M171.1,64.9h-1.4v-5.5c0-0.7,0-1.2,0-1.6c-0.1,0.1-0.2,0.2-0.3,0.3s-0.6,0.5-1.3,1.1l-0.7-0.9l2.5-2h1.1V64.9z
		"/>
	<path class="st0" d="M179.7,60.6c0,1.5-0.2,2.6-0.7,3.3s-1.2,1.1-2.2,1.1c-1,0-1.7-0.4-2.2-1.1s-0.7-1.8-0.7-3.3
		c0-1.5,0.2-2.6,0.7-3.3s1.2-1.1,2.2-1.1c1,0,1.7,0.4,2.2,1.1S179.7,59.2,179.7,60.6z M175.3,60.6c0,1.2,0.1,2,0.4,2.5
		s0.6,0.8,1.2,0.8s0.9-0.3,1.2-0.8s0.4-1.3,0.4-2.5c0-1.1-0.1-2-0.4-2.5s-0.6-0.8-1.2-0.8s-0.9,0.3-1.2,0.8S175.3,59.5,175.3,60.6z"
		/>
	<path class="st0" d="M186.5,60.6c0,1.5-0.2,2.6-0.7,3.3s-1.2,1.1-2.2,1.1c-1,0-1.7-0.4-2.2-1.1s-0.7-1.8-0.7-3.3
		c0-1.5,0.2-2.6,0.7-3.3s1.2-1.1,2.2-1.1c1,0,1.7,0.4,2.2,1.1S186.5,59.2,186.5,60.6z M182.1,60.6c0,1.2,0.1,2,0.4,2.5
		s0.6,0.8,1.2,0.8s0.9-0.3,1.2-0.8s0.4-1.3,0.4-2.5c0-1.1-0.1-2-0.4-2.5s-0.6-0.8-1.2-0.8s-0.9,0.3-1.2,0.8S182.1,59.5,182.1,60.6z"
		/>
	<path class="st0" d="M193.6,63.9c0.3,0,0.7-0.1,1-0.2v1c-0.2,0.1-0.3,0.1-0.6,0.2s-0.5,0.1-0.7,0.1c-1.3,0-2-0.7-2-2.1v-3.5h-0.9
		v-0.6l0.9-0.5l0.5-1.4h0.8v1.4h1.8v1h-1.8v3.5c0,0.3,0.1,0.6,0.2,0.7S193.3,63.9,193.6,63.9z"/>
	<path class="st0" d="M201.6,61.7c0,1.1-0.3,1.9-0.8,2.5s-1.3,0.9-2.3,0.9c-0.6,0-1.1-0.1-1.6-0.4s-0.8-0.7-1.1-1.2
		s-0.4-1.1-0.4-1.8c0-1.1,0.3-1.9,0.8-2.5s1.3-0.9,2.3-0.9c0.9,0,1.7,0.3,2.2,0.9S201.6,60.6,201.6,61.7z M196.9,61.7
		c0,1.5,0.6,2.2,1.7,2.2c1.1,0,1.6-0.7,1.6-2.2c0-1.5-0.6-2.2-1.7-2.2c-0.6,0-1,0.2-1.3,0.6S196.9,60.9,196.9,61.7z"/>
	<path class="st0" d="M206.5,56.3h2.5c1.2,0,2,0.2,2.6,0.5s0.8,0.9,0.8,1.6c0,0.5-0.1,0.9-0.4,1.2s-0.6,0.5-1.1,0.6v0.1
		c0.6,0.1,1,0.3,1.3,0.7s0.4,0.8,0.4,1.4c0,0.8-0.3,1.4-0.8,1.8s-1.3,0.7-2.2,0.7h-3.1V56.3z M207.9,59.9h1.3c0.6,0,1-0.1,1.3-0.3
		s0.4-0.5,0.4-0.9c0-0.4-0.1-0.7-0.4-0.9s-0.8-0.3-1.4-0.3h-1.2V59.9z M207.9,61v2.7h1.5c0.6,0,1-0.1,1.3-0.3s0.4-0.6,0.4-1.1
		c0-0.4-0.2-0.8-0.5-1s-0.8-0.3-1.4-0.3H207.9z"/>
	<path class="st0" d="M220,61.7c0,1.1-0.3,1.9-0.8,2.5s-1.3,0.9-2.3,0.9c-0.6,0-1.1-0.1-1.6-0.4s-0.8-0.7-1.1-1.2s-0.4-1.1-0.4-1.8
		c0-1.1,0.3-1.9,0.8-2.5s1.3-0.9,2.3-0.9c0.9,0,1.7,0.3,2.2,0.9S220,60.6,220,61.7z M215.3,61.7c0,1.5,0.6,2.2,1.7,2.2
		c1.1,0,1.6-0.7,1.6-2.2c0-1.5-0.6-2.2-1.7-2.2c-0.6,0-1,0.2-1.3,0.6S215.3,60.9,215.3,61.7z"/>
	<path class="st0" d="M224.9,58.3c0.8,0,1.4,0.3,1.9,0.9s0.7,1.4,0.7,2.5c0,1.1-0.2,1.9-0.7,2.5s-1.1,0.9-1.9,0.9
		c-0.8,0-1.5-0.3-1.9-0.9h-0.1l-0.3,0.8h-1v-9.1h1.4V58c0,0.2,0,0.4,0,0.7s0,0.5,0,0.6h0.1C223.4,58.6,224,58.3,224.9,58.3z
		 M224.5,59.4c-0.6,0-1,0.2-1.2,0.5s-0.4,0.9-0.4,1.6v0.1c0,0.8,0.1,1.4,0.4,1.7s0.7,0.5,1.2,0.5c0.5,0,0.9-0.2,1.1-0.6
		s0.4-0.9,0.4-1.7C226,60.2,225.5,59.4,224.5,59.4z"/>
</g>
<g>
	<g>
		<g>
			<path class="st1" d="M317.4,186.9h-35.3c-2.8,0-5.1-2.3-5.1-5.1V158c0-2.8,2.3-5.1,5.1-5.1h35.3c2.8,0,5.1,2.3,5.1,5.1v23.9
				C322.4,184.6,320.2,186.9,317.4,186.9z"/>
			<path d="M317.4,188.4h-35.3c-3.6,0-6.6-2.9-6.6-6.6V158c0-3.6,2.9-6.6,6.6-6.6h35.3c3.6,0,6.6,2.9,6.6,6.6v23.9
				C323.9,185.5,321,188.4,317.4,188.4z M282.1,154.4c-2,0-3.6,1.6-3.6,3.6v23.9c0,2,1.6,3.6,3.6,3.6h35.3c2,0,3.6-1.6,3.6-3.6V158
				c0-2-1.6-3.6-3.6-3.6H282.1z"/>
		</g>
		<g>
			<g>
				<path class="st1" d="M274.9,205.2c-1.1,0-1.5-0.8-1-1.7l5.5-9.1c0.6-0.9,1.9-1.8,3-1.8h34.9c1.1,0,2.5,0.9,3,1.8l5.6,9.4
					c0.6,0.9,0.1,1.7-1,1.7L274.9,205.2z"/>
			</g>
			<g>
				<path d="M325.1,207.5C325.1,207.5,325.1,207.5,325.1,207.5l-50.2-0.6c-1.1,0-2-0.6-2.4-1.4c-0.5-0.8-0.4-1.9,0.2-2.8l5.5-8.9
					c0.9-1.6,2.9-2.3,4.3-2.3h34.9c1.4,0,3.4,0.7,4.3,2.3l5.6,9.3c0.6,0.9,0.6,2.1,0.2,2.9S326.2,207.5,325.1,207.5z M275.6,203.7
					l48.8,0.4l-5.2-8.7c-0.3-0.4-1.1-0.8-1.7-0.8h-34.9c-0.7,0-1.5,0.4-1.7,0.8L275.6,203.7z"/>
			</g>
		</g>
		<g>
			<rect x="291.4" y="186.9" width="16.7" height="5.8"/>
		</g>
		<g>
			<path class="st2" d="M315,181.3h-30.4c-0.7,0-1.2-0.5-1.2-1.2v-20.4c0-0.7,0.5-1.2,1.2-1.2H315c0.7,0,1.2,0.5,1.2,1.2v20.4
				C316.2,180.8,315.6,181.3,315,181.3z"/>
		</g>
	</g>
	<g>
		<path d="M293.2,139.5h-7.5v-13.1h7.5v2.3h-4.8v2.9h4.4v2.3h-4.4v3.4h4.8V139.5z"/>
		<path d="M298.1,139.5l-3.8-10h2.9l1.9,5.7c0.2,0.7,0.3,1.4,0.4,2.1h0.1c0-0.6,0.2-1.3,0.4-2.1l1.9-5.7h2.9l-3.8,10H298.1z"/>
		<path d="M310.7,139.7c-1.6,0-2.9-0.4-3.8-1.3s-1.4-2.2-1.4-3.8c0-1.7,0.4-3,1.3-3.9c0.8-0.9,2-1.4,3.5-1.4c1.4,0,2.5,0.4,3.3,1.2
			c0.8,0.8,1.2,1.9,1.2,3.3v1.3h-6.5c0,0.8,0.3,1.4,0.7,1.8c0.4,0.4,1,0.7,1.8,0.7c0.6,0,1.2-0.1,1.7-0.2c0.5-0.1,1.1-0.3,1.7-0.6
			v2.1c-0.5,0.2-1,0.4-1.5,0.5C312.2,139.6,311.5,139.7,310.7,139.7z M310.3,131.2c-0.6,0-1,0.2-1.4,0.6c-0.3,0.4-0.5,0.9-0.6,1.6
			h3.8c0-0.7-0.2-1.2-0.5-1.6C311.4,131.4,310.9,131.2,310.3,131.2z"/>
	</g>
</g>
<g>
	<path d="M353.5,128h-4.8v-8.6h4.8v1.2H350v2.3h3.2v1.2H350v2.7h3.4V128z"/>
	<path d="M356.7,128l-2.5-6.5h1.5l1.3,3.8c0.2,0.6,0.4,1.1,0.4,1.5h0c0-0.3,0.2-0.8,0.4-1.5l1.3-3.8h1.5l-2.5,6.5H356.7z"/>
	<path d="M364.4,128.1c-1,0-1.8-0.3-2.4-0.9s-0.9-1.4-0.9-2.4c0-1.1,0.3-1.9,0.8-2.5s1.3-0.9,2.2-0.9c0.9,0,1.5,0.3,2,0.8
		s0.7,1.2,0.7,2.1v0.7h-4.3c0,0.6,0.2,1.1,0.5,1.5s0.8,0.5,1.4,0.5c0.4,0,0.7,0,1.1-0.1s0.7-0.2,1.1-0.4v1.1c-0.3,0.2-0.7,0.3-1,0.3
		S364.9,128.1,364.4,128.1z M364.2,122.4c-0.4,0-0.8,0.1-1.1,0.4s-0.4,0.7-0.5,1.2h2.9c0-0.5-0.1-0.9-0.4-1.2
		S364.6,122.4,364.2,122.4z"/>
	<path d="M371.6,119.8c0-0.2,0.1-0.4,0.2-0.6s0.3-0.2,0.6-0.2c0.2,0,0.4,0.1,0.6,0.2s0.2,0.3,0.2,0.6c0,0.2-0.1,0.4-0.2,0.6
		s-0.3,0.2-0.6,0.2c-0.3,0-0.4-0.1-0.6-0.2S371.6,120,371.6,119.8z M373,128h-1.4v-6.5h1.4V128z"/>
	<path d="M380.7,128h-1.4v-4c0-0.5-0.1-0.9-0.3-1.1s-0.5-0.4-1-0.4c-0.6,0-1,0.2-1.3,0.5s-0.4,0.9-0.4,1.7v3.2H375v-6.5h1.1l0.2,0.8
		h0.1c0.2-0.3,0.5-0.5,0.8-0.7s0.8-0.3,1.2-0.3c1.6,0,2.3,0.8,2.3,2.4V128z"/>
	<path d="M385,127c0.3,0,0.7-0.1,1-0.2v1c-0.2,0.1-0.3,0.1-0.6,0.2s-0.5,0.1-0.7,0.1c-1.3,0-2-0.7-2-2.1v-3.5h-0.9v-0.6l0.9-0.5
		l0.5-1.4h0.8v1.4h1.8v1h-1.8v3.5c0,0.3,0.1,0.6,0.2,0.7S384.7,127,385,127z"/>
	<path d="M390.1,128.1c-1,0-1.8-0.3-2.4-0.9s-0.9-1.4-0.9-2.4c0-1.1,0.3-1.9,0.8-2.5s1.3-0.9,2.2-0.9c0.9,0,1.5,0.3,2,0.8
		s0.7,1.2,0.7,2.1v0.7h-4.3c0,0.6,0.2,1.1,0.5,1.5s0.8,0.5,1.4,0.5c0.4,0,0.7,0,1.1-0.1s0.7-0.2,1.1-0.4v1.1c-0.3,0.2-0.7,0.3-1,0.3
		S390.6,128.1,390.1,128.1z M389.9,122.4c-0.4,0-0.8,0.1-1.1,0.4s-0.4,0.7-0.5,1.2h2.9c0-0.5-0.1-0.9-0.4-1.2
		S390.3,122.4,389.9,122.4z"/>
	<path d="M397.5,121.4c0.3,0,0.5,0,0.7,0.1l-0.1,1.3c-0.2,0-0.4-0.1-0.6-0.1c-0.6,0-1,0.2-1.3,0.5s-0.5,0.8-0.5,1.4v3.4h-1.4v-6.5
		h1.1l0.2,1.1h0.1c0.2-0.4,0.5-0.7,0.8-0.9S397.1,121.4,397.5,121.4z"/>
	<path d="M402,128.1c-1,0-1.7-0.3-2.2-0.9s-0.8-1.4-0.8-2.5c0-1.1,0.3-1.9,0.8-2.5s1.3-0.9,2.3-0.9c0.7,0,1.3,0.1,1.8,0.4l-0.4,1.1
		c-0.6-0.2-1.1-0.3-1.4-0.3c-1.1,0-1.7,0.7-1.7,2.2c0,0.7,0.1,1.3,0.4,1.6s0.7,0.5,1.2,0.5c0.6,0,1.2-0.2,1.7-0.5v1.2
		c-0.2,0.1-0.5,0.2-0.8,0.3S402.4,128.1,402,128.1z"/>
	<path d="M408.2,128.1c-1,0-1.8-0.3-2.4-0.9s-0.9-1.4-0.9-2.4c0-1.1,0.3-1.9,0.8-2.5s1.3-0.9,2.2-0.9c0.9,0,1.5,0.3,2,0.8
		s0.7,1.2,0.7,2.1v0.7h-4.3c0,0.6,0.2,1.1,0.5,1.5s0.8,0.5,1.4,0.5c0.4,0,0.7,0,1.1-0.1s0.7-0.2,1.1-0.4v1.1c-0.3,0.2-0.7,0.3-1,0.3
		S408.6,128.1,408.2,128.1z M407.9,122.4c-0.4,0-0.8,0.1-1.1,0.4s-0.4,0.7-0.5,1.2h2.9c0-0.5-0.1-0.9-0.4-1.2
		S408.4,122.4,407.9,122.4z"/>
	<path d="M415.5,128.1c-0.8,0-1.5-0.3-1.9-0.9h-0.1c0.1,0.5,0.1,0.9,0.1,1v2.7h-1.4v-9.4h1.1c0,0.1,0.1,0.4,0.2,0.9h0.1
		c0.4-0.7,1.1-1,1.9-1c0.8,0,1.4,0.3,1.9,0.9s0.7,1.4,0.7,2.5s-0.2,1.9-0.7,2.5S416.4,128.1,415.5,128.1z M415.2,122.5
		c-0.5,0-0.9,0.2-1.2,0.5s-0.4,0.8-0.4,1.5v0.2c0,0.8,0.1,1.4,0.4,1.7s0.7,0.5,1.2,0.5c0.5,0,0.8-0.2,1.1-0.6s0.4-0.9,0.4-1.7
		c0-0.7-0.1-1.3-0.4-1.6S415.7,122.5,415.2,122.5z"/>
	<path d="M422.1,127c0.3,0,0.7-0.1,1-0.2v1c-0.2,0.1-0.3,0.1-0.6,0.2s-0.5,0.1-0.7,0.1c-1.3,0-2-0.7-2-2.1v-3.5H419v-0.6l0.9-0.5
		l0.5-1.4h0.8v1.4h1.8v1h-1.8v3.5c0,0.3,0.1,0.6,0.2,0.7S421.9,127,422.1,127z"/>
	<path d="M428.8,126.1c0,0.6-0.2,1.1-0.7,1.5s-1.1,0.5-2,0.5c-0.9,0-1.6-0.1-2.1-0.4v-1.2c0.8,0.4,1.5,0.5,2.1,0.5
		c0.8,0,1.3-0.3,1.3-0.8c0-0.2,0-0.3-0.1-0.4s-0.2-0.2-0.5-0.3s-0.5-0.3-0.9-0.4c-0.7-0.3-1.3-0.6-1.5-0.9s-0.4-0.7-0.4-1.1
		c0-0.6,0.2-1,0.7-1.3s1.1-0.5,1.8-0.5c0.8,0,1.5,0.2,2.2,0.5l-0.4,1c-0.7-0.3-1.3-0.4-1.8-0.4c-0.7,0-1.1,0.2-1.1,0.6
		c0,0.2,0.1,0.4,0.3,0.5s0.6,0.3,1.2,0.6c0.5,0.2,0.9,0.4,1.2,0.6s0.4,0.4,0.5,0.6S428.8,125.8,428.8,126.1z"/>
	<path d="M437.5,128l-0.3-0.9h0c-0.3,0.4-0.6,0.7-0.9,0.8s-0.7,0.2-1.2,0.2c-0.6,0-1.1-0.2-1.5-0.5s-0.5-0.8-0.5-1.5
		c0-0.7,0.2-1.2,0.7-1.5s1.3-0.5,2.3-0.6l1.1,0v-0.3c0-0.4-0.1-0.7-0.3-0.9s-0.5-0.3-0.9-0.3c-0.3,0-0.7,0-1,0.1s-0.6,0.2-0.9,0.3
		l-0.4-1c0.4-0.2,0.7-0.3,1.2-0.4s0.8-0.1,1.2-0.1c0.8,0,1.4,0.2,1.9,0.5s0.6,0.9,0.6,1.7v4.4H437.5z M435.4,127
		c0.5,0,0.9-0.1,1.2-0.4s0.5-0.7,0.5-1.2v-0.6l-0.8,0c-0.6,0-1.1,0.1-1.4,0.3s-0.4,0.5-0.4,0.9c0,0.3,0.1,0.5,0.3,0.7
		S435.1,127,435.4,127z"/>
	<path d="M446.1,128h-1.4v-4c0-0.5-0.1-0.9-0.3-1.1s-0.5-0.4-1-0.4c-0.6,0-1,0.2-1.3,0.5s-0.4,0.9-0.4,1.7v3.2h-1.4v-6.5h1.1
		l0.2,0.8h0.1c0.2-0.3,0.5-0.5,0.8-0.7s0.8-0.3,1.2-0.3c1.6,0,2.3,0.8,2.3,2.4V128z"/>
	<path d="M450.2,128.1c-0.8,0-1.4-0.3-1.9-0.9s-0.7-1.4-0.7-2.5c0-1.1,0.2-1.9,0.7-2.5s1.1-0.9,1.9-0.9c0.9,0,1.5,0.3,1.9,0.9h0.1
		c-0.1-0.5-0.1-0.8-0.1-1.1v-2.4h1.4v9.1h-1.1l-0.2-0.8h-0.1C451.7,127.7,451,128.1,450.2,128.1z M450.5,127c0.6,0,1-0.2,1.2-0.5
		s0.4-0.8,0.4-1.5v-0.2c0-0.8-0.1-1.4-0.4-1.7s-0.7-0.5-1.2-0.5c-0.5,0-0.9,0.2-1.1,0.6s-0.4,1-0.4,1.7c0,0.7,0.1,1.3,0.4,1.6
		S450,127,450.5,127z"/>
	<path d="M461.9,121.4c0.3,0,0.5,0,0.7,0.1l-0.1,1.3c-0.2,0-0.4-0.1-0.6-0.1c-0.6,0-1,0.2-1.3,0.5s-0.5,0.8-0.5,1.4v3.4h-1.4v-6.5
		h1.1l0.2,1.1h0.1c0.2-0.4,0.5-0.7,0.8-0.9S461.5,121.4,461.9,121.4z"/>
	<path d="M466.6,128.1c-1,0-1.8-0.3-2.4-0.9s-0.9-1.4-0.9-2.4c0-1.1,0.3-1.9,0.8-2.5s1.3-0.9,2.2-0.9c0.9,0,1.5,0.3,2,0.8
		s0.7,1.2,0.7,2.1v0.7h-4.3c0,0.6,0.2,1.1,0.5,1.5s0.8,0.5,1.4,0.5c0.4,0,0.7,0,1.1-0.1s0.7-0.2,1.1-0.4v1.1c-0.3,0.2-0.7,0.3-1,0.3
		S467,128.1,466.6,128.1z M466.3,122.4c-0.4,0-0.8,0.1-1.1,0.4s-0.4,0.7-0.5,1.2h2.9c0-0.5-0.1-0.9-0.4-1.2S466.8,122.4,466.3,122.4
		z"/>
	<path d="M474,128.1c-0.8,0-1.5-0.3-1.9-0.9H472c0.1,0.5,0.1,0.9,0.1,1v2.7h-1.4v-9.4h1.1c0,0.1,0.1,0.4,0.2,0.9h0.1
		c0.4-0.7,1.1-1,1.9-1c0.8,0,1.4,0.3,1.9,0.9s0.7,1.4,0.7,2.5s-0.2,1.9-0.7,2.5S474.8,128.1,474,128.1z M473.6,122.5
		c-0.5,0-0.9,0.2-1.2,0.5s-0.4,0.8-0.4,1.5v0.2c0,0.8,0.1,1.4,0.4,1.7s0.7,0.5,1.2,0.5c0.5,0,0.8-0.2,1.1-0.6s0.4-0.9,0.4-1.7
		c0-0.7-0.1-1.3-0.4-1.6S474.1,122.5,473.6,122.5z"/>
	<path d="M479.5,128h-1.4v-9.1h1.4V128z"/>
	<path d="M485.5,128l-0.3-0.9h0c-0.3,0.4-0.6,0.7-0.9,0.8s-0.7,0.2-1.2,0.2c-0.6,0-1.1-0.2-1.5-0.5s-0.5-0.8-0.5-1.5
		c0-0.7,0.2-1.2,0.7-1.5s1.3-0.5,2.3-0.6l1.1,0v-0.3c0-0.4-0.1-0.7-0.3-0.9s-0.5-0.3-0.9-0.3c-0.3,0-0.7,0-1,0.1s-0.6,0.2-0.9,0.3
		l-0.4-1c0.4-0.2,0.7-0.3,1.2-0.4s0.8-0.1,1.2-0.1c0.8,0,1.4,0.2,1.9,0.5s0.6,0.9,0.6,1.7v4.4H485.5z M483.5,127
		c0.5,0,0.9-0.1,1.2-0.4s0.5-0.7,0.5-1.2v-0.6l-0.8,0c-0.6,0-1.1,0.1-1.4,0.3s-0.4,0.5-0.4,0.9c0,0.3,0.1,0.5,0.3,0.7
		S483.2,127,483.5,127z"/>
	<path d="M491.1,128.1c-1,0-1.7-0.3-2.2-0.9s-0.8-1.4-0.8-2.5c0-1.1,0.3-1.9,0.8-2.5s1.3-0.9,2.3-0.9c0.7,0,1.3,0.1,1.8,0.4
		l-0.4,1.1c-0.6-0.2-1.1-0.3-1.4-0.3c-1.1,0-1.7,0.7-1.7,2.2c0,0.7,0.1,1.3,0.4,1.6s0.7,0.5,1.2,0.5c0.6,0,1.2-0.2,1.7-0.5v1.2
		c-0.2,0.1-0.5,0.2-0.8,0.3S491.5,128.1,491.1,128.1z"/>
	<path d="M497.2,128.1c-1,0-1.8-0.3-2.4-0.9s-0.9-1.4-0.9-2.4c0-1.1,0.3-1.9,0.8-2.5s1.3-0.9,2.2-0.9c0.9,0,1.5,0.3,2,0.8
		s0.7,1.2,0.7,2.1v0.7h-4.3c0,0.6,0.2,1.1,0.5,1.5s0.8,0.5,1.4,0.5c0.4,0,0.7,0,1.1-0.1s0.7-0.2,1.1-0.4v1.1c-0.3,0.2-0.7,0.3-1,0.3
		S497.7,128.1,497.2,128.1z M497,122.4c-0.4,0-0.8,0.1-1.1,0.4s-0.4,0.7-0.5,1.2h2.9c0-0.5-0.1-0.9-0.4-1.2S497.4,122.4,497,122.4z"
		/>
	<path d="M505.7,126.1c0,0.6-0.2,1.1-0.7,1.5s-1.1,0.5-2,0.5c-0.9,0-1.6-0.1-2.1-0.4v-1.2c0.8,0.4,1.5,0.5,2.1,0.5
		c0.8,0,1.3-0.3,1.3-0.8c0-0.2,0-0.3-0.1-0.4s-0.2-0.2-0.5-0.3s-0.5-0.3-0.9-0.4c-0.7-0.3-1.3-0.6-1.5-0.9s-0.4-0.7-0.4-1.1
		c0-0.6,0.2-1,0.7-1.3s1.1-0.5,1.8-0.5c0.8,0,1.5,0.2,2.2,0.5l-0.4,1c-0.7-0.3-1.3-0.4-1.8-0.4c-0.7,0-1.1,0.2-1.1,0.6
		c0,0.2,0.1,0.4,0.3,0.5s0.6,0.3,1.2,0.6c0.5,0.2,0.9,0.4,1.2,0.6s0.4,0.4,0.5,0.6S505.7,125.8,505.7,126.1z"/>
	<path d="M512.7,127c0.3,0,0.7-0.1,1-0.2v1c-0.2,0.1-0.3,0.1-0.6,0.2s-0.5,0.1-0.7,0.1c-1.3,0-2-0.7-2-2.1v-3.5h-0.9v-0.6l0.9-0.5
		l0.5-1.4h0.8v1.4h1.8v1h-1.8v3.5c0,0.3,0.1,0.6,0.2,0.7S512.4,127,512.7,127z"/>
	<path d="M520.7,128h-1.4v-4c0-0.5-0.1-0.9-0.3-1.1s-0.5-0.4-1-0.4c-0.6,0-1,0.2-1.3,0.5s-0.4,0.9-0.4,1.7v3.2H515v-9.1h1.4v2.3
		c0,0.4,0,0.8-0.1,1.2h0.1c0.2-0.3,0.4-0.6,0.8-0.7s0.7-0.3,1.2-0.3c1.6,0,2.4,0.8,2.4,2.4V128z"/>
	<path d="M525.4,128.1c-1,0-1.8-0.3-2.4-0.9s-0.9-1.4-0.9-2.4c0-1.1,0.3-1.9,0.8-2.5s1.3-0.9,2.2-0.9c0.9,0,1.5,0.3,2,0.8
		s0.7,1.2,0.7,2.1v0.7h-4.3c0,0.6,0.2,1.1,0.5,1.5s0.8,0.5,1.4,0.5c0.4,0,0.7,0,1.1-0.1s0.7-0.2,1.1-0.4v1.1c-0.3,0.2-0.7,0.3-1,0.3
		S525.9,128.1,525.4,128.1z M525.2,122.4c-0.4,0-0.8,0.1-1.1,0.4s-0.4,0.7-0.5,1.2h2.9c0-0.5-0.1-0.9-0.4-1.2
		S525.6,122.4,525.2,122.4z"/>
	<path d="M538.4,124.7c0,1.1-0.3,1.9-0.8,2.5s-1.3,0.9-2.3,0.9c-0.6,0-1.1-0.1-1.6-0.4s-0.8-0.7-1.1-1.2s-0.4-1.1-0.4-1.8
		c0-1.1,0.3-1.9,0.8-2.5s1.3-0.9,2.3-0.9c0.9,0,1.7,0.3,2.2,0.9S538.4,123.7,538.4,124.7z M533.7,124.7c0,1.5,0.6,2.2,1.7,2.2
		c1.1,0,1.6-0.7,1.6-2.2c0-1.5-0.6-2.2-1.7-2.2c-0.6,0-1,0.2-1.3,0.6S533.7,124,533.7,124.7z"/>
	<path d="M543.3,121.4c0.3,0,0.5,0,0.7,0.1l-0.1,1.3c-0.2,0-0.4-0.1-0.6-0.1c-0.6,0-1,0.2-1.3,0.5s-0.5,0.8-0.5,1.4v3.4H540v-6.5
		h1.1l0.2,1.1h0.1c0.2-0.4,0.5-0.7,0.8-0.9S542.9,121.4,543.3,121.4z"/>
	<path d="M545.1,119.8c0-0.2,0.1-0.4,0.2-0.6s0.3-0.2,0.6-0.2c0.2,0,0.4,0.1,0.6,0.2s0.2,0.3,0.2,0.6c0,0.2-0.1,0.4-0.2,0.6
		s-0.3,0.2-0.6,0.2c-0.3,0-0.4-0.1-0.6-0.2S545.1,120,545.1,119.8z M546.5,128h-1.4v-6.5h1.4V128z"/>
	<path d="M554,121.5v0.8l-1.1,0.2c0.1,0.1,0.2,0.3,0.3,0.5s0.1,0.4,0.1,0.6c0,0.7-0.2,1.2-0.7,1.6s-1.1,0.6-1.9,0.6
		c-0.2,0-0.4,0-0.6,0c-0.3,0.2-0.4,0.4-0.4,0.6c0,0.1,0.1,0.3,0.2,0.3s0.4,0.1,0.8,0.1h1.1c0.7,0,1.3,0.2,1.6,0.5s0.6,0.7,0.6,1.3
		c0,0.7-0.3,1.3-0.9,1.7s-1.5,0.6-2.6,0.6c-0.9,0-1.6-0.2-2-0.5s-0.7-0.8-0.7-1.3c0-0.4,0.1-0.7,0.4-1s0.6-0.5,1.1-0.6
		c-0.2-0.1-0.3-0.2-0.5-0.4s-0.2-0.4-0.2-0.5c0-0.2,0.1-0.4,0.2-0.6s0.3-0.3,0.6-0.5c-0.3-0.1-0.6-0.4-0.8-0.7s-0.3-0.7-0.3-1.1
		c0-0.7,0.2-1.2,0.7-1.6s1.1-0.6,1.9-0.6c0.2,0,0.4,0,0.6,0s0.4,0.1,0.5,0.1H554z M548.9,129c0,0.3,0.1,0.5,0.4,0.7s0.6,0.2,1.1,0.2
		c0.8,0,1.3-0.1,1.7-0.3s0.6-0.5,0.6-0.9c0-0.3-0.1-0.5-0.3-0.6s-0.6-0.2-1.1-0.2h-1c-0.4,0-0.7,0.1-0.9,0.3S548.9,128.6,548.9,129z
		 M549.5,123.6c0,0.4,0.1,0.7,0.3,0.9s0.5,0.3,0.9,0.3c0.8,0,1.2-0.4,1.2-1.3c0-0.4-0.1-0.7-0.3-1s-0.5-0.3-0.9-0.3
		c-0.4,0-0.7,0.1-0.9,0.3S549.5,123.1,549.5,123.6z"/>
	<path d="M555.1,119.8c0-0.2,0.1-0.4,0.2-0.6s0.3-0.2,0.6-0.2c0.2,0,0.4,0.1,0.6,0.2s0.2,0.3,0.2,0.6c0,0.2-0.1,0.4-0.2,0.6
		s-0.3,0.2-0.6,0.2c-0.3,0-0.4-0.1-0.6-0.2S555.1,120,555.1,119.8z M556.5,128h-1.4v-6.5h1.4V128z"/>
	<path d="M564.2,128h-1.4v-4c0-0.5-0.1-0.9-0.3-1.1s-0.5-0.4-1-0.4c-0.6,0-1,0.2-1.3,0.5s-0.4,0.9-0.4,1.7v3.2h-1.4v-6.5h1.1
		l0.2,0.8h0.1c0.2-0.3,0.5-0.5,0.8-0.7s0.8-0.3,1.2-0.3c1.6,0,2.3,0.8,2.3,2.4V128z"/>
	<path d="M570.2,128l-0.3-0.9h0c-0.3,0.4-0.6,0.7-0.9,0.8s-0.7,0.2-1.2,0.2c-0.6,0-1.1-0.2-1.5-0.5s-0.5-0.8-0.5-1.5
		c0-0.7,0.2-1.2,0.7-1.5s1.3-0.5,2.3-0.6l1.1,0v-0.3c0-0.4-0.1-0.7-0.3-0.9s-0.5-0.3-0.9-0.3c-0.3,0-0.7,0-1,0.1s-0.6,0.2-0.9,0.3
		l-0.4-1c0.4-0.2,0.7-0.3,1.2-0.4s0.8-0.1,1.2-0.1c0.8,0,1.4,0.2,1.9,0.5s0.6,0.9,0.6,1.7v4.4H570.2z M568.1,127
		c0.5,0,0.9-0.1,1.2-0.4s0.5-0.7,0.5-1.2v-0.6l-0.8,0c-0.6,0-1.1,0.1-1.4,0.3s-0.4,0.5-0.4,0.9c0,0.3,0.1,0.5,0.3,0.7
		S567.8,127,568.1,127z"/>
	<path d="M574.5,128h-1.4v-9.1h1.4V128z"/>
	<path d="M353.9,142.4h-1.4v-4c0-0.5-0.1-0.9-0.3-1.1s-0.5-0.4-0.9-0.4c-0.5,0-0.9,0.2-1.2,0.5s-0.4,0.9-0.4,1.7v3.2h-1.4v-6.5h1.1
		l0.2,0.8h0.1c0.2-0.3,0.4-0.5,0.8-0.7s0.7-0.3,1.1-0.3c1,0,1.7,0.3,2,1h0.1c0.2-0.3,0.5-0.6,0.8-0.8s0.7-0.3,1.2-0.3
		c0.8,0,1.3,0.2,1.7,0.6s0.5,1,0.5,1.8v4.2h-1.4v-4c0-0.5-0.1-0.9-0.3-1.1s-0.5-0.4-0.9-0.4c-0.5,0-0.9,0.2-1.2,0.5
		s-0.4,0.8-0.4,1.5V142.4z"/>
	<path d="M362.8,142.5c-1,0-1.8-0.3-2.4-0.9s-0.9-1.4-0.9-2.4c0-1.1,0.3-1.9,0.8-2.5s1.3-0.9,2.2-0.9c0.9,0,1.5,0.3,2,0.8
		s0.7,1.2,0.7,2.1v0.7H361c0,0.6,0.2,1.1,0.5,1.5s0.8,0.5,1.4,0.5c0.4,0,0.7,0,1.1-0.1s0.7-0.2,1.1-0.4v1.1c-0.3,0.2-0.7,0.3-1,0.3
		S363.2,142.5,362.8,142.5z M362.5,136.8c-0.4,0-0.8,0.1-1.1,0.4s-0.4,0.7-0.5,1.2h2.9c0-0.5-0.1-0.9-0.4-1.2S363,136.8,362.5,136.8
		z"/>
	<path d="M371.2,140.5c0,0.6-0.2,1.1-0.7,1.5s-1.1,0.5-2,0.5c-0.9,0-1.6-0.1-2.1-0.4v-1.2c0.8,0.4,1.5,0.5,2.1,0.5
		c0.8,0,1.3-0.3,1.3-0.8c0-0.2,0-0.3-0.1-0.4s-0.2-0.2-0.5-0.3s-0.5-0.3-0.9-0.4c-0.7-0.3-1.3-0.6-1.5-0.9s-0.4-0.7-0.4-1.1
		c0-0.6,0.2-1,0.7-1.3s1.1-0.5,1.8-0.5c0.8,0,1.5,0.2,2.2,0.5l-0.4,1c-0.7-0.3-1.3-0.4-1.8-0.4c-0.7,0-1.1,0.2-1.1,0.6
		c0,0.2,0.1,0.4,0.3,0.5s0.6,0.3,1.2,0.6c0.5,0.2,0.9,0.4,1.2,0.6s0.4,0.4,0.5,0.6S371.2,140.2,371.2,140.5z"/>
	<path d="M377.1,140.5c0,0.6-0.2,1.1-0.7,1.5s-1.1,0.5-2,0.5c-0.9,0-1.6-0.1-2.1-0.4v-1.2c0.8,0.4,1.5,0.5,2.1,0.5
		c0.8,0,1.3-0.3,1.3-0.8c0-0.2,0-0.3-0.1-0.4s-0.2-0.2-0.5-0.3s-0.5-0.3-0.9-0.4c-0.7-0.3-1.3-0.6-1.5-0.9s-0.4-0.7-0.4-1.1
		c0-0.6,0.2-1,0.7-1.3s1.1-0.5,1.8-0.5c0.8,0,1.5,0.2,2.2,0.5l-0.4,1c-0.7-0.3-1.3-0.4-1.8-0.4c-0.7,0-1.1,0.2-1.1,0.6
		c0,0.2,0.1,0.4,0.3,0.5s0.6,0.3,1.2,0.6c0.5,0.2,0.9,0.4,1.2,0.6s0.4,0.4,0.5,0.6S377.1,140.2,377.1,140.5z"/>
	<path d="M382.6,142.4l-0.3-0.9h0c-0.3,0.4-0.6,0.7-0.9,0.8s-0.7,0.2-1.2,0.2c-0.6,0-1.1-0.2-1.5-0.5s-0.5-0.8-0.5-1.5
		c0-0.7,0.2-1.2,0.7-1.5s1.3-0.5,2.3-0.6l1.1,0V138c0-0.4-0.1-0.7-0.3-0.9s-0.5-0.3-0.9-0.3c-0.3,0-0.7,0-1,0.1s-0.6,0.2-0.9,0.3
		l-0.4-1c0.4-0.2,0.7-0.3,1.2-0.4s0.8-0.1,1.2-0.1c0.8,0,1.4,0.2,1.9,0.5s0.6,0.9,0.6,1.7v4.4H382.6z M380.6,141.4
		c0.5,0,0.9-0.1,1.2-0.4s0.5-0.7,0.5-1.2v-0.6l-0.8,0c-0.6,0-1.1,0.1-1.4,0.3s-0.4,0.5-0.4,0.9c0,0.3,0.1,0.5,0.3,0.7
		S380.2,141.4,380.6,141.4z"/>
	<path d="M391,135.9v0.8l-1.1,0.2c0.1,0.1,0.2,0.3,0.3,0.5s0.1,0.4,0.1,0.6c0,0.7-0.2,1.2-0.7,1.6s-1.1,0.6-1.9,0.6
		c-0.2,0-0.4,0-0.6,0c-0.3,0.2-0.4,0.4-0.4,0.6c0,0.1,0.1,0.3,0.2,0.3s0.4,0.1,0.8,0.1h1.1c0.7,0,1.3,0.2,1.6,0.5s0.6,0.7,0.6,1.3
		c0,0.7-0.3,1.3-0.9,1.7s-1.5,0.6-2.6,0.6c-0.9,0-1.6-0.2-2-0.5s-0.7-0.8-0.7-1.3c0-0.4,0.1-0.7,0.4-1s0.6-0.5,1.1-0.6
		c-0.2-0.1-0.3-0.2-0.5-0.4s-0.2-0.4-0.2-0.5c0-0.2,0.1-0.4,0.2-0.6s0.3-0.3,0.6-0.5c-0.3-0.1-0.6-0.4-0.8-0.7s-0.3-0.7-0.3-1.1
		c0-0.7,0.2-1.2,0.7-1.6s1.1-0.6,1.9-0.6c0.2,0,0.4,0,0.6,0s0.4,0.1,0.5,0.1H391z M385.9,143.4c0,0.3,0.1,0.5,0.4,0.7
		s0.6,0.2,1.1,0.2c0.8,0,1.3-0.1,1.7-0.3s0.6-0.5,0.6-0.9c0-0.3-0.1-0.5-0.3-0.6s-0.6-0.2-1.1-0.2h-1c-0.4,0-0.7,0.1-0.9,0.3
		S385.9,143,385.9,143.4z M386.5,138c0,0.4,0.1,0.7,0.3,0.9s0.5,0.3,0.9,0.3c0.8,0,1.2-0.4,1.2-1.3c0-0.4-0.1-0.7-0.3-1
		s-0.5-0.3-0.9-0.3c-0.4,0-0.7,0.1-0.9,0.3S386.5,137.5,386.5,138z"/>
	<path d="M395,142.5c-1,0-1.8-0.3-2.4-0.9s-0.9-1.4-0.9-2.4c0-1.1,0.3-1.9,0.8-2.5s1.3-0.9,2.2-0.9c0.9,0,1.5,0.3,2,0.8
		s0.7,1.2,0.7,2.1v0.7h-4.3c0,0.6,0.2,1.1,0.5,1.5s0.8,0.5,1.4,0.5c0.4,0,0.7,0,1.1-0.1s0.7-0.2,1.1-0.4v1.1c-0.3,0.2-0.7,0.3-1,0.3
		S395.5,142.5,395,142.5z M394.8,136.8c-0.4,0-0.8,0.1-1.1,0.4s-0.4,0.7-0.5,1.2h2.9c0-0.5-0.1-0.9-0.4-1.2S395.2,136.8,394.8,136.8
		z"/>
	<path d="M407.5,142.4l-0.8-3c-0.1-0.3-0.3-1.1-0.6-2.2h-0.1c-0.2,1.1-0.4,1.8-0.5,2.2l-0.9,3h-1.5l-1.8-6.5h1.4l0.8,3.2
		c0.2,0.8,0.3,1.5,0.4,2h0c0-0.3,0.1-0.6,0.2-1s0.1-0.6,0.2-0.8l1-3.4h1.5l1,3.4c0.1,0.2,0.1,0.5,0.2,0.9s0.1,0.7,0.2,0.9h0
		c0.1-0.5,0.2-1.2,0.4-2l0.8-3.2h1.4l-1.8,6.5H407.5z"/>
	<path d="M411.9,134.2c0-0.2,0.1-0.4,0.2-0.6s0.3-0.2,0.6-0.2c0.2,0,0.4,0.1,0.6,0.2s0.2,0.3,0.2,0.6c0,0.2-0.1,0.4-0.2,0.6
		s-0.3,0.2-0.6,0.2c-0.3,0-0.4-0.1-0.6-0.2S411.9,134.4,411.9,134.2z M413.4,142.4H412v-6.5h1.4V142.4z"/>
	<path d="M417.8,141.4c0.3,0,0.7-0.1,1-0.2v1c-0.2,0.1-0.3,0.1-0.6,0.2s-0.5,0.1-0.7,0.1c-1.3,0-2-0.7-2-2.1v-3.5h-0.9v-0.6l0.9-0.5
		l0.5-1.4h0.8v1.4h1.8v1h-1.8v3.5c0,0.3,0.1,0.6,0.2,0.7S417.5,141.4,417.8,141.4z"/>
	<path d="M425.8,142.4h-1.4v-4c0-0.5-0.1-0.9-0.3-1.1s-0.5-0.4-1-0.4c-0.6,0-1,0.2-1.3,0.5s-0.4,0.9-0.4,1.7v3.2h-1.4v-9.1h1.4v2.3
		c0,0.4,0,0.8-0.1,1.2h0.1c0.2-0.3,0.4-0.6,0.8-0.7s0.7-0.3,1.2-0.3c1.6,0,2.4,0.8,2.4,2.4V142.4z"/>
	<path d="M436.5,142.4h-1.4v-4c0-0.5-0.1-0.9-0.3-1.1s-0.5-0.4-1-0.4c-0.6,0-1,0.2-1.3,0.5s-0.4,0.9-0.4,1.7v3.2h-1.4v-9.1h1.4v2.3
		c0,0.4,0,0.8-0.1,1.2h0.1c0.2-0.3,0.4-0.6,0.8-0.7s0.7-0.3,1.2-0.3c1.6,0,2.4,0.8,2.4,2.4V142.4z"/>
	<path d="M441.3,142.5c-1,0-1.8-0.3-2.4-0.9s-0.9-1.4-0.9-2.4c0-1.1,0.3-1.9,0.8-2.5s1.3-0.9,2.2-0.9c0.9,0,1.5,0.3,2,0.8
		s0.7,1.2,0.7,2.1v0.7h-4.3c0,0.6,0.2,1.1,0.5,1.5s0.8,0.5,1.4,0.5c0.4,0,0.7,0,1.1-0.1s0.7-0.2,1.1-0.4v1.1c-0.3,0.2-0.7,0.3-1,0.3
		S441.7,142.5,441.3,142.5z M441,136.8c-0.4,0-0.8,0.1-1.1,0.4s-0.4,0.7-0.5,1.2h2.9c0-0.5-0.1-0.9-0.4-1.2S441.5,136.8,441,136.8z"
		/>
	<path d="M448.6,135.8c0.3,0,0.5,0,0.7,0.1l-0.1,1.3c-0.2,0-0.4-0.1-0.6-0.1c-0.6,0-1,0.2-1.3,0.5s-0.5,0.8-0.5,1.4v3.4h-1.4v-6.5
		h1.1l0.2,1.1h0.1c0.2-0.4,0.5-0.7,0.8-0.9S448.2,135.8,448.6,135.8z"/>
	<path d="M459.4,139.1c0,1.1-0.3,1.9-0.8,2.5s-1.3,0.9-2.3,0.9c-0.6,0-1.1-0.1-1.6-0.4s-0.8-0.7-1.1-1.2s-0.4-1.1-0.4-1.8
		c0-1.1,0.3-1.9,0.8-2.5s1.3-0.9,2.3-0.9c0.9,0,1.7,0.3,2.2,0.9S459.4,138.1,459.4,139.1z M454.7,139.1c0,1.5,0.6,2.2,1.7,2.2
		c1.1,0,1.6-0.7,1.6-2.2c0-1.5-0.6-2.2-1.7-2.2c-0.6,0-1,0.2-1.3,0.6S454.7,138.4,454.7,139.1z"/>
	<path d="M466.3,142.4l-0.8-3c-0.1-0.3-0.3-1.1-0.6-2.2h-0.1c-0.2,1.1-0.4,1.8-0.5,2.2l-0.9,3h-1.5l-1.8-6.5h1.4l0.8,3.2
		c0.2,0.8,0.3,1.5,0.4,2h0c0-0.3,0.1-0.6,0.2-1s0.1-0.6,0.2-0.8l1-3.4h1.5l1,3.4c0.1,0.2,0.1,0.5,0.2,0.9s0.1,0.7,0.2,0.9h0
		c0.1-0.5,0.2-1.2,0.4-2l0.8-3.2h1.4l-1.8,6.5H466.3z"/>
	<path d="M476.5,142.4h-1.4v-4c0-0.5-0.1-0.9-0.3-1.1s-0.5-0.4-1-0.4c-0.6,0-1,0.2-1.3,0.5s-0.4,0.9-0.4,1.7v3.2h-1.4v-6.5h1.1
		l0.2,0.8h0.1c0.2-0.3,0.5-0.5,0.8-0.7s0.8-0.3,1.2-0.3c1.6,0,2.3,0.8,2.3,2.4V142.4z"/>
	<path d="M478.2,141.6c0-0.3,0.1-0.5,0.2-0.7s0.4-0.2,0.6-0.2c0.3,0,0.5,0.1,0.7,0.2s0.2,0.4,0.2,0.6c0,0.3-0.1,0.5-0.2,0.7
		s-0.4,0.2-0.6,0.2s-0.5-0.1-0.6-0.2S478.2,141.9,478.2,141.6z"/>
	<path d="M348.6,153.2h2.5c1.2,0,2,0.2,2.6,0.5s0.8,0.9,0.8,1.6c0,0.5-0.1,0.9-0.4,1.2s-0.6,0.5-1.1,0.6v0.1c0.6,0.1,1,0.3,1.3,0.7
		s0.4,0.8,0.4,1.4c0,0.8-0.3,1.4-0.8,1.8s-1.3,0.7-2.2,0.7h-3.1V153.2z M350,156.7h1.3c0.6,0,1-0.1,1.3-0.3s0.4-0.5,0.4-0.9
		c0-0.4-0.1-0.7-0.4-0.9s-0.8-0.3-1.4-0.3H350V156.7z M350,157.9v2.7h1.5c0.6,0,1-0.1,1.3-0.3s0.4-0.6,0.4-1.1c0-0.4-0.2-0.8-0.5-1
		s-0.8-0.3-1.4-0.3H350z"/>
	<path d="M360.5,161.8l-0.3-0.9h0c-0.3,0.4-0.6,0.7-0.9,0.8s-0.7,0.2-1.2,0.2c-0.6,0-1.1-0.2-1.5-0.5s-0.5-0.8-0.5-1.5
		c0-0.7,0.2-1.2,0.7-1.5s1.3-0.5,2.3-0.6l1.1,0v-0.3c0-0.4-0.1-0.7-0.3-0.9s-0.5-0.3-0.9-0.3c-0.3,0-0.7,0-1,0.1s-0.6,0.2-0.9,0.3
		l-0.4-1c0.4-0.2,0.7-0.3,1.2-0.4s0.8-0.1,1.2-0.1c0.8,0,1.4,0.2,1.9,0.5s0.6,0.9,0.6,1.7v4.4H360.5z M358.4,160.8
		c0.5,0,0.9-0.1,1.2-0.4s0.5-0.7,0.5-1.2v-0.6l-0.8,0c-0.6,0-1.1,0.1-1.4,0.3s-0.4,0.5-0.4,0.9c0,0.3,0.1,0.5,0.3,0.7
		S358.1,160.8,358.4,160.8z"/>
	<path d="M369.1,161.8h-1.4v-4c0-0.5-0.1-0.9-0.3-1.1s-0.5-0.4-1-0.4c-0.6,0-1,0.2-1.3,0.5s-0.4,0.9-0.4,1.7v3.2h-1.4v-6.5h1.1
		l0.2,0.8h0.1c0.2-0.3,0.5-0.5,0.8-0.7s0.8-0.3,1.2-0.3c1.6,0,2.3,0.8,2.3,2.4V161.8z"/>
	<path d="M372.3,158.3l0.8-1l2-2.1h1.6l-2.6,2.8l2.8,3.7h-1.6l-2.1-2.8l-0.8,0.6v2.2H371v-9.1h1.4v4.4L372.3,158.3L372.3,158.3z"/>
	<path d="M383.1,161.9c-0.8,0-1.4-0.3-1.9-0.9s-0.7-1.4-0.7-2.5c0-1.1,0.2-1.9,0.7-2.5s1.1-0.9,1.9-0.9c0.9,0,1.5,0.3,1.9,0.9h0.1
		c-0.1-0.5-0.1-0.8-0.1-1.1v-2.4h1.4v9.1h-1.1l-0.2-0.8h-0.1C384.6,161.5,384,161.9,383.1,161.9z M383.5,160.8c0.6,0,1-0.2,1.2-0.5
		s0.4-0.8,0.4-1.5v-0.2c0-0.8-0.1-1.4-0.4-1.7s-0.7-0.5-1.2-0.5c-0.5,0-0.9,0.2-1.1,0.6s-0.4,1-0.4,1.7c0,0.7,0.1,1.3,0.4,1.6
		S383,160.8,383.5,160.8z"/>
	<path d="M394.2,158.5c0,1.1-0.3,1.9-0.8,2.5s-1.3,0.9-2.3,0.9c-0.6,0-1.1-0.1-1.6-0.4s-0.8-0.7-1.1-1.2s-0.4-1.1-0.4-1.8
		c0-1.1,0.3-1.9,0.8-2.5s1.3-0.9,2.3-0.9c0.9,0,1.7,0.3,2.2,0.9S394.2,157.5,394.2,158.5z M389.5,158.5c0,1.5,0.6,2.2,1.7,2.2
		c1.1,0,1.6-0.7,1.6-2.2c0-1.5-0.6-2.2-1.7-2.2c-0.6,0-1,0.2-1.3,0.6S389.5,157.8,389.5,158.5z"/>
	<path d="M398.6,161.9c-1,0-1.8-0.3-2.4-0.9s-0.9-1.4-0.9-2.4c0-1.1,0.3-1.9,0.8-2.5s1.3-0.9,2.2-0.9c0.9,0,1.5,0.3,2,0.8
		s0.7,1.2,0.7,2.1v0.7h-4.3c0,0.6,0.2,1.1,0.5,1.5s0.8,0.5,1.4,0.5c0.4,0,0.7,0,1.1-0.1s0.7-0.2,1.1-0.4v1.1c-0.3,0.2-0.7,0.3-1,0.3
		S399,161.9,398.6,161.9z M398.3,156.2c-0.4,0-0.8,0.1-1.1,0.4s-0.4,0.7-0.5,1.2h2.9c0-0.5-0.1-0.9-0.4-1.2S398.8,156.2,398.3,156.2
		z"/>
	<path d="M407,159.9c0,0.6-0.2,1.1-0.7,1.5s-1.1,0.5-2,0.5c-0.9,0-1.6-0.1-2.1-0.4v-1.2c0.8,0.4,1.5,0.5,2.1,0.5
		c0.8,0,1.3-0.3,1.3-0.8c0-0.2,0-0.3-0.1-0.4s-0.2-0.2-0.5-0.3s-0.5-0.3-0.9-0.4c-0.7-0.3-1.3-0.6-1.5-0.9s-0.4-0.7-0.4-1.1
		c0-0.6,0.2-1,0.7-1.3s1.1-0.5,1.8-0.5c0.8,0,1.5,0.2,2.2,0.5l-0.4,1c-0.7-0.3-1.3-0.4-1.8-0.4c-0.7,0-1.1,0.2-1.1,0.6
		c0,0.2,0.1,0.4,0.3,0.5s0.6,0.3,1.2,0.6c0.5,0.2,0.9,0.4,1.2,0.6s0.4,0.4,0.5,0.6S407,159.6,407,159.9z"/>
	<path d="M417.3,161.8H416v-4c0-0.5-0.1-0.9-0.3-1.1s-0.5-0.4-1-0.4c-0.6,0-1,0.2-1.3,0.5s-0.4,0.9-0.4,1.7v3.2h-1.4v-6.5h1.1
		l0.2,0.8h0.1c0.2-0.3,0.5-0.5,0.8-0.7s0.8-0.3,1.2-0.3c1.6,0,2.3,0.8,2.3,2.4V161.8z"/>
	<path d="M425,158.5c0,1.1-0.3,1.9-0.8,2.5s-1.3,0.9-2.3,0.9c-0.6,0-1.1-0.1-1.6-0.4s-0.8-0.7-1.1-1.2s-0.4-1.1-0.4-1.8
		c0-1.1,0.3-1.9,0.8-2.5s1.3-0.9,2.3-0.9c0.9,0,1.7,0.3,2.2,0.9S425,157.5,425,158.5z M420.3,158.5c0,1.5,0.6,2.2,1.7,2.2
		c1.1,0,1.6-0.7,1.6-2.2c0-1.5-0.6-2.2-1.7-2.2c-0.6,0-1,0.2-1.3,0.6S420.3,157.8,420.3,158.5z"/>
	<path d="M429,160.8c0.3,0,0.7-0.1,1-0.2v1c-0.2,0.1-0.3,0.1-0.6,0.2s-0.5,0.1-0.7,0.1c-1.3,0-2-0.7-2-2.1v-3.5h-0.9v-0.6l0.9-0.5
		l0.5-1.4h0.8v1.4h1.8v1h-1.8v3.5c0,0.3,0.1,0.6,0.2,0.7S428.7,160.8,429,160.8z"/>
	<path d="M436.6,161.9c-0.8,0-1.4-0.3-1.9-0.9s-0.7-1.4-0.7-2.5c0-1.1,0.2-1.9,0.7-2.5s1.1-0.9,1.9-0.9c0.9,0,1.5,0.3,1.9,0.9h0.1
		c-0.1-0.5-0.1-0.8-0.1-1.1v-2.4h1.4v9.1h-1.1l-0.2-0.8h-0.1C438.1,161.5,437.5,161.9,436.6,161.9z M437,160.8c0.6,0,1-0.2,1.2-0.5
		s0.4-0.8,0.4-1.5v-0.2c0-0.8-0.1-1.4-0.4-1.7s-0.7-0.5-1.2-0.5c-0.5,0-0.9,0.2-1.1,0.6s-0.4,1-0.4,1.7c0,0.7,0.1,1.3,0.4,1.6
		S436.5,160.8,437,160.8z"/>
	<path d="M444.7,161.9c-1,0-1.8-0.3-2.4-0.9s-0.9-1.4-0.9-2.4c0-1.1,0.3-1.9,0.8-2.5s1.3-0.9,2.2-0.9c0.9,0,1.5,0.3,2,0.8
		s0.7,1.2,0.7,2.1v0.7h-4.3c0,0.6,0.2,1.1,0.5,1.5s0.8,0.5,1.4,0.5c0.4,0,0.7,0,1.1-0.1s0.7-0.2,1.1-0.4v1.1c-0.3,0.2-0.7,0.3-1,0.3
		S445.2,161.9,444.7,161.9z M444.5,156.2c-0.4,0-0.8,0.1-1.1,0.4s-0.4,0.7-0.5,1.2h2.9c0-0.5-0.1-0.9-0.4-1.2
		S444.9,156.2,444.5,156.2z"/>
	<path d="M451.2,160.8c0.3,0,0.7-0.1,1-0.2v1c-0.2,0.1-0.3,0.1-0.6,0.2s-0.5,0.1-0.7,0.1c-1.3,0-2-0.7-2-2.1v-3.5h-0.9v-0.6l0.9-0.5
		l0.5-1.4h0.8v1.4h1.8v1h-1.8v3.5c0,0.3,0.1,0.6,0.2,0.7S451,160.8,451.2,160.8z"/>
	<path d="M456.4,161.9c-1,0-1.8-0.3-2.4-0.9s-0.9-1.4-0.9-2.4c0-1.1,0.3-1.9,0.8-2.5s1.3-0.9,2.2-0.9c0.9,0,1.5,0.3,2,0.8
		s0.7,1.2,0.7,2.1v0.7h-4.3c0,0.6,0.2,1.1,0.5,1.5s0.8,0.5,1.4,0.5c0.4,0,0.7,0,1.1-0.1s0.7-0.2,1.1-0.4v1.1c-0.3,0.2-0.7,0.3-1,0.3
		S456.8,161.9,456.4,161.9z M456.1,156.2c-0.4,0-0.8,0.1-1.1,0.4s-0.4,0.7-0.5,1.2h2.9c0-0.5-0.1-0.9-0.4-1.2
		S456.5,156.2,456.1,156.2z"/>
	<path d="M463.1,161.9c-1,0-1.7-0.3-2.2-0.9s-0.8-1.4-0.8-2.5c0-1.1,0.3-1.9,0.8-2.5s1.3-0.9,2.3-0.9c0.7,0,1.3,0.1,1.8,0.4
		l-0.4,1.1c-0.6-0.2-1.1-0.3-1.4-0.3c-1.1,0-1.7,0.7-1.7,2.2c0,0.7,0.1,1.3,0.4,1.6s0.7,0.5,1.2,0.5c0.6,0,1.2-0.2,1.7-0.5v1.2
		c-0.2,0.1-0.5,0.2-0.8,0.3S463.5,161.9,463.1,161.9z"/>
	<path d="M468.8,160.8c0.3,0,0.7-0.1,1-0.2v1c-0.2,0.1-0.3,0.1-0.6,0.2s-0.5,0.1-0.7,0.1c-1.3,0-2-0.7-2-2.1v-3.5h-0.9v-0.6l0.9-0.5
		l0.5-1.4h0.8v1.4h1.8v1h-1.8v3.5c0,0.3,0.1,0.6,0.2,0.7S468.5,160.8,468.8,160.8z"/>
	<path d="M476.6,160.8c0.3,0,0.7-0.1,1-0.2v1c-0.2,0.1-0.3,0.1-0.6,0.2s-0.5,0.1-0.7,0.1c-1.3,0-2-0.7-2-2.1v-3.5h-0.9v-0.6l0.9-0.5
		l0.5-1.4h0.8v1.4h1.8v1h-1.8v3.5c0,0.3,0.1,0.6,0.2,0.7S476.4,160.8,476.6,160.8z"/>
	<path d="M484.6,161.8h-1.4v-4c0-0.5-0.1-0.9-0.3-1.1s-0.5-0.4-1-0.4c-0.6,0-1,0.2-1.3,0.5s-0.4,0.9-0.4,1.7v3.2h-1.4v-9.1h1.4v2.3
		c0,0.4,0,0.8-0.1,1.2h0.1c0.2-0.3,0.4-0.6,0.8-0.7s0.7-0.3,1.2-0.3c1.6,0,2.4,0.8,2.4,2.4V161.8z"/>
	<path d="M489.4,161.9c-1,0-1.8-0.3-2.4-0.9s-0.9-1.4-0.9-2.4c0-1.1,0.3-1.9,0.8-2.5s1.3-0.9,2.2-0.9c0.9,0,1.5,0.3,2,0.8
		s0.7,1.2,0.7,2.1v0.7h-4.3c0,0.6,0.2,1.1,0.5,1.5s0.8,0.5,1.4,0.5c0.4,0,0.7,0,1.1-0.1s0.7-0.2,1.1-0.4v1.1c-0.3,0.2-0.7,0.3-1,0.3
		S489.8,161.9,489.4,161.9z M489.1,156.2c-0.4,0-0.8,0.1-1.1,0.4s-0.4,0.7-0.5,1.2h2.9c0-0.5-0.1-0.9-0.4-1.2
		S489.6,156.2,489.1,156.2z"/>
	<path d="M499,160.8c0.3,0,0.7-0.1,1-0.2v1c-0.2,0.1-0.3,0.1-0.6,0.2s-0.5,0.1-0.7,0.1c-1.3,0-2-0.7-2-2.1v-3.5h-0.9v-0.6l0.9-0.5
		l0.5-1.4h0.8v1.4h1.8v1h-1.8v3.5c0,0.3,0.1,0.6,0.2,0.7S498.7,160.8,499,160.8z"/>
	<path d="M505.4,161.8l-0.3-0.9h0c-0.3,0.4-0.6,0.7-0.9,0.8s-0.7,0.2-1.2,0.2c-0.6,0-1.1-0.2-1.5-0.5s-0.5-0.8-0.5-1.5
		c0-0.7,0.2-1.2,0.7-1.5s1.3-0.5,2.3-0.6l1.1,0v-0.3c0-0.4-0.1-0.7-0.3-0.9s-0.5-0.3-0.9-0.3c-0.3,0-0.7,0-1,0.1s-0.6,0.2-0.9,0.3
		l-0.4-1c0.4-0.2,0.7-0.3,1.2-0.4s0.8-0.1,1.2-0.1c0.8,0,1.4,0.2,1.9,0.5s0.6,0.9,0.6,1.7v4.4H505.4z M503.3,160.8
		c0.5,0,0.9-0.1,1.2-0.4s0.5-0.7,0.5-1.2v-0.6l-0.8,0c-0.6,0-1.1,0.1-1.4,0.3s-0.4,0.5-0.4,0.9c0,0.3,0.1,0.5,0.3,0.7
		S503,160.8,503.3,160.8z"/>
	<path d="M513.7,161.8h-1.4v-4c0-0.5-0.1-0.9-0.3-1.1s-0.5-0.4-0.9-0.4c-0.5,0-0.9,0.2-1.2,0.5s-0.4,0.9-0.4,1.7v3.2h-1.4v-6.5h1.1
		l0.2,0.8h0.1c0.2-0.3,0.4-0.5,0.8-0.7s0.7-0.3,1.1-0.3c1,0,1.7,0.3,2,1h0.1c0.2-0.3,0.5-0.6,0.8-0.8s0.7-0.3,1.2-0.3
		c0.8,0,1.3,0.2,1.7,0.6s0.5,1,0.5,1.8v4.2h-1.4v-4c0-0.5-0.1-0.9-0.3-1.1s-0.5-0.4-0.9-0.4c-0.5,0-0.9,0.2-1.2,0.5
		s-0.4,0.8-0.4,1.5V161.8z"/>
	<path d="M523,161.9c-0.8,0-1.5-0.3-1.9-0.9H521c0.1,0.5,0.1,0.9,0.1,1v2.7h-1.4v-9.4h1.1c0,0.1,0.1,0.4,0.2,0.9h0.1
		c0.4-0.7,1.1-1,1.9-1c0.8,0,1.4,0.3,1.9,0.9s0.7,1.4,0.7,2.5s-0.2,1.9-0.7,2.5S523.8,161.9,523,161.9z M522.7,156.3
		c-0.5,0-0.9,0.2-1.2,0.5s-0.4,0.8-0.4,1.5v0.2c0,0.8,0.1,1.4,0.4,1.7s0.7,0.5,1.2,0.5c0.5,0,0.8-0.2,1.1-0.6s0.4-0.9,0.4-1.7
		c0-0.7-0.1-1.3-0.4-1.6S523.2,156.3,522.7,156.3z"/>
	<path d="M530,161.9c-1,0-1.8-0.3-2.4-0.9s-0.9-1.4-0.9-2.4c0-1.1,0.3-1.9,0.8-2.5s1.3-0.9,2.2-0.9c0.9,0,1.5,0.3,2,0.8
		s0.7,1.2,0.7,2.1v0.7h-4.3c0,0.6,0.2,1.1,0.5,1.5s0.8,0.5,1.4,0.5c0.4,0,0.7,0,1.1-0.1s0.7-0.2,1.1-0.4v1.1c-0.3,0.2-0.7,0.3-1,0.3
		S530.5,161.9,530,161.9z M529.8,156.2c-0.4,0-0.8,0.1-1.1,0.4s-0.4,0.7-0.5,1.2h2.9c0-0.5-0.1-0.9-0.4-1.2S530.2,156.2,529.8,156.2
		z"/>
	<path d="M537.4,155.2c0.3,0,0.5,0,0.7,0.1l-0.1,1.3c-0.2,0-0.4-0.1-0.6-0.1c-0.6,0-1,0.2-1.3,0.5s-0.5,0.8-0.5,1.4v3.4h-1.4v-6.5
		h1.1l0.2,1.1h0.1c0.2-0.4,0.5-0.7,0.8-0.9S537,155.2,537.4,155.2z"/>
	<path d="M539.2,153.6c0-0.2,0.1-0.4,0.2-0.6s0.3-0.2,0.6-0.2c0.2,0,0.4,0.1,0.6,0.2s0.2,0.3,0.2,0.6c0,0.2-0.1,0.4-0.2,0.6
		s-0.3,0.2-0.6,0.2c-0.3,0-0.4-0.1-0.6-0.2S539.2,153.8,539.2,153.6z M540.7,161.8h-1.4v-6.5h1.4V161.8z"/>
	<path d="M548.3,161.8H547v-4c0-0.5-0.1-0.9-0.3-1.1s-0.5-0.4-1-0.4c-0.6,0-1,0.2-1.3,0.5s-0.4,0.9-0.4,1.7v3.2h-1.4v-6.5h1.1
		l0.2,0.8h0.1c0.2-0.3,0.5-0.5,0.8-0.7s0.8-0.3,1.2-0.3c1.6,0,2.3,0.8,2.3,2.4V161.8z"/>
	<path d="M555.7,155.3v0.8l-1.1,0.2c0.1,0.1,0.2,0.3,0.3,0.5s0.1,0.4,0.1,0.6c0,0.7-0.2,1.2-0.7,1.6s-1.1,0.6-1.9,0.6
		c-0.2,0-0.4,0-0.6,0c-0.3,0.2-0.4,0.4-0.4,0.6c0,0.1,0.1,0.3,0.2,0.3s0.4,0.1,0.8,0.1h1.1c0.7,0,1.3,0.2,1.6,0.5s0.6,0.7,0.6,1.3
		c0,0.7-0.3,1.3-0.9,1.7s-1.5,0.6-2.6,0.6c-0.9,0-1.6-0.2-2-0.5s-0.7-0.8-0.7-1.3c0-0.4,0.1-0.7,0.4-1s0.6-0.5,1.1-0.6
		c-0.2-0.1-0.3-0.2-0.5-0.4s-0.2-0.4-0.2-0.5c0-0.2,0.1-0.4,0.2-0.6s0.3-0.3,0.6-0.5c-0.3-0.1-0.6-0.4-0.8-0.7s-0.3-0.7-0.3-1.1
		c0-0.7,0.2-1.2,0.7-1.6s1.1-0.6,1.9-0.6c0.2,0,0.4,0,0.6,0s0.4,0.1,0.5,0.1H555.7z M550.6,162.8c0,0.3,0.1,0.5,0.4,0.7
		s0.6,0.2,1.1,0.2c0.8,0,1.3-0.1,1.7-0.3s0.6-0.5,0.6-0.9c0-0.3-0.1-0.5-0.3-0.6s-0.6-0.2-1.1-0.2h-1c-0.4,0-0.7,0.1-0.9,0.3
		S550.6,162.4,550.6,162.8z M551.2,157.4c0,0.4,0.1,0.7,0.3,0.9s0.5,0.3,0.9,0.3c0.8,0,1.2-0.4,1.2-1.3c0-0.4-0.1-0.7-0.3-1
		s-0.5-0.3-0.9-0.3c-0.4,0-0.7,0.1-0.9,0.3S551.2,156.9,551.2,157.4z"/>
	<path d="M564.1,161.8l-0.3-0.9h0c-0.3,0.4-0.6,0.7-0.9,0.8s-0.7,0.2-1.2,0.2c-0.6,0-1.1-0.2-1.5-0.5s-0.5-0.8-0.5-1.5
		c0-0.7,0.2-1.2,0.7-1.5s1.3-0.5,2.3-0.6l1.1,0v-0.3c0-0.4-0.1-0.7-0.3-0.9s-0.5-0.3-0.9-0.3c-0.3,0-0.7,0-1,0.1s-0.6,0.2-0.9,0.3
		l-0.4-1c0.4-0.2,0.7-0.3,1.2-0.4s0.8-0.1,1.2-0.1c0.8,0,1.4,0.2,1.9,0.5s0.6,0.9,0.6,1.7v4.4H564.1z M562.1,160.8
		c0.5,0,0.9-0.1,1.2-0.4s0.5-0.7,0.5-1.2v-0.6l-0.8,0c-0.6,0-1.1,0.1-1.4,0.3s-0.4,0.5-0.4,0.9c0,0.3,0.1,0.5,0.3,0.7
		S561.7,160.8,562.1,160.8z"/>
	<path d="M572.7,161.8h-1.4v-4c0-0.5-0.1-0.9-0.3-1.1s-0.5-0.4-1-0.4c-0.6,0-1,0.2-1.3,0.5s-0.4,0.9-0.4,1.7v3.2H567v-6.5h1.1
		l0.2,0.8h0.1c0.2-0.3,0.5-0.5,0.8-0.7s0.8-0.3,1.2-0.3c1.6,0,2.3,0.8,2.3,2.4V161.8z"/>
	<path d="M576.8,161.9c-0.8,0-1.4-0.3-1.9-0.9s-0.7-1.4-0.7-2.5c0-1.1,0.2-1.9,0.7-2.5s1.1-0.9,1.9-0.9c0.9,0,1.5,0.3,1.9,0.9h0.1
		c-0.1-0.5-0.1-0.8-0.1-1.1v-2.4h1.4v9.1h-1.1l-0.2-0.8h-0.1C578.3,161.5,577.7,161.9,576.8,161.9z M577.2,160.8
		c0.6,0,1-0.2,1.2-0.5s0.4-0.8,0.4-1.5v-0.2c0-0.8-0.1-1.4-0.4-1.7s-0.7-0.5-1.2-0.5c-0.5,0-0.9,0.2-1.1,0.6s-0.4,1-0.4,1.7
		c0,0.7,0.1,1.3,0.4,1.6S576.7,160.8,577.2,160.8z"/>
	<path d="M351.8,176.3c-0.8,0-1.5-0.3-1.9-0.9h-0.1c0.1,0.5,0.1,0.9,0.1,1v2.7h-1.4v-9.4h1.1c0,0.1,0.1,0.4,0.2,0.9h0.1
		c0.4-0.7,1.1-1,1.9-1c0.8,0,1.4,0.3,1.9,0.9s0.7,1.4,0.7,2.5s-0.2,1.9-0.7,2.5S352.6,176.3,351.8,176.3z M351.4,170.7
		c-0.5,0-0.9,0.2-1.2,0.5s-0.4,0.8-0.4,1.5v0.2c0,0.8,0.1,1.4,0.4,1.7s0.7,0.5,1.2,0.5c0.5,0,0.8-0.2,1.1-0.6s0.4-0.9,0.4-1.7
		c0-0.7-0.1-1.3-0.4-1.6S351.9,170.7,351.4,170.7z"/>
	<path d="M359.2,169.6c0.3,0,0.5,0,0.7,0.1l-0.1,1.3c-0.2,0-0.4-0.1-0.6-0.1c-0.6,0-1,0.2-1.3,0.5s-0.5,0.8-0.5,1.4v3.4H356v-6.5
		h1.1l0.2,1.1h0.1c0.2-0.4,0.5-0.7,0.8-0.9S358.8,169.6,359.2,169.6z"/>
	<path d="M366.9,172.9c0,1.1-0.3,1.9-0.8,2.5s-1.3,0.9-2.3,0.9c-0.6,0-1.1-0.1-1.6-0.4s-0.8-0.7-1.1-1.2s-0.4-1.1-0.4-1.8
		c0-1.1,0.3-1.9,0.8-2.5s1.3-0.9,2.3-0.9c0.9,0,1.7,0.3,2.2,0.9S366.9,171.9,366.9,172.9z M362.2,172.9c0,1.5,0.6,2.2,1.7,2.2
		c1.1,0,1.6-0.7,1.6-2.2c0-1.5-0.6-2.2-1.7-2.2c-0.6,0-1,0.2-1.3,0.6S362.2,172.2,362.2,172.9z"/>
	<path d="M371.1,176.3c-1,0-1.7-0.3-2.2-0.9s-0.8-1.4-0.8-2.5c0-1.1,0.3-1.9,0.8-2.5s1.3-0.9,2.3-0.9c0.7,0,1.3,0.1,1.8,0.4
		l-0.4,1.1c-0.6-0.2-1.1-0.3-1.4-0.3c-1.1,0-1.7,0.7-1.7,2.2c0,0.7,0.1,1.3,0.4,1.6s0.7,0.5,1.2,0.5c0.6,0,1.2-0.2,1.7-0.5v1.2
		c-0.2,0.1-0.5,0.2-0.8,0.3S371.5,176.3,371.1,176.3z"/>
	<path d="M377.2,176.3c-1,0-1.8-0.3-2.4-0.9S374,174,374,173c0-1.1,0.3-1.9,0.8-2.5s1.3-0.9,2.2-0.9c0.9,0,1.5,0.3,2,0.8
		s0.7,1.2,0.7,2.1v0.7h-4.3c0,0.6,0.2,1.1,0.5,1.5s0.8,0.5,1.4,0.5c0.4,0,0.7,0,1.1-0.1s0.7-0.2,1.1-0.4v1.1c-0.3,0.2-0.7,0.3-1,0.3
		S377.7,176.3,377.2,176.3z M377,170.6c-0.4,0-0.8,0.1-1.1,0.4s-0.4,0.7-0.5,1.2h2.9c0-0.5-0.1-0.9-0.4-1.2S377.4,170.6,377,170.6z"
		/>
	<path d="M385.7,174.3c0,0.6-0.2,1.1-0.7,1.5s-1.1,0.5-2,0.5c-0.9,0-1.6-0.1-2.1-0.4v-1.2c0.8,0.4,1.5,0.5,2.1,0.5
		c0.8,0,1.3-0.3,1.3-0.8c0-0.2,0-0.3-0.1-0.4s-0.2-0.2-0.5-0.3s-0.5-0.3-0.9-0.4c-0.7-0.3-1.3-0.6-1.5-0.9s-0.4-0.7-0.4-1.1
		c0-0.6,0.2-1,0.7-1.3s1.1-0.5,1.8-0.5c0.8,0,1.5,0.2,2.2,0.5l-0.4,1c-0.7-0.3-1.3-0.4-1.8-0.4c-0.7,0-1.1,0.2-1.1,0.6
		c0,0.2,0.1,0.4,0.3,0.5s0.6,0.3,1.2,0.6c0.5,0.2,0.9,0.4,1.2,0.6s0.4,0.4,0.5,0.6S385.7,174,385.7,174.3z"/>
	<path d="M391.5,174.3c0,0.6-0.2,1.1-0.7,1.5s-1.1,0.5-2,0.5c-0.9,0-1.6-0.1-2.1-0.4v-1.2c0.8,0.4,1.5,0.5,2.1,0.5
		c0.8,0,1.3-0.3,1.3-0.8c0-0.2,0-0.3-0.1-0.4s-0.2-0.2-0.5-0.3s-0.5-0.3-0.9-0.4c-0.7-0.3-1.3-0.6-1.5-0.9s-0.4-0.7-0.4-1.1
		c0-0.6,0.2-1,0.7-1.3s1.1-0.5,1.8-0.5c0.8,0,1.5,0.2,2.2,0.5l-0.4,1c-0.7-0.3-1.3-0.4-1.8-0.4c-0.7,0-1.1,0.2-1.1,0.6
		c0,0.2,0.1,0.4,0.3,0.5s0.6,0.3,1.2,0.6c0.5,0.2,0.9,0.4,1.2,0.6s0.4,0.4,0.5,0.6S391.5,174,391.5,174.3z"/>
	<path d="M395.8,176.3c-1,0-1.8-0.3-2.4-0.9s-0.9-1.4-0.9-2.4c0-1.1,0.3-1.9,0.8-2.5s1.3-0.9,2.2-0.9c0.9,0,1.5,0.3,2,0.8
		s0.7,1.2,0.7,2.1v0.7H394c0,0.6,0.2,1.1,0.5,1.5s0.8,0.5,1.4,0.5c0.4,0,0.7,0,1.1-0.1s0.7-0.2,1.1-0.4v1.1c-0.3,0.2-0.7,0.3-1,0.3
		S396.3,176.3,395.8,176.3z M395.6,170.6c-0.4,0-0.8,0.1-1.1,0.4s-0.4,0.7-0.5,1.2h2.9c0-0.5-0.1-0.9-0.4-1.2S396,170.6,395.6,170.6
		z"/>
	<path d="M404.3,174.3c0,0.6-0.2,1.1-0.7,1.5s-1.1,0.5-2,0.5c-0.9,0-1.6-0.1-2.1-0.4v-1.2c0.8,0.4,1.5,0.5,2.1,0.5
		c0.8,0,1.3-0.3,1.3-0.8c0-0.2,0-0.3-0.1-0.4s-0.2-0.2-0.5-0.3s-0.5-0.3-0.9-0.4c-0.7-0.3-1.3-0.6-1.5-0.9s-0.4-0.7-0.4-1.1
		c0-0.6,0.2-1,0.7-1.3s1.1-0.5,1.8-0.5c0.8,0,1.5,0.2,2.2,0.5l-0.4,1c-0.7-0.3-1.3-0.4-1.8-0.4c-0.7,0-1.1,0.2-1.1,0.6
		c0,0.2,0.1,0.4,0.3,0.5s0.6,0.3,1.2,0.6c0.5,0.2,0.9,0.4,1.2,0.6s0.4,0.4,0.5,0.6S404.3,174,404.3,174.3z"/>
	<path d="M411.3,175.2c0.3,0,0.7-0.1,1-0.2v1c-0.2,0.1-0.3,0.1-0.6,0.2s-0.5,0.1-0.7,0.1c-1.3,0-2-0.7-2-2.1v-3.5h-0.9v-0.6l0.9-0.5
		l0.5-1.4h0.8v1.4h1.8v1h-1.8v3.5c0,0.3,0.1,0.6,0.2,0.7S411,175.2,411.3,175.2z"/>
	<path d="M419.3,176.2h-1.4v-4c0-0.5-0.1-0.9-0.3-1.1s-0.5-0.4-1-0.4c-0.6,0-1,0.2-1.3,0.5s-0.4,0.9-0.4,1.7v3.2h-1.4V167h1.4v2.3
		c0,0.4,0,0.8-0.1,1.2h0.1c0.2-0.3,0.4-0.6,0.8-0.7s0.7-0.3,1.2-0.3c1.6,0,2.4,0.8,2.4,2.4V176.2z"/>
	<path d="M424,176.3c-1,0-1.8-0.3-2.4-0.9s-0.9-1.4-0.9-2.4c0-1.1,0.3-1.9,0.8-2.5s1.3-0.9,2.2-0.9c0.9,0,1.5,0.3,2,0.8
		s0.7,1.2,0.7,2.1v0.7h-4.3c0,0.6,0.2,1.1,0.5,1.5s0.8,0.5,1.4,0.5c0.4,0,0.7,0,1.1-0.1s0.7-0.2,1.1-0.4v1.1c-0.3,0.2-0.7,0.3-1,0.3
		S424.5,176.3,424,176.3z M423.8,170.6c-0.4,0-0.8,0.1-1.1,0.4s-0.4,0.7-0.5,1.2h2.9c0-0.5-0.1-0.9-0.4-1.2S424.2,170.6,423.8,170.6
		z"/>
	<path d="M434.5,170.7h-1.6v5.4h-1.4v-5.4h-1.1v-0.6l1.1-0.4v-0.4c0-0.8,0.2-1.3,0.5-1.7s0.9-0.6,1.6-0.6c0.5,0,1,0.1,1.4,0.2
		l-0.4,1c-0.3-0.1-0.7-0.2-1-0.2c-0.3,0-0.5,0.1-0.7,0.3s-0.2,0.5-0.2,0.9v0.4h1.6V170.7z"/>
	<path d="M438.9,169.6c0.3,0,0.5,0,0.7,0.1l-0.1,1.3c-0.2,0-0.4-0.1-0.6-0.1c-0.6,0-1,0.2-1.3,0.5s-0.5,0.8-0.5,1.4v3.4h-1.4v-6.5
		h1.1l0.2,1.1h0.1c0.2-0.4,0.5-0.7,0.8-0.9S438.5,169.6,438.9,169.6z"/>
	<path d="M444.8,176.2l-0.3-0.9h0c-0.3,0.4-0.6,0.7-0.9,0.8s-0.7,0.2-1.2,0.2c-0.6,0-1.1-0.2-1.5-0.5s-0.5-0.8-0.5-1.5
		c0-0.7,0.2-1.2,0.7-1.5s1.3-0.5,2.3-0.6l1.1,0v-0.3c0-0.4-0.1-0.7-0.3-0.9s-0.5-0.3-0.9-0.3c-0.3,0-0.7,0-1,0.1s-0.6,0.2-0.9,0.3
		l-0.4-1c0.4-0.2,0.7-0.3,1.2-0.4s0.8-0.1,1.2-0.1c0.8,0,1.4,0.2,1.9,0.5s0.6,0.9,0.6,1.7v4.4H444.8z M442.8,175.2
		c0.5,0,0.9-0.1,1.2-0.4s0.5-0.7,0.5-1.2v-0.6l-0.8,0c-0.6,0-1.1,0.1-1.4,0.3s-0.4,0.5-0.4,0.9c0,0.3,0.1,0.5,0.3,0.7
		S442.4,175.2,442.8,175.2z"/>
	<path d="M452.3,176.2l-0.2-0.8H452c-0.2,0.3-0.5,0.5-0.8,0.7s-0.8,0.3-1.2,0.3c-0.8,0-1.4-0.2-1.8-0.6s-0.6-1-0.6-1.8v-4.2h1.4v4
		c0,0.5,0.1,0.9,0.3,1.1s0.5,0.4,1,0.4c0.6,0,1-0.2,1.3-0.5s0.4-0.9,0.4-1.7v-3.2h1.4v6.5H452.3z"/>
	<path d="M457.5,176.3c-0.8,0-1.4-0.3-1.9-0.9s-0.7-1.4-0.7-2.5c0-1.1,0.2-1.9,0.7-2.5s1.1-0.9,1.9-0.9c0.9,0,1.5,0.3,1.9,0.9h0.1
		c-0.1-0.5-0.1-0.8-0.1-1.1V167h1.4v9.1h-1.1l-0.2-0.8h-0.1C459,175.9,458.4,176.3,457.5,176.3z M457.9,175.2c0.6,0,1-0.2,1.2-0.5
		s0.4-0.8,0.4-1.5v-0.2c0-0.8-0.1-1.4-0.4-1.7s-0.7-0.5-1.2-0.5c-0.5,0-0.9,0.2-1.1,0.6s-0.4,1-0.4,1.7c0,0.7,0.1,1.3,0.4,1.6
		S457.4,175.2,457.9,175.2z"/>
	<path d="M467.4,176.2l-0.2-0.8h-0.1c-0.2,0.3-0.5,0.5-0.8,0.7s-0.8,0.3-1.2,0.3c-0.8,0-1.4-0.2-1.8-0.6s-0.6-1-0.6-1.8v-4.2h1.4v4
		c0,0.5,0.1,0.9,0.3,1.1s0.5,0.4,1,0.4c0.6,0,1-0.2,1.3-0.5s0.4-0.9,0.4-1.7v-3.2h1.4v6.5H467.4z"/>
	<path d="M471.8,176.2h-1.4V167h1.4V176.2z"/>
	<path d="M476.6,176.3c-1,0-1.8-0.3-2.4-0.9s-0.9-1.4-0.9-2.4c0-1.1,0.3-1.9,0.8-2.5s1.3-0.9,2.2-0.9c0.9,0,1.5,0.3,2,0.8
		s0.7,1.2,0.7,2.1v0.7h-4.3c0,0.6,0.2,1.1,0.5,1.5s0.8,0.5,1.4,0.5c0.4,0,0.7,0,1.1-0.1s0.7-0.2,1.1-0.4v1.1c-0.3,0.2-0.7,0.3-1,0.3
		S477.1,176.3,476.6,176.3z M476.4,170.6c-0.4,0-0.8,0.1-1.1,0.4s-0.4,0.7-0.5,1.2h2.9c0-0.5-0.1-0.9-0.4-1.2
		S476.8,170.6,476.4,170.6z"/>
	<path d="M486.4,176.2H485v-4c0-0.5-0.1-0.9-0.3-1.1s-0.5-0.4-1-0.4c-0.6,0-1,0.2-1.3,0.5s-0.4,0.9-0.4,1.7v3.2h-1.4v-6.5h1.1
		l0.2,0.8h0.1c0.2-0.3,0.5-0.5,0.8-0.7s0.8-0.3,1.2-0.3c1.6,0,2.3,0.8,2.3,2.4V176.2z"/>
	<path d="M490.7,175.2c0.3,0,0.7-0.1,1-0.2v1c-0.2,0.1-0.3,0.1-0.6,0.2s-0.5,0.1-0.7,0.1c-1.3,0-2-0.7-2-2.1v-3.5h-0.9v-0.6l0.9-0.5
		l0.5-1.4h0.8v1.4h1.8v1h-1.8v3.5c0,0.3,0.1,0.6,0.2,0.7S490.5,175.2,490.7,175.2z"/>
	<path d="M498.6,175.2c0.3,0,0.7-0.1,1-0.2v1c-0.2,0.1-0.3,0.1-0.6,0.2s-0.5,0.1-0.7,0.1c-1.3,0-2-0.7-2-2.1v-3.5h-0.9v-0.6l0.9-0.5
		l0.5-1.4h0.8v1.4h1.8v1h-1.8v3.5c0,0.3,0.1,0.6,0.2,0.7S498.3,175.2,498.6,175.2z"/>
	<path d="M504.2,169.6c0.3,0,0.5,0,0.7,0.1l-0.1,1.3c-0.2,0-0.4-0.1-0.6-0.1c-0.6,0-1,0.2-1.3,0.5s-0.5,0.8-0.5,1.4v3.4h-1.4v-6.5
		h1.1l0.2,1.1h0.1c0.2-0.4,0.5-0.7,0.8-0.9S503.8,169.6,504.2,169.6z"/>
	<path d="M510.1,176.2l-0.3-0.9h0c-0.3,0.4-0.6,0.7-0.9,0.8s-0.7,0.2-1.2,0.2c-0.6,0-1.1-0.2-1.5-0.5s-0.5-0.8-0.5-1.5
		c0-0.7,0.2-1.2,0.7-1.5s1.3-0.5,2.3-0.6l1.1,0v-0.3c0-0.4-0.1-0.7-0.3-0.9s-0.5-0.3-0.9-0.3c-0.3,0-0.7,0-1,0.1s-0.6,0.2-0.9,0.3
		l-0.4-1c0.4-0.2,0.7-0.3,1.2-0.4s0.8-0.1,1.2-0.1c0.8,0,1.4,0.2,1.9,0.5s0.6,0.9,0.6,1.7v4.4H510.1z M508,175.2
		c0.5,0,0.9-0.1,1.2-0.4s0.5-0.7,0.5-1.2v-0.6l-0.8,0c-0.6,0-1.1,0.1-1.4,0.3s-0.4,0.5-0.4,0.9c0,0.3,0.1,0.5,0.3,0.7
		S507.7,175.2,508,175.2z"/>
	<path d="M518.7,176.2h-1.4v-4c0-0.5-0.1-0.9-0.3-1.1s-0.5-0.4-1-0.4c-0.6,0-1,0.2-1.3,0.5s-0.4,0.9-0.4,1.7v3.2H513v-6.5h1.1
		l0.2,0.8h0.1c0.2-0.3,0.5-0.5,0.8-0.7s0.8-0.3,1.2-0.3c1.6,0,2.3,0.8,2.3,2.4V176.2z"/>
	<path d="M525,174.3c0,0.6-0.2,1.1-0.7,1.5s-1.1,0.5-2,0.5c-0.9,0-1.6-0.1-2.1-0.4v-1.2c0.8,0.4,1.5,0.5,2.1,0.5
		c0.8,0,1.3-0.3,1.3-0.8c0-0.2,0-0.3-0.1-0.4s-0.2-0.2-0.5-0.3s-0.5-0.3-0.9-0.4c-0.7-0.3-1.3-0.6-1.5-0.9s-0.4-0.7-0.4-1.1
		c0-0.6,0.2-1,0.7-1.3s1.1-0.5,1.8-0.5c0.8,0,1.5,0.2,2.2,0.5l-0.4,1c-0.7-0.3-1.3-0.4-1.8-0.4c-0.7,0-1.1,0.2-1.1,0.6
		c0,0.2,0.1,0.4,0.3,0.5s0.6,0.3,1.2,0.6c0.5,0.2,0.9,0.4,1.2,0.6s0.4,0.4,0.5,0.6S525,174,525,174.3z"/>
	<path d="M530.5,176.2l-0.3-0.9h0c-0.3,0.4-0.6,0.7-0.9,0.8s-0.7,0.2-1.2,0.2c-0.6,0-1.1-0.2-1.5-0.5s-0.5-0.8-0.5-1.5
		c0-0.7,0.2-1.2,0.7-1.5s1.3-0.5,2.3-0.6l1.1,0v-0.3c0-0.4-0.1-0.7-0.3-0.9s-0.5-0.3-0.9-0.3c-0.3,0-0.7,0-1,0.1s-0.6,0.2-0.9,0.3
		l-0.4-1c0.4-0.2,0.7-0.3,1.2-0.4s0.8-0.1,1.2-0.1c0.8,0,1.4,0.2,1.9,0.5s0.6,0.9,0.6,1.7v4.4H530.5z M528.5,175.2
		c0.5,0,0.9-0.1,1.2-0.4s0.5-0.7,0.5-1.2v-0.6l-0.8,0c-0.6,0-1.1,0.1-1.4,0.3s-0.4,0.5-0.4,0.9c0,0.3,0.1,0.5,0.3,0.7
		S528.1,175.2,528.5,175.2z"/>
	<path d="M536,176.3c-1,0-1.7-0.3-2.2-0.9s-0.8-1.4-0.8-2.5c0-1.1,0.3-1.9,0.8-2.5s1.3-0.9,2.3-0.9c0.7,0,1.3,0.1,1.8,0.4l-0.4,1.1
		c-0.6-0.2-1.1-0.3-1.4-0.3c-1.1,0-1.7,0.7-1.7,2.2c0,0.7,0.1,1.3,0.4,1.6s0.7,0.5,1.2,0.5c0.6,0,1.2-0.2,1.7-0.5v1.2
		c-0.2,0.1-0.5,0.2-0.8,0.3S536.4,176.3,536,176.3z"/>
	<path d="M541.8,175.2c0.3,0,0.7-0.1,1-0.2v1c-0.2,0.1-0.3,0.1-0.6,0.2s-0.5,0.1-0.7,0.1c-1.3,0-2-0.7-2-2.1v-3.5h-0.9v-0.6l0.9-0.5
		l0.5-1.4h0.8v1.4h1.8v1h-1.8v3.5c0,0.3,0.1,0.6,0.2,0.7S541.5,175.2,541.8,175.2z"/>
	<path d="M544,168c0-0.2,0.1-0.4,0.2-0.6s0.3-0.2,0.6-0.2c0.2,0,0.4,0.1,0.6,0.2s0.2,0.3,0.2,0.6c0,0.2-0.1,0.4-0.2,0.6
		s-0.3,0.2-0.6,0.2c-0.3,0-0.4-0.1-0.6-0.2S544,168.2,544,168z M545.5,176.2h-1.4v-6.5h1.4V176.2z"/>
	<path d="M553.2,172.9c0,1.1-0.3,1.9-0.8,2.5s-1.3,0.9-2.3,0.9c-0.6,0-1.1-0.1-1.6-0.4s-0.8-0.7-1.1-1.2s-0.4-1.1-0.4-1.8
		c0-1.1,0.3-1.9,0.8-2.5s1.3-0.9,2.3-0.9c0.9,0,1.7,0.3,2.2,0.9S553.2,171.9,553.2,172.9z M548.5,172.9c0,1.5,0.6,2.2,1.7,2.2
		c1.1,0,1.6-0.7,1.6-2.2c0-1.5-0.6-2.2-1.7-2.2c-0.6,0-1,0.2-1.3,0.6S548.5,172.2,548.5,172.9z"/>
	<path d="M560.5,176.2h-1.4v-4c0-0.5-0.1-0.9-0.3-1.1s-0.5-0.4-1-0.4c-0.6,0-1,0.2-1.3,0.5s-0.4,0.9-0.4,1.7v3.2h-1.4v-6.5h1.1
		l0.2,0.8h0.1c0.2-0.3,0.5-0.5,0.8-0.7s0.8-0.3,1.2-0.3c1.6,0,2.3,0.8,2.3,2.4V176.2z"/>
	<path d="M562.2,175.4c0-0.3,0.1-0.5,0.2-0.7s0.4-0.2,0.6-0.2c0.3,0,0.5,0.1,0.7,0.2s0.2,0.4,0.2,0.6c0,0.3-0.1,0.5-0.2,0.7
		s-0.4,0.2-0.6,0.2s-0.5-0.1-0.6-0.2S562.2,175.7,562.2,175.4z"/>
</g>
<g>
	<path class="st2" d="M361.7,62.6c0,0.8-0.3,1.4-0.8,1.8s-1.3,0.7-2.3,0.7s-1.8-0.2-2.4-0.5v-1.3c0.4,0.2,0.8,0.3,1.2,0.4
		s0.8,0.2,1.2,0.2c0.6,0,1-0.1,1.2-0.3s0.4-0.5,0.4-0.8c0-0.3-0.1-0.6-0.4-0.8s-0.7-0.5-1.5-0.8c-0.8-0.3-1.3-0.7-1.7-1.1
		s-0.5-0.9-0.5-1.5c0-0.7,0.3-1.3,0.8-1.7s1.2-0.6,2-0.6c0.8,0,1.6,0.2,2.4,0.5l-0.4,1.1c-0.8-0.3-1.4-0.5-2-0.5
		c-0.5,0-0.8,0.1-1,0.3s-0.4,0.5-0.4,0.8c0,0.2,0,0.4,0.1,0.6s0.2,0.3,0.5,0.4s0.6,0.3,1.2,0.6c0.6,0.3,1.1,0.5,1.4,0.7
		s0.5,0.5,0.6,0.8S361.7,62.2,361.7,62.6z"/>
	<path class="st2" d="M366.1,65c-1,0-1.8-0.3-2.4-0.9s-0.9-1.4-0.9-2.4c0-1.1,0.3-1.9,0.8-2.5s1.3-0.9,2.2-0.9c0.9,0,1.5,0.3,2,0.8
		s0.7,1.2,0.7,2.1V62h-4.3c0,0.6,0.2,1.1,0.5,1.5s0.8,0.5,1.4,0.5c0.4,0,0.7,0,1.1-0.1s0.7-0.2,1.1-0.4v1.1c-0.3,0.2-0.7,0.3-1,0.3
		S366.5,65,366.1,65z M365.8,59.4c-0.4,0-0.8,0.1-1.1,0.4s-0.4,0.7-0.5,1.2h2.9c0-0.5-0.1-0.9-0.4-1.2S366.3,59.4,365.8,59.4z"/>
	<path class="st2" d="M375.9,64.9h-1.4v-4c0-0.5-0.1-0.9-0.3-1.1s-0.5-0.4-1-0.4c-0.6,0-1,0.2-1.3,0.5s-0.4,0.9-0.4,1.7v3.2h-1.4
		v-6.5h1.1l0.2,0.8h0.1c0.2-0.3,0.5-0.5,0.8-0.7s0.8-0.3,1.2-0.3c1.6,0,2.3,0.8,2.3,2.4V64.9z"/>
	<path class="st2" d="M380,65c-0.8,0-1.4-0.3-1.9-0.9s-0.7-1.4-0.7-2.5c0-1.1,0.2-1.9,0.7-2.5s1.1-0.9,1.9-0.9
		c0.9,0,1.5,0.3,1.9,0.9h0.1c-0.1-0.5-0.1-0.8-0.1-1.1v-2.4h1.4v9.1h-1.1l-0.2-0.8h-0.1C381.5,64.7,380.8,65,380,65z M380.3,63.9
		c0.6,0,1-0.2,1.2-0.5s0.4-0.8,0.4-1.5v-0.2c0-0.8-0.1-1.4-0.4-1.7s-0.7-0.5-1.2-0.5c-0.5,0-0.9,0.2-1.1,0.6s-0.4,1-0.4,1.7
		c0,0.7,0.1,1.3,0.4,1.6S379.8,63.9,380.3,63.9z"/>
	<path class="st2" d="M393.6,62.3c0,0.6-0.2,1-0.6,1.4s-1,0.6-1.8,0.7v1.3h-0.8v-1.2c-1,0-1.8-0.2-2.4-0.4v-1.2
		c0.3,0.2,0.7,0.3,1.2,0.4s0.9,0.2,1.2,0.2v-2.2l-0.5-0.2c-0.6-0.2-1.1-0.5-1.4-0.9s-0.4-0.8-0.4-1.3c0-0.5,0.2-1,0.6-1.3
		s1-0.6,1.7-0.6v-1h0.8v1c0.8,0,1.5,0.2,2.3,0.5l-0.4,1.1c-0.6-0.2-1.2-0.4-1.8-0.4V60l0.4,0.2c0.7,0.3,1.3,0.6,1.5,0.9
		S393.6,61.8,393.6,62.3z M389.5,58.7c0,0.2,0.1,0.4,0.2,0.6s0.4,0.3,0.8,0.4v-1.8c-0.3,0-0.6,0.1-0.7,0.3S389.5,58.5,389.5,58.7z
		 M392.2,62.3c0-0.2-0.1-0.4-0.2-0.6s-0.4-0.3-0.8-0.4v1.9C391.9,63.1,392.2,62.8,392.2,62.3z"/>
	<path class="st2" d="M398.8,64.9h-1.4v-5.5c0-0.7,0-1.2,0-1.6c-0.1,0.1-0.2,0.2-0.3,0.3s-0.6,0.5-1.3,1.1l-0.7-0.9l2.5-2h1.1V64.9z
		"/>
	<path class="st2" d="M407.4,60.6c0,1.5-0.2,2.6-0.7,3.3s-1.2,1.1-2.2,1.1c-1,0-1.7-0.4-2.2-1.1s-0.7-1.8-0.7-3.3
		c0-1.5,0.2-2.6,0.7-3.3s1.2-1.1,2.2-1.1c1,0,1.7,0.4,2.2,1.1S407.4,59.2,407.4,60.6z M403,60.6c0,1.2,0.1,2,0.4,2.5
		s0.6,0.8,1.2,0.8s0.9-0.3,1.2-0.8s0.4-1.3,0.4-2.5c0-1.1-0.1-2-0.4-2.5s-0.6-0.8-1.2-0.8s-0.9,0.3-1.2,0.8S403,59.5,403,60.6z"/>
	<path class="st2" d="M414.3,60.6c0,1.5-0.2,2.6-0.7,3.3s-1.2,1.1-2.2,1.1c-1,0-1.7-0.4-2.2-1.1s-0.7-1.8-0.7-3.3
		c0-1.5,0.2-2.6,0.7-3.3s1.2-1.1,2.2-1.1c1,0,1.7,0.4,2.2,1.1S414.3,59.2,414.3,60.6z M409.9,60.6c0,1.2,0.1,2,0.4,2.5
		s0.6,0.8,1.2,0.8s0.9-0.3,1.2-0.8s0.4-1.3,0.4-2.5c0-1.1-0.1-2-0.4-2.5s-0.6-0.8-1.2-0.8s-0.9,0.3-1.2,0.8S409.9,59.5,409.9,60.6z"
		/>
	<path class="st2" d="M421.3,63.9c0.3,0,0.7-0.1,1-0.2v1c-0.2,0.1-0.3,0.1-0.6,0.2S421.2,65,421,65c-1.3,0-2-0.7-2-2.1v-3.5h-0.9
		v-0.6l0.9-0.5l0.5-1.4h0.8v1.4h1.8v1h-1.8v3.5c0,0.3,0.1,0.6,0.2,0.7S421,63.9,421.3,63.9z"/>
	<path class="st2" d="M429.4,61.7c0,1.1-0.3,1.9-0.8,2.5s-1.3,0.9-2.3,0.9c-0.6,0-1.1-0.1-1.6-0.4s-0.8-0.7-1.1-1.2
		s-0.4-1.1-0.4-1.8c0-1.1,0.3-1.9,0.8-2.5s1.3-0.9,2.3-0.9c0.9,0,1.7,0.3,2.2,0.9S429.4,60.6,429.4,61.7z M424.6,61.7
		c0,1.5,0.6,2.2,1.7,2.2c1.1,0,1.6-0.7,1.6-2.2c0-1.5-0.6-2.2-1.7-2.2c-0.6,0-1,0.2-1.3,0.6S424.6,60.9,424.6,61.7z"/>
	<path class="st2" d="M439.1,64.9h-4.8v-8.6h4.8v1.2h-3.4v2.3h3.2V61h-3.2v2.7h3.4V64.9z"/>
	<path class="st2" d="M442.2,64.9l-2.5-6.5h1.5l1.3,3.8c0.2,0.6,0.4,1.1,0.4,1.5h0c0-0.3,0.2-0.8,0.4-1.5l1.3-3.8h1.5l-2.5,6.5
		H442.2z"/>
	<path class="st2" d="M450,65c-1,0-1.8-0.3-2.4-0.9s-0.9-1.4-0.9-2.4c0-1.1,0.3-1.9,0.8-2.5s1.3-0.9,2.2-0.9c0.9,0,1.5,0.3,2,0.8
		s0.7,1.2,0.7,2.1V62h-4.3c0,0.6,0.2,1.1,0.5,1.5s0.8,0.5,1.4,0.5c0.4,0,0.7,0,1.1-0.1s0.7-0.2,1.1-0.4v1.1c-0.3,0.2-0.7,0.3-1,0.3
		S450.4,65,450,65z M449.8,59.4c-0.4,0-0.8,0.1-1.1,0.4s-0.4,0.7-0.5,1.2h2.9c0-0.5-0.1-0.9-0.4-1.2S450.2,59.4,449.8,59.4z"/>
</g>
</svg>
