<?xml version="1.0" encoding="utf-8"?>
<!-- Generator: Adobe Illustrator 19.2.0, SVG Export Plug-In . SVG Version: 6.00 Build 0)  -->
<svg version="1.1" id="Layer_1" xmlns="http://www.w3.org/2000/svg" xmlns:xlink="http://www.w3.org/1999/xlink" x="0px" y="0px"
	 viewBox="0 0 600 88" style="enable-background:new 0 0 600 88;" xml:space="preserve">
<style type="text/css">
	.st0{fill:#FFFFFF;}
	.st1{fill:#21B24B;}
	.st2{fill:#484AB8;}
	.st3{fill:#B82025;}
</style>
<g>
	<g>
		<g>
			<path class="st0" d="M587.9,64.9h-35.3c-2.8,0-5.1-2.3-5.1-5.1V36c0-2.8,2.3-5.1,5.1-5.1h35.3c2.8,0,5.1,2.3,5.1,5.1v23.9
				C592.9,62.6,590.7,64.9,587.9,64.9z"/>
			<path d="M587.9,66.4h-35.3c-3.6,0-6.6-2.9-6.6-6.6V36c0-3.6,2.9-6.6,6.6-6.6h35.3c3.6,0,6.6,2.9,6.6,6.6v23.9
				C594.4,63.5,591.5,66.4,587.9,66.4z M552.6,32.4c-2,0-3.6,1.6-3.6,3.6v23.9c0,2,1.6,3.6,3.6,3.6h35.3c2,0,3.6-1.6,3.6-3.6V36
				c0-2-1.6-3.6-3.6-3.6H552.6z"/>
		</g>
		<g>
			<g>
				<path class="st0" d="M545.4,83.2c-1.1,0-1.5-0.8-1-1.7l5.5-9.1c0.6-0.9,1.9-1.8,3-1.8h34.9c1.1,0,2.5,0.9,3,1.8l5.6,9.4
					c0.6,0.9,0.1,1.7-1,1.7L545.4,83.2z"/>
			</g>
			<g>
				<path d="M595.6,85.5C595.6,85.5,595.6,85.5,595.6,85.5l-50.2-0.6c-1.1,0-2-0.6-2.4-1.4c-0.5-0.8-0.4-1.9,0.2-2.8l5.5-8.9
					c0.9-1.6,2.9-2.3,4.3-2.3h34.9c1.4,0,3.4,0.7,4.3,2.3l5.6,9.3c0.6,0.9,0.6,2.1,0.2,2.9S596.7,85.5,595.6,85.5z M546.1,81.7
					l48.8,0.4l-5.2-8.7c-0.3-0.4-1.1-0.8-1.7-0.8H553c-0.7,0-1.5,0.4-1.7,0.8L546.1,81.7z"/>
			</g>
		</g>
		<g>
			<rect x="561.9" y="64.9" width="16.7" height="5.8"/>
		</g>
		<g>
			<path class="st1" d="M585.5,59.3H555c-0.7,0-1.2-0.5-1.2-1.2V37.7c0-0.7,0.5-1.2,1.2-1.2h30.4c0.7,0,1.2,0.5,1.2,1.2v20.4
				C586.7,58.8,586.1,59.3,585.5,59.3z"/>
		</g>
	</g>
	<g>
		<path d="M554.3,4.4h4.1c1.9,0,3.2,0.3,4,0.8c0.8,0.5,1.3,1.4,1.3,2.5c0,0.8-0.2,1.4-0.6,1.9c-0.4,0.5-0.9,0.8-1.5,0.9v0.1
			c0.8,0.2,1.4,0.5,1.8,1s0.6,1.2,0.6,2c0,1.2-0.4,2.1-1.3,2.8c-0.9,0.7-2,1-3.5,1h-4.9V4.4z M557.1,9.6h1.6c0.8,0,1.3-0.1,1.6-0.3
			c0.3-0.2,0.5-0.6,0.5-1.2c0-0.5-0.2-0.9-0.6-1.1c-0.4-0.2-0.9-0.3-1.7-0.3h-1.5V9.6z M557.1,11.8v3.4h1.8c0.8,0,1.3-0.1,1.7-0.4
			c0.4-0.3,0.5-0.7,0.5-1.3c0-1.1-0.8-1.6-2.3-1.6H557.1z"/>
		<path d="M575.5,12.5c0,1.6-0.4,2.9-1.3,3.8c-0.9,0.9-2.1,1.4-3.6,1.4c-1,0-1.8-0.2-2.5-0.6c-0.7-0.4-1.3-1-1.7-1.8
			s-0.6-1.7-0.6-2.8c0-1.6,0.4-2.9,1.3-3.8c0.9-0.9,2.1-1.4,3.6-1.4c1,0,1.8,0.2,2.5,0.6c0.7,0.4,1.3,1,1.7,1.8
			C575.3,10.5,575.5,11.4,575.5,12.5z M568.6,12.5c0,1,0.2,1.7,0.5,2.2s0.9,0.8,1.6,0.8c0.7,0,1.3-0.3,1.6-0.8s0.5-1.3,0.5-2.3
			c0-1-0.2-1.7-0.5-2.2c-0.3-0.5-0.9-0.7-1.6-0.7c-0.7,0-1.3,0.2-1.6,0.7C568.8,10.7,568.6,11.5,568.6,12.5z"/>
		<path d="M583.4,7.3c1.2,0,2.1,0.5,2.8,1.4c0.7,0.9,1,2.2,1,3.8c0,1.7-0.3,2.9-1,3.8c-0.7,0.9-1.6,1.4-2.8,1.4
			c-1.2,0-2.1-0.4-2.8-1.3h-0.2l-0.5,1.1h-2.1V3.6h2.7v3.2c0,0.4,0,1.1-0.1,2h0.1C581.2,7.8,582.1,7.3,583.4,7.3z M582.5,9.5
			c-0.7,0-1.2,0.2-1.5,0.6c-0.3,0.4-0.5,1.1-0.5,2.1v0.3c0,1.1,0.2,1.8,0.5,2.3c0.3,0.5,0.8,0.7,1.5,0.7c0.6,0,1-0.3,1.3-0.8
			c0.3-0.5,0.5-1.3,0.5-2.3s-0.2-1.7-0.5-2.2C583.5,9.7,583.1,9.5,582.5,9.5z"/>
	</g>
</g>
<g>
	<g>
		<g>
			<path class="st0" d="M46.9,64.9H11.6c-2.8,0-5.1-2.3-5.1-5.1V36c0-2.8,2.3-5.1,5.1-5.1h35.3c2.8,0,5.1,2.3,5.1,5.1v23.9
				C51.9,62.6,49.7,64.9,46.9,64.9z"/>
			<path d="M46.9,66.4H11.6c-3.6,0-6.6-2.9-6.6-6.6V36c0-3.6,2.9-6.6,6.6-6.6h35.3c3.6,0,6.6,2.9,6.6,6.6v23.9
				C53.4,63.5,50.5,66.4,46.9,66.4z M11.6,32.4c-2,0-3.6,1.6-3.6,3.6v23.9c0,2,1.6,3.6,3.6,3.6h35.3c2,0,3.6-1.6,3.6-3.6V36
				c0-2-1.6-3.6-3.6-3.6H11.6z"/>
		</g>
		<g>
			<g>
				<path class="st0" d="M4.4,83.2c-1.1,0-1.5-0.8-1-1.7l5.5-9.1c0.6-0.9,1.9-1.8,3-1.8h34.9c1.1,0,2.5,0.9,3,1.8l5.6,9.4
					c0.6,0.9,0.1,1.7-1,1.7L4.4,83.2z"/>
			</g>
			<g>
				<path d="M54.6,85.5C54.6,85.5,54.6,85.5,54.6,85.5L4.4,84.9c-1.1,0-2-0.6-2.4-1.4c-0.5-0.8-0.4-1.9,0.2-2.8l5.5-8.9
					c0.9-1.6,2.9-2.3,4.3-2.3h34.9c1.4,0,3.4,0.7,4.3,2.3l5.6,9.3c0.6,0.9,0.6,2.1,0.2,2.9S55.7,85.5,54.6,85.5z M5.1,81.7L53.9,82
					l-5.2-8.7c-0.3-0.4-1.1-0.8-1.7-0.8H12c-0.7,0-1.5,0.4-1.7,0.8L5.1,81.7z"/>
			</g>
		</g>
		<g>
			<rect x="20.9" y="64.9" width="16.7" height="5.8"/>
		</g>
		<g>
			<path class="st2" d="M44.5,59.3H14c-0.7,0-1.2-0.5-1.2-1.2V37.7c0-0.7,0.5-1.2,1.2-1.2h30.4c0.7,0,1.2,0.5,1.2,1.2v20.4
				C45.7,58.8,45.1,59.3,44.5,59.3z"/>
		</g>
	</g>
	<g>
		<path d="M16.9,17.5l-1-3.1h-4.8l-0.9,3.1h-3l4.6-13.2h3.4l4.6,13.2H16.9z M15.3,12.1c-0.9-2.8-1.4-4.4-1.5-4.8
			c-0.1-0.4-0.2-0.7-0.2-0.9c-0.2,0.8-0.8,2.7-1.7,5.7H15.3z"/>
		<path d="M24.1,17.5h-2.7V3.6h2.7V17.5z"/>
		<path d="M26.8,4.9c0-0.9,0.5-1.3,1.5-1.3s1.5,0.4,1.5,1.3c0,0.4-0.1,0.8-0.4,1c-0.2,0.2-0.6,0.4-1.1,0.4
			C27.3,6.2,26.8,5.8,26.8,4.9z M29.7,17.5h-2.7v-10h2.7V17.5z"/>
		<path d="M36.6,17.7c-3.1,0-4.7-1.7-4.7-5.1c0-1.7,0.4-3,1.3-3.9c0.8-0.9,2.1-1.3,3.6-1.3C38,7.3,39.1,7.5,40,8l-0.8,2.1
			c-0.4-0.2-0.8-0.3-1.2-0.4c-0.4-0.1-0.7-0.2-1.1-0.2c-1.4,0-2.1,1-2.1,3c0,2,0.7,2.9,2.1,2.9c0.5,0,1-0.1,1.5-0.2
			c0.4-0.1,0.9-0.4,1.3-0.7v2.3c-0.4,0.3-0.9,0.5-1.3,0.6C37.9,17.6,37.3,17.7,36.6,17.7z"/>
		<path d="M46.5,17.7c-1.6,0-2.9-0.4-3.8-1.3s-1.4-2.2-1.4-3.8c0-1.7,0.4-3,1.3-3.9c0.8-0.9,2-1.4,3.5-1.4c1.4,0,2.5,0.4,3.3,1.2
			c0.8,0.8,1.2,1.9,1.2,3.3v1.3h-6.5c0,0.8,0.3,1.4,0.7,1.8c0.4,0.4,1,0.7,1.8,0.7c0.6,0,1.2-0.1,1.7-0.2c0.5-0.1,1.1-0.3,1.7-0.6
			V17c-0.5,0.2-1,0.4-1.5,0.5C48,17.6,47.3,17.7,46.5,17.7z M46.1,9.2c-0.6,0-1,0.2-1.4,0.6c-0.3,0.4-0.5,0.9-0.6,1.6H48
			c0-0.7-0.2-1.2-0.5-1.6C47.2,9.4,46.7,9.2,46.1,9.2z"/>
	</g>
</g>
<g>
	<g>
		<path class="st2" d="M254.4,38.4H60c-1,0-1.8-0.8-1.8-1.8s0.8-1.8,1.8-1.8h194.4c1,0,1.8,0.8,1.8,1.8S255.4,38.4,254.4,38.4z"/>
	</g>
	<g>
		<g>
			<path class="st2" d="M265,36.6c-5,1.8-11.1,5-15,8.3l3-8.3l-3-8.3C253.9,31.7,260,34.8,265,36.6z"/>
		</g>
	</g>
</g>
<g>
	<path class="st2" d="M83,30.7v-8.6h1.4v8.6H83z"/>
	<path class="st2" d="M93.7,30.7l-0.3-0.9h0c-0.3,0.4-0.6,0.7-0.9,0.8s-0.7,0.2-1.2,0.2c-0.6,0-1.1-0.2-1.5-0.5s-0.5-0.8-0.5-1.5
		c0-0.7,0.2-1.2,0.7-1.5s1.3-0.5,2.3-0.6l1.1,0v-0.3c0-0.4-0.1-0.7-0.3-0.9s-0.5-0.3-0.9-0.3c-0.3,0-0.7,0-1,0.1s-0.6,0.2-0.9,0.3
		l-0.4-1c0.4-0.2,0.7-0.3,1.2-0.4s0.8-0.1,1.2-0.1c0.8,0,1.4,0.2,1.9,0.5s0.6,0.9,0.6,1.7v4.4H93.7z M91.7,29.7
		c0.5,0,0.9-0.1,1.2-0.4s0.5-0.7,0.5-1.2v-0.6l-0.8,0c-0.6,0-1.1,0.1-1.4,0.3s-0.4,0.5-0.4,0.9c0,0.3,0.1,0.5,0.3,0.7
		S91.3,29.7,91.7,29.7z"/>
	<path class="st2" d="M102.1,30.7h-1.4v-4c0-0.5-0.1-0.9-0.3-1.1s-0.5-0.4-0.9-0.4c-0.5,0-0.9,0.2-1.2,0.5S98,26.6,98,27.4v3.2h-1.4
		v-6.5h1.1l0.2,0.8H98c0.2-0.3,0.4-0.5,0.8-0.7s0.7-0.3,1.1-0.3c1,0,1.7,0.3,2,1h0.1c0.2-0.3,0.5-0.6,0.8-0.8s0.7-0.3,1.2-0.3
		c0.8,0,1.3,0.2,1.7,0.6s0.5,1,0.5,1.8v4.2h-1.4v-4c0-0.5-0.1-0.9-0.3-1.1s-0.5-0.4-0.9-0.4c-0.5,0-0.9,0.2-1.2,0.5
		s-0.4,0.8-0.4,1.5V30.7z"/>
	<path class="st2" d="M116.7,30.7l-0.9-2.4h-3.3l-0.8,2.4h-1.5l3.2-8.6h1.5l3.2,8.6H116.7z M115.5,27.1l-0.8-2.3
		c-0.1-0.2-0.1-0.4-0.2-0.7s-0.2-0.6-0.2-0.7c-0.1,0.5-0.3,1-0.5,1.6l-0.8,2.2H115.5z"/>
	<path class="st2" d="M120.5,30.7h-1.4v-9.1h1.4V30.7z"/>
	<path class="st2" d="M122.4,22.5c0-0.2,0.1-0.4,0.2-0.6s0.3-0.2,0.6-0.2c0.2,0,0.4,0.1,0.6,0.2s0.2,0.3,0.2,0.6
		c0,0.2-0.1,0.4-0.2,0.6s-0.3,0.2-0.6,0.2c-0.3,0-0.4-0.1-0.6-0.2S122.4,22.7,122.4,22.5z M123.9,30.7h-1.4v-6.5h1.4V30.7z"/>
	<path class="st2" d="M128.5,30.8c-1,0-1.7-0.3-2.2-0.9s-0.8-1.4-0.8-2.5c0-1.1,0.3-1.9,0.8-2.5s1.3-0.9,2.3-0.9
		c0.7,0,1.3,0.1,1.8,0.4l-0.4,1.1c-0.6-0.2-1.1-0.3-1.4-0.3c-1.1,0-1.7,0.7-1.7,2.2c0,0.7,0.1,1.3,0.4,1.6s0.7,0.5,1.2,0.5
		c0.6,0,1.2-0.2,1.7-0.5v1.2c-0.2,0.1-0.5,0.2-0.8,0.3S128.9,30.8,128.5,30.8z"/>
	<path class="st2" d="M134.6,30.8c-1,0-1.8-0.3-2.4-0.9s-0.9-1.4-0.9-2.4c0-1.1,0.3-1.9,0.8-2.5s1.3-0.9,2.2-0.9
		c0.9,0,1.5,0.3,2,0.8s0.7,1.2,0.7,2.1v0.7h-4.3c0,0.6,0.2,1.1,0.5,1.5s0.8,0.5,1.4,0.5c0.4,0,0.7,0,1.1-0.1s0.7-0.2,1.1-0.4v1.1
		c-0.3,0.2-0.7,0.3-1,0.3S135.1,30.8,134.6,30.8z M134.4,25.1c-0.4,0-0.8,0.1-1.1,0.4s-0.4,0.7-0.5,1.2h2.9c0-0.5-0.1-0.9-0.4-1.2
		S134.8,25.1,134.4,25.1z"/>
	<path class="st2" d="M138.5,29.9c0-0.3,0.1-0.5,0.2-0.7s0.4-0.2,0.6-0.2c0.3,0,0.5,0.1,0.7,0.2s0.2,0.4,0.2,0.6
		c0,0.3-0.1,0.5-0.2,0.7s-0.4,0.2-0.6,0.2s-0.5-0.1-0.6-0.2S138.5,30.2,138.5,29.9z"/>
</g>
<g>
	<g>
		<path class="st3" d="M265,66.9H70.6c-1,0-1.8-0.8-1.8-1.8s0.8-1.8,1.8-1.8H265c1,0,1.8,0.8,1.8,1.8S266,66.9,265,66.9z"/>
	</g>
	<g>
		<g>
			<path class="st3" d="M60,65.2c5,1.8,11.1,5,15,8.3l-3-8.3l3-8.3C71.2,60.2,65,63.3,60,65.2z"/>
		</g>
	</g>
</g>
<g>
	<path class="st3" d="M189.3,59.3v-8.6h1.4v8.6H189.3z"/>
	<path class="st3" d="M200,59.3l-0.3-0.9h0c-0.3,0.4-0.6,0.7-0.9,0.8s-0.7,0.2-1.2,0.2c-0.6,0-1.1-0.2-1.5-0.5s-0.5-0.8-0.5-1.5
		c0-0.7,0.2-1.2,0.7-1.5s1.3-0.5,2.3-0.6l1.1,0V55c0-0.4-0.1-0.7-0.3-0.9s-0.5-0.3-0.9-0.3c-0.3,0-0.7,0-1,0.1s-0.6,0.2-0.9,0.3
		l-0.4-1c0.4-0.2,0.7-0.3,1.2-0.4s0.8-0.1,1.2-0.1c0.8,0,1.4,0.2,1.9,0.5s0.6,0.9,0.6,1.7v4.4H200z M198,58.4c0.5,0,0.9-0.1,1.2-0.4
		s0.5-0.7,0.5-1.2v-0.6l-0.8,0c-0.6,0-1.1,0.1-1.4,0.3s-0.4,0.5-0.4,0.9c0,0.3,0.1,0.5,0.3,0.7S197.6,58.4,198,58.4z"/>
	<path class="st3" d="M208.4,59.3H207v-4c0-0.5-0.1-0.9-0.3-1.1s-0.5-0.4-0.9-0.4c-0.5,0-0.9,0.2-1.2,0.5s-0.4,0.9-0.4,1.7v3.2h-1.4
		v-6.5h1.1l0.2,0.8h0.1c0.2-0.3,0.4-0.5,0.8-0.7s0.7-0.3,1.1-0.3c1,0,1.7,0.3,2,1h0.1c0.2-0.3,0.5-0.6,0.8-0.8s0.7-0.3,1.2-0.3
		c0.8,0,1.3,0.2,1.7,0.6s0.5,1,0.5,1.8v4.2h-1.4v-4c0-0.5-0.1-0.9-0.3-1.1s-0.5-0.4-0.9-0.4c-0.5,0-0.9,0.2-1.2,0.5
		s-0.4,0.8-0.4,1.5V59.3z"/>
	<path class="st3" d="M217.7,50.8h2.5c1.2,0,2,0.2,2.6,0.5s0.8,0.9,0.8,1.6c0,0.5-0.1,0.9-0.4,1.2s-0.6,0.5-1.1,0.6v0.1
		c0.6,0.1,1,0.3,1.3,0.7s0.4,0.8,0.4,1.4c0,0.8-0.3,1.4-0.8,1.8s-1.3,0.7-2.2,0.7h-3.1V50.8z M219.1,54.3h1.3c0.6,0,1-0.1,1.3-0.3
		s0.4-0.5,0.4-0.9c0-0.4-0.1-0.7-0.4-0.9s-0.8-0.3-1.4-0.3h-1.2V54.3z M219.1,55.4v2.7h1.5c0.6,0,1-0.1,1.3-0.3s0.4-0.6,0.4-1.1
		c0-0.4-0.2-0.8-0.5-1s-0.8-0.3-1.4-0.3H219.1z"/>
	<path class="st3" d="M231.2,56.1c0,1.1-0.3,1.9-0.8,2.5s-1.3,0.9-2.3,0.9c-0.6,0-1.1-0.1-1.6-0.4s-0.8-0.7-1.1-1.2
		s-0.4-1.1-0.4-1.8c0-1.1,0.3-1.9,0.8-2.5s1.3-0.9,2.3-0.9c0.9,0,1.7,0.3,2.2,0.9S231.2,55,231.2,56.1z M226.5,56.1
		c0,1.5,0.6,2.2,1.7,2.2c1.1,0,1.6-0.7,1.6-2.2c0-1.5-0.6-2.2-1.7-2.2c-0.6,0-1,0.2-1.3,0.6S226.5,55.4,226.5,56.1z"/>
	<path class="st3" d="M236.1,52.7c0.8,0,1.4,0.3,1.9,0.9s0.7,1.4,0.7,2.5c0,1.1-0.2,1.9-0.7,2.5s-1.1,0.9-1.9,0.9
		c-0.8,0-1.5-0.3-1.9-0.9H234l-0.3,0.8h-1v-9.1h1.4v2.2c0,0.2,0,0.4,0,0.7s0,0.5,0,0.6h0.1C234.6,53,235.2,52.7,236.1,52.7z
		 M235.7,53.9c-0.6,0-1,0.2-1.2,0.5s-0.4,0.9-0.4,1.6v0.1c0,0.8,0.1,1.4,0.4,1.7s0.7,0.5,1.2,0.5c0.5,0,0.9-0.2,1.1-0.6
		s0.4-0.9,0.4-1.7C237.2,54.6,236.7,53.9,235.7,53.9z"/>
	<path class="st3" d="M240,58.6c0-0.3,0.1-0.5,0.2-0.7s0.4-0.2,0.6-0.2c0.3,0,0.5,0.1,0.7,0.2s0.2,0.4,0.2,0.6
		c0,0.3-0.1,0.5-0.2,0.7s-0.4,0.2-0.6,0.2s-0.5-0.1-0.6-0.2S240,58.9,240,58.6z"/>
</g>
<g>
	<g>
		<g>
			<path class="st0" d="M317.4,64.9h-35.3c-2.8,0-5.1-2.3-5.1-5.1V36c0-2.8,2.3-5.1,5.1-5.1h35.3c2.8,0,5.1,2.3,5.1,5.1v23.9
				C322.4,62.6,320.2,64.9,317.4,64.9z"/>
			<path d="M317.4,66.4h-35.3c-3.6,0-6.6-2.9-6.6-6.6V36c0-3.6,2.9-6.6,6.6-6.6h35.3c3.6,0,6.6,2.9,6.6,6.6v23.9
				C323.9,63.5,321,66.4,317.4,66.4z M282.1,32.4c-2,0-3.6,1.6-3.6,3.6v23.9c0,2,1.6,3.6,3.6,3.6h35.3c2,0,3.6-1.6,3.6-3.6V36
				c0-2-1.6-3.6-3.6-3.6H282.1z"/>
		</g>
		<g>
			<g>
				<path class="st0" d="M274.9,83.2c-1.1,0-1.5-0.8-1-1.7l5.5-9.1c0.6-0.9,1.9-1.8,3-1.8h34.9c1.1,0,2.5,0.9,3,1.8l5.6,9.4
					c0.6,0.9,0.1,1.7-1,1.7L274.9,83.2z"/>
			</g>
			<g>
				<path d="M325.1,85.5C325.1,85.5,325.1,85.5,325.1,85.5l-50.2-0.6c-1.1,0-2-0.6-2.4-1.4c-0.5-0.8-0.4-1.9,0.2-2.8l5.5-8.9
					c0.9-1.6,2.9-2.3,4.3-2.3h34.9c1.4,0,3.4,0.7,4.3,2.3l5.6,9.3c0.6,0.9,0.6,2.1,0.2,2.9S326.2,85.5,325.1,85.5z M275.6,81.7
					l48.8,0.4l-5.2-8.7c-0.3-0.4-1.1-0.8-1.7-0.8h-34.9c-0.7,0-1.5,0.4-1.7,0.8L275.6,81.7z"/>
			</g>
		</g>
		<g>
			<rect x="291.4" y="64.9" width="16.7" height="5.8"/>
		</g>
		<g>
			<path class="st3" d="M315,59.3h-30.4c-0.7,0-1.2-0.5-1.2-1.2V37.7c0-0.7,0.5-1.2,1.2-1.2H315c0.7,0,1.2,0.5,1.2,1.2v20.4
				C316.2,58.8,315.6,59.3,315,59.3z"/>
		</g>
	</g>
	<g>
		<path d="M293.2,17.5h-7.5V4.4h7.5v2.3h-4.8v2.9h4.4v2.3h-4.4v3.4h4.8V17.5z"/>
		<path d="M298.1,17.5l-3.8-10h2.9l1.9,5.7c0.2,0.7,0.3,1.4,0.4,2.1h0.1c0-0.6,0.2-1.3,0.4-2.1l1.9-5.7h2.9l-3.8,10H298.1z"/>
		<path d="M310.7,17.7c-1.6,0-2.9-0.4-3.8-1.3s-1.4-2.2-1.4-3.8c0-1.7,0.4-3,1.3-3.9c0.8-0.9,2-1.4,3.5-1.4c1.4,0,2.5,0.4,3.3,1.2
			c0.8,0.8,1.2,1.9,1.2,3.3v1.3h-6.5c0,0.8,0.3,1.4,0.7,1.8c0.4,0.4,1,0.7,1.8,0.7c0.6,0,1.2-0.1,1.7-0.2c0.5-0.1,1.1-0.3,1.7-0.6
			V17c-0.5,0.2-1,0.4-1.5,0.5C312.2,17.6,311.5,17.7,310.7,17.7z M310.3,9.2c-0.6,0-1,0.2-1.4,0.6c-0.3,0.4-0.5,0.9-0.6,1.6h3.8
			c0-0.7-0.2-1.2-0.5-1.6C311.4,9.4,310.9,9.2,310.3,9.2z"/>
	</g>
</g>
<g>
	<g>
		<path class="st3" d="M529.4,38.4H332.6c-1,0-1.8-0.8-1.8-1.8s0.8-1.8,1.8-1.8h196.8c1,0,1.8,0.8,1.8,1.8S530.4,38.4,529.4,38.4z"
			/>
	</g>
	<g>
		<g>
			<path class="st3" d="M540,36.6c-5,1.8-11.1,5-15,8.3l3-8.3l-3-8.3C528.8,31.7,535,34.8,540,36.6z"/>
		</g>
	</g>
</g>
<g>
	<path class="st3" d="M356.5,30.7v-8.6h1.4v8.6H356.5z"/>
	<path class="st3" d="M367.2,30.7l-0.3-0.9h0c-0.3,0.4-0.6,0.7-0.9,0.8s-0.7,0.2-1.2,0.2c-0.6,0-1.1-0.2-1.5-0.5s-0.5-0.8-0.5-1.5
		c0-0.7,0.2-1.2,0.7-1.5s1.3-0.5,2.3-0.6l1.1,0v-0.3c0-0.4-0.1-0.7-0.3-0.9s-0.5-0.3-0.9-0.3c-0.3,0-0.7,0-1,0.1s-0.6,0.2-0.9,0.3
		l-0.4-1c0.4-0.2,0.7-0.3,1.2-0.4s0.8-0.1,1.2-0.1c0.8,0,1.4,0.2,1.9,0.5s0.6,0.9,0.6,1.7v4.4H367.2z M365.2,29.7
		c0.5,0,0.9-0.1,1.2-0.4s0.5-0.7,0.5-1.2v-0.6l-0.8,0c-0.6,0-1.1,0.1-1.4,0.3s-0.4,0.5-0.4,0.9c0,0.3,0.1,0.5,0.3,0.7
		S364.8,29.7,365.2,29.7z"/>
	<path class="st3" d="M375.6,30.7h-1.4v-4c0-0.5-0.1-0.9-0.3-1.1s-0.5-0.4-0.9-0.4c-0.5,0-0.9,0.2-1.2,0.5s-0.4,0.9-0.4,1.7v3.2
		h-1.4v-6.5h1.1l0.2,0.8h0.1c0.2-0.3,0.4-0.5,0.8-0.7s0.7-0.3,1.1-0.3c1,0,1.7,0.3,2,1h0.1c0.2-0.3,0.5-0.6,0.8-0.8s0.7-0.3,1.2-0.3
		c0.8,0,1.3,0.2,1.7,0.6s0.5,1,0.5,1.8v4.2h-1.4v-4c0-0.5-0.1-0.9-0.3-1.1s-0.5-0.4-0.9-0.4c-0.5,0-0.9,0.2-1.2,0.5
		s-0.4,0.8-0.4,1.5V30.7z"/>
	<path class="st3" d="M390.2,30.7l-0.9-2.4H386l-0.8,2.4h-1.5l3.2-8.6h1.5l3.2,8.6H390.2z M389,27.1l-0.8-2.3
		c-0.1-0.2-0.1-0.4-0.2-0.7s-0.2-0.6-0.2-0.7c-0.1,0.5-0.3,1-0.5,1.6l-0.8,2.2H389z"/>
	<path class="st3" d="M394,30.7h-1.4v-9.1h1.4V30.7z"/>
	<path class="st3" d="M395.9,22.5c0-0.2,0.1-0.4,0.2-0.6s0.3-0.2,0.6-0.2c0.2,0,0.4,0.1,0.6,0.2s0.2,0.3,0.2,0.6
		c0,0.2-0.1,0.4-0.2,0.6s-0.3,0.2-0.6,0.2c-0.3,0-0.4-0.1-0.6-0.2S395.9,22.7,395.9,22.5z M397.4,30.7H396v-6.5h1.4V30.7z"/>
	<path class="st3" d="M402,30.8c-1,0-1.7-0.3-2.2-0.9s-0.8-1.4-0.8-2.5c0-1.1,0.3-1.9,0.8-2.5s1.3-0.9,2.3-0.9
		c0.7,0,1.3,0.1,1.8,0.4l-0.4,1.1c-0.6-0.2-1.1-0.3-1.4-0.3c-1.1,0-1.7,0.7-1.7,2.2c0,0.7,0.1,1.3,0.4,1.6s0.7,0.5,1.2,0.5
		c0.6,0,1.2-0.2,1.7-0.5v1.2c-0.2,0.1-0.5,0.2-0.8,0.3S402.4,30.8,402,30.8z"/>
	<path class="st3" d="M408.1,30.8c-1,0-1.8-0.3-2.4-0.9s-0.9-1.4-0.9-2.4c0-1.1,0.3-1.9,0.8-2.5s1.3-0.9,2.2-0.9
		c0.9,0,1.5,0.3,2,0.8s0.7,1.2,0.7,2.1v0.7h-4.3c0,0.6,0.2,1.1,0.5,1.5s0.8,0.5,1.4,0.5c0.4,0,0.7,0,1.1-0.1s0.7-0.2,1.1-0.4v1.1
		c-0.3,0.2-0.7,0.3-1,0.3S408.6,30.8,408.1,30.8z M407.9,25.1c-0.4,0-0.8,0.1-1.1,0.4s-0.4,0.7-0.5,1.2h2.9c0-0.5-0.1-0.9-0.4-1.2
		S408.3,25.1,407.9,25.1z"/>
	<path class="st3" d="M412,29.9c0-0.3,0.1-0.5,0.2-0.7s0.4-0.2,0.6-0.2c0.3,0,0.5,0.1,0.7,0.2s0.2,0.4,0.2,0.6
		c0,0.3-0.1,0.5-0.2,0.7s-0.4,0.2-0.6,0.2s-0.5-0.1-0.6-0.2S412,30.2,412,29.9z"/>
</g>
<g>
	<g>
		<path class="st1" d="M540,66.9H343.2c-1,0-1.8-0.8-1.8-1.8s0.8-1.8,1.8-1.8H540c1,0,1.8,0.8,1.8,1.8S540.9,66.9,540,66.9z"/>
	</g>
	<g>
		<g>
			<path class="st1" d="M332.6,65.2c5,1.8,11.1,5,15,8.3l-3-8.3l3-8.3C343.8,60.2,337.6,63.3,332.6,65.2z"/>
		</g>
	</g>
</g>
<g>
	<path class="st1" d="M466.6,59.3v-8.6h1.4v8.6H466.6z"/>
	<path class="st1" d="M477.3,59.3l-0.3-0.9h0c-0.3,0.4-0.6,0.7-0.9,0.8s-0.7,0.2-1.2,0.2c-0.6,0-1.1-0.2-1.5-0.5s-0.5-0.8-0.5-1.5
		c0-0.7,0.2-1.2,0.7-1.5s1.3-0.5,2.3-0.6l1.1,0V55c0-0.4-0.1-0.7-0.3-0.9s-0.5-0.3-0.9-0.3c-0.3,0-0.7,0-1,0.1s-0.6,0.2-0.9,0.3
		l-0.4-1c0.4-0.2,0.7-0.3,1.2-0.4s0.8-0.1,1.2-0.1c0.8,0,1.4,0.2,1.9,0.5s0.6,0.9,0.6,1.7v4.4H477.3z M475.3,58.4
		c0.5,0,0.9-0.1,1.2-0.4s0.5-0.7,0.5-1.2v-0.6l-0.8,0c-0.6,0-1.1,0.1-1.4,0.3s-0.4,0.5-0.4,0.9c0,0.3,0.1,0.5,0.3,0.7
		S474.9,58.4,475.3,58.4z"/>
	<path class="st1" d="M485.7,59.3h-1.4v-4c0-0.5-0.1-0.9-0.3-1.1s-0.5-0.4-0.9-0.4c-0.5,0-0.9,0.2-1.2,0.5s-0.4,0.9-0.4,1.7v3.2
		h-1.4v-6.5h1.1l0.2,0.8h0.1c0.2-0.3,0.4-0.5,0.8-0.7s0.7-0.3,1.1-0.3c1,0,1.7,0.3,2,1h0.1c0.2-0.3,0.5-0.6,0.8-0.8s0.7-0.3,1.2-0.3
		c0.8,0,1.3,0.2,1.7,0.6s0.5,1,0.5,1.8v4.2h-1.4v-4c0-0.5-0.1-0.9-0.3-1.1s-0.5-0.4-0.9-0.4c-0.5,0-0.9,0.2-1.2,0.5
		s-0.4,0.8-0.4,1.5V59.3z"/>
	<path class="st1" d="M495,50.8h2.5c1.2,0,2,0.2,2.6,0.5s0.8,0.9,0.8,1.6c0,0.5-0.1,0.9-0.4,1.2s-0.6,0.5-1.1,0.6v0.1
		c0.6,0.1,1,0.3,1.3,0.7s0.4,0.8,0.4,1.4c0,0.8-0.3,1.4-0.8,1.8s-1.3,0.7-2.2,0.7H495V50.8z M496.4,54.3h1.3c0.6,0,1-0.1,1.3-0.3
		s0.4-0.5,0.4-0.9c0-0.4-0.1-0.7-0.4-0.9s-0.8-0.3-1.4-0.3h-1.2V54.3z M496.4,55.4v2.7h1.5c0.6,0,1-0.1,1.3-0.3s0.4-0.6,0.4-1.1
		c0-0.4-0.2-0.8-0.5-1s-0.8-0.3-1.4-0.3H496.4z"/>
	<path class="st1" d="M508.5,56.1c0,1.1-0.3,1.9-0.8,2.5s-1.3,0.9-2.3,0.9c-0.6,0-1.1-0.1-1.6-0.4s-0.8-0.7-1.1-1.2
		s-0.4-1.1-0.4-1.8c0-1.1,0.3-1.9,0.8-2.5s1.3-0.9,2.3-0.9c0.9,0,1.7,0.3,2.2,0.9S508.5,55,508.5,56.1z M503.8,56.1
		c0,1.5,0.6,2.2,1.7,2.2c1.1,0,1.6-0.7,1.6-2.2c0-1.5-0.6-2.2-1.7-2.2c-0.6,0-1,0.2-1.3,0.6S503.8,55.4,503.8,56.1z"/>
	<path class="st1" d="M513.4,52.7c0.8,0,1.4,0.3,1.9,0.9s0.7,1.4,0.7,2.5c0,1.1-0.2,1.9-0.7,2.5s-1.1,0.9-1.9,0.9
		c-0.8,0-1.5-0.3-1.9-0.9h-0.1l-0.3,0.8h-1v-9.1h1.4v2.2c0,0.2,0,0.4,0,0.7s0,0.5,0,0.6h0.1C511.9,53,512.5,52.7,513.4,52.7z
		 M513,53.9c-0.6,0-1,0.2-1.2,0.5s-0.4,0.9-0.4,1.6v0.1c0,0.8,0.1,1.4,0.4,1.7s0.7,0.5,1.2,0.5c0.5,0,0.9-0.2,1.1-0.6
		s0.4-0.9,0.4-1.7C514.5,54.6,514,53.9,513,53.9z"/>
	<path class="st1" d="M517.3,58.6c0-0.3,0.1-0.5,0.2-0.7s0.4-0.2,0.6-0.2c0.3,0,0.5,0.1,0.7,0.2s0.2,0.4,0.2,0.6
		c0,0.3-0.1,0.5-0.2,0.7s-0.4,0.2-0.6,0.2s-0.5-0.1-0.6-0.2S517.3,58.9,517.3,58.6z"/>
</g>
</svg>
