<?xml version="1.0" encoding="utf-8"?>
<!-- Generator: Adobe Illustrator 19.2.0, SVG Export Plug-In . SVG Version: 6.00 Build 0)  -->
<svg version="1.1" id="Layer_1" xmlns="http://www.w3.org/2000/svg" xmlns:xlink="http://www.w3.org/1999/xlink" x="0px" y="0px"
	 viewBox="0 0 600 209" style="enable-background:new 0 0 600 209;" xml:space="preserve">
<style type="text/css">
	.st0{fill:#0F0F0F;}
	.st1{fill:#FFFFFF;}
	.st2{clip-path:url(#SVGID_2_);}
	.st3{fill:#AD2523;}
	.st4{fill:#484AB8;}
	.st5{fill:#B82025;}
</style>
<g>
	<ellipse class="st0" cx="570.2" cy="125.4" rx="12.6" ry="4.4"/>
</g>
<g>
	<polygon class="st0" points="550.1,96.6 557.7,125.5 582.8,125.5 590.4,96.4 	"/>
</g>
<g>
	<ellipse class="st0" cx="570.2" cy="96.1" rx="20.3" ry="7.1"/>
</g>
<g>
	<ellipse class="st1" cx="570.2" cy="95.7" rx="16.6" ry="5.4"/>
</g>
<g>
	<defs>
		<path id="SVGID_1_" d="M579,91.1v-9.6h-25v12.7c0,0.5-0.5,1-0.5,1.5c0,3,7.5,5.4,16.7,5.4c9.2,0,16.5-2.4,16.5-5.4
			C586.7,93.8,584,92.1,579,91.1z"/>
	</defs>
	<clipPath id="SVGID_2_">
		<use xlink:href="#SVGID_1_"  style="overflow:visible;"/>
	</clipPath>
	<g class="st2">
		<g>
			<g>
				
					<rect x="563.1" y="87.8" transform="matrix(0.9599 -0.2802 0.2802 0.9599 -4.955 163.4761)" class="st1" width="12.3" height="22.6"/>
			</g>
			<g>
				<path class="st3" d="M566,112.6l13.4-3.9l-6.9-23.4l-13.4,3.9L566,112.6z M577.3,107.5l-10.1,2.9l-5.8-20.1l10.1-2.9
					L577.3,107.5z"/>
			</g>
		</g>
		<g>
			<g>
				<polygon class="st3" points="568.9,99.2 578,108.5 578.6,107.8 569.8,99 572.5,86.5 571.6,86.4 				"/>
			</g>
		</g>
	</g>
</g>
<g>
	<g>
		<path class="st3" d="M558.9,84.6c-11.5-14.1-29.3-24.4-45.5-26.2l0.5-4c17.1,2,36,12.8,48.1,27.7L558.9,84.6z"/>
	</g>
	<g>
		<g>
			<path class="st3" d="M567.2,93.3c-4.9-3.5-11.9-7.3-17.5-8.7l9.8-2.5l5.9-8.2C564.7,79.6,565.7,87.5,567.2,93.3z"/>
		</g>
	</g>
</g>
<g>
	<g>
		<path class="st4" d="M291,110C291,110,291,110,291,110c-1,0-1.8-0.8-1.8-1.8l0-35.5H122.5c-1,0-1.8-0.8-1.8-1.8s0.8-1.8,1.8-1.8
			H291c0.5,0,0.9,0.2,1.2,0.5c0.3,0.3,0.5,0.8,0.5,1.2l0,37.2C292.8,109.2,292,110,291,110z"/>
	</g>
	<g>
		<g>
			<path class="st4" d="M291,118.8c1.8-5,5-11.1,8.3-15l-8.3,3l-8.3-3C286,107.7,289.2,113.9,291,118.8z"/>
		</g>
	</g>
</g>
<g>
	<g>
		<path d="M493,4.4h4.1c1.9,0,3.2,0.3,4,0.8c0.8,0.5,1.3,1.4,1.3,2.5c0,0.8-0.2,1.4-0.6,1.9c-0.4,0.5-0.9,0.8-1.5,0.9v0.1
			c0.8,0.2,1.4,0.5,1.8,1s0.6,1.2,0.6,2c0,1.2-0.4,2.1-1.3,2.8c-0.9,0.7-2,1-3.5,1H493V4.4z M495.8,9.6h1.6c0.8,0,1.3-0.1,1.6-0.3
			c0.3-0.2,0.5-0.6,0.5-1.2c0-0.5-0.2-0.9-0.6-1.1c-0.4-0.2-0.9-0.3-1.7-0.3h-1.5V9.6z M495.8,11.8v3.4h1.8c0.8,0,1.3-0.1,1.7-0.4
			c0.4-0.3,0.5-0.7,0.5-1.3c0-1.1-0.8-1.6-2.3-1.6H495.8z"/>
		<path d="M511.5,17.5l-0.5-1.4h-0.1c-0.5,0.6-0.9,1-1.4,1.2c-0.5,0.2-1.1,0.3-1.9,0.3c-1,0-1.7-0.3-2.3-0.8
			c-0.6-0.5-0.8-1.3-0.8-2.3c0-1.1,0.4-1.8,1.1-2.4c0.7-0.5,1.9-0.8,3.4-0.8l1.7-0.1v-0.4c0-1-0.5-1.5-1.6-1.5
			c-0.8,0-1.7,0.2-2.8,0.7l-0.9-1.8c1.2-0.6,2.4-0.9,3.8-0.9c1.3,0,2.4,0.3,3.1,0.9c0.7,0.6,1.1,1.5,1.1,2.7v6.7H511.5z M510.7,12.9
			l-1.1,0c-0.8,0-1.4,0.2-1.8,0.4c-0.4,0.3-0.6,0.7-0.6,1.2c0,0.8,0.4,1.2,1.3,1.2c0.6,0,1.1-0.2,1.5-0.5c0.4-0.4,0.6-0.8,0.6-1.5
			V12.9z"/>
		<path d="M525.5,17.5h-2.7v-5.9c0-0.7-0.1-1.3-0.4-1.6c-0.3-0.4-0.7-0.5-1.2-0.5c-0.8,0-1.3,0.3-1.7,0.8s-0.5,1.4-0.5,2.5v4.7h-2.7
			v-10h2.1l0.4,1.3h0.2c0.3-0.5,0.7-0.8,1.3-1.1c0.5-0.2,1.1-0.4,1.8-0.4c1.2,0,2,0.3,2.7,0.9c0.6,0.6,0.9,1.5,0.9,2.7V17.5z"/>
		<path d="M530.9,12.1l1.2-1.5l2.8-3h3.1l-4,4.3l4.2,5.7h-3.2l-2.9-4.1l-1.2,0.9v3.1h-2.7V3.6h2.7v6.2L530.9,12.1L530.9,12.1z"/>
	</g>
	<g>
		<g>
			<path class="st1" d="M531.5,81.9h-33.1c-2.9,0-5.2-2.3-5.2-5.2v-39c0-2.9,2.3-5.2,5.2-5.2h33.1c2.9,0,5.2,2.3,5.2,5.2v39
				C536.7,79.6,534.4,81.9,531.5,81.9z"/>
			<path d="M531.5,84.2h-33.1c-4.1,0-7.5-3.3-7.5-7.5v-39c0-4.1,3.3-7.5,7.5-7.5h33.1c4.1,0,7.5,3.3,7.5,7.5v39
				C539,80.8,535.6,84.2,531.5,84.2z M498.5,34.8c-1.6,0-3,1.3-3,3v39c0,1.6,1.3,3,3,3h33.1c1.6,0,3-1.3,3-3v-39c0-1.6-1.3-3-3-3
				H498.5z"/>
		</g>
		<g>
			<g>
				<rect x="499.5" y="41.9" width="31" height="4.5"/>
			</g>
			<g>
				<rect x="499.5" y="55" width="31" height="4.5"/>
			</g>
			<g>
				<rect x="499.5" y="68" width="31" height="4.5"/>
			</g>
		</g>
	</g>
</g>
<g>
	<g>
		<g>
			<path class="st1" d="M102.4,64.9H67.1c-2.8,0-5.1-2.3-5.1-5.1V36c0-2.8,2.3-5.1,5.1-5.1h35.3c2.8,0,5.1,2.3,5.1,5.1v23.9
				C107.4,62.6,105.2,64.9,102.4,64.9z"/>
			<path d="M102.4,66.4H67.1c-3.6,0-6.6-2.9-6.6-6.6V36c0-3.6,2.9-6.6,6.6-6.6h35.3c3.6,0,6.6,2.9,6.6,6.6v23.9
				C108.9,63.5,106,66.4,102.4,66.4z M67.1,32.4c-2,0-3.6,1.6-3.6,3.6v23.9c0,2,1.6,3.6,3.6,3.6h35.3c2,0,3.6-1.6,3.6-3.6V36
				c0-2-1.6-3.6-3.6-3.6H67.1z"/>
		</g>
		<g>
			<g>
				<path class="st1" d="M59.9,83.2c-1.1,0-1.5-0.8-1-1.7l5.5-9.1c0.6-0.9,1.9-1.8,3-1.8h34.9c1.1,0,2.5,0.9,3,1.8l5.6,9.4
					c0.6,0.9,0.1,1.7-1,1.7L59.9,83.2z"/>
			</g>
			<g>
				<path d="M110.1,85.5C110.1,85.5,110.1,85.5,110.1,85.5l-50.2-0.6c-1.1,0-2-0.6-2.4-1.4c-0.5-0.8-0.4-1.9,0.2-2.8l5.5-8.9
					c0.9-1.6,2.9-2.3,4.3-2.3h34.9c1.4,0,3.4,0.7,4.3,2.3l5.6,9.3c0.6,0.9,0.6,2.1,0.2,2.9S111.2,85.5,110.1,85.5z M60.6,81.7
					l48.8,0.4l-5.2-8.7c-0.3-0.4-1.1-0.8-1.7-0.8H67.5c-0.7,0-1.5,0.4-1.7,0.8L60.6,81.7z"/>
			</g>
		</g>
		<g>
			<rect x="76.4" y="64.9" width="16.7" height="5.8"/>
		</g>
		<g>
			<path class="st4" d="M100,59.3H69.5c-0.7,0-1.2-0.5-1.2-1.2V37.7c0-0.7,0.5-1.2,1.2-1.2H100c0.7,0,1.2,0.5,1.2,1.2v20.4
				C101.2,58.8,100.6,59.3,100,59.3z"/>
		</g>
	</g>
	<g>
		<path d="M72.4,17.5l-1-3.1h-4.8l-0.9,3.1h-3l4.6-13.2h3.4l4.6,13.2H72.4z M70.8,12.1c-0.9-2.8-1.4-4.4-1.5-4.8
			c-0.1-0.4-0.2-0.7-0.2-0.9c-0.2,0.8-0.8,2.7-1.7,5.7H70.8z"/>
		<path d="M79.6,17.5h-2.7V3.6h2.7V17.5z"/>
		<path d="M82.3,4.9c0-0.9,0.5-1.3,1.5-1.3s1.5,0.4,1.5,1.3c0,0.4-0.1,0.8-0.4,1c-0.2,0.2-0.6,0.4-1.1,0.4
			C82.8,6.2,82.3,5.8,82.3,4.9z M85.2,17.5h-2.7v-10h2.7V17.5z"/>
		<path d="M92.1,17.7c-3.1,0-4.7-1.7-4.7-5.1c0-1.7,0.4-3,1.3-3.9c0.8-0.9,2.1-1.3,3.6-1.3c1.2,0,2.2,0.2,3.1,0.7l-0.8,2.1
			c-0.4-0.2-0.8-0.3-1.2-0.4c-0.4-0.1-0.7-0.2-1.1-0.2c-1.4,0-2.1,1-2.1,3c0,2,0.7,2.9,2.1,2.9c0.5,0,1-0.1,1.5-0.2
			c0.4-0.1,0.9-0.4,1.3-0.7v2.3c-0.4,0.3-0.9,0.5-1.3,0.6C93.4,17.6,92.8,17.7,92.1,17.7z"/>
		<path d="M102,17.7c-1.6,0-2.9-0.4-3.8-1.3s-1.4-2.2-1.4-3.8c0-1.7,0.4-3,1.3-3.9c0.8-0.9,2-1.4,3.5-1.4c1.4,0,2.5,0.4,3.3,1.2
			c0.8,0.8,1.2,1.9,1.2,3.3v1.3h-6.5c0,0.8,0.3,1.4,0.7,1.8c0.4,0.4,1,0.7,1.8,0.7c0.6,0,1.2-0.1,1.7-0.2c0.5-0.1,1.1-0.3,1.7-0.6
			V17c-0.5,0.2-1,0.4-1.5,0.5C103.5,17.6,102.8,17.7,102,17.7z M101.6,9.2c-0.6,0-1,0.2-1.4,0.6c-0.3,0.4-0.5,0.9-0.6,1.6h3.8
			c0-0.7-0.2-1.2-0.5-1.6C102.7,9.4,102.2,9.2,101.6,9.2z"/>
	</g>
</g>
<g>
	<g>
		<path class="st5" d="M309.1,120.6c-1,0-1.8-0.8-1.8-1.8V69.3h159.6c1,0,1.8,0.8,1.8,1.8s-0.8,1.8-1.8,1.8H310.8v46
			C310.8,119.8,310.1,120.6,309.1,120.6z"/>
	</g>
	<g>
		<g>
			<path class="st5" d="M477.5,71.1c-5-1.8-11.1-5-15-8.3l3,8.3l-3,8.3C466.4,76,472.5,72.9,477.5,71.1z"/>
		</g>
	</g>
</g>
<g>
	<path class="st4" d="M134,62.6c0,0.8-0.3,1.4-0.8,1.8s-1.3,0.7-2.3,0.7s-1.8-0.2-2.4-0.5v-1.3c0.4,0.2,0.8,0.3,1.2,0.4
		s0.8,0.2,1.2,0.2c0.6,0,1-0.1,1.2-0.3s0.4-0.5,0.4-0.8c0-0.3-0.1-0.6-0.4-0.8s-0.7-0.5-1.5-0.8c-0.8-0.3-1.3-0.7-1.7-1.1
		s-0.5-0.9-0.5-1.5c0-0.7,0.3-1.3,0.8-1.7s1.2-0.6,2-0.6c0.8,0,1.6,0.2,2.4,0.5l-0.4,1.1c-0.8-0.3-1.4-0.5-2-0.5
		c-0.5,0-0.8,0.1-1,0.3s-0.4,0.5-0.4,0.8c0,0.2,0,0.4,0.1,0.6s0.2,0.3,0.5,0.4s0.6,0.3,1.2,0.6c0.6,0.3,1.1,0.5,1.4,0.7
		s0.5,0.5,0.6,0.8S134,62.2,134,62.6z"/>
	<path class="st4" d="M138.4,65c-1,0-1.8-0.3-2.4-0.9s-0.9-1.4-0.9-2.4c0-1.1,0.3-1.9,0.8-2.5s1.3-0.9,2.2-0.9c0.9,0,1.5,0.3,2,0.8
		s0.7,1.2,0.7,2.1V62h-4.3c0,0.6,0.2,1.1,0.5,1.5s0.8,0.5,1.4,0.5c0.4,0,0.7,0,1.1-0.1s0.7-0.2,1.1-0.4v1.1c-0.3,0.2-0.7,0.3-1,0.3
		S138.8,65,138.4,65z M138.1,59.4c-0.4,0-0.8,0.1-1.1,0.4s-0.4,0.7-0.5,1.2h2.9c0-0.5-0.1-0.9-0.4-1.2S138.5,59.4,138.1,59.4z"/>
	<path class="st4" d="M148.1,64.9h-1.4v-4c0-0.5-0.1-0.9-0.3-1.1s-0.5-0.4-1-0.4c-0.6,0-1,0.2-1.3,0.5s-0.4,0.9-0.4,1.7v3.2h-1.4
		v-6.5h1.1l0.2,0.8h0.1c0.2-0.3,0.5-0.5,0.8-0.7s0.8-0.3,1.2-0.3c1.6,0,2.3,0.8,2.3,2.4V64.9z"/>
	<path class="st4" d="M152.2,65c-0.8,0-1.4-0.3-1.9-0.9s-0.7-1.4-0.7-2.5c0-1.1,0.2-1.9,0.7-2.5s1.1-0.9,1.9-0.9
		c0.9,0,1.5,0.3,1.9,0.9h0.1c-0.1-0.5-0.1-0.8-0.1-1.1v-2.4h1.4v9.1h-1.1l-0.2-0.8h-0.1C153.7,64.7,153.1,65,152.2,65z M152.6,63.9
		c0.6,0,1-0.2,1.2-0.5s0.4-0.8,0.4-1.5v-0.2c0-0.8-0.1-1.4-0.4-1.7s-0.7-0.5-1.2-0.5c-0.5,0-0.9,0.2-1.1,0.6s-0.4,1-0.4,1.7
		c0,0.7,0.1,1.3,0.4,1.6S152.1,63.9,152.6,63.9z"/>
	<path class="st4" d="M165.9,62.3c0,0.6-0.2,1-0.6,1.4s-1,0.6-1.8,0.7v1.3h-0.8v-1.2c-1,0-1.8-0.2-2.4-0.4v-1.2
		c0.3,0.2,0.7,0.3,1.2,0.4s0.9,0.2,1.2,0.2v-2.2l-0.5-0.2c-0.6-0.2-1.1-0.5-1.4-0.9s-0.4-0.8-0.4-1.3c0-0.5,0.2-1,0.6-1.3
		s1-0.6,1.7-0.6v-1h0.8v1c0.8,0,1.5,0.2,2.3,0.5l-0.4,1.1c-0.6-0.2-1.2-0.4-1.8-0.4V60l0.4,0.2c0.7,0.3,1.3,0.6,1.5,0.9
		S165.9,61.8,165.9,62.3z M161.7,58.7c0,0.2,0.1,0.4,0.2,0.6s0.4,0.3,0.8,0.4v-1.8c-0.3,0-0.6,0.1-0.7,0.3S161.7,58.5,161.7,58.7z
		 M164.5,62.3c0-0.2-0.1-0.4-0.2-0.6s-0.4-0.3-0.8-0.4v1.9C164.2,63.1,164.5,62.8,164.5,62.3z"/>
	<path class="st4" d="M171.1,64.9h-1.4v-5.5c0-0.7,0-1.2,0-1.6c-0.1,0.1-0.2,0.2-0.3,0.3s-0.6,0.5-1.3,1.1l-0.7-0.9l2.5-2h1.1V64.9z
		"/>
	<path class="st4" d="M179.7,60.6c0,1.5-0.2,2.6-0.7,3.3s-1.2,1.1-2.2,1.1c-1,0-1.7-0.4-2.2-1.1s-0.7-1.8-0.7-3.3
		c0-1.5,0.2-2.6,0.7-3.3s1.2-1.1,2.2-1.1c1,0,1.7,0.4,2.2,1.1S179.7,59.2,179.7,60.6z M175.3,60.6c0,1.2,0.1,2,0.4,2.5
		s0.6,0.8,1.2,0.8s0.9-0.3,1.2-0.8s0.4-1.3,0.4-2.5c0-1.1-0.1-2-0.4-2.5s-0.6-0.8-1.2-0.8s-0.9,0.3-1.2,0.8S175.3,59.5,175.3,60.6z"
		/>
	<path class="st4" d="M186.5,60.6c0,1.5-0.2,2.6-0.7,3.3s-1.2,1.1-2.2,1.1c-1,0-1.7-0.4-2.2-1.1s-0.7-1.8-0.7-3.3
		c0-1.5,0.2-2.6,0.7-3.3s1.2-1.1,2.2-1.1c1,0,1.7,0.4,2.2,1.1S186.5,59.2,186.5,60.6z M182.1,60.6c0,1.2,0.1,2,0.4,2.5
		s0.6,0.8,1.2,0.8s0.9-0.3,1.2-0.8s0.4-1.3,0.4-2.5c0-1.1-0.1-2-0.4-2.5s-0.6-0.8-1.2-0.8s-0.9,0.3-1.2,0.8S182.1,59.5,182.1,60.6z"
		/>
	<path class="st4" d="M193.6,63.9c0.3,0,0.7-0.1,1-0.2v1c-0.2,0.1-0.3,0.1-0.6,0.2s-0.5,0.1-0.7,0.1c-1.3,0-2-0.7-2-2.1v-3.5h-0.9
		v-0.6l0.9-0.5l0.5-1.4h0.8v1.4h1.8v1h-1.8v3.5c0,0.3,0.1,0.6,0.2,0.7S193.3,63.9,193.6,63.9z"/>
	<path class="st4" d="M201.6,61.7c0,1.1-0.3,1.9-0.8,2.5s-1.3,0.9-2.3,0.9c-0.6,0-1.1-0.1-1.6-0.4s-0.8-0.7-1.1-1.2
		s-0.4-1.1-0.4-1.8c0-1.1,0.3-1.9,0.8-2.5s1.3-0.9,2.3-0.9c0.9,0,1.7,0.3,2.2,0.9S201.6,60.6,201.6,61.7z M196.9,61.7
		c0,1.5,0.6,2.2,1.7,2.2c1.1,0,1.6-0.7,1.6-2.2c0-1.5-0.6-2.2-1.7-2.2c-0.6,0-1,0.2-1.3,0.6S196.9,60.9,196.9,61.7z"/>
	<path class="st4" d="M206.5,56.3h2.5c1.2,0,2,0.2,2.6,0.5s0.8,0.9,0.8,1.6c0,0.5-0.1,0.9-0.4,1.2s-0.6,0.5-1.1,0.6v0.1
		c0.6,0.1,1,0.3,1.3,0.7s0.4,0.8,0.4,1.4c0,0.8-0.3,1.4-0.8,1.8s-1.3,0.7-2.2,0.7h-3.1V56.3z M207.9,59.9h1.3c0.6,0,1-0.1,1.3-0.3
		s0.4-0.5,0.4-0.9c0-0.4-0.1-0.7-0.4-0.9s-0.8-0.3-1.4-0.3h-1.2V59.9z M207.9,61v2.7h1.5c0.6,0,1-0.1,1.3-0.3s0.4-0.6,0.4-1.1
		c0-0.4-0.2-0.8-0.5-1s-0.8-0.3-1.4-0.3H207.9z"/>
	<path class="st4" d="M220,61.7c0,1.1-0.3,1.9-0.8,2.5s-1.3,0.9-2.3,0.9c-0.6,0-1.1-0.1-1.6-0.4s-0.8-0.7-1.1-1.2s-0.4-1.1-0.4-1.8
		c0-1.1,0.3-1.9,0.8-2.5s1.3-0.9,2.3-0.9c0.9,0,1.7,0.3,2.2,0.9S220,60.6,220,61.7z M215.3,61.7c0,1.5,0.6,2.2,1.7,2.2
		c1.1,0,1.6-0.7,1.6-2.2c0-1.5-0.6-2.2-1.7-2.2c-0.6,0-1,0.2-1.3,0.6S215.3,60.9,215.3,61.7z"/>
	<path class="st4" d="M224.9,58.3c0.8,0,1.4,0.3,1.9,0.9s0.7,1.4,0.7,2.5c0,1.1-0.2,1.9-0.7,2.5s-1.1,0.9-1.9,0.9
		c-0.8,0-1.5-0.3-1.9-0.9h-0.1l-0.3,0.8h-1v-9.1h1.4V58c0,0.2,0,0.4,0,0.7s0,0.5,0,0.6h0.1C223.4,58.6,224,58.3,224.9,58.3z
		 M224.5,59.4c-0.6,0-1,0.2-1.2,0.5s-0.4,0.9-0.4,1.6v0.1c0,0.8,0.1,1.4,0.4,1.7s0.7,0.5,1.2,0.5c0.5,0,0.9-0.2,1.1-0.6
		s0.4-0.9,0.4-1.7C226,60.2,225.5,59.4,224.5,59.4z"/>
	<path class="st4" d="M237.3,60.6h0.7l-1.5,4.3h-0.7l-1.5-4.3h0.7l0.9,2.7c0,0.1,0.1,0.3,0.1,0.5s0.1,0.3,0.1,0.4
		c0-0.1,0.1-0.3,0.1-0.5s0.1-0.3,0.1-0.4L237.3,60.6z"/>
	<path class="st4" d="M239.9,65c-0.5,0-0.9-0.1-1.2-0.4s-0.4-0.7-0.4-1.2c0-0.5,0.1-0.9,0.4-1.2s0.6-0.5,1.1-0.5
		c0.4,0,0.8,0.1,1,0.4s0.4,0.6,0.4,1.1v0.4H239c0,0.3,0.1,0.6,0.3,0.7s0.4,0.3,0.7,0.3c0.2,0,0.4,0,0.5-0.1s0.3-0.1,0.5-0.2v0.6
		c-0.2,0.1-0.3,0.1-0.5,0.2S240.2,65,239.9,65z M239.8,62.1c-0.2,0-0.4,0.1-0.5,0.2s-0.2,0.3-0.2,0.6h1.5c0-0.3-0.1-0.5-0.2-0.6
		S240,62.1,239.8,62.1z"/>
	<path class="st4" d="M243.6,61.6c0.1,0,0.3,0,0.3,0l-0.1,0.6c-0.1,0-0.2,0-0.3,0c-0.3,0-0.5,0.1-0.7,0.3s-0.3,0.4-0.3,0.7v1.7H242
		v-3.2h0.5l0.1,0.6h0c0.1-0.2,0.2-0.3,0.4-0.5S243.4,61.6,243.6,61.6z"/>
	<path class="st4" d="M244.5,60.8c0-0.1,0-0.2,0.1-0.3s0.2-0.1,0.3-0.1c0.1,0,0.2,0,0.3,0.1s0.1,0.2,0.1,0.3c0,0.1,0,0.2-0.1,0.3
		s-0.2,0.1-0.3,0.1c-0.1,0-0.2,0-0.3-0.1S244.5,60.9,244.5,60.8z M245.3,64.9h-0.7v-3.2h0.7V64.9z"/>
	<path class="st4" d="M247.9,62.2h-0.8v2.7h-0.7v-2.7h-0.5v-0.3l0.5-0.2v-0.2c0-0.4,0.1-0.7,0.3-0.9s0.5-0.3,0.8-0.3
		c0.2,0,0.5,0,0.7,0.1L248,61c-0.2-0.1-0.3-0.1-0.5-0.1c-0.2,0-0.3,0-0.3,0.1s-0.1,0.2-0.1,0.4v0.2h0.8V62.2z"/>
	<path class="st4" d="M247.9,61.7h0.8l0.7,1.8c0.1,0.3,0.2,0.5,0.2,0.7h0c0-0.1,0-0.2,0.1-0.4s0.3-0.9,0.7-2.2h0.7l-1.4,3.7
		c-0.3,0.7-0.7,1-1.3,1c-0.2,0-0.3,0-0.4,0v-0.5c0.1,0,0.2,0,0.4,0c0.3,0,0.6-0.2,0.7-0.6l0.1-0.3L247.9,61.7z"/>
	<path class="st4" d="M256.4,64.9h-0.8l-1.1-1.8l-1.1,1.8h-0.8l1.4-2.2l-1.3-2.1h0.8l1,1.6l1-1.6h0.8l-1.3,2.1L256.4,64.9z"/>
	<path class="st4" d="M258.2,62.6l1-2h0.8l-1.4,2.6v1.7h-0.7v-1.6l-1.4-2.6h0.8L258.2,62.6z"/>
	<path class="st4" d="M263.2,64.9h-3.1v-0.5l2.2-3.2h-2.1v-0.6h2.9v0.5l-2.2,3.2h2.2V64.9z"/>
	<path class="st4" d="M265.7,64.9H265v-2.8c0-0.3,0-0.6,0-0.8c0,0-0.1,0.1-0.2,0.2s-0.3,0.2-0.7,0.5l-0.3-0.4l1.3-1h0.6V64.9z"/>
	<path class="st4" d="M270,64.9h-2.9v-0.5l1.1-1.1c0.3-0.3,0.5-0.6,0.6-0.7c0.1-0.1,0.2-0.3,0.2-0.4s0.1-0.3,0.1-0.4
		c0-0.2-0.1-0.3-0.2-0.5s-0.3-0.2-0.5-0.2c-0.2,0-0.3,0-0.5,0.1c-0.2,0.1-0.3,0.2-0.5,0.3l-0.4-0.5c0.2-0.2,0.5-0.3,0.7-0.4
		s0.5-0.1,0.7-0.1c0.4,0,0.7,0.1,1,0.3s0.4,0.5,0.4,0.8c0,0.2,0,0.4-0.1,0.6c-0.1,0.2-0.2,0.4-0.3,0.5c-0.1,0.2-0.4,0.4-0.7,0.7
		l-0.7,0.7v0h2V64.9z"/>
	<path class="st4" d="M273.3,61.6c0,0.3-0.1,0.5-0.2,0.7s-0.4,0.3-0.7,0.4v0c0.3,0,0.6,0.1,0.8,0.3s0.3,0.4,0.3,0.7
		c0,0.4-0.1,0.7-0.4,1s-0.7,0.3-1.2,0.3c-0.5,0-0.9-0.1-1.2-0.2v-0.6c0.2,0.1,0.4,0.2,0.6,0.2s0.4,0.1,0.6,0.1
		c0.3,0,0.6-0.1,0.7-0.2s0.2-0.3,0.2-0.6c0-0.2-0.1-0.4-0.3-0.5S272,63,271.6,63h-0.4v-0.6h0.4c0.7,0,1-0.2,1-0.7
		c0-0.2-0.1-0.3-0.2-0.4s-0.3-0.1-0.5-0.1c-0.2,0-0.3,0-0.5,0.1s-0.3,0.1-0.5,0.3l-0.3-0.5c0.4-0.3,0.8-0.4,1.4-0.4
		c0.4,0,0.8,0.1,1,0.3S273.3,61.3,273.3,61.6z"/>
</g>
<g>
	<g>
		<g>
			<path class="st1" d="M317.4,186.9h-35.3c-2.8,0-5.1-2.3-5.1-5.1V158c0-2.8,2.3-5.1,5.1-5.1h35.3c2.8,0,5.1,2.3,5.1,5.1v23.9
				C322.4,184.6,320.2,186.9,317.4,186.9z"/>
			<path d="M317.4,188.4h-35.3c-3.6,0-6.6-2.9-6.6-6.6V158c0-3.6,2.9-6.6,6.6-6.6h35.3c3.6,0,6.6,2.9,6.6,6.6v23.9
				C323.9,185.5,321,188.4,317.4,188.4z M282.1,154.4c-2,0-3.6,1.6-3.6,3.6v23.9c0,2,1.6,3.6,3.6,3.6h35.3c2,0,3.6-1.6,3.6-3.6V158
				c0-2-1.6-3.6-3.6-3.6H282.1z"/>
		</g>
		<g>
			<g>
				<path class="st1" d="M274.9,205.2c-1.1,0-1.5-0.8-1-1.7l5.5-9.1c0.6-0.9,1.9-1.8,3-1.8h34.9c1.1,0,2.5,0.9,3,1.8l5.6,9.4
					c0.6,0.9,0.1,1.7-1,1.7L274.9,205.2z"/>
			</g>
			<g>
				<path d="M325.1,207.5C325.1,207.5,325.1,207.5,325.1,207.5l-50.2-0.6c-1.1,0-2-0.6-2.4-1.4c-0.5-0.8-0.4-1.9,0.2-2.8l5.5-8.9
					c0.9-1.6,2.9-2.3,4.3-2.3h34.9c1.4,0,3.4,0.7,4.3,2.3l5.6,9.3c0.6,0.9,0.6,2.1,0.2,2.9S326.2,207.5,325.1,207.5z M275.6,203.7
					l48.8,0.4l-5.2-8.7c-0.3-0.4-1.1-0.8-1.7-0.8h-34.9c-0.7,0-1.5,0.4-1.7,0.8L275.6,203.7z"/>
			</g>
		</g>
		<g>
			<rect x="291.4" y="186.9" width="16.7" height="5.8"/>
		</g>
		<g>
			<path class="st5" d="M315,181.3h-30.4c-0.7,0-1.2-0.5-1.2-1.2v-20.4c0-0.7,0.5-1.2,1.2-1.2H315c0.7,0,1.2,0.5,1.2,1.2v20.4
				C316.2,180.8,315.6,181.3,315,181.3z"/>
		</g>
	</g>
	<g>
		<path d="M293.2,139.5h-7.5v-13.1h7.5v2.3h-4.8v2.9h4.4v2.3h-4.4v3.4h4.8V139.5z"/>
		<path d="M298.1,139.5l-3.8-10h2.9l1.9,5.7c0.2,0.7,0.3,1.4,0.4,2.1h0.1c0-0.6,0.2-1.3,0.4-2.1l1.9-5.7h2.9l-3.8,10H298.1z"/>
		<path d="M310.7,139.7c-1.6,0-2.9-0.4-3.8-1.3s-1.4-2.2-1.4-3.8c0-1.7,0.4-3,1.3-3.9c0.8-0.9,2-1.4,3.5-1.4c1.4,0,2.5,0.4,3.3,1.2
			c0.8,0.8,1.2,1.9,1.2,3.3v1.3h-6.5c0,0.8,0.3,1.4,0.7,1.8c0.4,0.4,1,0.7,1.8,0.7c0.6,0,1.2-0.1,1.7-0.2c0.5-0.1,1.1-0.3,1.7-0.6
			v2.1c-0.5,0.2-1,0.4-1.5,0.5C312.2,139.6,311.5,139.7,310.7,139.7z M310.3,131.2c-0.6,0-1,0.2-1.4,0.6c-0.3,0.4-0.5,0.9-0.6,1.6
			h3.8c0-0.7-0.2-1.2-0.5-1.6C311.4,131.4,310.9,131.2,310.3,131.2z"/>
	</g>
</g>
<g>
	<path d="M353.5,145.9h-4.8v-8.6h4.8v1.2H350v2.3h3.2v1.2H350v2.7h3.4V145.9z"/>
	<path d="M356.7,145.9l-2.5-6.5h1.5l1.3,3.8c0.2,0.6,0.4,1.1,0.4,1.5h0c0-0.3,0.2-0.8,0.4-1.5l1.3-3.8h1.5l-2.5,6.5H356.7z"/>
	<path d="M364.4,146c-1,0-1.8-0.3-2.4-0.9s-0.9-1.4-0.9-2.4c0-1.1,0.3-1.9,0.8-2.5s1.3-0.9,2.2-0.9c0.9,0,1.5,0.3,2,0.8
		s0.7,1.2,0.7,2.1v0.7h-4.3c0,0.6,0.2,1.1,0.5,1.5s0.8,0.5,1.4,0.5c0.4,0,0.7,0,1.1-0.1s0.7-0.2,1.1-0.4v1.1c-0.3,0.2-0.7,0.3-1,0.3
		S364.9,146,364.4,146z M364.2,140.3c-0.4,0-0.8,0.1-1.1,0.4s-0.4,0.7-0.5,1.2h2.9c0-0.5-0.1-0.9-0.4-1.2S364.6,140.3,364.2,140.3z"
		/>
	<path d="M371.6,137.7c0-0.2,0.1-0.4,0.2-0.6s0.3-0.2,0.6-0.2c0.2,0,0.4,0.1,0.6,0.2s0.2,0.3,0.2,0.6c0,0.2-0.1,0.4-0.2,0.6
		s-0.3,0.2-0.6,0.2c-0.3,0-0.4-0.1-0.6-0.2S371.6,137.9,371.6,137.7z M373,145.9h-1.4v-6.5h1.4V145.9z"/>
	<path d="M380.7,145.9h-1.4v-4c0-0.5-0.1-0.9-0.3-1.1s-0.5-0.4-1-0.4c-0.6,0-1,0.2-1.3,0.5s-0.4,0.9-0.4,1.7v3.2H375v-6.5h1.1
		l0.2,0.8h0.1c0.2-0.3,0.5-0.5,0.8-0.7s0.8-0.3,1.2-0.3c1.6,0,2.3,0.8,2.3,2.4V145.9z"/>
	<path d="M385,144.9c0.3,0,0.7-0.1,1-0.2v1c-0.2,0.1-0.3,0.1-0.6,0.2s-0.5,0.1-0.7,0.1c-1.3,0-2-0.7-2-2.1v-3.5h-0.9v-0.6l0.9-0.5
		l0.5-1.4h0.8v1.4h1.8v1h-1.8v3.5c0,0.3,0.1,0.6,0.2,0.7S384.7,144.9,385,144.9z"/>
	<path d="M390.1,146c-1,0-1.8-0.3-2.4-0.9s-0.9-1.4-0.9-2.4c0-1.1,0.3-1.9,0.8-2.5s1.3-0.9,2.2-0.9c0.9,0,1.5,0.3,2,0.8
		s0.7,1.2,0.7,2.1v0.7h-4.3c0,0.6,0.2,1.1,0.5,1.5s0.8,0.5,1.4,0.5c0.4,0,0.7,0,1.1-0.1s0.7-0.2,1.1-0.4v1.1c-0.3,0.2-0.7,0.3-1,0.3
		S390.6,146,390.1,146z M389.9,140.3c-0.4,0-0.8,0.1-1.1,0.4s-0.4,0.7-0.5,1.2h2.9c0-0.5-0.1-0.9-0.4-1.2S390.3,140.3,389.9,140.3z"
		/>
	<path d="M397.5,139.3c0.3,0,0.5,0,0.7,0.1l-0.1,1.3c-0.2,0-0.4-0.1-0.6-0.1c-0.6,0-1,0.2-1.3,0.5s-0.5,0.8-0.5,1.4v3.4h-1.4v-6.5
		h1.1l0.2,1.1h0.1c0.2-0.4,0.5-0.7,0.8-0.9S397.1,139.3,397.5,139.3z"/>
	<path d="M402,146c-1,0-1.7-0.3-2.2-0.9s-0.8-1.4-0.8-2.5c0-1.1,0.3-1.9,0.8-2.5s1.3-0.9,2.3-0.9c0.7,0,1.3,0.1,1.8,0.4l-0.4,1.1
		c-0.6-0.2-1.1-0.3-1.4-0.3c-1.1,0-1.7,0.7-1.7,2.2c0,0.7,0.1,1.3,0.4,1.6s0.7,0.5,1.2,0.5c0.6,0,1.2-0.2,1.7-0.5v1.2
		c-0.2,0.1-0.5,0.2-0.8,0.3S402.4,146,402,146z"/>
	<path d="M408.2,146c-1,0-1.8-0.3-2.4-0.9s-0.9-1.4-0.9-2.4c0-1.1,0.3-1.9,0.8-2.5s1.3-0.9,2.2-0.9c0.9,0,1.5,0.3,2,0.8
		s0.7,1.2,0.7,2.1v0.7h-4.3c0,0.6,0.2,1.1,0.5,1.5s0.8,0.5,1.4,0.5c0.4,0,0.7,0,1.1-0.1s0.7-0.2,1.1-0.4v1.1c-0.3,0.2-0.7,0.3-1,0.3
		S408.6,146,408.2,146z M407.9,140.3c-0.4,0-0.8,0.1-1.1,0.4s-0.4,0.7-0.5,1.2h2.9c0-0.5-0.1-0.9-0.4-1.2S408.4,140.3,407.9,140.3z"
		/>
	<path d="M415.5,146c-0.8,0-1.5-0.3-1.9-0.9h-0.1c0.1,0.5,0.1,0.9,0.1,1v2.7h-1.4v-9.4h1.1c0,0.1,0.1,0.4,0.2,0.9h0.1
		c0.4-0.7,1.1-1,1.9-1c0.8,0,1.4,0.3,1.9,0.9s0.7,1.4,0.7,2.5s-0.2,1.9-0.7,2.5S416.4,146,415.5,146z M415.2,140.4
		c-0.5,0-0.9,0.2-1.2,0.5s-0.4,0.8-0.4,1.5v0.2c0,0.8,0.1,1.4,0.4,1.7s0.7,0.5,1.2,0.5c0.5,0,0.8-0.2,1.1-0.6s0.4-0.9,0.4-1.7
		c0-0.7-0.1-1.3-0.4-1.6S415.7,140.4,415.2,140.4z"/>
	<path d="M422.1,144.9c0.3,0,0.7-0.1,1-0.2v1c-0.2,0.1-0.3,0.1-0.6,0.2s-0.5,0.1-0.7,0.1c-1.3,0-2-0.7-2-2.1v-3.5H419v-0.6l0.9-0.5
		l0.5-1.4h0.8v1.4h1.8v1h-1.8v3.5c0,0.3,0.1,0.6,0.2,0.7S421.9,144.9,422.1,144.9z"/>
	<path d="M428.8,144c0,0.6-0.2,1.1-0.7,1.5s-1.1,0.5-2,0.5c-0.9,0-1.6-0.1-2.1-0.4v-1.2c0.8,0.4,1.5,0.5,2.1,0.5
		c0.8,0,1.3-0.3,1.3-0.8c0-0.2,0-0.3-0.1-0.4s-0.2-0.2-0.5-0.3s-0.5-0.3-0.9-0.4c-0.7-0.3-1.3-0.6-1.5-0.9s-0.4-0.7-0.4-1.1
		c0-0.6,0.2-1,0.7-1.3s1.1-0.5,1.8-0.5c0.8,0,1.5,0.2,2.2,0.5l-0.4,1c-0.7-0.3-1.3-0.4-1.8-0.4c-0.7,0-1.1,0.2-1.1,0.6
		c0,0.2,0.1,0.4,0.3,0.5s0.6,0.3,1.2,0.6c0.5,0.2,0.9,0.4,1.2,0.6s0.4,0.4,0.5,0.6S428.8,143.7,428.8,144z"/>
	<path d="M437.5,145.9l-0.3-0.9h0c-0.3,0.4-0.6,0.7-0.9,0.8s-0.7,0.2-1.2,0.2c-0.6,0-1.1-0.2-1.5-0.5s-0.5-0.8-0.5-1.5
		c0-0.7,0.2-1.2,0.7-1.5s1.3-0.5,2.3-0.6l1.1,0v-0.3c0-0.4-0.1-0.7-0.3-0.9s-0.5-0.3-0.9-0.3c-0.3,0-0.7,0-1,0.1s-0.6,0.2-0.9,0.3
		l-0.4-1c0.4-0.2,0.7-0.3,1.2-0.4s0.8-0.1,1.2-0.1c0.8,0,1.4,0.2,1.9,0.5s0.6,0.9,0.6,1.7v4.4H437.5z M435.4,144.9
		c0.5,0,0.9-0.1,1.2-0.4s0.5-0.7,0.5-1.2v-0.6l-0.8,0c-0.6,0-1.1,0.1-1.4,0.3s-0.4,0.5-0.4,0.9c0,0.3,0.1,0.5,0.3,0.7
		S435.1,144.9,435.4,144.9z"/>
	<path d="M446.1,145.9h-1.4v-4c0-0.5-0.1-0.9-0.3-1.1s-0.5-0.4-1-0.4c-0.6,0-1,0.2-1.3,0.5s-0.4,0.9-0.4,1.7v3.2h-1.4v-6.5h1.1
		l0.2,0.8h0.1c0.2-0.3,0.5-0.5,0.8-0.7s0.8-0.3,1.2-0.3c1.6,0,2.3,0.8,2.3,2.4V145.9z"/>
	<path d="M450.2,146c-0.8,0-1.4-0.3-1.9-0.9s-0.7-1.4-0.7-2.5c0-1.1,0.2-1.9,0.7-2.5s1.1-0.9,1.9-0.9c0.9,0,1.5,0.3,1.9,0.9h0.1
		c-0.1-0.5-0.1-0.8-0.1-1.1v-2.4h1.4v9.1h-1.1l-0.2-0.8h-0.1C451.7,145.7,451,146,450.2,146z M450.5,144.9c0.6,0,1-0.2,1.2-0.5
		s0.4-0.8,0.4-1.5v-0.2c0-0.8-0.1-1.4-0.4-1.7s-0.7-0.5-1.2-0.5c-0.5,0-0.9,0.2-1.1,0.6s-0.4,1-0.4,1.7c0,0.7,0.1,1.3,0.4,1.6
		S450,144.9,450.5,144.9z"/>
	<path d="M461.9,139.3c0.3,0,0.5,0,0.7,0.1l-0.1,1.3c-0.2,0-0.4-0.1-0.6-0.1c-0.6,0-1,0.2-1.3,0.5s-0.5,0.8-0.5,1.4v3.4h-1.4v-6.5
		h1.1l0.2,1.1h0.1c0.2-0.4,0.5-0.7,0.8-0.9S461.5,139.3,461.9,139.3z"/>
	<path d="M466.6,146c-1,0-1.8-0.3-2.4-0.9s-0.9-1.4-0.9-2.4c0-1.1,0.3-1.9,0.8-2.5s1.3-0.9,2.2-0.9c0.9,0,1.5,0.3,2,0.8
		s0.7,1.2,0.7,2.1v0.7h-4.3c0,0.6,0.2,1.1,0.5,1.5s0.8,0.5,1.4,0.5c0.4,0,0.7,0,1.1-0.1s0.7-0.2,1.1-0.4v1.1c-0.3,0.2-0.7,0.3-1,0.3
		S467,146,466.6,146z M466.3,140.3c-0.4,0-0.8,0.1-1.1,0.4s-0.4,0.7-0.5,1.2h2.9c0-0.5-0.1-0.9-0.4-1.2S466.8,140.3,466.3,140.3z"/>
	<path d="M474,146c-0.8,0-1.5-0.3-1.9-0.9H472c0.1,0.5,0.1,0.9,0.1,1v2.7h-1.4v-9.4h1.1c0,0.1,0.1,0.4,0.2,0.9h0.1
		c0.4-0.7,1.1-1,1.9-1c0.8,0,1.4,0.3,1.9,0.9s0.7,1.4,0.7,2.5s-0.2,1.9-0.7,2.5S474.8,146,474,146z M473.6,140.4
		c-0.5,0-0.9,0.2-1.2,0.5s-0.4,0.8-0.4,1.5v0.2c0,0.8,0.1,1.4,0.4,1.7s0.7,0.5,1.2,0.5c0.5,0,0.8-0.2,1.1-0.6s0.4-0.9,0.4-1.7
		c0-0.7-0.1-1.3-0.4-1.6S474.1,140.4,473.6,140.4z"/>
	<path d="M479.5,145.9h-1.4v-9.1h1.4V145.9z"/>
	<path d="M485.5,145.9l-0.3-0.9h0c-0.3,0.4-0.6,0.7-0.9,0.8s-0.7,0.2-1.2,0.2c-0.6,0-1.1-0.2-1.5-0.5s-0.5-0.8-0.5-1.5
		c0-0.7,0.2-1.2,0.7-1.5s1.3-0.5,2.3-0.6l1.1,0v-0.3c0-0.4-0.1-0.7-0.3-0.9s-0.5-0.3-0.9-0.3c-0.3,0-0.7,0-1,0.1s-0.6,0.2-0.9,0.3
		l-0.4-1c0.4-0.2,0.7-0.3,1.2-0.4s0.8-0.1,1.2-0.1c0.8,0,1.4,0.2,1.9,0.5s0.6,0.9,0.6,1.7v4.4H485.5z M483.5,144.9
		c0.5,0,0.9-0.1,1.2-0.4s0.5-0.7,0.5-1.2v-0.6l-0.8,0c-0.6,0-1.1,0.1-1.4,0.3s-0.4,0.5-0.4,0.9c0,0.3,0.1,0.5,0.3,0.7
		S483.2,144.9,483.5,144.9z"/>
	<path d="M491.1,146c-1,0-1.7-0.3-2.2-0.9s-0.8-1.4-0.8-2.5c0-1.1,0.3-1.9,0.8-2.5s1.3-0.9,2.3-0.9c0.7,0,1.3,0.1,1.8,0.4l-0.4,1.1
		c-0.6-0.2-1.1-0.3-1.4-0.3c-1.1,0-1.7,0.7-1.7,2.2c0,0.7,0.1,1.3,0.4,1.6s0.7,0.5,1.2,0.5c0.6,0,1.2-0.2,1.7-0.5v1.2
		c-0.2,0.1-0.5,0.2-0.8,0.3S491.5,146,491.1,146z"/>
	<path d="M497.2,146c-1,0-1.8-0.3-2.4-0.9s-0.9-1.4-0.9-2.4c0-1.1,0.3-1.9,0.8-2.5s1.3-0.9,2.2-0.9c0.9,0,1.5,0.3,2,0.8
		s0.7,1.2,0.7,2.1v0.7h-4.3c0,0.6,0.2,1.1,0.5,1.5s0.8,0.5,1.4,0.5c0.4,0,0.7,0,1.1-0.1s0.7-0.2,1.1-0.4v1.1c-0.3,0.2-0.7,0.3-1,0.3
		S497.7,146,497.2,146z M497,140.3c-0.4,0-0.8,0.1-1.1,0.4s-0.4,0.7-0.5,1.2h2.9c0-0.5-0.1-0.9-0.4-1.2S497.4,140.3,497,140.3z"/>
	<path d="M505.7,144c0,0.6-0.2,1.1-0.7,1.5s-1.1,0.5-2,0.5c-0.9,0-1.6-0.1-2.1-0.4v-1.2c0.8,0.4,1.5,0.5,2.1,0.5
		c0.8,0,1.3-0.3,1.3-0.8c0-0.2,0-0.3-0.1-0.4s-0.2-0.2-0.5-0.3s-0.5-0.3-0.9-0.4c-0.7-0.3-1.3-0.6-1.5-0.9s-0.4-0.7-0.4-1.1
		c0-0.6,0.2-1,0.7-1.3s1.1-0.5,1.8-0.5c0.8,0,1.5,0.2,2.2,0.5l-0.4,1c-0.7-0.3-1.3-0.4-1.8-0.4c-0.7,0-1.1,0.2-1.1,0.6
		c0,0.2,0.1,0.4,0.3,0.5s0.6,0.3,1.2,0.6c0.5,0.2,0.9,0.4,1.2,0.6s0.4,0.4,0.5,0.6S505.7,143.7,505.7,144z"/>
	<path d="M512.7,144.9c0.3,0,0.7-0.1,1-0.2v1c-0.2,0.1-0.3,0.1-0.6,0.2s-0.5,0.1-0.7,0.1c-1.3,0-2-0.7-2-2.1v-3.5h-0.9v-0.6l0.9-0.5
		l0.5-1.4h0.8v1.4h1.8v1h-1.8v3.5c0,0.3,0.1,0.6,0.2,0.7S512.4,144.9,512.7,144.9z"/>
	<path d="M520.7,145.9h-1.4v-4c0-0.5-0.1-0.9-0.3-1.1s-0.5-0.4-1-0.4c-0.6,0-1,0.2-1.3,0.5s-0.4,0.9-0.4,1.7v3.2H515v-9.1h1.4v2.3
		c0,0.4,0,0.8-0.1,1.2h0.1c0.2-0.3,0.4-0.6,0.8-0.7s0.7-0.3,1.2-0.3c1.6,0,2.4,0.8,2.4,2.4V145.9z"/>
	<path d="M525.4,146c-1,0-1.8-0.3-2.4-0.9s-0.9-1.4-0.9-2.4c0-1.1,0.3-1.9,0.8-2.5s1.3-0.9,2.2-0.9c0.9,0,1.5,0.3,2,0.8
		s0.7,1.2,0.7,2.1v0.7h-4.3c0,0.6,0.2,1.1,0.5,1.5s0.8,0.5,1.4,0.5c0.4,0,0.7,0,1.1-0.1s0.7-0.2,1.1-0.4v1.1c-0.3,0.2-0.7,0.3-1,0.3
		S525.9,146,525.4,146z M525.2,140.3c-0.4,0-0.8,0.1-1.1,0.4s-0.4,0.7-0.5,1.2h2.9c0-0.5-0.1-0.9-0.4-1.2S525.6,140.3,525.2,140.3z"
		/>
	<path d="M538.4,142.6c0,1.1-0.3,1.9-0.8,2.5s-1.3,0.9-2.3,0.9c-0.6,0-1.1-0.1-1.6-0.4s-0.8-0.7-1.1-1.2s-0.4-1.1-0.4-1.8
		c0-1.1,0.3-1.9,0.8-2.5s1.3-0.9,2.3-0.9c0.9,0,1.7,0.3,2.2,0.9S538.4,141.6,538.4,142.6z M533.7,142.6c0,1.5,0.6,2.2,1.7,2.2
		c1.1,0,1.6-0.7,1.6-2.2c0-1.5-0.6-2.2-1.7-2.2c-0.6,0-1,0.2-1.3,0.6S533.7,141.9,533.7,142.6z"/>
	<path d="M543.3,139.3c0.3,0,0.5,0,0.7,0.1l-0.1,1.3c-0.2,0-0.4-0.1-0.6-0.1c-0.6,0-1,0.2-1.3,0.5s-0.5,0.8-0.5,1.4v3.4H540v-6.5
		h1.1l0.2,1.1h0.1c0.2-0.4,0.5-0.7,0.8-0.9S542.9,139.3,543.3,139.3z"/>
	<path d="M545.1,137.7c0-0.2,0.1-0.4,0.2-0.6s0.3-0.2,0.6-0.2c0.2,0,0.4,0.1,0.6,0.2s0.2,0.3,0.2,0.6c0,0.2-0.1,0.4-0.2,0.6
		s-0.3,0.2-0.6,0.2c-0.3,0-0.4-0.1-0.6-0.2S545.1,137.9,545.1,137.7z M546.5,145.9h-1.4v-6.5h1.4V145.9z"/>
	<path d="M554,139.4v0.8l-1.1,0.2c0.1,0.1,0.2,0.3,0.3,0.5s0.1,0.4,0.1,0.6c0,0.7-0.2,1.2-0.7,1.6s-1.1,0.6-1.9,0.6
		c-0.2,0-0.4,0-0.6,0c-0.3,0.2-0.4,0.4-0.4,0.6c0,0.1,0.1,0.3,0.2,0.3s0.4,0.1,0.8,0.1h1.1c0.7,0,1.3,0.2,1.6,0.5s0.6,0.7,0.6,1.3
		c0,0.7-0.3,1.3-0.9,1.7s-1.5,0.6-2.6,0.6c-0.9,0-1.6-0.2-2-0.5s-0.7-0.8-0.7-1.3c0-0.4,0.1-0.7,0.4-1s0.6-0.5,1.1-0.6
		c-0.2-0.1-0.3-0.2-0.5-0.4s-0.2-0.4-0.2-0.5c0-0.2,0.1-0.4,0.2-0.6s0.3-0.3,0.6-0.5c-0.3-0.1-0.6-0.4-0.8-0.7s-0.3-0.7-0.3-1.1
		c0-0.7,0.2-1.2,0.7-1.6s1.1-0.6,1.9-0.6c0.2,0,0.4,0,0.6,0s0.4,0.1,0.5,0.1H554z M548.9,146.9c0,0.3,0.1,0.5,0.4,0.7
		s0.6,0.2,1.1,0.2c0.8,0,1.3-0.1,1.7-0.3s0.6-0.5,0.6-0.9c0-0.3-0.1-0.5-0.3-0.6s-0.6-0.2-1.1-0.2h-1c-0.4,0-0.7,0.1-0.9,0.3
		S548.9,146.6,548.9,146.9z M549.5,141.5c0,0.4,0.1,0.7,0.3,0.9s0.5,0.3,0.9,0.3c0.8,0,1.2-0.4,1.2-1.3c0-0.4-0.1-0.7-0.3-1
		s-0.5-0.3-0.9-0.3c-0.4,0-0.7,0.1-0.9,0.3S549.5,141.1,549.5,141.5z"/>
	<path d="M555.1,137.7c0-0.2,0.1-0.4,0.2-0.6s0.3-0.2,0.6-0.2c0.2,0,0.4,0.1,0.6,0.2s0.2,0.3,0.2,0.6c0,0.2-0.1,0.4-0.2,0.6
		s-0.3,0.2-0.6,0.2c-0.3,0-0.4-0.1-0.6-0.2S555.1,137.9,555.1,137.7z M556.5,145.9h-1.4v-6.5h1.4V145.9z"/>
	<path d="M564.2,145.9h-1.4v-4c0-0.5-0.1-0.9-0.3-1.1s-0.5-0.4-1-0.4c-0.6,0-1,0.2-1.3,0.5s-0.4,0.9-0.4,1.7v3.2h-1.4v-6.5h1.1
		l0.2,0.8h0.1c0.2-0.3,0.5-0.5,0.8-0.7s0.8-0.3,1.2-0.3c1.6,0,2.3,0.8,2.3,2.4V145.9z"/>
	<path d="M570.2,145.9l-0.3-0.9h0c-0.3,0.4-0.6,0.7-0.9,0.8s-0.7,0.2-1.2,0.2c-0.6,0-1.1-0.2-1.5-0.5s-0.5-0.8-0.5-1.5
		c0-0.7,0.2-1.2,0.7-1.5s1.3-0.5,2.3-0.6l1.1,0v-0.3c0-0.4-0.1-0.7-0.3-0.9s-0.5-0.3-0.9-0.3c-0.3,0-0.7,0-1,0.1s-0.6,0.2-0.9,0.3
		l-0.4-1c0.4-0.2,0.7-0.3,1.2-0.4s0.8-0.1,1.2-0.1c0.8,0,1.4,0.2,1.9,0.5s0.6,0.9,0.6,1.7v4.4H570.2z M568.1,144.9
		c0.5,0,0.9-0.1,1.2-0.4s0.5-0.7,0.5-1.2v-0.6l-0.8,0c-0.6,0-1.1,0.1-1.4,0.3s-0.4,0.5-0.4,0.9c0,0.3,0.1,0.5,0.3,0.7
		S567.8,144.9,568.1,144.9z"/>
	<path d="M574.5,145.9h-1.4v-9.1h1.4V145.9z"/>
	<path d="M353.9,160.3h-1.4v-4c0-0.5-0.1-0.9-0.3-1.1s-0.5-0.4-0.9-0.4c-0.5,0-0.9,0.2-1.2,0.5s-0.4,0.9-0.4,1.7v3.2h-1.4v-6.5h1.1
		l0.2,0.8h0.1c0.2-0.3,0.4-0.5,0.8-0.7s0.7-0.3,1.1-0.3c1,0,1.7,0.3,2,1h0.1c0.2-0.3,0.5-0.6,0.8-0.8s0.7-0.3,1.2-0.3
		c0.8,0,1.3,0.2,1.7,0.6s0.5,1,0.5,1.8v4.2h-1.4v-4c0-0.5-0.1-0.9-0.3-1.1s-0.5-0.4-0.9-0.4c-0.5,0-0.9,0.2-1.2,0.5
		s-0.4,0.8-0.4,1.5V160.3z"/>
	<path d="M362.8,160.4c-1,0-1.8-0.3-2.4-0.9s-0.9-1.4-0.9-2.4c0-1.1,0.3-1.9,0.8-2.5s1.3-0.9,2.2-0.9c0.9,0,1.5,0.3,2,0.8
		s0.7,1.2,0.7,2.1v0.7H361c0,0.6,0.2,1.1,0.5,1.5s0.8,0.5,1.4,0.5c0.4,0,0.7,0,1.1-0.1s0.7-0.2,1.1-0.4v1.1c-0.3,0.2-0.7,0.3-1,0.3
		S363.2,160.4,362.8,160.4z M362.5,154.7c-0.4,0-0.8,0.1-1.1,0.4s-0.4,0.7-0.5,1.2h2.9c0-0.5-0.1-0.9-0.4-1.2S363,154.7,362.5,154.7
		z"/>
	<path d="M371.2,158.4c0,0.6-0.2,1.1-0.7,1.5s-1.1,0.5-2,0.5c-0.9,0-1.6-0.1-2.1-0.4v-1.2c0.8,0.4,1.5,0.5,2.1,0.5
		c0.8,0,1.3-0.3,1.3-0.8c0-0.2,0-0.3-0.1-0.4s-0.2-0.2-0.5-0.3s-0.5-0.3-0.9-0.4c-0.7-0.3-1.3-0.6-1.5-0.9s-0.4-0.7-0.4-1.1
		c0-0.6,0.2-1,0.7-1.3s1.1-0.5,1.8-0.5c0.8,0,1.5,0.2,2.2,0.5l-0.4,1c-0.7-0.3-1.3-0.4-1.8-0.4c-0.7,0-1.1,0.2-1.1,0.6
		c0,0.2,0.1,0.4,0.3,0.5s0.6,0.3,1.2,0.6c0.5,0.2,0.9,0.4,1.2,0.6s0.4,0.4,0.5,0.6S371.2,158.1,371.2,158.4z"/>
	<path d="M377.1,158.4c0,0.6-0.2,1.1-0.7,1.5s-1.1,0.5-2,0.5c-0.9,0-1.6-0.1-2.1-0.4v-1.2c0.8,0.4,1.5,0.5,2.1,0.5
		c0.8,0,1.3-0.3,1.3-0.8c0-0.2,0-0.3-0.1-0.4s-0.2-0.2-0.5-0.3s-0.5-0.3-0.9-0.4c-0.7-0.3-1.3-0.6-1.5-0.9s-0.4-0.7-0.4-1.1
		c0-0.6,0.2-1,0.7-1.3s1.1-0.5,1.8-0.5c0.8,0,1.5,0.2,2.2,0.5l-0.4,1c-0.7-0.3-1.3-0.4-1.8-0.4c-0.7,0-1.1,0.2-1.1,0.6
		c0,0.2,0.1,0.4,0.3,0.5s0.6,0.3,1.2,0.6c0.5,0.2,0.9,0.4,1.2,0.6s0.4,0.4,0.5,0.6S377.1,158.1,377.1,158.4z"/>
	<path d="M382.6,160.3l-0.3-0.9h0c-0.3,0.4-0.6,0.7-0.9,0.8s-0.7,0.2-1.2,0.2c-0.6,0-1.1-0.2-1.5-0.5s-0.5-0.8-0.5-1.5
		c0-0.7,0.2-1.2,0.7-1.5s1.3-0.5,2.3-0.6l1.1,0V156c0-0.4-0.1-0.7-0.3-0.9s-0.5-0.3-0.9-0.3c-0.3,0-0.7,0-1,0.1s-0.6,0.2-0.9,0.3
		l-0.4-1c0.4-0.2,0.7-0.3,1.2-0.4s0.8-0.1,1.2-0.1c0.8,0,1.4,0.2,1.9,0.5s0.6,0.9,0.6,1.7v4.4H382.6z M380.6,159.3
		c0.5,0,0.9-0.1,1.2-0.4s0.5-0.7,0.5-1.2v-0.6l-0.8,0c-0.6,0-1.1,0.1-1.4,0.3s-0.4,0.5-0.4,0.9c0,0.3,0.1,0.5,0.3,0.7
		S380.2,159.3,380.6,159.3z"/>
	<path d="M391,153.8v0.8l-1.1,0.2c0.1,0.1,0.2,0.3,0.3,0.5s0.1,0.4,0.1,0.6c0,0.7-0.2,1.2-0.7,1.6s-1.1,0.6-1.9,0.6
		c-0.2,0-0.4,0-0.6,0c-0.3,0.2-0.4,0.4-0.4,0.6c0,0.1,0.1,0.3,0.2,0.3s0.4,0.1,0.8,0.1h1.1c0.7,0,1.3,0.2,1.6,0.5s0.6,0.7,0.6,1.3
		c0,0.7-0.3,1.3-0.9,1.7s-1.5,0.6-2.6,0.6c-0.9,0-1.6-0.2-2-0.5s-0.7-0.8-0.7-1.3c0-0.4,0.1-0.7,0.4-1s0.6-0.5,1.1-0.6
		c-0.2-0.1-0.3-0.2-0.5-0.4s-0.2-0.4-0.2-0.5c0-0.2,0.1-0.4,0.2-0.6s0.3-0.3,0.6-0.5c-0.3-0.1-0.6-0.4-0.8-0.7s-0.3-0.7-0.3-1.1
		c0-0.7,0.2-1.2,0.7-1.6s1.1-0.6,1.9-0.6c0.2,0,0.4,0,0.6,0s0.4,0.1,0.5,0.1H391z M385.9,161.3c0,0.3,0.1,0.5,0.4,0.7
		s0.6,0.2,1.1,0.2c0.8,0,1.3-0.1,1.7-0.3s0.6-0.5,0.6-0.9c0-0.3-0.1-0.5-0.3-0.6s-0.6-0.2-1.1-0.2h-1c-0.4,0-0.7,0.1-0.9,0.3
		S385.9,161,385.9,161.3z M386.5,155.9c0,0.4,0.1,0.7,0.3,0.9s0.5,0.3,0.9,0.3c0.8,0,1.2-0.4,1.2-1.3c0-0.4-0.1-0.7-0.3-1
		s-0.5-0.3-0.9-0.3c-0.4,0-0.7,0.1-0.9,0.3S386.5,155.5,386.5,155.9z"/>
	<path d="M395,160.4c-1,0-1.8-0.3-2.4-0.9s-0.9-1.4-0.9-2.4c0-1.1,0.3-1.9,0.8-2.5s1.3-0.9,2.2-0.9c0.9,0,1.5,0.3,2,0.8
		s0.7,1.2,0.7,2.1v0.7h-4.3c0,0.6,0.2,1.1,0.5,1.5s0.8,0.5,1.4,0.5c0.4,0,0.7,0,1.1-0.1s0.7-0.2,1.1-0.4v1.1c-0.3,0.2-0.7,0.3-1,0.3
		S395.5,160.4,395,160.4z M394.8,154.7c-0.4,0-0.8,0.1-1.1,0.4s-0.4,0.7-0.5,1.2h2.9c0-0.5-0.1-0.9-0.4-1.2S395.2,154.7,394.8,154.7
		z"/>
	<path d="M407.5,160.3l-0.8-3c-0.1-0.3-0.3-1.1-0.6-2.2h-0.1c-0.2,1.1-0.4,1.8-0.5,2.2l-0.9,3h-1.5l-1.8-6.5h1.4l0.8,3.2
		c0.2,0.8,0.3,1.5,0.4,2h0c0-0.3,0.1-0.6,0.2-1s0.1-0.6,0.2-0.8l1-3.4h1.5l1,3.4c0.1,0.2,0.1,0.5,0.2,0.9s0.1,0.7,0.2,0.9h0
		c0.1-0.5,0.2-1.2,0.4-2l0.8-3.2h1.4l-1.8,6.5H407.5z"/>
	<path d="M411.9,152.1c0-0.2,0.1-0.4,0.2-0.6s0.3-0.2,0.6-0.2c0.2,0,0.4,0.1,0.6,0.2s0.2,0.3,0.2,0.6c0,0.2-0.1,0.4-0.2,0.6
		s-0.3,0.2-0.6,0.2c-0.3,0-0.4-0.1-0.6-0.2S411.9,152.3,411.9,152.1z M413.4,160.3H412v-6.5h1.4V160.3z"/>
	<path d="M417.8,159.3c0.3,0,0.7-0.1,1-0.2v1c-0.2,0.1-0.3,0.1-0.6,0.2s-0.5,0.1-0.7,0.1c-1.3,0-2-0.7-2-2.1v-3.5h-0.9v-0.6l0.9-0.5
		l0.5-1.4h0.8v1.4h1.8v1h-1.8v3.5c0,0.3,0.1,0.6,0.2,0.7S417.5,159.3,417.8,159.3z"/>
	<path d="M425.8,160.3h-1.4v-4c0-0.5-0.1-0.9-0.3-1.1s-0.5-0.4-1-0.4c-0.6,0-1,0.2-1.3,0.5s-0.4,0.9-0.4,1.7v3.2h-1.4v-9.1h1.4v2.3
		c0,0.4,0,0.8-0.1,1.2h0.1c0.2-0.3,0.4-0.6,0.8-0.7s0.7-0.3,1.2-0.3c1.6,0,2.4,0.8,2.4,2.4V160.3z"/>
	<path d="M436.5,160.3h-1.4v-4c0-0.5-0.1-0.9-0.3-1.1s-0.5-0.4-1-0.4c-0.6,0-1,0.2-1.3,0.5s-0.4,0.9-0.4,1.7v3.2h-1.4v-9.1h1.4v2.3
		c0,0.4,0,0.8-0.1,1.2h0.1c0.2-0.3,0.4-0.6,0.8-0.7s0.7-0.3,1.2-0.3c1.6,0,2.4,0.8,2.4,2.4V160.3z"/>
	<path d="M441.3,160.4c-1,0-1.8-0.3-2.4-0.9s-0.9-1.4-0.9-2.4c0-1.1,0.3-1.9,0.8-2.5s1.3-0.9,2.2-0.9c0.9,0,1.5,0.3,2,0.8
		s0.7,1.2,0.7,2.1v0.7h-4.3c0,0.6,0.2,1.1,0.5,1.5s0.8,0.5,1.4,0.5c0.4,0,0.7,0,1.1-0.1s0.7-0.2,1.1-0.4v1.1c-0.3,0.2-0.7,0.3-1,0.3
		S441.7,160.4,441.3,160.4z M441,154.7c-0.4,0-0.8,0.1-1.1,0.4s-0.4,0.7-0.5,1.2h2.9c0-0.5-0.1-0.9-0.4-1.2S441.5,154.7,441,154.7z"
		/>
	<path d="M448.6,153.7c0.3,0,0.5,0,0.7,0.1l-0.1,1.3c-0.2,0-0.4-0.1-0.6-0.1c-0.6,0-1,0.2-1.3,0.5s-0.5,0.8-0.5,1.4v3.4h-1.4v-6.5
		h1.1l0.2,1.1h0.1c0.2-0.4,0.5-0.7,0.8-0.9S448.2,153.7,448.6,153.7z"/>
	<path d="M459.4,157c0,1.1-0.3,1.9-0.8,2.5s-1.3,0.9-2.3,0.9c-0.6,0-1.1-0.1-1.6-0.4s-0.8-0.7-1.1-1.2s-0.4-1.1-0.4-1.8
		c0-1.1,0.3-1.9,0.8-2.5s1.3-0.9,2.3-0.9c0.9,0,1.7,0.3,2.2,0.9S459.4,156,459.4,157z M454.7,157c0,1.5,0.6,2.2,1.7,2.2
		c1.1,0,1.6-0.7,1.6-2.2c0-1.5-0.6-2.2-1.7-2.2c-0.6,0-1,0.2-1.3,0.6S454.7,156.3,454.7,157z"/>
	<path d="M466.3,160.3l-0.8-3c-0.1-0.3-0.3-1.1-0.6-2.2h-0.1c-0.2,1.1-0.4,1.8-0.5,2.2l-0.9,3h-1.5l-1.8-6.5h1.4l0.8,3.2
		c0.2,0.8,0.3,1.5,0.4,2h0c0-0.3,0.1-0.6,0.2-1s0.1-0.6,0.2-0.8l1-3.4h1.5l1,3.4c0.1,0.2,0.1,0.5,0.2,0.9s0.1,0.7,0.2,0.9h0
		c0.1-0.5,0.2-1.2,0.4-2l0.8-3.2h1.4l-1.8,6.5H466.3z"/>
	<path d="M476.5,160.3h-1.4v-4c0-0.5-0.1-0.9-0.3-1.1s-0.5-0.4-1-0.4c-0.6,0-1,0.2-1.3,0.5s-0.4,0.9-0.4,1.7v3.2h-1.4v-6.5h1.1
		l0.2,0.8h0.1c0.2-0.3,0.5-0.5,0.8-0.7s0.8-0.3,1.2-0.3c1.6,0,2.3,0.8,2.3,2.4V160.3z"/>
	<path d="M478.2,159.5c0-0.3,0.1-0.5,0.2-0.7s0.4-0.2,0.6-0.2c0.3,0,0.5,0.1,0.7,0.2s0.2,0.4,0.2,0.6c0,0.3-0.1,0.5-0.2,0.7
		s-0.4,0.2-0.6,0.2s-0.5-0.1-0.6-0.2S478.2,159.8,478.2,159.5z"/>
	<path d="M348.6,171.1h2.5c1.2,0,2,0.2,2.6,0.5s0.8,0.9,0.8,1.6c0,0.5-0.1,0.9-0.4,1.2s-0.6,0.5-1.1,0.6v0.1c0.6,0.1,1,0.3,1.3,0.7
		s0.4,0.8,0.4,1.4c0,0.8-0.3,1.4-0.8,1.8s-1.3,0.7-2.2,0.7h-3.1V171.1z M350,174.6h1.3c0.6,0,1-0.1,1.3-0.3s0.4-0.5,0.4-0.9
		c0-0.4-0.1-0.7-0.4-0.9s-0.8-0.3-1.4-0.3H350V174.6z M350,175.8v2.7h1.5c0.6,0,1-0.1,1.3-0.3s0.4-0.6,0.4-1.1c0-0.4-0.2-0.8-0.5-1
		s-0.8-0.3-1.4-0.3H350z"/>
	<path d="M360.5,179.7l-0.3-0.9h0c-0.3,0.4-0.6,0.7-0.9,0.8s-0.7,0.2-1.2,0.2c-0.6,0-1.1-0.2-1.5-0.5s-0.5-0.8-0.5-1.5
		c0-0.7,0.2-1.2,0.7-1.5s1.3-0.5,2.3-0.6l1.1,0v-0.3c0-0.4-0.1-0.7-0.3-0.9s-0.5-0.3-0.9-0.3c-0.3,0-0.7,0-1,0.1s-0.6,0.2-0.9,0.3
		l-0.4-1c0.4-0.2,0.7-0.3,1.2-0.4s0.8-0.1,1.2-0.1c0.8,0,1.4,0.2,1.9,0.5s0.6,0.9,0.6,1.7v4.4H360.5z M358.4,178.7
		c0.5,0,0.9-0.1,1.2-0.4s0.5-0.7,0.5-1.2v-0.6l-0.8,0c-0.6,0-1.1,0.1-1.4,0.3s-0.4,0.5-0.4,0.9c0,0.3,0.1,0.5,0.3,0.7
		S358.1,178.7,358.4,178.7z"/>
	<path d="M369.1,179.7h-1.4v-4c0-0.5-0.1-0.9-0.3-1.1s-0.5-0.4-1-0.4c-0.6,0-1,0.2-1.3,0.5s-0.4,0.9-0.4,1.7v3.2h-1.4v-6.5h1.1
		l0.2,0.8h0.1c0.2-0.3,0.5-0.5,0.8-0.7s0.8-0.3,1.2-0.3c1.6,0,2.3,0.8,2.3,2.4V179.7z"/>
	<path d="M372.3,176.3l0.8-1l2-2.1h1.6L374,176l2.8,3.7h-1.6l-2.1-2.8l-0.8,0.6v2.2H371v-9.1h1.4v4.4L372.3,176.3L372.3,176.3z"/>
	<path d="M383.1,179.8c-0.8,0-1.4-0.3-1.9-0.9s-0.7-1.4-0.7-2.5c0-1.1,0.2-1.9,0.7-2.5s1.1-0.9,1.9-0.9c0.9,0,1.5,0.3,1.9,0.9h0.1
		c-0.1-0.5-0.1-0.8-0.1-1.1v-2.4h1.4v9.1h-1.1l-0.2-0.8h-0.1C384.6,179.5,384,179.8,383.1,179.8z M383.5,178.7c0.6,0,1-0.2,1.2-0.5
		s0.4-0.8,0.4-1.5v-0.2c0-0.8-0.1-1.4-0.4-1.7s-0.7-0.5-1.2-0.5c-0.5,0-0.9,0.2-1.1,0.6s-0.4,1-0.4,1.7c0,0.7,0.1,1.3,0.4,1.6
		S383,178.7,383.5,178.7z"/>
	<path d="M391.3,179.8c-1,0-1.8-0.3-2.4-0.9s-0.9-1.4-0.9-2.4c0-1.1,0.3-1.9,0.8-2.5s1.3-0.9,2.2-0.9c0.9,0,1.5,0.3,2,0.8
		s0.7,1.2,0.7,2.1v0.7h-4.3c0,0.6,0.2,1.1,0.5,1.5s0.8,0.5,1.4,0.5c0.4,0,0.7,0,1.1-0.1s0.7-0.2,1.1-0.4v1.1c-0.3,0.2-0.7,0.3-1,0.3
		S391.7,179.8,391.3,179.8z M391,174.1c-0.4,0-0.8,0.1-1.1,0.4s-0.4,0.7-0.5,1.2h2.9c0-0.5-0.1-0.9-0.4-1.2S391.5,174.1,391,174.1z"
		/>
	<path d="M397.8,178.7c0.3,0,0.7-0.1,1-0.2v1c-0.2,0.1-0.3,0.1-0.6,0.2s-0.5,0.1-0.7,0.1c-1.3,0-2-0.7-2-2.1v-3.5h-0.9v-0.6l0.9-0.5
		l0.5-1.4h0.8v1.4h1.8v1h-1.8v3.5c0,0.3,0.1,0.6,0.2,0.7S397.5,178.7,397.8,178.7z"/>
	<path d="M402.9,179.8c-1,0-1.8-0.3-2.4-0.9s-0.9-1.4-0.9-2.4c0-1.1,0.3-1.9,0.8-2.5s1.3-0.9,2.2-0.9c0.9,0,1.5,0.3,2,0.8
		s0.7,1.2,0.7,2.1v0.7h-4.3c0,0.6,0.2,1.1,0.5,1.5s0.8,0.5,1.4,0.5c0.4,0,0.7,0,1.1-0.1s0.7-0.2,1.1-0.4v1.1c-0.3,0.2-0.7,0.3-1,0.3
		S403.3,179.8,402.9,179.8z M402.6,174.1c-0.4,0-0.8,0.1-1.1,0.4s-0.4,0.7-0.5,1.2h2.9c0-0.5-0.1-0.9-0.4-1.2
		S403.1,174.1,402.6,174.1z"/>
	<path d="M409.6,179.8c-1,0-1.7-0.3-2.2-0.9s-0.8-1.4-0.8-2.5c0-1.1,0.3-1.9,0.8-2.5s1.3-0.9,2.3-0.9c0.7,0,1.3,0.1,1.8,0.4
		l-0.4,1.1c-0.6-0.2-1.1-0.3-1.4-0.3c-1.1,0-1.7,0.7-1.7,2.2c0,0.7,0.1,1.3,0.4,1.6s0.7,0.5,1.2,0.5c0.6,0,1.2-0.2,1.7-0.5v1.2
		c-0.2,0.1-0.5,0.2-0.8,0.3S410,179.8,409.6,179.8z"/>
	<path d="M415.3,178.7c0.3,0,0.7-0.1,1-0.2v1c-0.2,0.1-0.3,0.1-0.6,0.2s-0.5,0.1-0.7,0.1c-1.3,0-2-0.7-2-2.1v-3.5h-0.9v-0.6l0.9-0.5
		l0.5-1.4h0.8v1.4h1.8v1h-1.8v3.5c0,0.3,0.1,0.6,0.2,0.7S415.1,178.7,415.3,178.7z"/>
	<path d="M422,177.8c0,0.6-0.2,1.1-0.7,1.5s-1.1,0.5-2,0.5c-0.9,0-1.6-0.1-2.1-0.4v-1.2c0.8,0.4,1.5,0.5,2.1,0.5
		c0.8,0,1.3-0.3,1.3-0.8c0-0.2,0-0.3-0.1-0.4s-0.2-0.2-0.5-0.3s-0.5-0.3-0.9-0.4c-0.7-0.3-1.3-0.6-1.5-0.9s-0.4-0.7-0.4-1.1
		c0-0.6,0.2-1,0.7-1.3s1.1-0.5,1.8-0.5c0.8,0,1.5,0.2,2.2,0.5l-0.4,1c-0.7-0.3-1.3-0.4-1.8-0.4c-0.7,0-1.1,0.2-1.1,0.6
		c0,0.2,0.1,0.4,0.3,0.5s0.6,0.3,1.2,0.6c0.5,0.2,0.9,0.4,1.2,0.6s0.4,0.4,0.5,0.6S422,177.5,422,177.8z"/>
	<path d="M429,178.7c0.3,0,0.7-0.1,1-0.2v1c-0.2,0.1-0.3,0.1-0.6,0.2s-0.5,0.1-0.7,0.1c-1.3,0-2-0.7-2-2.1v-3.5h-0.9v-0.6l0.9-0.5
		l0.5-1.4h0.8v1.4h1.8v1h-1.8v3.5c0,0.3,0.1,0.6,0.2,0.7S428.7,178.7,429,178.7z"/>
	<path d="M437,179.7h-1.4v-4c0-0.5-0.1-0.9-0.3-1.1s-0.5-0.4-1-0.4c-0.6,0-1,0.2-1.3,0.5s-0.4,0.9-0.4,1.7v3.2h-1.4v-9.1h1.4v2.3
		c0,0.4,0,0.8-0.1,1.2h0.1c0.2-0.3,0.4-0.6,0.8-0.7s0.7-0.3,1.2-0.3c1.6,0,2.4,0.8,2.4,2.4V179.7z"/>
	<path d="M441.8,179.8c-1,0-1.8-0.3-2.4-0.9s-0.9-1.4-0.9-2.4c0-1.1,0.3-1.9,0.8-2.5s1.3-0.9,2.2-0.9c0.9,0,1.5,0.3,2,0.8
		s0.7,1.2,0.7,2.1v0.7H440c0,0.6,0.2,1.1,0.5,1.5s0.8,0.5,1.4,0.5c0.4,0,0.7,0,1.1-0.1s0.7-0.2,1.1-0.4v1.1c-0.3,0.2-0.7,0.3-1,0.3
		S442.2,179.8,441.8,179.8z M441.5,174.1c-0.4,0-0.8,0.1-1.1,0.4s-0.4,0.7-0.5,1.2h2.9c0-0.5-0.1-0.9-0.4-1.2S442,174.1,441.5,174.1
		z"/>
	<path d="M451.4,178.7c0.3,0,0.7-0.1,1-0.2v1c-0.2,0.1-0.3,0.1-0.6,0.2s-0.5,0.1-0.7,0.1c-1.3,0-2-0.7-2-2.1v-3.5h-0.9v-0.6l0.9-0.5
		l0.5-1.4h0.8v1.4h1.8v1h-1.8v3.5c0,0.3,0.1,0.6,0.2,0.7S451.1,178.7,451.4,178.7z"/>
	<path d="M457.7,179.7l-0.3-0.9h0c-0.3,0.4-0.6,0.7-0.9,0.8s-0.7,0.2-1.2,0.2c-0.6,0-1.1-0.2-1.5-0.5s-0.5-0.8-0.5-1.5
		c0-0.7,0.2-1.2,0.7-1.5s1.3-0.5,2.3-0.6l1.1,0v-0.3c0-0.4-0.1-0.7-0.3-0.9s-0.5-0.3-0.9-0.3c-0.3,0-0.7,0-1,0.1s-0.6,0.2-0.9,0.3
		l-0.4-1c0.4-0.2,0.7-0.3,1.2-0.4s0.8-0.1,1.2-0.1c0.8,0,1.4,0.2,1.9,0.5s0.6,0.9,0.6,1.7v4.4H457.7z M455.7,178.7
		c0.5,0,0.9-0.1,1.2-0.4s0.5-0.7,0.5-1.2v-0.6l-0.8,0c-0.6,0-1.1,0.1-1.4,0.3s-0.4,0.5-0.4,0.9c0,0.3,0.1,0.5,0.3,0.7
		S455.3,178.7,455.7,178.7z"/>
	<path d="M466.1,179.7h-1.4v-4c0-0.5-0.1-0.9-0.3-1.1s-0.5-0.4-0.9-0.4c-0.5,0-0.9,0.2-1.2,0.5s-0.4,0.9-0.4,1.7v3.2h-1.4v-6.5h1.1
		l0.2,0.8h0.1c0.2-0.3,0.4-0.5,0.8-0.7s0.7-0.3,1.1-0.3c1,0,1.7,0.3,2,1h0.1c0.2-0.3,0.5-0.6,0.8-0.8s0.7-0.3,1.2-0.3
		c0.8,0,1.3,0.2,1.7,0.6s0.5,1,0.5,1.8v4.2h-1.4v-4c0-0.5-0.1-0.9-0.3-1.1s-0.5-0.4-0.9-0.4c-0.5,0-0.9,0.2-1.2,0.5
		s-0.4,0.8-0.4,1.5V179.7z"/>
	<path d="M475.4,179.8c-0.8,0-1.5-0.3-1.9-0.9h-0.1c0.1,0.5,0.1,0.9,0.1,1v2.7h-1.4v-9.4h1.1c0,0.1,0.1,0.4,0.2,0.9h0.1
		c0.4-0.7,1.1-1,1.9-1c0.8,0,1.4,0.3,1.9,0.9s0.7,1.4,0.7,2.5s-0.2,1.9-0.7,2.5S476.2,179.8,475.4,179.8z M475.1,174.2
		c-0.5,0-0.9,0.2-1.2,0.5s-0.4,0.8-0.4,1.5v0.2c0,0.8,0.1,1.4,0.4,1.7s0.7,0.5,1.2,0.5c0.5,0,0.8-0.2,1.1-0.6s0.4-0.9,0.4-1.7
		c0-0.7-0.1-1.3-0.4-1.6S475.6,174.2,475.1,174.2z"/>
	<path d="M482.4,179.8c-1,0-1.8-0.3-2.4-0.9s-0.9-1.4-0.9-2.4c0-1.1,0.3-1.9,0.8-2.5s1.3-0.9,2.2-0.9c0.9,0,1.5,0.3,2,0.8
		s0.7,1.2,0.7,2.1v0.7h-4.3c0,0.6,0.2,1.1,0.5,1.5s0.8,0.5,1.4,0.5c0.4,0,0.7,0,1.1-0.1s0.7-0.2,1.1-0.4v1.1c-0.3,0.2-0.7,0.3-1,0.3
		S482.9,179.8,482.4,179.8z M482.2,174.1c-0.4,0-0.8,0.1-1.1,0.4s-0.4,0.7-0.5,1.2h2.9c0-0.5-0.1-0.9-0.4-1.2
		S482.6,174.1,482.2,174.1z"/>
	<path d="M489.8,173.1c0.3,0,0.5,0,0.7,0.1l-0.1,1.3c-0.2,0-0.4-0.1-0.6-0.1c-0.6,0-1,0.2-1.3,0.5s-0.5,0.8-0.5,1.4v3.4h-1.4v-6.5
		h1.1l0.2,1.1h0.1c0.2-0.4,0.5-0.7,0.8-0.9S489.4,173.1,489.8,173.1z"/>
	<path d="M491.6,171.5c0-0.2,0.1-0.4,0.2-0.6s0.3-0.2,0.6-0.2c0.2,0,0.4,0.1,0.6,0.2s0.2,0.3,0.2,0.6c0,0.2-0.1,0.4-0.2,0.6
		s-0.3,0.2-0.6,0.2c-0.3,0-0.4-0.1-0.6-0.2S491.6,171.7,491.6,171.5z M493.1,179.7h-1.4v-6.5h1.4V179.7z"/>
	<path d="M500.7,179.7h-1.4v-4c0-0.5-0.1-0.9-0.3-1.1s-0.5-0.4-1-0.4c-0.6,0-1,0.2-1.3,0.5s-0.4,0.9-0.4,1.7v3.2H495v-6.5h1.1
		l0.2,0.8h0.1c0.2-0.3,0.5-0.5,0.8-0.7s0.8-0.3,1.2-0.3c1.6,0,2.3,0.8,2.3,2.4V179.7z"/>
	<path d="M508.1,173.2v0.8l-1.1,0.2c0.1,0.1,0.2,0.3,0.3,0.5s0.1,0.4,0.1,0.6c0,0.7-0.2,1.2-0.7,1.6s-1.1,0.6-1.9,0.6
		c-0.2,0-0.4,0-0.6,0c-0.3,0.2-0.4,0.4-0.4,0.6c0,0.1,0.1,0.3,0.2,0.3s0.4,0.1,0.8,0.1h1.1c0.7,0,1.3,0.2,1.6,0.5s0.6,0.7,0.6,1.3
		c0,0.7-0.3,1.3-0.9,1.7s-1.5,0.6-2.6,0.6c-0.9,0-1.6-0.2-2-0.5s-0.7-0.8-0.7-1.3c0-0.4,0.1-0.7,0.4-1s0.6-0.5,1.1-0.6
		c-0.2-0.1-0.3-0.2-0.5-0.4s-0.2-0.4-0.2-0.5c0-0.2,0.1-0.4,0.2-0.6s0.3-0.3,0.6-0.5c-0.3-0.1-0.6-0.4-0.8-0.7s-0.3-0.7-0.3-1.1
		c0-0.7,0.2-1.2,0.7-1.6s1.1-0.6,1.9-0.6c0.2,0,0.4,0,0.6,0s0.4,0.1,0.5,0.1H508.1z M503,180.7c0,0.3,0.1,0.5,0.4,0.7
		s0.6,0.2,1.1,0.2c0.8,0,1.3-0.1,1.7-0.3s0.6-0.5,0.6-0.9c0-0.3-0.1-0.5-0.3-0.6s-0.6-0.2-1.1-0.2h-1c-0.4,0-0.7,0.1-0.9,0.3
		S503,180.4,503,180.7z M503.6,175.3c0,0.4,0.1,0.7,0.3,0.9s0.5,0.3,0.9,0.3c0.8,0,1.2-0.4,1.2-1.3c0-0.4-0.1-0.7-0.3-1
		s-0.5-0.3-0.9-0.3c-0.4,0-0.7,0.1-0.9,0.3S503.6,174.9,503.6,175.3z"/>
	<path d="M516.5,179.7l-0.3-0.9h0c-0.3,0.4-0.6,0.7-0.9,0.8s-0.7,0.2-1.2,0.2c-0.6,0-1.1-0.2-1.5-0.5s-0.5-0.8-0.5-1.5
		c0-0.7,0.2-1.2,0.7-1.5s1.3-0.5,2.3-0.6l1.1,0v-0.3c0-0.4-0.1-0.7-0.3-0.9s-0.5-0.3-0.9-0.3c-0.3,0-0.7,0-1,0.1s-0.6,0.2-0.9,0.3
		l-0.4-1c0.4-0.2,0.7-0.3,1.2-0.4s0.8-0.1,1.2-0.1c0.8,0,1.4,0.2,1.9,0.5s0.6,0.9,0.6,1.7v4.4H516.5z M514.4,178.7
		c0.5,0,0.9-0.1,1.2-0.4s0.5-0.7,0.5-1.2v-0.6l-0.8,0c-0.6,0-1.1,0.1-1.4,0.3s-0.4,0.5-0.4,0.9c0,0.3,0.1,0.5,0.3,0.7
		S514.1,178.7,514.4,178.7z"/>
	<path d="M525.1,179.7h-1.4v-4c0-0.5-0.1-0.9-0.3-1.1s-0.5-0.4-1-0.4c-0.6,0-1,0.2-1.3,0.5s-0.4,0.9-0.4,1.7v3.2h-1.4v-6.5h1.1
		l0.2,0.8h0.1c0.2-0.3,0.5-0.5,0.8-0.7s0.8-0.3,1.2-0.3c1.6,0,2.3,0.8,2.3,2.4V179.7z"/>
	<path d="M529.2,179.8c-0.8,0-1.4-0.3-1.9-0.9s-0.7-1.4-0.7-2.5c0-1.1,0.2-1.9,0.7-2.5s1.1-0.9,1.9-0.9c0.9,0,1.5,0.3,1.9,0.9h0.1
		c-0.1-0.5-0.1-0.8-0.1-1.1v-2.4h1.4v9.1h-1.1l-0.2-0.8h-0.1C530.7,179.5,530.1,179.8,529.2,179.8z M529.6,178.7
		c0.6,0,1-0.2,1.2-0.5s0.4-0.8,0.4-1.5v-0.2c0-0.8-0.1-1.4-0.4-1.7s-0.7-0.5-1.2-0.5c-0.5,0-0.9,0.2-1.1,0.6s-0.4,1-0.4,1.7
		c0,0.7,0.1,1.3,0.4,1.6S529.1,178.7,529.6,178.7z"/>
	<path d="M539.8,179.8c-0.8,0-1.4-0.3-1.9-0.9s-0.7-1.4-0.7-2.5c0-1.1,0.2-1.9,0.7-2.5s1.1-0.9,1.9-0.9c0.9,0,1.5,0.3,1.9,0.9h0.1
		c-0.1-0.5-0.1-0.8-0.1-1.1v-2.4h1.4v9.1H542l-0.2-0.8h-0.1C541.3,179.5,540.6,179.8,539.8,179.8z M540.2,178.7c0.6,0,1-0.2,1.2-0.5
		s0.4-0.8,0.4-1.5v-0.2c0-0.8-0.1-1.4-0.4-1.7s-0.7-0.5-1.2-0.5c-0.5,0-0.9,0.2-1.1,0.6s-0.4,1-0.4,1.7c0,0.7,0.1,1.3,0.4,1.6
		S539.7,178.7,540.2,178.7z"/>
	<path d="M550.8,176.4c0,1.1-0.3,1.9-0.8,2.5s-1.3,0.9-2.3,0.9c-0.6,0-1.1-0.1-1.6-0.4s-0.8-0.7-1.1-1.2s-0.4-1.1-0.4-1.8
		c0-1.1,0.3-1.9,0.8-2.5s1.3-0.9,2.3-0.9c0.9,0,1.7,0.3,2.2,0.9S550.8,175.4,550.8,176.4z M546.1,176.4c0,1.5,0.6,2.2,1.7,2.2
		c1.1,0,1.6-0.7,1.6-2.2c0-1.5-0.6-2.2-1.7-2.2c-0.6,0-1,0.2-1.3,0.6S546.1,175.7,546.1,176.4z"/>
	<path d="M555.2,179.8c-1,0-1.8-0.3-2.4-0.9s-0.9-1.4-0.9-2.4c0-1.1,0.3-1.9,0.8-2.5s1.3-0.9,2.2-0.9c0.9,0,1.5,0.3,2,0.8
		s0.7,1.2,0.7,2.1v0.7h-4.3c0,0.6,0.2,1.1,0.5,1.5s0.8,0.5,1.4,0.5c0.4,0,0.7,0,1.1-0.1s0.7-0.2,1.1-0.4v1.1c-0.3,0.2-0.7,0.3-1,0.3
		S555.7,179.8,555.2,179.8z M555,174.1c-0.4,0-0.8,0.1-1.1,0.4s-0.4,0.7-0.5,1.2h2.9c0-0.5-0.1-0.9-0.4-1.2S555.4,174.1,555,174.1z"
		/>
	<path d="M563.7,177.8c0,0.6-0.2,1.1-0.7,1.5s-1.1,0.5-2,0.5c-0.9,0-1.6-0.1-2.1-0.4v-1.2c0.8,0.4,1.5,0.5,2.1,0.5
		c0.8,0,1.3-0.3,1.3-0.8c0-0.2,0-0.3-0.1-0.4s-0.2-0.2-0.5-0.3s-0.5-0.3-0.9-0.4c-0.7-0.3-1.3-0.6-1.5-0.9s-0.4-0.7-0.4-1.1
		c0-0.6,0.2-1,0.7-1.3s1.1-0.5,1.8-0.5c0.8,0,1.5,0.2,2.2,0.5l-0.4,1c-0.7-0.3-1.3-0.4-1.8-0.4c-0.7,0-1.1,0.2-1.1,0.6
		c0,0.2,0.1,0.4,0.3,0.5s0.6,0.3,1.2,0.6c0.5,0.2,0.9,0.4,1.2,0.6s0.4,0.4,0.5,0.6S563.7,177.5,563.7,177.8z"/>
	<path d="M354.2,194.1h-1.4v-4c0-0.5-0.1-0.9-0.3-1.1s-0.5-0.4-1-0.4c-0.6,0-1,0.2-1.3,0.5s-0.4,0.9-0.4,1.7v3.2h-1.4v-6.5h1.1
		l0.2,0.8h0.1c0.2-0.3,0.5-0.5,0.8-0.7s0.8-0.3,1.2-0.3c1.6,0,2.3,0.8,2.3,2.4V194.1z"/>
	<path d="M361.8,190.8c0,1.1-0.3,1.9-0.8,2.5s-1.3,0.9-2.3,0.9c-0.6,0-1.1-0.1-1.6-0.4s-0.8-0.7-1.1-1.2s-0.4-1.1-0.4-1.8
		c0-1.1,0.3-1.9,0.8-2.5s1.3-0.9,2.3-0.9c0.9,0,1.7,0.3,2.2,0.9S361.8,189.8,361.8,190.8z M357.1,190.8c0,1.5,0.6,2.2,1.7,2.2
		c1.1,0,1.6-0.7,1.6-2.2c0-1.5-0.6-2.2-1.7-2.2c-0.6,0-1,0.2-1.3,0.6S357.1,190.1,357.1,190.8z"/>
	<path d="M365.8,193.1c0.3,0,0.7-0.1,1-0.2v1c-0.2,0.1-0.3,0.1-0.6,0.2s-0.5,0.1-0.7,0.1c-1.3,0-2-0.7-2-2.1v-3.5h-0.9V188l0.9-0.5
		l0.5-1.4h0.8v1.4h1.8v1h-1.8v3.5c0,0.3,0.1,0.6,0.2,0.7S365.6,193.1,365.8,193.1z"/>
	<path d="M374.6,194.2c-0.8,0-1.5-0.3-1.9-0.9h-0.1c0.1,0.5,0.1,0.9,0.1,1v2.7h-1.4v-9.4h1.1c0,0.1,0.1,0.4,0.2,0.9h0.1
		c0.4-0.7,1.1-1,1.9-1c0.8,0,1.4,0.3,1.9,0.9s0.7,1.4,0.7,2.5s-0.2,1.9-0.7,2.5S375.4,194.2,374.6,194.2z M374.2,188.6
		c-0.5,0-0.9,0.2-1.2,0.5s-0.4,0.8-0.4,1.5v0.2c0,0.8,0.1,1.4,0.4,1.7s0.7,0.5,1.2,0.5c0.5,0,0.8-0.2,1.1-0.6s0.4-0.9,0.4-1.7
		c0-0.7-0.1-1.3-0.4-1.6S374.7,188.6,374.2,188.6z"/>
	<path d="M382,187.5c0.3,0,0.5,0,0.7,0.1l-0.1,1.3c-0.2,0-0.4-0.1-0.6-0.1c-0.6,0-1,0.2-1.3,0.5s-0.5,0.8-0.5,1.4v3.4h-1.4v-6.5h1.1
		l0.2,1.1h0.1c0.2-0.4,0.5-0.7,0.8-0.9S381.6,187.5,382,187.5z"/>
	<path d="M389.7,190.8c0,1.1-0.3,1.9-0.8,2.5s-1.3,0.9-2.3,0.9c-0.6,0-1.1-0.1-1.6-0.4s-0.8-0.7-1.1-1.2s-0.4-1.1-0.4-1.8
		c0-1.1,0.3-1.9,0.8-2.5s1.3-0.9,2.3-0.9c0.9,0,1.7,0.3,2.2,0.9S389.7,189.8,389.7,190.8z M384.9,190.8c0,1.5,0.6,2.2,1.7,2.2
		c1.1,0,1.6-0.7,1.6-2.2c0-1.5-0.6-2.2-1.7-2.2c-0.6,0-1,0.2-1.3,0.6S384.9,190.1,384.9,190.8z"/>
	<path d="M393.9,194.2c-1,0-1.7-0.3-2.2-0.9s-0.8-1.4-0.8-2.5c0-1.1,0.3-1.9,0.8-2.5s1.3-0.9,2.3-0.9c0.7,0,1.3,0.1,1.8,0.4
		l-0.4,1.1c-0.6-0.2-1.1-0.3-1.4-0.3c-1.1,0-1.7,0.7-1.7,2.2c0,0.7,0.1,1.3,0.4,1.6s0.7,0.5,1.2,0.5c0.6,0,1.2-0.2,1.7-0.5v1.2
		c-0.2,0.1-0.5,0.2-0.8,0.3S394.3,194.2,393.9,194.2z"/>
	<path d="M400,194.2c-1,0-1.8-0.3-2.4-0.9s-0.9-1.4-0.9-2.4c0-1.1,0.3-1.9,0.8-2.5s1.3-0.9,2.2-0.9c0.9,0,1.5,0.3,2,0.8
		s0.7,1.2,0.7,2.1v0.7h-4.3c0,0.6,0.2,1.1,0.5,1.5s0.8,0.5,1.4,0.5c0.4,0,0.7,0,1.1-0.1s0.7-0.2,1.1-0.4v1.1c-0.3,0.2-0.7,0.3-1,0.3
		S400.5,194.2,400,194.2z M399.8,188.5c-0.4,0-0.8,0.1-1.1,0.4s-0.4,0.7-0.5,1.2h2.9c0-0.5-0.1-0.9-0.4-1.2S400.2,188.5,399.8,188.5
		z"/>
	<path d="M408.5,192.2c0,0.6-0.2,1.1-0.7,1.5s-1.1,0.5-2,0.5c-0.9,0-1.6-0.1-2.1-0.4v-1.2c0.8,0.4,1.5,0.5,2.1,0.5
		c0.8,0,1.3-0.3,1.3-0.8c0-0.2,0-0.3-0.1-0.4s-0.2-0.2-0.5-0.3s-0.5-0.3-0.9-0.4c-0.7-0.3-1.3-0.6-1.5-0.9s-0.4-0.7-0.4-1.1
		c0-0.6,0.2-1,0.7-1.3s1.1-0.5,1.8-0.5c0.8,0,1.5,0.2,2.2,0.5l-0.4,1c-0.7-0.3-1.3-0.4-1.8-0.4c-0.7,0-1.1,0.2-1.1,0.6
		c0,0.2,0.1,0.4,0.3,0.5s0.6,0.3,1.2,0.6c0.5,0.2,0.9,0.4,1.2,0.6s0.4,0.4,0.5,0.6S408.5,191.9,408.5,192.2z"/>
	<path d="M414.3,192.2c0,0.6-0.2,1.1-0.7,1.5s-1.1,0.5-2,0.5c-0.9,0-1.6-0.1-2.1-0.4v-1.2c0.8,0.4,1.5,0.5,2.1,0.5
		c0.8,0,1.3-0.3,1.3-0.8c0-0.2,0-0.3-0.1-0.4s-0.2-0.2-0.5-0.3s-0.5-0.3-0.9-0.4c-0.7-0.3-1.3-0.6-1.5-0.9s-0.4-0.7-0.4-1.1
		c0-0.6,0.2-1,0.7-1.3s1.1-0.5,1.8-0.5c0.8,0,1.5,0.2,2.2,0.5l-0.4,1c-0.7-0.3-1.3-0.4-1.8-0.4c-0.7,0-1.1,0.2-1.1,0.6
		c0,0.2,0.1,0.4,0.3,0.5s0.6,0.3,1.2,0.6c0.5,0.2,0.9,0.4,1.2,0.6s0.4,0.4,0.5,0.6S414.3,191.9,414.3,192.2z"/>
	<path d="M421.3,193.1c0.3,0,0.7-0.1,1-0.2v1c-0.2,0.1-0.3,0.1-0.6,0.2s-0.5,0.1-0.7,0.1c-1.3,0-2-0.7-2-2.1v-3.5h-0.9V188l0.9-0.5
		l0.5-1.4h0.8v1.4h1.8v1h-1.8v3.5c0,0.3,0.1,0.6,0.2,0.7S421,193.1,421.3,193.1z"/>
	<path d="M429.3,194.1h-1.4v-4c0-0.5-0.1-0.9-0.3-1.1s-0.5-0.4-1-0.4c-0.6,0-1,0.2-1.3,0.5s-0.4,0.9-0.4,1.7v3.2h-1.4V185h1.4v2.3
		c0,0.4,0,0.8-0.1,1.2h0.1c0.2-0.3,0.4-0.6,0.8-0.7s0.7-0.3,1.2-0.3c1.6,0,2.4,0.8,2.4,2.4V194.1z"/>
	<path d="M434.1,194.2c-1,0-1.8-0.3-2.4-0.9s-0.9-1.4-0.9-2.4c0-1.1,0.3-1.9,0.8-2.5s1.3-0.9,2.2-0.9c0.9,0,1.5,0.3,2,0.8
		s0.7,1.2,0.7,2.1v0.7h-4.3c0,0.6,0.2,1.1,0.5,1.5s0.8,0.5,1.4,0.5c0.4,0,0.7,0,1.1-0.1s0.7-0.2,1.1-0.4v1.1c-0.3,0.2-0.7,0.3-1,0.3
		S434.5,194.2,434.1,194.2z M433.8,188.5c-0.4,0-0.8,0.1-1.1,0.4s-0.4,0.7-0.5,1.2h2.9c0-0.5-0.1-0.9-0.4-1.2
		S434.3,188.5,433.8,188.5z"/>
	<path d="M444.5,188.6h-1.6v5.4h-1.4v-5.4h-1.1V188l1.1-0.4v-0.4c0-0.8,0.2-1.3,0.5-1.7s0.9-0.6,1.6-0.6c0.5,0,1,0.1,1.4,0.2l-0.4,1
		c-0.3-0.1-0.7-0.2-1-0.2c-0.3,0-0.5,0.1-0.7,0.3s-0.2,0.5-0.2,0.9v0.4h1.6V188.6z"/>
	<path d="M448.9,187.5c0.3,0,0.5,0,0.7,0.1l-0.1,1.3c-0.2,0-0.4-0.1-0.6-0.1c-0.6,0-1,0.2-1.3,0.5s-0.5,0.8-0.5,1.4v3.4h-1.4v-6.5
		h1.1l0.2,1.1h0.1c0.2-0.4,0.5-0.7,0.8-0.9S448.5,187.5,448.9,187.5z"/>
	<path d="M454.8,194.1l-0.3-0.9h0c-0.3,0.4-0.6,0.7-0.9,0.8s-0.7,0.2-1.2,0.2c-0.6,0-1.1-0.2-1.5-0.5s-0.5-0.8-0.5-1.5
		c0-0.7,0.2-1.2,0.7-1.5s1.3-0.5,2.3-0.6l1.1,0v-0.3c0-0.4-0.1-0.7-0.3-0.9s-0.5-0.3-0.9-0.3c-0.3,0-0.7,0-1,0.1s-0.6,0.2-0.9,0.3
		l-0.4-1c0.4-0.2,0.7-0.3,1.2-0.4s0.8-0.1,1.2-0.1c0.8,0,1.4,0.2,1.9,0.5s0.6,0.9,0.6,1.7v4.4H454.8z M452.8,193.1
		c0.5,0,0.9-0.1,1.2-0.4s0.5-0.7,0.5-1.2V191l-0.8,0c-0.6,0-1.1,0.1-1.4,0.3s-0.4,0.5-0.4,0.9c0,0.3,0.1,0.5,0.3,0.7
		S452.5,193.1,452.8,193.1z"/>
	<path d="M462.3,194.1l-0.2-0.8h-0.1c-0.2,0.3-0.5,0.5-0.8,0.7s-0.8,0.3-1.2,0.3c-0.8,0-1.4-0.2-1.8-0.6s-0.6-1-0.6-1.8v-4.2h1.4v4
		c0,0.5,0.1,0.9,0.3,1.1s0.5,0.4,1,0.4c0.6,0,1-0.2,1.3-0.5s0.4-0.9,0.4-1.7v-3.2h1.4v6.5H462.3z"/>
	<path d="M467.6,194.2c-0.8,0-1.4-0.3-1.9-0.9s-0.7-1.4-0.7-2.5c0-1.1,0.2-1.9,0.7-2.5s1.1-0.9,1.9-0.9c0.9,0,1.5,0.3,1.9,0.9h0.1
		c-0.1-0.5-0.1-0.8-0.1-1.1V185h1.4v9.1h-1.1l-0.2-0.8h-0.1C469.1,193.9,468.4,194.2,467.6,194.2z M467.9,193.1c0.6,0,1-0.2,1.2-0.5
		s0.4-0.8,0.4-1.5v-0.2c0-0.8-0.1-1.4-0.4-1.7s-0.7-0.5-1.2-0.5c-0.5,0-0.9,0.2-1.1,0.6s-0.4,1-0.4,1.7c0,0.7,0.1,1.3,0.4,1.6
		S467.4,193.1,467.9,193.1z"/>
	<path d="M477.4,194.1l-0.2-0.8h-0.1c-0.2,0.3-0.5,0.5-0.8,0.7s-0.8,0.3-1.2,0.3c-0.8,0-1.4-0.2-1.8-0.6s-0.6-1-0.6-1.8v-4.2h1.4v4
		c0,0.5,0.1,0.9,0.3,1.1s0.5,0.4,1,0.4c0.6,0,1-0.2,1.3-0.5s0.4-0.9,0.4-1.7v-3.2h1.4v6.5H477.4z"/>
	<path d="M481.8,194.1h-1.4V185h1.4V194.1z"/>
	<path d="M486.6,194.2c-1,0-1.8-0.3-2.4-0.9s-0.9-1.4-0.9-2.4c0-1.1,0.3-1.9,0.8-2.5s1.3-0.9,2.2-0.9c0.9,0,1.5,0.3,2,0.8
		s0.7,1.2,0.7,2.1v0.7h-4.3c0,0.6,0.2,1.1,0.5,1.5s0.8,0.5,1.4,0.5c0.4,0,0.7,0,1.1-0.1s0.7-0.2,1.1-0.4v1.1c-0.3,0.2-0.7,0.3-1,0.3
		S487.1,194.2,486.6,194.2z M486.4,188.5c-0.4,0-0.8,0.1-1.1,0.4s-0.4,0.7-0.5,1.2h2.9c0-0.5-0.1-0.9-0.4-1.2
		S486.8,188.5,486.4,188.5z"/>
	<path d="M496.4,194.1H495v-4c0-0.5-0.1-0.9-0.3-1.1s-0.5-0.4-1-0.4c-0.6,0-1,0.2-1.3,0.5s-0.4,0.9-0.4,1.7v3.2h-1.4v-6.5h1.1
		l0.2,0.8h0.1c0.2-0.3,0.5-0.5,0.8-0.7s0.8-0.3,1.2-0.3c1.6,0,2.3,0.8,2.3,2.4V194.1z"/>
	<path d="M500.8,193.1c0.3,0,0.7-0.1,1-0.2v1c-0.2,0.1-0.3,0.1-0.6,0.2s-0.5,0.1-0.7,0.1c-1.3,0-2-0.7-2-2.1v-3.5h-0.9V188l0.9-0.5
		l0.5-1.4h0.8v1.4h1.8v1h-1.8v3.5c0,0.3,0.1,0.6,0.2,0.7S500.5,193.1,500.8,193.1z"/>
	<path d="M508.6,193.1c0.3,0,0.7-0.1,1-0.2v1c-0.2,0.1-0.3,0.1-0.6,0.2s-0.5,0.1-0.7,0.1c-1.3,0-2-0.7-2-2.1v-3.5h-0.9V188l0.9-0.5
		l0.5-1.4h0.8v1.4h1.8v1h-1.8v3.5c0,0.3,0.1,0.6,0.2,0.7S508.3,193.1,508.6,193.1z"/>
	<path d="M514.2,187.5c0.3,0,0.5,0,0.7,0.1l-0.1,1.3c-0.2,0-0.4-0.1-0.6-0.1c-0.6,0-1,0.2-1.3,0.5s-0.5,0.8-0.5,1.4v3.4h-1.4v-6.5
		h1.1l0.2,1.1h0.1c0.2-0.4,0.5-0.7,0.8-0.9S513.8,187.5,514.2,187.5z"/>
	<path d="M520.1,194.1l-0.3-0.9h0c-0.3,0.4-0.6,0.7-0.9,0.8s-0.7,0.2-1.2,0.2c-0.6,0-1.1-0.2-1.5-0.5s-0.5-0.8-0.5-1.5
		c0-0.7,0.2-1.2,0.7-1.5s1.3-0.5,2.3-0.6l1.1,0v-0.3c0-0.4-0.1-0.7-0.3-0.9s-0.5-0.3-0.9-0.3c-0.3,0-0.7,0-1,0.1s-0.6,0.2-0.9,0.3
		l-0.4-1c0.4-0.2,0.7-0.3,1.2-0.4s0.8-0.1,1.2-0.1c0.8,0,1.4,0.2,1.9,0.5s0.6,0.9,0.6,1.7v4.4H520.1z M518.1,193.1
		c0.5,0,0.9-0.1,1.2-0.4s0.5-0.7,0.5-1.2V191l-0.8,0c-0.6,0-1.1,0.1-1.4,0.3s-0.4,0.5-0.4,0.9c0,0.3,0.1,0.5,0.3,0.7
		S517.7,193.1,518.1,193.1z"/>
	<path d="M528.7,194.1h-1.4v-4c0-0.5-0.1-0.9-0.3-1.1s-0.5-0.4-1-0.4c-0.6,0-1,0.2-1.3,0.5s-0.4,0.9-0.4,1.7v3.2H523v-6.5h1.1
		l0.2,0.8h0.1c0.2-0.3,0.5-0.5,0.8-0.7s0.8-0.3,1.2-0.3c1.6,0,2.3,0.8,2.3,2.4V194.1z"/>
	<path d="M535,192.2c0,0.6-0.2,1.1-0.7,1.5s-1.1,0.5-2,0.5c-0.9,0-1.6-0.1-2.1-0.4v-1.2c0.8,0.4,1.5,0.5,2.1,0.5
		c0.8,0,1.3-0.3,1.3-0.8c0-0.2,0-0.3-0.1-0.4s-0.2-0.2-0.5-0.3s-0.5-0.3-0.9-0.4c-0.7-0.3-1.3-0.6-1.5-0.9s-0.4-0.7-0.4-1.1
		c0-0.6,0.2-1,0.7-1.3s1.1-0.5,1.8-0.5c0.8,0,1.5,0.2,2.2,0.5l-0.4,1c-0.7-0.3-1.3-0.4-1.8-0.4c-0.7,0-1.1,0.2-1.1,0.6
		c0,0.2,0.1,0.4,0.3,0.5s0.6,0.3,1.2,0.6c0.5,0.2,0.9,0.4,1.2,0.6s0.4,0.4,0.5,0.6S535,191.9,535,192.2z"/>
	<path d="M540.5,194.1l-0.3-0.9h0c-0.3,0.4-0.6,0.7-0.9,0.8s-0.7,0.2-1.2,0.2c-0.6,0-1.1-0.2-1.5-0.5s-0.5-0.8-0.5-1.5
		c0-0.7,0.2-1.2,0.7-1.5s1.3-0.5,2.3-0.6l1.1,0v-0.3c0-0.4-0.1-0.7-0.3-0.9s-0.5-0.3-0.9-0.3c-0.3,0-0.7,0-1,0.1s-0.6,0.2-0.9,0.3
		l-0.4-1c0.4-0.2,0.7-0.3,1.2-0.4s0.8-0.1,1.2-0.1c0.8,0,1.4,0.2,1.9,0.5s0.6,0.9,0.6,1.7v4.4H540.5z M538.5,193.1
		c0.5,0,0.9-0.1,1.2-0.4s0.5-0.7,0.5-1.2V191l-0.8,0c-0.6,0-1.1,0.1-1.4,0.3s-0.4,0.5-0.4,0.9c0,0.3,0.1,0.5,0.3,0.7
		S538.1,193.1,538.5,193.1z"/>
	<path d="M546.1,194.2c-1,0-1.7-0.3-2.2-0.9s-0.8-1.4-0.8-2.5c0-1.1,0.3-1.9,0.8-2.5s1.3-0.9,2.3-0.9c0.7,0,1.3,0.1,1.8,0.4
		l-0.4,1.1c-0.6-0.2-1.1-0.3-1.4-0.3c-1.1,0-1.7,0.7-1.7,2.2c0,0.7,0.1,1.3,0.4,1.6s0.7,0.5,1.2,0.5c0.6,0,1.2-0.2,1.7-0.5v1.2
		c-0.2,0.1-0.5,0.2-0.8,0.3S546.5,194.2,546.1,194.2z"/>
	<path d="M551.8,193.1c0.3,0,0.7-0.1,1-0.2v1c-0.2,0.1-0.3,0.1-0.6,0.2s-0.5,0.1-0.7,0.1c-1.3,0-2-0.7-2-2.1v-3.5h-0.9V188l0.9-0.5
		l0.5-1.4h0.8v1.4h1.8v1h-1.8v3.5c0,0.3,0.1,0.6,0.2,0.7S551.5,193.1,551.8,193.1z"/>
	<path d="M554,185.9c0-0.2,0.1-0.4,0.2-0.6s0.3-0.2,0.6-0.2c0.2,0,0.4,0.1,0.6,0.2s0.2,0.3,0.2,0.6c0,0.2-0.1,0.4-0.2,0.6
		s-0.3,0.2-0.6,0.2c-0.3,0-0.4-0.1-0.6-0.2S554,186.1,554,185.9z M555.5,194.1h-1.4v-6.5h1.4V194.1z"/>
	<path d="M563.2,190.8c0,1.1-0.3,1.9-0.8,2.5s-1.3,0.9-2.3,0.9c-0.6,0-1.1-0.1-1.6-0.4s-0.8-0.7-1.1-1.2s-0.4-1.1-0.4-1.8
		c0-1.1,0.3-1.9,0.8-2.5s1.3-0.9,2.3-0.9c0.9,0,1.7,0.3,2.2,0.9S563.2,189.8,563.2,190.8z M558.5,190.8c0,1.5,0.6,2.2,1.7,2.2
		c1.1,0,1.6-0.7,1.6-2.2c0-1.5-0.6-2.2-1.7-2.2c-0.6,0-1,0.2-1.3,0.6S558.5,190.1,558.5,190.8z"/>
	<path d="M570.5,194.1h-1.4v-4c0-0.5-0.1-0.9-0.3-1.1s-0.5-0.4-1-0.4c-0.6,0-1,0.2-1.3,0.5s-0.4,0.9-0.4,1.7v3.2h-1.4v-6.5h1.1
		l0.2,0.8h0.1c0.2-0.3,0.5-0.5,0.8-0.7s0.8-0.3,1.2-0.3c1.6,0,2.3,0.8,2.3,2.4V194.1z"/>
	<path d="M572.2,193.3c0-0.3,0.1-0.5,0.2-0.7s0.4-0.2,0.6-0.2c0.3,0,0.5,0.1,0.7,0.2s0.2,0.4,0.2,0.6c0,0.3-0.1,0.5-0.2,0.7
		s-0.4,0.2-0.6,0.2s-0.5-0.1-0.6-0.2S572.2,193.6,572.2,193.3z"/>
</g>
<g>
	<path class="st5" d="M318.3,62.6c0,0.8-0.3,1.4-0.8,1.8s-1.3,0.7-2.3,0.7s-1.8-0.2-2.4-0.5v-1.3c0.4,0.2,0.8,0.3,1.2,0.4
		s0.8,0.2,1.2,0.2c0.6,0,1-0.1,1.2-0.3s0.4-0.5,0.4-0.8c0-0.3-0.1-0.6-0.4-0.8s-0.7-0.5-1.5-0.8c-0.8-0.3-1.3-0.7-1.7-1.1
		s-0.5-0.9-0.5-1.5c0-0.7,0.3-1.3,0.8-1.7s1.2-0.6,2-0.6c0.8,0,1.6,0.2,2.4,0.5l-0.4,1.1c-0.8-0.3-1.4-0.5-2-0.5
		c-0.5,0-0.8,0.1-1,0.3s-0.4,0.5-0.4,0.8c0,0.2,0,0.4,0.1,0.6s0.2,0.3,0.5,0.4s0.6,0.3,1.2,0.6c0.6,0.3,1.1,0.5,1.4,0.7
		s0.5,0.5,0.6,0.8S318.3,62.2,318.3,62.6z"/>
	<path class="st5" d="M322.6,65c-1,0-1.8-0.3-2.4-0.9s-0.9-1.4-0.9-2.4c0-1.1,0.3-1.9,0.8-2.5s1.3-0.9,2.2-0.9c0.9,0,1.5,0.3,2,0.8
		s0.7,1.2,0.7,2.1V62h-4.3c0,0.6,0.2,1.1,0.5,1.5s0.8,0.5,1.4,0.5c0.4,0,0.7,0,1.1-0.1s0.7-0.2,1.1-0.4v1.1c-0.3,0.2-0.7,0.3-1,0.3
		S323,65,322.6,65z M322.3,59.4c-0.4,0-0.8,0.1-1.1,0.4s-0.4,0.7-0.5,1.2h2.9c0-0.5-0.1-0.9-0.4-1.2S322.8,59.4,322.3,59.4z"/>
	<path class="st5" d="M332.4,64.9H331v-4c0-0.5-0.1-0.9-0.3-1.1s-0.5-0.4-1-0.4c-0.6,0-1,0.2-1.3,0.5s-0.4,0.9-0.4,1.7v3.2h-1.4
		v-6.5h1.1l0.2,0.8h0.1c0.2-0.3,0.5-0.5,0.8-0.7s0.8-0.3,1.2-0.3c1.6,0,2.3,0.8,2.3,2.4V64.9z"/>
	<path class="st5" d="M336.5,65c-0.8,0-1.4-0.3-1.9-0.9s-0.7-1.4-0.7-2.5c0-1.1,0.2-1.9,0.7-2.5s1.1-0.9,1.9-0.9
		c0.9,0,1.5,0.3,1.9,0.9h0.1c-0.1-0.5-0.1-0.8-0.1-1.1v-2.4h1.4v9.1h-1.1l-0.2-0.8h-0.1C338,64.7,337.3,65,336.5,65z M336.9,63.9
		c0.6,0,1-0.2,1.2-0.5s0.4-0.8,0.4-1.5v-0.2c0-0.8-0.1-1.4-0.4-1.7s-0.7-0.5-1.2-0.5c-0.5,0-0.9,0.2-1.1,0.6s-0.4,1-0.4,1.7
		c0,0.7,0.1,1.3,0.4,1.6S336.3,63.9,336.9,63.9z"/>
	<path class="st5" d="M350.1,62.3c0,0.6-0.2,1-0.6,1.4s-1,0.6-1.8,0.7v1.3h-0.8v-1.2c-1,0-1.8-0.2-2.4-0.4v-1.2
		c0.3,0.2,0.7,0.3,1.2,0.4s0.9,0.2,1.2,0.2v-2.2l-0.5-0.2c-0.6-0.2-1.1-0.5-1.4-0.9s-0.4-0.8-0.4-1.3c0-0.5,0.2-1,0.6-1.3
		s1-0.6,1.7-0.6v-1h0.8v1c0.8,0,1.5,0.2,2.3,0.5l-0.4,1.1c-0.6-0.2-1.2-0.4-1.8-0.4V60l0.4,0.2c0.7,0.3,1.3,0.6,1.5,0.9
		S350.1,61.8,350.1,62.3z M346,58.7c0,0.2,0.1,0.4,0.2,0.6s0.4,0.3,0.8,0.4v-1.8c-0.3,0-0.6,0.1-0.7,0.3S346,58.5,346,58.7z
		 M348.8,62.3c0-0.2-0.1-0.4-0.2-0.6s-0.4-0.3-0.8-0.4v1.9C348.4,63.1,348.8,62.8,348.8,62.3z"/>
	<path class="st5" d="M355.3,64.9h-1.4v-5.5c0-0.7,0-1.2,0-1.6c-0.1,0.1-0.2,0.2-0.3,0.3s-0.6,0.5-1.3,1.1l-0.7-0.9l2.5-2h1.1V64.9z
		"/>
	<path class="st5" d="M363.9,60.6c0,1.5-0.2,2.6-0.7,3.3S362,65,361,65c-1,0-1.7-0.4-2.2-1.1s-0.7-1.8-0.7-3.3
		c0-1.5,0.2-2.6,0.7-3.3s1.2-1.1,2.2-1.1c1,0,1.7,0.4,2.2,1.1S363.9,59.2,363.9,60.6z M359.5,60.6c0,1.2,0.1,2,0.4,2.5
		s0.6,0.8,1.2,0.8s0.9-0.3,1.2-0.8s0.4-1.3,0.4-2.5c0-1.1-0.1-2-0.4-2.5s-0.6-0.8-1.2-0.8s-0.9,0.3-1.2,0.8S359.5,59.5,359.5,60.6z"
		/>
	<path class="st5" d="M370.8,60.6c0,1.5-0.2,2.6-0.7,3.3s-1.2,1.1-2.2,1.1c-1,0-1.7-0.4-2.2-1.1s-0.7-1.8-0.7-3.3
		c0-1.5,0.2-2.6,0.7-3.3s1.2-1.1,2.2-1.1c1,0,1.7,0.4,2.2,1.1S370.8,59.2,370.8,60.6z M366.4,60.6c0,1.2,0.1,2,0.4,2.5
		s0.6,0.8,1.2,0.8s0.9-0.3,1.2-0.8s0.4-1.3,0.4-2.5c0-1.1-0.1-2-0.4-2.5s-0.6-0.8-1.2-0.8s-0.9,0.3-1.2,0.8S366.4,59.5,366.4,60.6z"
		/>
	<path class="st5" d="M377.8,63.9c0.3,0,0.7-0.1,1-0.2v1c-0.2,0.1-0.3,0.1-0.6,0.2s-0.5,0.1-0.7,0.1c-1.3,0-2-0.7-2-2.1v-3.5h-0.9
		v-0.6l0.9-0.5l0.5-1.4h0.8v1.4h1.8v1h-1.8v3.5c0,0.3,0.1,0.6,0.2,0.7S377.6,63.9,377.8,63.9z"/>
	<path class="st5" d="M385.9,61.7c0,1.1-0.3,1.9-0.8,2.5s-1.3,0.9-2.3,0.9c-0.6,0-1.1-0.1-1.6-0.4s-0.8-0.7-1.1-1.2
		s-0.4-1.1-0.4-1.8c0-1.1,0.3-1.9,0.8-2.5s1.3-0.9,2.3-0.9c0.9,0,1.7,0.3,2.2,0.9S385.9,60.6,385.9,61.7z M381.2,61.7
		c0,1.5,0.6,2.2,1.7,2.2c1.1,0,1.6-0.7,1.6-2.2c0-1.5-0.6-2.2-1.7-2.2c-0.6,0-1,0.2-1.3,0.6S381.2,60.9,381.2,61.7z"/>
	<path class="st5" d="M395.6,64.9h-4.8v-8.6h4.8v1.2h-3.4v2.3h3.2V61h-3.2v2.7h3.4V64.9z"/>
	<path class="st5" d="M398.7,64.9l-2.5-6.5h1.5l1.3,3.8c0.2,0.6,0.4,1.1,0.4,1.5h0c0-0.3,0.2-0.8,0.4-1.5l1.3-3.8h1.5l-2.5,6.5
		H398.7z"/>
	<path class="st5" d="M406.5,65c-1,0-1.8-0.3-2.4-0.9s-0.9-1.4-0.9-2.4c0-1.1,0.3-1.9,0.8-2.5s1.3-0.9,2.2-0.9c0.9,0,1.5,0.3,2,0.8
		s0.7,1.2,0.7,2.1V62h-4.3c0,0.6,0.2,1.1,0.5,1.5s0.8,0.5,1.4,0.5c0.4,0,0.7,0,1.1-0.1s0.7-0.2,1.1-0.4v1.1c-0.3,0.2-0.7,0.3-1,0.3
		S407,65,406.5,65z M406.3,59.4c-0.4,0-0.8,0.1-1.1,0.4s-0.4,0.7-0.5,1.2h2.9c0-0.5-0.1-0.9-0.4-1.2S406.7,59.4,406.3,59.4z"/>
	<path class="st5" d="M418.9,60.6h0.7l-1.5,4.3h-0.7l-1.5-4.3h0.7l0.9,2.7c0,0.1,0.1,0.3,0.1,0.5s0.1,0.3,0.1,0.4
		c0-0.1,0.1-0.3,0.1-0.5s0.1-0.3,0.1-0.4L418.9,60.6z"/>
	<path class="st5" d="M421.5,65c-0.5,0-0.9-0.1-1.2-0.4s-0.4-0.7-0.4-1.2c0-0.5,0.1-0.9,0.4-1.2s0.6-0.5,1.1-0.5
		c0.4,0,0.8,0.1,1,0.4s0.4,0.6,0.4,1.1v0.4h-2.2c0,0.3,0.1,0.6,0.3,0.7s0.4,0.3,0.7,0.3c0.2,0,0.4,0,0.5-0.1s0.3-0.1,0.5-0.2v0.6
		c-0.2,0.1-0.3,0.1-0.5,0.2S421.7,65,421.5,65z M421.4,62.1c-0.2,0-0.4,0.1-0.5,0.2s-0.2,0.3-0.2,0.6h1.5c0-0.3-0.1-0.5-0.2-0.6
		S421.6,62.1,421.4,62.1z"/>
	<path class="st5" d="M425.2,61.6c0.1,0,0.3,0,0.3,0l-0.1,0.6c-0.1,0-0.2,0-0.3,0c-0.3,0-0.5,0.1-0.7,0.3s-0.3,0.4-0.3,0.7v1.7h-0.7
		v-3.2h0.5l0.1,0.6h0c0.1-0.2,0.2-0.3,0.4-0.5S425,61.6,425.2,61.6z"/>
	<path class="st5" d="M426.1,60.8c0-0.1,0-0.2,0.1-0.3s0.2-0.1,0.3-0.1c0.1,0,0.2,0,0.3,0.1s0.1,0.2,0.1,0.3c0,0.1,0,0.2-0.1,0.3
		s-0.2,0.1-0.3,0.1c-0.1,0-0.2,0-0.3-0.1S426.1,60.9,426.1,60.8z M426.8,64.9h-0.7v-3.2h0.7V64.9z"/>
	<path class="st5" d="M429.4,62.2h-0.8v2.7h-0.7v-2.7h-0.5v-0.3l0.5-0.2v-0.2c0-0.4,0.1-0.7,0.3-0.9s0.5-0.3,0.8-0.3
		c0.2,0,0.5,0,0.7,0.1l-0.2,0.5c-0.2-0.1-0.3-0.1-0.5-0.1c-0.2,0-0.3,0-0.3,0.1s-0.1,0.2-0.1,0.4v0.2h0.8V62.2z"/>
	<path class="st5" d="M429.5,61.7h0.8l0.7,1.8c0.1,0.3,0.2,0.5,0.2,0.7h0c0-0.1,0-0.2,0.1-0.4s0.3-0.9,0.7-2.2h0.7l-1.4,3.7
		c-0.3,0.7-0.7,1-1.3,1c-0.2,0-0.3,0-0.4,0v-0.5c0.1,0,0.2,0,0.4,0c0.3,0,0.6-0.2,0.7-0.6l0.1-0.3L429.5,61.7z"/>
	<path class="st5" d="M438,64.9h-0.8l-1.1-1.8l-1.1,1.8h-0.8l1.4-2.2l-1.3-2.1h0.8l1,1.6l1-1.6h0.8l-1.3,2.1L438,64.9z"/>
	<path class="st5" d="M439.8,62.6l1-2h0.8l-1.4,2.6v1.7h-0.7v-1.6l-1.4-2.6h0.8L439.8,62.6z"/>
	<path class="st5" d="M444.8,64.9h-3.1v-0.5l2.2-3.2h-2.1v-0.6h2.9v0.5l-2.2,3.2h2.2V64.9z"/>
	<path class="st5" d="M447.3,64.9h-0.7v-2.8c0-0.3,0-0.6,0-0.8c0,0-0.1,0.1-0.2,0.2s-0.3,0.2-0.7,0.5l-0.3-0.4l1.3-1h0.6V64.9z"/>
	<path class="st5" d="M451.6,64.9h-2.9v-0.5l1.1-1.1c0.3-0.3,0.5-0.6,0.6-0.7s0.2-0.3,0.2-0.4s0.1-0.3,0.1-0.4
		c0-0.2-0.1-0.3-0.2-0.5s-0.3-0.2-0.5-0.2c-0.2,0-0.3,0-0.5,0.1s-0.3,0.2-0.5,0.3l-0.4-0.5c0.2-0.2,0.5-0.3,0.7-0.4s0.5-0.1,0.7-0.1
		c0.4,0,0.7,0.1,1,0.3s0.4,0.5,0.4,0.8c0,0.2,0,0.4-0.1,0.6c-0.1,0.2-0.2,0.4-0.3,0.5s-0.4,0.4-0.7,0.7l-0.7,0.7v0h2V64.9z"/>
	<path class="st5" d="M454.8,61.6c0,0.3-0.1,0.5-0.2,0.7s-0.4,0.3-0.7,0.4v0c0.3,0,0.6,0.1,0.8,0.3s0.3,0.4,0.3,0.7
		c0,0.4-0.1,0.7-0.4,1s-0.7,0.3-1.2,0.3c-0.5,0-0.9-0.1-1.2-0.2v-0.6c0.2,0.1,0.4,0.2,0.6,0.2s0.4,0.1,0.6,0.1
		c0.3,0,0.6-0.1,0.7-0.2s0.2-0.3,0.2-0.6c0-0.2-0.1-0.4-0.3-0.5s-0.5-0.2-0.9-0.2h-0.4v-0.6h0.4c0.7,0,1-0.2,1-0.7
		c0-0.2-0.1-0.3-0.2-0.4s-0.3-0.1-0.5-0.1c-0.2,0-0.3,0-0.5,0.1s-0.3,0.1-0.5,0.3l-0.3-0.5c0.4-0.3,0.8-0.4,1.4-0.4
		c0.4,0,0.8,0.1,1,0.3S454.8,61.3,454.8,61.6z"/>
</g>
</svg>
