<?xml version="1.0" encoding="utf-8"?>
<!-- Generator: Adobe Illustrator 19.2.0, SVG Export Plug-In . SVG Version: 6.00 Build 0)  -->
<svg version="1.1" id="Layer_1" xmlns="http://www.w3.org/2000/svg" xmlns:xlink="http://www.w3.org/1999/xlink" x="0px" y="0px"
	 viewBox="0 0 600 400" style="enable-background:new 0 0 600 400;" xml:space="preserve">
<style type="text/css">
	.st0{fill:#FFFFFF;}
</style>
<g>
	<g>
		<ellipse class="st0" cx="300" cy="200" rx="278.7" ry="187.7"/>
		<path d="M300,391.7c-75.2,0-146-19.8-199.3-55.6c-53.8-36.2-83.4-84.5-83.4-136c0-51.5,29.6-99.8,83.4-136
			C154,28.1,224.8,8.3,300,8.3S446,28.1,499.3,64c53.8,36.2,83.4,84.5,83.4,136c0,51.5-29.6,99.8-83.4,136
			C446,371.9,375.2,391.7,300,391.7z M300,16.3C148.5,16.3,25.3,98.7,25.3,200c0,101.3,123.2,183.7,274.7,183.7
			S574.7,301.3,574.7,200C574.7,98.7,451.5,16.3,300,16.3z"/>
	</g>
	<g>
		<path d="M231.3,196.5v13.7h-5.6v-34.3h9.7c4.4,0,7.7,0.8,9.8,2.5s3.2,4.2,3.2,7.5c0,4.3-2.2,7.3-6.7,9.1l9.7,15.2H245l-8.2-13.7
			H231.3z M231.3,191.9h3.9c2.6,0,4.5-0.5,5.7-1.5s1.8-2.4,1.8-4.3c0-1.9-0.6-3.3-1.9-4.2s-3.2-1.3-5.7-1.3h-3.7V191.9z"/>
		<path d="M278.8,197.2c0,4.2-1.1,7.5-3.3,9.9s-5.2,3.6-9.1,3.6c-2.4,0-4.6-0.5-6.4-1.6s-3.3-2.7-4.3-4.7s-1.5-4.4-1.5-7.1
			c0-4.2,1.1-7.5,3.2-9.8s5.2-3.5,9.1-3.5c3.8,0,6.7,1.2,8.9,3.6S278.8,193.1,278.8,197.2z M259.9,197.2c0,6,2.2,9,6.6,9
			c4.4,0,6.6-3,6.6-9c0-5.9-2.2-8.9-6.6-8.9c-2.3,0-4,0.8-5,2.3S259.9,194.3,259.9,197.2z"/>
		<path d="M303.4,210.2l-0.8-3.4h-0.3c-0.8,1.2-1.9,2.1-3.3,2.8s-3,1-4.8,1c-3.1,0-5.5-0.8-7-2.3s-2.3-3.9-2.3-7.1v-16.9h5.6v16
			c0,2,0.4,3.5,1.2,4.5s2.1,1.5,3.8,1.5c2.3,0,4-0.7,5.1-2.1s1.6-3.7,1.6-6.9v-12.9h5.5v25.9H303.4z"/>
		<path d="M325.2,206.2c1.3,0,2.7-0.2,4-0.6v4.1c-0.6,0.3-1.4,0.5-2.4,0.7s-2,0.3-3,0.3c-5.2,0-7.8-2.8-7.8-8.3v-14h-3.5V186l3.8-2
			l1.9-5.5h3.4v5.8h7.4v4.2h-7.4v13.9c0,1.3,0.3,2.3,1,2.9S324.1,206.2,325.2,206.2z"/>
		<path d="M345.8,210.7c-4,0-7.2-1.2-9.5-3.5s-3.4-5.6-3.4-9.7c0-4.2,1.1-7.6,3.2-10s5-3.6,8.7-3.6c3.4,0,6.1,1,8.1,3.1s3,4.9,3,8.6
			v3h-17.3c0.1,2.5,0.8,4.4,2,5.8s3.1,2,5.4,2c1.5,0,3-0.1,4.3-0.4s2.7-0.8,4.3-1.4v4.5c-1.3,0.6-2.7,1.1-4.1,1.4
			S347.5,210.7,345.8,210.7z M344.7,188c-1.8,0-3.2,0.6-4.2,1.7s-1.7,2.7-1.9,4.9h11.8c0-2.1-0.5-3.8-1.5-4.9S346.5,188,344.7,188z"
			/>
		<path d="M375.2,183.8c1.1,0,2,0.1,2.7,0.2l-0.5,5.1c-0.8-0.2-1.6-0.3-2.4-0.3c-2.2,0-4,0.7-5.4,2.2s-2.1,3.3-2.1,5.6v13.5h-5.5
			v-25.9h4.3l0.7,4.6h0.3c0.9-1.5,2-2.8,3.4-3.7S373.6,183.8,375.2,183.8z"/>
	</g>
	<g>
		<g>
			<g>
				<g>
					<path class="st0" d="M204,121.4h-65.3c-6.1,0-11-4.9-11-11v-28c0-6.1,4.9-11,11-11H204c6.1,0,11,4.9,11,11v28
						C215,116.4,210.1,121.4,204,121.4z"/>
					<path d="M204,122.4h-65.3c-6.6,0-12-5.4-12-12v-28c0-6.6,5.4-12,12-12H204c6.6,0,12,5.4,12,12v28
						C216,117,210.6,122.4,204,122.4z M138.7,72.4c-5.5,0-10,4.5-10,10v28c0,5.5,4.5,10,10,10H204c5.5,0,10-4.5,10-10v-28
						c0-5.5-4.5-10-10-10H138.7z"/>
				</g>
				<g>
					<path d="M155.6,93.4c0,1.3-0.4,2.4-1.3,3.1s-2.1,1.1-3.8,1.1h-1.3v4.8h-2.1V89.5h3.7c1.6,0,2.8,0.3,3.6,1
						S155.6,92.1,155.6,93.4z M149.2,95.8h1.1c1.1,0,1.9-0.2,2.4-0.6s0.8-1,0.8-1.8c0-0.7-0.2-1.3-0.7-1.7s-1.2-0.5-2.1-0.5h-1.5
						V95.8z"/>
					<path d="M166.6,97.5c0,1.6-0.4,2.8-1.2,3.7s-1.9,1.3-3.4,1.3c-0.9,0-1.7-0.2-2.4-0.6s-1.2-1-1.6-1.8s-0.6-1.7-0.6-2.7
						c0-1.6,0.4-2.8,1.2-3.7s1.9-1.3,3.4-1.3c1.4,0,2.5,0.5,3.3,1.4S166.6,96,166.6,97.5z M159.5,97.5c0,2.2,0.8,3.4,2.5,3.4
						c1.6,0,2.5-1.1,2.5-3.4c0-2.2-0.8-3.3-2.5-3.3c-0.9,0-1.5,0.3-1.9,0.9S159.5,96.4,159.5,97.5z"/>
					<path d="M173.9,92.5c0.4,0,0.8,0,1,0.1l-0.2,1.9c-0.3-0.1-0.6-0.1-0.9-0.1c-0.8,0-1.5,0.3-2,0.8s-0.8,1.2-0.8,2.1v5.1H169v-9.7
						h1.6l0.3,1.7h0.1c0.3-0.6,0.7-1,1.3-1.4S173.3,92.5,173.9,92.5z"/>
					<path d="M180.3,100.9c0.5,0,1-0.1,1.5-0.2v1.6c-0.2,0.1-0.5,0.2-0.9,0.3s-0.7,0.1-1.1,0.1c-2,0-2.9-1-2.9-3.1v-5.2h-1.3v-0.9
						l1.4-0.8l0.7-2.1h1.3v2.2h2.8v1.6H179v5.2c0,0.5,0.1,0.9,0.4,1.1S179.9,100.9,180.3,100.9z"/>
					<path d="M193.8,102.4h-2.1v-8.3c0-1,0-1.8,0.1-2.4c-0.1,0.1-0.3,0.3-0.5,0.5s-0.9,0.7-2,1.6l-1-1.3l3.8-3h1.7V102.4z"/>
				</g>
			</g>
			<g>
				<g>
					<path class="st0" d="M461.3,121.4H396c-6.1,0-11-4.9-11-11v-28c0-6.1,4.9-11,11-11h65.3c6.1,0,11,4.9,11,11v28
						C472.3,116.4,467.4,121.4,461.3,121.4z"/>
					<path d="M461.3,122.4H396c-6.6,0-12-5.4-12-12v-28c0-6.6,5.4-12,12-12h65.3c6.6,0,12,5.4,12,12v28
						C473.3,117,468,122.4,461.3,122.4z M396,72.4c-5.5,0-10,4.5-10,10v28c0,5.5,4.5,10,10,10h65.3c5.5,0,10-4.5,10-10v-28
						c0-5.5-4.5-10-10-10H396z"/>
				</g>
				<g>
					<path d="M412.9,93.4c0,1.3-0.4,2.4-1.3,3.1s-2.1,1.1-3.8,1.1h-1.3v4.8h-2.1V89.5h3.7c1.6,0,2.8,0.3,3.6,1
						S412.9,92.1,412.9,93.4z M406.5,95.8h1.1c1.1,0,1.9-0.2,2.4-0.6s0.8-1,0.8-1.8c0-0.7-0.2-1.3-0.7-1.7s-1.2-0.5-2.1-0.5h-1.5
						V95.8z"/>
					<path d="M423.9,97.5c0,1.6-0.4,2.8-1.2,3.7s-1.9,1.3-3.4,1.3c-0.9,0-1.7-0.2-2.4-0.6s-1.2-1-1.6-1.8s-0.6-1.7-0.6-2.7
						c0-1.6,0.4-2.8,1.2-3.7s1.9-1.3,3.4-1.3c1.4,0,2.5,0.5,3.3,1.4S423.9,96,423.9,97.5z M416.8,97.5c0,2.2,0.8,3.4,2.5,3.4
						c1.6,0,2.5-1.1,2.5-3.4c0-2.2-0.8-3.3-2.5-3.3c-0.9,0-1.5,0.3-1.9,0.9S416.8,96.4,416.8,97.5z"/>
					<path d="M431.2,92.5c0.4,0,0.8,0,1,0.1l-0.2,1.9c-0.3-0.1-0.6-0.1-0.9-0.1c-0.8,0-1.5,0.3-2,0.8s-0.8,1.2-0.8,2.1v5.1h-2.1
						v-9.7h1.6l0.3,1.7h0.1c0.3-0.6,0.7-1,1.3-1.4S430.6,92.5,431.2,92.5z"/>
					<path d="M437.7,100.9c0.5,0,1-0.1,1.5-0.2v1.6c-0.2,0.1-0.5,0.2-0.9,0.3s-0.7,0.1-1.1,0.1c-2,0-2.9-1-2.9-3.1v-5.2h-1.3v-0.9
						l1.4-0.8l0.7-2.1h1.3v2.2h2.8v1.6h-2.8v5.2c0,0.5,0.1,0.9,0.4,1.1S437.3,100.9,437.7,100.9z"/>
					<path d="M453.8,102.4h-8.7v-1.6l3.3-3.3c1-1,1.6-1.7,1.9-2.1s0.6-0.8,0.7-1.2s0.2-0.8,0.2-1.2c0-0.6-0.2-1-0.5-1.4
						s-0.8-0.5-1.4-0.5c-0.5,0-1,0.1-1.4,0.3s-1,0.5-1.6,1l-1.1-1.4c0.7-0.6,1.4-1,2.1-1.3s1.4-0.4,2.2-0.4c1.2,0,2.2,0.3,2.9,0.9
						s1.1,1.5,1.1,2.5c0,0.6-0.1,1.1-0.3,1.7s-0.5,1.1-1,1.6s-1.1,1.3-2.1,2.2l-2.2,2.2v0.1h6.1V102.4z"/>
				</g>
			</g>
		</g>
		<g>
			<g>
				<g>
					<path class="st0" d="M204,282.4h-65.3c-6.1,0-11-4.9-11-11v-28c0-6.1,4.9-11,11-11H204c6.1,0,11,4.9,11,11v28
						C215,277.5,210.1,282.4,204,282.4z"/>
					<path d="M204,283.4h-65.3c-6.6,0-12-5.4-12-12v-28c0-6.6,5.4-12,12-12H204c6.6,0,12,5.4,12,12v28
						C216,278,210.6,283.4,204,283.4z M138.7,233.4c-5.5,0-10,4.5-10,10v28c0,5.5,4.5,10,10,10H204c5.5,0,10-4.5,10-10v-28
						c0-5.5-4.5-10-10-10H138.7z"/>
				</g>
				<g>
					<path d="M155.6,254.5c0,1.3-0.4,2.4-1.3,3.1s-2.1,1.1-3.8,1.1h-1.3v4.8h-2.1v-12.8h3.7c1.6,0,2.8,0.3,3.6,1
						S155.6,253.2,155.6,254.5z M149.2,256.9h1.1c1.1,0,1.9-0.2,2.4-0.6s0.8-1,0.8-1.8c0-0.7-0.2-1.3-0.7-1.7s-1.2-0.5-2.1-0.5h-1.5
						V256.9z"/>
					<path d="M166.6,258.6c0,1.6-0.4,2.8-1.2,3.7s-1.9,1.3-3.4,1.3c-0.9,0-1.7-0.2-2.4-0.6s-1.2-1-1.6-1.8s-0.6-1.7-0.6-2.7
						c0-1.6,0.4-2.8,1.2-3.7s1.9-1.3,3.4-1.3c1.4,0,2.5,0.5,3.3,1.4S166.6,257,166.6,258.6z M159.5,258.6c0,2.2,0.8,3.4,2.5,3.4
						c1.6,0,2.5-1.1,2.5-3.4c0-2.2-0.8-3.3-2.5-3.3c-0.9,0-1.5,0.3-1.9,0.9S159.5,257.5,159.5,258.6z"/>
					<path d="M173.9,253.5c0.4,0,0.8,0,1,0.1l-0.2,1.9c-0.3-0.1-0.6-0.1-0.9-0.1c-0.8,0-1.5,0.3-2,0.8s-0.8,1.2-0.8,2.1v5.1H169
						v-9.7h1.6l0.3,1.7h0.1c0.3-0.6,0.7-1,1.3-1.4S173.3,253.5,173.9,253.5z"/>
					<path d="M180.3,262c0.5,0,1-0.1,1.5-0.2v1.6c-0.2,0.1-0.5,0.2-0.9,0.3s-0.7,0.1-1.1,0.1c-2,0-2.9-1-2.9-3.1v-5.2h-1.3v-0.9
						l1.4-0.8l0.7-2.1h1.3v2.2h2.8v1.6H179v5.2c0,0.5,0.1,0.9,0.4,1.1S179.9,262,180.3,262z"/>
					<path d="M196,253.5c0,0.8-0.2,1.5-0.7,2s-1.1,0.9-2,1.1v0.1c1,0.1,1.8,0.4,2.3,1s0.8,1.2,0.8,2c0,1.2-0.4,2.2-1.3,2.9
						s-2.1,1-3.7,1c-1.4,0-2.6-0.2-3.6-0.7v-1.8c0.5,0.3,1.1,0.5,1.7,0.6s1.2,0.2,1.8,0.2c1,0,1.7-0.2,2.2-0.6s0.7-0.9,0.7-1.7
						c0-0.7-0.3-1.2-0.8-1.5s-1.4-0.5-2.6-0.5h-1.1V256h1.1c2.1,0,3.1-0.7,3.1-2.1c0-0.6-0.2-1-0.5-1.3s-0.9-0.4-1.6-0.4
						c-0.5,0-1,0.1-1.4,0.2s-1,0.4-1.6,0.8l-1-1.4c1.2-0.9,2.5-1.3,4.1-1.3c1.3,0,2.3,0.3,3,0.8S196,252.6,196,253.5z"/>
				</g>
			</g>
			<g>
				<g>
					<path class="st0" d="M461.3,282.4H396c-6.1,0-11-4.9-11-11v-28c0-6.1,4.9-11,11-11h65.3c6.1,0,11,4.9,11,11v28
						C472.3,277.5,467.4,282.4,461.3,282.4z"/>
					<path d="M461.3,283.4H396c-6.6,0-12-5.4-12-12v-28c0-6.6,5.4-12,12-12h65.3c6.6,0,12,5.4,12,12v28
						C473.3,278,468,283.4,461.3,283.4z M396,233.4c-5.5,0-10,4.5-10,10v28c0,5.5,4.5,10,10,10h65.3c5.5,0,10-4.5,10-10v-28
						c0-5.5-4.5-10-10-10H396z"/>
				</g>
				<g>
					<path d="M412.9,254.5c0,1.3-0.4,2.4-1.3,3.1s-2.1,1.1-3.8,1.1h-1.3v4.8h-2.1v-12.8h3.7c1.6,0,2.8,0.3,3.6,1
						S412.9,253.2,412.9,254.5z M406.5,256.9h1.1c1.1,0,1.9-0.2,2.4-0.6s0.8-1,0.8-1.8c0-0.7-0.2-1.3-0.7-1.7s-1.2-0.5-2.1-0.5h-1.5
						V256.9z"/>
					<path d="M423.9,258.6c0,1.6-0.4,2.8-1.2,3.7s-1.9,1.3-3.4,1.3c-0.9,0-1.7-0.2-2.4-0.6s-1.2-1-1.6-1.8s-0.6-1.7-0.6-2.7
						c0-1.6,0.4-2.8,1.2-3.7s1.9-1.3,3.4-1.3c1.4,0,2.5,0.5,3.3,1.4S423.9,257,423.9,258.6z M416.8,258.6c0,2.2,0.8,3.4,2.5,3.4
						c1.6,0,2.5-1.1,2.5-3.4c0-2.2-0.8-3.3-2.5-3.3c-0.9,0-1.5,0.3-1.9,0.9S416.8,257.5,416.8,258.6z"/>
					<path d="M431.2,253.5c0.4,0,0.8,0,1,0.1l-0.2,1.9c-0.3-0.1-0.6-0.1-0.9-0.1c-0.8,0-1.5,0.3-2,0.8s-0.8,1.2-0.8,2.1v5.1h-2.1
						v-9.7h1.6l0.3,1.7h0.1c0.3-0.6,0.7-1,1.3-1.4S430.6,253.5,431.2,253.5z"/>
					<path d="M437.7,262c0.5,0,1-0.1,1.5-0.2v1.6c-0.2,0.1-0.5,0.2-0.9,0.3s-0.7,0.1-1.1,0.1c-2,0-2.9-1-2.9-3.1v-5.2h-1.3v-0.9
						l1.4-0.8l0.7-2.1h1.3v2.2h2.8v1.6h-2.8v5.2c0,0.5,0.1,0.9,0.4,1.1S437.3,262,437.7,262z"/>
					<path d="M454.3,260.6h-1.7v2.8h-2v-2.8h-5.9v-1.6l5.9-8.5h2v8.4h1.7V260.6z M450.5,258.9v-3.2c0-1.1,0-2.1,0.1-2.8h-0.1
						c-0.2,0.4-0.4,0.9-0.8,1.4l-3.2,4.6H450.5z"/>
				</g>
			</g>
		</g>
		<g>
			<path d="M135.3,299.1h-1.6l-2.7-3.9l-0.8,0.7v3.2h-1.4v-8.6h1.4v4.1c0.4-0.5,0.8-0.9,1.1-1.4l2.3-2.7h1.6c-1.5,1.8-2.6,3-3.2,3.8
				L135.3,299.1z"/>
			<path d="M142,299.1h-1.4v-4c0-0.5-0.1-0.9-0.3-1.1s-0.5-0.4-1-0.4c-0.6,0-1,0.2-1.3,0.5s-0.4,0.9-0.4,1.7v3.2h-1.4v-6.5h1.1
				l0.2,0.8h0.1c0.2-0.3,0.5-0.5,0.8-0.7s0.8-0.3,1.2-0.3c1.6,0,2.3,0.8,2.3,2.4V299.1z"/>
			<path d="M149.7,295.8c0,1.1-0.3,1.9-0.8,2.5s-1.3,0.9-2.3,0.9c-0.6,0-1.1-0.1-1.6-0.4s-0.8-0.7-1.1-1.2s-0.4-1.1-0.4-1.8
				c0-1.1,0.3-1.9,0.8-2.5s1.3-0.9,2.3-0.9c0.9,0,1.7,0.3,2.2,0.9S149.7,294.8,149.7,295.8z M145,295.8c0,1.5,0.6,2.2,1.7,2.2
				c1.1,0,1.6-0.7,1.6-2.2c0-1.5-0.6-2.2-1.7-2.2c-0.6,0-1,0.2-1.3,0.6S145,295.1,145,295.8z"/>
			<path d="M156.6,299.1l-0.8-3c-0.1-0.3-0.3-1.1-0.6-2.2h-0.1c-0.2,1.1-0.4,1.8-0.5,2.2l-0.9,3h-1.5l-1.8-6.5h1.4l0.8,3.2
				c0.2,0.8,0.3,1.5,0.4,2h0c0-0.3,0.1-0.6,0.2-1s0.1-0.6,0.2-0.8l1-3.4h1.5l1,3.4c0.1,0.2,0.1,0.5,0.2,0.9s0.1,0.7,0.2,0.9h0
				c0.1-0.5,0.2-1.2,0.4-2l0.8-3.2h1.4l-1.8,6.5H156.6z"/>
			<path d="M166.8,299.1h-1.4v-4c0-0.5-0.1-0.9-0.3-1.1s-0.5-0.4-1-0.4c-0.6,0-1,0.2-1.3,0.5s-0.4,0.9-0.4,1.7v3.2h-1.4v-6.5h1.1
				l0.2,0.8h0.1c0.2-0.3,0.5-0.5,0.8-0.7s0.8-0.3,1.2-0.3c1.6,0,2.3,0.8,2.3,2.4V299.1z"/>
			<path d="M179.1,299.1h-1.7l-4.2-6.8h0l0,0.4c0.1,0.7,0.1,1.4,0.1,2v4.5H172v-8.6h1.7l4.2,6.8h0c0-0.1,0-0.4,0-1s0-1,0-1.3v-4.5
				h1.3V299.1z"/>
			<path d="M184,299.2c-1,0-1.8-0.3-2.4-0.9s-0.9-1.4-0.9-2.4c0-1.1,0.3-1.9,0.8-2.5s1.3-0.9,2.2-0.9c0.9,0,1.5,0.3,2,0.8
				s0.7,1.2,0.7,2.1v0.7h-4.3c0,0.6,0.2,1.1,0.5,1.5s0.8,0.5,1.4,0.5c0.4,0,0.7,0,1.1-0.1s0.7-0.2,1.1-0.4v1.1
				c-0.3,0.2-0.7,0.3-1,0.3S184.5,299.2,184,299.2z M183.8,293.5c-0.4,0-0.8,0.1-1.1,0.4s-0.4,0.7-0.5,1.2h2.9
				c0-0.5-0.1-0.9-0.4-1.2S184.2,293.5,183.8,293.5z"/>
			<path d="M190.5,298.1c0.3,0,0.7-0.1,1-0.2v1c-0.2,0.1-0.3,0.1-0.6,0.2s-0.5,0.1-0.7,0.1c-1.3,0-2-0.7-2-2.1v-3.5h-0.9V293
				l0.9-0.5l0.5-1.4h0.8v1.4h1.8v1h-1.8v3.5c0,0.3,0.1,0.6,0.2,0.7S190.3,298.1,190.5,298.1z"/>
			<path d="M198.1,299.1l-0.8-3c-0.1-0.3-0.3-1.1-0.6-2.2h-0.1c-0.2,1.1-0.4,1.8-0.5,2.2l-0.9,3h-1.5l-1.8-6.5h1.4l0.8,3.2
				c0.2,0.8,0.3,1.5,0.4,2h0c0-0.3,0.1-0.6,0.2-1s0.1-0.6,0.2-0.8l1-3.4h1.5l1,3.4c0.1,0.2,0.1,0.5,0.2,0.9s0.1,0.7,0.2,0.9h0
				c0.1-0.5,0.2-1.2,0.4-2l0.8-3.2h1.4l-1.8,6.5H198.1z"/>
			<path d="M208.4,295.8c0,1.1-0.3,1.9-0.8,2.5s-1.3,0.9-2.3,0.9c-0.6,0-1.1-0.1-1.6-0.4s-0.8-0.7-1.1-1.2s-0.4-1.1-0.4-1.8
				c0-1.1,0.3-1.9,0.8-2.5s1.3-0.9,2.3-0.9c0.9,0,1.7,0.3,2.2,0.9S208.4,294.8,208.4,295.8z M203.7,295.8c0,1.5,0.6,2.2,1.7,2.2
				c1.1,0,1.6-0.7,1.6-2.2c0-1.5-0.6-2.2-1.7-2.2c-0.6,0-1,0.2-1.3,0.6S203.7,295.1,203.7,295.8z"/>
			<path d="M213.3,292.5c0.3,0,0.5,0,0.7,0.1l-0.1,1.3c-0.2,0-0.4-0.1-0.6-0.1c-0.6,0-1,0.2-1.3,0.5s-0.5,0.8-0.5,1.4v3.4H210v-6.5
				h1.1l0.2,1.1h0.1c0.2-0.4,0.5-0.7,0.8-0.9S212.9,292.5,213.3,292.5z"/>
			<path d="M216.5,295.6l0.8-1l2-2.1h1.6l-2.6,2.8l2.8,3.7h-1.6l-2.1-2.8l-0.8,0.6v2.2h-1.4v-9.1h1.4v4.4L216.5,295.6L216.5,295.6z"
				/>
			<path d="M226.4,297.2c0,0.6-0.2,1.1-0.7,1.5s-1.1,0.5-2,0.5c-0.9,0-1.6-0.1-2.1-0.4v-1.2c0.8,0.4,1.5,0.5,2.1,0.5
				c0.8,0,1.3-0.3,1.3-0.8c0-0.2,0-0.3-0.1-0.4s-0.2-0.2-0.5-0.3s-0.5-0.3-0.9-0.4c-0.7-0.3-1.3-0.6-1.5-0.9s-0.4-0.7-0.4-1.1
				c0-0.6,0.2-1,0.7-1.3s1.1-0.5,1.8-0.5c0.8,0,1.5,0.2,2.2,0.5l-0.4,1c-0.7-0.3-1.3-0.4-1.8-0.4c-0.7,0-1.1,0.2-1.1,0.6
				c0,0.2,0.1,0.4,0.3,0.5s0.6,0.3,1.2,0.6c0.5,0.2,0.9,0.4,1.2,0.6s0.4,0.4,0.5,0.6S226.4,296.9,226.4,297.2z"/>
			<path d="M227.6,293.3c0-0.6,0.3-0.9,0.9-0.9c0.3,0,0.5,0.1,0.7,0.2s0.2,0.4,0.2,0.7s-0.1,0.5-0.2,0.7s-0.4,0.2-0.6,0.2
				s-0.5-0.1-0.6-0.2S227.6,293.6,227.6,293.3z M227.6,298.3c0-0.3,0.1-0.5,0.2-0.7s0.4-0.2,0.6-0.2c0.3,0,0.5,0.1,0.7,0.2
				s0.2,0.4,0.2,0.6c0,0.3-0.1,0.5-0.2,0.7s-0.4,0.2-0.6,0.2s-0.5-0.1-0.6-0.2S227.6,298.6,227.6,298.3z"/>
			<path d="M131.1,304.8c0.8,0,1.4,0.2,1.9,0.5s0.7,0.9,0.7,1.5c0,0.4-0.1,0.8-0.4,1.2s-0.7,0.7-1.3,0.9c0.7,0.3,1.2,0.7,1.5,1
				s0.4,0.8,0.4,1.3c0,0.7-0.2,1.3-0.7,1.7s-1.2,0.6-2,0.6c-0.9,0-1.6-0.2-2.1-0.6s-0.7-1-0.7-1.7c0-1,0.6-1.7,1.8-2.3
				c-0.5-0.3-0.9-0.6-1.2-1s-0.4-0.7-0.4-1.2c0-0.6,0.2-1.1,0.7-1.5S130.3,304.8,131.1,304.8z M129.2,311.3c0,0.5,0.2,0.8,0.5,1.1
				s0.8,0.4,1.4,0.4c0.6,0,1-0.1,1.4-0.4s0.5-0.6,0.5-1.1c0-0.4-0.2-0.7-0.5-1s-0.8-0.6-1.6-0.9c-0.6,0.3-1,0.5-1.3,0.8
				S129.2,310.9,129.2,311.3z M131.1,305.6c-0.5,0-0.9,0.1-1.1,0.4s-0.4,0.5-0.4,0.9c0,0.4,0.1,0.7,0.3,0.9s0.7,0.5,1.3,0.8
				c0.6-0.2,1-0.5,1.2-0.8s0.3-0.6,0.3-0.9c0-0.4-0.1-0.7-0.4-0.9S131.6,305.6,131.1,305.6z"/>
			<path d="M135.4,312.8c0-0.3,0.1-0.5,0.2-0.6s0.3-0.2,0.5-0.2c0.2,0,0.4,0.1,0.5,0.2s0.2,0.3,0.2,0.6c0,0.3-0.1,0.4-0.2,0.6
				s-0.3,0.2-0.5,0.2c-0.2,0-0.4-0.1-0.5-0.2S135.4,313.1,135.4,312.8z"/>
			<path d="M144,309.2c0,1.5-0.2,2.6-0.7,3.3s-1.2,1.1-2.1,1.1c-0.9,0-1.6-0.4-2.1-1.1s-0.7-1.8-0.7-3.3c0-1.5,0.2-2.6,0.7-3.3
				s1.2-1.1,2.1-1.1c0.9,0,1.6,0.4,2.1,1.1S144,307.7,144,309.2z M139.3,309.2c0,1.2,0.1,2.2,0.4,2.7s0.8,0.9,1.4,0.9
				c0.6,0,1.1-0.3,1.4-0.9s0.4-1.5,0.4-2.7s-0.1-2.1-0.4-2.7s-0.8-0.9-1.4-0.9c-0.6,0-1.1,0.3-1.4,0.8S139.3,307.9,139.3,309.2z"/>
			<path d="M145.5,312.8c0-0.3,0.1-0.5,0.2-0.6s0.3-0.2,0.5-0.2c0.2,0,0.4,0.1,0.5,0.2s0.2,0.3,0.2,0.6c0,0.3-0.1,0.4-0.2,0.6
				s-0.3,0.2-0.5,0.2c-0.2,0-0.4-0.1-0.5-0.2S145.5,313.1,145.5,312.8z"/>
			<path d="M154,309.2c0,1.5-0.2,2.6-0.7,3.3s-1.2,1.1-2.1,1.1c-0.9,0-1.6-0.4-2.1-1.1s-0.7-1.8-0.7-3.3c0-1.5,0.2-2.6,0.7-3.3
				s1.2-1.1,2.1-1.1c0.9,0,1.6,0.4,2.1,1.1S154,307.7,154,309.2z M149.4,309.2c0,1.2,0.1,2.2,0.4,2.7s0.8,0.9,1.4,0.9
				c0.6,0,1.1-0.3,1.4-0.9s0.4-1.5,0.4-2.7s-0.1-2.1-0.4-2.7s-0.8-0.9-1.4-0.9c-0.6,0-1.1,0.3-1.4,0.8S149.4,307.9,149.4,309.2z"/>
			<path d="M155.5,312.8c0-0.3,0.1-0.5,0.2-0.6s0.3-0.2,0.5-0.2c0.2,0,0.4,0.1,0.5,0.2s0.2,0.3,0.2,0.6c0,0.3-0.1,0.4-0.2,0.6
				s-0.3,0.2-0.5,0.2c-0.2,0-0.4-0.1-0.5-0.2S155.5,313.1,155.5,312.8z"/>
			<path d="M164.1,309.2c0,1.5-0.2,2.6-0.7,3.3s-1.2,1.1-2.1,1.1c-0.9,0-1.6-0.4-2.1-1.1s-0.7-1.8-0.7-3.3c0-1.5,0.2-2.6,0.7-3.3
				s1.2-1.1,2.1-1.1c0.9,0,1.6,0.4,2.1,1.1S164.1,307.7,164.1,309.2z M159.4,309.2c0,1.2,0.1,2.2,0.4,2.7s0.8,0.9,1.4,0.9
				c0.6,0,1.1-0.3,1.4-0.9s0.4-1.5,0.4-2.7s-0.1-2.1-0.4-2.7s-0.8-0.9-1.4-0.9c-0.6,0-1.1,0.3-1.4,0.8S159.4,307.9,159.4,309.2z"/>
			<path d="M169,304.9l-3.2,8.6h-1l3.2-8.6H169z"/>
			<path d="M172.5,304.8c0.8,0,1.4,0.2,1.9,0.5s0.7,0.9,0.7,1.5c0,0.4-0.1,0.8-0.4,1.2s-0.7,0.7-1.3,0.9c0.7,0.3,1.2,0.7,1.5,1
				s0.4,0.8,0.4,1.3c0,0.7-0.2,1.3-0.7,1.7s-1.2,0.6-2,0.6c-0.9,0-1.6-0.2-2.1-0.6s-0.7-1-0.7-1.7c0-1,0.6-1.7,1.8-2.3
				c-0.5-0.3-0.9-0.6-1.2-1s-0.4-0.7-0.4-1.2c0-0.6,0.2-1.1,0.7-1.5S171.8,304.8,172.5,304.8z M170.7,311.3c0,0.5,0.2,0.8,0.5,1.1
				s0.8,0.4,1.4,0.4c0.6,0,1-0.1,1.4-0.4s0.5-0.6,0.5-1.1c0-0.4-0.2-0.7-0.5-1s-0.8-0.6-1.6-0.9c-0.6,0.3-1,0.5-1.3,0.8
				S170.7,310.9,170.7,311.3z M172.5,305.6c-0.5,0-0.9,0.1-1.1,0.4s-0.4,0.5-0.4,0.9c0,0.4,0.1,0.7,0.3,0.9s0.7,0.5,1.3,0.8
				c0.6-0.2,1-0.5,1.2-0.8s0.3-0.6,0.3-0.9c0-0.4-0.1-0.7-0.4-0.9S173,305.6,172.5,305.6z"/>
			<path d="M131.9,327.9h-0.9v-6.1c0-0.5,0-1,0-1.4c-0.1,0.1-0.2,0.2-0.3,0.3s-0.6,0.5-1.4,1.1l-0.5-0.7l2.3-1.8h0.8V327.9z"/>
			<path d="M140.7,322.9c0,3.4-1.3,5-3.9,5c-0.5,0-0.8,0-1.1-0.1V327c0.3,0.1,0.7,0.2,1.1,0.2c0.9,0,1.6-0.3,2.1-0.9
				s0.7-1.5,0.8-2.7h-0.1c-0.2,0.3-0.5,0.6-0.9,0.7s-0.8,0.3-1.2,0.3c-0.8,0-1.4-0.2-1.8-0.7s-0.7-1.1-0.7-1.9
				c0-0.9,0.2-1.6,0.7-2.1s1.2-0.8,2-0.8c0.6,0,1.1,0.1,1.5,0.4s0.8,0.7,1,1.3S140.7,322.2,140.7,322.9z M137.9,320
				c-0.6,0-1,0.2-1.3,0.5s-0.5,0.9-0.5,1.5c0,0.6,0.1,1,0.4,1.3s0.7,0.5,1.3,0.5c0.4,0,0.7-0.1,1-0.2s0.5-0.3,0.7-0.6
				s0.3-0.5,0.3-0.8c0-0.4-0.1-0.8-0.2-1.1s-0.4-0.6-0.7-0.8S138.2,320,137.9,320z"/>
			<path d="M147.6,327.9H142V327l2.3-2.3c0.7-0.7,1.1-1.2,1.4-1.5s0.4-0.6,0.5-0.9s0.2-0.6,0.2-0.9c0-0.5-0.1-0.8-0.4-1.1
				s-0.7-0.4-1.2-0.4c-0.4,0-0.7,0.1-1,0.2s-0.7,0.3-1.1,0.6l-0.5-0.7c0.8-0.7,1.6-1,2.6-1c0.8,0,1.4,0.2,1.9,0.6s0.7,1,0.7,1.7
				c0,0.5-0.2,1.1-0.5,1.6s-0.9,1.2-1.7,2l-1.9,1.8v0h4.4V327.9z"/>
			<path d="M149.1,327.2c0-0.3,0.1-0.5,0.2-0.6s0.3-0.2,0.5-0.2c0.2,0,0.4,0.1,0.5,0.2s0.2,0.3,0.2,0.6c0,0.3-0.1,0.4-0.2,0.6
				s-0.3,0.2-0.5,0.2c-0.2,0-0.4-0.1-0.5-0.2S149.1,327.5,149.1,327.2z"/>
			<path d="M155.6,327.9h-0.9v-6.1c0-0.5,0-1,0-1.4c-0.1,0.1-0.2,0.2-0.3,0.3s-0.6,0.5-1.4,1.1l-0.5-0.7l2.3-1.8h0.8V327.9z"/>
			<path d="M159,324.2c0-1.7,0.3-2.9,1-3.8s1.6-1.3,2.9-1.3c0.4,0,0.8,0,1,0.1v0.8c-0.3-0.1-0.6-0.1-1-0.1c-0.9,0-1.6,0.3-2.1,0.9
				s-0.8,1.5-0.8,2.7h0.1c0.4-0.7,1.1-1,2-1c0.8,0,1.4,0.2,1.8,0.7s0.7,1.1,0.7,1.9c0,0.9-0.2,1.6-0.7,2.1s-1.1,0.8-2,0.8
				c-0.9,0-1.6-0.3-2.1-1S159,325.4,159,324.2z M161.9,327.1c0.6,0,1-0.2,1.3-0.5s0.5-0.9,0.5-1.5c0-0.6-0.1-1-0.4-1.3
				s-0.7-0.5-1.3-0.5c-0.4,0-0.7,0.1-1,0.2s-0.5,0.3-0.7,0.6s-0.3,0.5-0.3,0.8c0,0.4,0.1,0.8,0.2,1.1s0.4,0.6,0.7,0.8
				S161.5,327.1,161.9,327.1z"/>
			<path d="M166.8,327.9l3.6-7.7h-4.7v-0.9h5.7v0.8l-3.5,7.8H166.8z"/>
			<path d="M172.9,327.2c0-0.3,0.1-0.5,0.2-0.6s0.3-0.2,0.5-0.2c0.2,0,0.4,0.1,0.5,0.2s0.2,0.3,0.2,0.6c0,0.3-0.1,0.4-0.2,0.6
				s-0.3,0.2-0.5,0.2c-0.2,0-0.4-0.1-0.5-0.2S172.9,327.5,172.9,327.2z"/>
			<path d="M178.5,322.6c0.9,0,1.6,0.2,2.1,0.7s0.8,1.1,0.8,1.8c0,0.9-0.3,1.6-0.8,2.1s-1.3,0.8-2.3,0.8c-1,0-1.7-0.2-2.2-0.5v-0.9
				c0.3,0.2,0.6,0.3,1,0.4s0.8,0.1,1.2,0.1c0.7,0,1.2-0.2,1.6-0.5s0.6-0.8,0.6-1.4c0-1.2-0.7-1.8-2.2-1.8c-0.4,0-0.9,0.1-1.5,0.2
				l-0.5-0.3l0.3-4h4.3v0.9h-3.4l-0.2,2.6C177.6,322.7,178,322.6,178.5,322.6z"/>
			<path d="M183,327.2c0-0.3,0.1-0.5,0.2-0.6s0.3-0.2,0.5-0.2c0.2,0,0.4,0.1,0.5,0.2s0.2,0.3,0.2,0.6c0,0.3-0.1,0.4-0.2,0.6
				s-0.3,0.2-0.5,0.2c-0.2,0-0.4-0.1-0.5-0.2S183,327.5,183,327.2z"/>
			<path d="M186,324.2c0-1.7,0.3-2.9,1-3.8s1.6-1.3,2.9-1.3c0.4,0,0.8,0,1,0.1v0.8c-0.3-0.1-0.6-0.1-1-0.1c-0.9,0-1.6,0.3-2.1,0.9
				s-0.8,1.5-0.8,2.7h0.1c0.4-0.7,1.1-1,2-1c0.8,0,1.4,0.2,1.8,0.7s0.7,1.1,0.7,1.9c0,0.9-0.2,1.6-0.7,2.1s-1.1,0.8-2,0.8
				c-0.9,0-1.6-0.3-2.1-1S186,325.4,186,324.2z M188.8,327.1c0.6,0,1-0.2,1.3-0.5s0.5-0.9,0.5-1.5c0-0.6-0.1-1-0.4-1.3
				s-0.7-0.5-1.3-0.5c-0.4,0-0.7,0.1-1,0.2s-0.5,0.3-0.7,0.6s-0.3,0.5-0.3,0.8c0,0.4,0.1,0.8,0.2,1.1s0.4,0.6,0.7,0.8
				S188.5,327.1,188.8,327.1z"/>
			<path d="M196.4,319.3l-3.2,8.6h-1l3.2-8.6H196.4z"/>
			<path d="M202.8,327.9h-5.6V327l2.3-2.3c0.7-0.7,1.1-1.2,1.4-1.5s0.4-0.6,0.5-0.9s0.2-0.6,0.2-0.9c0-0.5-0.1-0.8-0.4-1.1
				s-0.7-0.4-1.2-0.4c-0.4,0-0.7,0.1-1,0.2s-0.7,0.3-1.1,0.6l-0.5-0.7c0.8-0.7,1.6-1,2.6-1c0.8,0,1.4,0.2,1.9,0.6s0.7,1,0.7,1.7
				c0,0.5-0.2,1.1-0.5,1.6s-0.9,1.2-1.7,2l-1.9,1.8v0h4.4V327.9z"/>
			<path d="M210,325.9h-1.3v2h-0.9v-2h-4.2V325l4.1-5.8h1v5.8h1.3V325.9z M207.8,325v-2.8c0-0.6,0-1.2,0.1-1.9h0
				c-0.2,0.4-0.4,0.7-0.5,0.9l-2.7,3.8H207.8z"/>
		</g>
		<g>
			<path d="M392.7,138.5H391l-2.7-3.9l-0.8,0.7v3.2h-1.4V130h1.4v4.1c0.4-0.5,0.8-0.9,1.1-1.4l2.3-2.7h1.6c-1.5,1.8-2.6,3-3.2,3.8
				L392.7,138.5z"/>
			<path d="M399.4,138.5H398v-4c0-0.5-0.1-0.9-0.3-1.1s-0.5-0.4-1-0.4c-0.6,0-1,0.2-1.3,0.5s-0.4,0.9-0.4,1.7v3.2h-1.4v-6.5h1.1
				l0.2,0.8h0.1c0.2-0.3,0.5-0.5,0.8-0.7s0.8-0.3,1.2-0.3c1.6,0,2.3,0.8,2.3,2.4V138.5z"/>
			<path d="M407,135.3c0,1.1-0.3,1.9-0.8,2.5s-1.3,0.9-2.3,0.9c-0.6,0-1.1-0.1-1.6-0.4s-0.8-0.7-1.1-1.2s-0.4-1.1-0.4-1.8
				c0-1.1,0.3-1.9,0.8-2.5s1.3-0.9,2.3-0.9c0.9,0,1.7,0.3,2.2,0.9S407,134.3,407,135.3z M402.3,135.3c0,1.5,0.6,2.2,1.7,2.2
				c1.1,0,1.6-0.7,1.6-2.2c0-1.5-0.6-2.2-1.7-2.2c-0.6,0-1,0.2-1.3,0.6S402.3,134.6,402.3,135.3z"/>
			<path d="M413.9,138.5l-0.8-3c-0.1-0.3-0.3-1.1-0.6-2.2h-0.1c-0.2,1.1-0.4,1.8-0.5,2.2l-0.9,3h-1.5l-1.8-6.5h1.4l0.8,3.2
				c0.2,0.8,0.3,1.5,0.4,2h0c0-0.3,0.1-0.6,0.2-1s0.1-0.6,0.2-0.8l1-3.4h1.5l1,3.4c0.1,0.2,0.1,0.5,0.2,0.9s0.1,0.7,0.2,0.9h0
				c0.1-0.5,0.2-1.2,0.4-2l0.8-3.2h1.4l-1.8,6.5H413.9z"/>
			<path d="M424.1,138.5h-1.4v-4c0-0.5-0.1-0.9-0.3-1.1s-0.5-0.4-1-0.4c-0.6,0-1,0.2-1.3,0.5s-0.4,0.9-0.4,1.7v3.2h-1.4v-6.5h1.1
				l0.2,0.8h0.1c0.2-0.3,0.5-0.5,0.8-0.7s0.8-0.3,1.2-0.3c1.6,0,2.3,0.8,2.3,2.4V138.5z"/>
			<path d="M436.4,138.5h-1.7l-4.2-6.8h0l0,0.4c0.1,0.7,0.1,1.4,0.1,2v4.5h-1.3V130h1.7l4.2,6.8h0c0-0.1,0-0.4,0-1s0-1,0-1.3V130
				h1.3V138.5z"/>
			<path d="M441.4,138.7c-1,0-1.8-0.3-2.4-0.9s-0.9-1.4-0.9-2.4c0-1.1,0.3-1.9,0.8-2.5s1.3-0.9,2.2-0.9c0.9,0,1.5,0.3,2,0.8
				s0.7,1.2,0.7,2.1v0.7h-4.3c0,0.6,0.2,1.1,0.5,1.5s0.8,0.5,1.4,0.5c0.4,0,0.7,0,1.1-0.1s0.7-0.2,1.1-0.4v1.1
				c-0.3,0.2-0.7,0.3-1,0.3S441.8,138.7,441.4,138.7z M441.1,133c-0.4,0-0.8,0.1-1.1,0.4s-0.4,0.7-0.5,1.2h2.9
				c0-0.5-0.1-0.9-0.4-1.2S441.6,133,441.1,133z"/>
			<path d="M447.9,137.5c0.3,0,0.7-0.1,1-0.2v1c-0.2,0.1-0.3,0.1-0.6,0.2s-0.5,0.1-0.7,0.1c-1.3,0-2-0.7-2-2.1v-3.5h-0.9v-0.6
				l0.9-0.5l0.5-1.4h0.8v1.4h1.8v1H447v3.5c0,0.3,0.1,0.6,0.2,0.7S447.6,137.5,447.9,137.5z"/>
			<path d="M455.5,138.5l-0.8-3c-0.1-0.3-0.3-1.1-0.6-2.2H454c-0.2,1.1-0.4,1.8-0.5,2.2l-0.9,3h-1.5l-1.8-6.5h1.4l0.8,3.2
				c0.2,0.8,0.3,1.5,0.4,2h0c0-0.3,0.1-0.6,0.2-1s0.1-0.6,0.2-0.8l1-3.4h1.5l1,3.4c0.1,0.2,0.1,0.5,0.2,0.9s0.1,0.7,0.2,0.9h0
				c0.1-0.5,0.2-1.2,0.4-2l0.8-3.2h1.4l-1.8,6.5H455.5z"/>
			<path d="M465.7,135.3c0,1.1-0.3,1.9-0.8,2.5s-1.3,0.9-2.3,0.9c-0.6,0-1.1-0.1-1.6-0.4s-0.8-0.7-1.1-1.2s-0.4-1.1-0.4-1.8
				c0-1.1,0.3-1.9,0.8-2.5s1.3-0.9,2.3-0.9c0.9,0,1.7,0.3,2.2,0.9S465.7,134.3,465.7,135.3z M461,135.3c0,1.5,0.6,2.2,1.7,2.2
				c1.1,0,1.6-0.7,1.6-2.2c0-1.5-0.6-2.2-1.7-2.2c-0.6,0-1,0.2-1.3,0.6S461,134.6,461,135.3z"/>
			<path d="M470.6,131.9c0.3,0,0.5,0,0.7,0.1l-0.1,1.3c-0.2,0-0.4-0.1-0.6-0.1c-0.6,0-1,0.2-1.3,0.5s-0.5,0.8-0.5,1.4v3.4h-1.4v-6.5
				h1.1l0.2,1.1h0.1c0.2-0.4,0.5-0.7,0.8-0.9S470.2,131.9,470.6,131.9z"/>
			<path d="M473.8,135.1l0.8-1l2-2.1h1.6l-2.6,2.8l2.8,3.7h-1.6l-2.1-2.8l-0.8,0.6v2.2h-1.4v-9.1h1.4v4.4L473.8,135.1L473.8,135.1z"
				/>
			<path d="M483.7,136.7c0,0.6-0.2,1.1-0.7,1.5s-1.1,0.5-2,0.5c-0.9,0-1.6-0.1-2.1-0.4v-1.2c0.8,0.4,1.5,0.5,2.1,0.5
				c0.8,0,1.3-0.3,1.3-0.8c0-0.2,0-0.3-0.1-0.4s-0.2-0.2-0.5-0.3s-0.5-0.3-0.9-0.4c-0.7-0.3-1.3-0.6-1.5-0.9s-0.4-0.7-0.4-1.1
				c0-0.6,0.2-1,0.7-1.3s1.1-0.5,1.8-0.5c0.8,0,1.5,0.2,2.2,0.5l-0.4,1c-0.7-0.3-1.3-0.4-1.8-0.4c-0.7,0-1.1,0.2-1.1,0.6
				c0,0.2,0.1,0.4,0.3,0.5s0.6,0.3,1.2,0.6c0.5,0.2,0.9,0.4,1.2,0.6s0.4,0.4,0.5,0.6S483.7,136.4,483.7,136.7z"/>
			<path d="M485,132.8c0-0.6,0.3-0.9,0.9-0.9c0.3,0,0.5,0.1,0.7,0.2s0.2,0.4,0.2,0.7s-0.1,0.5-0.2,0.7s-0.4,0.2-0.6,0.2
				s-0.5-0.1-0.6-0.2S485,133.1,485,132.8z M485,137.8c0-0.3,0.1-0.5,0.2-0.7s0.4-0.2,0.6-0.2c0.3,0,0.5,0.1,0.7,0.2
				s0.2,0.4,0.2,0.6c0,0.3-0.1,0.5-0.2,0.7s-0.4,0.2-0.6,0.2s-0.5-0.1-0.6-0.2S485,138.1,485,137.8z"/>
			<path d="M389.2,152.9h-0.9v-6.1c0-0.5,0-1,0-1.4c-0.1,0.1-0.2,0.2-0.3,0.3s-0.6,0.5-1.4,1.1l-0.5-0.7l2.3-1.8h0.8V152.9z"/>
			<path d="M395.1,147.7c0.9,0,1.6,0.2,2.1,0.7s0.8,1.1,0.8,1.8c0,0.9-0.3,1.6-0.8,2.1s-1.3,0.8-2.3,0.8c-1,0-1.7-0.2-2.2-0.5v-0.9
				c0.3,0.2,0.6,0.3,1,0.4s0.8,0.1,1.2,0.1c0.7,0,1.2-0.2,1.6-0.5s0.6-0.8,0.6-1.4c0-1.2-0.7-1.8-2.2-1.8c-0.4,0-0.9,0.1-1.5,0.2
				l-0.5-0.3l0.3-4h4.3v0.9H394l-0.2,2.6C394.2,147.8,394.7,147.7,395.1,147.7z"/>
			<path d="M399.6,152.3c0-0.3,0.1-0.5,0.2-0.6s0.3-0.2,0.5-0.2c0.2,0,0.4,0.1,0.5,0.2s0.2,0.3,0.2,0.6c0,0.3-0.1,0.4-0.2,0.6
				s-0.3,0.2-0.5,0.2c-0.2,0-0.4-0.1-0.5-0.2S399.6,152.6,399.6,152.3z"/>
			<path d="M405.3,144.3c0.8,0,1.4,0.2,1.9,0.5s0.7,0.9,0.7,1.5c0,0.4-0.1,0.8-0.4,1.2s-0.7,0.7-1.3,0.9c0.7,0.3,1.2,0.7,1.5,1
				s0.4,0.8,0.4,1.3c0,0.7-0.2,1.3-0.7,1.7s-1.2,0.6-2,0.6c-0.9,0-1.6-0.2-2.1-0.6s-0.7-1-0.7-1.7c0-1,0.6-1.7,1.8-2.3
				c-0.5-0.3-0.9-0.6-1.2-1s-0.4-0.7-0.4-1.2c0-0.6,0.2-1.1,0.7-1.5S404.6,144.3,405.3,144.3z M403.5,150.8c0,0.5,0.2,0.8,0.5,1.1
				s0.8,0.4,1.4,0.4c0.6,0,1-0.1,1.4-0.4s0.5-0.6,0.5-1.1c0-0.4-0.2-0.7-0.5-1s-0.8-0.6-1.6-0.9c-0.6,0.3-1,0.5-1.3,0.8
				S403.5,150.4,403.5,150.8z M405.3,145c-0.5,0-0.9,0.1-1.1,0.4s-0.4,0.5-0.4,0.9c0,0.4,0.1,0.7,0.3,0.9s0.7,0.5,1.3,0.8
				c0.6-0.2,1-0.5,1.2-0.8s0.3-0.6,0.3-0.9c0-0.4-0.1-0.7-0.4-0.9S405.8,145,405.3,145z"/>
			<path d="M409.7,152.3c0-0.3,0.1-0.5,0.2-0.6s0.3-0.2,0.5-0.2c0.2,0,0.4,0.1,0.5,0.2s0.2,0.3,0.2,0.6c0,0.3-0.1,0.4-0.2,0.6
				s-0.3,0.2-0.5,0.2c-0.2,0-0.4-0.1-0.5-0.2S409.7,152.6,409.7,152.3z"/>
			<path d="M418.6,151h-1.3v2h-0.9v-2h-4.2v-0.8l4.1-5.8h1v5.8h1.3V151z M416.4,150.1v-2.8c0-0.6,0-1.2,0.1-1.9h0
				c-0.2,0.4-0.4,0.7-0.5,0.9l-2.7,3.8H416.4z"/>
			<path d="M419.7,152.3c0-0.3,0.1-0.5,0.2-0.6s0.3-0.2,0.5-0.2c0.2,0,0.4,0.1,0.5,0.2s0.2,0.3,0.2,0.6c0,0.3-0.1,0.4-0.2,0.6
				s-0.3,0.2-0.5,0.2c-0.2,0-0.4-0.1-0.5-0.2S419.7,152.6,419.7,152.3z"/>
			<path d="M422.7,149.3c0-1.7,0.3-2.9,1-3.8s1.6-1.3,2.9-1.3c0.4,0,0.8,0,1,0.1v0.8c-0.3-0.1-0.6-0.1-1-0.1c-0.9,0-1.6,0.3-2.1,0.9
				s-0.8,1.5-0.8,2.7h0.1c0.4-0.7,1.1-1,2-1c0.8,0,1.4,0.2,1.8,0.7s0.7,1.1,0.7,1.9c0,0.9-0.2,1.6-0.7,2.1s-1.1,0.8-2,0.8
				c-0.9,0-1.6-0.3-2.1-1S422.7,150.5,422.7,149.3z M425.6,152.2c0.6,0,1-0.2,1.3-0.5s0.5-0.9,0.5-1.5c0-0.6-0.1-1-0.4-1.3
				s-0.7-0.5-1.3-0.5c-0.4,0-0.7,0.1-1,0.2s-0.5,0.3-0.7,0.6s-0.3,0.5-0.3,0.8c0,0.4,0.1,0.8,0.2,1.1s0.4,0.6,0.7,0.8
				S425.2,152.2,425.6,152.2z"/>
			<path d="M432.2,147.7c0.9,0,1.6,0.2,2.1,0.7s0.8,1.1,0.8,1.8c0,0.9-0.3,1.6-0.8,2.1s-1.3,0.8-2.3,0.8c-1,0-1.7-0.2-2.2-0.5v-0.9
				c0.3,0.2,0.6,0.3,1,0.4s0.8,0.1,1.2,0.1c0.7,0,1.2-0.2,1.6-0.5s0.6-0.8,0.6-1.4c0-1.2-0.7-1.8-2.2-1.8c-0.4,0-0.9,0.1-1.5,0.2
				l-0.5-0.3l0.3-4h4.3v0.9H431l-0.2,2.6C431.3,147.8,431.7,147.7,432.2,147.7z"/>
			<path d="M440,144.4l-3.2,8.6h-1l3.2-8.6H440z"/>
			<path d="M446.4,152.9h-5.6v-0.8l2.3-2.3c0.7-0.7,1.1-1.2,1.4-1.5s0.4-0.6,0.5-0.9s0.2-0.6,0.2-0.9c0-0.5-0.1-0.8-0.4-1.1
				s-0.7-0.4-1.2-0.4c-0.4,0-0.7,0.1-1,0.2s-0.7,0.3-1.1,0.6l-0.5-0.7c0.8-0.7,1.6-1,2.6-1c0.8,0,1.4,0.2,1.9,0.6s0.7,1,0.7,1.7
				c0,0.5-0.2,1.1-0.5,1.6s-0.9,1.2-1.7,2L442,152v0h4.4V152.9z"/>
			<path d="M453.2,152.9h-5.6v-0.8l2.3-2.3c0.7-0.7,1.1-1.2,1.4-1.5s0.4-0.6,0.5-0.9s0.2-0.6,0.2-0.9c0-0.5-0.1-0.8-0.4-1.1
				s-0.7-0.4-1.2-0.4c-0.4,0-0.7,0.1-1,0.2s-0.7,0.3-1.1,0.6l-0.5-0.7c0.8-0.7,1.6-1,2.6-1c0.8,0,1.4,0.2,1.9,0.6s0.7,1,0.7,1.7
				c0,0.5-0.2,1.1-0.5,1.6s-0.9,1.2-1.7,2l-1.9,1.8v0h4.4V152.9z"/>
			<path d="M389.2,167.3h-0.9v-6.1c0-0.5,0-1,0-1.4c-0.1,0.1-0.2,0.2-0.3,0.3s-0.6,0.5-1.4,1.1l-0.5-0.7l2.3-1.8h0.8V167.3z"/>
			<path d="M395.1,162.1c0.9,0,1.6,0.2,2.1,0.7s0.8,1.1,0.8,1.8c0,0.9-0.3,1.6-0.8,2.1s-1.3,0.8-2.3,0.8c-1,0-1.7-0.2-2.2-0.5v-0.9
				c0.3,0.2,0.6,0.3,1,0.4s0.8,0.1,1.2,0.1c0.7,0,1.2-0.2,1.6-0.5s0.6-0.8,0.6-1.4c0-1.2-0.7-1.8-2.2-1.8c-0.4,0-0.9,0.1-1.5,0.2
				l-0.5-0.3l0.3-4h4.3v0.9H394l-0.2,2.6C394.2,162.2,394.7,162.1,395.1,162.1z"/>
			<path d="M399.6,166.7c0-0.3,0.1-0.5,0.2-0.6s0.3-0.2,0.5-0.2c0.2,0,0.4,0.1,0.5,0.2s0.2,0.3,0.2,0.6c0,0.3-0.1,0.4-0.2,0.6
				s-0.3,0.2-0.5,0.2c-0.2,0-0.4-0.1-0.5-0.2S399.6,167,399.6,166.7z"/>
			<path d="M405.3,158.7c0.8,0,1.4,0.2,1.9,0.5s0.7,0.9,0.7,1.5c0,0.4-0.1,0.8-0.4,1.2s-0.7,0.7-1.3,0.9c0.7,0.3,1.2,0.7,1.5,1
				s0.4,0.8,0.4,1.3c0,0.7-0.2,1.3-0.7,1.7s-1.2,0.6-2,0.6c-0.9,0-1.6-0.2-2.1-0.6s-0.7-1-0.7-1.7c0-1,0.6-1.7,1.8-2.3
				c-0.5-0.3-0.9-0.6-1.2-1s-0.4-0.7-0.4-1.2c0-0.6,0.2-1.1,0.7-1.5S404.6,158.7,405.3,158.7z M403.5,165.2c0,0.5,0.2,0.8,0.5,1.1
				s0.8,0.4,1.4,0.4c0.6,0,1-0.1,1.4-0.4s0.5-0.6,0.5-1.1c0-0.4-0.2-0.7-0.5-1s-0.8-0.6-1.6-0.9c-0.6,0.3-1,0.5-1.3,0.8
				S403.5,164.8,403.5,165.2z M405.3,159.4c-0.5,0-0.9,0.1-1.1,0.4s-0.4,0.5-0.4,0.9c0,0.4,0.1,0.7,0.3,0.9s0.7,0.5,1.3,0.8
				c0.6-0.2,1-0.5,1.2-0.8s0.3-0.6,0.3-0.9c0-0.4-0.1-0.7-0.4-0.9S405.8,159.4,405.3,159.4z"/>
			<path d="M409.7,166.7c0-0.3,0.1-0.5,0.2-0.6s0.3-0.2,0.5-0.2c0.2,0,0.4,0.1,0.5,0.2s0.2,0.3,0.2,0.6c0,0.3-0.1,0.4-0.2,0.6
				s-0.3,0.2-0.5,0.2c-0.2,0-0.4-0.1-0.5-0.2S409.7,167,409.7,166.7z"/>
			<path d="M416.2,167.3h-0.9v-6.1c0-0.5,0-1,0-1.4c-0.1,0.1-0.2,0.2-0.3,0.3s-0.6,0.5-1.4,1.1l-0.5-0.7l2.3-1.8h0.8V167.3z"/>
			<path d="M419.7,166.7c0-0.3,0.1-0.5,0.2-0.6s0.3-0.2,0.5-0.2c0.2,0,0.4,0.1,0.5,0.2s0.2,0.3,0.2,0.6c0,0.3-0.1,0.4-0.2,0.6
				s-0.3,0.2-0.5,0.2c-0.2,0-0.4-0.1-0.5-0.2S419.7,167,419.7,166.7z"/>
			<path d="M425.4,158.7c0.8,0,1.4,0.2,1.9,0.5s0.7,0.9,0.7,1.5c0,0.4-0.1,0.8-0.4,1.2s-0.7,0.7-1.3,0.9c0.7,0.3,1.2,0.7,1.5,1
				s0.4,0.8,0.4,1.3c0,0.7-0.2,1.3-0.7,1.7s-1.2,0.6-2,0.6c-0.9,0-1.6-0.2-2.1-0.6s-0.7-1-0.7-1.7c0-1,0.6-1.7,1.8-2.3
				c-0.5-0.3-0.9-0.6-1.2-1s-0.4-0.7-0.4-1.2c0-0.6,0.2-1.1,0.7-1.5S424.7,158.7,425.4,158.7z M423.6,165.2c0,0.5,0.2,0.8,0.5,1.1
				s0.8,0.4,1.4,0.4c0.6,0,1-0.1,1.4-0.4s0.5-0.6,0.5-1.1c0-0.4-0.2-0.7-0.5-1s-0.8-0.6-1.6-0.9c-0.6,0.3-1,0.5-1.3,0.8
				S423.6,164.8,423.6,165.2z M425.4,159.4c-0.5,0-0.9,0.1-1.1,0.4s-0.4,0.5-0.4,0.9c0,0.4,0.1,0.7,0.3,0.9s0.7,0.5,1.3,0.8
				c0.6-0.2,1-0.5,1.2-0.8s0.3-0.6,0.3-0.9c0-0.4-0.1-0.7-0.4-0.9S425.9,159.4,425.4,159.4z"/>
			<path d="M433.2,158.8l-3.2,8.6h-1l3.2-8.6H433.2z"/>
			<path d="M437.5,167.3h-0.9v-6.1c0-0.5,0-1,0-1.4c-0.1,0.1-0.2,0.2-0.3,0.3s-0.6,0.5-1.4,1.1l-0.5-0.7l2.3-1.8h0.8V167.3z"/>
			<path d="M446.4,163c0,1.5-0.2,2.6-0.7,3.3s-1.2,1.1-2.1,1.1c-0.9,0-1.6-0.4-2.1-1.1s-0.7-1.8-0.7-3.3c0-1.5,0.2-2.6,0.7-3.3
				s1.2-1.1,2.1-1.1c0.9,0,1.6,0.4,2.1,1.1S446.4,161.6,446.4,163z M441.7,163c0,1.2,0.1,2.2,0.4,2.7s0.8,0.9,1.4,0.9
				c0.6,0,1.1-0.3,1.4-0.9s0.4-1.5,0.4-2.7s-0.1-2.1-0.4-2.7s-0.8-0.9-1.4-0.9c-0.6,0-1.1,0.3-1.4,0.8S441.7,161.8,441.7,163z"/>
		</g>
		<g>
			<path d="M392.7,299.1H391l-2.7-3.9l-0.8,0.7v3.2h-1.4v-8.6h1.4v4.1c0.4-0.5,0.8-0.9,1.1-1.4l2.3-2.7h1.6c-1.5,1.8-2.6,3-3.2,3.8
				L392.7,299.1z"/>
			<path d="M399.4,299.1H398v-4c0-0.5-0.1-0.9-0.3-1.1s-0.5-0.4-1-0.4c-0.6,0-1,0.2-1.3,0.5s-0.4,0.9-0.4,1.7v3.2h-1.4v-6.5h1.1
				l0.2,0.8h0.1c0.2-0.3,0.5-0.5,0.8-0.7s0.8-0.3,1.2-0.3c1.6,0,2.3,0.8,2.3,2.4V299.1z"/>
			<path d="M407,295.8c0,1.1-0.3,1.9-0.8,2.5s-1.3,0.9-2.3,0.9c-0.6,0-1.1-0.1-1.6-0.4s-0.8-0.7-1.1-1.2s-0.4-1.1-0.4-1.8
				c0-1.1,0.3-1.9,0.8-2.5s1.3-0.9,2.3-0.9c0.9,0,1.7,0.3,2.2,0.9S407,294.8,407,295.8z M402.3,295.8c0,1.5,0.6,2.2,1.7,2.2
				c1.1,0,1.6-0.7,1.6-2.2c0-1.5-0.6-2.2-1.7-2.2c-0.6,0-1,0.2-1.3,0.6S402.3,295.1,402.3,295.8z"/>
			<path d="M413.9,299.1l-0.8-3c-0.1-0.3-0.3-1.1-0.6-2.2h-0.1c-0.2,1.1-0.4,1.8-0.5,2.2l-0.9,3h-1.5l-1.8-6.5h1.4l0.8,3.2
				c0.2,0.8,0.3,1.5,0.4,2h0c0-0.3,0.1-0.6,0.2-1s0.1-0.6,0.2-0.8l1-3.4h1.5l1,3.4c0.1,0.2,0.1,0.5,0.2,0.9s0.1,0.7,0.2,0.9h0
				c0.1-0.5,0.2-1.2,0.4-2l0.8-3.2h1.4l-1.8,6.5H413.9z"/>
			<path d="M424.1,299.1h-1.4v-4c0-0.5-0.1-0.9-0.3-1.1s-0.5-0.4-1-0.4c-0.6,0-1,0.2-1.3,0.5s-0.4,0.9-0.4,1.7v3.2h-1.4v-6.5h1.1
				l0.2,0.8h0.1c0.2-0.3,0.5-0.5,0.8-0.7s0.8-0.3,1.2-0.3c1.6,0,2.3,0.8,2.3,2.4V299.1z"/>
			<path d="M436.4,299.1h-1.7l-4.2-6.8h0l0,0.4c0.1,0.7,0.1,1.4,0.1,2v4.5h-1.3v-8.6h1.7l4.2,6.8h0c0-0.1,0-0.4,0-1s0-1,0-1.3v-4.5
				h1.3V299.1z"/>
			<path d="M441.4,299.2c-1,0-1.8-0.3-2.4-0.9s-0.9-1.4-0.9-2.4c0-1.1,0.3-1.9,0.8-2.5s1.3-0.9,2.2-0.9c0.9,0,1.5,0.3,2,0.8
				s0.7,1.2,0.7,2.1v0.7h-4.3c0,0.6,0.2,1.1,0.5,1.5s0.8,0.5,1.4,0.5c0.4,0,0.7,0,1.1-0.1s0.7-0.2,1.1-0.4v1.1
				c-0.3,0.2-0.7,0.3-1,0.3S441.8,299.2,441.4,299.2z M441.1,293.5c-0.4,0-0.8,0.1-1.1,0.4s-0.4,0.7-0.5,1.2h2.9
				c0-0.5-0.1-0.9-0.4-1.2S441.6,293.5,441.1,293.5z"/>
			<path d="M447.9,298.1c0.3,0,0.7-0.1,1-0.2v1c-0.2,0.1-0.3,0.1-0.6,0.2s-0.5,0.1-0.7,0.1c-1.3,0-2-0.7-2-2.1v-3.5h-0.9V293
				l0.9-0.5l0.5-1.4h0.8v1.4h1.8v1H447v3.5c0,0.3,0.1,0.6,0.2,0.7S447.6,298.1,447.9,298.1z"/>
			<path d="M455.5,299.1l-0.8-3c-0.1-0.3-0.3-1.1-0.6-2.2H454c-0.2,1.1-0.4,1.8-0.5,2.2l-0.9,3h-1.5l-1.8-6.5h1.4l0.8,3.2
				c0.2,0.8,0.3,1.5,0.4,2h0c0-0.3,0.1-0.6,0.2-1s0.1-0.6,0.2-0.8l1-3.4h1.5l1,3.4c0.1,0.2,0.1,0.5,0.2,0.9s0.1,0.7,0.2,0.9h0
				c0.1-0.5,0.2-1.2,0.4-2l0.8-3.2h1.4l-1.8,6.5H455.5z"/>
			<path d="M465.7,295.8c0,1.1-0.3,1.9-0.8,2.5s-1.3,0.9-2.3,0.9c-0.6,0-1.1-0.1-1.6-0.4s-0.8-0.7-1.1-1.2s-0.4-1.1-0.4-1.8
				c0-1.1,0.3-1.9,0.8-2.5s1.3-0.9,2.3-0.9c0.9,0,1.7,0.3,2.2,0.9S465.7,294.8,465.7,295.8z M461,295.8c0,1.5,0.6,2.2,1.7,2.2
				c1.1,0,1.6-0.7,1.6-2.2c0-1.5-0.6-2.2-1.7-2.2c-0.6,0-1,0.2-1.3,0.6S461,295.1,461,295.8z"/>
			<path d="M470.6,292.5c0.3,0,0.5,0,0.7,0.1l-0.1,1.3c-0.2,0-0.4-0.1-0.6-0.1c-0.6,0-1,0.2-1.3,0.5s-0.5,0.8-0.5,1.4v3.4h-1.4v-6.5
				h1.1l0.2,1.1h0.1c0.2-0.4,0.5-0.7,0.8-0.9S470.2,292.5,470.6,292.5z"/>
			<path d="M473.8,295.6l0.8-1l2-2.1h1.6l-2.6,2.8l2.8,3.7h-1.6l-2.1-2.8l-0.8,0.6v2.2h-1.4v-9.1h1.4v4.4L473.8,295.6L473.8,295.6z"
				/>
			<path d="M483.7,297.2c0,0.6-0.2,1.1-0.7,1.5s-1.1,0.5-2,0.5c-0.9,0-1.6-0.1-2.1-0.4v-1.2c0.8,0.4,1.5,0.5,2.1,0.5
				c0.8,0,1.3-0.3,1.3-0.8c0-0.2,0-0.3-0.1-0.4s-0.2-0.2-0.5-0.3s-0.5-0.3-0.9-0.4c-0.7-0.3-1.3-0.6-1.5-0.9s-0.4-0.7-0.4-1.1
				c0-0.6,0.2-1,0.7-1.3s1.1-0.5,1.8-0.5c0.8,0,1.5,0.2,2.2,0.5l-0.4,1c-0.7-0.3-1.3-0.4-1.8-0.4c-0.7,0-1.1,0.2-1.1,0.6
				c0,0.2,0.1,0.4,0.3,0.5s0.6,0.3,1.2,0.6c0.5,0.2,0.9,0.4,1.2,0.6s0.4,0.4,0.5,0.6S483.7,296.9,483.7,297.2z"/>
			<path d="M485,293.3c0-0.6,0.3-0.9,0.9-0.9c0.3,0,0.5,0.1,0.7,0.2s0.2,0.4,0.2,0.7s-0.1,0.5-0.2,0.7s-0.4,0.2-0.6,0.2
				s-0.5-0.1-0.6-0.2S485,293.6,485,293.3z M485,298.3c0-0.3,0.1-0.5,0.2-0.7s0.4-0.2,0.6-0.2c0.3,0,0.5,0.1,0.7,0.2
				s0.2,0.4,0.2,0.6c0,0.3-0.1,0.5-0.2,0.7s-0.4,0.2-0.6,0.2s-0.5-0.1-0.6-0.2S485,298.6,485,298.3z"/>
			<path d="M389.2,313.5h-0.9v-6.1c0-0.5,0-1,0-1.4c-0.1,0.1-0.2,0.2-0.3,0.3s-0.6,0.5-1.4,1.1l-0.5-0.7l2.3-1.8h0.8V313.5z"/>
			<path d="M395.3,304.8c0.8,0,1.4,0.2,1.9,0.5s0.7,0.9,0.7,1.5c0,0.4-0.1,0.8-0.4,1.2s-0.7,0.7-1.3,0.9c0.7,0.3,1.2,0.7,1.5,1
				s0.4,0.8,0.4,1.3c0,0.7-0.2,1.3-0.7,1.7s-1.2,0.6-2,0.6c-0.9,0-1.6-0.2-2.1-0.6s-0.7-1-0.7-1.7c0-1,0.6-1.7,1.8-2.3
				c-0.5-0.3-0.9-0.6-1.2-1s-0.4-0.7-0.4-1.2c0-0.6,0.2-1.1,0.7-1.5S394.5,304.8,395.3,304.8z M393.4,311.3c0,0.5,0.2,0.8,0.5,1.1
				s0.8,0.4,1.4,0.4c0.6,0,1-0.1,1.4-0.4s0.5-0.6,0.5-1.1c0-0.4-0.2-0.7-0.5-1s-0.8-0.6-1.6-0.9c-0.6,0.3-1,0.5-1.3,0.8
				S393.4,310.9,393.4,311.3z M395.3,305.6c-0.5,0-0.9,0.1-1.1,0.4s-0.4,0.5-0.4,0.9c0,0.4,0.1,0.7,0.3,0.9s0.7,0.5,1.3,0.8
				c0.6-0.2,1-0.5,1.2-0.8s0.3-0.6,0.3-0.9c0-0.4-0.1-0.7-0.4-0.9S395.8,305.6,395.3,305.6z"/>
			<path d="M399.6,312.8c0-0.3,0.1-0.5,0.2-0.6s0.3-0.2,0.5-0.2c0.2,0,0.4,0.1,0.5,0.2s0.2,0.3,0.2,0.6c0,0.3-0.1,0.4-0.2,0.6
				s-0.3,0.2-0.5,0.2c-0.2,0-0.4-0.1-0.5-0.2S399.6,313.1,399.6,312.8z"/>
			<path d="M405.2,308.2c0.9,0,1.6,0.2,2.1,0.7s0.8,1.1,0.8,1.8c0,0.9-0.3,1.6-0.8,2.1s-1.3,0.8-2.3,0.8c-1,0-1.7-0.2-2.2-0.5v-0.9
				c0.3,0.2,0.6,0.3,1,0.4s0.8,0.1,1.2,0.1c0.7,0,1.2-0.2,1.6-0.5s0.6-0.8,0.6-1.4c0-1.2-0.7-1.8-2.2-1.8c-0.4,0-0.9,0.1-1.5,0.2
				l-0.5-0.3l0.3-4h4.3v0.9h-3.4l-0.2,2.6C404.3,308.3,404.7,308.2,405.2,308.2z"/>
			<path d="M409.7,312.8c0-0.3,0.1-0.5,0.2-0.6s0.3-0.2,0.5-0.2c0.2,0,0.4,0.1,0.5,0.2s0.2,0.3,0.2,0.6c0,0.3-0.1,0.4-0.2,0.6
				s-0.3,0.2-0.5,0.2c-0.2,0-0.4-0.1-0.5-0.2S409.7,313.1,409.7,312.8z"/>
			<path d="M413.6,313.5l3.6-7.7h-4.7v-0.9h5.7v0.8l-3.5,7.8H413.6z"/>
			<path d="M422.3,304.8c0.8,0,1.4,0.2,1.9,0.5s0.7,0.9,0.7,1.5c0,0.4-0.1,0.8-0.4,1.2s-0.7,0.7-1.3,0.9c0.7,0.3,1.2,0.7,1.5,1
				s0.4,0.8,0.4,1.3c0,0.7-0.2,1.3-0.7,1.7s-1.2,0.6-2,0.6c-0.9,0-1.6-0.2-2.1-0.6s-0.7-1-0.7-1.7c0-1,0.6-1.7,1.8-2.3
				c-0.5-0.3-0.9-0.6-1.2-1s-0.4-0.7-0.4-1.2c0-0.6,0.2-1.1,0.7-1.5S421.5,304.8,422.3,304.8z M420.4,311.3c0,0.5,0.2,0.8,0.5,1.1
				s0.8,0.4,1.4,0.4c0.6,0,1-0.1,1.4-0.4s0.5-0.6,0.5-1.1c0-0.4-0.2-0.7-0.5-1s-0.8-0.6-1.6-0.9c-0.6,0.3-1,0.5-1.3,0.8
				S420.4,310.9,420.4,311.3z M422.2,305.6c-0.5,0-0.9,0.1-1.1,0.4s-0.4,0.5-0.4,0.9c0,0.4,0.1,0.7,0.3,0.9s0.7,0.5,1.3,0.8
				c0.6-0.2,1-0.5,1.2-0.8s0.3-0.6,0.3-0.9c0-0.4-0.1-0.7-0.4-0.9S422.7,305.6,422.2,305.6z"/>
			<path d="M426.6,312.8c0-0.3,0.1-0.5,0.2-0.6s0.3-0.2,0.5-0.2c0.2,0,0.4,0.1,0.5,0.2s0.2,0.3,0.2,0.6c0,0.3-0.1,0.4-0.2,0.6
				s-0.3,0.2-0.5,0.2c-0.2,0-0.4-0.1-0.5-0.2S426.6,313.1,426.6,312.8z"/>
			<path d="M433.1,313.5h-0.9v-6.1c0-0.5,0-1,0-1.4c-0.1,0.1-0.2,0.2-0.3,0.3s-0.6,0.5-1.4,1.1l-0.5-0.7l2.3-1.8h0.8V313.5z"/>
			<path d="M442,313.5h-5.6v-0.8l2.3-2.3c0.7-0.7,1.1-1.2,1.4-1.5s0.4-0.6,0.5-0.9s0.2-0.6,0.2-0.9c0-0.5-0.1-0.8-0.4-1.1
				s-0.7-0.4-1.2-0.4c-0.4,0-0.7,0.1-1,0.2s-0.7,0.3-1.1,0.6l-0.5-0.7c0.8-0.7,1.6-1,2.6-1c0.8,0,1.4,0.2,1.9,0.6s0.7,1,0.7,1.7
				c0,0.5-0.2,1.1-0.5,1.6s-0.9,1.2-1.7,2l-1.9,1.8v0h4.4V313.5z"/>
			<path d="M446,304.8c0.8,0,1.4,0.2,1.9,0.5s0.7,0.9,0.7,1.5c0,0.4-0.1,0.8-0.4,1.2s-0.7,0.7-1.3,0.9c0.7,0.3,1.2,0.7,1.5,1
				s0.4,0.8,0.4,1.3c0,0.7-0.2,1.3-0.7,1.7s-1.2,0.6-2,0.6c-0.9,0-1.6-0.2-2.1-0.6s-0.7-1-0.7-1.7c0-1,0.6-1.7,1.8-2.3
				c-0.5-0.3-0.9-0.6-1.2-1s-0.4-0.7-0.4-1.2c0-0.6,0.2-1.1,0.7-1.5S445.3,304.8,446,304.8z M444.2,311.3c0,0.5,0.2,0.8,0.5,1.1
				s0.8,0.4,1.4,0.4c0.6,0,1-0.1,1.4-0.4s0.5-0.6,0.5-1.1c0-0.4-0.2-0.7-0.5-1s-0.8-0.6-1.6-0.9c-0.6,0.3-1,0.5-1.3,0.8
				S444.2,310.9,444.2,311.3z M446,305.6c-0.5,0-0.9,0.1-1.1,0.4s-0.4,0.5-0.4,0.9c0,0.4,0.1,0.7,0.3,0.9s0.7,0.5,1.3,0.8
				c0.6-0.2,1-0.5,1.2-0.8s0.3-0.6,0.3-0.9c0-0.4-0.1-0.7-0.4-0.9S446.5,305.6,446,305.6z"/>
			<path d="M453.8,304.9l-3.2,8.6h-1l3.2-8.6H453.8z"/>
			<path d="M460.1,313.5h-5.6v-0.8l2.3-2.3c0.7-0.7,1.1-1.2,1.4-1.5s0.4-0.6,0.5-0.9s0.2-0.6,0.2-0.9c0-0.5-0.1-0.8-0.4-1.1
				s-0.7-0.4-1.2-0.4c-0.4,0-0.7,0.1-1,0.2s-0.7,0.3-1.1,0.6l-0.5-0.7c0.8-0.7,1.6-1,2.6-1c0.8,0,1.4,0.2,1.9,0.6s0.7,1,0.7,1.7
				c0,0.5-0.2,1.1-0.5,1.6s-0.9,1.2-1.7,2l-1.9,1.8v0h4.4V313.5z"/>
			<path d="M467.4,311.5h-1.3v2h-0.9v-2H461v-0.8l4.1-5.8h1v5.8h1.3V311.5z M465.2,310.6v-2.8c0-0.6,0-1.2,0.1-1.9h0
				c-0.2,0.4-0.4,0.7-0.5,0.9l-2.7,3.8H465.2z"/>
		</g>
	</g>
</g>
</svg>
