<?xml version="1.0" encoding="utf-8"?>
<!-- Generator: Adobe Illustrator 19.2.0, SVG Export Plug-In . SVG Version: 6.00 Build 0)  -->
<svg version="1.1" id="Layer_1" xmlns="http://www.w3.org/2000/svg" xmlns:xlink="http://www.w3.org/1999/xlink" x="0px" y="0px"
	 viewBox="0 0 550 340" style="enable-background:new 0 0 550 340;" xml:space="preserve">
<style type="text/css">
	.st0{fill:#AD2523;}
	.st1{fill:#FFFFFF;}
	.st2{fill:#2B2B2B;}
</style>
<g>
	<g>
		
			<rect x="131.5" y="103" transform="matrix(0.1872 -0.9823 0.9823 0.1872 -70.3136 280.7855)" class="st0" width="6" height="159.7"/>
	</g>
	<g>
		<g>
			<path class="st0" d="M230.7,201.2c-9,1.5-20.4,4.8-27.9,9.2l7.7-13l-2.4-15C213.6,189.2,223,196.5,230.7,201.2z"/>
		</g>
	</g>
</g>
<g>
	<g>
		
			<rect x="87.7" y="85" transform="matrix(0.7544 -0.6564 0.6564 0.7544 -21.4532 118.7179)" class="st0" width="120.4" height="6"/>
	</g>
	<g>
		<g>
			<path class="st0" d="M88.8,139.4c4.4-8,8.8-19,10-27.6l5.5,14.2l13.3,7.4C108.9,133.3,97.3,136.2,88.8,139.4z"/>
		</g>
	</g>
</g>
<g>
	<g>
		
			<rect x="244.7" y="95.7" transform="matrix(0.8929 -0.4503 0.4503 0.8929 -43.8475 128.2998)" class="st0" width="6" height="121.2"/>
	</g>
	<g>
		<g>
			<path class="st0" d="M212.3,86c6.7,6.2,16.2,13.2,24.3,16.5l-15.1,1.8l-10.4,11C213.2,106.9,213.3,95,212.3,86z"/>
		</g>
	</g>
</g>
<g>
	<g>
		
			<rect x="393.7" y="188.5" transform="matrix(0.3379 -0.9412 0.9412 0.3379 23.0393 541.9109)" class="st0" width="6" height="132.2"/>
	</g>
	<g>
		<g>
			<path class="st0" d="M317.4,226.1c9.1-0.1,20.9-1.6,29-4.8l-9.7,11.7l0,15.2C332.5,240.6,324.4,232,317.4,226.1z"/>
		</g>
	</g>
</g>
<g>
	<g>
		<g>
			<ellipse class="st1" cx="458.9" cy="276.9" rx="41.6" ry="36.9"/>
		</g>
		<g>
			<path d="M458.9,317c-24.7,0-44.8-18-44.8-40.1s20.1-40.1,44.8-40.1s44.8,18,44.8,40.1S483.6,317,458.9,317z M458.9,243.2
				c-21.2,0-38.4,15.1-38.4,33.7s17.2,33.7,38.4,33.7s38.4-15.1,38.4-33.7S480.1,243.2,458.9,243.2z"/>
		</g>
	</g>
	<g>
		<g>
			<g>
				<g>
					<rect x="441.9" y="250.3" transform="matrix(0.8102 -0.5862 0.5862 0.8102 -66.5661 309.8248)" width="6.4" height="14.7"/>
				</g>
			</g>
			<g>
				<g>
					<g>
						<polygon points="441.5,266.4 456.1,273 454.5,257.1 						"/>
					</g>
				</g>
			</g>
		</g>
		<g>
			<g>
				<g>
					<rect x="439.5" y="280.9" transform="matrix(0.8343 -0.5513 0.5513 0.8343 -82.424 294.0501)" width="16.9" height="6.4"/>
				</g>
			</g>
			<g>
				<g>
					<g>
						<polygon points="438.5,280.8 431.3,295.1 447.3,294.2 						"/>
					</g>
				</g>
			</g>
		</g>
		<g>
			<g>
				<g>
					<rect x="469.7" y="288.8" transform="matrix(0.8101 -0.5862 0.5862 0.8101 -83.8263 333.4638)" width="6.4" height="14.7"/>
				</g>
			</g>
			<g>
				<g>
					<g>
						<polygon points="476.4,287.4 461.9,280.9 463.5,296.8 						"/>
					</g>
				</g>
			</g>
		</g>
		<g>
			<g>
				<g>
					<rect x="461.4" y="266.5" transform="matrix(0.8343 -0.5513 0.5513 0.8343 -70.8236 303.7194)" width="16.9" height="6.4"/>
				</g>
			</g>
			<g>
				<g>
					<g>
						<polygon points="479.3,273 486.5,258.7 470.5,259.6 						"/>
					</g>
				</g>
			</g>
		</g>
	</g>
</g>
<g>
	<g>
		<g>
			<ellipse class="st1" cx="275" cy="210.4" rx="41.6" ry="36.9"/>
		</g>
		<g>
			<path d="M275,250.5c-24.7,0-44.8-18-44.8-40.1s20.1-40.1,44.8-40.1s44.8,18,44.8,40.1S299.7,250.5,275,250.5z M275,176.7
				c-21.2,0-38.4,15.1-38.4,33.7s17.2,33.7,38.4,33.7s38.4-15.1,38.4-33.7S296.2,176.7,275,176.7z"/>
		</g>
	</g>
	<g>
		<g>
			<g>
				<g>
					<rect x="258" y="183.8" transform="matrix(0.8102 -0.5862 0.5862 0.8102 -62.4927 189.3944)" width="6.4" height="14.7"/>
				</g>
			</g>
			<g>
				<g>
					<g>
						<polygon points="257.6,199.9 272.2,206.5 270.6,190.6 						"/>
					</g>
				</g>
			</g>
		</g>
		<g>
			<g>
				<g>
					<rect x="255.6" y="214.4" transform="matrix(0.8343 -0.5513 0.5513 0.8343 -76.2324 181.642)" width="16.9" height="6.4"/>
				</g>
			</g>
			<g>
				<g>
					<g>
						<polygon points="254.6,214.3 247.4,228.6 263.4,227.7 						"/>
					</g>
				</g>
			</g>
		</g>
		<g>
			<g>
				<g>
					<rect x="285.8" y="222.3" transform="matrix(0.8101 -0.5862 0.5862 0.8101 -79.7553 213.0253)" width="6.4" height="14.7"/>
				</g>
			</g>
			<g>
				<g>
					<g>
						<polygon points="292.5,220.9 277.9,214.4 279.6,230.3 						"/>
					</g>
				</g>
			</g>
		</g>
		<g>
			<g>
				<g>
					<rect x="277.5" y="200" transform="matrix(0.8343 -0.5513 0.5513 0.8343 -64.632 191.3113)" width="16.9" height="6.4"/>
				</g>
			</g>
			<g>
				<g>
					<g>
						<polygon points="295.4,206.5 302.6,192.2 286.6,193.1 						"/>
					</g>
				</g>
			</g>
		</g>
	</g>
</g>
<g>
	<g>
		<g>
			<ellipse class="st1" cx="193.3" cy="48.5" rx="41.6" ry="36.9"/>
		</g>
		<g>
			<path d="M193.3,88.6c-24.7,0-44.8-18-44.8-40.1s20.1-40.1,44.8-40.1s44.8,18,44.8,40.1S218.1,88.6,193.3,88.6z M193.3,14.8
				c-21.2,0-38.4,15.1-38.4,33.7s17.2,33.7,38.4,33.7s38.4-15.1,38.4-33.7S214.5,14.8,193.3,14.8z"/>
		</g>
	</g>
	<g>
		<g>
			<g>
				<g>
					<rect x="176.3" y="21.9" transform="matrix(0.8102 -0.5862 0.5862 0.8102 16.9106 110.7904)" width="6.4" height="14.7"/>
				</g>
			</g>
			<g>
				<g>
					<g>
						<polygon points="176,38 190.6,44.6 188.9,28.7 						"/>
					</g>
				</g>
			</g>
		</g>
		<g>
			<g>
				<g>
					<rect x="174" y="52.5" transform="matrix(0.8343 -0.5513 0.5513 0.8343 -0.5072 109.795)" width="16.9" height="6.4"/>
				</g>
			</g>
			<g>
				<g>
					<g>
						<polygon points="172.9,52.4 165.8,66.7 181.7,65.8 						"/>
					</g>
				</g>
			</g>
		</g>
		<g>
			<g>
				<g>
					<rect x="204.1" y="60.4" transform="matrix(0.8101 -0.5862 0.5862 0.8101 -0.3483 134.4144)" width="6.4" height="14.7"/>
				</g>
			</g>
			<g>
				<g>
					<g>
						<polygon points="210.9,59 196.3,52.5 197.9,68.4 						"/>
					</g>
				</g>
			</g>
		</g>
		<g>
			<g>
				<g>
					<rect x="195.8" y="38.1" transform="matrix(0.8343 -0.5513 0.5513 0.8343 11.0932 119.4644)" width="16.9" height="6.4"/>
				</g>
			</g>
			<g>
				<g>
					<g>
						<polygon points="213.8,44.6 220.9,30.3 205,31.2 						"/>
					</g>
				</g>
			</g>
		</g>
	</g>
</g>
<g>
	<g>
		<g>
			<ellipse class="st1" cx="56.1" cy="167.9" rx="41.6" ry="36.9"/>
		</g>
		<g>
			<path d="M56.1,208c-24.7,0-44.8-18-44.8-40.1s20.1-40.1,44.8-40.1s44.8,18,44.8,40.1S80.8,208,56.1,208z M56.1,134.3
				c-21.2,0-38.4,15.1-38.4,33.7s17.2,33.7,38.4,33.7s38.4-15.1,38.4-33.7S77.2,134.3,56.1,134.3z"/>
		</g>
	</g>
	<g>
		<g>
			<g>
				<g>
					<rect x="39" y="141.4" transform="matrix(0.8102 -0.5862 0.5862 0.8102 -79.1526 52.9926)" width="6.4" height="14.7"/>
				</g>
			</g>
			<g>
				<g>
					<g>
						<polygon points="38.7,157.4 53.3,164 51.7,148.1 						"/>
					</g>
				</g>
			</g>
		</g>
		<g>
			<g>
				<g>
					<rect x="36.7" y="172" transform="matrix(0.8343 -0.5513 0.5513 0.8343 -89.0903 53.9046)" width="16.9" height="6.4"/>
				</g>
			</g>
			<g>
				<g>
					<g>
						<polygon points="35.6,171.9 28.5,186.2 44.4,185.2 						"/>
					</g>
				</g>
			</g>
		</g>
		<g>
			<g>
				<g>
					<rect x="66.9" y="179.8" transform="matrix(0.8101 -0.5862 0.5862 0.8101 -96.4192 76.6148)" width="6.4" height="14.7"/>
				</g>
			</g>
			<g>
				<g>
					<g>
						<polygon points="73.6,178.4 59,171.9 60.7,187.8 						"/>
					</g>
				</g>
			</g>
		</g>
		<g>
			<g>
				<g>
					<rect x="58.6" y="157.5" transform="matrix(0.8343 -0.5513 0.5513 0.8343 -77.4898 63.5739)" width="16.9" height="6.4"/>
				</g>
			</g>
			<g>
				<g>
					<g>
						<polygon points="76.5,164 83.7,149.7 67.7,150.7 						"/>
					</g>
				</g>
			</g>
		</g>
	</g>
</g>
<g>
	<g>
		<g>
			
				<rect x="385.9" y="214.6" transform="matrix(0.3372 -0.9414 0.9414 0.3372 43.9836 525.3929)" class="st1" width="18.4" height="33.7"/>
		</g>
		<g>
			<path class="st0" d="M374.6,235.1l7-19.6l34.2,12.4l-7,19.6L374.6,235.1z M383.3,218.8l-5.2,14.8l29.4,10.5l5.2-14.8L383.3,218.8
				z"/>
		</g>
	</g>
	<g>
		<g>
			<polygon class="st0" points="394.9,232.1 381.8,217.7 382.9,216.9 395.3,230.8 414.2,227.9 414.1,229.2 			"/>
		</g>
	</g>
</g>
<g>
	<g>
		<g>
			
				<rect x="255.8" y="124.3" transform="matrix(0.9038 -0.4279 0.4279 0.9038 -34.9277 126.9715)" class="st1" width="18.4" height="33.7"/>
		</g>
		<g>
			<path class="st0" d="M247.9,129.3l18.8-8.9l15.5,33l-18.8,8.9L247.9,129.3z M265.6,123.9l-14.1,6.8l13.4,28.2l14.1-6.8
				L265.6,123.9z"/>
		</g>
	</g>
	<g>
		<g>
			<polygon class="st0" points="264.4,141.5 265.3,122.1 266.7,122.2 265.6,140.8 281,152.1 280.1,153 			"/>
		</g>
	</g>
</g>
<g>
	<g>
		<g>
			
				<rect x="102.9" y="72.2" transform="matrix(0.7408 -0.6718 0.6718 0.7408 -23.6549 101.5565)" class="st1" width="33.7" height="18.4"/>
		</g>
		<g>
			<path class="st0" d="M113.3,101.3l-14-15.4l27-24.4l14,15.4L113.3,101.3z M103,85.9l10.6,11.5l23.1-21l-10.6-11.5L103,85.9z"/>
		</g>
	</g>
	<g>
		<g>
			<polygon class="st0" points="120.2,81.9 101.4,86.7 101.1,85.4 119.2,80.9 125.6,62.9 126.7,63.6 			"/>
		</g>
	</g>
</g>
<g>
	<g>
		<g>
			
				<rect x="134.1" y="191.1" transform="matrix(0.177 -0.9842 0.9842 0.177 -86.7594 312.2094)" class="st1" width="18.4" height="33.7"/>
		</g>
		<g>
			<path class="st0" d="M123.7,215l3.7-20.5l35.8,6.6l-3.7,20.5L123.7,215z M129.5,197.5l-2.6,15.4l30.8,5.5l2.6-15.4L129.5,197.5z"
				/>
		</g>
	</g>
	<g>
		<g>
			<polygon class="st0" points="143.2,208.6 127.9,196.6 128.8,195.6 143.4,207.3 161.5,201.3 161.7,202.6 			"/>
		</g>
	</g>
</g>
<g>
	<g>
		<path class="st2" d="M387,207.5h-2.1v-8.3h-2.7v-1.8h7.6v1.8H387V207.5z"/>
	</g>
	<g>
		<path class="st2" d="M395.2,207.5H393v-8.3h-2.7v-1.8h7.6v1.8h-2.7V207.5z"/>
	</g>
	<g>
		<path class="st2" d="M399.4,207.5v-10.1h2.1v8.3h4.1v1.8H399.4z"/>
	</g>
	<g>
		<path class="st2" d="M413.8,201.2c1,0,1.8,0.3,2.4,0.8c0.6,0.5,0.9,1.3,0.9,2.2c0,1.1-0.3,1.9-1,2.5c-0.7,0.6-1.6,0.9-2.9,0.9
			c-1.1,0-2-0.2-2.7-0.5v-1.5c0.4,0.2,0.8,0.4,1.3,0.5c0.5,0.1,0.9,0.2,1.3,0.2c0.7,0,1.3-0.2,1.7-0.5c0.4-0.3,0.6-0.8,0.6-1.4
			c0-1.2-0.8-1.8-2.3-1.8c-0.2,0-0.5,0-0.8,0.1c-0.3,0-0.6,0.1-0.8,0.1l-0.7-0.4l0.4-4.9h5.2v1.4h-3.8l-0.2,2.5
			c0.2,0,0.4-0.1,0.6-0.1C413.2,201.2,413.5,201.2,413.8,201.2z"/>
	</g>
	<g>
		<path class="st2" d="M424.9,199.7c0,0.6-0.2,1.2-0.6,1.6c-0.4,0.4-0.9,0.7-1.6,0.9v0.1c0.8,0.1,1.4,0.4,1.8,0.8
			c0.4,0.4,0.6,0.9,0.6,1.6c0,1-0.3,1.7-1,2.2c-0.7,0.5-1.7,0.8-2.9,0.8c-1.1,0-2.1-0.2-2.8-0.5v-1.4c0.4,0.2,0.9,0.4,1.4,0.5
			s0.9,0.2,1.4,0.2c0.8,0,1.4-0.1,1.7-0.4c0.4-0.3,0.6-0.7,0.6-1.3c0-0.5-0.2-0.9-0.6-1.2s-1.1-0.4-2-0.4H420v-1.3h0.9
			c1.6,0,2.4-0.6,2.4-1.7c0-0.4-0.1-0.8-0.4-1c-0.3-0.2-0.7-0.4-1.2-0.4c-0.4,0-0.7,0.1-1.1,0.2c-0.4,0.1-0.8,0.3-1.3,0.6l-0.8-1.1
			c0.9-0.7,2-1,3.2-1c1,0,1.8,0.2,2.4,0.7C424.6,198.4,424.9,199,424.9,199.7z"/>
	</g>
</g>
<g>
	<g>
		<path class="st2" d="M287.4,131.1h-2.1v-8.3h-2.7V121h7.6v1.8h-2.7V131.1z"/>
	</g>
	<g>
		<path class="st2" d="M295.5,131.1h-2.1v-8.3h-2.7V121h7.6v1.8h-2.7V131.1z"/>
	</g>
	<g>
		<path class="st2" d="M299.8,131.1V121h2.1v8.3h4.1v1.8H299.8z"/>
	</g>
	<g>
		<path class="st2" d="M314.2,124.8c1,0,1.8,0.3,2.4,0.8c0.6,0.5,0.9,1.3,0.9,2.2c0,1.1-0.3,1.9-1,2.5c-0.7,0.6-1.6,0.9-2.9,0.9
			c-1.1,0-2-0.2-2.7-0.5v-1.5c0.4,0.2,0.8,0.4,1.3,0.5c0.5,0.1,0.9,0.2,1.3,0.2c0.7,0,1.3-0.2,1.7-0.5c0.4-0.3,0.6-0.8,0.6-1.4
			c0-1.2-0.8-1.8-2.3-1.8c-0.2,0-0.5,0-0.8,0.1c-0.3,0-0.6,0.1-0.8,0.1l-0.7-0.4l0.4-4.9h5.2v1.4H313l-0.2,2.5
			c0.2,0,0.4-0.1,0.6-0.1C313.6,124.8,313.9,124.8,314.2,124.8z"/>
	</g>
	<g>
		<path class="st2" d="M325.7,131.1h-6.8v-1.2l2.6-2.6c0.8-0.8,1.3-1.3,1.5-1.7c0.3-0.3,0.4-0.6,0.5-0.9c0.1-0.3,0.2-0.6,0.2-0.9
			c0-0.5-0.1-0.8-0.4-1.1c-0.3-0.3-0.7-0.4-1.1-0.4c-0.4,0-0.8,0.1-1.1,0.2s-0.8,0.4-1.3,0.8l-0.9-1.1c0.6-0.5,1.1-0.8,1.6-1
			c0.5-0.2,1.1-0.3,1.7-0.3c0.9,0,1.7,0.2,2.3,0.7s0.8,1.1,0.8,2c0,0.5-0.1,0.9-0.2,1.3c-0.2,0.4-0.4,0.8-0.8,1.3
			c-0.3,0.4-0.9,1-1.7,1.8l-1.7,1.7v0.1h4.8V131.1z"/>
	</g>
</g>
<g>
	<g>
		<path class="st2" d="M72.9,64.9h-2.1v-8.3H68v-1.8h7.6v1.8h-2.7V64.9z"/>
	</g>
	<g>
		<path class="st2" d="M81,64.9h-2.1v-8.3h-2.7v-1.8h7.6v1.8H81V64.9z"/>
	</g>
	<g>
		<path class="st2" d="M85.3,64.9V54.9h2.1v8.3h4.1v1.8H85.3z"/>
	</g>
	<g>
		<path class="st2" d="M99.7,58.6c1,0,1.8,0.3,2.4,0.8c0.6,0.5,0.9,1.3,0.9,2.2c0,1.1-0.3,1.9-1,2.5c-0.7,0.6-1.6,0.9-2.9,0.9
			c-1.1,0-2-0.2-2.7-0.5v-1.5c0.4,0.2,0.8,0.4,1.3,0.5c0.5,0.1,0.9,0.2,1.3,0.2c0.7,0,1.3-0.2,1.7-0.5c0.4-0.3,0.6-0.8,0.6-1.4
			c0-1.2-0.8-1.8-2.3-1.8c-0.2,0-0.5,0-0.8,0.1c-0.3,0-0.6,0.1-0.8,0.1l-0.7-0.4l0.4-4.9h5.2v1.4h-3.8l-0.2,2.5
			c0.2,0,0.4-0.1,0.6-0.1C99.1,58.7,99.4,58.6,99.7,58.6z"/>
	</g>
	<g>
		<path class="st2" d="M109.1,64.9h-1.6v-6.5c0-0.8,0-1.4,0.1-1.8c-0.1,0.1-0.2,0.2-0.4,0.4c-0.2,0.1-0.7,0.6-1.5,1.3l-0.8-1l3-2.3
			h1.3V64.9z"/>
	</g>
</g>
<g>
	<g>
		<path class="st2" d="M116.8,238.1h-2.1v-8.3h-2.7V228h7.6v1.8h-2.7V238.1z"/>
	</g>
	<g>
		<path class="st2" d="M124.9,238.1h-2.1v-8.3h-2.7V228h7.6v1.8h-2.7V238.1z"/>
	</g>
	<g>
		<path class="st2" d="M129.2,238.1V228h2.1v8.3h4.1v1.8H129.2z"/>
	</g>
	<g>
		<path class="st2" d="M143.6,231.8c1,0,1.8,0.3,2.4,0.8c0.6,0.5,0.9,1.3,0.9,2.2c0,1.1-0.3,1.9-1,2.5c-0.7,0.6-1.6,0.9-2.9,0.9
			c-1.1,0-2-0.2-2.7-0.5v-1.5c0.4,0.2,0.8,0.4,1.3,0.5c0.5,0.1,0.9,0.2,1.3,0.2c0.7,0,1.3-0.2,1.7-0.5c0.4-0.3,0.6-0.8,0.6-1.4
			c0-1.2-0.8-1.8-2.3-1.8c-0.2,0-0.5,0-0.8,0.1c-0.3,0-0.6,0.1-0.8,0.1l-0.7-0.4l0.4-4.9h5.2v1.4h-3.8l-0.2,2.5
			c0.2,0,0.4-0.1,0.6-0.1C143,231.8,143.3,231.8,143.6,231.8z"/>
	</g>
	<g>
		<path class="st2" d="M155.1,233.1c0,1.7-0.3,3-0.8,3.9c-0.6,0.8-1.4,1.3-2.6,1.3c-1.1,0-2-0.4-2.5-1.3c-0.6-0.9-0.9-2.2-0.9-3.9
			c0-1.8,0.3-3.1,0.8-3.9s1.4-1.3,2.6-1.3c1.1,0,2,0.4,2.6,1.3S155.1,231.4,155.1,233.1z M149.9,233.1c0,1.4,0.1,2.4,0.4,2.9
			c0.3,0.6,0.7,0.9,1.4,0.9c0.6,0,1.1-0.3,1.4-0.9s0.4-1.6,0.4-2.9c0-1.3-0.1-2.3-0.4-2.9c-0.3-0.6-0.7-0.9-1.4-0.9
			c-0.6,0-1.1,0.3-1.4,0.9S149.9,231.7,149.9,233.1z"/>
	</g>
</g>
<g>
	<g>
		<path d="M274.5,43.7v4.9h-2.7V35.8h3.7c1.7,0,3,0.3,3.9,1s1.3,1.6,1.3,2.9c0,0.8-0.2,1.4-0.6,2s-1,1.1-1.8,1.4
			c1.9,2.9,3.2,4.8,3.8,5.6h-3l-3.1-4.9H274.5z M274.5,41.5h0.9c0.9,0,1.5-0.1,1.9-0.4s0.6-0.7,0.6-1.4c0-0.6-0.2-1-0.6-1.3
			s-1.1-0.4-1.9-0.4h-0.8V41.5z"/>
	</g>
	<g>
		<path d="M292.3,43.7c0,1.6-0.4,2.9-1.3,3.8s-2,1.4-3.5,1.4c-0.9,0-1.8-0.2-2.5-0.6s-1.3-1-1.7-1.8s-0.6-1.7-0.6-2.7
			c0-1.6,0.4-2.9,1.3-3.7s2-1.3,3.5-1.3c0.9,0,1.8,0.2,2.5,0.6s1.3,1,1.7,1.8S292.3,42.6,292.3,43.7z M285.5,43.7
			c0,1,0.2,1.7,0.5,2.2s0.8,0.7,1.6,0.7c0.7,0,1.2-0.2,1.5-0.7s0.5-1.2,0.5-2.2c0-1-0.2-1.7-0.5-2.2s-0.8-0.7-1.6-0.7
			c-0.7,0-1.2,0.2-1.5,0.7S285.5,42.7,285.5,43.7z"/>
	</g>
	<g>
		<path d="M301.5,48.6l-0.4-1.3H301c-0.3,0.5-0.7,0.8-1.2,1.1s-1.1,0.4-1.8,0.4c-1.2,0-2-0.3-2.6-0.9s-0.9-1.5-0.9-2.7v-6.4h2.7v5.7
			c0,0.7,0.1,1.2,0.4,1.6s0.7,0.5,1.2,0.5c0.8,0,1.3-0.3,1.6-0.8s0.5-1.3,0.5-2.5v-4.6h2.7v9.8H301.5z"/>
	</g>
	<g>
		<path d="M310.5,46.6c0.5,0,1-0.1,1.7-0.3v2c-0.7,0.3-1.5,0.4-2.5,0.4c-1.1,0-1.9-0.3-2.3-0.8s-0.7-1.4-0.7-2.4v-4.7h-1.3v-1.1
			l1.5-0.9l0.8-2.1h1.7v2.1h2.8v2h-2.8v4.7c0,0.4,0.1,0.7,0.3,0.8S310.2,46.6,310.5,46.6z"/>
	</g>
	<g>
		<path d="M314.1,36.2c0-0.9,0.5-1.3,1.5-1.3s1.5,0.4,1.5,1.3c0,0.4-0.1,0.7-0.4,1s-0.6,0.3-1.1,0.3
			C314.6,37.6,314.1,37.1,314.1,36.2z M316.9,48.6h-2.7v-9.8h2.7V48.6z"/>
	</g>
	<g>
		<path d="M328.8,48.6h-2.7v-5.7c0-0.7-0.1-1.2-0.4-1.6s-0.7-0.5-1.2-0.5c-0.8,0-1.3,0.3-1.6,0.8s-0.5,1.3-0.5,2.5v4.6h-2.7v-9.8h2
			l0.4,1.3h0.1c0.3-0.5,0.7-0.8,1.2-1.1s1.1-0.4,1.8-0.4c1.1,0,2,0.3,2.6,0.9s0.9,1.5,0.9,2.7V48.6z"/>
	</g>
	<g>
		<path d="M340.1,38.8v1.4l-1.5,0.4c0.3,0.4,0.4,0.9,0.4,1.5c0,1.1-0.4,1.9-1.1,2.5s-1.8,0.9-3.1,0.9l-0.5,0l-0.4,0
			c-0.3,0.2-0.4,0.4-0.4,0.7c0,0.4,0.5,0.6,1.5,0.6h1.7c1.1,0,1.9,0.2,2.5,0.7s0.8,1.1,0.8,2c0,1.1-0.5,2-1.4,2.7s-2.3,0.9-4.1,0.9
			c-1.4,0-2.4-0.2-3.1-0.7s-1.1-1.1-1.1-2c0-0.6,0.2-1.1,0.6-1.5s0.9-0.7,1.6-0.9c-0.3-0.1-0.5-0.3-0.7-0.6s-0.3-0.5-0.3-0.8
			c0-0.4,0.1-0.7,0.3-0.9s0.5-0.5,0.9-0.7c-0.5-0.2-0.9-0.6-1.2-1.1s-0.5-1.1-0.5-1.7c0-1.1,0.3-1.9,1-2.5s1.7-0.9,3-0.9
			c0.3,0,0.6,0,1,0.1s0.6,0.1,0.7,0.1H340.1z M332.5,50c0,0.4,0.2,0.7,0.5,0.9s0.9,0.3,1.5,0.3c1,0,1.7-0.1,2.3-0.4s0.8-0.6,0.8-1.1
			c0-0.4-0.2-0.6-0.5-0.8s-0.8-0.2-1.5-0.2h-1.4c-0.5,0-0.9,0.1-1.2,0.3S332.5,49.6,332.5,50z M333.5,42c0,0.5,0.1,1,0.4,1.3
			s0.6,0.5,1.1,0.5c0.5,0,0.9-0.2,1.1-0.5s0.4-0.7,0.4-1.3c0-1.2-0.5-1.8-1.5-1.8C334,40.2,333.5,40.8,333.5,42z"/>
	</g>
	<g>
		<path d="M346.6,48.6V35.8h2.7v10.6h5.2v2.3H346.6z"/>
	</g>
	<g>
		<path d="M365.5,43.7c0,1.6-0.4,2.9-1.3,3.8s-2,1.4-3.5,1.4c-0.9,0-1.8-0.2-2.5-0.6s-1.3-1-1.7-1.8s-0.6-1.7-0.6-2.7
			c0-1.6,0.4-2.9,1.3-3.7s2-1.3,3.5-1.3c0.9,0,1.8,0.2,2.5,0.6s1.3,1,1.7,1.8S365.5,42.6,365.5,43.7z M358.7,43.7
			c0,1,0.2,1.7,0.5,2.2s0.8,0.7,1.6,0.7c0.7,0,1.2-0.2,1.5-0.7s0.5-1.2,0.5-2.2c0-1-0.2-1.7-0.5-2.2s-0.8-0.7-1.6-0.7
			c-0.7,0-1.2,0.2-1.5,0.7S358.7,42.7,358.7,43.7z"/>
	</g>
	<g>
		<path d="M376.6,43.7c0,1.6-0.4,2.9-1.3,3.8s-2,1.4-3.5,1.4c-0.9,0-1.8-0.2-2.5-0.6s-1.3-1-1.7-1.8s-0.6-1.7-0.6-2.7
			c0-1.6,0.4-2.9,1.3-3.7s2-1.3,3.5-1.3c0.9,0,1.8,0.2,2.5,0.6s1.3,1,1.7,1.8S376.6,42.6,376.6,43.7z M369.8,43.7
			c0,1,0.2,1.7,0.5,2.2s0.8,0.7,1.6,0.7c0.7,0,1.2-0.2,1.5-0.7s0.5-1.2,0.5-2.2c0-1-0.2-1.7-0.5-2.2s-0.8-0.7-1.6-0.7
			c-0.7,0-1.2,0.2-1.5,0.7S369.8,42.7,369.8,43.7z"/>
	</g>
	<g>
		<path d="M384.2,48.8c-1.2,0-2.1-0.4-2.7-1.3h-0.1c0.1,0.8,0.1,1.3,0.1,1.4v4h-2.7V38.8h2.2l0.4,1.3h0.1c0.6-1,1.6-1.5,2.8-1.5
			c1.2,0,2.1,0.4,2.7,1.3s1,2.1,1,3.7c0,1-0.2,2-0.5,2.7c-0.3,0.8-0.7,1.4-1.3,1.8S385,48.8,384.2,48.8z M383.4,40.7
			c-0.7,0-1.1,0.2-1.5,0.6s-0.5,1.1-0.5,2v0.3c0,1.1,0.2,1.8,0.5,2.3s0.8,0.7,1.5,0.7c1.2,0,1.8-1,1.8-3c0-1-0.1-1.7-0.4-2.2
			C384.5,41,384.1,40.7,383.4,40.7z"/>
	</g>
	<g>
		<path d="M394,44.9v-2.2h4.7v2.2H394z"/>
	</g>
	<g>
		<path d="M408.2,48.6h-2.7V35.8h7.4V38h-4.7v3.3h4.4v2.2h-4.4V48.6z"/>
	</g>
	<g>
		<path d="M415.1,36.2c0-0.9,0.5-1.3,1.5-1.3s1.5,0.4,1.5,1.3c0,0.4-0.1,0.7-0.4,1c-0.2,0.2-0.6,0.3-1.1,0.3
			C415.6,37.6,415.1,37.1,415.1,36.2z M417.9,48.6h-2.7v-9.8h2.7V48.6z"/>
	</g>
	<g>
		<path d="M426.2,38.6c0.4,0,0.7,0,0.9,0.1l-0.2,2.5c-0.2-0.1-0.5-0.1-0.8-0.1c-0.9,0-1.5,0.2-2,0.7s-0.7,1.1-0.7,1.8v5h-2.7v-9.8h2
			l0.4,1.7h0.1c0.3-0.6,0.7-1,1.2-1.3C425,38.8,425.6,38.6,426.2,38.6z"/>
	</g>
	<g>
		<path d="M435.8,45.7c0,1-0.4,1.8-1.1,2.3s-1.7,0.8-3.1,0.8c-0.7,0-1.3,0-1.8-0.1s-1-0.2-1.4-0.4V46c0.5,0.2,1.1,0.4,1.7,0.6
			c0.6,0.2,1.2,0.2,1.6,0.2c1,0,1.5-0.3,1.5-0.8c0-0.2-0.1-0.4-0.2-0.5s-0.4-0.3-0.7-0.4s-0.7-0.4-1.3-0.6c-0.8-0.3-1.3-0.6-1.7-0.9
			c-0.4-0.3-0.6-0.6-0.8-0.9c-0.2-0.3-0.2-0.8-0.2-1.3c0-0.9,0.3-1.5,1-2c0.7-0.5,1.6-0.7,2.9-0.7c1.2,0,2.3,0.3,3.5,0.8l-0.8,1.9
			c-0.5-0.2-1-0.4-1.4-0.5s-0.9-0.2-1.3-0.2c-0.8,0-1.2,0.2-1.2,0.6c0,0.2,0.1,0.4,0.4,0.6c0.3,0.2,0.8,0.4,1.7,0.8
			c0.8,0.3,1.3,0.6,1.7,0.9s0.6,0.6,0.8,0.9S435.8,45.2,435.8,45.7z"/>
	</g>
	<g>
		<path d="M442,46.6c0.5,0,1-0.1,1.7-0.3v2c-0.7,0.3-1.5,0.4-2.5,0.4c-1.1,0-1.9-0.3-2.3-0.8s-0.7-1.4-0.7-2.4v-4.7h-1.3v-1.1
			l1.5-0.9l0.8-2.1h1.7v2.1h2.8v2h-2.8v4.7c0,0.4,0.1,0.7,0.3,0.8S441.6,46.6,442,46.6z"/>
	</g>
	<g>
		<path d="M450.5,48.6V35.8h2.7v12.8H450.5z"/>
	</g>
	<g>
		<path d="M460.4,46.6c0.5,0,1-0.1,1.7-0.3v2c-0.7,0.3-1.5,0.4-2.5,0.4c-1.1,0-1.9-0.3-2.3-0.8s-0.7-1.4-0.7-2.4v-4.7h-1.3v-1.1
			l1.5-0.9l0.8-2.1h1.7v2.1h2.8v2h-2.8v4.7c0,0.4,0.1,0.7,0.3,0.8S460.1,46.6,460.4,46.6z"/>
	</g>
	<g>
		<path d="M468.6,48.8c-1.6,0-2.8-0.4-3.7-1.3s-1.3-2.1-1.3-3.7c0-1.6,0.4-2.9,1.2-3.8s2-1.3,3.4-1.3c1.4,0,2.5,0.4,3.2,1.2
			s1.2,1.9,1.2,3.3v1.3h-6.3c0,0.8,0.3,1.4,0.7,1.8s1,0.6,1.8,0.6c0.6,0,1.2-0.1,1.7-0.2s1.1-0.3,1.7-0.6v2.1
			c-0.5,0.2-1,0.4-1.5,0.5S469.3,48.8,468.6,48.8z M468.2,40.5c-0.6,0-1,0.2-1.3,0.5s-0.5,0.9-0.6,1.5h3.8c0-0.7-0.2-1.2-0.5-1.5
			S468.7,40.5,468.2,40.5z"/>
	</g>
	<g>
		<path d="M480.2,38.6c0.4,0,0.7,0,0.9,0.1l-0.2,2.5c-0.2-0.1-0.5-0.1-0.8-0.1c-0.9,0-1.5,0.2-2,0.7s-0.7,1.1-0.7,1.8v5h-2.7v-9.8h2
			l0.4,1.7h0.1c0.3-0.6,0.7-1,1.2-1.3C479.1,38.8,479.6,38.6,480.2,38.6z"/>
	</g>
	<g>
		<path d="M489.2,48.6l-0.5-1.3h-0.1c-0.5,0.6-0.9,1-1.4,1.2s-1.1,0.3-1.9,0.3c-0.9,0-1.7-0.3-2.2-0.8s-0.8-1.3-0.8-2.3
			c0-1,0.4-1.8,1.1-2.3c0.7-0.5,1.8-0.8,3.3-0.8l1.7-0.1v-0.4c0-1-0.5-1.5-1.5-1.5c-0.8,0-1.7,0.2-2.8,0.7l-0.9-1.8
			c1.1-0.6,2.4-0.9,3.8-0.9c1.3,0,2.3,0.3,3,0.9s1.1,1.4,1.1,2.6v6.5H489.2z M488.4,44.1l-1,0c-0.8,0-1.4,0.2-1.7,0.4
			s-0.6,0.7-0.6,1.2c0,0.8,0.4,1.1,1.3,1.1c0.6,0,1.1-0.2,1.5-0.5s0.6-0.8,0.6-1.4V44.1z"/>
	</g>
	<g>
		<path d="M497.9,46.6c0.5,0,1-0.1,1.7-0.3v2c-0.7,0.3-1.5,0.4-2.5,0.4c-1.1,0-1.9-0.3-2.3-0.8s-0.7-1.4-0.7-2.4v-4.7h-1.3v-1.1
			l1.5-0.9l0.8-2.1h1.7v2.1h2.8v2h-2.8v4.7c0,0.4,0.1,0.7,0.3,0.8S497.6,46.6,497.9,46.6z"/>
	</g>
	<g>
		<path d="M501.5,36.2c0-0.9,0.5-1.3,1.5-1.3s1.5,0.4,1.5,1.3c0,0.4-0.1,0.7-0.4,1c-0.2,0.2-0.6,0.3-1.1,0.3
			C502,37.6,501.5,37.1,501.5,36.2z M504.3,48.6h-2.7v-9.8h2.7V48.6z"/>
	</g>
	<g>
		<path d="M516,43.7c0,1.6-0.4,2.9-1.3,3.8s-2,1.4-3.5,1.4c-0.9,0-1.8-0.2-2.5-0.6s-1.3-1-1.7-1.8s-0.6-1.7-0.6-2.7
			c0-1.6,0.4-2.9,1.3-3.7s2-1.3,3.5-1.3c0.9,0,1.8,0.2,2.5,0.6s1.3,1,1.7,1.8S516,42.6,516,43.7z M509.2,43.7c0,1,0.2,1.7,0.5,2.2
			c0.3,0.5,0.8,0.7,1.6,0.7c0.7,0,1.2-0.2,1.5-0.7s0.5-1.2,0.5-2.2c0-1-0.2-1.7-0.5-2.2s-0.8-0.7-1.6-0.7c-0.7,0-1.2,0.2-1.5,0.7
			S509.2,42.7,509.2,43.7z"/>
	</g>
	<g>
		<path d="M527.3,48.6h-2.7v-5.7c0-0.7-0.1-1.2-0.4-1.6s-0.7-0.5-1.2-0.5c-0.8,0-1.3,0.3-1.6,0.8s-0.5,1.3-0.5,2.5v4.6h-2.7v-9.8h2
			l0.4,1.3h0.1c0.3-0.5,0.7-0.8,1.2-1.1c0.5-0.2,1.1-0.4,1.8-0.4c1.1,0,2,0.3,2.6,0.9s0.9,1.5,0.9,2.7V48.6z"/>
	</g>
</g>
<g>
	<g>
		<path class="st0" d="M542,336.2l-7-5.1l2.9-4l7,5.1L542,336.2z M528.1,326.1l-7-5.1l2.9-4l7,5.1L528.1,326.1z M514.2,316l-6.7-4.9
			l2.9-4l6.7,4.9L514.2,316z"/>
	</g>
	<g>
		<g>
			<path class="st0" d="M496.8,300.2c7.3,2,17.1,3.6,24.3,3l-10.5,7.1l-3.5,12.1C505.4,315.3,500.9,306.5,496.8,300.2z"/>
		</g>
	</g>
</g>
</svg>
