<?xml version="1.0" encoding="utf-8"?>
<!-- Generator: Adobe Illustrator 19.2.0, SVG Export Plug-In . SVG Version: 6.00 Build 0)  -->
<svg version="1.1" id="Layer_1" xmlns="http://www.w3.org/2000/svg" xmlns:xlink="http://www.w3.org/1999/xlink" x="0px" y="0px"
	 viewBox="0 0 550 260" style="enable-background:new 0 0 550 260;" xml:space="preserve">
<style type="text/css">
	.st0{fill:#484AB8;}
	.st1{fill:#FFFFFF;}
</style>
<g>
	<g>
		<rect x="112.3" y="110.7" class="st0" width="316.3" height="8"/>
	</g>
	<g>
		<g>
			<g>
				<ellipse class="st1" cx="112.3" cy="114.7" rx="52.1" ry="46.1"/>
			</g>
			<g>
				<path d="M112.3,164.9c-30.9,0-56.1-22.5-56.1-50.1s25.2-50.1,56.1-50.1s56.1,22.5,56.1,50.1S143.3,164.9,112.3,164.9z
					 M112.3,72.6c-26.5,0-48,18.9-48,42.1s21.6,42.1,48,42.1s48-18.9,48-42.1S138.8,72.6,112.3,72.6z"/>
			</g>
		</g>
		<g>
			<g>
				<g>
					<g>
						<rect x="91" y="81.5" transform="matrix(0.8102 -0.5862 0.5862 0.8102 -35.0944 72.9231)" width="8" height="18.4"/>
					</g>
				</g>
				<g>
					<g>
						<g>
							<polygon points="90.6,101.6 108.9,109.8 106.8,89.9 							"/>
						</g>
					</g>
				</g>
			</g>
			<g>
				<g>
					<g>
						<rect x="88.1" y="119.7" transform="matrix(0.8343 -0.5513 0.5513 0.8343 -51.875 74.8946)" width="21.1" height="8"/>
					</g>
				</g>
				<g>
					<g>
						<g>
							<polygon points="86.8,119.6 77.8,137.5 97.8,136.3 							"/>
						</g>
					</g>
				</g>
			</g>
			<g>
				<g>
					<g>
						<rect x="125.8" y="129.6" transform="matrix(0.8101 -0.5862 0.5862 0.8101 -56.6927 102.4765)" width="8" height="18.4"/>
					</g>
				</g>
				<g>
					<g>
						<g>
							<polygon points="134.3,127.8 116,119.7 118.1,139.6 							"/>
						</g>
					</g>
				</g>
			</g>
			<g>
				<g>
					<g>
						<rect x="115.5" y="101.6" transform="matrix(0.8343 -0.5513 0.5513 0.8343 -37.3614 86.9922)" width="21.1" height="8"/>
					</g>
				</g>
				<g>
					<g>
						<g>
							<polygon points="137.9,109.8 146.9,91.9 126.9,93.1 							"/>
						</g>
					</g>
				</g>
			</g>
		</g>
	</g>
	<g>
		<g>
			<g>
				<ellipse class="st1" cx="428.7" cy="114.7" rx="52.1" ry="46.1"/>
			</g>
			<g>
				<path d="M428.7,164.9c-30.9,0-56.1-22.5-56.1-50.1s25.2-50.1,56.1-50.1s56.1,22.5,56.1,50.1S459.6,164.9,428.7,164.9z
					 M428.7,72.6c-26.5,0-48,18.9-48,42.1s21.6,42.1,48,42.1c26.5,0,48-18.9,48-42.1S455.1,72.6,428.7,72.6z"/>
			</g>
		</g>
		<g>
			<g>
				<g>
					<g>
						<rect x="407.3" y="81.5" transform="matrix(0.8102 -0.5862 0.5862 0.8102 24.9536 258.346)" width="8" height="18.4"/>
					</g>
				</g>
				<g>
					<g>
						<g>
							<polygon points="406.9,101.6 425.2,109.8 423.1,89.9 							"/>
						</g>
					</g>
				</g>
			</g>
			<g>
				<g>
					<g>
						<rect x="404.4" y="119.7" transform="matrix(0.8343 -0.5513 0.5513 0.8343 0.5383 249.2804)" width="21.1" height="8"/>
					</g>
				</g>
				<g>
					<g>
						<g>
							<polygon points="403.1,119.6 394.1,137.5 414.1,136.3 							"/>
						</g>
					</g>
				</g>
			</g>
			<g>
				<g>
					<g>
						<rect x="442.2" y="129.6" transform="matrix(0.8101 -0.5862 0.5862 0.8101 3.3633 287.9105)" width="8" height="18.4"/>
					</g>
				</g>
				<g>
					<g>
						<g>
							<polygon points="450.6,127.8 432.3,119.7 434.4,139.6 							"/>
						</g>
					</g>
				</g>
			</g>
			<g>
				<g>
					<g>
						<rect x="431.8" y="101.6" transform="matrix(0.8343 -0.5513 0.5513 0.8343 15.0519 261.378)" width="21.1" height="8"/>
					</g>
				</g>
				<g>
					<g>
						<g>
							<polygon points="454.2,109.8 463.2,91.9 443.2,93.1 							"/>
						</g>
					</g>
				</g>
			</g>
		</g>
	</g>
	<g>
		<path d="M59,202.5h-2.5l-4.1-6l-1.3,1v4.9h-2.2v-13.2h2.2v6.3c0.6-0.7,1.2-1.4,1.8-2.1l3.6-4.2h2.5c-2.3,2.7-4,4.6-5,5.8L59,202.5
			z"/>
		<path d="M69.3,202.5h-2.1v-6.1c0-0.8-0.2-1.3-0.5-1.7c-0.3-0.4-0.8-0.6-1.5-0.6c-0.9,0-1.6,0.3-2,0.8c-0.4,0.5-0.6,1.4-0.6,2.7v5
			h-2.1v-10h1.7l0.3,1.3h0.1c0.3-0.5,0.7-0.8,1.3-1.1c0.6-0.3,1.2-0.4,1.8-0.4c2.4,0,3.6,1.2,3.6,3.7V202.5z"/>
		<path d="M81.1,197.5c0,1.6-0.4,2.9-1.3,3.8c-0.8,0.9-2,1.4-3.5,1.4c-0.9,0-1.8-0.2-2.5-0.6s-1.3-1-1.7-1.8
			c-0.4-0.8-0.6-1.7-0.6-2.7c0-1.6,0.4-2.9,1.2-3.8c0.8-0.9,2-1.4,3.5-1.4c1.4,0,2.6,0.5,3.4,1.4C80.7,194.6,81.1,195.9,81.1,197.5z
			 M73.8,197.5c0,2.3,0.9,3.5,2.6,3.5c1.7,0,2.5-1.2,2.5-3.5c0-2.3-0.8-3.4-2.5-3.4c-0.9,0-1.5,0.3-1.9,0.9
			C74,195.5,73.8,196.3,73.8,197.5z"/>
		<path d="M91.8,202.5l-1.3-4.7c-0.2-0.5-0.4-1.6-0.8-3.4h-0.1c-0.3,1.6-0.6,2.8-0.8,3.5l-1.3,4.6H85l-2.8-10h2.2l1.3,4.9
			c0.3,1.2,0.5,2.3,0.6,3.1h0.1c0.1-0.4,0.2-0.9,0.3-1.5c0.1-0.6,0.2-1,0.3-1.3l1.5-5.3h2.3l1.5,5.3c0.1,0.3,0.2,0.7,0.3,1.4
			c0.1,0.6,0.2,1.1,0.2,1.4h0.1c0.1-0.7,0.3-1.8,0.6-3.1l1.3-4.9H97l-2.8,10H91.8z"/>
		<path d="M107.5,202.5h-2.1v-6.1c0-0.8-0.2-1.3-0.5-1.7c-0.3-0.4-0.8-0.6-1.5-0.6c-0.9,0-1.6,0.3-2,0.8c-0.4,0.5-0.6,1.4-0.6,2.7v5
			h-2.1v-10h1.7l0.3,1.3h0.1c0.3-0.5,0.7-0.8,1.3-1.1c0.6-0.3,1.2-0.4,1.8-0.4c2.4,0,3.6,1.2,3.6,3.7V202.5z"/>
		<path d="M126.5,202.5h-2.6l-6.5-10.5h-0.1l0,0.6c0.1,1.1,0.1,2.1,0.1,3.1v6.9h-2v-13.2h2.6l6.5,10.5h0.1c0-0.1,0-0.6-0.1-1.5
			c0-0.9-0.1-1.5-0.1-2v-6.9h2V202.5z"/>
		<path d="M134.1,202.6c-1.6,0-2.8-0.5-3.6-1.4c-0.9-0.9-1.3-2.2-1.3-3.7c0-1.6,0.4-2.9,1.2-3.8c0.8-0.9,1.9-1.4,3.4-1.4
			c1.3,0,2.4,0.4,3.1,1.2c0.8,0.8,1.1,1.9,1.1,3.3v1.1h-6.7c0,1,0.3,1.7,0.8,2.2c0.5,0.5,1.2,0.8,2.1,0.8c0.6,0,1.1-0.1,1.6-0.2
			c0.5-0.1,1.1-0.3,1.6-0.6v1.7c-0.5,0.2-1,0.4-1.6,0.5C135.4,202.6,134.8,202.6,134.1,202.6z M133.7,193.9c-0.7,0-1.2,0.2-1.6,0.6
			c-0.4,0.4-0.6,1.1-0.7,1.9h4.5c0-0.8-0.2-1.5-0.6-1.9C134.9,194.1,134.4,193.9,133.7,193.9z"/>
		<path d="M144.1,200.9c0.5,0,1-0.1,1.6-0.2v1.6c-0.2,0.1-0.5,0.2-0.9,0.3s-0.8,0.1-1.2,0.1c-2,0-3-1.1-3-3.2v-5.4h-1.4v-0.9
			l1.5-0.8l0.7-2.1h1.3v2.2h2.8v1.6h-2.8v5.3c0,0.5,0.1,0.9,0.4,1.1C143.4,200.8,143.7,200.9,144.1,200.9z"/>
		<path d="M155.9,202.5l-1.3-4.7c-0.2-0.5-0.4-1.6-0.8-3.4h-0.1c-0.3,1.6-0.6,2.8-0.8,3.5l-1.3,4.6h-2.3l-2.8-10h2.2l1.3,4.9
			c0.3,1.2,0.5,2.3,0.6,3.1h0.1c0.1-0.4,0.2-0.9,0.3-1.5c0.1-0.6,0.2-1,0.3-1.3l1.5-5.3h2.3l1.5,5.3c0.1,0.3,0.2,0.7,0.3,1.4
			c0.1,0.6,0.2,1.1,0.2,1.4h0.1c0.1-0.7,0.3-1.8,0.6-3.1l1.3-4.9h2.1l-2.8,10H155.9z"/>
		<path d="M171.7,197.5c0,1.6-0.4,2.9-1.3,3.8c-0.8,0.9-2,1.4-3.5,1.4c-0.9,0-1.8-0.2-2.5-0.6s-1.3-1-1.7-1.8
			c-0.4-0.8-0.6-1.7-0.6-2.7c0-1.6,0.4-2.9,1.2-3.8c0.8-0.9,2-1.4,3.5-1.4c1.4,0,2.6,0.5,3.4,1.4
			C171.2,194.6,171.7,195.9,171.7,197.5z M164.4,197.5c0,2.3,0.9,3.5,2.6,3.5c1.7,0,2.5-1.2,2.5-3.5c0-2.3-0.8-3.4-2.5-3.4
			c-0.9,0-1.5,0.3-1.9,0.9C164.6,195.5,164.4,196.3,164.4,197.5z"/>
		<path d="M179.2,192.3c0.4,0,0.8,0,1.1,0.1l-0.2,2c-0.3-0.1-0.6-0.1-0.9-0.1c-0.8,0-1.5,0.3-2.1,0.8c-0.5,0.6-0.8,1.3-0.8,2.2v5.2
			h-2.1v-10h1.7l0.3,1.8h0.1c0.3-0.6,0.8-1.1,1.3-1.4S178.6,192.3,179.2,192.3z"/>
		<path d="M184.1,197.2l1.2-1.5l3-3.2h2.4l-4,4.3l4.3,5.7h-2.5l-3.2-4.4l-1.2,1v3.4h-2.1v-14.1h2.1v6.9L184.1,197.2L184.1,197.2z"/>
		<path d="M199.4,199.6c0,1-0.4,1.7-1.1,2.2c-0.7,0.5-1.7,0.8-3.1,0.8c-1.3,0-2.4-0.2-3.2-0.6v-1.8c1.2,0.5,2.3,0.8,3.3,0.8
			c1.3,0,2-0.4,2-1.2c0-0.3-0.1-0.5-0.2-0.6s-0.4-0.3-0.7-0.5c-0.3-0.2-0.8-0.4-1.4-0.6c-1.2-0.4-1.9-0.9-2.3-1.3
			c-0.4-0.4-0.6-1-0.6-1.7c0-0.9,0.3-1.5,1-2c0.7-0.5,1.6-0.7,2.8-0.7c1.2,0,2.3,0.2,3.3,0.7l-0.7,1.6c-1.1-0.4-2-0.7-2.7-0.7
			c-1.1,0-1.7,0.3-1.7,1c0,0.3,0.1,0.6,0.4,0.8s0.9,0.5,1.9,0.9c0.8,0.3,1.4,0.6,1.8,0.9c0.4,0.3,0.7,0.6,0.8,0.9
			C199.3,198.7,199.4,199.1,199.4,199.6z"/>
		<path d="M201.4,193.6c0-0.9,0.4-1.4,1.3-1.4c0.5,0,0.8,0.1,1,0.4c0.2,0.2,0.3,0.6,0.3,1s-0.1,0.8-0.3,1s-0.6,0.4-1,0.4
			c-0.4,0-0.8-0.1-1-0.4S201.4,194.1,201.4,193.6z M201.4,201.3c0-0.4,0.1-0.8,0.3-1c0.2-0.2,0.6-0.4,1-0.4c0.4,0,0.8,0.1,1,0.4
			c0.2,0.2,0.3,0.6,0.3,1c0,0.4-0.1,0.8-0.3,1s-0.6,0.4-1,0.4c-0.4,0-0.8-0.1-1-0.4S201.4,201.8,201.4,201.3z"/>
		<path d="M53.6,224.7h-1.5v-9.4c0-0.8,0-1.5,0.1-2.2c-0.1,0.1-0.3,0.3-0.4,0.4c-0.2,0.1-0.9,0.7-2.2,1.8l-0.8-1l3.5-2.7h1.3V224.7z
			"/>
		<path d="M63,211.3c1.2,0,2.2,0.3,2.9,0.8c0.7,0.6,1.1,1.3,1.1,2.3c0,0.7-0.2,1.2-0.6,1.8c-0.4,0.5-1,1-1.9,1.5
			c1.1,0.5,1.8,1,2.3,1.6c0.5,0.6,0.7,1.2,0.7,2c0,1.1-0.4,2-1.1,2.6c-0.8,0.7-1.8,1-3.1,1c-1.4,0-2.5-0.3-3.3-0.9
			c-0.8-0.6-1.1-1.5-1.1-2.6c0-1.5,0.9-2.7,2.8-3.5c-0.8-0.5-1.4-1-1.8-1.5c-0.4-0.5-0.5-1.2-0.5-1.8c0-1,0.4-1.7,1.1-2.3
			S61.8,211.3,63,211.3z M60.2,221.3c0,0.7,0.3,1.3,0.8,1.7c0.5,0.4,1.2,0.6,2.1,0.6c0.9,0,1.6-0.2,2.1-0.6c0.5-0.4,0.8-1,0.8-1.7
			c0-0.6-0.2-1.1-0.7-1.6c-0.5-0.5-1.3-0.9-2.5-1.3c-0.9,0.4-1.5,0.8-2,1.3S60.2,220.7,60.2,221.3z M63,212.5
			c-0.8,0-1.3,0.2-1.8,0.5s-0.6,0.8-0.6,1.4c0,0.6,0.2,1,0.5,1.4s1,0.8,2,1.2c0.9-0.4,1.5-0.8,1.8-1.2c0.4-0.4,0.5-0.9,0.5-1.5
			c0-0.6-0.2-1.1-0.7-1.5C64.4,212.7,63.8,212.5,63,212.5z"/>
		<path d="M69.7,223.7c0-0.4,0.1-0.7,0.3-0.9c0.2-0.2,0.4-0.3,0.8-0.3c0.3,0,0.6,0.1,0.8,0.3s0.3,0.5,0.3,0.9c0,0.4-0.1,0.7-0.3,0.9
			s-0.5,0.3-0.8,0.3c-0.3,0-0.6-0.1-0.8-0.3S69.7,224.2,69.7,223.7z"/>
		<path d="M78.3,216.6c1.4,0,2.5,0.3,3.3,1c0.8,0.7,1.2,1.6,1.2,2.8c0,1.4-0.4,2.4-1.3,3.2c-0.9,0.8-2.1,1.2-3.6,1.2
			c-1.5,0-2.6-0.2-3.4-0.7v-1.4c0.4,0.3,0.9,0.5,1.6,0.6c0.6,0.2,1.2,0.2,1.9,0.2c1.1,0,1.9-0.3,2.5-0.8s0.9-1.2,0.9-2.2
			c0-1.8-1.1-2.8-3.4-2.8c-0.6,0-1.3,0.1-2.3,0.3l-0.8-0.5l0.5-6.2h6.6v1.4h-5.3l-0.3,4C76.9,216.7,77.6,216.6,78.3,216.6z"/>
		<path d="M85.2,223.7c0-0.4,0.1-0.7,0.3-0.9c0.2-0.2,0.4-0.3,0.8-0.3c0.3,0,0.6,0.1,0.8,0.3s0.3,0.5,0.3,0.9c0,0.4-0.1,0.7-0.3,0.9
			s-0.5,0.3-0.8,0.3c-0.3,0-0.6-0.1-0.8-0.3S85.2,224.2,85.2,223.7z"/>
		<path d="M91.3,224.7l5.5-11.8h-7.2v-1.4h8.8v1.2l-5.4,12H91.3z"/>
		<path d="M104.6,211.3c1.2,0,2.2,0.3,2.9,0.8c0.7,0.6,1.1,1.3,1.1,2.3c0,0.7-0.2,1.2-0.6,1.8c-0.4,0.5-1,1-1.9,1.5
			c1.1,0.5,1.8,1,2.3,1.6c0.5,0.6,0.7,1.2,0.7,2c0,1.1-0.4,2-1.1,2.6c-0.8,0.7-1.8,1-3.1,1c-1.4,0-2.5-0.3-3.3-0.9
			c-0.8-0.6-1.1-1.5-1.1-2.6c0-1.5,0.9-2.7,2.8-3.5c-0.8-0.5-1.4-1-1.8-1.5c-0.4-0.5-0.5-1.2-0.5-1.8c0-1,0.4-1.7,1.1-2.3
			S103.4,211.3,104.6,211.3z M101.8,221.3c0,0.7,0.3,1.3,0.8,1.7c0.5,0.4,1.2,0.6,2.1,0.6c0.9,0,1.6-0.2,2.1-0.6
			c0.5-0.4,0.8-1,0.8-1.7c0-0.6-0.2-1.1-0.7-1.6c-0.5-0.5-1.3-0.9-2.5-1.3c-0.9,0.4-1.5,0.8-2,1.3S101.8,220.7,101.8,221.3z
			 M104.6,212.5c-0.8,0-1.3,0.2-1.8,0.5s-0.6,0.8-0.6,1.4c0,0.6,0.2,1,0.5,1.4s1,0.8,2,1.2c0.9-0.4,1.5-0.8,1.8-1.2
			c0.4-0.4,0.5-0.9,0.5-1.5c0-0.6-0.2-1.1-0.7-1.5C106,212.7,105.4,212.5,104.6,212.5z"/>
		<path d="M111.3,223.7c0-0.4,0.1-0.7,0.3-0.9c0.2-0.2,0.4-0.3,0.8-0.3c0.3,0,0.6,0.1,0.8,0.3s0.3,0.5,0.3,0.9
			c0,0.4-0.1,0.7-0.3,0.9s-0.5,0.3-0.8,0.3c-0.3,0-0.6-0.1-0.8-0.3S111.3,224.2,111.3,223.7z"/>
		<path d="M124.5,218.1c0,2.3-0.4,4-1.1,5.1s-1.8,1.7-3.3,1.7c-1.4,0-2.5-0.6-3.2-1.7c-0.7-1.2-1.1-2.8-1.1-5.1c0-2.3,0.4-4,1.1-5.1
			c0.7-1.1,1.8-1.7,3.3-1.7c1.4,0,2.5,0.6,3.3,1.7C124.1,214.2,124.5,215.8,124.5,218.1z M117.3,218.1c0,1.9,0.2,3.3,0.7,4.2
			c0.5,0.9,1.2,1.3,2.2,1.3c1,0,1.7-0.4,2.2-1.3c0.4-0.9,0.7-2.3,0.7-4.2s-0.2-3.3-0.7-4.2c-0.4-0.9-1.2-1.3-2.2-1.3
			c-1,0-1.7,0.4-2.2,1.3C117.5,214.7,117.3,216.1,117.3,218.1z"/>
		<path d="M132,211.5l-4.9,13.2h-1.5l4.9-13.2H132z"/>
		<path d="M141.8,224.7h-8.7v-1.3l3.5-3.5c1.1-1.1,1.8-1.8,2.1-2.3s0.6-0.9,0.8-1.3c0.2-0.4,0.3-0.9,0.3-1.4c0-0.7-0.2-1.3-0.6-1.7
			c-0.4-0.4-1-0.6-1.8-0.6c-0.5,0-1.1,0.1-1.6,0.3c-0.5,0.2-1,0.5-1.6,1l-0.8-1c1.2-1,2.5-1.5,4-1.5c1.2,0,2.2,0.3,2.9,1
			c0.7,0.6,1.1,1.5,1.1,2.6c0,0.8-0.2,1.7-0.7,2.5c-0.5,0.8-1.3,1.9-2.6,3.1l-2.9,2.8v0.1h6.8V224.7z"/>
		<path d="M153,221.6h-2v3h-1.4v-3h-6.4v-1.3l6.3-8.9h1.6v8.9h2V221.6z M149.6,220.3v-4.4c0-0.9,0-1.8,0.1-2.9h-0.1
			c-0.3,0.6-0.6,1.1-0.8,1.4l-4.1,5.9H149.6z"/>
	</g>
	<g>
		<path d="M55.4,25.3v8.6h-3.5V12.4H58c2.8,0,4.8,0.5,6.2,1.6c1.3,1,2,2.6,2,4.7c0,2.7-1.4,4.6-4.2,5.7l6.1,9.5h-4l-5.1-8.6H55.4z
			 M55.4,22.4h2.4c1.6,0,2.8-0.3,3.6-0.9c0.7-0.6,1.1-1.5,1.1-2.7c0-1.2-0.4-2.1-1.2-2.6c-0.8-0.5-2-0.8-3.6-0.8h-2.3V22.4z"/>
		<path d="M85.2,25.7c0,2.7-0.7,4.7-2,6.2c-1.4,1.5-3.3,2.2-5.7,2.2c-1.5,0-2.9-0.3-4-1s-2.1-1.7-2.7-3s-0.9-2.8-0.9-4.5
			c0-2.6,0.7-4.7,2-6.2c1.4-1.5,3.3-2.2,5.7-2.2c2.4,0,4.2,0.8,5.6,2.3S85.2,23.2,85.2,25.7z M73.3,25.7c0,3.8,1.4,5.6,4.2,5.6
			c2.7,0,4.1-1.9,4.1-5.6c0-3.7-1.4-5.6-4.1-5.6c-1.4,0-2.5,0.5-3.2,1.4S73.3,23.9,73.3,25.7z"/>
		<path d="M100.6,33.9l-0.5-2.1h-0.2c-0.5,0.8-1.2,1.3-2,1.8c-0.9,0.4-1.9,0.6-3,0.6c-2,0-3.4-0.5-4.4-1.5S89,30.2,89,28.3V17.6h3.5
			v10c0,1.2,0.3,2.2,0.8,2.8s1.3,0.9,2.4,0.9c1.4,0,2.5-0.4,3.2-1.3c0.7-0.9,1-2.3,1-4.4v-8.1h3.5v16.3H100.6z"/>
		<path d="M114.3,31.4c0.8,0,1.7-0.1,2.5-0.4v2.6c-0.4,0.2-0.9,0.3-1.5,0.4s-1.2,0.2-1.9,0.2c-3.3,0-4.9-1.7-4.9-5.2v-8.8h-2.2v-1.5
			l2.4-1.3l1.2-3.4h2.1v3.6h4.6v2.6H112v8.7c0,0.8,0.2,1.4,0.6,1.8S113.6,31.4,114.3,31.4z"/>
		<path d="M127.2,34.2c-2.5,0-4.5-0.7-5.9-2.2s-2.1-3.5-2.1-6.1c0-2.7,0.7-4.7,2-6.3c1.3-1.5,3.1-2.3,5.5-2.3c2.1,0,3.8,0.7,5.1,2
			s1.9,3.1,1.9,5.4v1.9h-10.8c0,1.6,0.5,2.8,1.3,3.6c0.8,0.8,1.9,1.3,3.4,1.3c1,0,1.9-0.1,2.7-0.3c0.8-0.2,1.7-0.5,2.7-0.9v2.8
			c-0.8,0.4-1.7,0.7-2.6,0.9C129.3,34.1,128.3,34.2,127.2,34.2z M126.5,20c-1.1,0-2,0.3-2.6,1c-0.7,0.7-1.1,1.7-1.2,3h7.4
			c0-1.3-0.3-2.4-1-3C128.5,20.3,127.6,20,126.5,20z"/>
		<path d="M145.7,17.3c0.7,0,1.3,0,1.7,0.1l-0.3,3.2c-0.5-0.1-1-0.2-1.5-0.2c-1.4,0-2.5,0.5-3.4,1.4c-0.9,0.9-1.3,2.1-1.3,3.5v8.5
			h-3.5V17.6h2.7l0.5,2.9h0.2c0.5-1,1.2-1.7,2.1-2.3C143.7,17.6,144.7,17.3,145.7,17.3z"/>
		<path d="M171.9,33.9l-2.1-6h-8.2l-2.1,6h-3.7l8-21.6h3.8l8,21.6H171.9z M168.8,24.9l-2-5.8c-0.1-0.4-0.4-1-0.6-1.9
			c-0.3-0.8-0.4-1.5-0.5-1.9c-0.3,1.2-0.7,2.5-1.2,4l-1.9,5.6H168.8z"/>
	</g>
	<g>
		<path d="M371.7,25.3v8.6h-3.5V12.4h6.1c2.8,0,4.8,0.5,6.2,1.6c1.3,1,2,2.6,2,4.7c0,2.7-1.4,4.6-4.2,5.7l6.1,9.5h-4l-5.1-8.6H371.7
			z M371.7,22.4h2.4c1.6,0,2.8-0.3,3.6-0.9s1.1-1.5,1.1-2.7c0-1.2-0.4-2.1-1.2-2.6c-0.8-0.5-2-0.8-3.6-0.8h-2.3V22.4z"/>
		<path d="M401.5,25.7c0,2.7-0.7,4.7-2,6.2c-1.4,1.5-3.3,2.2-5.7,2.2c-1.5,0-2.9-0.3-4-1s-2.1-1.7-2.7-3c-0.6-1.3-0.9-2.8-0.9-4.5
			c0-2.6,0.7-4.7,2-6.2c1.4-1.5,3.3-2.2,5.7-2.2c2.4,0,4.2,0.8,5.6,2.3C400.8,21.1,401.5,23.2,401.5,25.7z M389.7,25.7
			c0,3.8,1.4,5.6,4.2,5.6c2.7,0,4.1-1.9,4.1-5.6c0-3.7-1.4-5.6-4.1-5.6c-1.5,0-2.5,0.5-3.2,1.4S389.7,23.9,389.7,25.7z"/>
		<path d="M416.9,33.9l-0.5-2.1h-0.2c-0.5,0.8-1.2,1.3-2,1.8s-1.9,0.6-3,0.6c-2,0-3.4-0.5-4.4-1.5s-1.5-2.5-1.5-4.5V17.6h3.5v10
			c0,1.2,0.3,2.2,0.8,2.8c0.5,0.6,1.3,0.9,2.4,0.9c1.5,0,2.5-0.4,3.2-1.3c0.7-0.9,1-2.3,1-4.4v-8.1h3.5v16.3H416.9z"/>
		<path d="M430.6,31.4c0.8,0,1.7-0.1,2.5-0.4v2.6c-0.4,0.2-0.9,0.3-1.5,0.4s-1.2,0.2-1.9,0.2c-3.3,0-4.9-1.7-4.9-5.2v-8.8h-2.2v-1.5
			l2.4-1.3l1.2-3.4h2.1v3.6h4.6v2.6h-4.6v8.7c0,0.8,0.2,1.4,0.6,1.8S429.9,31.4,430.6,31.4z"/>
		<path d="M443.5,34.2c-2.5,0-4.5-0.7-5.9-2.2c-1.4-1.5-2.1-3.5-2.1-6.1c0-2.7,0.7-4.7,2-6.3c1.3-1.5,3.1-2.3,5.5-2.3
			c2.1,0,3.8,0.7,5.1,2s1.9,3.1,1.9,5.4v1.9H439c0,1.6,0.5,2.8,1.3,3.6c0.8,0.8,1.9,1.3,3.4,1.3c1,0,1.9-0.1,2.7-0.3
			c0.8-0.2,1.7-0.5,2.7-0.9v2.8c-0.8,0.4-1.7,0.7-2.6,0.9C445.6,34.1,444.6,34.2,443.5,34.2z M442.9,20c-1.1,0-2,0.3-2.6,1
			s-1.1,1.7-1.2,3h7.4c0-1.3-0.3-2.4-1-3S444,20,442.9,20z"/>
		<path d="M462,17.3c0.7,0,1.3,0,1.7,0.1l-0.3,3.2c-0.5-0.1-1-0.2-1.5-0.2c-1.4,0-2.5,0.5-3.4,1.4c-0.9,0.9-1.3,2.1-1.3,3.5v8.5
			h-3.5V17.6h2.7l0.5,2.9h0.2c0.5-1,1.2-1.7,2.1-2.3C460,17.6,461,17.3,462,17.3z"/>
		<path d="M474.9,12.4h6.4c3,0,5.1,0.4,6.4,1.3c1.3,0.9,2,2.2,2,4.1c0,1.3-0.3,2.3-1,3.1c-0.6,0.8-1.6,1.4-2.8,1.6v0.1
			c1.5,0.3,2.6,0.8,3.3,1.7c0.7,0.8,1.1,2,1.1,3.4c0,1.9-0.7,3.4-2,4.5c-1.3,1.1-3.2,1.6-5.6,1.6h-7.8V12.4z M478.4,21.3h3.4
			c1.5,0,2.5-0.2,3.2-0.7s1-1.3,1-2.4c0-1-0.4-1.7-1.1-2.2s-1.9-0.7-3.5-0.7h-3V21.3z M478.4,24.1v6.8h3.7c1.5,0,2.6-0.3,3.3-0.8
			c0.7-0.6,1.1-1.5,1.1-2.7c0-1.1-0.4-1.9-1.1-2.5c-0.8-0.5-1.9-0.8-3.5-0.8H478.4z"/>
	</g>
	<g>
		<path d="M374.8,202.5h-2.5l-4.1-6l-1.3,1v4.9h-2.2v-13.2h2.2v6.3c0.6-0.7,1.2-1.4,1.8-2.1l3.6-4.2h2.5c-2.3,2.7-4,4.6-5,5.8
			L374.8,202.5z"/>
		<path d="M385.1,202.5H383v-6.1c0-0.8-0.2-1.3-0.5-1.7c-0.3-0.4-0.8-0.6-1.5-0.6c-0.9,0-1.6,0.3-2,0.8c-0.4,0.5-0.6,1.4-0.6,2.7v5
			h-2.1v-10h1.7l0.3,1.3h0.1c0.3-0.5,0.7-0.8,1.3-1.1c0.6-0.3,1.2-0.4,1.8-0.4c2.4,0,3.6,1.2,3.6,3.7V202.5z"/>
		<path d="M396.9,197.5c0,1.6-0.4,2.9-1.3,3.8c-0.8,0.9-2,1.4-3.5,1.4c-0.9,0-1.8-0.2-2.5-0.6c-0.7-0.4-1.3-1-1.7-1.8
			s-0.6-1.7-0.6-2.7c0-1.6,0.4-2.9,1.2-3.8c0.8-0.9,2-1.4,3.5-1.4c1.4,0,2.6,0.5,3.4,1.4C396.5,194.6,396.9,195.9,396.9,197.5z
			 M389.7,197.5c0,2.3,0.9,3.5,2.6,3.5c1.7,0,2.5-1.2,2.5-3.5c0-2.3-0.8-3.4-2.5-3.4c-0.9,0-1.5,0.3-1.9,0.9
			C389.9,195.5,389.7,196.3,389.7,197.5z"/>
		<path d="M407.6,202.5l-1.3-4.7c-0.2-0.5-0.4-1.6-0.8-3.4h-0.1c-0.3,1.6-0.6,2.8-0.8,3.5l-1.3,4.6h-2.3l-2.8-10h2.2l1.3,4.9
			c0.3,1.2,0.5,2.3,0.6,3.1h0.1c0.1-0.4,0.2-0.9,0.3-1.5c0.1-0.6,0.2-1,0.3-1.3l1.5-5.3h2.3l1.5,5.3c0.1,0.3,0.2,0.7,0.3,1.4
			s0.2,1.1,0.2,1.4h0.1c0.1-0.7,0.3-1.8,0.6-3.1l1.3-4.9h2.1l-2.8,10H407.6z"/>
		<path d="M423.3,202.5h-2.1v-6.1c0-0.8-0.2-1.3-0.5-1.7c-0.3-0.4-0.8-0.6-1.5-0.6c-0.9,0-1.6,0.3-2,0.8c-0.4,0.5-0.6,1.4-0.6,2.7v5
			h-2.1v-10h1.7l0.3,1.3h0.1c0.3-0.5,0.7-0.8,1.3-1.1c0.6-0.3,1.2-0.4,1.8-0.4c2.4,0,3.6,1.2,3.6,3.7V202.5z"/>
		<path d="M442.3,202.5h-2.6l-6.5-10.5h-0.1l0,0.6c0.1,1.1,0.1,2.1,0.1,3.1v6.9h-2v-13.2h2.6l6.5,10.5h0.1c0-0.1,0-0.6-0.1-1.5
			c0-0.9-0.1-1.5-0.1-2v-6.9h2V202.5z"/>
		<path d="M449.9,202.6c-1.6,0-2.8-0.5-3.6-1.4c-0.9-0.9-1.3-2.2-1.3-3.7c0-1.6,0.4-2.9,1.2-3.8c0.8-0.9,1.9-1.4,3.4-1.4
			c1.3,0,2.4,0.4,3.1,1.2c0.8,0.8,1.1,1.9,1.1,3.3v1.1h-6.7c0,1,0.3,1.7,0.8,2.2c0.5,0.5,1.2,0.8,2.1,0.8c0.6,0,1.1-0.1,1.6-0.2
			c0.5-0.1,1.1-0.3,1.6-0.6v1.7c-0.5,0.2-1,0.4-1.6,0.5C451.2,202.6,450.6,202.6,449.9,202.6z M449.5,193.9c-0.7,0-1.2,0.2-1.6,0.6
			c-0.4,0.4-0.6,1.1-0.7,1.9h4.5c0-0.8-0.2-1.5-0.6-1.9C450.7,194.1,450.2,193.9,449.5,193.9z"/>
		<path d="M459.9,200.9c0.5,0,1-0.1,1.6-0.2v1.6c-0.2,0.1-0.5,0.2-0.9,0.3c-0.4,0.1-0.8,0.1-1.2,0.1c-2,0-3-1.1-3-3.2v-5.4h-1.4
			v-0.9l1.5-0.8l0.7-2.1h1.3v2.2h2.8v1.6h-2.8v5.3c0,0.5,0.1,0.9,0.4,1.1C459.2,200.8,459.5,200.9,459.9,200.9z"/>
		<path d="M471.7,202.5l-1.3-4.7c-0.2-0.5-0.4-1.6-0.8-3.4h-0.1c-0.3,1.6-0.6,2.8-0.8,3.5l-1.3,4.6H465l-2.8-10h2.2l1.3,4.9
			c0.3,1.2,0.5,2.3,0.6,3.1h0.1c0.1-0.4,0.2-0.9,0.3-1.5c0.1-0.6,0.2-1,0.3-1.3l1.5-5.3h2.3l1.5,5.3c0.1,0.3,0.2,0.7,0.3,1.4
			s0.2,1.1,0.2,1.4h0.1c0.1-0.7,0.3-1.8,0.6-3.1l1.3-4.9h2.1l-2.8,10H471.7z"/>
		<path d="M487.5,197.5c0,1.6-0.4,2.9-1.3,3.8c-0.8,0.9-2,1.4-3.5,1.4c-0.9,0-1.8-0.2-2.5-0.6c-0.7-0.4-1.3-1-1.7-1.8
			s-0.6-1.7-0.6-2.7c0-1.6,0.4-2.9,1.2-3.8c0.8-0.9,2-1.4,3.5-1.4c1.4,0,2.6,0.5,3.4,1.4C487.1,194.6,487.5,195.9,487.5,197.5z
			 M480.2,197.5c0,2.3,0.9,3.5,2.6,3.5c1.7,0,2.5-1.2,2.5-3.5c0-2.3-0.8-3.4-2.5-3.4c-0.9,0-1.5,0.3-1.9,0.9
			C480.4,195.5,480.2,196.3,480.2,197.5z"/>
		<path d="M495,192.3c0.4,0,0.8,0,1.1,0.1l-0.2,2c-0.3-0.1-0.6-0.1-0.9-0.1c-0.8,0-1.5,0.3-2.1,0.8c-0.5,0.6-0.8,1.3-0.8,2.2v5.2
			h-2.1v-10h1.7l0.3,1.8h0.1c0.3-0.6,0.8-1.1,1.3-1.4S494.4,192.3,495,192.3z"/>
		<path d="M500,197.2l1.2-1.5l3-3.2h2.4l-4,4.3l4.3,5.7h-2.5l-3.2-4.4l-1.2,1v3.4h-2.1v-14.1h2.1v6.9L500,197.2L500,197.2z"/>
		<path d="M515.2,199.6c0,1-0.4,1.7-1.1,2.2c-0.7,0.5-1.7,0.8-3.1,0.8c-1.3,0-2.4-0.2-3.2-0.6v-1.8c1.2,0.5,2.3,0.8,3.3,0.8
			c1.3,0,2-0.4,2-1.2c0-0.3-0.1-0.5-0.2-0.6c-0.1-0.2-0.4-0.3-0.7-0.5c-0.3-0.2-0.8-0.4-1.4-0.6c-1.2-0.4-1.9-0.9-2.3-1.3
			c-0.4-0.4-0.6-1-0.6-1.7c0-0.9,0.3-1.5,1-2c0.7-0.5,1.6-0.7,2.8-0.7c1.2,0,2.3,0.2,3.3,0.7l-0.7,1.6c-1.1-0.4-2-0.7-2.7-0.7
			c-1.1,0-1.7,0.3-1.7,1c0,0.3,0.1,0.6,0.4,0.8c0.3,0.2,0.9,0.5,1.9,0.9c0.8,0.3,1.4,0.6,1.8,0.9c0.4,0.3,0.7,0.6,0.8,0.9
			C515.1,198.7,515.2,199.1,515.2,199.6z"/>
		<path d="M517.2,193.6c0-0.9,0.4-1.4,1.3-1.4c0.5,0,0.8,0.1,1,0.4c0.2,0.2,0.3,0.6,0.3,1s-0.1,0.8-0.3,1c-0.2,0.3-0.6,0.4-1,0.4
			c-0.4,0-0.8-0.1-1-0.4C517.3,194.4,517.2,194.1,517.2,193.6z M517.2,201.3c0-0.4,0.1-0.8,0.3-1c0.2-0.2,0.6-0.4,1-0.4
			c0.4,0,0.8,0.1,1,0.4c0.2,0.2,0.3,0.6,0.3,1c0,0.4-0.1,0.8-0.3,1c-0.2,0.3-0.6,0.4-1,0.4c-0.4,0-0.8-0.1-1-0.4
			C517.3,202.1,517.2,201.8,517.2,201.3z"/>
		<path d="M368.3,211.3c1.2,0,2.2,0.3,2.9,0.8c0.7,0.6,1.1,1.3,1.1,2.3c0,0.7-0.2,1.2-0.6,1.8c-0.4,0.5-1,1-1.9,1.5
			c1.1,0.5,1.8,1,2.3,1.6c0.5,0.6,0.7,1.2,0.7,2c0,1.1-0.4,2-1.1,2.6c-0.8,0.7-1.8,1-3.1,1c-1.4,0-2.5-0.3-3.3-0.9
			c-0.8-0.6-1.1-1.5-1.1-2.6c0-1.5,0.9-2.7,2.8-3.5c-0.8-0.5-1.4-1-1.8-1.5s-0.5-1.2-0.5-1.8c0-1,0.4-1.7,1.1-2.3
			S367.1,211.3,368.3,211.3z M365.4,221.3c0,0.7,0.3,1.3,0.8,1.7s1.2,0.6,2.1,0.6c0.9,0,1.6-0.2,2.1-0.6c0.5-0.4,0.8-1,0.8-1.7
			c0-0.6-0.2-1.1-0.7-1.6c-0.5-0.5-1.3-0.9-2.5-1.3c-0.9,0.4-1.5,0.8-2,1.3S365.4,220.7,365.4,221.3z M368.2,212.5
			c-0.8,0-1.3,0.2-1.8,0.5s-0.6,0.8-0.6,1.4c0,0.6,0.2,1,0.5,1.4s1,0.8,2,1.2c0.9-0.4,1.5-0.8,1.8-1.2c0.4-0.4,0.5-0.9,0.5-1.5
			c0-0.6-0.2-1.1-0.7-1.5S369,212.5,368.2,212.5z"/>
		<path d="M374.9,223.7c0-0.4,0.1-0.7,0.3-0.9s0.4-0.3,0.8-0.3c0.3,0,0.6,0.1,0.8,0.3c0.2,0.2,0.3,0.5,0.3,0.9
			c0,0.4-0.1,0.7-0.3,0.9c-0.2,0.2-0.5,0.3-0.8,0.3c-0.3,0-0.6-0.1-0.8-0.3C375,224.5,374.9,224.2,374.9,223.7z"/>
		<path d="M388.2,218.1c0,2.3-0.4,4-1.1,5.1c-0.7,1.1-1.8,1.7-3.3,1.7c-1.4,0-2.5-0.6-3.2-1.7c-0.7-1.2-1.1-2.8-1.1-5.1
			c0-2.3,0.4-4,1.1-5.1c0.7-1.1,1.8-1.7,3.3-1.7c1.4,0,2.5,0.6,3.3,1.7C387.8,214.2,388.2,215.8,388.2,218.1z M380.9,218.1
			c0,1.9,0.2,3.3,0.7,4.2c0.5,0.9,1.2,1.3,2.2,1.3c1,0,1.7-0.4,2.2-1.3c0.4-0.9,0.7-2.3,0.7-4.2s-0.2-3.3-0.7-4.2
			c-0.4-0.9-1.2-1.3-2.2-1.3c-1,0-1.7,0.4-2.2,1.3C381.2,214.7,380.9,216.1,380.9,218.1z"/>
		<path d="M390.5,223.7c0-0.4,0.1-0.7,0.3-0.9s0.4-0.3,0.8-0.3c0.3,0,0.6,0.1,0.8,0.3c0.2,0.2,0.3,0.5,0.3,0.9
			c0,0.4-0.1,0.7-0.3,0.9c-0.2,0.2-0.5,0.3-0.8,0.3c-0.3,0-0.6-0.1-0.8-0.3C390.6,224.5,390.5,224.2,390.5,223.7z"/>
		<path d="M403.7,218.1c0,2.3-0.4,4-1.1,5.1c-0.7,1.1-1.8,1.7-3.3,1.7c-1.4,0-2.5-0.6-3.2-1.7c-0.7-1.2-1.1-2.8-1.1-5.1
			c0-2.3,0.4-4,1.1-5.1c0.7-1.1,1.8-1.7,3.3-1.7c1.4,0,2.5,0.6,3.3,1.7C403.3,214.2,403.7,215.8,403.7,218.1z M396.4,218.1
			c0,1.9,0.2,3.3,0.7,4.2c0.5,0.9,1.2,1.3,2.2,1.3c1,0,1.7-0.4,2.2-1.3c0.4-0.9,0.7-2.3,0.7-4.2s-0.2-3.3-0.7-4.2
			c-0.4-0.9-1.2-1.3-2.2-1.3c-1,0-1.7,0.4-2.2,1.3C396.7,214.7,396.4,216.1,396.4,218.1z"/>
		<path d="M406,223.7c0-0.4,0.1-0.7,0.3-0.9s0.4-0.3,0.8-0.3c0.3,0,0.6,0.1,0.8,0.3c0.2,0.2,0.3,0.5,0.3,0.9c0,0.4-0.1,0.7-0.3,0.9
			c-0.2,0.2-0.5,0.3-0.8,0.3c-0.3,0-0.6-0.1-0.8-0.3C406.1,224.5,406,224.2,406,223.7z"/>
		<path d="M419.2,218.1c0,2.3-0.4,4-1.1,5.1c-0.7,1.1-1.8,1.7-3.3,1.7c-1.4,0-2.5-0.6-3.2-1.7c-0.7-1.2-1.1-2.8-1.1-5.1
			c0-2.3,0.4-4,1.1-5.1c0.7-1.1,1.8-1.7,3.3-1.7c1.4,0,2.5,0.6,3.3,1.7C418.8,214.2,419.2,215.8,419.2,218.1z M412,218.1
			c0,1.9,0.2,3.3,0.7,4.2c0.5,0.9,1.2,1.3,2.2,1.3c1,0,1.7-0.4,2.2-1.3c0.4-0.9,0.7-2.3,0.7-4.2s-0.2-3.3-0.7-4.2
			c-0.4-0.9-1.2-1.3-2.2-1.3c-1,0-1.7,0.4-2.2,1.3C412.2,214.7,412,216.1,412,218.1z"/>
		<path d="M426.7,211.5l-4.9,13.2h-1.5l4.9-13.2H426.7z"/>
		<path d="M432.2,211.3c1.2,0,2.2,0.3,2.9,0.8c0.7,0.6,1.1,1.3,1.1,2.3c0,0.7-0.2,1.2-0.6,1.8c-0.4,0.5-1,1-1.9,1.5
			c1.1,0.5,1.8,1,2.3,1.6c0.5,0.6,0.7,1.2,0.7,2c0,1.1-0.4,2-1.1,2.6c-0.8,0.7-1.8,1-3.1,1c-1.4,0-2.5-0.3-3.3-0.9
			c-0.8-0.6-1.1-1.5-1.1-2.6c0-1.5,0.9-2.7,2.8-3.5c-0.8-0.5-1.4-1-1.8-1.5s-0.5-1.2-0.5-1.8c0-1,0.4-1.7,1.1-2.3
			S431,211.3,432.2,211.3z M429.3,221.3c0,0.7,0.3,1.3,0.8,1.7s1.2,0.6,2.1,0.6c0.9,0,1.6-0.2,2.1-0.6c0.5-0.4,0.8-1,0.8-1.7
			c0-0.6-0.2-1.1-0.7-1.6c-0.5-0.5-1.3-0.9-2.5-1.3c-0.9,0.4-1.5,0.8-2,1.3S429.3,220.7,429.3,221.3z M432.1,212.5
			c-0.8,0-1.3,0.2-1.8,0.5s-0.6,0.8-0.6,1.4c0,0.6,0.2,1,0.5,1.4s1,0.8,2,1.2c0.9-0.4,1.5-0.8,1.8-1.2c0.4-0.4,0.5-0.9,0.5-1.5
			c0-0.6-0.2-1.1-0.7-1.5S432.9,212.5,432.1,212.5z"/>
		<path d="M369.5,246.9H368v-9.4c0-0.8,0-1.5,0.1-2.2c-0.1,0.1-0.3,0.3-0.4,0.4c-0.2,0.1-0.9,0.7-2.2,1.8l-0.8-1l3.5-2.7h1.3V246.9z
			"/>
		<path d="M383.2,239.3c0,5.2-2,7.8-6,7.8c-0.7,0-1.3-0.1-1.7-0.2v-1.3c0.5,0.2,1,0.2,1.6,0.2c1.4,0,2.5-0.4,3.3-1.3
			c0.7-0.9,1.1-2.3,1.2-4.1h-0.1c-0.3,0.5-0.8,0.9-1.3,1.1c-0.5,0.3-1.2,0.4-1.9,0.4c-1.2,0-2.1-0.3-2.8-1s-1-1.7-1-2.9
			c0-1.4,0.4-2.5,1.2-3.3c0.8-0.8,1.8-1.2,3-1.2c0.9,0,1.7,0.2,2.4,0.7s1.2,1.1,1.5,2C383,237.1,383.2,238.1,383.2,239.3z
			 M378.7,234.8c-0.9,0-1.5,0.3-2,0.8c-0.5,0.6-0.7,1.3-0.7,2.3c0,0.9,0.2,1.5,0.7,2s1.1,0.7,2,0.7c0.5,0,1.1-0.1,1.5-0.3
			c0.5-0.2,0.8-0.5,1.1-0.9c0.3-0.4,0.4-0.8,0.4-1.2c0-0.6-0.1-1.2-0.4-1.8s-0.6-1-1-1.3C379.8,234.9,379.3,234.8,378.7,234.8z"/>
		<path d="M393.7,246.9h-8.7v-1.3l3.5-3.5c1.1-1.1,1.8-1.8,2.1-2.3c0.3-0.5,0.6-0.9,0.8-1.3c0.2-0.4,0.3-0.9,0.3-1.4
			c0-0.7-0.2-1.3-0.6-1.7c-0.4-0.4-1-0.6-1.8-0.6c-0.5,0-1.1,0.1-1.6,0.3c-0.5,0.2-1,0.5-1.6,1l-0.8-1c1.2-1,2.5-1.5,4-1.5
			c1.2,0,2.2,0.3,2.9,1s1.1,1.5,1.1,2.6c0,0.8-0.2,1.7-0.7,2.5s-1.3,1.9-2.6,3.1l-2.9,2.8v0.1h6.8V246.9z"/>
		<path d="M396.1,245.9c0-0.4,0.1-0.7,0.3-0.9s0.4-0.3,0.8-0.3c0.3,0,0.6,0.1,0.8,0.3c0.2,0.2,0.3,0.5,0.3,0.9
			c0,0.4-0.1,0.7-0.3,0.9c-0.2,0.2-0.5,0.3-0.8,0.3c-0.3,0-0.6-0.1-0.8-0.3C396.2,246.7,396.1,246.4,396.1,245.9z"/>
		<path d="M406.1,246.9h-1.5v-9.4c0-0.8,0-1.5,0.1-2.2c-0.1,0.1-0.3,0.3-0.4,0.4c-0.2,0.1-0.9,0.7-2.2,1.8l-0.8-1l3.5-2.7h1.3V246.9
			z"/>
		<path d="M411.3,241.2c0-2.6,0.5-4.5,1.5-5.8c1-1.3,2.5-1.9,4.5-1.9c0.7,0,1.2,0.1,1.6,0.2v1.3c-0.5-0.2-1-0.2-1.6-0.2
			c-1.4,0-2.5,0.4-3.2,1.3c-0.7,0.9-1.2,2.3-1.2,4.2h0.1c0.7-1,1.7-1.6,3.1-1.6c1.2,0,2.1,0.4,2.8,1.1c0.7,0.7,1,1.7,1,2.9
			c0,1.4-0.4,2.5-1.1,3.2s-1.8,1.2-3,1.2c-1.4,0-2.5-0.5-3.3-1.5C411.7,244.5,411.3,243.1,411.3,241.2z M415.7,245.8
			c0.9,0,1.5-0.3,2-0.8c0.5-0.5,0.7-1.3,0.7-2.3c0-0.9-0.2-1.6-0.7-2.1c-0.4-0.5-1.1-0.8-2-0.8c-0.5,0-1,0.1-1.5,0.3
			c-0.5,0.2-0.8,0.5-1.1,0.9c-0.3,0.4-0.4,0.8-0.4,1.2c0,0.6,0.1,1.2,0.4,1.7s0.6,1,1,1.3C414.7,245.6,415.2,245.8,415.7,245.8z"/>
		<path d="M423.4,246.9l5.5-11.8h-7.2v-1.4h8.8v1.2l-5.4,12H423.4z"/>
		<path d="M432.8,245.9c0-0.4,0.1-0.7,0.3-0.9s0.4-0.3,0.8-0.3c0.3,0,0.6,0.1,0.8,0.3c0.2,0.2,0.3,0.5,0.3,0.9
			c0,0.4-0.1,0.7-0.3,0.9c-0.2,0.2-0.5,0.3-0.8,0.3c-0.3,0-0.6-0.1-0.8-0.3C432.9,246.7,432.8,246.4,432.8,245.9z"/>
		<path d="M441.4,238.8c1.4,0,2.5,0.3,3.3,1c0.8,0.7,1.2,1.6,1.2,2.8c0,1.4-0.4,2.4-1.3,3.2c-0.9,0.8-2.1,1.2-3.6,1.2
			c-1.5,0-2.6-0.2-3.4-0.7v-1.4c0.4,0.3,0.9,0.5,1.6,0.6c0.6,0.2,1.2,0.2,1.9,0.2c1.1,0,1.9-0.3,2.5-0.8c0.6-0.5,0.9-1.2,0.9-2.2
			c0-1.8-1.1-2.8-3.4-2.8c-0.6,0-1.3,0.1-2.3,0.3l-0.8-0.5l0.5-6.2h6.6v1.4h-5.3l-0.3,4C440,238.9,440.7,238.8,441.4,238.8z"/>
		<path d="M448.3,245.9c0-0.4,0.1-0.7,0.3-0.9s0.4-0.3,0.8-0.3c0.3,0,0.6,0.1,0.8,0.3c0.2,0.2,0.3,0.5,0.3,0.9
			c0,0.4-0.1,0.7-0.3,0.9c-0.2,0.2-0.5,0.3-0.8,0.3c-0.3,0-0.6-0.1-0.8-0.3C448.4,246.7,448.3,246.4,448.3,245.9z"/>
		<path d="M461.5,240.3c0,2.3-0.4,4-1.1,5.1c-0.7,1.1-1.8,1.7-3.3,1.7c-1.4,0-2.5-0.6-3.2-1.7c-0.7-1.2-1.1-2.8-1.1-5.1
			c0-2.3,0.4-4,1.1-5.1c0.7-1.1,1.8-1.7,3.3-1.7c1.4,0,2.5,0.6,3.3,1.7C461.1,236.4,461.5,238.1,461.5,240.3z M454.3,240.3
			c0,1.9,0.2,3.3,0.7,4.2c0.5,0.9,1.2,1.3,2.2,1.3c1,0,1.7-0.4,2.2-1.3c0.4-0.9,0.7-2.3,0.7-4.2s-0.2-3.3-0.7-4.2
			c-0.4-0.9-1.2-1.3-2.2-1.3c-1,0-1.7,0.4-2.2,1.3C454.5,236.9,454.3,238.3,454.3,240.3z"/>
		<path d="M469,233.7l-4.9,13.2h-1.5l4.9-13.2H469z"/>
		<path d="M478.8,246.9h-8.7v-1.3l3.5-3.5c1.1-1.1,1.8-1.8,2.1-2.3c0.3-0.5,0.6-0.9,0.8-1.3c0.2-0.4,0.3-0.9,0.3-1.4
			c0-0.7-0.2-1.3-0.6-1.7c-0.4-0.4-1-0.6-1.8-0.6c-0.5,0-1.1,0.1-1.6,0.3c-0.5,0.2-1,0.5-1.6,1l-0.8-1c1.2-1,2.5-1.5,4-1.5
			c1.2,0,2.2,0.3,2.9,1s1.1,1.5,1.1,2.6c0,0.8-0.2,1.7-0.7,2.5s-1.3,1.9-2.6,3.1l-2.9,2.8v0.1h6.8V246.9z"/>
		<path d="M490,243.8h-2v3h-1.4v-3h-6.4v-1.3l6.3-8.9h1.6v8.9h2V243.8z M486.6,242.5v-4.4c0-0.9,0-1.8,0.1-2.9h-0.1
			c-0.3,0.6-0.6,1.1-0.8,1.4l-4.1,5.9H486.6z"/>
	</g>
</g>
</svg>
