<?xml version="1.0" encoding="utf-8"?>
<!-- Generator: Adobe Illustrator 19.2.0, SVG Export Plug-In . SVG Version: 6.00 Build 0)  -->
<svg version="1.1" id="Layer_1" xmlns="http://www.w3.org/2000/svg" xmlns:xlink="http://www.w3.org/1999/xlink" x="0px" y="0px"
	 viewBox="0 0 800 415" style="enable-background:new 0 0 800 415;" xml:space="preserve">
<style type="text/css">
	.st0{fill:#FFFFFF;}
</style>
<g>
	<path d="M326.4,53.9V27.7h4.3v26.3H326.4z"/>
	<path d="M355,35.6c0,2.7-0.9,4.8-2.7,6.3c-1.8,1.5-4.4,2.2-7.7,2.2h-2.7v9.8h-4.3V27.7h7.6c3.3,0,5.7,0.7,7.4,2S355,33,355,35.6z
		 M341.9,40.5h2.3c2.2,0,3.8-0.4,4.8-1.1c1-0.8,1.5-2,1.5-3.6c0-1.5-0.5-2.6-1.4-3.4c-0.9-0.7-2.4-1.1-4.3-1.1h-3V40.5z"/>
	<path d="M381.1,53.9L373.5,32h-0.1c0.2,3.3,0.3,6.3,0.3,9.2v12.8h-3.9V27.7h6.1l7.3,20.9h0.1l7.5-20.9h6.1v26.3h-4.1V41
		c0-1.3,0-3,0.1-5.1s0.1-3.4,0.2-3.8h-0.1l-7.9,21.9H381.1z"/>
	<path d="M420.9,44c0,3.2-0.8,5.8-2.5,7.6c-1.7,1.8-4,2.7-7,2.7c-1.9,0-3.5-0.4-4.9-1.3c-1.4-0.8-2.5-2-3.3-3.6
		c-0.8-1.6-1.1-3.4-1.1-5.5c0-3.2,0.8-5.7,2.5-7.5s4-2.7,7-2.7c2.9,0,5.1,0.9,6.8,2.8C420.1,38.3,420.9,40.8,420.9,44z M406.4,44
		c0,4.6,1.7,6.9,5.1,6.9c3.4,0,5-2.3,5-6.9c0-4.5-1.7-6.8-5.1-6.8c-1.8,0-3.1,0.6-3.9,1.8C406.8,40.1,406.4,41.8,406.4,44z"/>
	<path d="M432.4,54.3c-2.5,0-4.4-0.9-5.8-2.7c-1.4-1.8-2.1-4.3-2.1-7.6c0-3.3,0.7-5.8,2.1-7.6c1.4-1.8,3.4-2.7,5.8-2.7
		c2.6,0,4.6,1,6,2.9h0.2c-0.2-1.4-0.3-2.6-0.3-3.4V26h4.2v27.9h-3.3l-0.7-2.6h-0.2C437,53.3,435.1,54.3,432.4,54.3z M433.6,50.9
		c1.7,0,3-0.5,3.8-1.5c0.8-1,1.2-2.6,1.2-4.8v-0.6c0-2.5-0.4-4.3-1.2-5.3c-0.8-1.1-2.1-1.6-3.8-1.6c-1.5,0-2.6,0.6-3.4,1.8
		c-0.8,1.2-1.2,2.9-1.2,5.1c0,2.2,0.4,3.9,1.2,5C430.9,50.3,432,50.9,433.6,50.9z"/>
	<path d="M457.3,54.3c-3.1,0-5.5-0.9-7.2-2.7s-2.6-4.3-2.6-7.4c0-3.2,0.8-5.8,2.4-7.7c1.6-1.9,3.8-2.8,6.7-2.8
		c2.6,0,4.7,0.8,6.2,2.4c1.5,1.6,2.3,3.8,2.3,6.6V45h-13.2c0.1,1.9,0.6,3.4,1.6,4.4c1,1,2.4,1.6,4.1,1.6c1.2,0,2.3-0.1,3.3-0.3
		c1-0.2,2.1-0.6,3.3-1.1V53c-1,0.5-2.1,0.8-3.1,1C459.9,54.2,458.7,54.3,457.3,54.3z M456.6,36.9c-1.3,0-2.4,0.4-3.2,1.3
		s-1.3,2.1-1.4,3.7h9c0-1.6-0.4-2.9-1.2-3.7C459,37.3,457.9,36.9,456.6,36.9z"/>
	<path d="M474.1,53.9h-4.2V26h4.2V53.9z"/>
</g>
<g>
	<rect x="151.6" y="77.5" class="st0" width="496.7" height="78.9"/>
	<path d="M648.9,156.9H151.1V77h497.7V156.9z M152.1,155.9h495.7V78H152.1V155.9z"/>
</g>
<g>
	<rect x="151.6" y="156.4" class="st0" width="496.7" height="78.9"/>
	<path d="M648.9,235.7H151.1v-79.9h497.7V235.7z M152.1,234.7h495.7v-77.9H152.1V234.7z"/>
</g>
<g>
	<rect x="151.6" y="235.2" class="st0" width="496.7" height="78.9"/>
	<path d="M648.9,314.6H151.1v-79.9h497.7V314.6z M152.1,313.6h495.7v-77.9H152.1V313.6z"/>
</g>
<g>
	<rect x="151.6" y="314.1" class="st0" width="496.7" height="78.9"/>
	<path d="M648.9,393.5H151.1v-79.9h497.7V393.5z M152.1,392.5h495.7v-77.9H152.1V392.5z"/>
</g>
<g>
	<path d="M330.9,126.2l-2.2-6.3H320l-2.2,6.3h-3.9l8.4-22.6h4l8.4,22.6H330.9z M327.7,116.7l-2.1-6.1c-0.2-0.4-0.4-1.1-0.6-1.9
		c-0.3-0.9-0.5-1.5-0.6-1.9c-0.3,1.3-0.7,2.6-1.2,4.1l-2,5.9H327.7z"/>
	<path d="M346,126.5c-2.2,0-3.8-0.8-5-2.3h-0.2c0.1,1.4,0.2,2.3,0.2,2.6v7h-3.6v-24.6h2.9c0.1,0.3,0.3,1.1,0.5,2.3h0.2
		c1.1-1.7,2.8-2.6,5.1-2.6c2.1,0,3.8,0.8,5,2.3c1.2,1.5,1.8,3.7,1.8,6.5s-0.6,5-1.8,6.5C349.8,125.7,348.1,126.5,346,126.5z
		 M345.1,111.8c-1.4,0-2.5,0.4-3.1,1.3s-1,2.2-1,4v0.5c0,2.1,0.3,3.6,1,4.5c0.7,0.9,1.7,1.4,3.2,1.4c1.3,0,2.2-0.5,2.9-1.5
		c0.7-1,1-2.5,1-4.4c0-1.9-0.3-3.4-1-4.3S346.4,111.8,345.1,111.8z"/>
	<path d="M365.7,126.5c-2.2,0-3.8-0.8-5-2.3h-0.2c0.1,1.4,0.2,2.3,0.2,2.6v7H357v-24.6h2.9c0.1,0.3,0.3,1.1,0.5,2.3h0.2
		c1.1-1.7,2.8-2.6,5.1-2.6c2.1,0,3.8,0.8,5,2.3c1.2,1.5,1.8,3.7,1.8,6.5s-0.6,5-1.8,6.5C369.5,125.7,367.8,126.5,365.7,126.5z
		 M364.8,111.8c-1.4,0-2.5,0.4-3.1,1.3s-1,2.2-1,4v0.5c0,2.1,0.3,3.6,1,4.5c0.7,0.9,1.7,1.4,3.2,1.4c1.3,0,2.2-0.5,2.9-1.5
		c0.7-1,1-2.5,1-4.4c0-1.9-0.3-3.4-1-4.3S366.1,111.8,364.8,111.8z"/>
	<path d="M380.3,126.2h-3.6v-24h3.6V126.2z"/>
	<path d="M385.3,104.6c0-0.6,0.2-1.1,0.5-1.5c0.4-0.3,0.9-0.5,1.5-0.5c0.6,0,1.1,0.2,1.5,0.5c0.4,0.3,0.5,0.8,0.5,1.5
		c0,0.6-0.2,1.1-0.5,1.5c-0.4,0.4-0.8,0.5-1.5,0.5c-0.7,0-1.2-0.2-1.5-0.5C385.4,105.7,385.3,105.2,385.3,104.6z M389.1,126.2h-3.6
		v-17h3.6V126.2z"/>
	<path d="M401.1,126.5c-2.6,0-4.5-0.8-5.9-2.3c-1.3-1.5-2-3.7-2-6.5c0-2.9,0.7-5.1,2.1-6.6s3.4-2.3,6.1-2.3c1.8,0,3.4,0.3,4.9,1
		l-1.1,2.9c-1.5-0.6-2.8-0.9-3.8-0.9c-2.9,0-4.4,2-4.4,5.9c0,1.9,0.4,3.3,1.1,4.3c0.7,1,1.8,1.4,3.2,1.4c1.6,0,3.1-0.4,4.6-1.2v3.2
		c-0.6,0.4-1.3,0.7-2.1,0.8C403.1,126.4,402.2,126.5,401.1,126.5z"/>
	<path d="M420.5,126.2l-0.7-2.4h-0.1c-0.8,1-1.6,1.7-2.5,2.1c-0.8,0.4-1.9,0.6-3.2,0.6c-1.7,0-3-0.5-3.9-1.4
		c-0.9-0.9-1.4-2.2-1.4-3.8c0-1.8,0.7-3.1,2-4c1.3-0.9,3.3-1.4,6-1.5l2.9-0.1v-0.9c0-1.1-0.3-1.9-0.8-2.4s-1.3-0.8-2.4-0.8
		c-0.9,0-1.7,0.1-2.5,0.4c-0.8,0.3-1.6,0.6-2.3,0.9l-1.2-2.6c0.9-0.5,1.9-0.8,3-1.1c1.1-0.3,2.1-0.4,3.1-0.4c2.2,0,3.8,0.5,4.9,1.4
		c1.1,0.9,1.7,2.4,1.7,4.5v11.5H420.5z M415.1,123.7c1.3,0,2.4-0.4,3.2-1.1c0.8-0.7,1.2-1.8,1.2-3.1V118l-2.2,0.1
		c-1.7,0.1-2.9,0.3-3.7,0.9c-0.8,0.5-1.2,1.3-1.2,2.3c0,0.8,0.2,1.3,0.7,1.8C413.6,123.5,414.2,123.7,415.1,123.7z"/>
	<path d="M434.5,123.6c0.9,0,1.8-0.1,2.6-0.4v2.7c-0.4,0.2-0.9,0.3-1.5,0.4c-0.6,0.1-1.3,0.2-2,0.2c-3.4,0-5.1-1.8-5.1-5.4v-9.2
		h-2.3v-1.6l2.5-1.3l1.2-3.6h2.2v3.8h4.9v2.7h-4.9v9.1c0,0.9,0.2,1.5,0.7,1.9C433.2,123.3,433.8,123.6,434.5,123.6z"/>
	<path d="M440.4,104.6c0-0.6,0.2-1.1,0.5-1.5c0.4-0.3,0.9-0.5,1.5-0.5c0.6,0,1.1,0.2,1.5,0.5c0.4,0.3,0.5,0.8,0.5,1.5
		c0,0.6-0.2,1.1-0.5,1.5c-0.4,0.4-0.8,0.5-1.5,0.5c-0.7,0-1.2-0.2-1.5-0.5C440.5,105.7,440.4,105.2,440.4,104.6z M444.2,126.2h-3.6
		v-17h3.6V126.2z"/>
	<path d="M464.5,117.6c0,2.8-0.7,5-2.1,6.5c-1.4,1.6-3.4,2.3-6,2.3c-1.6,0-3-0.4-4.2-1.1c-1.2-0.7-2.2-1.8-2.8-3.1
		c-0.7-1.3-1-2.9-1-4.7c0-2.8,0.7-4.9,2.1-6.5c1.4-1.6,3.4-2.3,6-2.3c2.5,0,4.4,0.8,5.9,2.4C463.8,112.8,464.5,114.9,464.5,117.6z
		 M452.1,117.6c0,3.9,1.5,5.9,4.4,5.9c2.9,0,4.3-2,4.3-5.9c0-3.9-1.4-5.8-4.3-5.8c-1.5,0-2.6,0.5-3.3,1.5
		C452.4,114.3,452.1,115.7,452.1,117.6z"/>
	<path d="M483.6,126.2H480v-10.5c0-1.3-0.3-2.3-0.8-2.9c-0.5-0.6-1.4-1-2.5-1c-1.5,0-2.6,0.5-3.4,1.4c-0.7,0.9-1.1,2.4-1.1,4.5v8.5
		h-3.6v-17h2.8l0.5,2.2h0.2c0.5-0.8,1.2-1.4,2.2-1.9c0.9-0.4,2-0.7,3.1-0.7c4.1,0,6.1,2.1,6.1,6.2V126.2z"/>
</g>
<g>
	<path d="M335.7,205h-3.7v-19.4h-6.6v-3.2h16.9v3.2h-6.6V205z"/>
	<path d="M354.1,187.7c0.7,0,1.3,0.1,1.8,0.2l-0.4,3.4c-0.5-0.1-1-0.2-1.6-0.2c-1.4,0-2.6,0.5-3.5,1.4c-0.9,0.9-1.3,2.2-1.3,3.7v8.9
		h-3.6v-17h2.8l0.5,3h0.2c0.6-1,1.3-1.8,2.2-2.4C352,188,353,187.7,354.1,187.7z"/>
	<path d="M369.7,205l-0.7-2.4h-0.1c-0.8,1-1.6,1.7-2.5,2.1c-0.8,0.4-1.9,0.6-3.2,0.6c-1.7,0-3-0.5-3.9-1.4c-0.9-0.9-1.4-2.2-1.4-3.8
		c0-1.8,0.7-3.1,2-4c1.3-0.9,3.3-1.4,6-1.5l2.9-0.1v-0.9c0-1.1-0.3-1.9-0.8-2.4s-1.3-0.8-2.4-0.8c-0.9,0-1.7,0.1-2.5,0.4
		c-0.8,0.3-1.6,0.6-2.3,0.9l-1.2-2.6c0.9-0.5,1.9-0.8,3-1.1c1.1-0.3,2.1-0.4,3.1-0.4c2.2,0,3.8,0.5,4.9,1.4c1.1,0.9,1.7,2.4,1.7,4.5
		V205H369.7z M364.3,202.6c1.3,0,2.4-0.4,3.2-1.1c0.8-0.7,1.2-1.8,1.2-3.1v-1.5l-2.2,0.1c-1.7,0.1-2.9,0.3-3.7,0.9
		c-0.8,0.5-1.2,1.3-1.2,2.3c0,0.8,0.2,1.3,0.7,1.8C362.7,202.4,363.4,202.6,364.3,202.6z"/>
	<path d="M392.3,205h-3.6v-10.5c0-1.3-0.3-2.3-0.8-2.9c-0.5-0.6-1.4-1-2.5-1c-1.5,0-2.6,0.5-3.4,1.4c-0.7,0.9-1.1,2.4-1.1,4.5v8.5
		h-3.6v-17h2.8l0.5,2.2h0.2c0.5-0.8,1.2-1.4,2.2-1.9c0.9-0.4,2-0.7,3.1-0.7c4.1,0,6.1,2.1,6.1,6.2V205z"/>
	<path d="M408.8,200.2c0,1.7-0.6,2.9-1.8,3.8s-2.9,1.3-5.2,1.3c-2.3,0-4.1-0.3-5.5-1v-3.1c2,0.9,3.9,1.4,5.6,1.4
		c2.2,0,3.3-0.7,3.3-2c0-0.4-0.1-0.8-0.4-1.1c-0.2-0.3-0.7-0.6-1.2-0.9c-0.6-0.3-1.4-0.7-2.4-1c-2-0.8-3.3-1.5-4-2.3
		c-0.7-0.8-1-1.7-1-3c0-1.5,0.6-2.6,1.8-3.4c1.2-0.8,2.8-1.2,4.8-1.2c2,0,3.9,0.4,5.7,1.2l-1.2,2.7c-1.8-0.8-3.4-1.1-4.6-1.1
		c-1.9,0-2.9,0.5-2.9,1.6c0,0.5,0.2,1,0.7,1.4s1.6,0.9,3.3,1.5c1.4,0.5,2.4,1,3.1,1.5c0.6,0.5,1.1,1,1.4,1.6
		C408.6,198.7,408.8,199.4,408.8,200.2z"/>
	<path d="M421.3,205.4c-2.2,0-3.8-0.8-5-2.3h-0.2c0.1,1.4,0.2,2.3,0.2,2.6v7h-3.6V188h2.9c0.1,0.3,0.3,1.1,0.5,2.3h0.2
		c1.1-1.7,2.8-2.6,5.1-2.6c2.1,0,3.8,0.8,5,2.3c1.2,1.5,1.8,3.7,1.8,6.5s-0.6,5-1.8,6.5C425.1,204.6,423.5,205.4,421.3,205.4z
		 M420.5,190.7c-1.4,0-2.5,0.4-3.1,1.3s-1,2.2-1,4v0.5c0,2.1,0.3,3.6,1,4.5c0.7,0.9,1.7,1.4,3.2,1.4c1.3,0,2.2-0.5,2.9-1.5
		c0.7-1,1-2.5,1-4.4c0-1.9-0.3-3.4-1-4.3S421.8,190.7,420.5,190.7z"/>
	<path d="M447.4,196.5c0,2.8-0.7,5-2.1,6.5c-1.4,1.6-3.4,2.3-6,2.3c-1.6,0-3-0.4-4.2-1.1c-1.2-0.7-2.2-1.8-2.8-3.1
		c-0.7-1.3-1-2.9-1-4.7c0-2.8,0.7-4.9,2.1-6.5c1.4-1.6,3.4-2.3,6-2.3c2.5,0,4.4,0.8,5.9,2.4C446.7,191.7,447.4,193.8,447.4,196.5z
		 M435,196.5c0,3.9,1.5,5.9,4.4,5.9c2.9,0,4.3-2,4.3-5.9c0-3.9-1.4-5.8-4.3-5.8c-1.5,0-2.6,0.5-3.3,1.5
		C435.4,193.2,435,194.6,435,196.5z"/>
	<path d="M460.2,187.7c0.7,0,1.3,0.1,1.8,0.2l-0.4,3.4c-0.5-0.1-1-0.2-1.6-0.2c-1.4,0-2.6,0.5-3.5,1.4c-0.9,0.9-1.3,2.2-1.3,3.7v8.9
		h-3.6v-17h2.8l0.5,3h0.2c0.6-1,1.3-1.8,2.2-2.4C458.2,188,459.2,187.7,460.2,187.7z"/>
	<path d="M471.5,202.4c0.9,0,1.8-0.1,2.6-0.4v2.7c-0.4,0.2-0.9,0.3-1.5,0.4c-0.6,0.1-1.3,0.2-2,0.2c-3.4,0-5.1-1.8-5.1-5.4v-9.2
		h-2.3v-1.6l2.5-1.3l1.2-3.6h2.2v3.8h4.9v2.7h-4.9v9.1c0,0.9,0.2,1.5,0.7,1.9C470.3,202.2,470.8,202.4,471.5,202.4z"/>
</g>
<g>
	<path d="M340.8,283.9v-22.5h3.7v22.5H340.8z"/>
	<path d="M365,283.9h-3.6v-10.5c0-1.3-0.3-2.3-0.8-2.9c-0.5-0.6-1.4-1-2.5-1c-1.5,0-2.6,0.5-3.4,1.4c-0.7,0.9-1.1,2.4-1.1,4.5v8.5
		H350v-17h2.8l0.5,2.2h0.2c0.5-0.8,1.2-1.4,2.2-1.9c0.9-0.4,2-0.7,3.1-0.7c4.1,0,6.1,2.1,6.1,6.2V283.9z"/>
	<path d="M376.4,281.3c0.9,0,1.8-0.1,2.6-0.4v2.7c-0.4,0.2-0.9,0.3-1.5,0.4c-0.6,0.1-1.3,0.2-2,0.2c-3.4,0-5.1-1.8-5.1-5.4v-9.2H368
		V268l2.5-1.3l1.2-3.6h2.2v3.8h4.9v2.7H374v9.1c0,0.9,0.2,1.5,0.7,1.9C375.1,281.1,375.7,281.3,376.4,281.3z"/>
	<path d="M389.9,284.2c-2.6,0-4.7-0.8-6.2-2.3c-1.5-1.5-2.2-3.7-2.2-6.4c0-2.8,0.7-5,2.1-6.6c1.4-1.6,3.3-2.4,5.7-2.4
		c2.2,0,4,0.7,5.3,2c1.3,1.4,2,3.2,2,5.6v2h-11.3c0.1,1.7,0.5,2.9,1.3,3.8c0.8,0.9,2,1.3,3.6,1.3c1,0,1.9-0.1,2.8-0.3
		s1.8-0.5,2.8-0.9v2.9c-0.9,0.4-1.8,0.7-2.7,0.9C392.1,284.1,391,284.2,389.9,284.2z M389.2,269.3c-1.1,0-2.1,0.4-2.8,1.1
		c-0.7,0.7-1.1,1.8-1.2,3.2h7.7c0-1.4-0.4-2.5-1-3.2S390.4,269.3,389.2,269.3z"/>
	<path d="M409.2,266.6c0.7,0,1.3,0.1,1.8,0.2l-0.4,3.4c-0.5-0.1-1-0.2-1.6-0.2c-1.4,0-2.6,0.5-3.5,1.4c-0.9,0.9-1.3,2.2-1.3,3.7v8.9
		h-3.6v-17h2.8l0.5,3h0.2c0.6-1,1.3-1.8,2.2-2.4C407.2,266.9,408.2,266.6,409.2,266.6z"/>
	<path d="M429.2,283.9h-3.6v-10.5c0-1.3-0.3-2.3-0.8-2.9c-0.5-0.6-1.4-1-2.5-1c-1.5,0-2.6,0.5-3.4,1.4c-0.7,0.9-1.1,2.4-1.1,4.5v8.5
		h-3.6v-17h2.8l0.5,2.2h0.2c0.5-0.8,1.2-1.4,2.2-1.9c0.9-0.4,2-0.7,3.1-0.7c4.1,0,6.1,2.1,6.1,6.2V283.9z"/>
	<path d="M441.7,284.2c-2.6,0-4.7-0.8-6.2-2.3c-1.5-1.5-2.2-3.7-2.2-6.4c0-2.8,0.7-5,2.1-6.6c1.4-1.6,3.3-2.4,5.7-2.4
		c2.2,0,4,0.7,5.3,2c1.3,1.4,2,3.2,2,5.6v2h-11.3c0.1,1.7,0.5,2.9,1.3,3.8c0.8,0.9,2,1.3,3.6,1.3c1,0,1.9-0.1,2.8-0.3
		s1.8-0.5,2.8-0.9v2.9c-0.9,0.4-1.8,0.7-2.7,0.9C443.8,284.1,442.8,284.2,441.7,284.2z M441,269.3c-1.1,0-2.1,0.4-2.8,1.1
		c-0.7,0.7-1.1,1.8-1.2,3.2h7.7c0-1.4-0.4-2.5-1-3.2S442.1,269.3,441,269.3z"/>
	<path d="M458.7,281.3c0.9,0,1.8-0.1,2.6-0.4v2.7c-0.4,0.2-0.9,0.3-1.5,0.4c-0.6,0.1-1.3,0.2-2,0.2c-3.4,0-5.1-1.8-5.1-5.4v-9.2
		h-2.3V268l2.5-1.3l1.2-3.6h2.2v3.8h4.9v2.7h-4.9v9.1c0,0.9,0.2,1.5,0.7,1.9C457.5,281.1,458,281.3,458.7,281.3z"/>
</g>
<g>
	<path d="M371,362.8v-22.5h3.7v19.4h9.5v3.2H371z"/>
	<path d="M387.5,341.3c0-0.6,0.2-1.1,0.5-1.5c0.4-0.3,0.9-0.5,1.5-0.5c0.6,0,1.1,0.2,1.5,0.5c0.4,0.3,0.5,0.8,0.5,1.5
		c0,0.6-0.2,1.1-0.5,1.5c-0.4,0.4-0.8,0.5-1.5,0.5c-0.7,0-1.2-0.2-1.5-0.5C387.7,342.4,387.5,341.9,387.5,341.3z M391.3,362.8h-3.6
		v-17h3.6V362.8z"/>
	<path d="M411.5,362.8h-3.6v-10.5c0-1.3-0.3-2.3-0.8-2.9c-0.5-0.6-1.4-1-2.5-1c-1.5,0-2.6,0.5-3.4,1.4c-0.7,0.9-1.1,2.4-1.1,4.5v8.5
		h-3.6v-17h2.8l0.5,2.2h0.2c0.5-0.8,1.2-1.4,2.2-1.9c0.9-0.4,2-0.7,3.1-0.7c4.1,0,6.1,2.1,6.1,6.2V362.8z"/>
	<path d="M420,353.8l2-2.6l5.1-5.5h4.2l-6.9,7.3l7.3,9.7h-4.3l-5.5-7.5l-2,1.6v5.8h-3.6v-24h3.6v11.7L420,353.8L420,353.8z"/>
</g>
<g>
	<path d="M236.3,360.4l-3.9-10.1h-0.1c0.1,0.8,0.1,1.8,0.1,2.9v7.3h-1.2V349h2l3.6,9.4h0.1l3.7-9.4h2v11.4h-1.3V353
		c0-0.8,0-1.8,0.1-2.8h-0.1l-3.9,10.1H236.3z"/>
	<path d="M252.9,360.4l-1.4-3.6h-4.6l-1.4,3.6h-1.3l4.5-11.5h1.1l4.5,11.5H252.9z M251.1,355.6l-1.3-3.5c-0.2-0.4-0.3-1-0.5-1.7
		c-0.1,0.5-0.3,1.1-0.5,1.7l-1.3,3.5H251.1z"/>
	<path d="M260.7,350c-1.3,0-2.3,0.4-3,1.3c-0.7,0.8-1.1,2-1.1,3.4c0,1.5,0.4,2.7,1.1,3.5c0.7,0.8,1.7,1.2,3,1.2
		c0.8,0,1.7-0.1,2.7-0.4v1.2c-0.8,0.3-1.8,0.4-2.9,0.4c-1.7,0-3-0.5-3.9-1.5s-1.4-2.5-1.4-4.4c0-1.2,0.2-2.2,0.7-3.1
		s1.1-1.6,1.9-2.1c0.8-0.5,1.8-0.7,2.9-0.7c1.2,0,2.2,0.2,3.1,0.7l-0.6,1.1C262.5,350.2,261.6,350,260.7,350z"/>
	<path d="M163,375.3c0-1.4,0.2-2.7,0.6-3.9c0.4-1.2,1-2.3,1.8-3.2h1.3c-0.8,1-1.3,2.1-1.7,3.3s-0.6,2.4-0.6,3.7
		c0,1.3,0.2,2.5,0.6,3.7c0.4,1.2,0.9,2.3,1.7,3.3h-1.3c-0.8-0.9-1.4-1.9-1.8-3.1C163.2,377.9,163,376.6,163,375.3z"/>
	<path d="M173.7,379.7l-3.9-10.1h-0.1c0.1,0.8,0.1,1.8,0.1,2.9v7.3h-1.2v-11.4h2l3.6,9.4h0.1l3.7-9.4h2v11.4h-1.3v-7.4
		c0-0.8,0-1.8,0.1-2.8h-0.1l-3.9,10.1H173.7z"/>
	<path d="M186.6,379.8c-1.3,0-2.3-0.4-3-1.2c-0.7-0.8-1.1-1.8-1.1-3.2c0-1.4,0.3-2.5,1-3.3c0.7-0.8,1.6-1.2,2.7-1.2
		c1.1,0,1.9,0.4,2.6,1.1s0.9,1.6,0.9,2.8v0.8h-5.9c0,1,0.3,1.8,0.8,2.3c0.5,0.5,1.2,0.8,2,0.8c0.9,0,1.8-0.2,2.7-0.6v1.2
		c-0.5,0.2-0.9,0.3-1.3,0.4S187.1,379.8,186.6,379.8z M186.2,372c-0.7,0-1.2,0.2-1.6,0.7c-0.4,0.4-0.7,1.1-0.7,1.9h4.5
		c0-0.8-0.2-1.4-0.5-1.9S186.9,372,186.2,372z"/>
	<path d="M197.8,378.5L197.8,378.5c-0.7,0.9-1.6,1.3-2.8,1.3c-1.1,0-2-0.4-2.6-1.2c-0.6-0.8-0.9-1.9-0.9-3.3c0-1.4,0.3-2.5,0.9-3.3
		c0.6-0.8,1.5-1.2,2.6-1.2c1.2,0,2.1,0.4,2.7,1.3h0.1l-0.1-0.6l0-0.6v-3.5h1.3v12.2h-1.1L197.8,378.5z M195.2,378.7
		c0.9,0,1.5-0.2,1.9-0.7c0.4-0.5,0.6-1.3,0.6-2.3v-0.3c0-1.2-0.2-2.1-0.6-2.6c-0.4-0.5-1.1-0.8-1.9-0.8c-0.8,0-1.3,0.3-1.7,0.9
		c-0.4,0.6-0.6,1.4-0.6,2.5c0,1.1,0.2,1.9,0.6,2.5C193.8,378.4,194.4,378.7,195.2,378.7z"/>
	<path d="M201.6,368.8c0-0.3,0.1-0.5,0.2-0.7s0.3-0.2,0.5-0.2c0.2,0,0.4,0.1,0.5,0.2c0.2,0.1,0.2,0.4,0.2,0.6c0,0.3-0.1,0.5-0.2,0.7
		s-0.3,0.2-0.5,0.2c-0.2,0-0.4-0.1-0.5-0.2S201.6,369,201.6,368.8z M203.1,379.7h-1.3v-8.6h1.3V379.7z"/>
	<path d="M211.1,379.7l-0.3-1.2h-0.1c-0.4,0.5-0.9,0.9-1.3,1.1c-0.4,0.2-1,0.3-1.6,0.3c-0.9,0-1.5-0.2-2-0.7s-0.7-1.1-0.7-1.9
		c0-1.7,1.4-2.6,4.2-2.7l1.5,0V374c0-0.7-0.1-1.2-0.4-1.5c-0.3-0.3-0.8-0.5-1.4-0.5c-0.7,0-1.5,0.2-2.4,0.7l-0.4-1
		c0.4-0.2,0.9-0.4,1.4-0.5c0.5-0.1,1-0.2,1.5-0.2c1,0,1.8,0.2,2.3,0.7c0.5,0.5,0.7,1.2,0.7,2.2v5.9H211.1z M208.1,378.7
		c0.8,0,1.4-0.2,1.9-0.7c0.5-0.4,0.7-1.1,0.7-1.9v-0.8l-1.3,0.1c-1,0-1.8,0.2-2.2,0.5c-0.5,0.3-0.7,0.7-0.7,1.3
		c0,0.5,0.1,0.8,0.4,1.1C207.2,378.6,207.6,378.7,208.1,378.7z"/>
	<path d="M226.3,379.7l-1.4-3.6h-4.6l-1.4,3.6h-1.3l4.5-11.5h1.1l4.5,11.5H226.3z M224.4,374.8l-1.3-3.5c-0.2-0.4-0.3-1-0.5-1.7
		c-0.1,0.5-0.3,1.1-0.5,1.7l-1.3,3.5H224.4z"/>
	<path d="M232.5,379.8c-1.2,0-2.2-0.4-2.9-1.1s-1-1.8-1-3.2c0-1.4,0.3-2.5,1-3.3c0.7-0.8,1.7-1.2,3-1.2c0.4,0,0.8,0,1.2,0.1
		c0.4,0.1,0.7,0.2,1,0.3l-0.4,1.1c-0.3-0.1-0.6-0.2-0.9-0.3s-0.6-0.1-0.9-0.1c-1.7,0-2.6,1.1-2.6,3.3c0,1.1,0.2,1.9,0.6,2.4
		c0.4,0.6,1.1,0.8,1.9,0.8c0.7,0,1.4-0.2,2.2-0.5v1.2C234.1,379.7,233.3,379.8,232.5,379.8z"/>
	<path d="M240.1,379.8c-1.2,0-2.2-0.4-2.9-1.1s-1-1.8-1-3.2c0-1.4,0.3-2.5,1-3.3c0.7-0.8,1.7-1.2,3-1.2c0.4,0,0.8,0,1.2,0.1
		c0.4,0.1,0.7,0.2,1,0.3l-0.4,1.1c-0.3-0.1-0.6-0.2-0.9-0.3s-0.6-0.1-0.9-0.1c-1.7,0-2.6,1.1-2.6,3.3c0,1.1,0.2,1.9,0.6,2.4
		c0.4,0.6,1.1,0.8,1.9,0.8c0.7,0,1.4-0.2,2.2-0.5v1.2C241.7,379.7,241,379.8,240.1,379.8z"/>
	<path d="M247.9,379.8c-1.3,0-2.3-0.4-3-1.2c-0.7-0.8-1.1-1.8-1.1-3.2c0-1.4,0.3-2.5,1-3.3c0.7-0.8,1.6-1.2,2.7-1.2
		c1.1,0,1.9,0.4,2.6,1.1s0.9,1.6,0.9,2.8v0.8h-5.9c0,1,0.3,1.8,0.8,2.3c0.5,0.5,1.2,0.8,2,0.8c0.9,0,1.8-0.2,2.7-0.6v1.2
		c-0.5,0.2-0.9,0.3-1.3,0.4S248.5,379.8,247.9,379.8z M247.6,372c-0.7,0-1.2,0.2-1.6,0.7c-0.4,0.4-0.7,1.1-0.7,1.9h4.5
		c0-0.8-0.2-1.4-0.5-1.9S248.3,372,247.6,372z"/>
	<path d="M258.8,377.3c0,0.8-0.3,1.4-0.9,1.8c-0.6,0.4-1.4,0.6-2.5,0.6c-1.1,0-2-0.2-2.7-0.5v-1.2c0.4,0.2,0.9,0.4,1.3,0.5
		c0.5,0.1,0.9,0.2,1.4,0.2c0.7,0,1.2-0.1,1.6-0.3c0.4-0.2,0.5-0.5,0.5-1c0-0.3-0.1-0.6-0.4-0.9c-0.3-0.2-0.9-0.5-1.7-0.8
		c-0.8-0.3-1.4-0.6-1.7-0.8c-0.3-0.2-0.6-0.5-0.8-0.8c-0.2-0.3-0.2-0.6-0.2-1c0-0.7,0.3-1.3,0.9-1.7c0.6-0.4,1.3-0.6,2.3-0.6
		c0.9,0,1.8,0.2,2.7,0.6l-0.5,1.1c-0.9-0.4-1.6-0.5-2.3-0.5c-0.6,0-1.1,0.1-1.4,0.3c-0.3,0.2-0.5,0.5-0.5,0.8c0,0.2,0.1,0.4,0.2,0.6
		c0.1,0.2,0.3,0.3,0.6,0.5c0.3,0.1,0.8,0.4,1.5,0.6c1,0.4,1.7,0.7,2.1,1.1C258.7,376.3,258.8,376.7,258.8,377.3z"/>
	<path d="M266.5,377.3c0,0.8-0.3,1.4-0.9,1.8c-0.6,0.4-1.4,0.6-2.5,0.6c-1.1,0-2-0.2-2.7-0.5v-1.2c0.4,0.2,0.9,0.4,1.3,0.5
		c0.5,0.1,0.9,0.2,1.4,0.2c0.7,0,1.2-0.1,1.6-0.3c0.4-0.2,0.5-0.5,0.5-1c0-0.3-0.1-0.6-0.4-0.9c-0.3-0.2-0.9-0.5-1.7-0.8
		c-0.8-0.3-1.4-0.6-1.7-0.8c-0.3-0.2-0.6-0.5-0.8-0.8c-0.2-0.3-0.2-0.6-0.2-1c0-0.7,0.3-1.3,0.9-1.7c0.6-0.4,1.3-0.6,2.3-0.6
		c0.9,0,1.8,0.2,2.7,0.6l-0.5,1.1c-0.9-0.4-1.6-0.5-2.3-0.5c-0.6,0-1.1,0.1-1.4,0.3c-0.3,0.2-0.5,0.5-0.5,0.8c0,0.2,0.1,0.4,0.2,0.6
		c0.1,0.2,0.3,0.3,0.6,0.5c0.3,0.1,0.8,0.4,1.5,0.6c1,0.4,1.7,0.7,2.1,1.1C266.3,376.3,266.5,376.7,266.5,377.3z"/>
	<path d="M277.9,369.2c-1.3,0-2.3,0.4-3,1.3c-0.7,0.8-1.1,2-1.1,3.4c0,1.5,0.4,2.7,1.1,3.5c0.7,0.8,1.7,1.2,3,1.2
		c0.8,0,1.7-0.1,2.7-0.4v1.2c-0.8,0.3-1.8,0.4-2.9,0.4c-1.7,0-3-0.5-3.9-1.5s-1.4-2.5-1.4-4.4c0-1.2,0.2-2.2,0.7-3.1
		s1.1-1.6,1.9-2.1c0.8-0.5,1.8-0.7,2.9-0.7c1.2,0,2.2,0.2,3.1,0.7l-0.6,1.1C279.6,369.4,278.7,369.2,277.9,369.2z"/>
	<path d="M290.3,375.4c0,1.4-0.4,2.5-1.1,3.3s-1.7,1.2-2.9,1.2c-0.8,0-1.4-0.2-2-0.5c-0.6-0.4-1.1-0.9-1.4-1.5
		c-0.3-0.7-0.5-1.5-0.5-2.4c0-1.4,0.3-2.5,1-3.3c0.7-0.8,1.7-1.2,2.9-1.2c1.2,0,2.2,0.4,2.9,1.2C289.9,372.9,290.3,374,290.3,375.4z
		 M283.7,375.4c0,1.1,0.2,1.9,0.7,2.5c0.4,0.6,1.1,0.9,1.9,0.9s1.5-0.3,1.9-0.9c0.4-0.6,0.7-1.4,0.7-2.5c0-1.1-0.2-1.9-0.7-2.5
		s-1.1-0.8-2-0.8c-0.9,0-1.5,0.3-1.9,0.8C284,373.4,283.7,374.3,283.7,375.4z"/>
	<path d="M298.4,379.7v-5.6c0-0.7-0.2-1.2-0.5-1.6c-0.3-0.3-0.8-0.5-1.5-0.5c-0.9,0-1.6,0.2-2,0.7s-0.6,1.3-0.6,2.4v4.5h-1.3v-8.6
		h1.1l0.2,1.2h0.1c0.3-0.4,0.6-0.8,1.1-1c0.5-0.2,1-0.3,1.6-0.3c1,0,1.8,0.2,2.3,0.7s0.8,1.3,0.8,2.4v5.6H298.4z"/>
	<path d="M305.2,378.7c0.2,0,0.5,0,0.7-0.1c0.2,0,0.4-0.1,0.5-0.1v1c-0.1,0.1-0.3,0.1-0.6,0.2c-0.3,0-0.5,0.1-0.7,0.1
		c-1.7,0-2.5-0.9-2.5-2.6v-5.1h-1.2v-0.6l1.2-0.5l0.5-1.8h0.8v2h2.5v1h-2.5v5c0,0.5,0.1,0.9,0.4,1.2
		C304.4,378.6,304.7,378.7,305.2,378.7z"/>
	<path d="M312,370.9c0.4,0,0.7,0,1,0.1l-0.2,1.2c-0.4-0.1-0.7-0.1-0.9-0.1c-0.7,0-1.3,0.3-1.8,0.8s-0.7,1.3-0.7,2.1v4.6h-1.3v-8.6
		h1.1l0.1,1.6h0.1c0.3-0.6,0.7-1,1.2-1.3C310.9,371.1,311.4,370.9,312,370.9z"/>
	<path d="M322,375.4c0,1.4-0.4,2.5-1.1,3.3s-1.7,1.2-2.9,1.2c-0.8,0-1.4-0.2-2-0.5c-0.6-0.4-1.1-0.9-1.4-1.5
		c-0.3-0.7-0.5-1.5-0.5-2.4c0-1.4,0.3-2.5,1-3.3c0.7-0.8,1.7-1.2,2.9-1.2c1.2,0,2.2,0.4,2.9,1.2C321.7,372.9,322,374,322,375.4z
		 M315.5,375.4c0,1.1,0.2,1.9,0.7,2.5c0.4,0.6,1.1,0.9,1.9,0.9s1.5-0.3,1.9-0.9c0.4-0.6,0.7-1.4,0.7-2.5c0-1.1-0.2-1.9-0.7-2.5
		s-1.1-0.8-2-0.8c-0.9,0-1.5,0.3-1.9,0.8C315.7,373.4,315.5,374.3,315.5,375.4z"/>
	<path d="M325.6,379.7h-1.3v-12.2h1.3V379.7z"/>
	<path d="M331.1,375.3c0,1.4-0.2,2.7-0.6,3.8c-0.4,1.2-1,2.2-1.8,3.1h-1.3c0.7-1,1.3-2.1,1.7-3.3s0.6-2.4,0.6-3.7
		c0-1.3-0.2-2.5-0.6-3.7s-0.9-2.3-1.7-3.3h1.3c0.8,0.9,1.4,2,1.8,3.2C330.9,372.6,331.1,373.9,331.1,375.3z"/>
</g>
<g>
	<path d="M552.2,370.9h-6.4v-11.4h6.4v1.2h-5v3.7h4.7v1.2h-4.7v4.2h5V370.9z"/>
	<path d="M557.3,370c0.2,0,0.5,0,0.7-0.1c0.2,0,0.4-0.1,0.5-0.1v1c-0.1,0.1-0.3,0.1-0.6,0.2c-0.3,0-0.5,0.1-0.7,0.1
		c-1.7,0-2.5-0.9-2.5-2.6v-5.1h-1.2v-0.6l1.2-0.5l0.5-1.8h0.8v2h2.5v1h-2.5v5c0,0.5,0.1,0.9,0.4,1.2
		C556.5,369.9,556.9,370,557.3,370z"/>
	<path d="M566.1,370.9v-5.6c0-0.7-0.2-1.2-0.5-1.6c-0.3-0.3-0.8-0.5-1.5-0.5c-0.9,0-1.6,0.2-2,0.7c-0.4,0.5-0.6,1.3-0.6,2.4v4.5
		h-1.3v-12.2h1.3v3.7c0,0.4,0,0.8-0.1,1.1h0.1c0.3-0.4,0.6-0.7,1.1-1c0.5-0.2,1-0.4,1.6-0.4c1,0,1.8,0.2,2.4,0.7s0.8,1.3,0.8,2.4
		v5.6H566.1z"/>
	<path d="M573.6,371.1c-1.3,0-2.3-0.4-3-1.2s-1.1-1.8-1.1-3.2c0-1.4,0.3-2.5,1-3.3c0.7-0.8,1.6-1.2,2.7-1.2c1.1,0,1.9,0.4,2.6,1.1
		s0.9,1.6,0.9,2.8v0.8h-5.9c0,1,0.3,1.8,0.8,2.3c0.5,0.5,1.2,0.8,2,0.8c0.9,0,1.8-0.2,2.7-0.6v1.2c-0.5,0.2-0.9,0.3-1.3,0.4
		C574.7,371,574.2,371.1,573.6,371.1z M573.3,363.3c-0.7,0-1.2,0.2-1.6,0.7c-0.4,0.4-0.7,1.1-0.7,1.9h4.5c0-0.8-0.2-1.4-0.5-1.9
		S574,363.3,573.3,363.3z"/>
	<path d="M582.9,362.2c0.4,0,0.7,0,1,0.1l-0.2,1.2c-0.4-0.1-0.7-0.1-0.9-0.1c-0.7,0-1.3,0.3-1.8,0.8s-0.7,1.3-0.7,2.1v4.6H579v-8.6
		h1.1l0.1,1.6h0.1c0.3-0.6,0.7-1,1.2-1.3C581.9,362.3,582.4,362.2,582.9,362.2z"/>
	<path d="M591.4,370.9v-5.6c0-0.7-0.2-1.2-0.5-1.6c-0.3-0.3-0.8-0.5-1.5-0.5c-0.9,0-1.6,0.2-2,0.7c-0.4,0.5-0.6,1.3-0.6,2.4v4.5
		h-1.3v-8.6h1.1l0.2,1.2h0.1c0.3-0.4,0.6-0.8,1.1-1c0.5-0.2,1-0.3,1.6-0.3c1,0,1.8,0.2,2.3,0.7c0.5,0.5,0.8,1.3,0.8,2.4v5.6H591.4z"
		/>
	<path d="M599,371.1c-1.3,0-2.3-0.4-3-1.2s-1.1-1.8-1.1-3.2c0-1.4,0.3-2.5,1-3.3c0.7-0.8,1.6-1.2,2.7-1.2c1.1,0,1.9,0.4,2.6,1.1
		s0.9,1.6,0.9,2.8v0.8h-5.9c0,1,0.3,1.8,0.8,2.3c0.5,0.5,1.2,0.8,2,0.8c0.9,0,1.8-0.2,2.7-0.6v1.2c-0.5,0.2-0.9,0.3-1.3,0.4
		C600.1,371,599.6,371.1,599,371.1z M598.7,363.3c-0.7,0-1.2,0.2-1.6,0.7c-0.4,0.4-0.7,1.1-0.7,1.9h4.5c0-0.8-0.2-1.4-0.5-1.9
		S599.4,363.3,598.7,363.3z"/>
	<path d="M607.2,370c0.2,0,0.5,0,0.7-0.1c0.2,0,0.4-0.1,0.5-0.1v1c-0.1,0.1-0.3,0.1-0.6,0.2c-0.3,0-0.5,0.1-0.7,0.1
		c-1.7,0-2.5-0.9-2.5-2.6v-5.1h-1.2v-0.6l1.2-0.5l0.5-1.8h0.8v2h2.5v1h-2.5v5c0,0.5,0.1,0.9,0.4,1.2
		C606.4,369.9,606.7,370,607.2,370z"/>
</g>
<g>
	<path d="M219,272.6v-11.4h1.3v11.4H219z"/>
	<path d="M230.7,264.5c0,1.2-0.4,2-1.2,2.7c-0.8,0.6-1.9,0.9-3.4,0.9h-1.3v4.5h-1.3v-11.4h3C229.3,261.2,230.7,262.3,230.7,264.5z
		 M224.8,267h1.2c1.2,0,2-0.2,2.6-0.6c0.5-0.4,0.8-1,0.8-1.8c0-0.8-0.2-1.3-0.7-1.7c-0.5-0.4-1.3-0.6-2.3-0.6h-1.5V267z"/>
	<path d="M234.8,272.6l-3.3-8.6h1.4l1.8,5.1c0.4,1.2,0.7,2,0.7,2.3h0.1c0.1-0.3,0.2-0.8,0.5-1.7s1-2.8,2.1-5.7h1.4l-3.3,8.6H234.8z"
		/>
	<path d="M248.4,270h-1.7v2.6h-1.2V270h-5.6v-1.1l5.4-7.7h1.4v7.7h1.7V270z M245.5,268.8V265c0-0.7,0-1.6,0.1-2.5h-0.1
		c-0.3,0.5-0.5,0.9-0.7,1.2l-3.6,5.1H245.5z"/>
</g>
<g>
	<path d="M566,292.5V281h1.3v11.4H566z"/>
	<path d="M577.7,284.4c0,1.2-0.4,2-1.2,2.7c-0.8,0.6-1.9,0.9-3.4,0.9h-1.3v4.5h-1.3V281h3C576.3,281,577.7,282.2,577.7,284.4z
		 M571.8,286.8h1.2c1.2,0,2-0.2,2.6-0.6s0.8-1,0.8-1.8c0-0.8-0.2-1.3-0.7-1.7c-0.5-0.4-1.3-0.6-2.3-0.6h-1.5V286.8z"/>
	<path d="M581.8,292.5l-3.3-8.6h1.4l1.8,5.1c0.4,1.2,0.7,2,0.7,2.3h0.1c0.1-0.3,0.2-0.8,0.5-1.7c0.3-0.9,1-2.8,2.1-5.7h1.4l-3.3,8.6
		H581.8z"/>
	<path d="M587.5,287.6c0-2.2,0.4-3.9,1.3-5c0.9-1.1,2.2-1.7,3.9-1.7c0.6,0,1.1,0,1.4,0.1v1.1c-0.4-0.1-0.9-0.2-1.4-0.2
		c-1.2,0-2.2,0.4-2.8,1.1s-1,2-1.1,3.6h0.1c0.6-0.9,1.5-1.3,2.7-1.3c1,0,1.8,0.3,2.4,0.9c0.6,0.6,0.9,1.5,0.9,2.5
		c0,1.2-0.3,2.1-1,2.8c-0.6,0.7-1.5,1-2.6,1c-1.2,0-2.1-0.4-2.8-1.3C587.8,290.4,587.5,289.2,587.5,287.6z M591.3,291.5
		c0.7,0,1.3-0.2,1.7-0.7c0.4-0.5,0.6-1.1,0.6-2c0-0.8-0.2-1.4-0.6-1.8c-0.4-0.4-1-0.6-1.7-0.6c-0.5,0-0.9,0.1-1.3,0.3
		c-0.4,0.2-0.7,0.5-0.9,0.8c-0.2,0.3-0.3,0.7-0.3,1.1c0,0.5,0.1,1,0.3,1.5c0.2,0.5,0.5,0.8,0.9,1.1
		C590.4,291.4,590.8,291.5,591.3,291.5z"/>
</g>
<g>
	<path d="M226.8,184.4v7.4c0,1.3-0.4,2.3-1.2,3.1c-0.8,0.7-1.9,1.1-3.2,1.1s-2.4-0.4-3.2-1.1c-0.8-0.8-1.1-1.8-1.1-3.1v-7.4h1.3v7.5
		c0,1,0.3,1.7,0.8,2.2c0.5,0.5,1.3,0.8,2.3,0.8c1,0,1.7-0.3,2.2-0.8c0.5-0.5,0.8-1.3,0.8-2.2v-7.5H226.8z"/>
	<path d="M239,190c0,1.9-0.5,3.3-1.5,4.3c-1,1-2.5,1.5-4.4,1.5h-3.2v-11.4h3.5c1.8,0,3.2,0.5,4.1,1.5C238.5,186.8,239,188.2,239,190
		z M237.6,190c0-1.5-0.4-2.6-1.1-3.4s-1.9-1.1-3.3-1.1h-1.9v9.1h1.6c1.6,0,2.8-0.4,3.6-1.2C237.2,192.7,237.6,191.6,237.6,190z"/>
	<path d="M248.8,187.7c0,1.2-0.4,2-1.2,2.7c-0.8,0.6-1.9,0.9-3.4,0.9h-1.3v4.5h-1.3v-11.4h3C247.3,184.4,248.8,185.5,248.8,187.7z
		 M242.8,190.2h1.2c1.2,0,2-0.2,2.6-0.6c0.5-0.4,0.8-1,0.8-1.8c0-0.8-0.2-1.3-0.7-1.7c-0.5-0.4-1.3-0.6-2.3-0.6h-1.5V190.2z"/>
</g>
<g>
	<path d="M543.8,224.2h-1.3v-10.3h-3.6v-1.2h8.6v1.2h-3.6V224.2z"/>
	<path d="M554,213.7c-1.3,0-2.3,0.4-3,1.3c-0.7,0.8-1.1,2-1.1,3.4c0,1.5,0.4,2.7,1.1,3.5s1.7,1.2,3,1.2c0.8,0,1.7-0.1,2.7-0.4v1.2
		c-0.8,0.3-1.8,0.4-2.9,0.4c-1.7,0-3-0.5-3.9-1.5s-1.4-2.5-1.4-4.4c0-1.2,0.2-2.2,0.7-3.1c0.4-0.9,1.1-1.6,1.9-2.1
		c0.8-0.5,1.8-0.7,2.9-0.7c1.2,0,2.2,0.2,3.1,0.7l-0.6,1.1C555.7,213.9,554.9,213.7,554,213.7z"/>
	<path d="M566.5,216c0,1.2-0.4,2-1.2,2.7c-0.8,0.6-1.9,0.9-3.4,0.9h-1.3v4.5h-1.3v-11.4h3C565,212.7,566.5,213.8,566.5,216z
		 M560.5,218.5h1.2c1.2,0,2-0.2,2.6-0.6s0.8-1,0.8-1.8c0-0.8-0.2-1.3-0.7-1.7c-0.5-0.4-1.3-0.6-2.3-0.6h-1.5V218.5z"/>
</g>
<g>
	<path d="M601.1,183.7c0,1-0.4,1.8-1.1,2.4c-0.7,0.6-1.7,0.8-3,0.8c-1.4,0-2.4-0.2-3.1-0.5v-1.3c0.5,0.2,1,0.4,1.5,0.5
		c0.6,0.1,1.1,0.2,1.6,0.2c0.9,0,1.6-0.2,2-0.5c0.4-0.3,0.7-0.8,0.7-1.4c0-0.4-0.1-0.7-0.2-1c-0.2-0.3-0.4-0.5-0.8-0.7
		s-0.9-0.5-1.7-0.7c-1.1-0.4-1.8-0.8-2.3-1.4c-0.5-0.5-0.7-1.2-0.7-2c0-0.9,0.3-1.6,1-2.1s1.5-0.8,2.6-0.8c1.1,0,2.2,0.2,3.1,0.6
		l-0.4,1.2c-0.9-0.4-1.9-0.6-2.8-0.6c-0.7,0-1.3,0.2-1.7,0.5c-0.4,0.3-0.6,0.7-0.6,1.3c0,0.4,0.1,0.7,0.2,1c0.1,0.3,0.4,0.5,0.7,0.7
		c0.3,0.2,0.9,0.4,1.6,0.7c1.2,0.4,2,0.9,2.5,1.4C600.9,182.3,601.1,182.9,601.1,183.7z"/>
	<path d="M608.3,176.3c-1.3,0-2.3,0.4-3,1.3c-0.7,0.8-1.1,2-1.1,3.4c0,1.5,0.4,2.7,1.1,3.5s1.7,1.2,3,1.2c0.8,0,1.7-0.1,2.7-0.4v1.2
		c-0.8,0.3-1.8,0.4-2.9,0.4c-1.7,0-3-0.5-3.9-1.5s-1.4-2.5-1.4-4.4c0-1.2,0.2-2.2,0.7-3.1c0.4-0.9,1.1-1.6,1.9-2.1
		c0.8-0.5,1.8-0.7,2.9-0.7c1.2,0,2.2,0.2,3.1,0.7l-0.6,1.1C610.1,176.5,609.2,176.3,608.3,176.3z"/>
	<path d="M617.1,186.7h-1.3v-10.3h-3.6v-1.2h8.6v1.2h-3.6V186.7z"/>
	<path d="M629.7,178.6c0,1.2-0.4,2-1.2,2.7c-0.8,0.6-1.9,0.9-3.4,0.9h-1.3v4.5h-1.3v-11.4h3C628.2,175.3,629.7,176.4,629.7,178.6z
		 M623.7,181.1h1.2c1.2,0,2-0.2,2.6-0.6s0.8-1,0.8-1.8c0-0.8-0.2-1.3-0.7-1.7c-0.5-0.4-1.3-0.6-2.3-0.6h-1.5V181.1z"/>
</g>
<g>
	<path d="M200,102.7c0,1.9-0.5,3.3-1.5,4.3c-1,1-2.5,1.5-4.4,1.5h-3.2V97h3.5c1.8,0,3.2,0.5,4.1,1.5C199.5,99.5,200,100.9,200,102.7
		z M198.6,102.7c0-1.5-0.4-2.6-1.1-3.4s-1.9-1.1-3.3-1.1h-1.9v9.1h1.6c1.6,0,2.8-0.4,3.6-1.2C198.2,105.4,198.6,104.2,198.6,102.7z"
		/>
	<path d="M211.5,108.5H210l-6.3-9.6h-0.1c0.1,1.1,0.1,2.2,0.1,3.1v6.5h-1.2V97h1.5l6.2,9.6h0.1c0-0.1,0-0.6-0.1-1.4
		c0-0.8,0-1.3,0-1.6V97h1.2V108.5z"/>
	<path d="M221.1,105.4c0,1-0.4,1.8-1.1,2.4c-0.7,0.6-1.7,0.8-3,0.8c-1.4,0-2.4-0.2-3.1-0.5v-1.3c0.5,0.2,1,0.4,1.5,0.5
		s1.1,0.2,1.6,0.2c0.9,0,1.6-0.2,2-0.5c0.4-0.3,0.7-0.8,0.7-1.4c0-0.4-0.1-0.7-0.2-1c-0.2-0.3-0.4-0.5-0.8-0.7
		c-0.4-0.2-0.9-0.5-1.7-0.7c-1.1-0.4-1.8-0.8-2.3-1.4s-0.7-1.2-0.7-2c0-0.9,0.3-1.6,1-2.1s1.5-0.8,2.6-0.8c1.1,0,2.2,0.2,3.1,0.6
		l-0.4,1.2c-0.9-0.4-1.9-0.6-2.8-0.6c-0.7,0-1.3,0.2-1.7,0.5c-0.4,0.3-0.6,0.7-0.6,1.3c0,0.4,0.1,0.7,0.2,1c0.1,0.3,0.4,0.5,0.7,0.7
		c0.3,0.2,0.9,0.4,1.6,0.7c1.2,0.4,2,0.9,2.5,1.4C220.9,104,221.1,104.7,221.1,105.4z"/>
</g>
<g>
	<path d="M233.8,139h-1.3v-11.4h6.4v1.2h-5v4.2h4.7v1.2h-4.7V139z"/>
	<path d="M244.2,139h-1.3v-10.3h-3.6v-1.2h8.6v1.2h-3.6V139z"/>
	<path d="M256.8,130.9c0,1.2-0.4,2-1.2,2.7c-0.8,0.6-1.9,0.9-3.4,0.9h-1.3v4.5h-1.3v-11.4h3C255.4,127.6,256.8,128.7,256.8,130.9z
		 M250.9,133.4h1.2c1.2,0,2-0.2,2.6-0.6c0.5-0.4,0.8-1,0.8-1.8c0-0.8-0.2-1.3-0.7-1.7c-0.5-0.4-1.3-0.6-2.3-0.6h-1.5V133.4z"/>
</g>
<g>
	<path d="M555.1,103.1h-1.3v-5.4h-6v5.4h-1.3V91.7h1.3v4.9h6v-4.9h1.3V103.1z"/>
	<path d="M561.7,103.1h-1.3V92.9h-3.6v-1.2h8.6v1.2h-3.6V103.1z"/>
	<path d="M570.6,103.1h-1.3V92.9h-3.6v-1.2h8.6v1.2h-3.6V103.1z"/>
	<path d="M583.2,95c0,1.2-0.4,2-1.2,2.7c-0.8,0.6-1.9,0.9-3.4,0.9h-1.3v4.5H576V91.7h3C581.8,91.7,583.2,92.8,583.2,95z M577.3,97.5
		h1.2c1.2,0,2-0.2,2.6-0.6s0.8-1,0.8-1.8c0-0.8-0.2-1.3-0.7-1.7c-0.5-0.4-1.3-0.6-2.3-0.6h-1.5V97.5z"/>
</g>
<g>
	<path d="M576,140.9h-1.3v-11.4h6.4v1.2h-5v4.2h4.7v1.2H576V140.9z"/>
	<path d="M582.6,130c0-0.3,0.1-0.5,0.2-0.7s0.3-0.2,0.5-0.2c0.2,0,0.4,0.1,0.5,0.2c0.2,0.1,0.2,0.4,0.2,0.6c0,0.3-0.1,0.5-0.2,0.7
		s-0.3,0.2-0.5,0.2c-0.2,0-0.4-0.1-0.5-0.2S582.6,130.3,582.6,130z M584,140.9h-1.3v-8.6h1.3V140.9z"/>
	<path d="M590.7,132.2c0.4,0,0.7,0,1,0.1l-0.2,1.2c-0.4-0.1-0.7-0.1-0.9-0.1c-0.7,0-1.3,0.3-1.8,0.8s-0.7,1.3-0.7,2.1v4.6h-1.3v-8.6
		h1.1l0.1,1.6h0.1c0.3-0.6,0.7-1,1.2-1.3C589.7,132.4,590.2,132.2,590.7,132.2z"/>
	<path d="M597,141.1c-1.3,0-2.3-0.4-3-1.2s-1.1-1.8-1.1-3.2c0-1.4,0.3-2.5,1-3.3c0.7-0.8,1.6-1.2,2.7-1.2c1.1,0,1.9,0.4,2.6,1.1
		s0.9,1.6,0.9,2.8v0.8h-5.9c0,1,0.3,1.8,0.8,2.3c0.5,0.5,1.2,0.8,2,0.8c0.9,0,1.8-0.2,2.7-0.6v1.2c-0.5,0.2-0.9,0.3-1.3,0.4
		C598,141.1,597.5,141.1,597,141.1z M596.6,133.3c-0.7,0-1.2,0.2-1.6,0.7c-0.4,0.4-0.7,1.1-0.7,1.9h4.5c0-0.8-0.2-1.4-0.5-1.9
		S597.3,133.3,596.6,133.3z"/>
	<path d="M606.2,133.4H604v7.6h-1.3v-7.6h-1.5v-0.6l1.5-0.5v-0.5c0-2.1,0.9-3.2,2.8-3.2c0.5,0,1,0.1,1.6,0.3l-0.3,1
		c-0.5-0.2-0.9-0.2-1.3-0.2c-0.5,0-0.9,0.2-1.1,0.5c-0.2,0.3-0.4,0.8-0.4,1.6v0.6h2.2V133.4z"/>
	<path d="M615.2,136.6c0,1.4-0.4,2.5-1.1,3.3c-0.7,0.8-1.7,1.2-2.9,1.2c-0.8,0-1.4-0.2-2-0.5c-0.6-0.4-1.1-0.9-1.4-1.5
		c-0.3-0.7-0.5-1.5-0.5-2.4c0-1.4,0.3-2.5,1-3.3c0.7-0.8,1.7-1.2,2.9-1.2c1.2,0,2.2,0.4,2.9,1.2
		C614.8,134.2,615.2,135.3,615.2,136.6z M608.6,136.6c0,1.1,0.2,1.9,0.7,2.5c0.4,0.6,1.1,0.9,1.9,0.9s1.5-0.3,1.9-0.9
		c0.4-0.6,0.7-1.4,0.7-2.5c0-1.1-0.2-1.9-0.7-2.5s-1.1-0.8-2-0.8c-0.9,0-1.5,0.3-1.9,0.8C608.9,134.7,608.6,135.5,608.6,136.6z"/>
	<path d="M619.5,136.5l-3-4.2h1.5l2.3,3.3l2.3-3.3h1.5l-3,4.2l3.1,4.4h-1.5l-2.4-3.5l-2.4,3.5h-1.5L619.5,136.5z"/>
</g>
</svg>
