<?xml version="1.0" encoding="utf-8"?>
<!-- Generator: Adobe Illustrator 19.2.0, SVG Export Plug-In . SVG Version: 6.00 Build 0)  -->
<svg version="1.1" id="Layer_1" xmlns="http://www.w3.org/2000/svg" xmlns:xlink="http://www.w3.org/1999/xlink" x="0px" y="0px"
	 viewBox="0 0 800 412" style="enable-background:new 0 0 800 412;" xml:space="preserve">
<style type="text/css">
	.st0{fill:#FFFFFF;}
</style>
<g>
	<g>
		<path class="st0" d="M615.4,392H184.6c-21.5,0-39-17.5-39-39V60c0-21.5,17.5-39,39-39h430.8c21.5,0,39,17.5,39,39v293
			C654.4,374.5,637,392,615.4,392z"/>
		<path d="M615.4,392.5H184.6c-21.8,0-39.5-17.7-39.5-39.5V60c0-21.8,17.7-39.5,39.5-39.5h430.8c21.8,0,39.5,17.7,39.5,39.5v293
			C654.9,374.8,637.2,392.5,615.4,392.5z M184.6,21.5c-21.2,0-38.5,17.3-38.5,38.5v293c0,21.2,17.3,38.5,38.5,38.5h430.8
			c21.2,0,38.5-17.3,38.5-38.5V60c0-21.2-17.3-38.5-38.5-38.5H184.6z"/>
	</g>
	<g>
		<path class="st0" d="M600.2,166.7H199.8c-9.2,0-16.7-7.5-16.7-16.7v-26.6c0-9.2,7.5-16.7,16.7-16.7h400.4
			c9.2,0,16.7,7.5,16.7,16.7v26.6C616.9,159.3,609.4,166.7,600.2,166.7z"/>
		<path d="M600.2,167.2H199.8c-9.5,0-17.2-7.7-17.2-17.2v-26.6c0-9.5,7.7-17.2,17.2-17.2h400.4c9.5,0,17.2,7.7,17.2,17.2v26.6
			C617.4,159.5,609.7,167.2,600.2,167.2z M199.8,107.3c-8.9,0-16.2,7.3-16.2,16.2v26.6c0,8.9,7.3,16.2,16.2,16.2h400.4
			c8.9,0,16.2-7.3,16.2-16.2v-26.6c0-8.9-7.3-16.2-16.2-16.2H199.8z"/>
	</g>
	<g>
		<path d="M313.9,139.6c0,1.7-0.6,3.1-1.9,4c-1.3,1-3,1.5-5.1,1.5c-2.3,0-4.1-0.3-5.4-0.9V142c0.8,0.3,1.7,0.6,2.6,0.8
			c1,0.2,1.9,0.3,2.8,0.3c1.5,0,2.7-0.3,3.4-0.9s1.2-1.4,1.2-2.4c0-0.7-0.1-1.2-0.4-1.7s-0.7-0.8-1.4-1.2s-1.6-0.8-2.9-1.3
			c-1.8-0.7-3.1-1.4-3.9-2.3c-0.8-0.9-1.2-2.1-1.2-3.5c0-1.5,0.6-2.7,1.7-3.6s2.6-1.3,4.5-1.3c2,0,3.8,0.4,5.4,1.1l-0.7,2
			c-1.6-0.7-3.2-1-4.7-1c-1.2,0-2.2,0.3-2.8,0.8c-0.7,0.5-1,1.2-1,2.2c0,0.7,0.1,1.2,0.4,1.7c0.3,0.4,0.7,0.8,1.3,1.2
			c0.6,0.4,1.5,0.8,2.7,1.2c2.1,0.7,3.5,1.5,4.3,2.4C313.5,137.2,313.9,138.3,313.9,139.6z"/>
		<path d="M330.3,137.5c0,2.4-0.6,4.3-1.8,5.6s-2.9,2-5,2c-1.3,0-2.5-0.3-3.5-0.9c-1-0.6-1.8-1.5-2.4-2.7c-0.6-1.2-0.8-2.5-0.8-4.1
			c0-2.4,0.6-4.3,1.8-5.6c1.2-1.3,2.9-2,5-2c2.1,0,3.7,0.7,4.9,2.1S330.3,135.1,330.3,137.5z M319.1,137.5c0,1.9,0.4,3.3,1.1,4.3
			c0.8,1,1.9,1.5,3.3,1.5c1.5,0,2.6-0.5,3.3-1.5c0.8-1,1.1-2.4,1.1-4.3c0-1.9-0.4-3.3-1.1-4.3c-0.8-1-1.9-1.5-3.4-1.5
			c-1.5,0-2.6,0.5-3.3,1.4C319.5,134.1,319.1,135.6,319.1,137.5z"/>
		<path d="M336.3,130.1v9.6c0,1.2,0.3,2.1,0.8,2.7s1.4,0.9,2.6,0.9c1.5,0,2.7-0.4,3.4-1.3c0.7-0.8,1.1-2.2,1.1-4.1v-7.7h2.2v14.7
			h-1.8l-0.3-2h-0.1c-0.5,0.7-1.1,1.3-1.9,1.7c-0.8,0.4-1.7,0.6-2.8,0.6c-1.8,0-3.1-0.4-4-1.3c-0.9-0.9-1.3-2.2-1.3-4.1v-9.6H336.3z
			"/>
		<path d="M357.9,129.8c0.7,0,1.2,0.1,1.8,0.2l-0.3,2.1c-0.6-0.1-1.1-0.2-1.6-0.2c-1.2,0-2.2,0.5-3.1,1.5s-1.3,2.2-1.3,3.6v7.9h-2.2
			v-14.7h1.8l0.3,2.7h0.1c0.5-1,1.2-1.7,2-2.2S356.9,129.8,357.9,129.8z"/>
		<path d="M368.3,145.1c-2.1,0-3.8-0.7-5-2c-1.2-1.3-1.8-3.2-1.8-5.6c0-2.5,0.6-4.4,1.8-5.7s2.9-2,5.1-2c0.7,0,1.4,0.1,2.1,0.2
			c0.7,0.2,1.3,0.3,1.7,0.5l-0.7,1.9c-0.5-0.2-1-0.4-1.6-0.5c-0.6-0.1-1.1-0.2-1.5-0.2c-3,0-4.5,1.9-4.5,5.7c0,1.8,0.4,3.2,1.1,4.2
			c0.7,1,1.8,1.5,3.2,1.5c1.2,0,2.5-0.3,3.8-0.8v2C371,144.9,369.8,145.1,368.3,145.1z"/>
		<path d="M381.7,145.1c-2.2,0-3.9-0.7-5.2-2c-1.3-1.3-1.9-3.2-1.9-5.5c0-2.4,0.6-4.3,1.8-5.7c1.2-1.4,2.7-2.1,4.7-2.1
			c1.8,0,3.3,0.6,4.4,1.8s1.6,2.8,1.6,4.8v1.4H377c0,1.7,0.5,3,1.3,3.9c0.8,0.9,2,1.3,3.5,1.3c1.6,0,3.2-0.3,4.7-1v2
			c-0.8,0.3-1.5,0.6-2.2,0.7C383.6,145,382.7,145.1,381.7,145.1z M381.1,131.7c-1.2,0-2.1,0.4-2.8,1.2c-0.7,0.8-1.1,1.8-1.2,3.2h7.7
			c0-1.4-0.3-2.5-0.9-3.2C383.2,132.1,382.3,131.7,381.1,131.7z"/>
		<path d="M410.8,144.9l-2.4-6.3h-7.9l-2.4,6.3h-2.3l7.8-19.7h1.9l7.7,19.7H410.8z M407.6,136.5l-2.3-6.1c-0.3-0.8-0.6-1.7-0.9-2.8
			c-0.2,0.9-0.5,1.8-0.8,2.8l-2.3,6.1H407.6z"/>
		<path d="M425.6,142.9h-0.1c-1,1.5-2.6,2.2-4.6,2.2c-1.9,0-3.4-0.7-4.5-2s-1.6-3.2-1.6-5.6c0-2.4,0.5-4.3,1.6-5.7s2.6-2,4.5-2
			c2,0,3.5,0.7,4.6,2.2h0.2l-0.1-1.1l-0.1-1v-6h2.2v20.9h-1.8L425.6,142.9z M421.1,143.3c1.5,0,2.6-0.4,3.3-1.2c0.7-0.8,1-2.2,1-4
			v-0.5c0-2.1-0.3-3.6-1-4.5c-0.7-0.9-1.8-1.3-3.3-1.3c-1.3,0-2.3,0.5-3,1.5c-0.7,1-1,2.5-1,4.3c0,1.9,0.3,3.3,1,4.3
			C418.7,142.8,419.8,143.3,421.1,143.3z"/>
		<path d="M442.4,142.9h-0.1c-1,1.5-2.6,2.2-4.6,2.2c-1.9,0-3.4-0.7-4.5-2s-1.6-3.2-1.6-5.6c0-2.4,0.5-4.3,1.6-5.7s2.6-2,4.5-2
			c2,0,3.5,0.7,4.6,2.2h0.2l-0.1-1.1l-0.1-1v-6h2.2v20.9h-1.8L442.4,142.9z M438,143.3c1.5,0,2.6-0.4,3.3-1.2c0.7-0.8,1-2.2,1-4
			v-0.5c0-2.1-0.3-3.6-1-4.5c-0.7-0.9-1.8-1.3-3.3-1.3c-1.3,0-2.3,0.5-3,1.5c-0.7,1-1,2.5-1,4.3c0,1.9,0.3,3.3,1,4.3
			C435.6,142.8,436.6,143.3,438,143.3z"/>
		<path d="M456,129.8c0.7,0,1.2,0.1,1.8,0.2l-0.3,2.1c-0.6-0.1-1.1-0.2-1.6-0.2c-1.2,0-2.2,0.5-3.1,1.5s-1.3,2.2-1.3,3.6v7.9h-2.2
			v-14.7h1.8l0.3,2.7h0.1c0.5-1,1.2-1.7,2-2.2S455.1,129.8,456,129.8z"/>
		<path d="M466.7,145.1c-2.2,0-3.9-0.7-5.2-2c-1.3-1.3-1.9-3.2-1.9-5.5c0-2.4,0.6-4.3,1.8-5.7c1.2-1.4,2.7-2.1,4.7-2.1
			c1.8,0,3.3,0.6,4.4,1.8s1.6,2.8,1.6,4.8v1.4H462c0,1.7,0.5,3,1.3,3.9c0.8,0.9,2,1.3,3.5,1.3c1.6,0,3.2-0.3,4.7-1v2
			c-0.8,0.3-1.5,0.6-2.2,0.7C468.6,145,467.7,145.1,466.7,145.1z M466.1,131.7c-1.2,0-2.1,0.4-2.8,1.2c-0.7,0.8-1.1,1.8-1.2,3.2h7.7
			c0-1.4-0.3-2.5-0.9-3.2C468.2,132.1,467.3,131.7,466.1,131.7z"/>
		<path d="M485.5,140.8c0,1.4-0.5,2.4-1.5,3.2s-2.5,1.1-4.3,1.1c-2,0-3.5-0.3-4.6-0.9v-2.1c0.7,0.4,1.5,0.6,2.3,0.8
			c0.8,0.2,1.6,0.3,2.3,0.3c1.2,0,2.1-0.2,2.7-0.6c0.6-0.4,0.9-0.9,0.9-1.7c0-0.6-0.2-1.1-0.7-1.5c-0.5-0.4-1.5-0.9-2.9-1.4
			c-1.4-0.5-2.3-1-2.9-1.3c-0.6-0.4-1-0.8-1.3-1.3c-0.3-0.5-0.4-1.1-0.4-1.7c0-1.2,0.5-2.1,1.5-2.8s2.3-1,4-1c1.6,0,3.1,0.3,4.7,1
			l-0.8,1.8c-1.5-0.6-2.8-0.9-4-0.9c-1.1,0-1.9,0.2-2.4,0.5c-0.5,0.3-0.8,0.8-0.8,1.4c0,0.4,0.1,0.7,0.3,1s0.5,0.5,1,0.8
			s1.3,0.6,2.6,1.1c1.7,0.6,2.9,1.3,3.5,1.9C485.2,139,485.5,139.9,485.5,140.8z"/>
		<path d="M498.6,140.8c0,1.4-0.5,2.4-1.5,3.2s-2.5,1.1-4.3,1.1c-2,0-3.5-0.3-4.6-0.9v-2.1c0.7,0.4,1.5,0.6,2.3,0.8
			c0.8,0.2,1.6,0.3,2.3,0.3c1.2,0,2.1-0.2,2.7-0.6c0.6-0.4,0.9-0.9,0.9-1.7c0-0.6-0.2-1.1-0.7-1.5c-0.5-0.4-1.5-0.9-2.9-1.4
			c-1.4-0.5-2.3-1-2.9-1.3c-0.6-0.4-1-0.8-1.3-1.3c-0.3-0.5-0.4-1.1-0.4-1.7c0-1.2,0.5-2.1,1.5-2.8s2.3-1,4-1c1.6,0,3.1,0.3,4.7,1
			l-0.8,1.8c-1.5-0.6-2.8-0.9-4-0.9c-1.1,0-1.9,0.2-2.4,0.5c-0.5,0.3-0.8,0.8-0.8,1.4c0,0.4,0.1,0.7,0.3,1s0.5,0.5,1,0.8
			s1.3,0.6,2.6,1.1c1.7,0.6,2.9,1.3,3.5,1.9C498.3,139,498.6,139.9,498.6,140.8z"/>
	</g>
	<g>
		<path class="st0" d="M600.2,235.6H199.8c-9.2,0-16.7-7.5-16.7-16.7v-26.6c0-9.2,7.5-16.7,16.7-16.7h400.4
			c9.2,0,16.7,7.5,16.7,16.7v26.6C616.9,228.1,609.4,235.6,600.2,235.6z"/>
		<path d="M600.2,236.1H199.8c-9.5,0-17.2-7.7-17.2-17.2v-26.6c0-9.5,7.7-17.2,17.2-17.2h400.4c9.5,0,17.2,7.7,17.2,17.2v26.6
			C617.4,228.4,609.7,236.1,600.2,236.1z M199.8,176.2c-8.9,0-16.2,7.3-16.2,16.2v26.6c0,8.9,7.3,16.2,16.2,16.2h400.4
			c8.9,0,16.2-7.3,16.2-16.2v-26.6c0-8.9-7.3-16.2-16.2-16.2H199.8z"/>
	</g>
	<g>
		<path d="M288.8,203.7c0,3.2-0.9,5.7-2.6,7.4s-4.3,2.6-7.6,2.6h-5.4V194h6c3.1,0,5.4,0.8,7.1,2.5S288.8,200.6,288.8,203.7z
			 M286.4,203.8c0-2.6-0.6-4.5-1.9-5.8c-1.3-1.3-3.2-1.9-5.7-1.9h-3.3v15.7h2.8c2.7,0,4.8-0.7,6.1-2
			C285.7,208.4,286.4,206.4,286.4,203.8z"/>
		<path d="M299.1,214c-2.2,0-3.9-0.7-5.2-2c-1.3-1.3-1.9-3.2-1.9-5.5c0-2.4,0.6-4.3,1.8-5.7c1.2-1.4,2.7-2.1,4.7-2.1
			c1.8,0,3.3,0.6,4.4,1.8s1.6,2.8,1.6,4.8v1.4h-10.2c0,1.7,0.5,3,1.3,3.9c0.8,0.9,2,1.3,3.5,1.3c1.6,0,3.2-0.3,4.7-1v2
			c-0.8,0.3-1.5,0.6-2.2,0.7C301,213.9,300.1,214,299.1,214z M298.5,200.6c-1.2,0-2.1,0.4-2.8,1.2c-0.7,0.8-1.1,1.8-1.2,3.2h7.7
			c0-1.4-0.3-2.5-0.9-3.2C300.6,200.9,299.7,200.6,298.5,200.6z"/>
		<path d="M317.9,209.7c0,1.4-0.5,2.4-1.5,3.2s-2.5,1.1-4.3,1.1c-2,0-3.5-0.3-4.6-0.9V211c0.7,0.4,1.5,0.6,2.3,0.8
			c0.8,0.2,1.6,0.3,2.3,0.3c1.2,0,2.1-0.2,2.7-0.6c0.6-0.4,0.9-0.9,0.9-1.7c0-0.6-0.2-1.1-0.7-1.5c-0.5-0.4-1.5-0.9-2.9-1.4
			c-1.4-0.5-2.3-1-2.9-1.3c-0.6-0.4-1-0.8-1.3-1.3c-0.3-0.5-0.4-1.1-0.4-1.7c0-1.2,0.5-2.1,1.5-2.8s2.3-1,4-1c1.6,0,3.1,0.3,4.7,1
			l-0.8,1.8c-1.5-0.6-2.8-0.9-4-0.9c-1.1,0-1.9,0.2-2.4,0.5c-0.5,0.3-0.8,0.8-0.8,1.4c0,0.4,0.1,0.7,0.3,1s0.5,0.5,1,0.8
			s1.3,0.6,2.6,1.1c1.7,0.6,2.9,1.3,3.5,1.9C317.5,207.9,317.9,208.7,317.9,209.7z"/>
		<path d="M326.2,212.1c0.4,0,0.8,0,1.1-0.1s0.7-0.1,0.9-0.2v1.7c-0.2,0.1-0.6,0.2-1.1,0.3c-0.5,0.1-0.9,0.1-1.3,0.1
			c-2.9,0-4.3-1.5-4.3-4.5v-8.8h-2.1v-1.1l2.1-0.9l0.9-3.1h1.3v3.4h4.3v1.7h-4.3v8.7c0,0.9,0.2,1.6,0.6,2
			C324.9,211.9,325.5,212.1,326.2,212.1z"/>
		<path d="M331,195c0-0.5,0.1-0.9,0.4-1.1c0.3-0.2,0.6-0.4,0.9-0.4c0.4,0,0.7,0.1,0.9,0.4c0.3,0.2,0.4,0.6,0.4,1.1s-0.1,0.9-0.4,1.1
			c-0.3,0.2-0.6,0.4-0.9,0.4c-0.4,0-0.7-0.1-0.9-0.4C331.1,195.8,331,195.5,331,195z M333.4,213.7h-2.2V199h2.2V213.7z"/>
		<path d="M348.3,213.7v-9.5c0-1.2-0.3-2.1-0.8-2.7s-1.4-0.9-2.6-0.9c-1.5,0-2.7,0.4-3.4,1.3c-0.7,0.8-1.1,2.2-1.1,4.1v7.7h-2.2V199
			h1.8l0.4,2h0.1c0.5-0.7,1.1-1.3,1.9-1.7s1.7-0.6,2.8-0.6c1.8,0,3.1,0.4,4,1.3c0.9,0.9,1.3,2.2,1.3,4.1v9.6H348.3z"/>
		<path d="M364.1,213.7l-0.4-2.1h-0.1c-0.7,0.9-1.5,1.5-2.2,1.9s-1.6,0.5-2.7,0.5c-1.5,0-2.6-0.4-3.4-1.1c-0.8-0.8-1.2-1.8-1.2-3.2
			c0-3,2.4-4.5,7.1-4.7l2.5-0.1v-0.9c0-1.2-0.2-2-0.7-2.6s-1.3-0.8-2.4-0.8c-1.2,0-2.6,0.4-4.2,1.1l-0.7-1.7
			c0.7-0.4,1.5-0.7,2.4-0.9c0.9-0.2,1.7-0.3,2.6-0.3c1.8,0,3.1,0.4,3.9,1.2c0.8,0.8,1.3,2,1.3,3.8v10.1H364.1z M359.1,212.1
			c1.4,0,2.5-0.4,3.3-1.1c0.8-0.8,1.2-1.8,1.2-3.2v-1.3l-2.2,0.1c-1.8,0.1-3.1,0.3-3.8,0.8c-0.8,0.5-1.2,1.2-1.2,2.3
			c0,0.8,0.2,1.4,0.7,1.8C357.5,211.9,358.2,212.1,359.1,212.1z"/>
		<path d="M375.1,212.1c0.4,0,0.8,0,1.1-0.1s0.7-0.1,0.9-0.2v1.7c-0.2,0.1-0.6,0.2-1.1,0.3c-0.5,0.1-0.9,0.1-1.3,0.1
			c-2.9,0-4.3-1.5-4.3-4.5v-8.8h-2.1v-1.1l2.1-0.9l0.9-3.1h1.3v3.4h4.3v1.7h-4.3v8.7c0,0.9,0.2,1.6,0.6,2
			C373.8,211.9,374.4,212.1,375.1,212.1z"/>
		<path d="M379.9,195c0-0.5,0.1-0.9,0.4-1.1c0.3-0.2,0.6-0.4,0.9-0.4c0.4,0,0.7,0.1,0.9,0.4c0.3,0.2,0.4,0.6,0.4,1.1
			s-0.1,0.9-0.4,1.1c-0.3,0.2-0.6,0.4-0.9,0.4c-0.4,0-0.7-0.1-0.9-0.4C380,195.8,379.9,195.5,379.9,195z M382.3,213.7h-2.2V199h2.2
			V213.7z"/>
		<path d="M399.8,206.3c0,2.4-0.6,4.3-1.8,5.6s-2.9,2-5,2c-1.3,0-2.5-0.3-3.5-0.9c-1-0.6-1.8-1.5-2.4-2.7c-0.6-1.2-0.8-2.5-0.8-4.1
			c0-2.4,0.6-4.3,1.8-5.6c1.2-1.3,2.9-2,5-2c2.1,0,3.7,0.7,4.9,2.1S399.8,204,399.8,206.3z M388.6,206.3c0,1.9,0.4,3.3,1.1,4.3
			c0.8,1,1.9,1.5,3.3,1.5c1.5,0,2.6-0.5,3.3-1.5c0.8-1,1.1-2.4,1.1-4.3c0-1.9-0.4-3.3-1.1-4.3c-0.8-1-1.9-1.5-3.4-1.5
			c-1.5,0-2.6,0.5-3.3,1.4C388.9,203,388.6,204.4,388.6,206.3z"/>
		<path d="M413.8,213.7v-9.5c0-1.2-0.3-2.1-0.8-2.7s-1.4-0.9-2.6-0.9c-1.5,0-2.7,0.4-3.4,1.3c-0.7,0.8-1.1,2.2-1.1,4.1v7.7h-2.2V199
			h1.8l0.4,2h0.1c0.5-0.7,1.1-1.3,1.9-1.7s1.7-0.6,2.8-0.6c1.8,0,3.1,0.4,4,1.3c0.9,0.9,1.3,2.2,1.3,4.1v9.6H413.8z"/>
		<path d="M440.5,213.7l-2.4-6.3h-7.9l-2.4,6.3h-2.3l7.8-19.7h1.9l7.7,19.7H440.5z M437.3,205.4l-2.3-6.1c-0.3-0.8-0.6-1.7-0.9-2.8
			c-0.2,0.9-0.5,1.8-0.8,2.8l-2.3,6.1H437.3z"/>
		<path d="M455.2,211.7h-0.1c-1,1.5-2.6,2.2-4.6,2.2c-1.9,0-3.4-0.7-4.5-2s-1.6-3.2-1.6-5.6c0-2.4,0.5-4.3,1.6-5.7s2.6-2,4.5-2
			c2,0,3.5,0.7,4.6,2.2h0.2l-0.1-1.1l-0.1-1v-6h2.2v20.9h-1.8L455.2,211.7z M450.8,212.1c1.5,0,2.6-0.4,3.3-1.2c0.7-0.8,1-2.2,1-4
			v-0.5c0-2.1-0.3-3.6-1-4.5c-0.7-0.9-1.8-1.3-3.3-1.3c-1.3,0-2.3,0.5-3,1.5c-0.7,1-1,2.5-1,4.3c0,1.9,0.3,3.3,1,4.3
			C448.4,211.6,449.4,212.1,450.8,212.1z"/>
		<path d="M472.1,211.7H472c-1,1.5-2.6,2.2-4.6,2.2c-1.9,0-3.4-0.7-4.5-2s-1.6-3.2-1.6-5.6c0-2.4,0.5-4.3,1.6-5.7s2.6-2,4.5-2
			c2,0,3.5,0.7,4.6,2.2h0.2l-0.1-1.1l-0.1-1v-6h2.2v20.9h-1.8L472.1,211.7z M467.6,212.1c1.5,0,2.6-0.4,3.3-1.2c0.7-0.8,1-2.2,1-4
			v-0.5c0-2.1-0.3-3.6-1-4.5c-0.7-0.9-1.8-1.3-3.3-1.3c-1.3,0-2.3,0.5-3,1.5c-0.7,1-1,2.5-1,4.3c0,1.9,0.3,3.3,1,4.3
			C465.3,211.6,466.3,212.1,467.6,212.1z"/>
		<path d="M485.7,198.7c0.7,0,1.2,0.1,1.8,0.2l-0.3,2.1c-0.6-0.1-1.1-0.2-1.6-0.2c-1.2,0-2.2,0.5-3.1,1.5s-1.3,2.2-1.3,3.6v7.9h-2.2
			V199h1.8l0.3,2.7h0.1c0.5-1,1.2-1.7,2-2.2S484.7,198.7,485.7,198.7z"/>
		<path d="M496.4,214c-2.2,0-3.9-0.7-5.2-2c-1.3-1.3-1.9-3.2-1.9-5.5c0-2.4,0.6-4.3,1.8-5.7c1.2-1.4,2.7-2.1,4.7-2.1
			c1.8,0,3.3,0.6,4.4,1.8s1.6,2.8,1.6,4.8v1.4h-10.2c0,1.7,0.5,3,1.3,3.9c0.8,0.9,2,1.3,3.5,1.3c1.6,0,3.2-0.3,4.7-1v2
			c-0.8,0.3-1.5,0.6-2.2,0.7C498.3,213.9,497.4,214,496.4,214z M495.8,200.6c-1.2,0-2.1,0.4-2.8,1.2c-0.7,0.8-1.1,1.8-1.2,3.2h7.7
			c0-1.4-0.3-2.5-0.9-3.2C497.9,200.9,497,200.6,495.8,200.6z"/>
		<path d="M515.1,209.7c0,1.4-0.5,2.4-1.5,3.2c-1,0.7-2.5,1.1-4.3,1.1c-2,0-3.5-0.3-4.6-0.9V211c0.7,0.4,1.5,0.6,2.3,0.8
			c0.8,0.2,1.6,0.3,2.3,0.3c1.2,0,2.1-0.2,2.7-0.6c0.6-0.4,0.9-0.9,0.9-1.7c0-0.6-0.2-1.1-0.7-1.5c-0.5-0.4-1.5-0.9-2.9-1.4
			c-1.4-0.5-2.3-1-2.9-1.3c-0.6-0.4-1-0.8-1.3-1.3c-0.3-0.5-0.4-1.1-0.4-1.7c0-1.2,0.5-2.1,1.5-2.8c1-0.7,2.3-1,4-1
			c1.6,0,3.1,0.3,4.7,1l-0.8,1.8c-1.5-0.6-2.8-0.9-4-0.9c-1.1,0-1.9,0.2-2.4,0.5c-0.5,0.3-0.8,0.8-0.8,1.4c0,0.4,0.1,0.7,0.3,1
			c0.2,0.3,0.5,0.5,1,0.8s1.3,0.6,2.6,1.1c1.7,0.6,2.9,1.3,3.5,1.9C514.8,207.9,515.1,208.7,515.1,209.7z"/>
		<path d="M528.3,209.7c0,1.4-0.5,2.4-1.5,3.2c-1,0.7-2.5,1.1-4.3,1.1c-2,0-3.5-0.3-4.6-0.9V211c0.7,0.4,1.5,0.6,2.3,0.8
			c0.8,0.2,1.6,0.3,2.3,0.3c1.2,0,2.1-0.2,2.7-0.6c0.6-0.4,0.9-0.9,0.9-1.7c0-0.6-0.2-1.1-0.7-1.5c-0.5-0.4-1.5-0.9-2.9-1.4
			c-1.4-0.5-2.3-1-2.9-1.3c-0.6-0.4-1-0.8-1.3-1.3c-0.3-0.5-0.4-1.1-0.4-1.7c0-1.2,0.5-2.1,1.5-2.8c1-0.7,2.3-1,4-1
			c1.6,0,3.1,0.3,4.7,1l-0.8,1.8c-1.5-0.6-2.8-0.9-4-0.9c-1.1,0-1.9,0.2-2.4,0.5c-0.5,0.3-0.8,0.8-0.8,1.4c0,0.4,0.1,0.7,0.3,1
			c0.2,0.3,0.5,0.5,1,0.8s1.3,0.6,2.6,1.1c1.7,0.6,2.9,1.3,3.5,1.9C528,207.9,528.3,208.7,528.3,209.7z"/>
	</g>
	<g>
		<path class="st0" d="M600.2,304.4H199.8c-9.2,0-16.7-7.5-16.7-16.7v-26.6c0-9.2,7.5-16.7,16.7-16.7h400.4
			c9.2,0,16.7,7.5,16.7,16.7v26.6C616.9,297,609.4,304.4,600.2,304.4z"/>
		<path d="M600.2,304.9H199.8c-9.5,0-17.2-7.7-17.2-17.2v-26.6c0-9.5,7.7-17.2,17.2-17.2h400.4c9.5,0,17.2,7.7,17.2,17.2v26.6
			C617.4,297.2,609.7,304.9,600.2,304.9z M199.8,245c-8.9,0-16.2,7.3-16.2,16.2v26.6c0,8.9,7.3,16.2,16.2,16.2h400.4
			c8.9,0,16.2-7.3,16.2-16.2v-26.6c0-8.9-7.3-16.2-16.2-16.2H199.8z"/>
	</g>
	<g>
		<path d="M344.6,264.6c-2.2,0-3.9,0.7-5.1,2.2c-1.3,1.4-1.9,3.4-1.9,5.9c0,2.6,0.6,4.6,1.8,6c1.2,1.4,2.9,2.1,5.2,2.1
			c1.4,0,2.9-0.2,4.7-0.7v2c-1.4,0.5-3,0.8-5,0.8c-2.9,0-5.1-0.9-6.7-2.6c-1.6-1.8-2.4-4.3-2.4-7.5c0-2,0.4-3.8,1.1-5.3
			c0.8-1.5,1.9-2.7,3.3-3.5c1.4-0.8,3.1-1.2,5-1.2c2.1,0,3.9,0.4,5.4,1.1l-1,2C347.6,265,346.1,264.6,344.6,264.6z"/>
		<path d="M363.3,282.5V273c0-1.2-0.3-2.1-0.8-2.7s-1.4-0.9-2.6-0.9c-1.6,0-2.7,0.4-3.4,1.3c-0.7,0.8-1.1,2.2-1.1,4.1v7.7h-2.2
			v-20.9h2.2v6.3c0,0.8,0,1.4-0.1,1.9h0.1c0.4-0.7,1.1-1.3,1.9-1.7c0.8-0.4,1.7-0.6,2.8-0.6c1.8,0,3.2,0.4,4.1,1.3
			c0.9,0.9,1.4,2.2,1.4,4.1v9.6H363.3z"/>
		<path d="M376.4,282.8c-2.2,0-3.9-0.7-5.2-2c-1.3-1.3-1.9-3.2-1.9-5.5c0-2.4,0.6-4.3,1.8-5.7c1.2-1.4,2.7-2.1,4.7-2.1
			c1.8,0,3.3,0.6,4.4,1.8s1.6,2.8,1.6,4.8v1.4h-10.2c0,1.7,0.5,3,1.3,3.9c0.8,0.9,2,1.3,3.5,1.3c1.6,0,3.2-0.3,4.7-1v2
			c-0.8,0.3-1.5,0.6-2.2,0.7C378.2,282.7,377.4,282.8,376.4,282.8z M375.8,269.4c-1.2,0-2.1,0.4-2.8,1.2c-0.7,0.8-1.1,1.8-1.2,3.2
			h7.7c0-1.4-0.3-2.5-0.9-3.2C377.9,269.8,377,269.4,375.8,269.4z"/>
		<path d="M391.5,282.8c-2.1,0-3.8-0.7-5-2c-1.2-1.3-1.8-3.2-1.8-5.6c0-2.5,0.6-4.4,1.8-5.7s2.9-2,5.1-2c0.7,0,1.4,0.1,2.1,0.2
			c0.7,0.2,1.3,0.3,1.7,0.5l-0.7,1.9c-0.5-0.2-1-0.4-1.6-0.5c-0.6-0.1-1.1-0.2-1.5-0.2c-3,0-4.5,1.9-4.5,5.7c0,1.8,0.4,3.2,1.1,4.2
			c0.7,1,1.8,1.5,3.2,1.5c1.2,0,2.5-0.3,3.8-0.8v2C394.2,282.5,393,282.8,391.5,282.8z"/>
		<path d="M400.9,275c0.4-0.5,1-1.3,1.8-2.2l4.8-5h2.6l-6,6.3l6.4,8.5h-2.7l-5.2-7l-1.7,1.5v5.5h-2.2v-20.9h2.2v11.1
			c0,0.5,0,1.3-0.1,2.3H400.9z"/>
		<path d="M422.7,278.5c0,1.4-0.5,2.4-1.5,3.2s-2.5,1.1-4.3,1.1c-2,0-3.5-0.3-4.6-0.9v-2.1c0.7,0.4,1.5,0.6,2.3,0.8
			c0.8,0.2,1.6,0.3,2.3,0.3c1.2,0,2.1-0.2,2.7-0.6c0.6-0.4,0.9-0.9,0.9-1.7c0-0.6-0.2-1.1-0.7-1.5c-0.5-0.4-1.5-0.9-2.9-1.4
			c-1.4-0.5-2.3-1-2.9-1.3c-0.6-0.4-1-0.8-1.3-1.3c-0.3-0.5-0.4-1.1-0.4-1.7c0-1.2,0.5-2.1,1.5-2.8s2.3-1,4-1c1.6,0,3.1,0.3,4.7,1
			l-0.8,1.8c-1.5-0.6-2.8-0.9-4-0.9c-1.1,0-1.9,0.2-2.4,0.5c-0.5,0.3-0.8,0.8-0.8,1.4c0,0.4,0.1,0.7,0.3,1s0.5,0.5,1,0.8
			s1.3,0.6,2.6,1.1c1.7,0.6,2.9,1.3,3.5,1.9C422.4,276.7,422.7,277.5,422.7,278.5z"/>
		<path d="M428.4,267.8v9.6c0,1.2,0.3,2.1,0.8,2.7s1.4,0.9,2.6,0.9c1.5,0,2.7-0.4,3.4-1.3c0.7-0.8,1.1-2.2,1.1-4.1v-7.7h2.2v14.7
			h-1.8l-0.3-2h-0.1c-0.5,0.7-1.1,1.3-1.9,1.7c-0.8,0.4-1.7,0.6-2.8,0.6c-1.8,0-3.1-0.4-4-1.3c-0.9-0.9-1.3-2.2-1.3-4.1v-9.6H428.4z
			"/>
		<path d="M462,282.5v-9.6c0-1.2-0.3-2.1-0.8-2.6c-0.5-0.6-1.3-0.9-2.3-0.9c-1.4,0-2.4,0.4-3.1,1.2c-0.7,0.8-1,2-1,3.7v8.2h-2.2
			v-9.6c0-1.2-0.3-2.1-0.8-2.6c-0.5-0.6-1.3-0.9-2.4-0.9c-1.4,0-2.4,0.4-3.1,1.3c-0.6,0.8-1,2.2-1,4.1v7.7h-2.2v-14.7h1.8l0.4,2h0.1
			c0.4-0.7,1-1.3,1.8-1.7c0.8-0.4,1.6-0.6,2.6-0.6c2.3,0,3.8,0.8,4.5,2.5h0.1c0.4-0.8,1.1-1.4,1.9-1.8c0.8-0.4,1.8-0.7,2.9-0.7
			c1.7,0,2.9,0.4,3.7,1.3c0.8,0.9,1.2,2.2,1.2,4.1v9.6H462z"/>
	</g>
	<g>
		<path d="M322.3,75.9V49.7h4.3v26.3H322.3z"/>
		<path d="M350.9,57.6c0,2.7-0.9,4.8-2.7,6.3c-1.8,1.5-4.4,2.2-7.7,2.2h-2.7v9.8h-4.3V49.7h7.6c3.3,0,5.7,0.7,7.4,2
			S350.9,55,350.9,57.6z M337.8,62.5h2.3c2.2,0,3.8-0.4,4.8-1.1c1-0.8,1.5-2,1.5-3.6c0-1.5-0.5-2.6-1.4-3.4
			c-0.9-0.7-2.4-1.1-4.3-1.1h-3V62.5z"/>
		<path d="M383.1,57.6c0,2.7-0.9,4.8-2.7,6.3c-1.8,1.5-4.4,2.2-7.7,2.2H370v9.8h-4.3V49.7h7.6c3.3,0,5.7,0.7,7.4,2
			S383.1,55,383.1,57.6z M370,62.5h2.3c2.2,0,3.8-0.4,4.8-1.1c1-0.8,1.5-2,1.5-3.6c0-1.5-0.5-2.6-1.4-3.4c-0.9-0.7-2.4-1.1-4.3-1.1
			h-3V62.5z"/>
		<path d="M400.4,75.9l-0.8-2.8h-0.1c-1,1.2-1.9,2-2.9,2.5s-2.2,0.7-3.7,0.7c-2,0-3.5-0.5-4.6-1.6s-1.6-2.5-1.6-4.5
			c0-2,0.8-3.6,2.3-4.6c1.5-1,3.8-1.6,7-1.7l3.4-0.1v-1.1c0-1.3-0.3-2.2-0.9-2.8c-0.6-0.6-1.5-0.9-2.8-0.9c-1,0-2,0.1-2.9,0.4
			c-0.9,0.3-1.8,0.7-2.7,1.1l-1.4-3c1.1-0.6,2.3-1,3.5-1.3c1.3-0.3,2.5-0.4,3.6-0.4c2.5,0,4.4,0.6,5.7,1.7c1.3,1.1,1.9,2.8,1.9,5.2
			v13.4H400.4z M394.1,73.1c1.5,0,2.8-0.4,3.7-1.3c0.9-0.9,1.4-2.1,1.4-3.6v-1.7l-2.6,0.1c-2,0.1-3.4,0.4-4.3,1
			c-0.9,0.6-1.4,1.5-1.4,2.7c0,0.9,0.3,1.6,0.8,2.1S393,73.1,394.1,73.1z"/>
		<path d="M417.3,76.3c-3,0-5.3-0.9-6.9-2.6c-1.6-1.8-2.3-4.3-2.3-7.6c0-3.3,0.8-5.9,2.5-7.7c1.6-1.8,4-2.7,7.1-2.7
			c2.1,0,4,0.4,5.7,1.2l-1.3,3.4c-1.8-0.7-3.3-1-4.4-1c-3.4,0-5.2,2.3-5.2,6.8c0,2.2,0.4,3.9,1.3,5c0.9,1.1,2.1,1.7,3.8,1.7
			c1.9,0,3.7-0.5,5.3-1.4v3.7c-0.8,0.4-1.6,0.8-2.4,1S418.5,76.3,417.3,76.3z"/>
		<path d="M431.5,65.5l2.4-3l6-6.4h4.9l-8,8.5l8.5,11.3h-5l-6.4-8.7l-2.3,1.9v6.8h-4.2V48h4.2v13.6l-0.2,3.8H431.5z"/>
		<path d="M457.2,76.3c-3.1,0-5.5-0.9-7.2-2.7s-2.6-4.3-2.6-7.4c0-3.2,0.8-5.8,2.4-7.7c1.6-1.9,3.8-2.8,6.7-2.8
			c2.6,0,4.7,0.8,6.2,2.4c1.5,1.6,2.3,3.8,2.3,6.6V67h-13.2c0.1,1.9,0.6,3.4,1.6,4.4c1,1,2.4,1.6,4.1,1.6c1.2,0,2.3-0.1,3.3-0.3
			c1-0.2,2.1-0.6,3.3-1.1V75c-1,0.5-2.1,0.8-3.1,1C459.7,76.2,458.5,76.3,457.2,76.3z M456.4,58.9c-1.3,0-2.4,0.4-3.2,1.3
			s-1.3,2.1-1.4,3.7h9c0-1.6-0.4-2.9-1.2-3.7C458.8,59.3,457.7,58.9,456.4,58.9z"/>
		<path d="M477.1,72.9c1,0,2.1-0.2,3.1-0.5v3.2c-0.5,0.2-1.1,0.4-1.8,0.5c-0.7,0.1-1.5,0.2-2.3,0.2c-4,0-6-2.1-6-6.3V59.3h-2.7v-1.9
			l2.9-1.5l1.4-4.2h2.6v4.4h5.7v3.2h-5.7v10.6c0,1,0.3,1.8,0.8,2.3S476.3,72.9,477.1,72.9z"/>
	</g>
	<g>
		<path class="st0" d="M600.2,372.7H199.8c-9.2,0-16.7-7.5-16.7-16.7v-26.6c0-9.2,7.5-16.7,16.7-16.7h400.4
			c9.2,0,16.7,7.5,16.7,16.7v26.6C616.9,365.3,609.4,372.7,600.2,372.7z"/>
		<path d="M600.2,373.2H199.8c-9.5,0-17.2-7.7-17.2-17.2v-26.6c0-9.5,7.7-17.2,17.2-17.2h400.4c9.5,0,17.2,7.7,17.2,17.2v26.6
			C617.4,365.5,609.7,373.2,600.2,373.2z M199.8,313.3c-8.9,0-16.2,7.3-16.2,16.2v26.6c0,8.9,7.3,16.2,16.2,16.2h400.4
			c8.9,0,16.2-7.3,16.2-16.2v-26.6c0-8.9-7.3-16.2-16.2-16.2H199.8z"/>
	</g>
	<g>
		<path d="M388.2,340.8c0,3.2-0.9,5.7-2.6,7.4s-4.3,2.6-7.6,2.6h-5.4v-19.7h6c3.1,0,5.4,0.8,7.1,2.5S388.2,337.8,388.2,340.8z
			 M385.8,340.9c0-2.6-0.6-4.5-1.9-5.8c-1.3-1.3-3.2-1.9-5.7-1.9h-3.3v15.7h2.8c2.7,0,4.8-0.7,6.1-2
			C385.1,345.5,385.8,343.5,385.8,340.9z"/>
		<path d="M401.3,350.9l-0.4-2.1h-0.1c-0.7,0.9-1.5,1.5-2.2,1.9s-1.6,0.5-2.7,0.5c-1.5,0-2.6-0.4-3.4-1.1c-0.8-0.8-1.2-1.8-1.2-3.2
			c0-3,2.4-4.5,7.1-4.7l2.5-0.1v-0.9c0-1.2-0.2-2-0.7-2.6s-1.3-0.8-2.4-0.8c-1.2,0-2.6,0.4-4.2,1.1l-0.7-1.7
			c0.7-0.4,1.5-0.7,2.4-0.9c0.9-0.2,1.7-0.3,2.6-0.3c1.8,0,3.1,0.4,3.9,1.2c0.8,0.8,1.3,2,1.3,3.8v10.1H401.3z M396.2,349.3
			c1.4,0,2.5-0.4,3.3-1.1c0.8-0.8,1.2-1.8,1.2-3.2v-1.3l-2.2,0.1c-1.8,0.1-3.1,0.3-3.8,0.8c-0.8,0.5-1.2,1.2-1.2,2.3
			c0,0.8,0.2,1.4,0.7,1.8C394.7,349.1,395.4,349.3,396.2,349.3z"/>
		<path d="M412.3,349.3c0.4,0,0.8,0,1.1-0.1s0.7-0.1,0.9-0.2v1.7c-0.2,0.1-0.6,0.2-1.1,0.3c-0.5,0.1-0.9,0.1-1.3,0.1
			c-2.9,0-4.3-1.5-4.3-4.5v-8.8h-2.1v-1.1l2.1-0.9l0.9-3.1h1.3v3.4h4.3v1.7h-4.3v8.7c0,0.9,0.2,1.6,0.6,2
			C411,349,411.6,349.3,412.3,349.3z"/>
		<path d="M426.3,350.9l-0.4-2.1h-0.1c-0.7,0.9-1.5,1.5-2.2,1.9s-1.6,0.5-2.7,0.5c-1.5,0-2.6-0.4-3.4-1.1c-0.8-0.8-1.2-1.8-1.2-3.2
			c0-3,2.4-4.5,7.1-4.7l2.5-0.1v-0.9c0-1.2-0.2-2-0.7-2.6s-1.3-0.8-2.4-0.8c-1.2,0-2.6,0.4-4.2,1.1l-0.7-1.7
			c0.7-0.4,1.5-0.7,2.4-0.9c0.9-0.2,1.7-0.3,2.6-0.3c1.8,0,3.1,0.4,3.9,1.2c0.8,0.8,1.3,2,1.3,3.8v10.1H426.3z M421.3,349.3
			c1.4,0,2.5-0.4,3.3-1.1c0.8-0.8,1.2-1.8,1.2-3.2v-1.3l-2.2,0.1c-1.8,0.1-3.1,0.3-3.8,0.8c-0.8,0.5-1.2,1.2-1.2,2.3
			c0,0.8,0.2,1.4,0.7,1.8C419.7,349.1,420.4,349.3,421.3,349.3z"/>
	</g>
</g>
</svg>
