<?xml version="1.0" encoding="utf-8"?>
<!-- Generator: Adobe Illustrator 19.2.0, SVG Export Plug-In . SVG Version: 6.00 Build 0)  -->
<svg version="1.1" id="Layer_1" xmlns="http://www.w3.org/2000/svg" xmlns:xlink="http://www.w3.org/1999/xlink" x="0px" y="0px"
	 viewBox="0 0 600 560" style="enable-background:new 0 0 600 560;" xml:space="preserve">
<style type="text/css">
	.st0{fill:#B85548;}
	.st1{fill:#FF1732;}
	.st2{fill:#DB001A;}
	.st3{fill:#484AB8;}
	.st4{fill:#F70F2A;}
	.st5{fill:#FFFFFF;}
</style>
<g>
	
		<rect x="273.6" y="37.6" transform="matrix(0.9631 -0.2691 0.2691 0.9631 -11.6541 77.1042)" class="st0" width="3.5" height="86.9"/>
</g>
<g>
	<g>
		
			<rect x="146.2" y="423.8" transform="matrix(0.9995 -3.132673e-002 3.132673e-002 0.9995 -13.9612 4.8468)" class="st1" width="3" height="48.4"/>
	</g>
	<g>
		<g>
			<path class="st1" d="M146.7,414.7c-1.4,4.3-4,9.7-6.7,13l7-2.8l7.2,2.4C151.2,424.2,148.4,419,146.7,414.7z"/>
		</g>
	</g>
</g>
<g>
	<g>
		
			<rect x="115.7" y="427.1" transform="matrix(0.3511 -0.9363 0.9363 0.3511 -355.0738 408.5587)" class="st1" width="3" height="66.7"/>
	</g>
	<g>
		<g>
			<path class="st1" d="M77.5,445.6c3.4,3,7.4,7.4,9.5,11.2l0.1-7.6l4.9-5.8C88,444.9,82.1,445.6,77.5,445.6z"/>
		</g>
	</g>
</g>
<g>
	<g>
		
			<rect x="109.8" y="485.9" transform="matrix(0.7319 -0.6814 0.6814 0.7319 -296.6946 220.6944)" class="st1" width="44.7" height="3"/>
	</g>
	<g>
		<g>
			<path class="st1" d="M109.1,508.8c4.2-1.7,9.9-3.4,14.2-3.5l-6.7-3.5l-3-7C113.2,499.1,111.2,504.7,109.1,508.8z"/>
		</g>
	</g>
</g>
<g>
	<g>
		
			<rect x="170.7" y="449.1" transform="matrix(2.983746e-002 -0.9996 0.9996 2.983746e-002 -305.625 630.8638)" class="st1" width="3" height="47.5"/>
	</g>
	<g>
		<g>
			<path class="st1" d="M204.9,473.9c-4.2-1.7-9.4-4.6-12.6-7.5l2.4,7.2l-2.8,7.1C195.3,477.8,200.6,475.3,204.9,473.9z"/>
		</g>
	</g>
</g>
<g>
	<g>
		
			<rect x="351.2" y="466.6" transform="matrix(0.884 -0.4674 0.4674 0.884 -175.2768 229.7292)" class="st1" width="48.4" height="3"/>
	</g>
	<g>
		<g>
			<path class="st1" d="M346,483.6c4.5-0.6,10.4-0.7,14.7,0.3l-5.6-5.1l-1.1-7.5C352.4,475.4,349,480.3,346,483.6z"/>
		</g>
	</g>
</g>
<g>
	<g>
		
			<rect x="416.8" y="487" transform="matrix(0.8882 -0.4594 0.4594 0.8882 -183.0494 248.5646)" class="st2" width="5" height="26.9"/>
	</g>
	<g>
		<g>
			<path class="st2" d="M408.3,479.1c3.9,3.6,9.5,7.6,14.3,9.5l-8.8,1.1l-6,6.5C409,491.3,408.9,484.4,408.3,479.1z"/>
		</g>
	</g>
</g>
<g>
	<g>
		
			<rect x="395.9" y="449" transform="matrix(0.9648 -0.263 0.263 0.9648 -103.6945 126.3157)" class="st1" width="48.2" height="3"/>
	</g>
	<g>
		<g>
			<path class="st1" d="M451.9,441.8c-4.5-0.4-10.3-1.6-14.2-3.5l4.4,6.2l-0.6,7.6C443.9,448.4,448.2,444.4,451.9,441.8z"/>
		</g>
	</g>
</g>
<g>
	<g>
		
			<rect x="276.4" y="338" transform="matrix(0.8859 -0.4638 0.4638 0.8859 -123.0772 178.6124)" class="st1" width="50.4" height="3"/>
	</g>
	<g>
		<g>
			<path class="st1" d="M331.9,323.6c-4.5,0.6-10.4,0.6-14.7-0.4l5.6,5.1l1,7.5C325.5,331.9,328.9,327,331.9,323.6z"/>
		</g>
	</g>
</g>
<g>
	<g>
		
			<rect x="456.8" y="276.4" transform="matrix(0.9268 -0.3757 0.3757 0.9268 -79.5356 194.2205)" class="st1" width="3" height="49.3"/>
	</g>
	<g>
		<g>
			<path class="st1" d="M471,332.3c-0.1-4.5,0.4-10.5,1.8-14.6l-5.6,5.1l-7.6,0.3C463.4,325.1,467.9,329,471,332.3z"/>
		</g>
	</g>
</g>
<g>
	<g>
		
			<rect x="447.8" y="267.7" transform="matrix(0.9626 -0.2708 0.2708 0.9626 -54.923 140.3754)" class="st1" width="66.7" height="3"/>
	</g>
	<g>
		<g>
			<path class="st1" d="M521.9,257.7c-4.5-0.4-10.3-1.5-14.3-3.4l4.4,6.2l-0.6,7.6C513.9,264.4,518.3,260.4,521.9,257.7z"/>
		</g>
	</g>
</g>
<g>
	<g>
		
			<rect x="420.2" y="245.3" transform="matrix(8.396114e-002 -0.9965 0.9965 8.396114e-002 167.7854 676.1984)" class="st1" width="63" height="3"/>
	</g>
	<g>
		<g>
			<path class="st1" d="M455.1,206.5c-1.9,4.1-5.1,9.2-8.2,12.2l7.3-2l6.9,3.2C458.5,216.3,456.3,210.8,455.1,206.5z"/>
		</g>
	</g>
</g>
<g>
	
		<rect x="87" y="137.7" transform="matrix(0.9863 -0.1649 0.1649 0.9863 -20.4322 32.8697)" class="st3" width="201.4" height="3.5"/>
</g>
<g>
	<g>
		<rect x="206.7" y="187.5" transform="matrix(0.408 -0.913 0.913 0.408 -74.7853 318.4444)" class="st1" width="3" height="58.8"/>
	</g>
	<g>
		<g>
			<path class="st1" d="M173.1,201.2c3.2,3.2,7,7.8,8.8,11.7l0.6-7.6l5.3-5.5C183.5,201.2,177.6,201.5,173.1,201.2z"/>
		</g>
	</g>
</g>
<g>
	<g>
		
			<rect x="150.1" y="239.2" transform="matrix(0.9623 -0.2721 0.2721 0.9623 -58.1933 61.7117)" class="st1" width="86.5" height="3"/>
	</g>
	<g>
		<g>
			<path class="st1" d="M143.1,254.9c4.5,0.4,10.3,1.5,14.3,3.4l-4.4-6.2l0.5-7.6C151.1,248.2,146.7,252.2,143.1,254.9z"/>
		</g>
	</g>
</g>
<g>
	<g>
		
			<rect x="195.3" y="250.3" transform="matrix(0.4993 -0.8664 0.8664 0.4993 -107.1527 318.2553)" class="st1" width="53" height="3"/>
	</g>
	<g>
		<g>
			<path class="st1" d="M204,282.6c0.8-4.5,1.1-10.4,0.2-14.7l4.9,5.8l7.5,1.3C212.5,276.5,207.5,279.7,204,282.6z"/>
		</g>
	</g>
</g>
<g>
	<g>
		
			<rect x="352.3" y="361.7" transform="matrix(0.6686 -0.7436 0.7436 0.6686 -193.928 402.2558)" class="st4" width="4" height="114.1"/>
	</g>
	<g>
		<g>
			<path class="st4" d="M302.9,372.5c5.6,2.2,13.3,4.3,19.1,4.4l-8.9,4.8l-3.8,9.4C308.6,385.2,305.8,377.9,302.9,372.5z"/>
		</g>
	</g>
</g>
<g>
	<g>
		
			<rect x="162.4" y="395" transform="matrix(0.7344 -0.6787 0.6787 0.7344 -208.4061 261.4077)" class="st4" width="134.8" height="4"/>
	</g>
	<g>
		<g>
			<path class="st4" d="M171.4,450.9c5.6-2.3,13.2-4.5,19-4.6l-9-4.6l-3.9-9.3C176.9,438.1,174.2,445.5,171.4,450.9z"/>
		</g>
	</g>
</g>
<g>
	<g>
		
			<rect x="261" y="258.5" transform="matrix(0.9403 -0.3403 0.3403 0.9403 -88.5457 107.801)" class="st4" width="4" height="95.5"/>
	</g>
	<g>
		<g>
			<path class="st4" d="M242.7,250.1c3.9,4.6,9.7,10,14.8,12.8l-10.1,0l-7.8,6.5C241.6,264,242.6,256.1,242.7,250.1z"/>
		</g>
	</g>
</g>
<g>
	<g>
		
			<rect x="320" y="159.7" transform="matrix(0.2246 -0.9745 0.9745 0.2246 7.0998 506.7794)" class="st4" width="4" height="178.5"/>
	</g>
	<g>
		<g>
			<path class="st4" d="M420.7,271.7c-5.1-3.3-11.1-8.4-14.5-13.1l1.2,10l-5.5,8.5C407,274.4,414.7,272.5,420.7,271.7z"/>
		</g>
	</g>
</g>
<g>
	<g>
		
			<rect x="212.6" y="190.9" transform="matrix(0.441 -0.8975 0.8975 0.441 -31.8469 334.6336)" class="st4" width="80.2" height="4"/>
	</g>
	<g>
		<g>
			<path class="st4" d="M275.7,146c-4.4,4.2-10.7,8.9-16.1,11.1l10.1,1.1l7,7.3C275.2,160,275.1,152.1,275.7,146z"/>
		</g>
	</g>
</g>
<g>
	<g>
		<path d="M332.9,121.6h3.7v5c-0.6,0.2-1.2,0.3-1.7,0.4s-1.2,0.1-1.8,0.1c-1.5,0-2.7-0.4-3.5-1.3s-1.2-2.2-1.2-3.8
			c0-1.6,0.5-2.9,1.4-3.8c0.9-0.9,2.2-1.4,3.8-1.4c1,0,2,0.2,3,0.6l-0.6,1.4c-0.8-0.4-1.6-0.6-2.4-0.6c-1.1,0-1.9,0.3-2.5,1
			c-0.6,0.7-0.9,1.6-0.9,2.7c0,1.2,0.3,2.1,0.8,2.8c0.6,0.6,1.4,1,2.4,1c0.5,0,1.1-0.1,1.7-0.2V123h-2.1V121.6z"/>
	</g>
	<g>
		<path d="M343.5,127l-0.3-1.1h-0.1c-0.4,0.5-0.7,0.8-1.1,0.9s-0.8,0.2-1.4,0.2c-0.7,0-1.3-0.2-1.7-0.6c-0.4-0.4-0.6-1-0.6-1.7
			c0-0.8,0.3-1.4,0.9-1.8s1.5-0.6,2.6-0.6l1.3,0V122c0-0.5-0.1-0.8-0.3-1.1c-0.2-0.2-0.6-0.4-1-0.4c-0.4,0-0.8,0.1-1.1,0.2
			s-0.7,0.2-1,0.4l-0.5-1.1c0.4-0.2,0.9-0.4,1.3-0.5s0.9-0.2,1.4-0.2c1,0,1.7,0.2,2.2,0.6c0.5,0.4,0.7,1.1,0.7,2v5.1H343.5z
			 M341.2,125.9c0.6,0,1.1-0.2,1.4-0.5c0.4-0.3,0.5-0.8,0.5-1.4v-0.7l-1,0c-0.8,0-1.3,0.2-1.7,0.4c-0.3,0.2-0.5,0.6-0.5,1
			c0,0.3,0.1,0.6,0.3,0.8S340.7,125.9,341.2,125.9z"/>
	</g>
	<g>
		<path d="M349.8,125.8c0.4,0,0.8-0.1,1.2-0.2v1.2c-0.2,0.1-0.4,0.1-0.7,0.2c-0.3,0.1-0.6,0.1-0.9,0.1c-1.5,0-2.3-0.8-2.3-2.4v-4.1
			h-1v-0.7l1.1-0.6l0.5-1.6h1v1.7h2.2v1.2h-2.2v4c0,0.4,0.1,0.7,0.3,0.9C349.2,125.7,349.4,125.8,349.8,125.8z"/>
	</g>
	<g>
		<path d="M355.7,127.1c-1.2,0-2.1-0.3-2.8-1c-0.7-0.7-1-1.6-1-2.8c0-1.2,0.3-2.2,0.9-2.9s1.5-1.1,2.5-1.1c1,0,1.8,0.3,2.4,0.9
			s0.9,1.4,0.9,2.5v0.9h-5c0,0.7,0.2,1.3,0.6,1.7s0.9,0.6,1.6,0.6c0.4,0,0.9,0,1.2-0.1c0.4-0.1,0.8-0.2,1.2-0.4v1.3
			c-0.4,0.2-0.8,0.3-1.2,0.4S356.3,127.1,355.7,127.1z M355.4,120.5c-0.5,0-0.9,0.2-1.2,0.5c-0.3,0.3-0.5,0.8-0.6,1.4h3.4
			c0-0.6-0.2-1.1-0.5-1.4S356,120.5,355.4,120.5z"/>
	</g>
	<g>
		<path d="M366.7,127l-1-3.5c-0.1-0.4-0.3-1.2-0.6-2.6H365c-0.3,1.2-0.5,2.1-0.6,2.6l-1,3.5h-1.8l-2.1-7.6h1.6l1,3.7
			c0.2,0.9,0.4,1.7,0.5,2.4h0c0-0.3,0.1-0.7,0.2-1.1c0.1-0.4,0.2-0.8,0.2-1l1.1-4h1.8l1.1,4c0.1,0.2,0.2,0.6,0.3,1
			c0.1,0.5,0.2,0.8,0.2,1.1h0.1c0.1-0.6,0.2-1.3,0.5-2.4l1-3.7h1.6l-2.1,7.6H366.7z"/>
	</g>
	<g>
		<path d="M376.7,127l-0.3-1.1h-0.1c-0.4,0.5-0.7,0.8-1.1,0.9s-0.8,0.2-1.4,0.2c-0.7,0-1.3-0.2-1.7-0.6c-0.4-0.4-0.6-1-0.6-1.7
			c0-0.8,0.3-1.4,0.9-1.8s1.5-0.6,2.6-0.6l1.3,0V122c0-0.5-0.1-0.8-0.3-1.1c-0.2-0.2-0.6-0.4-1-0.4c-0.4,0-0.8,0.1-1.1,0.2
			s-0.7,0.2-1,0.4l-0.5-1.1c0.4-0.2,0.9-0.4,1.3-0.5s0.9-0.2,1.4-0.2c1,0,1.7,0.2,2.2,0.6c0.5,0.4,0.7,1.1,0.7,2v5.1H376.7z
			 M374.3,125.9c0.6,0,1.1-0.2,1.4-0.5c0.4-0.3,0.5-0.8,0.5-1.4v-0.7l-1,0c-0.8,0-1.3,0.2-1.7,0.4c-0.3,0.2-0.5,0.6-0.5,1
			c0,0.3,0.1,0.6,0.3,0.8S373.9,125.9,374.3,125.9z"/>
	</g>
	<g>
		<path d="M378.9,119.4h1.8l1.5,4.3c0.2,0.6,0.4,1.2,0.5,1.7h0.1c0-0.3,0.1-0.6,0.2-0.9s0.7-2.1,1.7-5.1h1.7l-3.2,8.6
			c-0.6,1.6-1.6,2.4-2.9,2.4c-0.4,0-0.7,0-1-0.1V129c0.2,0.1,0.5,0.1,0.8,0.1c0.8,0,1.3-0.4,1.6-1.3l0.3-0.7L378.9,119.4z"/>
	</g>
</g>
<g>
	<g>
		<path class="st5" d="M259.5,247.9h-48.9c-0.9,0-1.7-0.8-1.7-1.7v-34.7c0-0.9,0.8-1.7,1.7-1.7h48.9c0.9,0,1.7,0.8,1.7,1.7v34.7
			C261.2,247.2,260.4,247.9,259.5,247.9z"/>
		<path d="M259.5,249.9h-48.9c-2,0-3.7-1.7-3.7-3.7v-34.7c0-2,1.7-3.7,3.7-3.7h48.9c2,0,3.7,1.7,3.7,3.7v34.7
			C263.2,248.3,261.5,249.9,259.5,249.9z M210.9,245.9h48.3v-34.1h-48.3V245.9z"/>
	</g>
	<g>
		<g>
			<g>
				<g>
					<rect x="224.5" y="217.5" width="10.5" height="4"/>
				</g>
				<g>
					<g>
						<polygon points="226,214.5 217.4,219.5 226,224.5 						"/>
					</g>
				</g>
			</g>
			<g>
				<g>
					<rect x="221.8" y="230.6" width="10.5" height="4"/>
				</g>
				<g>
					<g>
						<polygon points="223.2,227.6 214.6,232.6 223.2,237.6 						"/>
					</g>
				</g>
			</g>
		</g>
		<g>
			<g>
				<g>
					<rect x="234.9" y="236.3" width="10.5" height="4"/>
				</g>
				<g>
					<g>
						<polygon points="244,243.3 252.6,238.3 244,233.3 						"/>
					</g>
				</g>
			</g>
			<g>
				<g>
					<rect x="237.7" y="223.2" width="10.5" height="4"/>
				</g>
				<g>
					<g>
						<polygon points="246.8,230.2 255.4,225.2 246.8,220.2 						"/>
					</g>
				</g>
			</g>
		</g>
	</g>
</g>
<g>
	<g>
		<ellipse class="st5" cx="287.1" cy="122.9" rx="26" ry="23"/>
		<path d="M287.1,147.9c-15.4,0-28-11.2-28-25s12.5-25,28-25s28,11.2,28,25S302.5,147.9,287.1,147.9z M287.1,101.9
			c-13.2,0-24,9.4-24,21s10.7,21,24,21s24-9.4,24-21S300.3,101.9,287.1,101.9z"/>
	</g>
	<g>
		<g>
			<g>
				<rect x="276.5" y="106.3" transform="matrix(0.8102 -0.5862 0.5862 0.8102 -12.1437 184.2879)" width="4" height="9.2"/>
			</g>
			<g>
				<g>
					<polygon points="276.3,116.3 285.4,120.4 284.3,110.5 					"/>
				</g>
			</g>
		</g>
		<g>
			<g>
				<rect x="275" y="125.4" transform="matrix(0.8343 -0.5513 0.5513 0.8343 -23.794 175.6217)" width="10.5" height="4"/>
			</g>
			<g>
				<g>
					<polygon points="274.3,125.3 269.9,134.3 279.8,133.7 					"/>
				</g>
			</g>
		</g>
		<g>
			<g>
				<rect x="293.8" y="130.3" transform="matrix(0.8101 -0.5862 0.5862 0.8101 -22.9073 199.0307)" width="4" height="9.2"/>
			</g>
			<g>
				<g>
					<polygon points="298,129.4 288.9,125.4 289.9,135.3 					"/>
				</g>
			</g>
		</g>
		<g>
			<g>
				<rect x="288.6" y="116.4" transform="matrix(0.8343 -0.5513 0.5513 0.8343 -16.5587 181.6526)" width="10.5" height="4"/>
			</g>
			<g>
				<g>
					<polygon points="299.8,120.4 304.3,111.5 294.3,112.1 					"/>
				</g>
			</g>
		</g>
	</g>
</g>
<g>
	<g>
		<path class="st5" d="M103.8,175.7H73.4c-1.1,0-2.1-0.9-2.1-2.1v-35.1c0-1.1,0.9-2.1,2.1-2.1h30.4c1.1,0,2.1,0.9,2.1,2.1v35.1
			C105.8,174.8,104.9,175.7,103.8,175.7z"/>
		<path d="M103.8,177.7H73.4c-2.2,0-4.1-1.8-4.1-4.1v-35.1c0-2.2,1.8-4.1,4.1-4.1h30.4c2.2,0,4.1,1.8,4.1,4.1v35.1
			C107.8,175.9,106,177.7,103.8,177.7z M73.4,138.5l-0.1,35.2l30.4,0.1c0,0,0.1,0,0.1-0.1v-35.1L73.4,138.5z"/>
	</g>
	<g>
		<g>
			<rect x="76.3" y="143.8" width="24.6" height="4"/>
		</g>
		<g>
			<rect x="76.3" y="154.1" width="24.6" height="4"/>
		</g>
		<g>
			<rect x="76.3" y="164.4" width="24.6" height="4"/>
		</g>
	</g>
</g>
<g>
	<g>
		<path d="M61.1,117.2c0,1.6-0.5,2.9-1.4,3.8c-0.9,0.9-2.2,1.3-4,1.3h-2.8v-10H56c1.6,0,2.8,0.4,3.7,1.3
			C60.6,114.4,61.1,115.6,61.1,117.2z M59.4,117.2c0-2.4-1.1-3.6-3.4-3.6h-1.4v7.3h1.2C58.2,120.9,59.4,119.7,59.4,117.2z"/>
	</g>
	<g>
		<path d="M71.5,122.3h-2l-4.9-8h-0.1l0,0.4c0.1,0.8,0.1,1.6,0.1,2.3v5.2h-1.5v-10h2l4.9,7.9h0c0-0.1,0-0.5-0.1-1.1s0-1.2,0-1.5
			v-5.2h1.5V122.3z"/>
	</g>
	<g>
		<path d="M80,119.5c0,0.9-0.3,1.6-1,2.1s-1.5,0.8-2.7,0.8s-2.1-0.2-2.8-0.5v-1.5c0.5,0.2,0.9,0.4,1.5,0.5c0.5,0.1,1,0.2,1.4,0.2
			c0.6,0,1.1-0.1,1.4-0.4c0.3-0.2,0.5-0.6,0.5-1c0-0.4-0.1-0.7-0.4-1s-0.9-0.6-1.8-0.9c-0.9-0.4-1.6-0.8-1.9-1.3s-0.6-1-0.6-1.7
			c0-0.8,0.3-1.5,0.9-2s1.4-0.7,2.4-0.7c1,0,1.9,0.2,2.9,0.6l-0.5,1.3c-0.9-0.4-1.7-0.6-2.4-0.6c-0.5,0-0.9,0.1-1.2,0.3
			s-0.4,0.5-0.4,0.9c0,0.3,0.1,0.5,0.2,0.7s0.3,0.4,0.5,0.5s0.7,0.4,1.4,0.6c0.7,0.3,1.3,0.6,1.6,0.9s0.6,0.6,0.8,0.9
			S80,119.1,80,119.5z"/>
	</g>
	<g>
		<path d="M91.3,119.5c0,0.9-0.3,1.6-1,2.1s-1.5,0.8-2.7,0.8s-2.1-0.2-2.8-0.5v-1.5c0.5,0.2,0.9,0.4,1.5,0.5c0.5,0.1,1,0.2,1.4,0.2
			c0.6,0,1.1-0.1,1.4-0.4c0.3-0.2,0.5-0.6,0.5-1c0-0.4-0.1-0.7-0.4-1s-0.9-0.6-1.8-0.9c-0.9-0.4-1.6-0.8-1.9-1.3s-0.6-1-0.6-1.7
			c0-0.8,0.3-1.5,0.9-2s1.4-0.7,2.4-0.7c1,0,1.9,0.2,2.9,0.6l-0.5,1.3c-0.9-0.4-1.7-0.6-2.4-0.6c-0.5,0-0.9,0.1-1.2,0.3
			s-0.4,0.5-0.4,0.9c0,0.3,0.1,0.5,0.2,0.7s0.3,0.4,0.5,0.5s0.7,0.4,1.4,0.6c0.7,0.3,1.3,0.6,1.6,0.9s0.6,0.6,0.8,0.9
			S91.3,119.1,91.3,119.5z"/>
	</g>
	<g>
		<path d="M96.4,122.4c-1.2,0-2.1-0.3-2.8-1c-0.7-0.7-1-1.6-1-2.8c0-1.2,0.3-2.2,0.9-2.9s1.5-1.1,2.5-1.1c1,0,1.8,0.3,2.4,0.9
			s0.9,1.4,0.9,2.5v0.9h-5c0,0.7,0.2,1.3,0.6,1.7s0.9,0.6,1.6,0.6c0.4,0,0.9,0,1.2-0.1c0.4-0.1,0.8-0.2,1.2-0.4v1.3
			c-0.4,0.2-0.8,0.3-1.2,0.4S96.9,122.4,96.4,122.4z M96.1,115.8c-0.5,0-0.9,0.2-1.2,0.5c-0.3,0.3-0.5,0.8-0.6,1.4h3.4
			c0-0.6-0.2-1.1-0.5-1.4S96.6,115.8,96.1,115.8z"/>
	</g>
	<g>
		<path d="M104.9,114.6c0.3,0,0.6,0,0.8,0.1l-0.2,1.5c-0.2-0.1-0.5-0.1-0.7-0.1c-0.6,0-1.2,0.2-1.6,0.6c-0.4,0.4-0.6,1-0.6,1.6v4
			h-1.6v-7.6h1.3l0.2,1.3h0.1c0.3-0.5,0.6-0.8,1-1.1C104.1,114.7,104.5,114.6,104.9,114.6z"/>
	</g>
	<g>
		<path d="M108.9,122.3l-2.9-7.6h1.7l1.5,4.4c0.3,0.7,0.4,1.3,0.5,1.8h0.1c0-0.3,0.2-0.9,0.5-1.8l1.5-4.4h1.7l-2.9,7.6H108.9z"/>
	</g>
	<g>
		<path d="M117.9,122.4c-1.2,0-2.1-0.3-2.8-1c-0.7-0.7-1-1.6-1-2.8c0-1.2,0.3-2.2,0.9-2.9s1.5-1.1,2.5-1.1c1,0,1.8,0.3,2.4,0.9
			s0.9,1.4,0.9,2.5v0.9h-5c0,0.7,0.2,1.3,0.6,1.7s0.9,0.6,1.6,0.6c0.4,0,0.9,0,1.2-0.1c0.4-0.1,0.8-0.2,1.2-0.4v1.3
			c-0.4,0.2-0.8,0.3-1.2,0.4S118.5,122.4,117.9,122.4z M117.7,115.8c-0.5,0-0.9,0.2-1.2,0.5c-0.3,0.3-0.5,0.8-0.6,1.4h3.4
			c0-0.6-0.2-1.1-0.5-1.4S118.2,115.8,117.7,115.8z"/>
	</g>
	<g>
		<path d="M126.5,114.6c0.3,0,0.6,0,0.8,0.1l-0.2,1.5c-0.2-0.1-0.5-0.1-0.7-0.1c-0.6,0-1.2,0.2-1.6,0.6c-0.4,0.4-0.6,1-0.6,1.6v4
			h-1.6v-7.6h1.3l0.2,1.3h0.1c0.3-0.5,0.6-0.8,1-1.1C125.6,114.7,126.1,114.6,126.5,114.6z"/>
	</g>
</g>
<g>
	<g>
		<path class="st5" d="M316,39.4c0.5-1.2,0.8-2.4,0.8-3.7c0-6.1-6-11.1-13.5-11.1c-1,0-1.9,0.1-2.8,0.3c-2.2-4.4-7.4-7.5-13.5-7.5
			c-4.2,0-8,1.5-10.7,3.9c-1.8-1.5-4.4-2.4-7.1-2.4c-1.1,0-2.2,0.1-3.2,0.4c-1.7-4.3-5.9-7.4-10.8-7.4c-5.3,0-9.7,3.5-11.2,8.3
			c-2.4-1.7-5.8-2.8-9.6-2.8c-3.7,0-7.1,1-9.4,2.7c-1.5-0.7-3.2-1.2-5-1.2c-6.3,0-11.4,5.1-11.4,11.4c0,4.6,2.7,8.5,6.6,10.3
			c-0.3,0.9-0.5,1.9-0.5,2.8c0,5.7,5.6,10.3,12.5,10.3c0.6,0,1.1,0,1.7-0.1c0,0,0,0.1,0,0.1c0,7.2,7.5,13,16.8,13
			c6.4,0,11.9-2.7,14.8-6.8c2.4,2.3,5.9,3.8,9.8,3.8c2.4,0,4.6-0.6,6.5-1.5c2.6,1.6,5.7,2.5,9.1,2.5c7.2,0,13.2-4.1,15-9.8
			c1.1,0.2,2.2,0.3,3.3,0.3c8,0,14.5-4.4,14.5-9.9C318.8,43.1,317.7,41,316,39.4z"/>
		<path d="M245.7,67.6c-9.4,0-17.1-5.8-17.8-13c-0.3,0-0.5,0-0.7,0c-7.5,0-13.5-5-13.5-11.3c0-0.8,0.1-1.6,0.3-2.3
			c-3.9-2.2-6.4-6.3-6.4-10.8c0-6.8,5.5-12.4,12.4-12.4c1.7,0,3.4,0.3,4.9,1c2.6-1.6,5.9-2.5,9.5-2.5c3.4,0,6.6,0.8,9.1,2.3
			c1.9-4.7,6.6-7.8,11.7-7.8c4.9,0,9.3,2.8,11.4,7.3c3.4-0.7,7,0,9.7,1.9c2.9-2.3,6.7-3.6,10.7-3.6c6,0,11.4,2.9,14,7.4
			c0.8-0.1,1.5-0.2,2.3-0.2c8,0,14.5,5.4,14.5,12.1c0,1.2-0.2,2.3-0.6,3.5c1.7,1.8,2.6,3.9,2.6,6.1c0,6.6-8.5,11.9-18.2,10.7
			c-2.3,5.7-8.6,9.7-15.7,9.7c-3.3,0-6.4-0.8-9.1-2.4c-2,0.9-4.2,1.4-6.5,1.4c-3.6,0-7-1.2-9.7-3.3
			C257.4,65.2,251.8,67.6,245.7,67.6z M230,52.4l0,1.3c0,6.6,7.1,12,15.8,12c5.8,0,11.2-2.4,13.9-6.4l0.7-0.9l0.8,0.8
			c2.3,2.2,5.6,3.5,9.1,3.5c2.1,0,4.2-0.5,6.1-1.4l0.5-0.2l0.5,0.3c2.5,1.5,5.5,2.4,8.6,2.4c6.5,0,12.3-3.7,14.1-9.1l0.3-0.8
			l0.8,0.1c1.1,0.2,2.2,0.3,3.2,0.3c7.4,0,13.5-4,13.5-8.9c0-1.8-0.9-3.6-2.5-5.1l-0.5-0.5l0.3-0.7c0.5-1.1,0.7-2.2,0.7-3.3
			c0-5.6-5.6-10.1-12.5-10.1c-0.9,0-1.8,0.1-2.7,0.2l-0.7,0.1l-0.3-0.7c-2.1-4.2-7-6.9-12.6-6.9c-3.8,0-7.4,1.3-10,3.6l-0.6,0.6
			l-0.7-0.5c-1.7-1.4-4-2.2-6.5-2.2c-1,0-2,0.1-2.9,0.4l-0.9,0.2l-0.3-0.8c-1.6-4.1-5.5-6.8-9.9-6.8c-4.7,0-8.9,3.1-10.2,7.6
			l-0.4,1.4l-1.1-0.8c-2.3-1.7-5.6-2.6-9-2.6c-3.3,0-6.6,0.9-8.8,2.5l-0.5,0.3l-0.5-0.3c-1.4-0.7-3-1.1-4.6-1.1
			c-5.7,0-10.4,4.6-10.4,10.4c0,4,2.4,7.7,6,9.4l0.8,0.4l-0.3,0.9c-0.3,0.8-0.4,1.7-0.4,2.5c0,5.1,5.2,9.3,11.5,9.3
			c0.5,0,1,0,1.6-0.1L230,52.4z"/>
	</g>
	<g>
		<g>
			<path d="M245.7,36.4h-4.8v-8.6h4.8V29h-3.4v2.3h3.2v1.2h-3.2v2.7h3.4V36.4z"/>
		</g>
		<g>
			<path d="M248.8,33.1l-2.2-3.2h1.6l1.5,2.3l1.5-2.3h1.6l-2.2,3.2l2.3,3.3h-1.6l-1.6-2.4l-1.6,2.4h-1.6L248.8,33.1z"/>
		</g>
		<g>
			<path d="M256.4,35.4c0.3,0,0.7-0.1,1-0.2v1c-0.2,0.1-0.3,0.1-0.6,0.2s-0.5,0.1-0.7,0.1c-1.3,0-2-0.7-2-2.1V31h-0.9v-0.6l0.9-0.5
				l0.5-1.4h0.8v1.4h1.8v1h-1.8v3.5c0,0.3,0.1,0.6,0.2,0.7S256.1,35.4,256.4,35.4z"/>
		</g>
		<g>
			<path d="M261.5,36.5c-1,0-1.8-0.3-2.4-0.9s-0.9-1.4-0.9-2.4c0-1.1,0.3-1.9,0.8-2.5s1.3-0.9,2.2-0.9c0.9,0,1.5,0.3,2,0.8
				s0.7,1.2,0.7,2.1v0.7h-4.3c0,0.6,0.2,1.1,0.5,1.5s0.8,0.5,1.4,0.5c0.4,0,0.7,0,1.1-0.1s0.7-0.2,1.1-0.4v1.1
				c-0.3,0.2-0.7,0.3-1,0.3S262,36.5,261.5,36.5z M261.3,30.9c-0.4,0-0.8,0.1-1.1,0.4s-0.4,0.7-0.5,1.2h2.9c0-0.5-0.1-0.9-0.4-1.2
				S261.7,30.9,261.3,30.9z"/>
		</g>
		<g>
			<path d="M268.9,29.8c0.3,0,0.5,0,0.7,0.1l-0.1,1.3c-0.2,0-0.4-0.1-0.6-0.1c-0.6,0-1,0.2-1.3,0.5S267,32.4,267,33v3.4h-1.4v-6.5
				h1.1l0.2,1.1h0.1c0.2-0.4,0.5-0.7,0.8-0.9S268.5,29.8,268.9,29.8z"/>
		</g>
		<g>
			<path d="M276.5,36.4h-1.4v-4c0-0.5-0.1-0.9-0.3-1.1s-0.5-0.4-1-0.4c-0.6,0-1,0.2-1.3,0.5s-0.4,0.9-0.4,1.7v3.2h-1.4v-6.5h1.1
				l0.2,0.8h0.1c0.2-0.3,0.5-0.5,0.8-0.7s0.8-0.3,1.2-0.3c1.6,0,2.3,0.8,2.3,2.4V36.4z"/>
		</g>
		<g>
			<path d="M282.5,36.4l-0.3-0.9h0c-0.3,0.4-0.6,0.7-0.9,0.8s-0.7,0.2-1.2,0.2c-0.6,0-1.1-0.2-1.5-0.5s-0.5-0.8-0.5-1.5
				c0-0.7,0.2-1.2,0.7-1.5s1.3-0.5,2.3-0.6l1.1,0v-0.3c0-0.4-0.1-0.7-0.3-0.9s-0.5-0.3-0.9-0.3c-0.3,0-0.7,0-1,0.1s-0.6,0.2-0.9,0.3
				l-0.4-1c0.4-0.2,0.7-0.3,1.2-0.4s0.8-0.1,1.2-0.1c0.8,0,1.4,0.2,1.9,0.5s0.6,0.9,0.6,1.7v4.4H282.5z M280.4,35.5
				c0.5,0,0.9-0.1,1.2-0.4s0.5-0.7,0.5-1.2v-0.6l-0.8,0c-0.6,0-1.1,0.1-1.4,0.3s-0.4,0.5-0.4,0.9c0,0.3,0.1,0.5,0.3,0.7
				S280.1,35.5,280.4,35.5z"/>
		</g>
		<g>
			<path d="M286.7,36.4h-1.4v-9.1h1.4V36.4z"/>
		</g>
		<g>
			<path d="M243.3,50.8h-1.4v-4c0-0.5-0.1-0.9-0.3-1.1s-0.5-0.4-1-0.4c-0.6,0-1,0.2-1.3,0.5s-0.4,0.9-0.4,1.7v3.2h-1.4v-6.5h1.1
				l0.2,0.8h0.1c0.2-0.3,0.5-0.5,0.8-0.7s0.8-0.3,1.2-0.3c1.6,0,2.3,0.8,2.3,2.4V50.8z"/>
		</g>
		<g>
			<path d="M248,50.9c-1,0-1.8-0.3-2.4-0.9s-0.9-1.4-0.9-2.4c0-1.1,0.3-1.9,0.8-2.5s1.3-0.9,2.2-0.9c0.9,0,1.5,0.3,2,0.8
				s0.7,1.2,0.7,2.1v0.7h-4.3c0,0.6,0.2,1.1,0.5,1.5s0.8,0.5,1.4,0.5c0.4,0,0.7,0,1.1-0.1s0.7-0.2,1.1-0.4v1.1
				c-0.3,0.2-0.7,0.3-1,0.3S248.5,50.9,248,50.9z M247.8,45.3c-0.4,0-0.8,0.1-1.1,0.4s-0.4,0.7-0.5,1.2h2.9c0-0.5-0.1-0.9-0.4-1.2
				S248.2,45.3,247.8,45.3z"/>
		</g>
		<g>
			<path d="M254.5,49.8c0.3,0,0.7-0.1,1-0.2v1c-0.2,0.1-0.3,0.1-0.6,0.2s-0.5,0.1-0.7,0.1c-1.3,0-2-0.7-2-2.1v-3.5h-0.9v-0.6
				l0.9-0.5l0.5-1.4h0.8v1.4h1.8v1h-1.8v3.5c0,0.3,0.1,0.6,0.2,0.7S254.2,49.8,254.5,49.8z"/>
		</g>
		<g>
			<path d="M262.1,50.8l-0.8-3c-0.1-0.3-0.3-1.1-0.6-2.2h-0.1c-0.2,1.1-0.4,1.8-0.5,2.2l-0.9,3h-1.5l-1.8-6.5h1.4l0.8,3.2
				c0.2,0.8,0.3,1.5,0.4,2h0c0-0.3,0.1-0.6,0.2-1s0.1-0.6,0.2-0.8l1-3.4h1.5l1,3.4c0.1,0.2,0.1,0.5,0.2,0.9s0.1,0.7,0.2,0.9h0
				c0.1-0.5,0.2-1.2,0.4-2l0.8-3.2h1.4l-1.8,6.5H262.1z"/>
		</g>
		<g>
			<path d="M272.4,47.6c0,1.1-0.3,1.9-0.8,2.5s-1.3,0.9-2.3,0.9c-0.6,0-1.1-0.1-1.6-0.4s-0.8-0.7-1.1-1.2s-0.4-1.1-0.4-1.8
				c0-1.1,0.3-1.9,0.8-2.5s1.3-0.9,2.3-0.9c0.9,0,1.7,0.3,2.2,0.9S272.4,46.5,272.4,47.6z M267.6,47.6c0,1.5,0.6,2.2,1.7,2.2
				c1.1,0,1.6-0.7,1.6-2.2c0-1.5-0.6-2.2-1.7-2.2c-0.6,0-1,0.2-1.3,0.6S267.6,46.8,267.6,47.6z"/>
		</g>
		<g>
			<path d="M277.2,44.2c0.3,0,0.5,0,0.7,0.1l-0.1,1.3c-0.2,0-0.4-0.1-0.6-0.1c-0.6,0-1,0.2-1.3,0.5s-0.5,0.8-0.5,1.4v3.4h-1.4v-6.5
				h1.1l0.2,1.1h0.1c0.2-0.4,0.5-0.7,0.8-0.9S276.8,44.2,277.2,44.2z"/>
		</g>
		<g>
			<path d="M280.5,47.4l0.8-1l2-2.1h1.6l-2.6,2.8l2.8,3.7h-1.6l-2.1-2.8l-0.8,0.6v2.2h-1.4v-9.1h1.4v4.4L280.5,47.4L280.5,47.4z"/>
		</g>
		<g>
			<path d="M290.3,49c0,0.6-0.2,1.1-0.7,1.5s-1.1,0.5-2,0.5c-0.9,0-1.6-0.1-2.1-0.4v-1.2c0.8,0.4,1.5,0.5,2.1,0.5
				c0.8,0,1.3-0.3,1.3-0.8c0-0.2,0-0.3-0.1-0.4s-0.2-0.2-0.5-0.3s-0.5-0.3-0.9-0.4c-0.7-0.3-1.3-0.6-1.5-0.9s-0.4-0.7-0.4-1.1
				c0-0.6,0.2-1,0.7-1.3s1.1-0.5,1.8-0.5c0.8,0,1.5,0.2,2.2,0.5l-0.4,1c-0.7-0.3-1.3-0.4-1.8-0.4c-0.7,0-1.1,0.2-1.1,0.6
				c0,0.2,0.1,0.4,0.3,0.5s0.6,0.3,1.2,0.6c0.5,0.2,0.9,0.4,1.2,0.6s0.4,0.4,0.5,0.6S290.3,48.6,290.3,49z"/>
		</g>
	</g>
</g>
<g>
	<g>
		<path d="M286.5,219.5h-1.6V215h-4.6v4.5h-1.6v-10h1.6v4.1h4.6v-4.1h1.6V219.5z"/>
	</g>
	<g>
		<path d="M294.3,219.5l-0.2-1H294c-0.2,0.4-0.5,0.6-1,0.8c-0.4,0.2-0.9,0.3-1.4,0.3c-0.9,0-1.6-0.2-2.1-0.7s-0.7-1.1-0.7-2.1v-4.9
			h1.6v4.7c0,0.6,0.1,1,0.4,1.3s0.6,0.4,1.1,0.4c0.7,0,1.2-0.2,1.5-0.6c0.3-0.4,0.5-1.1,0.5-2v-3.8h1.6v7.6H294.3z"/>
	</g>
	<g>
		<path d="M301.7,211.8c0.9,0,1.7,0.3,2.2,1c0.5,0.7,0.8,1.6,0.8,2.9c0,1.2-0.3,2.2-0.8,2.9s-1.3,1-2.2,1c-1,0-1.7-0.3-2.2-1h-0.1
			l-0.3,0.9h-1.2v-10.6h1.6v2.5c0,0.2,0,0.5,0,0.8s0,0.6,0,0.7h0.1C299.9,212.2,300.7,211.8,301.7,211.8z M301.3,213.1
			c-0.6,0-1.1,0.2-1.4,0.6c-0.3,0.4-0.4,1-0.4,1.9v0.1c0,0.9,0.1,1.6,0.4,2s0.8,0.6,1.4,0.6c0.6,0,1-0.2,1.3-0.7
			c0.3-0.5,0.4-1.1,0.4-2C303,214,302.4,213.1,301.3,213.1z"/>
	</g>
</g>
<g>
	<g>
		<path class="st5" d="M303.7,370.3h-48.9c-0.9,0-1.7-0.8-1.7-1.7v-34.7c0-0.9,0.8-1.7,1.7-1.7h48.9c0.9,0,1.7,0.8,1.7,1.7v34.7
			C305.4,369.5,304.7,370.3,303.7,370.3z"/>
		<path d="M303.7,372.3h-48.9c-2,0-3.7-1.7-3.7-3.7v-34.7c0-2,1.7-3.7,3.7-3.7h48.9c2,0,3.7,1.7,3.7,3.7v34.7
			C307.4,370.6,305.8,372.3,303.7,372.3z M255.1,368.3h48.3v-34.1h-48.3V368.3z"/>
	</g>
	<g>
		<g>
			<g>
				<g>
					<rect x="268.8" y="339.8" width="10.5" height="4"/>
				</g>
				<g>
					<g>
						<polygon points="270.3,336.8 261.7,341.8 270.3,346.8 						"/>
					</g>
				</g>
			</g>
			<g>
				<g>
					<rect x="266.1" y="352.9" width="10.5" height="4"/>
				</g>
				<g>
					<g>
						<polygon points="267.5,350 258.9,354.9 267.5,359.9 						"/>
					</g>
				</g>
			</g>
		</g>
		<g>
			<g>
				<g>
					<rect x="279.2" y="358.6" width="10.5" height="4"/>
				</g>
				<g>
					<g>
						<polygon points="288.3,365.6 296.9,360.6 288.3,355.6 						"/>
					</g>
				</g>
			</g>
			<g>
				<g>
					<rect x="282" y="345.5" width="10.5" height="4"/>
				</g>
				<g>
					<g>
						<polygon points="291,352.5 299.7,347.5 291,342.5 						"/>
					</g>
				</g>
			</g>
		</g>
	</g>
</g>
<g>
	<g>
		<path class="st5" d="M473.5,297.3h-48.9c-0.9,0-1.7-0.8-1.7-1.7v-34.7c0-0.9,0.8-1.7,1.7-1.7h48.9c0.9,0,1.7,0.8,1.7,1.7v34.7
			C475.2,296.5,474.4,297.3,473.5,297.3z"/>
		<path d="M473.5,299.3h-48.9c-2,0-3.7-1.7-3.7-3.7v-34.7c0-2,1.7-3.7,3.7-3.7h48.9c2,0,3.7,1.7,3.7,3.7v34.7
			C477.2,297.6,475.5,299.3,473.5,299.3z M424.9,295.3h48.3v-34.1h-48.3V295.3z"/>
	</g>
	<g>
		<g>
			<g>
				<g>
					<rect x="438.6" y="266.8" width="10.5" height="4"/>
				</g>
				<g>
					<g>
						<polygon points="440,263.8 431.4,268.8 440,273.8 						"/>
					</g>
				</g>
			</g>
			<g>
				<g>
					<rect x="435.8" y="279.9" width="10.5" height="4"/>
				</g>
				<g>
					<g>
						<polygon points="437.3,276.9 428.6,281.9 437.3,286.9 						"/>
					</g>
				</g>
			</g>
		</g>
		<g>
			<g>
				<g>
					<rect x="449" y="285.6" width="10.5" height="4"/>
				</g>
				<g>
					<g>
						<polygon points="458,292.6 466.7,287.6 458,282.6 						"/>
					</g>
				</g>
			</g>
			<g>
				<g>
					<rect x="451.7" y="272.5" width="10.5" height="4"/>
				</g>
				<g>
					<g>
						<polygon points="460.8,279.5 469.4,274.5 460.8,269.5 						"/>
					</g>
				</g>
			</g>
		</g>
	</g>
</g>
<g>
	<g>
		<path class="st5" d="M421.2,475.9h-48.9c-0.9,0-1.7-0.8-1.7-1.7v-34.7c0-0.9,0.8-1.7,1.7-1.7h48.9c0.9,0,1.7,0.8,1.7,1.7v34.7
			C422.9,475.1,422.1,475.9,421.2,475.9z"/>
		<path d="M421.2,477.9h-48.9c-2,0-3.7-1.7-3.7-3.7v-34.7c0-2,1.7-3.7,3.7-3.7h48.9c2,0,3.7,1.7,3.7,3.7v34.7
			C424.9,476.2,423.2,477.9,421.2,477.9z M372.6,473.9h48.3v-34.1h-48.3V473.9z"/>
	</g>
	<g>
		<g>
			<g>
				<g>
					<rect x="386.3" y="445.4" width="10.5" height="4"/>
				</g>
				<g>
					<g>
						<polygon points="387.7,442.4 379.1,447.4 387.7,452.4 						"/>
					</g>
				</g>
			</g>
			<g>
				<g>
					<rect x="383.5" y="458.5" width="10.5" height="4"/>
				</g>
				<g>
					<g>
						<polygon points="385,455.5 376.3,460.5 385,465.5 						"/>
					</g>
				</g>
			</g>
		</g>
		<g>
			<g>
				<g>
					<rect x="396.7" y="464.2" width="10.5" height="4"/>
				</g>
				<g>
					<g>
						<polygon points="405.7,471.2 414.4,466.2 405.7,461.2 						"/>
					</g>
				</g>
			</g>
			<g>
				<g>
					<rect x="399.4" y="451.1" width="10.5" height="4"/>
				</g>
				<g>
					<g>
						<polygon points="408.5,458.1 417.1,453.1 408.5,448.1 						"/>
					</g>
				</g>
			</g>
		</g>
	</g>
</g>
<g>
	<g>
		<path class="st5" d="M172.9,491.2H124c-0.9,0-1.7-0.8-1.7-1.7v-34.7c0-0.9,0.8-1.7,1.7-1.7h48.9c0.9,0,1.7,0.8,1.7,1.7v34.7
			C174.6,490.5,173.8,491.2,172.9,491.2z"/>
		<path d="M172.9,493.2H124c-2,0-3.7-1.7-3.7-3.7v-34.7c0-2,1.7-3.7,3.7-3.7h48.9c2,0,3.7,1.7,3.7,3.7v34.7
			C176.6,491.6,174.9,493.2,172.9,493.2z M124.3,489.2h48.3v-34.1h-48.3V489.2z"/>
	</g>
	<g>
		<g>
			<g>
				<g>
					<rect x="138" y="460.8" width="10.5" height="4"/>
				</g>
				<g>
					<g>
						<polygon points="139.5,457.8 130.8,462.8 139.5,467.8 						"/>
					</g>
				</g>
			</g>
			<g>
				<g>
					<rect x="135.2" y="473.9" width="10.5" height="4"/>
				</g>
				<g>
					<g>
						<polygon points="136.7,470.9 128.1,475.9 136.7,480.9 						"/>
					</g>
				</g>
			</g>
		</g>
		<g>
			<g>
				<g>
					<rect x="148.4" y="479.6" width="10.5" height="4"/>
				</g>
				<g>
					<g>
						<polygon points="157.5,486.5 166.1,481.6 157.5,476.6 						"/>
					</g>
				</g>
			</g>
			<g>
				<g>
					<rect x="151.1" y="466.5" width="10.5" height="4"/>
				</g>
				<g>
					<g>
						<polygon points="160.2,473.4 168.9,468.5 160.2,463.5 						"/>
					</g>
				</g>
			</g>
		</g>
	</g>
</g>
<g>
	<g>
		<path class="st5" d="M468.8,190.7h-22.7c-2.8,0-5.1-2.3-5.1-5.1v-14.4c0-2.8,2.3-5.1,5.1-5.1h22.7c2.8,0,5.1,2.3,5.1,5.1v14.4
			C473.8,188.4,471.6,190.7,468.8,190.7z"/>
		<path d="M468.8,192.2h-22.7c-3.6,0-6.6-2.9-6.6-6.6v-14.4c0-3.6,2.9-6.6,6.6-6.6h22.7c3.6,0,6.6,2.9,6.6,6.6v14.4
			C475.3,189.3,472.4,192.2,468.8,192.2z M446.1,167.7c-2,0-3.6,1.6-3.6,3.6v14.4c0,2,1.6,3.6,3.6,3.6h22.7c2,0,3.6-1.6,3.6-3.6
			v-14.4c0-2-1.6-3.6-3.6-3.6H446.1z"/>
	</g>
	<g>
		<g>
			<path class="st5" d="M439.9,203.9c-1.1,0-1.5-0.8-1-1.7l3.4-5.5c0.6-0.9,1.9-1.6,3-1.6h24.1c1.1,0,2.5,0.7,3,1.7l3.5,5.8
				c0.6,0.9,0.1,1.7-1,1.7L439.9,203.9z"/>
		</g>
		<g>
			<path d="M475.1,206C475.1,206,475.1,206,475.1,206l-35.1-0.4c-1.1,0-2-0.6-2.4-1.4c-0.5-0.8-0.4-1.8,0.2-2.8l3.4-5.8
				c0.8-1.3,2.6-2.7,4.3-2.7h24.1c1.7,0,3.5,1.3,4.3,2.6l3.5,5.9c0.6,0.9,0.6,2.1,0.1,3C477,205.3,476.1,206,475.1,206z
				 M439.9,202.4l0.1,1.5L439.9,202.4C439.9,202.4,439.9,202.4,439.9,202.4z M440.6,202.4l33.9,0.2l-3.2-5.4
				c-0.4-0.6-1.3-1.2-1.7-1.2h-24.1c-0.5,0-1.4,0.6-1.7,1.2L440.6,202.4z"/>
		</g>
	</g>
	<g>
		<rect x="451.4" y="190.7" width="12" height="4.2"/>
	</g>
	<g>
		<path d="M468.1,186.7h-21.3c-0.7,0-1.2-0.5-1.2-1.2v-14.1c0-0.7,0.5-1.2,1.2-1.2h21.3c0.7,0,1.2,0.5,1.2,1.2v14.1
			C469.3,186.1,468.8,186.7,468.1,186.7z"/>
	</g>
</g>
<g>
	<g>
		<path class="st5" d="M552.8,264.7h-22.7c-2.8,0-5.1-2.3-5.1-5.1v-14.4c0-2.8,2.3-5.1,5.1-5.1h22.7c2.8,0,5.1,2.3,5.1,5.1v14.4
			C557.8,262.4,555.6,264.7,552.8,264.7z"/>
		<path d="M552.8,266.2h-22.7c-3.6,0-6.6-2.9-6.6-6.6v-14.4c0-3.6,2.9-6.6,6.6-6.6h22.7c3.6,0,6.6,2.9,6.6,6.6v14.4
			C559.3,263.3,556.4,266.2,552.8,266.2z M530.1,241.7c-2,0-3.6,1.6-3.6,3.6v14.4c0,2,1.6,3.6,3.6,3.6h22.7c2,0,3.6-1.6,3.6-3.6
			v-14.4c0-2-1.6-3.6-3.6-3.6H530.1z"/>
	</g>
	<g>
		<g>
			<path class="st5" d="M523.9,277.9c-1.1,0-1.5-0.8-1-1.7l3.4-5.5c0.6-0.9,1.9-1.6,3-1.6h24.1c1.1,0,2.5,0.7,3,1.7l3.5,5.8
				c0.6,0.9,0.1,1.7-1,1.7L523.9,277.9z"/>
		</g>
		<g>
			<path d="M559.1,280C559.1,280,559.1,280,559.1,280l-35.1-0.4c-1.1,0-2-0.6-2.4-1.4c-0.5-0.8-0.4-1.8,0.2-2.8l3.4-5.8
				c0.8-1.3,2.6-2.7,4.3-2.7h24.1c1.7,0,3.5,1.3,4.3,2.6l3.5,5.9c0.6,0.9,0.6,2.1,0.1,3C561,279.3,560.1,280,559.1,280z
				 M523.9,276.4l0.1,1.5L523.9,276.4C523.9,276.4,523.9,276.4,523.9,276.4z M524.6,276.4l33.9,0.2l-3.2-5.4
				c-0.4-0.6-1.3-1.2-1.7-1.2h-24.1c-0.5,0-1.4,0.6-1.7,1.2L524.6,276.4z"/>
		</g>
	</g>
	<g>
		<rect x="535.4" y="264.7" width="12" height="4.2"/>
	</g>
	<g>
		<path d="M552.1,260.7h-21.3c-0.7,0-1.2-0.5-1.2-1.2v-14.1c0-0.7,0.5-1.2,1.2-1.2h21.3c0.7,0,1.2,0.5,1.2,1.2v14.1
			C553.3,260.1,552.8,260.7,552.1,260.7z"/>
	</g>
</g>
<g>
	<g>
		<path class="st5" d="M488.8,360.7h-22.7c-2.8,0-5.1-2.3-5.1-5.1v-14.4c0-2.8,2.3-5.1,5.1-5.1h22.7c2.8,0,5.1,2.3,5.1,5.1v14.4
			C493.8,358.4,491.6,360.7,488.8,360.7z"/>
		<path d="M488.8,362.2h-22.7c-3.6,0-6.6-2.9-6.6-6.6v-14.4c0-3.6,2.9-6.6,6.6-6.6h22.7c3.6,0,6.6,2.9,6.6,6.6v14.4
			C495.3,359.3,492.4,362.2,488.8,362.2z M466.1,337.7c-2,0-3.6,1.6-3.6,3.6v14.4c0,2,1.6,3.6,3.6,3.6h22.7c2,0,3.6-1.6,3.6-3.6
			v-14.4c0-2-1.6-3.6-3.6-3.6H466.1z"/>
	</g>
	<g>
		<g>
			<path class="st5" d="M459.9,373.9c-1.1,0-1.5-0.8-1-1.7l3.4-5.5c0.6-0.9,1.9-1.6,3-1.6h24.1c1.1,0,2.5,0.7,3,1.7l3.5,5.8
				c0.6,0.9,0.1,1.7-1,1.7L459.9,373.9z"/>
		</g>
		<g>
			<path d="M495.1,376C495.1,376,495.1,376,495.1,376l-35.1-0.4c-1.1,0-2-0.6-2.4-1.4c-0.5-0.8-0.4-1.8,0.2-2.8l3.4-5.8
				c0.8-1.3,2.6-2.7,4.3-2.7h24.1c1.7,0,3.5,1.3,4.3,2.6l3.5,5.9c0.6,0.9,0.6,2.1,0.1,3C497,375.3,496.1,376,495.1,376z
				 M459.9,372.4l0.1,1.5L459.9,372.4C459.9,372.4,459.9,372.4,459.9,372.4z M460.6,372.4l33.9,0.2l-3.2-5.4
				c-0.4-0.6-1.3-1.2-1.7-1.2h-24.1c-0.5,0-1.4,0.6-1.7,1.2L460.6,372.4z"/>
		</g>
	</g>
	<g>
		<rect x="471.4" y="360.7" width="12" height="4.2"/>
	</g>
	<g>
		<path d="M488.1,356.7h-21.3c-0.7,0-1.2-0.5-1.2-1.2v-14.1c0-0.7,0.5-1.2,1.2-1.2h21.3c0.7,0,1.2,0.5,1.2,1.2v14.1
			C489.3,356.1,488.8,356.7,488.1,356.7z"/>
	</g>
</g>
<g>
	<g>
		<path class="st5" d="M164.8,204.7h-22.7c-2.8,0-5.1-2.3-5.1-5.1v-14.4c0-2.8,2.3-5.1,5.1-5.1h22.7c2.8,0,5.1,2.3,5.1,5.1v14.4
			C169.8,202.4,167.6,204.7,164.8,204.7z"/>
		<path d="M164.8,206.2h-22.7c-3.6,0-6.6-2.9-6.6-6.6v-14.4c0-3.6,2.9-6.6,6.6-6.6h22.7c3.6,0,6.6,2.9,6.6,6.6v14.4
			C171.3,203.3,168.4,206.2,164.8,206.2z M142.1,181.7c-2,0-3.6,1.6-3.6,3.6v14.4c0,2,1.6,3.6,3.6,3.6h22.7c2,0,3.6-1.6,3.6-3.6
			v-14.4c0-2-1.6-3.6-3.6-3.6H142.1z"/>
	</g>
	<g>
		<g>
			<path class="st5" d="M135.9,217.9c-1.1,0-1.5-0.8-1-1.7l3.4-5.5c0.6-0.9,1.9-1.6,3-1.6h24.1c1.1,0,2.5,0.7,3,1.7l3.5,5.8
				c0.6,0.9,0.1,1.7-1,1.7L135.9,217.9z"/>
		</g>
		<g>
			<path d="M171.1,220C171.1,220,171.1,220,171.1,220l-35.1-0.4c-1.1,0-2-0.6-2.4-1.4c-0.5-0.8-0.4-1.8,0.2-2.8l3.4-5.8
				c0.8-1.3,2.6-2.7,4.3-2.7h24.1c1.7,0,3.5,1.3,4.3,2.6l3.5,5.9c0.6,0.9,0.6,2.1,0.1,3C173,219.3,172.1,220,171.1,220z
				 M135.9,216.4l0.1,1.5L135.9,216.4C135.9,216.4,135.9,216.4,135.9,216.4z M136.6,216.4l33.9,0.2l-3.2-5.4
				c-0.4-0.6-1.3-1.2-1.7-1.2h-24.1c-0.5,0-1.4,0.6-1.7,1.2L136.6,216.4z"/>
		</g>
	</g>
	<g>
		<rect x="147.4" y="204.7" width="12" height="4.2"/>
	</g>
	<g>
		<path d="M164.1,200.7h-21.3c-0.7,0-1.2-0.5-1.2-1.2v-14.1c0-0.7,0.5-1.2,1.2-1.2h21.3c0.7,0,1.2,0.5,1.2,1.2v14.1
			C165.3,200.1,164.8,200.7,164.1,200.7z"/>
	</g>
</g>
<g>
	<g>
		<path class="st5" d="M134.8,272.7h-22.7c-2.8,0-5.1-2.3-5.1-5.1v-14.4c0-2.8,2.3-5.1,5.1-5.1h22.7c2.8,0,5.1,2.3,5.1,5.1v14.4
			C139.8,270.4,137.6,272.7,134.8,272.7z"/>
		<path d="M134.8,274.2h-22.7c-3.6,0-6.6-2.9-6.6-6.6v-14.4c0-3.6,2.9-6.6,6.6-6.6h22.7c3.6,0,6.6,2.9,6.6,6.6v14.4
			C141.3,271.3,138.4,274.2,134.8,274.2z M112.1,249.7c-2,0-3.6,1.6-3.6,3.6v14.4c0,2,1.6,3.6,3.6,3.6h22.7c2,0,3.6-1.6,3.6-3.6
			v-14.4c0-2-1.6-3.6-3.6-3.6H112.1z"/>
	</g>
	<g>
		<g>
			<path class="st5" d="M105.9,285.9c-1.1,0-1.5-0.8-1-1.7l3.4-5.5c0.6-0.9,1.9-1.6,3-1.6h24.1c1.1,0,2.5,0.7,3,1.7l3.5,5.8
				c0.6,0.9,0.1,1.7-1,1.7L105.9,285.9z"/>
		</g>
		<g>
			<path d="M141.1,288C141.1,288,141.1,288,141.1,288l-35.1-0.4c-1.1,0-2-0.6-2.4-1.4c-0.5-0.8-0.4-1.8,0.2-2.8l3.4-5.8
				c0.8-1.3,2.6-2.7,4.3-2.7h24.1c1.7,0,3.5,1.3,4.3,2.6l3.5,5.9c0.6,0.9,0.6,2.1,0.1,3C143,287.3,142.1,288,141.1,288z
				 M105.9,284.4l0.1,1.5L105.9,284.4C105.9,284.4,105.9,284.4,105.9,284.4z M106.6,284.4l33.9,0.2l-3.2-5.4
				c-0.4-0.6-1.3-1.2-1.7-1.2h-24.1c-0.5,0-1.4,0.6-1.7,1.2L106.6,284.4z"/>
		</g>
	</g>
	<g>
		<rect x="117.4" y="272.7" width="12" height="4.2"/>
	</g>
	<g>
		<path d="M134.1,268.7h-21.3c-0.7,0-1.2-0.5-1.2-1.2v-14.1c0-0.7,0.5-1.2,1.2-1.2h21.3c0.7,0,1.2,0.5,1.2,1.2v14.1
			C135.3,268.1,134.8,268.7,134.1,268.7z"/>
	</g>
</g>
<g>
	<g>
		<path class="st5" d="M206.8,309.7h-22.7c-2.8,0-5.1-2.3-5.1-5.1v-14.4c0-2.8,2.3-5.1,5.1-5.1h22.7c2.8,0,5.1,2.3,5.1,5.1v14.4
			C211.8,307.4,209.6,309.7,206.8,309.7z"/>
		<path d="M206.8,311.2h-22.7c-3.6,0-6.6-2.9-6.6-6.6v-14.4c0-3.6,2.9-6.6,6.6-6.6h22.7c3.6,0,6.6,2.9,6.6,6.6v14.4
			C213.3,308.3,210.4,311.2,206.8,311.2z M184.1,286.7c-2,0-3.6,1.6-3.6,3.6v14.4c0,2,1.6,3.6,3.6,3.6h22.7c2,0,3.6-1.6,3.6-3.6
			v-14.4c0-2-1.6-3.6-3.6-3.6H184.1z"/>
	</g>
	<g>
		<g>
			<path class="st5" d="M177.9,322.9c-1.1,0-1.5-0.8-1-1.7l3.4-5.5c0.6-0.9,1.9-1.6,3-1.6h24.1c1.1,0,2.5,0.7,3,1.7l3.5,5.8
				c0.6,0.9,0.1,1.7-1,1.7L177.9,322.9z"/>
		</g>
		<g>
			<path d="M213.1,325C213.1,325,213.1,325,213.1,325l-35.1-0.4c-1.1,0-2-0.6-2.4-1.4c-0.5-0.8-0.4-1.8,0.2-2.8l3.4-5.8
				c0.8-1.3,2.6-2.7,4.3-2.7h24.1c1.7,0,3.5,1.3,4.3,2.6l3.5,5.9c0.6,0.9,0.6,2.1,0.1,3C215,324.3,214.1,325,213.1,325z
				 M177.9,321.4l0.1,1.5L177.9,321.4C177.9,321.4,177.9,321.4,177.9,321.4z M178.6,321.4l33.9,0.2l-3.2-5.4
				c-0.4-0.6-1.3-1.2-1.7-1.2h-24.1c-0.5,0-1.4,0.6-1.7,1.2L178.6,321.4z"/>
		</g>
	</g>
	<g>
		<rect x="189.4" y="309.7" width="12" height="4.2"/>
	</g>
	<g>
		<path d="M206.1,305.7h-21.3c-0.7,0-1.2-0.5-1.2-1.2v-14.1c0-0.7,0.5-1.2,1.2-1.2h21.3c0.7,0,1.2,0.5,1.2,1.2v14.1
			C207.3,305.1,206.8,305.7,206.1,305.7z"/>
	</g>
</g>
<g>
	<g>
		<path class="st5" d="M235.8,486.7h-22.7c-2.8,0-5.1-2.3-5.1-5.1v-14.4c0-2.8,2.3-5.1,5.1-5.1h22.7c2.8,0,5.1,2.3,5.1,5.1v14.4
			C240.8,484.4,238.6,486.7,235.8,486.7z"/>
		<path d="M235.8,488.2h-22.7c-3.6,0-6.6-2.9-6.6-6.6v-14.4c0-3.6,2.9-6.6,6.6-6.6h22.7c3.6,0,6.6,2.9,6.6,6.6v14.4
			C242.3,485.3,239.4,488.2,235.8,488.2z M213.1,463.7c-2,0-3.6,1.6-3.6,3.6v14.4c0,2,1.6,3.6,3.6,3.6h22.7c2,0,3.6-1.6,3.6-3.6
			v-14.4c0-2-1.6-3.6-3.6-3.6H213.1z"/>
	</g>
	<g>
		<g>
			<path class="st5" d="M206.9,499.9c-1.1,0-1.5-0.8-1-1.7l3.4-5.5c0.6-0.9,1.9-1.6,3-1.6h24.1c1.1,0,2.5,0.7,3,1.7l3.5,5.8
				c0.6,0.9,0.1,1.7-1,1.7L206.9,499.9z"/>
		</g>
		<g>
			<path d="M242.1,502C242.1,502,242.1,502,242.1,502l-35.1-0.4c-1.1,0-2-0.6-2.4-1.4c-0.5-0.8-0.4-1.8,0.2-2.8l3.4-5.8
				c0.8-1.3,2.6-2.7,4.3-2.7h24.1c1.7,0,3.5,1.3,4.3,2.6l3.5,5.9c0.6,0.9,0.6,2.1,0.1,3C244,501.3,243.1,502,242.1,502z
				 M206.9,498.4l0.1,1.5L206.9,498.4C206.9,498.4,206.9,498.4,206.9,498.4z M207.6,498.4l33.9,0.2l-3.2-5.4
				c-0.4-0.6-1.3-1.2-1.7-1.2h-24.1c-0.5,0-1.4,0.6-1.7,1.2L207.6,498.4z"/>
		</g>
	</g>
	<g>
		<rect x="218.4" y="486.7" width="12" height="4.2"/>
	</g>
	<g>
		<path d="M235.1,482.7h-21.3c-0.7,0-1.2-0.5-1.2-1.2v-14.1c0-0.7,0.5-1.2,1.2-1.2h21.3c0.7,0,1.2,0.5,1.2,1.2v14.1
			C236.3,482.1,235.8,482.7,235.1,482.7z"/>
	</g>
</g>
<g>
	<g>
		<path class="st5" d="M362.8,325.7h-22.7c-2.8,0-5.1-2.3-5.1-5.1v-14.4c0-2.8,2.3-5.1,5.1-5.1h22.7c2.8,0,5.1,2.3,5.1,5.1v14.4
			C367.8,323.4,365.6,325.7,362.8,325.7z"/>
		<path d="M362.8,327.2h-22.7c-3.6,0-6.6-2.9-6.6-6.6v-14.4c0-3.6,2.9-6.6,6.6-6.6h22.7c3.6,0,6.6,2.9,6.6,6.6v14.4
			C369.3,324.3,366.4,327.2,362.8,327.2z M340.1,302.7c-2,0-3.6,1.6-3.6,3.6v14.4c0,2,1.6,3.6,3.6,3.6h22.7c2,0,3.6-1.6,3.6-3.6
			v-14.4c0-2-1.6-3.6-3.6-3.6H340.1z"/>
	</g>
	<g>
		<g>
			<path class="st5" d="M333.9,338.9c-1.1,0-1.5-0.8-1-1.7l3.4-5.5c0.6-0.9,1.9-1.6,3-1.6h24.1c1.1,0,2.5,0.7,3,1.7l3.5,5.8
				c0.6,0.9,0.1,1.7-1,1.7L333.9,338.9z"/>
		</g>
		<g>
			<path d="M369.1,341C369.1,341,369.1,341,369.1,341l-35.1-0.4c-1.1,0-2-0.6-2.4-1.4c-0.5-0.8-0.4-1.8,0.2-2.8l3.4-5.8
				c0.8-1.3,2.6-2.7,4.3-2.7h24.1c1.7,0,3.5,1.3,4.3,2.6l3.5,5.9c0.6,0.9,0.6,2.1,0.1,3C371,340.3,370.1,341,369.1,341z
				 M333.9,337.4l0.1,1.5L333.9,337.4C333.9,337.4,333.9,337.4,333.9,337.4z M334.6,337.4l33.9,0.2l-3.2-5.4
				c-0.4-0.6-1.3-1.2-1.7-1.2h-24.1c-0.5,0-1.4,0.6-1.7,1.2L334.6,337.4z"/>
		</g>
	</g>
	<g>
		<rect x="345.4" y="325.7" width="12" height="4.2"/>
	</g>
	<g>
		<path d="M362.1,321.7h-21.3c-0.7,0-1.2-0.5-1.2-1.2v-14.1c0-0.7,0.5-1.2,1.2-1.2h21.3c0.7,0,1.2,0.5,1.2,1.2v14.1
			C363.3,321.1,362.8,321.7,362.1,321.7z"/>
	</g>
</g>
<g>
	<g>
		<path class="st5" d="M338.8,505.7h-22.7c-2.8,0-5.1-2.3-5.1-5.1v-14.4c0-2.8,2.3-5.1,5.1-5.1h22.7c2.8,0,5.1,2.3,5.1,5.1v14.4
			C343.8,503.4,341.6,505.7,338.8,505.7z"/>
		<path d="M338.8,507.2h-22.7c-3.6,0-6.6-2.9-6.6-6.6v-14.4c0-3.6,2.9-6.6,6.6-6.6h22.7c3.6,0,6.6,2.9,6.6,6.6v14.4
			C345.3,504.3,342.4,507.2,338.8,507.2z M316.1,482.7c-2,0-3.6,1.6-3.6,3.6v14.4c0,2,1.6,3.6,3.6,3.6h22.7c2,0,3.6-1.6,3.6-3.6
			v-14.4c0-2-1.6-3.6-3.6-3.6H316.1z"/>
	</g>
	<g>
		<g>
			<path class="st5" d="M309.9,518.9c-1.1,0-1.5-0.8-1-1.7l3.4-5.5c0.6-0.9,1.9-1.6,3-1.6h24.1c1.1,0,2.5,0.7,3,1.7l3.5,5.8
				c0.6,0.9,0.1,1.7-1,1.7L309.9,518.9z"/>
		</g>
		<g>
			<path d="M345.1,521C345.1,521,345.1,521,345.1,521l-35.1-0.4c-1.1,0-2-0.6-2.4-1.4c-0.5-0.8-0.4-1.8,0.2-2.8l3.4-5.8
				c0.8-1.3,2.6-2.7,4.3-2.7h24.1c1.7,0,3.5,1.3,4.3,2.6l3.5,5.9c0.6,0.9,0.6,2.1,0.1,3C347,520.3,346.1,521,345.1,521z
				 M309.9,517.4l0.1,1.5L309.9,517.4C309.9,517.4,309.9,517.4,309.9,517.4z M310.6,517.4l33.9,0.2l-3.2-5.4
				c-0.4-0.6-1.3-1.2-1.7-1.2h-24.1c-0.5,0-1.4,0.6-1.7,1.2L310.6,517.4z"/>
		</g>
	</g>
	<g>
		<rect x="321.4" y="505.7" width="12" height="4.2"/>
	</g>
	<g>
		<path d="M338.1,501.7h-21.3c-0.7,0-1.2-0.5-1.2-1.2v-14.1c0-0.7,0.5-1.2,1.2-1.2h21.3c0.7,0,1.2,0.5,1.2,1.2v14.1
			C339.3,501.1,338.8,501.7,338.1,501.7z"/>
	</g>
</g>
<g>
	<g>
		<path class="st5" d="M436.8,524.7h-22.7c-2.8,0-5.1-2.3-5.1-5.1v-14.4c0-2.8,2.3-5.1,5.1-5.1h22.7c2.8,0,5.1,2.3,5.1,5.1v14.4
			C441.8,522.4,439.6,524.7,436.8,524.7z"/>
		<path d="M436.8,526.2h-22.7c-3.6,0-6.6-2.9-6.6-6.6v-14.4c0-3.6,2.9-6.6,6.6-6.6h22.7c3.6,0,6.6,2.9,6.6,6.6v14.4
			C443.3,523.3,440.4,526.2,436.8,526.2z M414.1,501.7c-2,0-3.6,1.6-3.6,3.6v14.4c0,2,1.6,3.6,3.6,3.6h22.7c2,0,3.6-1.6,3.6-3.6
			v-14.4c0-2-1.6-3.6-3.6-3.6H414.1z"/>
	</g>
	<g>
		<g>
			<path class="st5" d="M407.9,537.9c-1.1,0-1.5-0.8-1-1.7l3.4-5.5c0.6-0.9,1.9-1.6,3-1.6h24.1c1.1,0,2.5,0.7,3,1.7l3.5,5.8
				c0.6,0.9,0.1,1.7-1,1.7L407.9,537.9z"/>
		</g>
		<g>
			<path d="M443.1,540C443.1,540,443.1,540,443.1,540l-35.1-0.4c-1.1,0-2-0.6-2.4-1.4c-0.5-0.8-0.4-1.8,0.2-2.8l3.4-5.8
				c0.8-1.3,2.6-2.7,4.3-2.7h24.1c1.7,0,3.5,1.3,4.3,2.6l3.5,5.9c0.6,0.9,0.6,2.1,0.1,3C445,539.3,444.1,540,443.1,540z
				 M407.9,536.4l0.1,1.5L407.9,536.4C407.9,536.4,407.9,536.4,407.9,536.4z M408.6,536.4l33.9,0.2l-3.2-5.4
				c-0.4-0.6-1.3-1.2-1.7-1.2h-24.1c-0.5,0-1.4,0.6-1.7,1.2L408.6,536.4z"/>
		</g>
	</g>
	<g>
		<rect x="419.4" y="524.7" width="12" height="4.2"/>
	</g>
	<g>
		<path d="M436.1,520.7h-21.3c-0.7,0-1.2-0.5-1.2-1.2v-14.1c0-0.7,0.5-1.2,1.2-1.2h21.3c0.7,0,1.2,0.5,1.2,1.2v14.1
			C437.3,520.1,436.8,520.7,436.1,520.7z"/>
	</g>
</g>
<g>
	<g>
		<path class="st5" d="M482.8,448.7h-22.7c-2.8,0-5.1-2.3-5.1-5.1v-14.4c0-2.8,2.3-5.1,5.1-5.1h22.7c2.8,0,5.1,2.3,5.1,5.1v14.4
			C487.8,446.4,485.6,448.7,482.8,448.7z"/>
		<path d="M482.8,450.2h-22.7c-3.6,0-6.6-2.9-6.6-6.6v-14.4c0-3.6,2.9-6.6,6.6-6.6h22.7c3.6,0,6.6,2.9,6.6,6.6v14.4
			C489.3,447.3,486.4,450.2,482.8,450.2z M460.1,425.7c-2,0-3.6,1.6-3.6,3.6v14.4c0,2,1.6,3.6,3.6,3.6h22.7c2,0,3.6-1.6,3.6-3.6
			v-14.4c0-2-1.6-3.6-3.6-3.6H460.1z"/>
	</g>
	<g>
		<g>
			<path class="st5" d="M453.9,461.9c-1.1,0-1.5-0.8-1-1.7l3.4-5.5c0.6-0.9,1.9-1.6,3-1.6h24.1c1.1,0,2.5,0.7,3,1.7l3.5,5.8
				c0.6,0.9,0.1,1.7-1,1.7L453.9,461.9z"/>
		</g>
		<g>
			<path d="M489.1,464C489.1,464,489.1,464,489.1,464l-35.1-0.4c-1.1,0-2-0.6-2.4-1.4c-0.5-0.8-0.4-1.8,0.2-2.8l3.4-5.8
				c0.8-1.3,2.6-2.7,4.3-2.7h24.1c1.7,0,3.5,1.3,4.3,2.6l3.5,5.9c0.6,0.9,0.6,2.1,0.1,3C491,463.3,490.1,464,489.1,464z
				 M453.9,460.4l0.1,1.5L453.9,460.4C453.9,460.4,453.9,460.4,453.9,460.4z M454.6,460.4l33.9,0.2l-3.2-5.4
				c-0.4-0.6-1.3-1.2-1.7-1.2h-24.1c-0.5,0-1.4,0.6-1.7,1.2L454.6,460.4z"/>
		</g>
	</g>
	<g>
		<rect x="465.4" y="448.7" width="12" height="4.2"/>
	</g>
	<g>
		<path d="M482.1,444.7h-21.3c-0.7,0-1.2-0.5-1.2-1.2v-14.1c0-0.7,0.5-1.2,1.2-1.2h21.3c0.7,0,1.2,0.5,1.2,1.2v14.1
			C483.3,444.1,482.8,444.7,482.1,444.7z"/>
	</g>
</g>
<g>
	<g>
		<path class="st5" d="M156.8,398.7h-22.7c-2.8,0-5.1-2.3-5.1-5.1v-14.4c0-2.8,2.3-5.1,5.1-5.1h22.7c2.8,0,5.1,2.3,5.1,5.1v14.4
			C161.8,396.4,159.6,398.7,156.8,398.7z"/>
		<path d="M156.8,400.2h-22.7c-3.6,0-6.6-2.9-6.6-6.6v-14.4c0-3.6,2.9-6.6,6.6-6.6h22.7c3.6,0,6.6,2.9,6.6,6.6v14.4
			C163.3,397.3,160.4,400.2,156.8,400.2z M134.1,375.7c-2,0-3.6,1.6-3.6,3.6v14.4c0,2,1.6,3.6,3.6,3.6h22.7c2,0,3.6-1.6,3.6-3.6
			v-14.4c0-2-1.6-3.6-3.6-3.6H134.1z"/>
	</g>
	<g>
		<g>
			<path class="st5" d="M127.9,411.9c-1.1,0-1.5-0.8-1-1.7l3.4-5.5c0.6-0.9,1.9-1.6,3-1.6h24.1c1.1,0,2.5,0.7,3,1.7l3.5,5.8
				c0.6,0.9,0.1,1.7-1,1.7L127.9,411.9z"/>
		</g>
		<g>
			<path d="M163.1,414C163.1,414,163.1,414,163.1,414l-35.1-0.4c-1.1,0-2-0.6-2.4-1.4c-0.5-0.8-0.4-1.8,0.2-2.8l3.4-5.8
				c0.8-1.3,2.6-2.7,4.3-2.7h24.1c1.7,0,3.5,1.3,4.3,2.6l3.5,5.9c0.6,0.9,0.6,2.1,0.1,3C165,413.3,164.1,414,163.1,414z
				 M127.9,410.4l0.1,1.5L127.9,410.4C127.9,410.4,127.9,410.4,127.9,410.4z M128.6,410.4l33.9,0.2l-3.2-5.4
				c-0.4-0.6-1.3-1.2-1.7-1.2h-24.1c-0.5,0-1.4,0.6-1.7,1.2L128.6,410.4z"/>
		</g>
	</g>
	<g>
		<rect x="139.4" y="398.7" width="12" height="4.2"/>
	</g>
	<g>
		<path d="M156.1,394.7h-21.3c-0.7,0-1.2-0.5-1.2-1.2v-14.1c0-0.7,0.5-1.2,1.2-1.2h21.3c0.7,0,1.2,0.5,1.2,1.2v14.1
			C157.3,394.1,156.8,394.7,156.1,394.7z"/>
	</g>
</g>
<g>
	<g>
		<path class="st5" d="M69.8,450.7H47.1c-2.8,0-5.1-2.3-5.1-5.1v-14.4c0-2.8,2.3-5.1,5.1-5.1h22.7c2.8,0,5.1,2.3,5.1,5.1v14.4
			C74.8,448.4,72.6,450.7,69.8,450.7z"/>
		<path d="M69.8,452.2H47.1c-3.6,0-6.6-2.9-6.6-6.6v-14.4c0-3.6,2.9-6.6,6.6-6.6h22.7c3.6,0,6.6,2.9,6.6,6.6v14.4
			C76.3,449.3,73.4,452.2,69.8,452.2z M47.1,427.7c-2,0-3.6,1.6-3.6,3.6v14.4c0,2,1.6,3.6,3.6,3.6h22.7c2,0,3.6-1.6,3.6-3.6v-14.4
			c0-2-1.6-3.6-3.6-3.6H47.1z"/>
	</g>
	<g>
		<g>
			<path class="st5" d="M40.9,463.9c-1.1,0-1.5-0.8-1-1.7l3.4-5.5c0.6-0.9,1.9-1.6,3-1.6h24.1c1.1,0,2.5,0.7,3,1.7l3.5,5.8
				c0.6,0.9,0.1,1.7-1,1.7L40.9,463.9z"/>
		</g>
		<g>
			<path d="M76.1,466C76.1,466,76.1,466,76.1,466l-35.1-0.4c-1.1,0-2-0.6-2.4-1.4c-0.5-0.8-0.4-1.8,0.2-2.8l3.4-5.8
				c0.8-1.3,2.6-2.7,4.3-2.7h24.1c1.7,0,3.5,1.3,4.3,2.6l3.5,5.9c0.6,0.9,0.6,2.1,0.1,3C78,465.3,77.1,466,76.1,466z M40.9,462.4
				l0.1,1.5L40.9,462.4C40.9,462.4,40.9,462.4,40.9,462.4z M41.6,462.4l33.9,0.2l-3.2-5.4c-0.4-0.6-1.3-1.2-1.7-1.2H46.4
				c-0.5,0-1.4,0.6-1.7,1.2L41.6,462.4z"/>
		</g>
	</g>
	<g>
		<rect x="52.4" y="450.7" width="12" height="4.2"/>
	</g>
	<g>
		<path d="M69.1,446.7H47.8c-0.7,0-1.2-0.5-1.2-1.2v-14.1c0-0.7,0.5-1.2,1.2-1.2h21.3c0.7,0,1.2,0.5,1.2,1.2v14.1
			C70.3,446.1,69.8,446.7,69.1,446.7z"/>
	</g>
</g>
<g>
	<g>
		<path class="st5" d="M105.8,534.7H83.1c-2.8,0-5.1-2.3-5.1-5.1v-14.4c0-2.8,2.3-5.1,5.1-5.1h22.7c2.8,0,5.1,2.3,5.1,5.1v14.4
			C110.8,532.4,108.6,534.7,105.8,534.7z"/>
		<path d="M105.8,536.2H83.1c-3.6,0-6.6-2.9-6.6-6.6v-14.4c0-3.6,2.9-6.6,6.6-6.6h22.7c3.6,0,6.6,2.9,6.6,6.6v14.4
			C112.3,533.3,109.4,536.2,105.8,536.2z M83.1,511.7c-2,0-3.6,1.6-3.6,3.6v14.4c0,2,1.6,3.6,3.6,3.6h22.7c2,0,3.6-1.6,3.6-3.6
			v-14.4c0-2-1.6-3.6-3.6-3.6H83.1z"/>
	</g>
	<g>
		<g>
			<path class="st5" d="M76.9,547.9c-1.1,0-1.5-0.8-1-1.7l3.4-5.5c0.6-0.9,1.9-1.6,3-1.6h24.1c1.1,0,2.5,0.7,3,1.7l3.5,5.8
				c0.6,0.9,0.1,1.7-1,1.7L76.9,547.9z"/>
		</g>
		<g>
			<path d="M112.1,550C112.1,550,112.1,550,112.1,550l-35.1-0.4c-1.1,0-2-0.6-2.4-1.4c-0.5-0.8-0.4-1.8,0.2-2.8l3.4-5.8
				c0.8-1.3,2.6-2.7,4.3-2.7h24.1c1.7,0,3.5,1.3,4.3,2.6l3.5,5.9c0.6,0.9,0.6,2.1,0.1,3C114,549.3,113.1,550,112.1,550z M76.9,546.4
				l0.1,1.5L76.9,546.4C76.9,546.4,76.9,546.4,76.9,546.4z M77.6,546.4l33.9,0.2l-3.2-5.4c-0.4-0.6-1.3-1.2-1.7-1.2H82.4
				c-0.5,0-1.4,0.6-1.7,1.2L77.6,546.4z"/>
		</g>
	</g>
	<g>
		<rect x="88.4" y="534.7" width="12" height="4.2"/>
	</g>
	<g>
		<path d="M105.1,530.7H83.8c-0.7,0-1.2-0.5-1.2-1.2v-14.1c0-0.7,0.5-1.2,1.2-1.2h21.3c0.7,0,1.2,0.5,1.2,1.2v14.1
			C106.3,530.1,105.8,530.7,105.1,530.7z"/>
	</g>
</g>
<g>
	<g>
		
			<rect x="461.4" y="510.5" transform="matrix(1 -4.186438e-003 4.186438e-003 1 -2.1681 2.0004)" class="st5" width="30.8" height="16.8"/>
	</g>
	<g>
		<path class="st1" d="M460.3,528.4l-0.1-19l33.2,0l0.1,19L460.3,528.4z M462.7,511.7l0.2,14.3l28.5-0.1l-0.2-14.3L462.7,511.7z"/>
	</g>
	<g>
		<g>
			<polygon class="st1" points="476.8,519.5 461.1,511.2 461.7,510.2 476.7,518.2 492,509.9 492.4,511 			"/>
		</g>
	</g>
</g>
<g>
	<g>
		<path d="M510,509.4c0,1.6-0.5,2.9-1.4,3.8c-0.9,0.9-2.3,1.3-4.1,1.3h-2.8v-10h3.1c1.6,0,2.9,0.4,3.8,1.3S510,507.9,510,509.4z
			 M507.8,509.5c0-2.1-0.9-3.2-2.8-3.2h-1.1v6.5h0.9C506.7,512.8,507.8,511.7,507.8,509.5z"/>
	</g>
	<g>
		<path d="M515.3,514.7c-1.2,0-2.2-0.3-2.9-1s-1-1.6-1-2.9c0-1.3,0.3-2.3,1-3c0.6-0.7,1.5-1,2.7-1c1.1,0,1.9,0.3,2.5,0.9
			s0.9,1.5,0.9,2.5v1h-4.9c0,0.6,0.2,1.1,0.5,1.4s0.8,0.5,1.4,0.5c0.5,0,0.9,0,1.3-0.1s0.8-0.2,1.3-0.5v1.6
			c-0.4,0.2-0.8,0.3-1.2,0.4C516.4,514.6,515.9,514.7,515.3,514.7z M515,508.2c-0.4,0-0.8,0.1-1,0.4c-0.3,0.3-0.4,0.7-0.4,1.2h2.9
			c0-0.5-0.1-0.9-0.4-1.2C515.8,508.4,515.5,508.2,515,508.2z"/>
	</g>
	<g>
		<path d="M525.5,512.3c0,0.8-0.3,1.4-0.8,1.8c-0.5,0.4-1.4,0.6-2.4,0.6c-0.6,0-1,0-1.4-0.1c-0.4-0.1-0.8-0.2-1.1-0.3v-1.7
			c0.4,0.2,0.8,0.3,1.3,0.5c0.5,0.1,0.9,0.2,1.3,0.2c0.8,0,1.1-0.2,1.1-0.7c0-0.2,0-0.3-0.2-0.4c-0.1-0.1-0.3-0.2-0.5-0.3
			c-0.2-0.1-0.6-0.3-1-0.5c-0.6-0.2-1-0.5-1.3-0.7c-0.3-0.2-0.5-0.5-0.6-0.7c-0.1-0.3-0.2-0.6-0.2-1c0-0.7,0.3-1.2,0.8-1.6
			c0.5-0.4,1.3-0.6,2.2-0.6c0.9,0,1.8,0.2,2.7,0.6l-0.6,1.5c-0.4-0.2-0.7-0.3-1.1-0.4s-0.7-0.2-1-0.2c-0.6,0-0.9,0.2-0.9,0.5
			c0,0.2,0.1,0.3,0.3,0.5c0.2,0.1,0.6,0.3,1.3,0.6c0.6,0.2,1,0.5,1.3,0.7s0.5,0.5,0.6,0.7S525.5,511.9,525.5,512.3z"/>
	</g>
	<g>
		<path d="M530.3,513c0.4,0,0.8-0.1,1.3-0.2v1.6c-0.5,0.2-1.2,0.3-1.9,0.3c-0.8,0-1.4-0.2-1.8-0.6c-0.4-0.4-0.6-1.1-0.6-1.9v-3.7h-1
			v-0.9l1.1-0.7l0.6-1.6h1.3v1.6h2.1v1.6h-2.1v3.7c0,0.3,0.1,0.5,0.3,0.7C529.8,512.9,530,513,530.3,513z"/>
	</g>
	<g>
		<path d="M533.1,504.9c0-0.7,0.4-1,1.1-1s1.1,0.3,1.1,1c0,0.3-0.1,0.6-0.3,0.8c-0.2,0.2-0.5,0.3-0.9,0.3
			C533.5,505.9,533.1,505.6,533.1,504.9z M535.3,514.5h-2.1v-7.6h2.1V514.5z"/>
	</g>
	<g>
		<path d="M544.5,514.5h-2.1v-4.5c0-0.6-0.1-1-0.3-1.2c-0.2-0.3-0.5-0.4-0.9-0.4c-0.6,0-1,0.2-1.3,0.6c-0.3,0.4-0.4,1-0.4,1.9v3.6
			h-2.1v-7.6h1.6l0.3,1h0.1c0.2-0.4,0.6-0.6,1-0.8c0.4-0.2,0.9-0.3,1.4-0.3c0.9,0,1.6,0.2,2,0.7c0.5,0.5,0.7,1.2,0.7,2.1V514.5z"/>
	</g>
	<g>
		<path d="M551.5,514.5l-0.4-1H551c-0.4,0.4-0.7,0.7-1.1,0.9c-0.4,0.2-0.9,0.3-1.5,0.3c-0.7,0-1.3-0.2-1.7-0.6
			c-0.4-0.4-0.6-1-0.6-1.8c0-0.8,0.3-1.4,0.9-1.8c0.6-0.4,1.4-0.6,2.6-0.6l1.3,0v-0.3c0-0.8-0.4-1.2-1.2-1.2c-0.6,0-1.3,0.2-2.2,0.6
			l-0.7-1.4c0.9-0.5,1.9-0.7,2.9-0.7c1,0,1.8,0.2,2.4,0.7s0.8,1.1,0.8,2v5.1H551.5z M550.9,511l-0.8,0c-0.6,0-1.1,0.1-1.4,0.3
			s-0.4,0.5-0.4,0.9c0,0.6,0.3,0.9,1,0.9c0.5,0,0.9-0.1,1.2-0.4c0.3-0.3,0.4-0.6,0.4-1.1V511z"/>
	</g>
	<g>
		<path d="M558.3,513c0.4,0,0.8-0.1,1.3-0.2v1.6c-0.5,0.2-1.2,0.3-1.9,0.3c-0.8,0-1.4-0.2-1.8-0.6c-0.4-0.4-0.6-1.1-0.6-1.9v-3.7h-1
			v-0.9l1.1-0.7l0.6-1.6h1.3v1.6h2.1v1.6h-2.1v3.7c0,0.3,0.1,0.5,0.3,0.7C557.8,512.9,558.1,513,558.3,513z"/>
	</g>
	<g>
		<path d="M561.1,504.9c0-0.7,0.4-1,1.1-1s1.1,0.3,1.1,1c0,0.3-0.1,0.6-0.3,0.8c-0.2,0.2-0.5,0.3-0.9,0.3
			C561.5,505.9,561.1,505.6,561.1,504.9z M563.3,514.5h-2.1v-7.6h2.1V514.5z"/>
	</g>
	<g>
		<path d="M572.4,510.7c0,1.2-0.3,2.2-1,2.9s-1.6,1.1-2.7,1.1c-0.7,0-1.4-0.2-1.9-0.5c-0.6-0.3-1-0.8-1.3-1.4s-0.5-1.3-0.5-2.1
			c0-1.2,0.3-2.2,1-2.9s1.6-1,2.7-1c0.7,0,1.4,0.2,1.9,0.5s1,0.8,1.3,1.4S572.4,509.9,572.4,510.7z M567.1,510.7
			c0,0.8,0.1,1.3,0.4,1.7c0.2,0.4,0.7,0.6,1.2,0.6c0.6,0,1-0.2,1.2-0.6c0.2-0.4,0.4-1,0.4-1.7c0-0.8-0.1-1.3-0.4-1.7
			s-0.6-0.6-1.2-0.6c-0.6,0-1,0.2-1.2,0.6C567.2,509.4,567.1,509.9,567.1,510.7z"/>
	</g>
	<g>
		<path d="M581.2,514.5h-2.1v-4.5c0-0.6-0.1-1-0.3-1.2c-0.2-0.3-0.5-0.4-0.9-0.4c-0.6,0-1,0.2-1.3,0.6c-0.3,0.4-0.4,1-0.4,1.9v3.6
			h-2.1v-7.6h1.6l0.3,1h0.1c0.2-0.4,0.6-0.6,1-0.8c0.4-0.2,0.9-0.3,1.4-0.3c0.9,0,1.6,0.2,2,0.7c0.5,0.5,0.7,1.2,0.7,2.1V514.5z"/>
	</g>
	<g>
		<path d="M583,507.9c0-0.4,0.1-0.7,0.3-0.9s0.5-0.3,0.9-0.3c0.4,0,0.7,0.1,0.9,0.3c0.2,0.2,0.3,0.5,0.3,0.9c0,0.4-0.1,0.7-0.3,0.9
			c-0.2,0.2-0.5,0.3-0.9,0.3c-0.4,0-0.7-0.1-0.9-0.3S583,508.3,583,507.9z M583,513.5c0-0.4,0.1-0.7,0.3-0.9s0.5-0.3,0.9-0.3
			c0.4,0,0.7,0.1,0.9,0.3c0.2,0.2,0.3,0.5,0.3,0.9c0,0.4-0.1,0.6-0.3,0.9c-0.2,0.2-0.5,0.3-0.9,0.3c-0.4,0-0.7-0.1-0.9-0.3
			C583.1,514.2,583,513.9,583,513.5z"/>
	</g>
	<g>
		<path d="M506,522.6c-0.9,0-1.7,0.3-2.2,1s-0.8,1.6-0.8,2.8c0,1.2,0.3,2.2,0.8,2.8c0.5,0.6,1.3,0.9,2.2,0.9c0.4,0,0.8,0,1.2-0.1
			c0.4-0.1,0.8-0.2,1.2-0.3v1.4c-0.8,0.3-1.7,0.4-2.7,0.4c-1.5,0-2.6-0.4-3.4-1.3c-0.8-0.9-1.2-2.2-1.2-3.8c0-1,0.2-1.9,0.6-2.7
			c0.4-0.8,0.9-1.4,1.7-1.8s1.6-0.6,2.5-0.6c1,0,2,0.2,2.8,0.6l-0.6,1.4c-0.3-0.2-0.7-0.3-1.1-0.4
			C506.8,522.7,506.4,522.6,506,522.6z"/>
	</g>
	<g>
		<path d="M517.1,527.5c0,1.2-0.3,2.2-1,2.9s-1.5,1-2.6,1c-0.7,0-1.3-0.2-1.9-0.5s-1-0.8-1.3-1.4s-0.4-1.3-0.4-2.1
			c0-1.2,0.3-2.2,0.9-2.9s1.5-1,2.7-1c1.1,0,2,0.4,2.6,1.1C516.8,525.4,517.1,526.3,517.1,527.5z M511.6,527.5
			c0,1.7,0.6,2.6,1.9,2.6c1.3,0,1.9-0.9,1.9-2.6c0-1.7-0.6-2.6-1.9-2.6c-0.7,0-1.2,0.2-1.5,0.7C511.8,526.1,511.6,526.7,511.6,527.5
			z"/>
	</g>
	<g>
		<path d="M525.4,531.3h-1.6v-4.7c0-0.6-0.1-1-0.3-1.3c-0.2-0.3-0.6-0.4-1-0.4c-0.6,0-1.1,0.2-1.4,0.6c-0.3,0.4-0.4,1.1-0.4,2v3.8
			H519v-7.6h1.3l0.2,1h0.1c0.2-0.4,0.5-0.6,0.9-0.8c0.4-0.2,0.8-0.3,1.3-0.3c1.2,0,1.9,0.4,2.3,1.2h0.1c0.2-0.4,0.5-0.7,0.9-0.9
			s0.9-0.3,1.4-0.3c0.9,0,1.6,0.2,2,0.7c0.4,0.5,0.6,1.2,0.6,2.1v4.9h-1.6v-4.7c0-0.6-0.1-1-0.3-1.3c-0.2-0.3-0.6-0.4-1-0.4
			c-0.6,0-1.1,0.2-1.4,0.6c-0.3,0.4-0.4,1-0.4,1.8V531.3z"/>
	</g>
	<g>
		<path d="M536.2,531.5c-1,0-1.7-0.3-2.2-1h-0.1c0.1,0.6,0.1,1,0.1,1.2v3.1h-1.6v-10.9h1.3c0,0.1,0.1,0.5,0.2,1h0.1
			c0.5-0.8,1.3-1.1,2.3-1.1c0.9,0,1.7,0.3,2.2,1c0.5,0.7,0.8,1.6,0.8,2.9s-0.3,2.2-0.8,2.9C537.9,531.1,537.1,531.5,536.2,531.5z
			 M535.8,524.9c-0.6,0-1.1,0.2-1.4,0.6c-0.3,0.4-0.4,1-0.4,1.8v0.2c0,0.9,0.1,1.6,0.4,2c0.3,0.4,0.8,0.6,1.4,0.6
			c0.6,0,1-0.2,1.3-0.7s0.5-1.1,0.5-1.9c0-0.8-0.1-1.5-0.4-1.9C536.8,525.2,536.4,524.9,535.8,524.9z"/>
	</g>
	<g>
		<path d="M546.4,531.3l-0.2-1h-0.1c-0.2,0.4-0.5,0.6-1,0.8c-0.4,0.2-0.9,0.3-1.4,0.3c-0.9,0-1.6-0.2-2.1-0.7s-0.7-1.1-0.7-2.1v-4.9
			h1.6v4.7c0,0.6,0.1,1,0.4,1.3c0.2,0.3,0.6,0.4,1.1,0.4c0.7,0,1.2-0.2,1.5-0.6c0.3-0.4,0.5-1.1,0.5-2v-3.8h1.6v7.6H546.4z"/>
	</g>
	<g>
		<path d="M552.8,530.2c0.4,0,0.8-0.1,1.2-0.2v1.2c-0.2,0.1-0.4,0.1-0.7,0.2c-0.3,0.1-0.6,0.1-0.9,0.1c-1.5,0-2.3-0.8-2.3-2.4V525
			h-1v-0.7l1.1-0.6l0.5-1.6h1v1.7h2.2v1.2h-2.2v4c0,0.4,0.1,0.7,0.3,0.9C552.2,530.1,552.5,530.2,552.8,530.2z"/>
	</g>
	<g>
		<path d="M558.8,531.5c-1.2,0-2.1-0.3-2.8-1c-0.7-0.7-1-1.6-1-2.8c0-1.2,0.3-2.2,0.9-2.9s1.5-1.1,2.5-1.1c1,0,1.8,0.3,2.4,0.9
			s0.9,1.4,0.9,2.5v0.9h-5c0,0.7,0.2,1.3,0.6,1.7c0.4,0.4,0.9,0.6,1.6,0.6c0.4,0,0.9,0,1.2-0.1c0.4-0.1,0.8-0.2,1.2-0.4v1.3
			c-0.4,0.2-0.8,0.3-1.2,0.4S559.3,531.5,558.8,531.5z M558.5,524.8c-0.5,0-0.9,0.2-1.2,0.5c-0.3,0.3-0.5,0.8-0.6,1.4h3.4
			c0-0.6-0.2-1.1-0.5-1.4C559.4,525,559,524.8,558.5,524.8z"/>
	</g>
	<g>
		<path d="M567.4,523.6c0.3,0,0.6,0,0.8,0.1l-0.2,1.5c-0.2-0.1-0.5-0.1-0.7-0.1c-0.6,0-1.2,0.2-1.6,0.6c-0.4,0.4-0.6,1-0.6,1.6v4
			h-1.6v-7.6h1.3l0.2,1.3h0.1c0.3-0.5,0.6-0.8,1-1.1C566.5,523.8,566.9,523.6,567.4,523.6z"/>
	</g>
	<g>
		<path d="M579,531.3h-5.7v-10h5.7v1.4h-4v2.7h3.8v1.4H575v3.1h4V531.3z"/>
	</g>
</g>
<g>
	<g>
		<path d="M421.4,147.6c-0.8,0-1.4,0.3-1.9,0.9s-0.7,1.4-0.7,2.5c0,2.2,0.8,3.3,2.5,3.3c0.7,0,1.6-0.2,2.5-0.5v1.8
			c-0.8,0.3-1.7,0.5-2.7,0.5c-1.5,0-2.6-0.4-3.3-1.3s-1.2-2.1-1.2-3.8c0-1,0.2-1.9,0.6-2.7s0.9-1.4,1.6-1.8c0.7-0.4,1.5-0.6,2.5-0.6
			c1,0,1.9,0.2,2.9,0.7l-0.7,1.7c-0.4-0.2-0.8-0.3-1.1-0.5S421.8,147.6,421.4,147.6z"/>
	</g>
	<g>
		<path d="M432.9,152.2c0,1.2-0.3,2.2-1,2.9s-1.6,1.1-2.7,1.1c-0.7,0-1.4-0.2-1.9-0.5s-1-0.8-1.3-1.4s-0.5-1.3-0.5-2.1
			c0-1.2,0.3-2.2,1-2.9s1.6-1,2.7-1c0.7,0,1.4,0.2,1.9,0.5s1,0.8,1.3,1.4S432.9,151.4,432.9,152.2z M427.6,152.2
			c0,0.8,0.1,1.3,0.4,1.7c0.2,0.4,0.7,0.6,1.2,0.6c0.6,0,1-0.2,1.2-0.6c0.2-0.4,0.4-1,0.4-1.7c0-0.8-0.1-1.3-0.4-1.7
			s-0.6-0.6-1.2-0.6c-0.6,0-1,0.2-1.2,0.6S427.6,151.4,427.6,152.2z"/>
	</g>
	<g>
		<path d="M441.5,156h-2.1v-4.5c0-0.6-0.1-1-0.3-1.2c-0.2-0.3-0.5-0.4-0.9-0.4c-0.5,0-0.9,0.2-1.2,0.6s-0.4,1-0.4,1.9v3.6h-2.1v-7.6
			h1.6l0.3,1h0.1c0.2-0.4,0.5-0.6,0.9-0.8s0.8-0.3,1.3-0.3c1.1,0,1.9,0.4,2.3,1.1h0.2c0.2-0.4,0.5-0.6,0.9-0.8
			c0.4-0.2,0.8-0.3,1.4-0.3c0.9,0,1.5,0.2,2,0.7c0.4,0.4,0.7,1.2,0.7,2.1v5h-2.1v-4.5c0-0.6-0.1-1-0.3-1.2c-0.2-0.3-0.5-0.4-0.9-0.4
			c-0.5,0-0.9,0.2-1.1,0.5c-0.3,0.4-0.4,0.9-0.4,1.7V156z"/>
	</g>
	<g>
		<path d="M452.6,156.1c-0.9,0-1.6-0.3-2.1-1h-0.1c0.1,0.6,0.1,1,0.1,1.1v3.1h-2.1v-11h1.7l0.3,1h0.1c0.5-0.8,1.2-1.1,2.2-1.1
			c0.9,0,1.6,0.3,2.1,1s0.8,1.7,0.8,2.9c0,0.8-0.1,1.5-0.4,2.1c-0.2,0.6-0.6,1.1-1,1.4S453.2,156.1,452.6,156.1z M451.9,149.9
			c-0.5,0-0.9,0.2-1.1,0.5s-0.4,0.8-0.4,1.6v0.2c0,0.8,0.1,1.4,0.4,1.8c0.2,0.4,0.6,0.5,1.2,0.5c0.9,0,1.4-0.8,1.4-2.3
			c0-0.8-0.1-1.3-0.3-1.7C452.8,150.1,452.4,149.9,451.9,149.9z"/>
	</g>
	<g>
		<path d="M462.6,156l-0.3-1h-0.1c-0.2,0.4-0.5,0.6-1,0.8s-0.9,0.3-1.4,0.3c-0.9,0-1.6-0.2-2-0.7s-0.7-1.2-0.7-2.1v-5h2.1v4.5
			c0,0.6,0.1,1,0.3,1.2s0.5,0.4,0.9,0.4c0.6,0,1-0.2,1.3-0.6s0.4-1,0.4-1.9v-3.6h2.1v7.6H462.6z"/>
	</g>
	<g>
		<path d="M469.6,154.5c0.4,0,0.8-0.1,1.3-0.2v1.6c-0.5,0.2-1.2,0.3-1.9,0.3c-0.8,0-1.4-0.2-1.8-0.6c-0.4-0.4-0.6-1.1-0.6-1.9v-3.7
			h-1V149l1.1-0.7l0.6-1.6h1.3v1.6h2.1v1.6h-2.1v3.7c0,0.3,0.1,0.5,0.3,0.7C469.1,154.4,469.4,154.5,469.6,154.5z"/>
	</g>
	<g>
		<path d="M476,156.1c-1.2,0-2.2-0.3-2.9-1s-1-1.6-1-2.9c0-1.3,0.3-2.3,1-3c0.6-0.7,1.5-1,2.7-1c1.1,0,1.9,0.3,2.5,0.9
			s0.9,1.5,0.9,2.5v1h-4.9c0,0.6,0.2,1.1,0.5,1.4s0.8,0.5,1.4,0.5c0.5,0,0.9,0,1.3-0.1s0.8-0.2,1.3-0.5v1.6
			c-0.4,0.2-0.8,0.3-1.2,0.4S476.5,156.1,476,156.1z M475.7,149.7c-0.4,0-0.8,0.1-1,0.4s-0.4,0.7-0.4,1.2h2.9c0-0.5-0.1-0.9-0.4-1.2
			S476.1,149.7,475.7,149.7z"/>
	</g>
	<g>
		<path d="M485,148.2c0.3,0,0.5,0,0.7,0.1l-0.2,2c-0.2,0-0.4-0.1-0.6-0.1c-0.7,0-1.2,0.2-1.6,0.5c-0.4,0.3-0.6,0.8-0.6,1.4v3.9h-2.1
			v-7.6h1.6l0.3,1.3h0.1c0.2-0.4,0.6-0.8,1-1C484.1,148.3,484.6,148.2,485,148.2z"/>
	</g>
	<g>
		<path d="M496.7,156h-5.8v-10h5.8v1.7H493v2.2h3.4v1.7H493v2.6h3.6V156z"/>
	</g>
</g>
<g>
	<g>
		
			<rect x="492" y="175.5" transform="matrix(1 -4.186438e-003 4.186438e-003 1 -0.7656 2.1257)" class="st5" width="30.8" height="16.8"/>
	</g>
	<g>
		<path class="st1" d="M490.9,193.5l-0.1-19l33.2,0l0.1,19L490.9,193.5z M493.3,176.8l0.2,14.3L522,191l-0.2-14.3L493.3,176.8z"/>
	</g>
	<g>
		<g>
			<polygon class="st1" points="507.4,184.6 491.7,176.3 492.3,175.2 507.3,183.3 522.6,175 523,176.1 			"/>
		</g>
	</g>
</g>
<g>
	<g>
		<path d="M534.4,184.1v3.8h-2.1v-10h2.9c1.4,0,2.4,0.2,3,0.7c0.7,0.5,1,1.2,1,2.3c0,0.6-0.2,1.1-0.5,1.6c-0.3,0.5-0.8,0.8-1.4,1.1
			c1.5,2.2,2.5,3.7,2.9,4.4h-2.4l-2.4-3.8H534.4z M534.4,182.3h0.7c0.7,0,1.2-0.1,1.5-0.3s0.5-0.6,0.5-1.1c0-0.5-0.2-0.8-0.5-1
			c-0.3-0.2-0.8-0.3-1.5-0.3h-0.6V182.3z"/>
	</g>
	<g>
		<path d="M544.8,188c-1.2,0-2.2-0.3-2.9-1s-1-1.6-1-2.9c0-1.3,0.3-2.3,1-3c0.6-0.7,1.5-1,2.7-1c1.1,0,1.9,0.3,2.5,0.9
			s0.9,1.5,0.9,2.5v1H543c0,0.6,0.2,1.1,0.5,1.4s0.8,0.5,1.4,0.5c0.5,0,0.9,0,1.3-0.1s0.8-0.2,1.3-0.5v1.6c-0.4,0.2-0.8,0.3-1.2,0.4
			C545.9,188,545.4,188,544.8,188z M544.5,181.6c-0.4,0-0.8,0.1-1,0.4c-0.3,0.3-0.4,0.7-0.4,1.2h2.9c0-0.5-0.1-0.9-0.4-1.2
			C545.3,181.7,545,181.6,544.5,181.6z"/>
	</g>
	<g>
		<path d="M552.7,188c-2.4,0-3.6-1.3-3.6-3.9c0-1.3,0.3-2.3,1-3c0.6-0.7,1.6-1,2.8-1c0.9,0,1.7,0.2,2.4,0.5l-0.6,1.6
			c-0.3-0.1-0.6-0.2-0.9-0.3c-0.3-0.1-0.6-0.1-0.8-0.1c-1.1,0-1.6,0.8-1.6,2.3c0,1.5,0.5,2.2,1.6,2.2c0.4,0,0.8-0.1,1.1-0.2
			c0.3-0.1,0.7-0.3,1-0.5v1.8c-0.3,0.2-0.7,0.4-1,0.4C553.7,188,553.3,188,552.7,188z"/>
	</g>
	<g>
		<path d="M560.3,188c-1.2,0-2.2-0.3-2.9-1s-1-1.6-1-2.9c0-1.3,0.3-2.3,1-3c0.6-0.7,1.5-1,2.7-1c1.1,0,1.9,0.3,2.5,0.9
			s0.9,1.5,0.9,2.5v1h-4.9c0,0.6,0.2,1.1,0.5,1.4s0.8,0.5,1.4,0.5c0.5,0,0.9,0,1.3-0.1s0.8-0.2,1.3-0.5v1.6
			c-0.4,0.2-0.8,0.3-1.2,0.4C561.4,188,560.9,188,560.3,188z M560,181.6c-0.4,0-0.8,0.1-1,0.4c-0.3,0.3-0.4,0.7-0.4,1.2h2.9
			c0-0.5-0.1-0.9-0.4-1.2C560.8,181.7,560.4,181.6,560,181.6z"/>
	</g>
	<g>
		<path d="M565,178.3c0-0.7,0.4-1,1.1-1s1.1,0.3,1.1,1c0,0.3-0.1,0.6-0.3,0.8c-0.2,0.2-0.5,0.3-0.9,0.3
			C565.4,179.3,565,179,565,178.3z M567.2,187.9h-2.1v-7.6h2.1V187.9z"/>
	</g>
	<g>
		<path d="M571.2,187.9l-2.9-7.6h2.2l1.5,4.4c0.2,0.6,0.3,1.1,0.3,1.6h0c0-0.4,0.1-1,0.3-1.6l1.5-4.4h2.2l-2.9,7.6H571.2z"/>
	</g>
	<g>
		<path d="M580.8,188c-1.2,0-2.2-0.3-2.9-1s-1-1.6-1-2.9c0-1.3,0.3-2.3,1-3c0.6-0.7,1.5-1,2.7-1c1.1,0,1.9,0.3,2.5,0.9
			s0.9,1.5,0.9,2.5v1H579c0,0.6,0.2,1.1,0.5,1.4s0.8,0.5,1.4,0.5c0.5,0,0.9,0,1.3-0.1s0.8-0.2,1.3-0.5v1.6c-0.4,0.2-0.8,0.3-1.2,0.4
			C581.9,188,581.4,188,580.8,188z M580.5,181.6c-0.4,0-0.8,0.1-1,0.4c-0.3,0.3-0.4,0.7-0.4,1.2h2.9c0-0.5-0.1-0.9-0.4-1.2
			C581.3,181.7,581,181.6,580.5,181.6z"/>
	</g>
	<g>
		<path d="M588,188c-0.9,0-1.6-0.3-2.1-1c-0.5-0.7-0.8-1.7-0.8-2.9c0-1.3,0.3-2.2,0.8-2.9c0.5-0.7,1.2-1,2.2-1c1,0,1.7,0.4,2.2,1.1
			h0.1c-0.1-0.6-0.2-1.1-0.2-1.5v-2.4h2.1v10.6h-1.6l-0.4-1h-0.1C589.7,187.7,589,188,588,188z M588.8,186.4c0.5,0,0.9-0.2,1.2-0.5
			c0.2-0.3,0.4-0.8,0.4-1.6v-0.2c0-0.8-0.1-1.4-0.4-1.8c-0.3-0.4-0.7-0.5-1.2-0.5c-0.5,0-0.8,0.2-1.1,0.6c-0.3,0.4-0.4,1-0.4,1.7
			s0.1,1.3,0.4,1.7C587.9,186.2,588.3,186.4,588.8,186.4z"/>
	</g>
</g>
</svg>
