<?xml version="1.0" encoding="utf-8"?>
<!-- Generator: Adobe Illustrator 19.2.0, SVG Export Plug-In . SVG Version: 6.00 Build 0)  -->
<svg version="1.1" id="Layer_1" xmlns="http://www.w3.org/2000/svg" xmlns:xlink="http://www.w3.org/1999/xlink" x="0px" y="0px"
	 viewBox="0 0 600 340" style="enable-background:new 0 0 600 340;" xml:space="preserve">
<style type="text/css">
	.st0{fill:#FFFFFF;}
</style>
<g>
	<path class="st0" d="M515.4,322.5H84.6c-21.5,0-39-17.5-39-39v-227c0-21.5,17.5-39,39-39h430.8c21.5,0,39,17.5,39,39v227
		C554.4,305,537,322.5,515.4,322.5z"/>
	<path d="M515.4,324H84.6c-22.3,0-40.5-18.2-40.5-40.5v-227C44.1,34.2,62.2,16,84.6,16h430.8c22.3,0,40.5,18.2,40.5,40.5v227
		C555.9,305.8,537.8,324,515.4,324z M84.6,19c-20.7,0-37.5,16.8-37.5,37.5v227c0,20.7,16.8,37.5,37.5,37.5h430.8
		c20.7,0,37.5-16.8,37.5-37.5v-227c0-20.7-16.8-37.5-37.5-37.5H84.6z"/>
</g>
<g>
	<g>
		<path d="M212.2,180.6h-4.3v-11.8h-12.1v11.8h-4.3v-26.3h4.3v10.7h12.1v-10.7h4.3V180.6z"/>
	</g>
	<g>
		<path d="M232.7,180.6l-0.6-2.6h-0.2c-0.6,0.9-1.4,1.6-2.5,2.2c-1.1,0.5-2.3,0.8-3.7,0.8c-2.4,0-4.2-0.6-5.4-1.8
			c-1.2-1.2-1.8-3-1.8-5.4v-13h4.3V173c0,1.5,0.3,2.7,0.9,3.4c0.6,0.8,1.6,1.1,2.9,1.1c1.8,0,3.1-0.5,3.9-1.6
			c0.8-1.1,1.2-2.8,1.2-5.3v-9.9h4.2v19.9H232.7z"/>
	</g>
	<g>
		<path d="M252.2,160.3c2.5,0,4.4,0.9,5.8,2.7c1.4,1.8,2.1,4.3,2.1,7.6c0,3.3-0.7,5.8-2.1,7.6s-3.3,2.7-5.8,2.7
			c-2.5,0-4.5-0.9-5.9-2.7H246l-0.8,2.4H242v-27.9h4.2v6.6c0,0.5,0,1.2-0.1,2.2c0,1-0.1,1.6-0.1,1.9h0.2
			C247.6,161.3,249.6,160.3,252.2,160.3z M251.1,163.8c-1.7,0-2.9,0.5-3.7,1.5c-0.7,1-1.1,2.7-1.2,5v0.3c0,2.4,0.4,4.2,1.1,5.3
			c0.8,1.1,2,1.6,3.8,1.6c1.5,0,2.6-0.6,3.4-1.8c0.8-1.2,1.2-2.9,1.2-5.1C255.7,166.1,254.2,163.8,251.1,163.8z"/>
	</g>
	<g>
		<path d="M285.5,154.3l-9.8,26.3h-4l9.8-26.3H285.5z"/>
	</g>
	<g>
		<path d="M314,173.4c0,2.3-0.8,4.2-2.5,5.5c-1.7,1.3-4,2-7,2c-3,0-5.4-0.5-7.3-1.4v-4.1c1.2,0.6,2.5,1,3.8,1.3
			c1.3,0.3,2.6,0.5,3.8,0.5c1.7,0,3-0.3,3.8-1c0.8-0.6,1.2-1.5,1.2-2.6c0-1-0.4-1.8-1.1-2.5c-0.7-0.7-2.3-1.5-4.6-2.4
			c-2.4-1-4.1-2.1-5.1-3.3c-1-1.2-1.5-2.7-1.5-4.5c0-2.2,0.8-3.9,2.3-5.2c1.6-1.3,3.6-1.9,6.3-1.9c2.5,0,5,0.6,7.5,1.7l-1.4,3.5
			c-2.3-1-4.4-1.5-6.3-1.5c-1.4,0-2.4,0.3-3.2,0.9s-1.1,1.4-1.1,2.4c0,0.7,0.1,1.3,0.4,1.8s0.8,0.9,1.4,1.4c0.7,0.4,1.8,1,3.6,1.7
			c1.9,0.8,3.3,1.6,4.2,2.2c0.9,0.7,1.6,1.5,2,2.4C313.8,171.2,314,172.3,314,173.4z"/>
	</g>
	<g>
		<path d="M334.9,180.6l-2.6-9.3c-0.3-1-0.9-3.3-1.7-6.8h-0.2c-0.7,3.2-1.2,5.5-1.7,6.9l-2.6,9.2h-4.7l-5.6-19.9h4.3l2.5,9.8
			c0.6,2.4,1,4.5,1.2,6.2h0.1c0.1-0.9,0.3-1.9,0.5-3c0.2-1.1,0.5-2,0.6-2.5l3-10.5h4.6l2.9,10.5c0.2,0.6,0.4,1.5,0.7,2.7
			s0.4,2.1,0.5,2.8h0.1c0.2-1.5,0.6-3.5,1.3-6.2l2.6-9.8h4.2l-5.6,19.9H334.9z"/>
	</g>
	<g>
		<path d="M348.4,155.4c0-0.8,0.2-1.3,0.6-1.7c0.4-0.4,1-0.6,1.8-0.6c0.7,0,1.3,0.2,1.7,0.6c0.4,0.4,0.6,1,0.6,1.7
			c0,0.7-0.2,1.3-0.6,1.7c-0.4,0.4-1,0.6-1.7,0.6c-0.8,0-1.4-0.2-1.8-0.6S348.4,156.2,348.4,155.4z M352.9,180.6h-4.2v-19.9h4.2
			V180.6z"/>
	</g>
	<g>
		<path d="M366.3,177.5c1,0,2.1-0.2,3.1-0.5v3.2c-0.5,0.2-1.1,0.4-1.8,0.5c-0.7,0.1-1.5,0.2-2.3,0.2c-4,0-6-2.1-6-6.3v-10.7h-2.7
			V162l2.9-1.5l1.4-4.2h2.6v4.4h5.7v3.2h-5.7v10.6c0,1,0.3,1.8,0.8,2.3C364.9,177.3,365.5,177.5,366.3,177.5z"/>
	</g>
	<g>
		<path d="M381.4,180.9c-3,0-5.3-0.9-6.9-2.6c-1.6-1.8-2.3-4.3-2.3-7.6c0-3.3,0.8-5.9,2.5-7.7c1.6-1.8,4-2.7,7.1-2.7
			c2.1,0,4,0.4,5.7,1.2l-1.3,3.4c-1.8-0.7-3.3-1-4.4-1c-3.4,0-5.2,2.3-5.2,6.8c0,2.2,0.4,3.9,1.3,5c0.9,1.1,2.1,1.7,3.8,1.7
			c1.9,0,3.7-0.5,5.3-1.4v3.7c-0.8,0.4-1.6,0.8-2.4,1S382.6,180.9,381.4,180.9z"/>
	</g>
	<g>
		<path d="M409.1,180.6h-4.2v-12.2c0-1.5-0.3-2.7-0.9-3.4c-0.6-0.8-1.6-1.1-2.9-1.1c-1.8,0-3.1,0.5-3.9,1.6s-1.2,2.8-1.2,5.3v9.9
			h-4.2v-27.9h4.2v7.1c0,1.1-0.1,2.4-0.2,3.6h0.3c0.6-1,1.4-1.7,2.4-2.2c1-0.5,2.2-0.8,3.6-0.8c4.8,0,7.2,2.4,7.2,7.3V180.6z"/>
	</g>
</g>
<g>
	<path class="st0" d="M176.8,291h-65.3c-6.1,0-11-4.9-11-11v-28c0-6.1,4.9-11,11-11h65.3c6.1,0,11,4.9,11,11v28
		C187.8,286.1,182.9,291,176.8,291z"/>
	<path d="M176.8,292h-65.3c-6.6,0-12-5.4-12-12v-28c0-6.6,5.4-12,12-12h65.3c6.6,0,12,5.4,12,12v28C188.8,286.6,183.5,292,176.8,292
		z M111.5,242c-5.5,0-10,4.5-10,10v28c0,5.5,4.5,10,10,10h65.3c5.5,0,10-4.5,10-10v-28c0-5.5-4.5-10-10-10H111.5z"/>
</g>
<g>
	<g>
		<path d="M128.4,263.1c0,1.3-0.4,2.4-1.3,3.1s-2.1,1.1-3.8,1.1H122v4.8h-2.1v-12.8h3.7c1.6,0,2.8,0.3,3.6,1
			S128.4,261.8,128.4,263.1z M122,265.5h1.1c1.1,0,1.9-0.2,2.4-0.6s0.8-1,0.8-1.8c0-0.7-0.2-1.3-0.7-1.7s-1.2-0.5-2.1-0.5H122V265.5
			z"/>
	</g>
	<g>
		<path d="M139.4,267.2c0,1.6-0.4,2.8-1.2,3.7s-1.9,1.3-3.4,1.3c-0.9,0-1.7-0.2-2.4-0.6s-1.2-1-1.6-1.8s-0.6-1.7-0.6-2.7
			c0-1.6,0.4-2.8,1.2-3.7s1.9-1.3,3.4-1.3c1.4,0,2.5,0.5,3.3,1.4S139.4,265.6,139.4,267.2z M132.3,267.2c0,2.2,0.8,3.4,2.5,3.4
			c1.6,0,2.5-1.1,2.5-3.4c0-2.2-0.8-3.3-2.5-3.3c-0.9,0-1.5,0.3-1.9,0.9S132.3,266.1,132.3,267.2z"/>
	</g>
	<g>
		<path d="M146.7,262.1c0.4,0,0.8,0,1,0.1l-0.2,1.9c-0.3-0.1-0.6-0.1-0.9-0.1c-0.8,0-1.5,0.3-2,0.8s-0.8,1.2-0.8,2.1v5.1h-2.1v-9.7
			h1.6l0.3,1.7h0.1c0.3-0.6,0.7-1,1.3-1.4S146.1,262.1,146.7,262.1z"/>
	</g>
	<g>
		<path d="M153.2,270.5c0.5,0,1-0.1,1.5-0.2v1.6c-0.2,0.1-0.5,0.2-0.9,0.3s-0.7,0.1-1.1,0.1c-2,0-2.9-1-2.9-3.1v-5.2h-1.3V263
			l1.4-0.8l0.7-2.1h1.3v2.2h2.8v1.6h-2.8v5.2c0,0.5,0.1,0.9,0.4,1.1S152.8,270.5,153.2,270.5z"/>
	</g>
	<g>
		<path d="M169.8,269.2H168v2.8h-2v-2.8h-5.9v-1.6l5.9-8.5h2v8.4h1.7V269.2z M166,267.5v-3.2c0-1.1,0-2.1,0.1-2.8h-0.1
			c-0.2,0.4-0.4,0.9-0.8,1.4l-3.2,4.6H166z"/>
	</g>
</g>
<g>
	<path class="st0" d="M332.7,291h-65.3c-6.1,0-11-4.9-11-11v-28c0-6.1,4.9-11,11-11h65.3c6.1,0,11,4.9,11,11v28
		C343.7,286.1,338.7,291,332.7,291z"/>
	<path d="M332.7,292h-65.3c-6.6,0-12-5.4-12-12v-28c0-6.6,5.4-12,12-12h65.3c6.6,0,12,5.4,12,12v28C344.7,286.6,339.3,292,332.7,292
		z M267.3,242c-5.5,0-10,4.5-10,10v28c0,5.5,4.5,10,10,10h65.3c5.5,0,10-4.5,10-10v-28c0-5.5-4.5-10-10-10H267.3z"/>
</g>
<g>
	<g>
		<path d="M284.3,263.1c0,1.3-0.4,2.4-1.3,3.1s-2.1,1.1-3.8,1.1h-1.3v4.8h-2.1v-12.8h3.7c1.6,0,2.8,0.3,3.6,1
			S284.3,261.8,284.3,263.1z M277.9,265.5h1.1c1.1,0,1.9-0.2,2.4-0.6s0.8-1,0.8-1.8c0-0.7-0.2-1.3-0.7-1.7s-1.2-0.5-2.1-0.5h-1.5
			V265.5z"/>
	</g>
	<g>
		<path d="M295.2,267.2c0,1.6-0.4,2.8-1.2,3.7s-1.9,1.3-3.4,1.3c-0.9,0-1.7-0.2-2.4-0.6s-1.2-1-1.6-1.8s-0.6-1.7-0.6-2.7
			c0-1.6,0.4-2.8,1.2-3.7s1.9-1.3,3.4-1.3c1.4,0,2.5,0.5,3.3,1.4S295.2,265.6,295.2,267.2z M288.2,267.2c0,2.2,0.8,3.4,2.5,3.4
			c1.6,0,2.5-1.1,2.5-3.4c0-2.2-0.8-3.3-2.5-3.3c-0.9,0-1.5,0.3-1.9,0.9S288.2,266.1,288.2,267.2z"/>
	</g>
	<g>
		<path d="M302.5,262.1c0.4,0,0.8,0,1,0.1l-0.2,1.9c-0.3-0.1-0.6-0.1-0.9-0.1c-0.8,0-1.5,0.3-2,0.8s-0.8,1.2-0.8,2.1v5.1h-2.1v-9.7
			h1.6l0.3,1.7h0.1c0.3-0.6,0.7-1,1.3-1.4C301.4,262.3,302,262.1,302.5,262.1z"/>
	</g>
	<g>
		<path d="M309,270.5c0.5,0,1-0.1,1.5-0.2v1.6c-0.2,0.1-0.5,0.2-0.9,0.3s-0.7,0.1-1.1,0.1c-2,0-2.9-1-2.9-3.1v-5.2h-1.3V263l1.4-0.8
			l0.7-2.1h1.3v2.2h2.8v1.6h-2.8v5.2c0,0.5,0.1,0.9,0.4,1.1S308.6,270.5,309,270.5z"/>
	</g>
	<g>
		<path d="M320.8,264c1.3,0,2.3,0.3,3.1,1s1.1,1.6,1.1,2.8c0,1.4-0.4,2.4-1.3,3.2s-2.1,1.2-3.7,1.2c-1.4,0-2.6-0.2-3.4-0.7v-1.9
			c0.5,0.3,1,0.5,1.6,0.6s1.2,0.2,1.7,0.2c0.9,0,1.6-0.2,2.1-0.6s0.7-1,0.7-1.8c0-1.5-1-2.3-2.9-2.3c-0.3,0-0.6,0-1,0.1
			s-0.8,0.1-1.1,0.2l-0.9-0.5l0.5-6.3h6.7v1.8h-4.9l-0.3,3.2c0.2,0,0.5-0.1,0.8-0.1S320.4,264,320.8,264z"/>
	</g>
</g>
<g>
	<path class="st0" d="M488.5,291h-65.3c-6.1,0-11-4.9-11-11v-28c0-6.1,4.9-11,11-11h65.3c6.1,0,11,4.9,11,11v28
		C499.5,286.1,494.6,291,488.5,291z"/>
	<path d="M488.5,292h-65.3c-6.6,0-12-5.4-12-12v-28c0-6.6,5.4-12,12-12h65.3c6.6,0,12,5.4,12,12v28C500.5,286.6,495.1,292,488.5,292
		z M423.2,242c-5.5,0-10,4.5-10,10v28c0,5.5,4.5,10,10,10h65.3c5.5,0,10-4.5,10-10v-28c0-5.5-4.5-10-10-10H423.2z"/>
</g>
<g>
	<g>
		<path d="M440.1,263.1c0,1.3-0.4,2.4-1.3,3.1s-2.1,1.1-3.8,1.1h-1.3v4.8h-2.1v-12.8h3.7c1.6,0,2.8,0.3,3.6,1
			S440.1,261.8,440.1,263.1z M433.7,265.5h1.1c1.1,0,1.9-0.2,2.4-0.6s0.8-1,0.8-1.8c0-0.7-0.2-1.3-0.7-1.7s-1.2-0.5-2.1-0.5h-1.5
			V265.5z"/>
	</g>
	<g>
		<path d="M451.1,267.2c0,1.6-0.4,2.8-1.2,3.7s-1.9,1.3-3.4,1.3c-0.9,0-1.7-0.2-2.4-0.6s-1.2-1-1.6-1.8s-0.6-1.7-0.6-2.7
			c0-1.6,0.4-2.8,1.2-3.7s1.9-1.3,3.4-1.3c1.4,0,2.5,0.5,3.3,1.4S451.1,265.6,451.1,267.2z M444,267.2c0,2.2,0.8,3.4,2.5,3.4
			c1.6,0,2.5-1.1,2.5-3.4c0-2.2-0.8-3.3-2.5-3.3c-0.9,0-1.5,0.3-1.9,0.9S444,266.1,444,267.2z"/>
	</g>
	<g>
		<path d="M458.4,262.1c0.4,0,0.8,0,1,0.1l-0.2,1.9c-0.3-0.1-0.6-0.1-0.9-0.1c-0.8,0-1.5,0.3-2,0.8s-0.8,1.2-0.8,2.1v5.1h-2.1v-9.7
			h1.6l0.3,1.7h0.1c0.3-0.6,0.7-1,1.3-1.4S457.8,262.1,458.4,262.1z"/>
	</g>
	<g>
		<path d="M464.8,270.5c0.5,0,1-0.1,1.5-0.2v1.6c-0.2,0.1-0.5,0.2-0.9,0.3s-0.7,0.1-1.1,0.1c-2,0-2.9-1-2.9-3.1v-5.2h-1.3V263
			l1.4-0.8l0.7-2.1h1.3v2.2h2.8v1.6h-2.8v5.2c0,0.5,0.1,0.9,0.4,1.1S464.4,270.5,464.8,270.5z"/>
	</g>
	<g>
		<path d="M472.3,266.6c0-5,2-7.5,6.1-7.5c0.6,0,1.2,0,1.6,0.1v1.7c-0.4-0.1-1-0.2-1.5-0.2c-1.4,0-2.4,0.4-3.1,1.1s-1.1,1.9-1.1,3.6
			h0.1c0.3-0.5,0.7-0.8,1.2-1.1s1.1-0.4,1.8-0.4c1.2,0,2.1,0.4,2.7,1.1s1,1.7,1,2.9c0,1.3-0.4,2.4-1.1,3.2s-1.8,1.2-3.1,1.2
			c-0.9,0-1.7-0.2-2.4-0.7s-1.2-1.1-1.6-1.9S472.3,267.8,472.3,266.6z M476.8,270.5c0.7,0,1.3-0.2,1.6-0.7s0.6-1.1,0.6-2
			c0-0.7-0.2-1.3-0.5-1.7s-0.9-0.6-1.6-0.6c-0.4,0-0.9,0.1-1.2,0.3s-0.7,0.5-0.9,0.8s-0.3,0.7-0.3,1c0,0.8,0.2,1.5,0.7,2.1
			S476.1,270.5,476.8,270.5z"/>
	</g>
</g>
<g>
	<path class="st0" d="M176.8,99h-65.3c-6.1,0-11-4.9-11-11V60c0-6.1,4.9-11,11-11h65.3c6.1,0,11,4.9,11,11v28
		C187.8,94.1,182.9,99,176.8,99z"/>
	<path d="M176.8,100h-65.3c-6.6,0-12-5.4-12-12V60c0-6.6,5.4-12,12-12h65.3c6.6,0,12,5.4,12,12v28C188.8,94.6,183.5,100,176.8,100z
		 M111.5,50c-5.5,0-10,4.5-10,10v28c0,5.5,4.5,10,10,10h65.3c5.5,0,10-4.5,10-10V60c0-5.5-4.5-10-10-10H111.5z"/>
</g>
<g>
	<g>
		<path d="M128.4,71c0,1.3-0.4,2.4-1.3,3.1s-2.1,1.1-3.8,1.1H122V80h-2.1V67.2h3.7c1.6,0,2.8,0.3,3.6,1S128.4,69.8,128.4,71z
			 M122,73.4h1.1c1.1,0,1.9-0.2,2.4-0.6s0.8-1,0.8-1.8c0-0.7-0.2-1.3-0.7-1.7s-1.2-0.5-2.1-0.5H122V73.4z"/>
	</g>
	<g>
		<path d="M139.4,75.1c0,1.6-0.4,2.8-1.2,3.7s-1.9,1.3-3.4,1.3c-0.9,0-1.7-0.2-2.4-0.6s-1.2-1-1.6-1.8s-0.6-1.7-0.6-2.7
			c0-1.6,0.4-2.8,1.2-3.7s1.9-1.3,3.4-1.3c1.4,0,2.5,0.5,3.3,1.4S139.4,73.6,139.4,75.1z M132.3,75.1c0,2.2,0.8,3.4,2.5,3.4
			c1.6,0,2.5-1.1,2.5-3.4c0-2.2-0.8-3.3-2.5-3.3c-0.9,0-1.5,0.3-1.9,0.9S132.3,74.1,132.3,75.1z"/>
	</g>
	<g>
		<path d="M146.7,70.1c0.4,0,0.8,0,1,0.1l-0.2,1.9c-0.3-0.1-0.6-0.1-0.9-0.1c-0.8,0-1.5,0.3-2,0.8s-0.8,1.2-0.8,2.1V80h-2.1v-9.7
			h1.6l0.3,1.7h0.1c0.3-0.6,0.7-1,1.3-1.4S146.1,70.1,146.7,70.1z"/>
	</g>
	<g>
		<path d="M153.2,78.5c0.5,0,1-0.1,1.5-0.2v1.6c-0.2,0.1-0.5,0.2-0.9,0.3s-0.7,0.1-1.1,0.1c-2,0-2.9-1-2.9-3.1v-5.2h-1.3v-0.9
			l1.4-0.8l0.7-2.1h1.3v2.2h2.8v1.6h-2.8v5.2c0,0.5,0.1,0.9,0.4,1.1S152.8,78.5,153.2,78.5z"/>
	</g>
	<g>
		<path d="M166.7,80h-2.1v-8.3c0-1,0-1.8,0.1-2.4c-0.1,0.1-0.3,0.3-0.5,0.5s-0.9,0.7-2,1.6l-1-1.3l3.8-3h1.7V80z"/>
	</g>
</g>
<g>
	<path class="st0" d="M332.7,99h-65.3c-6.1,0-11-4.9-11-11V60c0-6.1,4.9-11,11-11h65.3c6.1,0,11,4.9,11,11v28
		C343.7,94.1,338.7,99,332.7,99z"/>
	<path d="M332.7,100h-65.3c-6.6,0-12-5.4-12-12V60c0-6.6,5.4-12,12-12h65.3c6.6,0,12,5.4,12,12v28C344.7,94.6,339.3,100,332.7,100z
		 M267.3,50c-5.5,0-10,4.5-10,10v28c0,5.5,4.5,10,10,10h65.3c5.5,0,10-4.5,10-10V60c0-5.5-4.5-10-10-10H267.3z"/>
</g>
<g>
	<g>
		<path d="M284.3,71c0,1.3-0.4,2.4-1.3,3.1s-2.1,1.1-3.8,1.1h-1.3V80h-2.1V67.2h3.7c1.6,0,2.8,0.3,3.6,1S284.3,69.8,284.3,71z
			 M277.9,73.4h1.1c1.1,0,1.9-0.2,2.4-0.6s0.8-1,0.8-1.8c0-0.7-0.2-1.3-0.7-1.7s-1.2-0.5-2.1-0.5h-1.5V73.4z"/>
	</g>
	<g>
		<path d="M295.2,75.1c0,1.6-0.4,2.8-1.2,3.7s-1.9,1.3-3.4,1.3c-0.9,0-1.7-0.2-2.4-0.6s-1.2-1-1.6-1.8s-0.6-1.7-0.6-2.7
			c0-1.6,0.4-2.8,1.2-3.7s1.9-1.3,3.4-1.3c1.4,0,2.5,0.5,3.3,1.4S295.2,73.6,295.2,75.1z M288.2,75.1c0,2.2,0.8,3.4,2.5,3.4
			c1.6,0,2.5-1.1,2.5-3.4c0-2.2-0.8-3.3-2.5-3.3c-0.9,0-1.5,0.3-1.9,0.9S288.2,74.1,288.2,75.1z"/>
	</g>
	<g>
		<path d="M302.5,70.1c0.4,0,0.8,0,1,0.1l-0.2,1.9c-0.3-0.1-0.6-0.1-0.9-0.1c-0.8,0-1.5,0.3-2,0.8s-0.8,1.2-0.8,2.1V80h-2.1v-9.7
			h1.6l0.3,1.7h0.1c0.3-0.6,0.7-1,1.3-1.4C301.4,70.3,302,70.1,302.5,70.1z"/>
	</g>
	<g>
		<path d="M309,78.5c0.5,0,1-0.1,1.5-0.2v1.6c-0.2,0.1-0.5,0.2-0.9,0.3s-0.7,0.1-1.1,0.1c-2,0-2.9-1-2.9-3.1v-5.2h-1.3v-0.9l1.4-0.8
			l0.7-2.1h1.3v2.2h2.8v1.6h-2.8v5.2c0,0.5,0.1,0.9,0.4,1.1S308.6,78.5,309,78.5z"/>
	</g>
	<g>
		<path d="M325.2,80h-8.7v-1.6l3.3-3.3c1-1,1.6-1.7,1.9-2.1s0.6-0.8,0.7-1.2s0.2-0.8,0.2-1.2c0-0.6-0.2-1-0.5-1.4s-0.8-0.5-1.4-0.5
			c-0.5,0-1,0.1-1.4,0.3s-1,0.5-1.6,1l-1.1-1.4c0.7-0.6,1.4-1,2.1-1.3s1.4-0.4,2.2-0.4c1.2,0,2.2,0.3,2.9,0.9s1.1,1.5,1.1,2.5
			c0,0.6-0.1,1.1-0.3,1.7s-0.5,1.1-1,1.6s-1.1,1.3-2.1,2.2l-2.2,2.2v0.1h6.1V80z"/>
	</g>
</g>
<g>
	<path class="st0" d="M488.5,99h-65.3c-6.1,0-11-4.9-11-11V60c0-6.1,4.9-11,11-11h65.3c6.1,0,11,4.9,11,11v28
		C499.5,94.1,494.6,99,488.5,99z"/>
	<path d="M488.5,100h-65.3c-6.6,0-12-5.4-12-12V60c0-6.6,5.4-12,12-12h65.3c6.6,0,12,5.4,12,12v28C500.5,94.6,495.1,100,488.5,100z
		 M423.2,50c-5.5,0-10,4.5-10,10v28c0,5.5,4.5,10,10,10h65.3c5.5,0,10-4.5,10-10V60c0-5.5-4.5-10-10-10H423.2z"/>
</g>
<g>
	<g>
		<path d="M440.1,71c0,1.3-0.4,2.4-1.3,3.1s-2.1,1.1-3.8,1.1h-1.3V80h-2.1V67.2h3.7c1.6,0,2.8,0.3,3.6,1S440.1,69.8,440.1,71z
			 M433.7,73.4h1.1c1.1,0,1.9-0.2,2.4-0.6s0.8-1,0.8-1.8c0-0.7-0.2-1.3-0.7-1.7s-1.2-0.5-2.1-0.5h-1.5V73.4z"/>
	</g>
	<g>
		<path d="M451.1,75.1c0,1.6-0.4,2.8-1.2,3.7s-1.9,1.3-3.4,1.3c-0.9,0-1.7-0.2-2.4-0.6s-1.2-1-1.6-1.8s-0.6-1.7-0.6-2.7
			c0-1.6,0.4-2.8,1.2-3.7s1.9-1.3,3.4-1.3c1.4,0,2.5,0.5,3.3,1.4S451.1,73.6,451.1,75.1z M444,75.1c0,2.2,0.8,3.4,2.5,3.4
			c1.6,0,2.5-1.1,2.5-3.4c0-2.2-0.8-3.3-2.5-3.3c-0.9,0-1.5,0.3-1.9,0.9S444,74.1,444,75.1z"/>
	</g>
	<g>
		<path d="M458.4,70.1c0.4,0,0.8,0,1,0.1l-0.2,1.9c-0.3-0.1-0.6-0.1-0.9-0.1c-0.8,0-1.5,0.3-2,0.8s-0.8,1.2-0.8,2.1V80h-2.1v-9.7
			h1.6l0.3,1.7h0.1c0.3-0.6,0.7-1,1.3-1.4S457.8,70.1,458.4,70.1z"/>
	</g>
	<g>
		<path d="M464.8,78.5c0.5,0,1-0.1,1.5-0.2v1.6c-0.2,0.1-0.5,0.2-0.9,0.3s-0.7,0.1-1.1,0.1c-2,0-2.9-1-2.9-3.1v-5.2h-1.3v-0.9
			l1.4-0.8l0.7-2.1h1.3v2.2h2.8v1.6h-2.8v5.2c0,0.5,0.1,0.9,0.4,1.1S464.4,78.5,464.8,78.5z"/>
	</g>
	<g>
		<path d="M480.5,70.1c0,0.8-0.2,1.5-0.7,2s-1.1,0.9-2,1.1v0.1c1,0.1,1.8,0.4,2.3,1s0.8,1.2,0.8,2c0,1.2-0.4,2.2-1.3,2.9
			s-2.1,1-3.7,1c-1.4,0-2.6-0.2-3.6-0.7v-1.8c0.5,0.3,1.1,0.5,1.7,0.6s1.2,0.2,1.8,0.2c1,0,1.7-0.2,2.2-0.6s0.7-0.9,0.7-1.7
			c0-0.7-0.3-1.2-0.8-1.5s-1.4-0.5-2.6-0.5h-1.1v-1.7h1.1c2.1,0,3.1-0.7,3.1-2.1c0-0.6-0.2-1-0.5-1.3s-0.9-0.4-1.6-0.4
			c-0.5,0-1,0.1-1.4,0.2s-1,0.4-1.6,0.8l-1-1.4c1.2-0.9,2.5-1.3,4.1-1.3c1.3,0,2.3,0.3,3,0.8S480.5,69.1,480.5,70.1z"/>
	</g>
</g>
</svg>
