<?xml version="1.0" encoding="utf-8"?>
<!-- Generator: Adobe Illustrator 19.2.0, SVG Export Plug-In . SVG Version: 6.00 Build 0)  -->
<svg version="1.1" id="Layer_1" xmlns="http://www.w3.org/2000/svg" xmlns:xlink="http://www.w3.org/1999/xlink" x="0px" y="0px"
	 viewBox="0 0 600 560" style="enable-background:new 0 0 600 560;" xml:space="preserve">
<style type="text/css">
	.st0{fill:#6B6B6B;}
	.st1{fill:#B85548;}
	.st2{fill:#6063C9;}
	.st3{fill:#484AB8;}
	.st4{fill:#FFFFFF;}
</style>
<g>
	<path class="st0" d="M124,164.9c-1.4,0-2.8-0.1-4.1-0.2l0.2-2c1.2,0.1,2.5,0.2,3.9,0.2L124,164.9z M128,164.9l-0.1-2
		c1.3,0,2.6-0.1,4-0.2l0.1,2C130.7,164.8,129.3,164.9,128,164.9z M136.1,164.4l-0.2-2c1.3-0.1,2.6-0.3,4-0.4l0.2,2
		C138.7,164.1,137.4,164.2,136.1,164.4z M115.9,164.1c-1.5-0.3-2.8-0.7-4-1.2l0.7-1.9c1.1,0.4,2.3,0.8,3.7,1.1L115.9,164.1z
		 M144.1,163.4l-0.3-2c1.3-0.2,2.6-0.4,3.9-0.6l0.3,2C146.7,163.1,145.4,163.3,144.1,163.4z M152,162.2l-0.3-2
		c1.3-0.2,2.6-0.4,3.9-0.7l0.4,2C154.7,161.8,153.3,162,152,162.2z M159.9,160.8l-0.4-2c1.3-0.2,2.6-0.5,3.9-0.8l0.4,2
		C162.5,160.3,161.2,160.5,159.9,160.8z M108.1,160.8c-1.2-1-2.1-2.2-2.6-3.6l1.9-0.7c0.4,1.1,1.1,2,2.1,2.8L108.1,160.8z
		 M167.8,159.3l-0.4-2c1.3-0.3,2.6-0.5,3.9-0.8l0.4,2C170.4,158.7,169.1,159,167.8,159.3z M175.6,157.6l-0.4-2l2.6-0.5
		c0.4-0.1,0.9-0.2,1.3-0.3l0.4,2c-0.4,0.1-0.9,0.2-1.3,0.3L175.6,157.6z M183.4,156.1l-0.4-2c1.3-0.2,2.6-0.5,4-0.7l0.3,2
		C186,155.6,184.7,155.8,183.4,156.1z M191.3,154.8l-0.3-2c1.3-0.2,2.6-0.4,4-0.6l0.3,2C193.9,154.4,192.6,154.6,191.3,154.8z
		 M199.2,153.6l-0.3-2l4-0.6l0.3,2L199.2,153.6z M106.8,153l-2-0.1c0.1-1.4,0.4-2.8,0.9-4.2l1.9,0.7
		C107.2,150.5,106.9,151.8,106.8,153z M207.2,152.5l-0.3-2c1.3-0.2,2.6-0.4,4-0.6l0.3,2C209.8,152.2,208.5,152.3,207.2,152.5z
		 M215.1,151.4l-0.3-2c1.3-0.2,2.6-0.4,3.9-0.6l0.3,2C217.8,151,216.5,151.2,215.1,151.4z M223.1,150.2l-0.3-2
		c1.3-0.2,2.6-0.4,3.9-0.7l0.3,2C225.7,149.7,224.4,150,223.1,150.2z M231,148.8l-0.4-2c1.3-0.3,2.6-0.5,3.9-0.8l0.4,2
		C233.6,148.3,232.3,148.5,231,148.8z M238.9,147.1l-0.5-1.9c1.3-0.3,2.6-0.7,3.8-1l0.5,1.9C241.5,146.4,240.2,146.8,238.9,147.1z
		 M109.3,146.1l-1.6-1.1c0.7-1.1,1.6-2.2,2.7-3.2l1.4,1.4C110.8,144.1,110,145.1,109.3,146.1z M246.6,144.9L246,143
		c1.3-0.4,2.6-0.9,3.7-1.3l0.7,1.9C249.3,144,248,144.5,246.6,144.9z M254.2,141.9l-0.9-1.8c1.2-0.6,2.3-1.3,3.3-2l1.2,1.6
		C256.7,140.5,255.5,141.2,254.2,141.9z M114.7,140.5l-1.2-1.6c1-0.8,2.1-1.6,3.3-2.4l1.1,1.7C116.7,139,115.6,139.8,114.7,140.5z
		 M260.9,136.9l-1.5-1.3c0.8-1,1.4-2,1.6-3.1l1.9,0.5C262.5,134.4,261.9,135.7,260.9,136.9z M121.2,136.2l-1-1.7
		c1.1-0.6,2.3-1.3,3.6-1.9l0.9,1.8C123.5,135,122.3,135.6,121.2,136.2z M128.3,132.7l-0.8-1.8c1.2-0.5,2.4-1.1,3.7-1.6l0.7,1.9
		C130.7,131.6,129.4,132.2,128.3,132.7z M135.6,129.7l-0.7-1.9c1.3-0.5,2.5-0.9,3.8-1.3l0.6,1.9
		C138.1,128.8,136.9,129.3,135.6,129.7z M261.1,129c-0.1-0.5-0.2-1-0.4-1.5c-0.2-0.7-0.5-1.4-0.8-2l1.8-0.8c0.3,0.7,0.6,1.4,0.9,2.2
		c0.2,0.6,0.4,1.2,0.5,1.8L261.1,129z M143.2,127.2l-0.6-1.9c1.3-0.4,2.6-0.8,3.9-1.1l0.5,1.9C145.7,126.4,144.5,126.8,143.2,127.2z
		 M150.8,125l-0.5-1.9c1.3-0.3,2.6-0.7,3.9-1l0.5,1.9C153.4,124.4,152.1,124.7,150.8,125z M158.6,123.2l-0.4-2
		c1.3-0.3,2.6-0.6,3.9-0.8l0.4,2C161.2,122.6,159.9,122.9,158.6,123.2z M257.9,122.2c-0.8-1-1.6-1.9-2.6-2.8l1.3-1.5
		c1.1,0.9,2,2,2.9,3.1L257.9,122.2z M166.4,121.6l-0.4-2c1.2-0.2,2.4-0.4,3.6-0.6l3.9-0.6l0.3,2L170,121
		C168.8,121.2,167.6,121.4,166.4,121.6z M177.9,119.7l-0.3-2l4-0.6l0.3,2L177.9,119.7z M185.8,118.4l-0.3-2c1.3-0.2,2.7-0.4,4-0.6
		l0.3,2C188.4,118,187.1,118.2,185.8,118.4z M252.2,117.3c-1.1-0.6-2.2-1.1-3.5-1.6l0.7-1.9c1.4,0.5,2.6,1.1,3.8,1.7L252.2,117.3z
		 M193.7,117.2l-0.3-2c1.3-0.2,2.7-0.4,4-0.6l0.3,2C196.3,116.8,195,117,193.7,117.2z M201.6,116.1l-0.3-2c1.3-0.2,2.7-0.4,4-0.5
		l0.3,2C204.3,115.7,202.9,115.9,201.6,116.1z M209.5,115l-0.2-2c1.4-0.2,2.7-0.3,4-0.5l0.2,2C212.2,114.7,210.9,114.8,209.5,115z
		 M245,114.6c-1.2-0.3-2.5-0.5-3.8-0.7l0.3-2c1.4,0.2,2.8,0.4,4,0.7L245,114.6z M217.4,114.1l-0.2-2c1.4-0.1,2.7-0.2,4-0.3l0.2,2
		C220.1,113.9,218.8,114,217.4,114.1z M237.2,113.6c-1.3-0.1-2.6-0.1-3.9-0.2l0-2c1.4,0,2.8,0.1,4,0.2L237.2,113.6z M225.4,113.5
		l-0.1-2c1.4-0.1,2.7-0.1,4-0.2l0,2C228.1,113.4,226.7,113.5,225.4,113.5z"/>
</g>
<g>
	<path class="st0" d="M133.7,554l-3-0.1l0-1.9l3,0.1h1.3v2H133.7z M138.8,553.8l0-2l4,0l0,2L138.8,553.8z M126.8,553.8
		c-1.4,0-2.7,0-4,0l0-2c1.3,0,2.6,0,4,0L126.8,553.8z M146.8,553.7l0-2l4,0l0,2L146.8,553.7z M118.8,553.7c-1.4,0-2.7,0-4-0.1l0-2
		c1.3,0,2.6,0,4,0.1L118.8,553.7z M154.8,553.6l0-2l4-0.1l0,2L154.8,553.6z M162.8,553.5l0-2l4-0.1l0,2L162.8,553.5z M110.8,553.5
		c-1.4,0-2.7-0.1-4-0.1l0.1-2c1.3,0,2.6,0.1,4,0.1L110.8,553.5z M170.8,553.4l0-2l4-0.1l0,2L170.8,553.4z M102.8,553.3
		c-1.4-0.1-2.7-0.1-4-0.2l0.1-2c1.3,0.1,2.6,0.1,4,0.2L102.8,553.3z M178.8,553.3l0-2l4-0.1l0,2L178.8,553.3z M186.8,553.1l0-2
		l4-0.1l0,2L186.8,553.1z M194.8,553l0-2l4-0.1l0,2L194.8,553z M94.8,552.9c-1.4-0.1-2.7-0.2-4-0.2l0.1-2c1.3,0.1,2.6,0.2,4,0.2
		L94.8,552.9z M202.8,552.8l0-2l4-0.1l0,2L202.8,552.8z M210.8,552.6l0-2l4-0.1l0,2L210.8,552.6z M218.8,552.5l0-2l4-0.1l0,2
		L218.8,552.5z M86.8,552.4c-1.4-0.1-2.7-0.2-4-0.3l0.2-2c1.3,0.1,2.6,0.2,4,0.3L86.8,552.4z M226.8,552.3l0-2l4-0.1l0,2
		L226.8,552.3z M234.8,552.1l0-2l4-0.1l0,2L234.8,552.1z M242.8,552l0-2l4-0.1l0,2L242.8,552z M250.8,551.8l0-2l4-0.1l0,2
		L250.8,551.8z M78.8,551.7c-1.4-0.1-2.7-0.3-4-0.5l0.2-2c1.3,0.2,2.6,0.3,4,0.5L78.8,551.7z M258.8,551.7l0-2l4-0.1l0,2
		L258.8,551.7z M266.8,551.5l0-2l4-0.1l0,2L266.8,551.5z M274.8,551.4l0-2l4-0.1l0,2L274.8,551.4z M282.8,551.3l0-2l4-0.1l0,2
		L282.8,551.3z M290.8,551.2l0-2l4,0l0,2L290.8,551.2z M298.8,551.1l0-2l4,0l0,2L298.8,551.1z M306.8,551l0-2l4,0l0,2L306.8,551z
		 M314.8,550.9l0-2l4-0.1l0,2L314.8,550.9z M322.8,550.8l0-2l4-0.1l0,2L322.8,550.8z M330.8,550.7l0-2l4-0.1l0,2L330.8,550.7z
		 M70.8,550.7c-1.4-0.2-2.7-0.4-4-0.6l0.3-2c1.3,0.2,2.6,0.4,3.9,0.6L70.8,550.7z M338.8,550.6l0-2l4-0.1l0,2L338.8,550.6z
		 M346.8,550.4l0-2l4-0.1l0,2L346.8,550.4z M354.8,550.3l0-2l4-0.1l0.1,2L354.8,550.3z M362.8,550.1l-0.1-2c1.3,0,2.7-0.1,4-0.1
		l0.1,2C365.4,550,364.1,550,362.8,550.1z M370.8,549.8l-0.1-2c1.3,0,2.7-0.1,4-0.1l0.1,2C373.4,549.7,372.1,549.8,370.8,549.8z
		 M378.8,549.5l-0.1-2c1.3-0.1,2.7-0.1,4-0.2l0.1,2C381.4,549.4,380.1,549.5,378.8,549.5z M62.9,549.4c-1.4-0.3-2.7-0.6-3.9-0.8
		l0.5-1.9c1.3,0.3,2.5,0.6,3.9,0.8L62.9,549.4z M386.8,549.2l-0.1-2c1.3-0.1,2.7-0.1,4-0.2l0.1,2
		C389.4,549.1,388.1,549.1,386.8,549.2z M394.8,548.8l-0.1-2c1.3-0.1,2.7-0.1,4-0.2l0.1,2C397.4,548.7,396.1,548.7,394.8,548.8z
		 M402.8,548.3l-0.1-2c1.3-0.1,2.7-0.2,4-0.3l0.1,2C405.4,548.2,404.1,548.3,402.8,548.3z M410.7,547.8l-0.2-2
		c1.3-0.1,2.7-0.2,4-0.3l0.2,2C413.4,547.6,412.1,547.7,410.7,547.8z M55,547.5c-1.3-0.4-2.6-0.7-3.9-1.2l0.6-1.9
		c1.2,0.4,2.5,0.8,3.8,1.1L55,547.5z M418.7,547.1l-0.2-2c1.3-0.1,2.7-0.2,4-0.4l0.2,2C421.4,546.9,420.1,547,418.7,547.1z
		 M426.7,546.3l-0.2-2c1.3-0.1,2.7-0.3,4-0.4l0.2,2C429.4,546.1,428,546.2,426.7,546.3z M434.7,545.4l-0.2-2c1.3-0.2,2.6-0.3,4-0.5
		l0.3,2C437.3,545.1,436,545.3,434.7,545.4z M47.3,545c-1.3-0.5-2.5-1-3.7-1.6l0.8-1.8c1.2,0.5,2.4,1,3.6,1.5L47.3,545z
		 M442.6,544.3l-0.3-2c1.3-0.2,2.6-0.4,3.9-0.6l0.3,2C445.3,544,443.9,544.2,442.6,544.3z M450.5,543.1l-0.3-2
		c1.3-0.2,2.6-0.5,3.9-0.7l0.4,2C453.2,542.6,451.9,542.9,450.5,543.1z M40,541.6c-1.2-0.7-2.4-1.4-3.5-2.1l1.1-1.7
		c1,0.7,2.2,1.4,3.3,2L40,541.6z M458.4,541.6l-0.4-2c1.3-0.3,2.6-0.5,3.9-0.8l0.4,2C461,541.1,459.7,541.3,458.4,541.6z
		 M466.3,539.9l-0.5-1.9c1.3-0.3,2.6-0.6,3.9-1l0.5,1.9C468.9,539.3,467.6,539.6,466.3,539.9z M474,537.9l-0.5-1.9
		c1.3-0.4,2.6-0.7,3.8-1.1l0.6,1.9C476.6,537.1,475.3,537.5,474,537.9z M33.2,537.1c-1.1-0.9-2.1-1.8-3-2.8l1.4-1.4
		c0.9,0.9,1.9,1.8,2.9,2.6L33.2,537.1z M481.7,535.6l-0.6-1.9c1.3-0.4,2.5-0.8,3.8-1.3l0.7,1.9C484.3,534.7,483,535.1,481.7,535.6z
		 M489.3,532.9l-0.7-1.9c1.2-0.5,2.5-1,3.7-1.5l0.8,1.8C491.8,531.9,490.6,532.4,489.3,532.9z M27.5,531.2c-0.8-1.1-1.6-2.2-2.4-3.3
		l1.7-1.1c0.7,1.1,1.5,2.2,2.2,3.2L27.5,531.2z M496.7,529.8l-0.8-1.8c1.2-0.5,2.4-1.1,3.6-1.7l0.9,1.8
		C499.2,528.7,498,529.2,496.7,529.8z M504,526.3l-0.9-1.8c1.2-0.6,2.3-1.3,3.5-1.9l1,1.7C506.4,525,505.2,525.6,504,526.3z
		 M23.1,524.4c-0.6-1.2-1.2-2.4-1.7-3.7l1.9-0.8c0.5,1.2,1,2.4,1.6,3.5L23.1,524.4z M511,522.3l-1-1.7c1.1-0.7,2.2-1.4,3.3-2.1
		l1.1,1.7C513.3,520.9,512.1,521.6,511,522.3z M517.7,517.8l-1.2-1.6c1.1-0.8,2.1-1.6,3.2-2.4l1.2,1.6
		C519.9,516.2,518.8,517.1,517.7,517.8z M20.1,516.9c-0.4-1.2-0.8-2.5-1.1-3.9l1.9-0.5c0.3,1.3,0.7,2.6,1.1,3.8L20.1,516.9z
		 M524.1,512.9l-1.3-1.5c1-0.8,2-1.7,3-2.6l1.3,1.5C526.1,511.2,525.1,512.1,524.1,512.9z M18,509c-0.3-1.3-0.5-2.6-0.7-4l2-0.3
		c0.2,1.3,0.5,2.6,0.7,3.9L18,509z M530,507.5l-1.4-1.4c0.9-0.9,1.9-1.8,2.8-2.8l1.4,1.4C532,505.6,531,506.6,530,507.5z
		 M535.6,501.7l-1.5-1.3c0.9-1,1.7-2,2.6-3l1.5,1.3C537.4,499.7,536.5,500.7,535.6,501.7z M16.7,501.1c-0.2-1.3-0.3-2.6-0.5-4l2-0.2
		c0.1,1.3,0.3,2.7,0.5,3.9L16.7,501.1z M540.8,495.5l-1.6-1.2c0.8-1,1.6-2.1,2.4-3.2l1.6,1.2C542.4,493.4,541.6,494.5,540.8,495.5z
		 M15.9,493.1c-0.1-1.3-0.2-2.6-0.3-4l2-0.1c0.1,1.4,0.2,2.7,0.3,4L15.9,493.1z M545.5,489l-1.7-1.1c0.7-1.1,1.5-2.2,2.2-3.3
		l1.7,1.1C547,486.8,546.3,487.9,545.5,489z M15.4,485.1c-0.1-1.3-0.1-2.6-0.1-4l2-0.1c0,1.4,0.1,2.7,0.1,4L15.4,485.1z
		 M549.8,482.2l-1.7-1c0.7-1.1,1.3-2.3,2-3.4l1.7,1C551.2,479.9,550.5,481.1,549.8,482.2z M15.2,477c0-1.3,0-2.6,0-4l2,0
		c0,1.4,0,2.7,0,4L15.2,477z M553.8,475.2l-1.8-0.9c0.6-1.2,1.2-2.3,1.8-3.5l1.8,0.9C555,472.9,554.4,474.1,553.8,475.2z M17.1,469
		l-2,0c0-1.3,0-2.7,0-4l2,0C17.1,466.4,17.1,467.7,17.1,469z M557.4,468l-1.8-0.8c0.6-1.2,1.1-2.4,1.6-3.6l1.8,0.8
		C558.5,465.6,557.9,466.8,557.4,468z M17.2,461l-2,0c0-1.3,0-2.6,0.1-4l2,0C17.2,458.4,17.2,459.7,17.2,461z M560.6,460.7l-1.8-0.8
		c0.5-1.2,1-2.4,1.5-3.7l1.9,0.7C561.6,458.2,561.1,459.5,560.6,460.7z M563.6,453.2l-1.9-0.7c0.5-1.2,0.9-2.5,1.4-3.7l1.9,0.7
		C564.5,450.7,564,452,563.6,453.2z M17.3,453l-2,0c0-1.3,0.1-2.7,0.1-4l2,0C17.4,450.4,17.3,451.7,17.3,453z M566.2,445.7l-1.9-0.6
		c0.4-1.2,0.8-2.5,1.2-3.8l1.9,0.6C567.1,443.1,566.7,444.4,566.2,445.7z M17.5,445l-2,0l0.1-4l2,0L17.5,445z M568.7,438l-1.9-0.6
		c0.4-1.3,0.8-2.5,1.1-3.8l1.9,0.6C569.5,435.5,569.1,436.8,568.7,438z M17.7,437.1l-2-0.1l0.1-4l2,0.1L17.7,437.1z M570.9,430.3
		l-1.9-0.5c0.4-1.3,0.7-2.6,1-3.8l1.9,0.5C571.6,427.8,571.3,429,570.9,430.3z M17.9,429.1l-2-0.1l0.1-4l2,0L17.9,429.1z M573,422.6
		l-1.9-0.5c0.3-1.3,0.6-2.6,1-3.9l1.9,0.5C573.6,420,573.3,421.3,573,422.6z M18.1,421.1l-2-0.1c0-1.3,0.1-2.7,0.1-4l2,0.1
		C18.2,418.4,18.1,419.7,18.1,421.1z M574.9,414.8l-1.9-0.4c0.3-1.3,0.6-2.6,0.9-3.9l2,0.4C575.4,412.2,575.2,413.5,574.9,414.8z
		 M18.4,413.1l-2-0.1c0.1-1.3,0.1-2.7,0.2-4l2,0.1C18.5,410.4,18.4,411.7,18.4,413.1z M576.6,406.9l-2-0.4c0.3-1.3,0.5-2.6,0.8-3.9
		l2,0.4C577.1,404.3,576.8,405.6,576.6,406.9z M18.8,405.1l-2-0.1c0.1-1.3,0.2-2.7,0.2-4l2,0.1C18.9,402.4,18.9,403.8,18.8,405.1z
		 M578.2,399.1l-2-0.4c0.2-1.3,0.5-2.6,0.7-3.9l2,0.4C578.7,396.5,578.4,397.8,578.2,399.1z M19.3,397.1l-2-0.1
		c0.1-1.3,0.2-2.7,0.3-4l2,0.2C19.5,394.5,19.4,395.8,19.3,397.1z M579.6,391.2l-2-0.3c0.2-1.3,0.5-2.6,0.7-3.9l2,0.3
		C580.1,388.6,579.9,389.9,579.6,391.2z M19.9,389.2l-2-0.2c0.1-1.3,0.2-2.7,0.4-4l2,0.2C20.2,386.5,20,387.8,19.9,389.2z
		 M581,383.3l-2-0.3l0.3-2.2c0.1-0.6,0.2-1.2,0.3-1.8l2,0.3c-0.1,0.6-0.2,1.2-0.3,1.8L581,383.3z M20.7,381.2l-2-0.2
		c0.1-1.3,0.3-2.7,0.4-4l2,0.2C21,378.6,20.8,379.9,20.7,381.2z M582.2,375.4l-2-0.3c0.2-1.3,0.4-2.6,0.6-4l2,0.3
		C582.6,372.8,582.4,374.1,582.2,375.4z M21.6,373.3l-2-0.2c0.2-1.3,0.3-2.7,0.5-4l2,0.3C21.9,370.6,21.7,372,21.6,373.3z
		 M583.4,367.5l-2-0.3c0.2-1.3,0.4-2.6,0.5-4l2,0.3C583.7,364.8,583.5,366.1,583.4,367.5z M22.6,365.4l-2-0.3c0.2-1.3,0.4-2.7,0.6-4
		l2,0.3C22.9,362.7,22.7,364,22.6,365.4z M584.4,359.5l-2-0.2c0.2-1.3,0.3-2.7,0.5-4l2,0.2C584.7,356.9,584.6,358.2,584.4,359.5z
		 M23.7,357.5l-2-0.3c0.2-1.3,0.4-2.6,0.6-4l2,0.3C24.1,354.8,23.9,356.1,23.7,357.5z M585.3,351.6l-2-0.2c0.1-1.3,0.3-2.7,0.4-4
		l2,0.2C585.6,348.9,585.5,350.2,585.3,351.6z M25,349.6l-2-0.3c0.2-1.3,0.5-2.6,0.7-4l2,0.4C25.4,347,25.2,348.3,25,349.6z
		 M586.1,343.6l-2-0.2c0.1-1.3,0.2-2.7,0.4-4l2,0.2C586.4,340.9,586.3,342.2,586.1,343.6z M26.4,341.7l-2-0.4
		c0.2-1.3,0.5-2.6,0.8-3.9l2,0.4C26.9,339.1,26.6,340.4,26.4,341.7z M586.8,335.6l-2-0.2c0.1-1.3,0.2-2.7,0.3-4l2,0.1
		C587,332.9,586.9,334.3,586.8,335.6z M27.9,333.9l-2-0.4c0.3-1.3,0.5-2.6,0.8-3.9l2,0.4C28.4,331.3,28.2,332.6,27.9,333.9z
		 M587.3,327.6l-2-0.1c0.1-1.3,0.1-2.7,0.2-4l2,0.1C587.5,324.9,587.4,326.3,587.3,327.6z M29.6,326.1l-2-0.4
		c0.3-1.3,0.6-2.6,0.9-3.9l1.9,0.5C30.2,323.5,29.9,324.8,29.6,326.1z M587.7,319.6l-2-0.1c0.1-1.3,0.1-2.7,0.1-4l2,0.1
		C587.8,316.9,587.8,318.2,587.7,319.6z M31.4,318.3l-1.9-0.5c0.3-1.3,0.7-2.6,1-3.9l1.9,0.5C32.1,315.7,31.8,317,31.4,318.3z
		 M587.9,311.6l-2,0c0-1.3,0-2.7,0-4l2,0C588,308.9,588,310.2,587.9,311.6z M33.4,310.6l-1.9-0.5c0.4-1.3,0.7-2.6,1.1-3.9l1.9,0.5
		C34.1,308,33.8,309.3,33.4,310.6z M586,303.6c0-1.3,0-2.7,0-4l2,0c0,1.3,0,2.7,0,4L586,303.6z M35.6,302.9l-1.9-0.6
		c0.4-1.3,0.8-2.6,1.2-3.8l1.9,0.6C36.4,300.4,36,301.6,35.6,302.9z M585.8,295.6c0-1.3-0.1-2.7-0.1-4l2-0.1c0.1,1.3,0.1,2.7,0.1,4
		L585.8,295.6z M37.9,295.3l-1.9-0.6c0.4-1.3,0.8-2.5,1.2-3.8l1.9,0.6C38.7,292.8,38.3,294,37.9,295.3z M40.4,287.7l-1.9-0.7
		c0.4-1.3,0.9-2.5,1.3-3.8l1.9,0.7C41.3,285.2,40.9,286.5,40.4,287.7z M585.5,287.6c-0.1-1.3-0.2-2.7-0.2-4l2-0.1
		c0.1,1.3,0.2,2.7,0.2,4L585.5,287.6z M43.1,280.2l-1.9-0.7c0.5-1.3,0.9-2.5,1.4-3.8l1.9,0.7C44.1,277.7,43.6,279,43.1,280.2z
		 M585,279.7c-0.1-1.3-0.2-2.7-0.4-4l2-0.2c0.1,1.3,0.2,2.7,0.4,4L585,279.7z M46,272.8l-1.9-0.7c0.5-1.2,1-2.5,1.5-3.7l1.8,0.8
		C47,270.3,46.5,271.6,46,272.8z M584.2,271.7c-0.2-1.3-0.3-2.6-0.5-4l2-0.3c0.2,1.3,0.3,2.6,0.5,4L584.2,271.7z M49.1,265.4
		l-1.8-0.8c0.5-1.2,1.1-2.5,1.6-3.7l1.8,0.8C50.2,263,49.6,264.2,49.1,265.4z M583.2,263.8c-0.2-1.3-0.4-2.6-0.6-3.9l2-0.3
		c0.2,1.3,0.4,2.6,0.6,4L583.2,263.8z M52.4,258.2l-1.8-0.9c0.6-1.2,1.2-2.4,1.7-3.6l1.8,0.9C53.6,255.8,53,257,52.4,258.2z
		 M581.9,256c-0.2-1.3-0.5-2.6-0.8-3.9l2-0.4c0.3,1.3,0.5,2.6,0.8,3.9L581.9,256z M55.9,251l-1.8-0.9c0.6-1.2,1.2-2.4,1.9-3.6
		l1.8,0.9C57.1,248.7,56.5,249.9,55.9,251z M580.3,248.2c-0.3-1.3-0.6-2.6-0.9-3.9l1.9-0.5c0.3,1.3,0.6,2.6,0.9,3.9L580.3,248.2z
		 M59.7,244l-1.7-1c0.7-1.2,1.3-2.3,2-3.5l1.7,1C61,241.7,60.3,242.8,59.7,244z M578.4,240.5c-0.3-1.3-0.7-2.6-1.1-3.8l1.9-0.6
		c0.4,1.3,0.7,2.6,1.1,3.9L578.4,240.5z M63.7,237.1l-1.7-1c0.7-1.2,1.4-2.3,2.1-3.4l1.7,1.1C65,234.8,64.4,236,63.7,237.1z
		 M576.2,232.8c-0.4-1.3-0.8-2.5-1.2-3.8l1.9-0.7c0.4,1.3,0.9,2.5,1.3,3.8L576.2,232.8z M67.9,230.4l-1.7-1.1
		c0.7-1.1,1.5-2.2,2.2-3.3l1.6,1.1C69.4,228.2,68.6,229.3,67.9,230.4z M573.6,225.3c-0.5-1.3-0.9-2.5-1.4-3.7l1.9-0.7
		c0.5,1.2,1,2.5,1.5,3.8L573.6,225.3z M72.4,223.8l-1.6-1.2c0.8-1.1,1.6-2.2,2.4-3.2l1.6,1.2C74,221.7,73.2,222.7,72.4,223.8z
		 M570.6,218c-0.5-1.2-1.1-2.4-1.6-3.6l1.8-0.8c0.6,1.2,1.1,2.4,1.7,3.7L570.6,218z M77.2,217.5l-1.6-1.2c0.8-1.1,1.7-2.1,2.5-3.1
		l1.5,1.3C78.8,215.4,78,216.4,77.2,217.5z M82.2,211.3l-1.5-1.3c0.9-1,1.8-2,2.7-3l1.5,1.3C84,209.3,83.1,210.3,82.2,211.3z
		 M567.3,210.8c-0.6-1.2-1.2-2.4-1.8-3.5l1.8-1c0.6,1.2,1.3,2.4,1.9,3.6L567.3,210.8z M87.6,205.5l-1.4-1.4c0.9-1,1.9-1.9,2.8-2.9
		l1.4,1.4C89.5,203.6,88.5,204.5,87.6,205.5z M563.5,203.8c-0.7-1.2-1.4-2.3-2-3.4l1.7-1.1c0.7,1.1,1.4,2.3,2.1,3.4L563.5,203.8z
		 M93.3,199.9l-1.4-1.5c1-0.9,2-1.8,3-2.7l1.3,1.5C95.2,198.1,94.2,199,93.3,199.9z M559.3,197.1c-0.7-1.1-1.5-2.2-2.3-3.3l1.6-1.2
		c0.8,1.1,1.6,2.2,2.3,3.3L559.3,197.1z M99.2,194.7l-1.3-1.5c1-0.9,2.1-1.7,3.1-2.5l1.2,1.6C101.3,193,100.2,193.8,99.2,194.7z
		 M554.7,190.6c-0.8-1-1.6-2.1-2.5-3.1l1.5-1.3c0.9,1,1.7,2.1,2.5,3.1L554.7,190.6z M105.5,189.8l-1.2-1.6c1.1-0.8,2.2-1.6,3.3-2.3
		l1.1,1.7C107.7,188.2,106.6,189,105.5,189.8z M112.1,185.4l-1.1-1.7c1.1-0.7,2.3-1.4,3.5-2.1l1,1.7
		C114.3,184,113.2,184.7,112.1,185.4z M549.6,184.5c-0.9-1-1.8-2-2.7-2.9l1.4-1.4c0.9,1,1.8,2,2.7,3L549.6,184.5z M118.9,181.4
		l-0.9-1.8c1.2-0.6,2.4-1.3,3.6-1.8l0.9,1.8C121.3,180.1,120.1,180.8,118.9,181.4z M544.1,178.8c-0.9-0.9-1.9-1.8-2.9-2.7l1.3-1.5
		c1,0.9,2,1.8,2.9,2.8L544.1,178.8z M126,177.9l-0.8-1.8c1.2-0.5,2.5-1.1,3.7-1.6l0.7,1.9C128.5,176.9,127.2,177.4,126,177.9z
		 M133.4,175l-0.7-1.9c1.3-0.4,2.6-0.9,3.8-1.3l0.6,1.9C135.9,174.1,134.6,174.6,133.4,175z M538.3,173.5c-1-0.8-2-1.7-3.1-2.5
		l1.2-1.6c1.1,0.8,2.1,1.7,3.1,2.6L538.3,173.5z M140.9,172.7l-0.5-1.9c1.3-0.3,2.6-0.7,3.9-1l0.4,2
		C143.5,172,142.2,172.3,140.9,172.7z M148.7,170.9l-0.4-2l3.9-0.8l0.4,2L148.7,170.9z M156.5,169.3l-0.4-2l3.9-0.8l0.4,2
		L156.5,169.3z M532.1,168.6c-1.1-0.8-2.1-1.5-3.2-2.3l1.1-1.6c1.1,0.8,2.2,1.5,3.3,2.3L532.1,168.6z M164.3,167.7l-0.4-2l3.9-0.8
		l0.4,2L164.3,167.7z M172.2,166.1l-0.4-2l3.9-0.8l0.4,2L172.2,166.1z M180,164.5l-0.4-2l3.9-0.8l0.4,2L180,164.5z M525.5,164.1
		c-1.1-0.7-2.2-1.4-3.4-2.1l1-1.7c1.2,0.7,2.3,1.4,3.4,2.1L525.5,164.1z M187.8,162.8l-0.4-2l3.9-0.8l0.4,2L187.8,162.8z
		 M195.6,161.2l-0.4-2c1.3-0.3,2.6-0.6,3.9-0.8l0.4,2C198.2,160.6,196.9,160.9,195.6,161.2z M518.7,160c-1.2-0.6-2.3-1.3-3.5-1.9
		l0.9-1.8c1.2,0.6,2.4,1.2,3.6,1.9L518.7,160z M203.4,159.6l-0.4-2c1.3-0.3,2.6-0.5,3.9-0.8l0.4,2C206,159,204.7,159.3,203.4,159.6z
		 M211.2,158.1l-0.4-2c1.3-0.2,2.6-0.5,3.9-0.7l0.3,2C213.8,157.6,212.5,157.8,211.2,158.1z M219,156.8l-0.3-2
		c1.3-0.2,2.6-0.4,4-0.6l0.3,2C221.7,156.4,220.4,156.6,219,156.8z M511.7,156.4c-1.2-0.6-2.4-1.1-3.6-1.7l0.8-1.8
		c1.2,0.5,2.4,1.1,3.7,1.7L511.7,156.4z M226.9,155.7l-0.2-2c1.3-0.1,2.6-0.3,4-0.4l0.2,2C229.5,155.5,228.2,155.6,226.9,155.7z
		 M234.8,155l-0.2-2c1.3-0.1,2.6-0.2,4-0.3l0.1,2C237.4,154.8,236.1,154.9,234.8,155z M242.7,154.5l-0.1-2c1.3-0.1,2.6-0.1,4-0.2
		l0.1,2C245.4,154.3,244,154.4,242.7,154.5z M250.7,154.1l-0.1-2c1.3-0.1,2.6-0.1,4-0.1l0.1,2C253.3,154,252,154.1,250.7,154.1z
		 M258.7,153.8l-0.1-2c1.3,0,2.6-0.1,4-0.1l0.1,2C261.3,153.8,260,153.8,258.7,153.8z M266.6,153.6l0-2l4-0.1l0,2L266.6,153.6z
		 M274.6,153.4l0-2l4-0.1l0,2L274.6,153.4z M279.2,153.3l0-2c1,0,2.3-0.1,3.9-0.3l0.2,2C281.6,153.2,280.3,153.3,279.2,153.3z
		 M504.4,153.2c-1.2-0.5-2.5-1-3.7-1.5l0.7-1.9c1.3,0.5,2.5,1,3.7,1.5L504.4,153.2z M287.3,152.6l-0.2-2c1.2-0.1,2.6-0.3,4-0.5
		l0.3,2C289.9,152.3,288.5,152.5,287.3,152.6z M295.3,151.6l-0.3-2c1.3-0.2,2.6-0.4,4-0.6l0.3,2
		C297.9,151.2,296.5,151.4,295.3,151.6z M303.2,150.5l-0.3-2l4-0.6l0.3,2L303.2,150.5z M497,150.3c-1.3-0.4-2.5-0.9-3.8-1.3l0.6-1.9
		c1.3,0.4,2.5,0.8,3.8,1.3L497,150.3z M311.1,149.3l-0.3-2l4-0.6l0.3,2L311.1,149.3z M319.1,148.2l-0.3-2l4-0.6l0.3,2L319.1,148.2z
		 M489.4,147.9c-1.3-0.4-2.5-0.8-3.8-1.1l0.5-1.9c1.3,0.4,2.6,0.7,3.9,1.1L489.4,147.9z M327,147.1l-0.3-2c1.3-0.2,2.6-0.4,4-0.5
		l0.3,2C329.6,146.7,328.3,146.9,327,147.1z M334.9,146l-0.3-2c1.3-0.2,2.6-0.3,4-0.5l0.3,2C337.5,145.7,336.2,145.8,334.9,146z
		 M481.7,145.7c-1.3-0.3-2.6-0.6-3.9-1l0.5-1.9c1.3,0.3,2.6,0.6,3.9,1L481.7,145.7z M342.8,145l-0.2-2c1.3-0.2,2.6-0.3,4-0.5l0.2,2
		C345.5,144.7,344.2,144.8,342.8,145z M350.8,144l-0.2-2c1.3-0.2,2.6-0.3,4-0.5l0.2,2C353.4,143.7,352.1,143.9,350.8,144z
		 M474,143.9c-0.9-0.2-1.8-0.4-2.8-0.6c-0.4-0.1-0.7-0.2-1.1-0.2l0.4-2c0.4,0.1,0.8,0.2,1.1,0.2c0.9,0.2,1.9,0.4,2.8,0.6L474,143.9z
		 M358.7,143.1l-0.2-2c1.3-0.1,2.6-0.3,4-0.4l0.2,2C361.4,142.8,360,143,358.7,143.1z M466.2,142.4c-1.3-0.2-2.6-0.4-3.9-0.6l0.3-2
		c1.3,0.2,2.7,0.4,4,0.6L466.2,142.4z M366.7,142.3l-0.2-2c1.3-0.1,2.7-0.3,4-0.4l0.2,2C369.3,142,368,142.2,366.7,142.3z
		 M374.6,141.5l-0.2-2c1.3-0.1,2.7-0.2,4-0.3l0.2,2C377.3,141.3,376,141.4,374.6,141.5z M458.3,141.2c-1.3-0.2-2.6-0.3-4-0.5l0.2-2
		c1.3,0.1,2.7,0.3,4,0.5L458.3,141.2z M382.6,140.9l-0.2-2c1.3-0.1,2.7-0.2,4-0.3l0.1,2C385.2,140.7,383.9,140.8,382.6,140.9z
		 M450.4,140.3c-1.3-0.1-2.6-0.2-4-0.3l0.1-2c1.3,0.1,2.7,0.2,4,0.3L450.4,140.3z M390.6,140.3l-0.1-2c1.3-0.1,2.7-0.2,4-0.2l0.1,2
		C393.2,140.1,391.9,140.2,390.6,140.3z M398.5,139.8l-0.1-2c1.3-0.1,2.7-0.1,4-0.2l0.1,2C401.2,139.7,399.9,139.8,398.5,139.8z
		 M442.4,139.7c-1.3-0.1-2.6-0.1-4-0.2l0.1-2c1.3,0.1,2.7,0.1,4,0.2L442.4,139.7z M406.5,139.5l-0.1-2c1.3,0,2.7-0.1,4-0.1l0.1,2
		C409.2,139.4,407.9,139.4,406.5,139.5z M434.5,139.4c-1.3,0-2.7-0.1-4-0.1l0-2c1.3,0,2.7,0.1,4,0.1L434.5,139.4z M414.5,139.3l0-2
		c1.3,0,2.7,0,4-0.1l0,2C417.2,139.2,415.9,139.2,414.5,139.3z M426.5,139.1c-1.3,0-2.6-0.1-3.9-0.1h0.4v-2h-0.4c0,0,0,0,0,0
		c1.3,0,2.6,0,3.9,0.1L426.5,139.1z"/>
</g>
<g>
	
		<rect x="273.6" y="37.6" transform="matrix(0.9631 -0.2691 0.2691 0.9631 -11.6541 77.1042)" class="st1" width="3.5" height="86.9"/>
</g>
<g>
	
		<rect x="146.1" y="386.4" transform="matrix(0.9995 -3.132717e-002 3.132717e-002 0.9995 -13.3766 4.8194)" class="st2" width="2" height="85.8"/>
</g>
<g>
	
		<rect x="102.5" y="407.3" transform="matrix(0.3511 -0.9363 0.9363 0.3511 -359.1687 392.3404)" class="st2" width="2" height="96.1"/>
</g>
<g>
	
		<rect x="84.6" y="496.3" transform="matrix(0.7323 -0.681 0.681 0.7323 -306.1522 215.8513)" class="st2" width="73.8" height="2"/>
</g>
<g>
	
		<rect x="185.5" y="435.3" transform="matrix(2.985393e-002 -0.9996 0.9996 2.985393e-002 -292.205 645.5389)" class="st2" width="2" height="76"/>
</g>
<g>
	
		<rect x="322.9" y="474.1" transform="matrix(0.8842 -0.467 0.467 0.8842 -179.9861 224.1104)" class="st2" width="78.4" height="2"/>
</g>
<g>
	
		<rect x="410.1" y="453.3" transform="matrix(0.8882 -0.4594 0.4594 0.8882 -176.6881 243.0355)" class="st2" width="2" height="62.6"/>
</g>
<g>
	
		<rect x="395.4" y="445.6" transform="matrix(0.9646 -0.2636 0.2636 0.9646 -102.383 130.23)" class="st2" width="77.4" height="2"/>
</g>
<g>
	
		<rect x="274.6" y="331.3" transform="matrix(0.8859 -0.4639 0.4639 0.8859 -118.1874 184.238)" class="st2" width="81.5" height="2"/>
</g>
<g>
	
		<rect x="462.3" y="275.4" transform="matrix(0.9268 -0.3757 0.3757 0.9268 -83.7727 196.9829)" class="st2" width="2" height="75.8"/>
</g>
<g>
	
		<rect x="447.2" y="264.2" transform="matrix(0.9627 -0.2706 0.2706 0.9627 -53.2848 143.9076)" class="st2" width="96.1" height="2"/>
</g>
<g>
	
		<rect x="403.2" y="227.3" transform="matrix(8.401563e-002 -0.9965 0.9965 8.401563e-002 187.6446 660.7759)" class="st2" width="100.1" height="2"/>
</g>
<g>
	
		<rect x="87" y="137.7" transform="matrix(0.9863 -0.1649 0.1649 0.9863 -20.4322 32.8697)" class="st3" width="201.4" height="3.5"/>
</g>
<g>
	<rect x="193.2" y="166" transform="matrix(0.408 -0.913 0.913 0.408 -77.35 302.0294)" class="st2" width="2" height="89.3"/>
</g>
<g>
	
		<rect x="121.3" y="243.7" transform="matrix(0.9623 -0.2719 0.2719 0.9623 -59.7802 57.9608)" class="st2" width="115.9" height="2"/>
</g>
<g>
	
		<rect x="175.7" y="262.2" transform="matrix(0.4992 -0.8665 0.8665 0.4992 -120.2258 318.3107)" class="st2" width="79.1" height="2"/>
</g>
<g>
	
		<rect x="336.3" y="325.1" transform="matrix(0.6686 -0.7436 0.7436 0.6686 -188.4262 385.2607)" class="st3" width="3.5" height="157.9"/>
</g>
<g>
	
		<rect x="124.8" y="409.9" transform="matrix(0.7343 -0.6788 0.6788 0.7343 -222.6395 254.5558)" class="st3" width="178.2" height="3.5"/>
</g>
<g>
	
		<rect x="255.4" y="225" transform="matrix(0.9403 -0.3403 0.3403 0.9403 -83.3651 104.8295)" class="st3" width="3.5" height="130.1"/>
</g>
<g>
	
		<rect x="340.3" y="143.7" transform="matrix(0.2246 -0.9745 0.9745 0.2246 18.142 529.8946)" class="st3" width="3.5" height="219.6"/>
</g>
<g>
	
		<rect x="202" y="174.1" transform="matrix(0.4408 -0.8976 0.8976 0.4408 -11.9066 332.6605)" class="st3" width="118.1" height="3.5"/>
</g>
<g>
	<g>
		<path d="M332.9,121.6h3.7v5c-0.6,0.2-1.2,0.3-1.7,0.4s-1.2,0.1-1.8,0.1c-1.5,0-2.7-0.4-3.5-1.3s-1.2-2.2-1.2-3.8
			c0-1.6,0.5-2.9,1.4-3.8c0.9-0.9,2.2-1.4,3.8-1.4c1,0,2,0.2,3,0.6l-0.6,1.4c-0.8-0.4-1.6-0.6-2.4-0.6c-1.1,0-1.9,0.3-2.5,1
			c-0.6,0.7-0.9,1.6-0.9,2.7c0,1.2,0.3,2.1,0.8,2.8c0.6,0.6,1.4,1,2.4,1c0.5,0,1.1-0.1,1.7-0.2V123h-2.1V121.6z"/>
	</g>
	<g>
		<path d="M343.5,127l-0.3-1.1h-0.1c-0.4,0.5-0.7,0.8-1.1,0.9s-0.8,0.2-1.4,0.2c-0.7,0-1.3-0.2-1.7-0.6c-0.4-0.4-0.6-1-0.6-1.7
			c0-0.8,0.3-1.4,0.9-1.8s1.5-0.6,2.6-0.6l1.3,0V122c0-0.5-0.1-0.8-0.3-1.1c-0.2-0.2-0.6-0.4-1-0.4c-0.4,0-0.8,0.1-1.1,0.2
			s-0.7,0.2-1,0.4l-0.5-1.1c0.4-0.2,0.9-0.4,1.3-0.5s0.9-0.2,1.4-0.2c1,0,1.7,0.2,2.2,0.6c0.5,0.4,0.7,1.1,0.7,2v5.1H343.5z
			 M341.2,125.9c0.6,0,1.1-0.2,1.4-0.5c0.4-0.3,0.5-0.8,0.5-1.4v-0.7l-1,0c-0.8,0-1.3,0.2-1.7,0.4c-0.3,0.2-0.5,0.6-0.5,1
			c0,0.3,0.1,0.6,0.3,0.8S340.7,125.9,341.2,125.9z"/>
	</g>
	<g>
		<path d="M349.8,125.8c0.4,0,0.8-0.1,1.2-0.2v1.2c-0.2,0.1-0.4,0.1-0.7,0.2c-0.3,0.1-0.6,0.1-0.9,0.1c-1.5,0-2.3-0.8-2.3-2.4v-4.1
			h-1v-0.7l1.1-0.6l0.5-1.6h1v1.7h2.2v1.2h-2.2v4c0,0.4,0.1,0.7,0.3,0.9C349.2,125.7,349.4,125.8,349.8,125.8z"/>
	</g>
	<g>
		<path d="M355.7,127.1c-1.2,0-2.1-0.3-2.8-1c-0.7-0.7-1-1.6-1-2.8c0-1.2,0.3-2.2,0.9-2.9s1.5-1.1,2.5-1.1c1,0,1.8,0.3,2.4,0.9
			s0.9,1.4,0.9,2.5v0.9h-5c0,0.7,0.2,1.3,0.6,1.7s0.9,0.6,1.6,0.6c0.4,0,0.9,0,1.2-0.1c0.4-0.1,0.8-0.2,1.2-0.4v1.3
			c-0.4,0.2-0.8,0.3-1.2,0.4S356.3,127.1,355.7,127.1z M355.4,120.5c-0.5,0-0.9,0.2-1.2,0.5c-0.3,0.3-0.5,0.8-0.6,1.4h3.4
			c0-0.6-0.2-1.1-0.5-1.4S356,120.5,355.4,120.5z"/>
	</g>
	<g>
		<path d="M366.7,127l-1-3.5c-0.1-0.4-0.3-1.2-0.6-2.6H365c-0.3,1.2-0.5,2.1-0.6,2.6l-1,3.5h-1.8l-2.1-7.6h1.6l1,3.7
			c0.2,0.9,0.4,1.7,0.5,2.4h0c0-0.3,0.1-0.7,0.2-1.1c0.1-0.4,0.2-0.8,0.2-1l1.1-4h1.8l1.1,4c0.1,0.2,0.2,0.6,0.3,1
			c0.1,0.5,0.2,0.8,0.2,1.1h0.1c0.1-0.6,0.2-1.3,0.5-2.4l1-3.7h1.6l-2.1,7.6H366.7z"/>
	</g>
	<g>
		<path d="M376.7,127l-0.3-1.1h-0.1c-0.4,0.5-0.7,0.8-1.1,0.9s-0.8,0.2-1.4,0.2c-0.7,0-1.3-0.2-1.7-0.6c-0.4-0.4-0.6-1-0.6-1.7
			c0-0.8,0.3-1.4,0.9-1.8s1.5-0.6,2.6-0.6l1.3,0V122c0-0.5-0.1-0.8-0.3-1.1c-0.2-0.2-0.6-0.4-1-0.4c-0.4,0-0.8,0.1-1.1,0.2
			s-0.7,0.2-1,0.4l-0.5-1.1c0.4-0.2,0.9-0.4,1.3-0.5s0.9-0.2,1.4-0.2c1,0,1.7,0.2,2.2,0.6c0.5,0.4,0.7,1.1,0.7,2v5.1H376.7z
			 M374.3,125.9c0.6,0,1.1-0.2,1.4-0.5c0.4-0.3,0.5-0.8,0.5-1.4v-0.7l-1,0c-0.8,0-1.3,0.2-1.7,0.4c-0.3,0.2-0.5,0.6-0.5,1
			c0,0.3,0.1,0.6,0.3,0.8S373.9,125.9,374.3,125.9z"/>
	</g>
	<g>
		<path d="M378.9,119.4h1.8l1.5,4.3c0.2,0.6,0.4,1.2,0.5,1.7h0.1c0-0.3,0.1-0.6,0.2-0.9s0.7-2.1,1.7-5.1h1.7l-3.2,8.6
			c-0.6,1.6-1.6,2.4-2.9,2.4c-0.4,0-0.7,0-1-0.1V129c0.2,0.1,0.5,0.1,0.8,0.1c0.8,0,1.3-0.4,1.6-1.3l0.3-0.7L378.9,119.4z"/>
	</g>
</g>
<g>
	<g>
		<path class="st4" d="M259.5,247.9h-48.9c-0.9,0-1.7-0.8-1.7-1.7v-34.7c0-0.9,0.8-1.7,1.7-1.7h48.9c0.9,0,1.7,0.8,1.7,1.7v34.7
			C261.2,247.2,260.4,247.9,259.5,247.9z"/>
		<path d="M259.5,249.9h-48.9c-2,0-3.7-1.7-3.7-3.7v-34.7c0-2,1.7-3.7,3.7-3.7h48.9c2,0,3.7,1.7,3.7,3.7v34.7
			C263.2,248.3,261.5,249.9,259.5,249.9z M210.9,245.9h48.3v-34.1h-48.3V245.9z"/>
	</g>
	<g>
		<g>
			<g>
				<g>
					<rect x="224.5" y="217.5" width="10.5" height="4"/>
				</g>
				<g>
					<g>
						<polygon points="226,214.5 217.4,219.5 226,224.5 						"/>
					</g>
				</g>
			</g>
			<g>
				<g>
					<rect x="221.8" y="230.6" width="10.5" height="4"/>
				</g>
				<g>
					<g>
						<polygon points="223.2,227.6 214.6,232.6 223.2,237.6 						"/>
					</g>
				</g>
			</g>
		</g>
		<g>
			<g>
				<g>
					<rect x="234.9" y="236.3" width="10.5" height="4"/>
				</g>
				<g>
					<g>
						<polygon points="244,243.3 252.6,238.3 244,233.3 						"/>
					</g>
				</g>
			</g>
			<g>
				<g>
					<rect x="237.7" y="223.2" width="10.5" height="4"/>
				</g>
				<g>
					<g>
						<polygon points="246.8,230.2 255.4,225.2 246.8,220.2 						"/>
					</g>
				</g>
			</g>
		</g>
	</g>
</g>
<g>
	<g>
		<ellipse class="st4" cx="287.1" cy="122.9" rx="26" ry="23"/>
		<path d="M287.1,147.9c-15.4,0-28-11.2-28-25s12.5-25,28-25s28,11.2,28,25S302.5,147.9,287.1,147.9z M287.1,101.9
			c-13.2,0-24,9.4-24,21s10.7,21,24,21s24-9.4,24-21S300.3,101.9,287.1,101.9z"/>
	</g>
	<g>
		<g>
			<g>
				<rect x="276.5" y="106.3" transform="matrix(0.8102 -0.5862 0.5862 0.8102 -12.1437 184.2879)" width="4" height="9.2"/>
			</g>
			<g>
				<g>
					<polygon points="276.3,116.3 285.4,120.4 284.3,110.5 					"/>
				</g>
			</g>
		</g>
		<g>
			<g>
				<rect x="275" y="125.4" transform="matrix(0.8343 -0.5513 0.5513 0.8343 -23.794 175.6217)" width="10.5" height="4"/>
			</g>
			<g>
				<g>
					<polygon points="274.3,125.3 269.9,134.3 279.8,133.7 					"/>
				</g>
			</g>
		</g>
		<g>
			<g>
				<rect x="293.8" y="130.3" transform="matrix(0.8101 -0.5862 0.5862 0.8101 -22.9073 199.0307)" width="4" height="9.2"/>
			</g>
			<g>
				<g>
					<polygon points="298,129.4 288.9,125.4 289.9,135.3 					"/>
				</g>
			</g>
		</g>
		<g>
			<g>
				<rect x="288.6" y="116.4" transform="matrix(0.8343 -0.5513 0.5513 0.8343 -16.5587 181.6526)" width="10.5" height="4"/>
			</g>
			<g>
				<g>
					<polygon points="299.8,120.4 304.3,111.5 294.3,112.1 					"/>
				</g>
			</g>
		</g>
	</g>
</g>
<g>
	<g>
		<path class="st4" d="M103.8,175.7H73.4c-1.1,0-2.1-0.9-2.1-2.1v-35.1c0-1.1,0.9-2.1,2.1-2.1h30.4c1.1,0,2.1,0.9,2.1,2.1v35.1
			C105.8,174.8,104.9,175.7,103.8,175.7z"/>
		<path d="M103.8,177.7H73.4c-2.2,0-4.1-1.8-4.1-4.1v-35.1c0-2.2,1.8-4.1,4.1-4.1h30.4c2.2,0,4.1,1.8,4.1,4.1v35.1
			C107.8,175.9,106,177.7,103.8,177.7z M73.4,138.5l-0.1,35.2l30.4,0.1c0,0,0.1,0,0.1-0.1v-35.1L73.4,138.5z"/>
	</g>
	<g>
		<g>
			<rect x="76.3" y="143.8" width="24.6" height="4"/>
		</g>
		<g>
			<rect x="76.3" y="154.1" width="24.6" height="4"/>
		</g>
		<g>
			<rect x="76.3" y="164.4" width="24.6" height="4"/>
		</g>
	</g>
</g>
<g>
	<g>
		<path d="M61.1,117.2c0,1.6-0.5,2.9-1.4,3.8c-0.9,0.9-2.2,1.3-4,1.3h-2.8v-10H56c1.6,0,2.8,0.4,3.7,1.3
			C60.6,114.4,61.1,115.6,61.1,117.2z M59.4,117.2c0-2.4-1.1-3.6-3.4-3.6h-1.4v7.3h1.2C58.2,120.9,59.4,119.7,59.4,117.2z"/>
	</g>
	<g>
		<path d="M71.5,122.3h-2l-4.9-8h-0.1l0,0.4c0.1,0.8,0.1,1.6,0.1,2.3v5.2h-1.5v-10h2l4.9,7.9h0c0-0.1,0-0.5-0.1-1.1s0-1.2,0-1.5
			v-5.2h1.5V122.3z"/>
	</g>
	<g>
		<path d="M80,119.5c0,0.9-0.3,1.6-1,2.1s-1.5,0.8-2.7,0.8s-2.1-0.2-2.8-0.5v-1.5c0.5,0.2,0.9,0.4,1.5,0.5c0.5,0.1,1,0.2,1.4,0.2
			c0.6,0,1.1-0.1,1.4-0.4c0.3-0.2,0.5-0.6,0.5-1c0-0.4-0.1-0.7-0.4-1s-0.9-0.6-1.8-0.9c-0.9-0.4-1.6-0.8-1.9-1.3s-0.6-1-0.6-1.7
			c0-0.8,0.3-1.5,0.9-2s1.4-0.7,2.4-0.7c1,0,1.9,0.2,2.9,0.6l-0.5,1.3c-0.9-0.4-1.7-0.6-2.4-0.6c-0.5,0-0.9,0.1-1.2,0.3
			s-0.4,0.5-0.4,0.9c0,0.3,0.1,0.5,0.2,0.7s0.3,0.4,0.5,0.5s0.7,0.4,1.4,0.6c0.7,0.3,1.3,0.6,1.6,0.9s0.6,0.6,0.8,0.9
			S80,119.1,80,119.5z"/>
	</g>
	<g>
		<path d="M91.3,119.5c0,0.9-0.3,1.6-1,2.1s-1.5,0.8-2.7,0.8s-2.1-0.2-2.8-0.5v-1.5c0.5,0.2,0.9,0.4,1.5,0.5c0.5,0.1,1,0.2,1.4,0.2
			c0.6,0,1.1-0.1,1.4-0.4c0.3-0.2,0.5-0.6,0.5-1c0-0.4-0.1-0.7-0.4-1s-0.9-0.6-1.8-0.9c-0.9-0.4-1.6-0.8-1.9-1.3s-0.6-1-0.6-1.7
			c0-0.8,0.3-1.5,0.9-2s1.4-0.7,2.4-0.7c1,0,1.9,0.2,2.9,0.6l-0.5,1.3c-0.9-0.4-1.7-0.6-2.4-0.6c-0.5,0-0.9,0.1-1.2,0.3
			s-0.4,0.5-0.4,0.9c0,0.3,0.1,0.5,0.2,0.7s0.3,0.4,0.5,0.5s0.7,0.4,1.4,0.6c0.7,0.3,1.3,0.6,1.6,0.9s0.6,0.6,0.8,0.9
			S91.3,119.1,91.3,119.5z"/>
	</g>
	<g>
		<path d="M96.4,122.4c-1.2,0-2.1-0.3-2.8-1c-0.7-0.7-1-1.6-1-2.8c0-1.2,0.3-2.2,0.9-2.9s1.5-1.1,2.5-1.1c1,0,1.8,0.3,2.4,0.9
			s0.9,1.4,0.9,2.5v0.9h-5c0,0.7,0.2,1.3,0.6,1.7s0.9,0.6,1.6,0.6c0.4,0,0.9,0,1.2-0.1c0.4-0.1,0.8-0.2,1.2-0.4v1.3
			c-0.4,0.2-0.8,0.3-1.2,0.4S96.9,122.4,96.4,122.4z M96.1,115.8c-0.5,0-0.9,0.2-1.2,0.5c-0.3,0.3-0.5,0.8-0.6,1.4h3.4
			c0-0.6-0.2-1.1-0.5-1.4S96.6,115.8,96.1,115.8z"/>
	</g>
	<g>
		<path d="M104.9,114.6c0.3,0,0.6,0,0.8,0.1l-0.2,1.5c-0.2-0.1-0.5-0.1-0.7-0.1c-0.6,0-1.2,0.2-1.6,0.6c-0.4,0.4-0.6,1-0.6,1.6v4
			h-1.6v-7.6h1.3l0.2,1.3h0.1c0.3-0.5,0.6-0.8,1-1.1C104.1,114.7,104.5,114.6,104.9,114.6z"/>
	</g>
	<g>
		<path d="M108.9,122.3l-2.9-7.6h1.7l1.5,4.4c0.3,0.7,0.4,1.3,0.5,1.8h0.1c0-0.3,0.2-0.9,0.5-1.8l1.5-4.4h1.7l-2.9,7.6H108.9z"/>
	</g>
	<g>
		<path d="M117.9,122.4c-1.2,0-2.1-0.3-2.8-1c-0.7-0.7-1-1.6-1-2.8c0-1.2,0.3-2.2,0.9-2.9s1.5-1.1,2.5-1.1c1,0,1.8,0.3,2.4,0.9
			s0.9,1.4,0.9,2.5v0.9h-5c0,0.7,0.2,1.3,0.6,1.7s0.9,0.6,1.6,0.6c0.4,0,0.9,0,1.2-0.1c0.4-0.1,0.8-0.2,1.2-0.4v1.3
			c-0.4,0.2-0.8,0.3-1.2,0.4S118.5,122.4,117.9,122.4z M117.7,115.8c-0.5,0-0.9,0.2-1.2,0.5c-0.3,0.3-0.5,0.8-0.6,1.4h3.4
			c0-0.6-0.2-1.1-0.5-1.4S118.2,115.8,117.7,115.8z"/>
	</g>
	<g>
		<path d="M126.5,114.6c0.3,0,0.6,0,0.8,0.1l-0.2,1.5c-0.2-0.1-0.5-0.1-0.7-0.1c-0.6,0-1.2,0.2-1.6,0.6c-0.4,0.4-0.6,1-0.6,1.6v4
			h-1.6v-7.6h1.3l0.2,1.3h0.1c0.3-0.5,0.6-0.8,1-1.1C125.6,114.7,126.1,114.6,126.5,114.6z"/>
	</g>
</g>
<g>
	<g>
		<path class="st4" d="M316,39.4c0.5-1.2,0.8-2.4,0.8-3.7c0-6.1-6-11.1-13.5-11.1c-1,0-1.9,0.1-2.8,0.3c-2.2-4.4-7.4-7.5-13.5-7.5
			c-4.2,0-8,1.5-10.7,3.9c-1.8-1.5-4.4-2.4-7.1-2.4c-1.1,0-2.2,0.1-3.2,0.4c-1.7-4.3-5.9-7.4-10.8-7.4c-5.3,0-9.7,3.5-11.2,8.3
			c-2.4-1.7-5.8-2.8-9.6-2.8c-3.7,0-7.1,1-9.4,2.7c-1.5-0.7-3.2-1.2-5-1.2c-6.3,0-11.4,5.1-11.4,11.4c0,4.6,2.7,8.5,6.6,10.3
			c-0.3,0.9-0.5,1.9-0.5,2.8c0,5.7,5.6,10.3,12.5,10.3c0.6,0,1.1,0,1.7-0.1c0,0,0,0.1,0,0.1c0,7.2,7.5,13,16.8,13
			c6.4,0,11.9-2.7,14.8-6.8c2.4,2.3,5.9,3.8,9.8,3.8c2.4,0,4.6-0.6,6.5-1.5c2.6,1.6,5.7,2.5,9.1,2.5c7.2,0,13.2-4.1,15-9.8
			c1.1,0.2,2.2,0.3,3.3,0.3c8,0,14.5-4.4,14.5-9.9C318.8,43.1,317.7,41,316,39.4z"/>
		<path d="M245.7,67.6c-9.4,0-17.1-5.8-17.8-13c-0.3,0-0.5,0-0.7,0c-7.5,0-13.5-5-13.5-11.3c0-0.8,0.1-1.6,0.3-2.3
			c-3.9-2.2-6.4-6.3-6.4-10.8c0-6.8,5.5-12.4,12.4-12.4c1.7,0,3.4,0.3,4.9,1c2.6-1.6,5.9-2.5,9.5-2.5c3.4,0,6.6,0.8,9.1,2.3
			c1.9-4.7,6.6-7.8,11.7-7.8c4.9,0,9.3,2.8,11.4,7.3c3.4-0.7,7,0,9.7,1.9c2.9-2.3,6.7-3.6,10.7-3.6c6,0,11.4,2.9,14,7.4
			c0.8-0.1,1.5-0.2,2.3-0.2c8,0,14.5,5.4,14.5,12.1c0,1.2-0.2,2.3-0.6,3.5c1.7,1.8,2.6,3.9,2.6,6.1c0,6.6-8.5,11.9-18.2,10.7
			c-2.3,5.7-8.6,9.7-15.7,9.7c-3.3,0-6.4-0.8-9.1-2.4c-2,0.9-4.2,1.4-6.5,1.4c-3.6,0-7-1.2-9.7-3.3
			C257.4,65.2,251.8,67.6,245.7,67.6z M230,52.4l0,1.3c0,6.6,7.1,12,15.8,12c5.8,0,11.2-2.4,13.9-6.4l0.7-0.9l0.8,0.8
			c2.3,2.2,5.6,3.5,9.1,3.5c2.1,0,4.2-0.5,6.1-1.4l0.5-0.2l0.5,0.3c2.5,1.5,5.5,2.4,8.6,2.4c6.5,0,12.3-3.7,14.1-9.1l0.3-0.8
			l0.8,0.1c1.1,0.2,2.2,0.3,3.2,0.3c7.4,0,13.5-4,13.5-8.9c0-1.8-0.9-3.6-2.5-5.1l-0.5-0.5l0.3-0.7c0.5-1.1,0.7-2.2,0.7-3.3
			c0-5.6-5.6-10.1-12.5-10.1c-0.9,0-1.8,0.1-2.7,0.2l-0.7,0.1l-0.3-0.7c-2.1-4.2-7-6.9-12.6-6.9c-3.8,0-7.4,1.3-10,3.6l-0.6,0.6
			l-0.7-0.5c-1.7-1.4-4-2.2-6.5-2.2c-1,0-2,0.1-2.9,0.4l-0.9,0.2l-0.3-0.8c-1.6-4.1-5.5-6.8-9.9-6.8c-4.7,0-8.9,3.1-10.2,7.6
			l-0.4,1.4l-1.1-0.8c-2.3-1.7-5.6-2.6-9-2.6c-3.3,0-6.6,0.9-8.8,2.5l-0.5,0.3l-0.5-0.3c-1.4-0.7-3-1.1-4.6-1.1
			c-5.7,0-10.4,4.6-10.4,10.4c0,4,2.4,7.7,6,9.4l0.8,0.4l-0.3,0.9c-0.3,0.8-0.4,1.7-0.4,2.5c0,5.1,5.2,9.3,11.5,9.3
			c0.5,0,1,0,1.6-0.1L230,52.4z"/>
	</g>
	<g>
		<g>
			<path d="M245.7,36.4h-4.8v-8.6h4.8V29h-3.4v2.3h3.2v1.2h-3.2v2.7h3.4V36.4z"/>
		</g>
		<g>
			<path d="M248.8,33.1l-2.2-3.2h1.6l1.5,2.3l1.5-2.3h1.6l-2.2,3.2l2.3,3.3h-1.6l-1.6-2.4l-1.6,2.4h-1.6L248.8,33.1z"/>
		</g>
		<g>
			<path d="M256.4,35.4c0.3,0,0.7-0.1,1-0.2v1c-0.2,0.1-0.3,0.1-0.6,0.2s-0.5,0.1-0.7,0.1c-1.3,0-2-0.7-2-2.1V31h-0.9v-0.6l0.9-0.5
				l0.5-1.4h0.8v1.4h1.8v1h-1.8v3.5c0,0.3,0.1,0.6,0.2,0.7S256.1,35.4,256.4,35.4z"/>
		</g>
		<g>
			<path d="M261.5,36.5c-1,0-1.8-0.3-2.4-0.9s-0.9-1.4-0.9-2.4c0-1.1,0.3-1.9,0.8-2.5s1.3-0.9,2.2-0.9c0.9,0,1.5,0.3,2,0.8
				s0.7,1.2,0.7,2.1v0.7h-4.3c0,0.6,0.2,1.1,0.5,1.5s0.8,0.5,1.4,0.5c0.4,0,0.7,0,1.1-0.1s0.7-0.2,1.1-0.4v1.1
				c-0.3,0.2-0.7,0.3-1,0.3S262,36.5,261.5,36.5z M261.3,30.9c-0.4,0-0.8,0.1-1.1,0.4s-0.4,0.7-0.5,1.2h2.9c0-0.5-0.1-0.9-0.4-1.2
				S261.7,30.9,261.3,30.9z"/>
		</g>
		<g>
			<path d="M268.9,29.8c0.3,0,0.5,0,0.7,0.1l-0.1,1.3c-0.2,0-0.4-0.1-0.6-0.1c-0.6,0-1,0.2-1.3,0.5S267,32.4,267,33v3.4h-1.4v-6.5
				h1.1l0.2,1.1h0.1c0.2-0.4,0.5-0.7,0.8-0.9S268.5,29.8,268.9,29.8z"/>
		</g>
		<g>
			<path d="M276.5,36.4h-1.4v-4c0-0.5-0.1-0.9-0.3-1.1s-0.5-0.4-1-0.4c-0.6,0-1,0.2-1.3,0.5s-0.4,0.9-0.4,1.7v3.2h-1.4v-6.5h1.1
				l0.2,0.8h0.1c0.2-0.3,0.5-0.5,0.8-0.7s0.8-0.3,1.2-0.3c1.6,0,2.3,0.8,2.3,2.4V36.4z"/>
		</g>
		<g>
			<path d="M282.5,36.4l-0.3-0.9h0c-0.3,0.4-0.6,0.7-0.9,0.8s-0.7,0.2-1.2,0.2c-0.6,0-1.1-0.2-1.5-0.5s-0.5-0.8-0.5-1.5
				c0-0.7,0.2-1.2,0.7-1.5s1.3-0.5,2.3-0.6l1.1,0v-0.3c0-0.4-0.1-0.7-0.3-0.9s-0.5-0.3-0.9-0.3c-0.3,0-0.7,0-1,0.1s-0.6,0.2-0.9,0.3
				l-0.4-1c0.4-0.2,0.7-0.3,1.2-0.4s0.8-0.1,1.2-0.1c0.8,0,1.4,0.2,1.9,0.5s0.6,0.9,0.6,1.7v4.4H282.5z M280.4,35.5
				c0.5,0,0.9-0.1,1.2-0.4s0.5-0.7,0.5-1.2v-0.6l-0.8,0c-0.6,0-1.1,0.1-1.4,0.3s-0.4,0.5-0.4,0.9c0,0.3,0.1,0.5,0.3,0.7
				S280.1,35.5,280.4,35.5z"/>
		</g>
		<g>
			<path d="M286.7,36.4h-1.4v-9.1h1.4V36.4z"/>
		</g>
		<g>
			<path d="M243.3,50.8h-1.4v-4c0-0.5-0.1-0.9-0.3-1.1s-0.5-0.4-1-0.4c-0.6,0-1,0.2-1.3,0.5s-0.4,0.9-0.4,1.7v3.2h-1.4v-6.5h1.1
				l0.2,0.8h0.1c0.2-0.3,0.5-0.5,0.8-0.7s0.8-0.3,1.2-0.3c1.6,0,2.3,0.8,2.3,2.4V50.8z"/>
		</g>
		<g>
			<path d="M248,50.9c-1,0-1.8-0.3-2.4-0.9s-0.9-1.4-0.9-2.4c0-1.1,0.3-1.9,0.8-2.5s1.3-0.9,2.2-0.9c0.9,0,1.5,0.3,2,0.8
				s0.7,1.2,0.7,2.1v0.7h-4.3c0,0.6,0.2,1.1,0.5,1.5s0.8,0.5,1.4,0.5c0.4,0,0.7,0,1.1-0.1s0.7-0.2,1.1-0.4v1.1
				c-0.3,0.2-0.7,0.3-1,0.3S248.5,50.9,248,50.9z M247.8,45.3c-0.4,0-0.8,0.1-1.1,0.4s-0.4,0.7-0.5,1.2h2.9c0-0.5-0.1-0.9-0.4-1.2
				S248.2,45.3,247.8,45.3z"/>
		</g>
		<g>
			<path d="M254.5,49.8c0.3,0,0.7-0.1,1-0.2v1c-0.2,0.1-0.3,0.1-0.6,0.2s-0.5,0.1-0.7,0.1c-1.3,0-2-0.7-2-2.1v-3.5h-0.9v-0.6
				l0.9-0.5l0.5-1.4h0.8v1.4h1.8v1h-1.8v3.5c0,0.3,0.1,0.6,0.2,0.7S254.2,49.8,254.5,49.8z"/>
		</g>
		<g>
			<path d="M262.1,50.8l-0.8-3c-0.1-0.3-0.3-1.1-0.6-2.2h-0.1c-0.2,1.1-0.4,1.8-0.5,2.2l-0.9,3h-1.5l-1.8-6.5h1.4l0.8,3.2
				c0.2,0.8,0.3,1.5,0.4,2h0c0-0.3,0.1-0.6,0.2-1s0.1-0.6,0.2-0.8l1-3.4h1.5l1,3.4c0.1,0.2,0.1,0.5,0.2,0.9s0.1,0.7,0.2,0.9h0
				c0.1-0.5,0.2-1.2,0.4-2l0.8-3.2h1.4l-1.8,6.5H262.1z"/>
		</g>
		<g>
			<path d="M272.4,47.6c0,1.1-0.3,1.9-0.8,2.5s-1.3,0.9-2.3,0.9c-0.6,0-1.1-0.1-1.6-0.4s-0.8-0.7-1.1-1.2s-0.4-1.1-0.4-1.8
				c0-1.1,0.3-1.9,0.8-2.5s1.3-0.9,2.3-0.9c0.9,0,1.7,0.3,2.2,0.9S272.4,46.5,272.4,47.6z M267.6,47.6c0,1.5,0.6,2.2,1.7,2.2
				c1.1,0,1.6-0.7,1.6-2.2c0-1.5-0.6-2.2-1.7-2.2c-0.6,0-1,0.2-1.3,0.6S267.6,46.8,267.6,47.6z"/>
		</g>
		<g>
			<path d="M277.2,44.2c0.3,0,0.5,0,0.7,0.1l-0.1,1.3c-0.2,0-0.4-0.1-0.6-0.1c-0.6,0-1,0.2-1.3,0.5s-0.5,0.8-0.5,1.4v3.4h-1.4v-6.5
				h1.1l0.2,1.1h0.1c0.2-0.4,0.5-0.7,0.8-0.9S276.8,44.2,277.2,44.2z"/>
		</g>
		<g>
			<path d="M280.5,47.4l0.8-1l2-2.1h1.6l-2.6,2.8l2.8,3.7h-1.6l-2.1-2.8l-0.8,0.6v2.2h-1.4v-9.1h1.4v4.4L280.5,47.4L280.5,47.4z"/>
		</g>
		<g>
			<path d="M290.3,49c0,0.6-0.2,1.1-0.7,1.5s-1.1,0.5-2,0.5c-0.9,0-1.6-0.1-2.1-0.4v-1.2c0.8,0.4,1.5,0.5,2.1,0.5
				c0.8,0,1.3-0.3,1.3-0.8c0-0.2,0-0.3-0.1-0.4s-0.2-0.2-0.5-0.3s-0.5-0.3-0.9-0.4c-0.7-0.3-1.3-0.6-1.5-0.9s-0.4-0.7-0.4-1.1
				c0-0.6,0.2-1,0.7-1.3s1.1-0.5,1.8-0.5c0.8,0,1.5,0.2,2.2,0.5l-0.4,1c-0.7-0.3-1.3-0.4-1.8-0.4c-0.7,0-1.1,0.2-1.1,0.6
				c0,0.2,0.1,0.4,0.3,0.5s0.6,0.3,1.2,0.6c0.5,0.2,0.9,0.4,1.2,0.6s0.4,0.4,0.5,0.6S290.3,48.6,290.3,49z"/>
		</g>
	</g>
</g>
<g>
	<g>
		<path d="M286.5,219.5h-1.6V215h-4.6v4.5h-1.6v-10h1.6v4.1h4.6v-4.1h1.6V219.5z"/>
	</g>
	<g>
		<path d="M294.3,219.5l-0.2-1H294c-0.2,0.4-0.5,0.6-1,0.8c-0.4,0.2-0.9,0.3-1.4,0.3c-0.9,0-1.6-0.2-2.1-0.7s-0.7-1.1-0.7-2.1v-4.9
			h1.6v4.7c0,0.6,0.1,1,0.4,1.3s0.6,0.4,1.1,0.4c0.7,0,1.2-0.2,1.5-0.6c0.3-0.4,0.5-1.1,0.5-2v-3.8h1.6v7.6H294.3z"/>
	</g>
	<g>
		<path d="M301.7,211.8c0.9,0,1.7,0.3,2.2,1c0.5,0.7,0.8,1.6,0.8,2.9c0,1.2-0.3,2.2-0.8,2.9s-1.3,1-2.2,1c-1,0-1.7-0.3-2.2-1h-0.1
			l-0.3,0.9h-1.2v-10.6h1.6v2.5c0,0.2,0,0.5,0,0.8s0,0.6,0,0.7h0.1C299.9,212.2,300.7,211.8,301.7,211.8z M301.3,213.1
			c-0.6,0-1.1,0.2-1.4,0.6c-0.3,0.4-0.4,1-0.4,1.9v0.1c0,0.9,0.1,1.6,0.4,2s0.8,0.6,1.4,0.6c0.6,0,1-0.2,1.3-0.7
			c0.3-0.5,0.4-1.1,0.4-2C303,214,302.4,213.1,301.3,213.1z"/>
	</g>
</g>
<g>
	<g>
		<path class="st4" d="M303.7,370.3h-48.9c-0.9,0-1.7-0.8-1.7-1.7v-34.7c0-0.9,0.8-1.7,1.7-1.7h48.9c0.9,0,1.7,0.8,1.7,1.7v34.7
			C305.4,369.5,304.7,370.3,303.7,370.3z"/>
		<path d="M303.7,372.3h-48.9c-2,0-3.7-1.7-3.7-3.7v-34.7c0-2,1.7-3.7,3.7-3.7h48.9c2,0,3.7,1.7,3.7,3.7v34.7
			C307.4,370.6,305.8,372.3,303.7,372.3z M255.1,368.3h48.3v-34.1h-48.3V368.3z"/>
	</g>
	<g>
		<g>
			<g>
				<g>
					<rect x="268.8" y="339.8" width="10.5" height="4"/>
				</g>
				<g>
					<g>
						<polygon points="270.3,336.8 261.7,341.8 270.3,346.8 						"/>
					</g>
				</g>
			</g>
			<g>
				<g>
					<rect x="266.1" y="352.9" width="10.5" height="4"/>
				</g>
				<g>
					<g>
						<polygon points="267.5,350 258.9,354.9 267.5,359.9 						"/>
					</g>
				</g>
			</g>
		</g>
		<g>
			<g>
				<g>
					<rect x="279.2" y="358.6" width="10.5" height="4"/>
				</g>
				<g>
					<g>
						<polygon points="288.3,365.6 296.9,360.6 288.3,355.6 						"/>
					</g>
				</g>
			</g>
			<g>
				<g>
					<rect x="282" y="345.5" width="10.5" height="4"/>
				</g>
				<g>
					<g>
						<polygon points="291,352.5 299.7,347.5 291,342.5 						"/>
					</g>
				</g>
			</g>
		</g>
	</g>
</g>
<g>
	<g>
		<path class="st4" d="M473.5,297.3h-48.9c-0.9,0-1.7-0.8-1.7-1.7v-34.7c0-0.9,0.8-1.7,1.7-1.7h48.9c0.9,0,1.7,0.8,1.7,1.7v34.7
			C475.2,296.5,474.4,297.3,473.5,297.3z"/>
		<path d="M473.5,299.3h-48.9c-2,0-3.7-1.7-3.7-3.7v-34.7c0-2,1.7-3.7,3.7-3.7h48.9c2,0,3.7,1.7,3.7,3.7v34.7
			C477.2,297.6,475.5,299.3,473.5,299.3z M424.9,295.3h48.3v-34.1h-48.3V295.3z"/>
	</g>
	<g>
		<g>
			<g>
				<g>
					<rect x="438.6" y="266.8" width="10.5" height="4"/>
				</g>
				<g>
					<g>
						<polygon points="440,263.8 431.4,268.8 440,273.8 						"/>
					</g>
				</g>
			</g>
			<g>
				<g>
					<rect x="435.8" y="279.9" width="10.5" height="4"/>
				</g>
				<g>
					<g>
						<polygon points="437.3,276.9 428.6,281.9 437.3,286.9 						"/>
					</g>
				</g>
			</g>
		</g>
		<g>
			<g>
				<g>
					<rect x="449" y="285.6" width="10.5" height="4"/>
				</g>
				<g>
					<g>
						<polygon points="458,292.6 466.7,287.6 458,282.6 						"/>
					</g>
				</g>
			</g>
			<g>
				<g>
					<rect x="451.7" y="272.5" width="10.5" height="4"/>
				</g>
				<g>
					<g>
						<polygon points="460.8,279.5 469.4,274.5 460.8,269.5 						"/>
					</g>
				</g>
			</g>
		</g>
	</g>
</g>
<g>
	<g>
		<path class="st4" d="M421.2,475.9h-48.9c-0.9,0-1.7-0.8-1.7-1.7v-34.7c0-0.9,0.8-1.7,1.7-1.7h48.9c0.9,0,1.7,0.8,1.7,1.7v34.7
			C422.9,475.1,422.1,475.9,421.2,475.9z"/>
		<path d="M421.2,477.9h-48.9c-2,0-3.7-1.7-3.7-3.7v-34.7c0-2,1.7-3.7,3.7-3.7h48.9c2,0,3.7,1.7,3.7,3.7v34.7
			C424.9,476.2,423.2,477.9,421.2,477.9z M372.6,473.9h48.3v-34.1h-48.3V473.9z"/>
	</g>
	<g>
		<g>
			<g>
				<g>
					<rect x="386.3" y="445.4" width="10.5" height="4"/>
				</g>
				<g>
					<g>
						<polygon points="387.7,442.4 379.1,447.4 387.7,452.4 						"/>
					</g>
				</g>
			</g>
			<g>
				<g>
					<rect x="383.5" y="458.5" width="10.5" height="4"/>
				</g>
				<g>
					<g>
						<polygon points="385,455.5 376.3,460.5 385,465.5 						"/>
					</g>
				</g>
			</g>
		</g>
		<g>
			<g>
				<g>
					<rect x="396.7" y="464.2" width="10.5" height="4"/>
				</g>
				<g>
					<g>
						<polygon points="405.7,471.2 414.4,466.2 405.7,461.2 						"/>
					</g>
				</g>
			</g>
			<g>
				<g>
					<rect x="399.4" y="451.1" width="10.5" height="4"/>
				</g>
				<g>
					<g>
						<polygon points="408.5,458.1 417.1,453.1 408.5,448.1 						"/>
					</g>
				</g>
			</g>
		</g>
	</g>
</g>
<g>
	<g>
		<path class="st4" d="M172.9,491.2H124c-0.9,0-1.7-0.8-1.7-1.7v-34.7c0-0.9,0.8-1.7,1.7-1.7h48.9c0.9,0,1.7,0.8,1.7,1.7v34.7
			C174.6,490.5,173.8,491.2,172.9,491.2z"/>
		<path d="M172.9,493.2H124c-2,0-3.7-1.7-3.7-3.7v-34.7c0-2,1.7-3.7,3.7-3.7h48.9c2,0,3.7,1.7,3.7,3.7v34.7
			C176.6,491.6,174.9,493.2,172.9,493.2z M124.3,489.2h48.3v-34.1h-48.3V489.2z"/>
	</g>
	<g>
		<g>
			<g>
				<g>
					<rect x="138" y="460.8" width="10.5" height="4"/>
				</g>
				<g>
					<g>
						<polygon points="139.5,457.8 130.8,462.8 139.5,467.8 						"/>
					</g>
				</g>
			</g>
			<g>
				<g>
					<rect x="135.2" y="473.9" width="10.5" height="4"/>
				</g>
				<g>
					<g>
						<polygon points="136.7,470.9 128.1,475.9 136.7,480.9 						"/>
					</g>
				</g>
			</g>
		</g>
		<g>
			<g>
				<g>
					<rect x="148.4" y="479.6" width="10.5" height="4"/>
				</g>
				<g>
					<g>
						<polygon points="157.5,486.5 166.1,481.6 157.5,476.6 						"/>
					</g>
				</g>
			</g>
			<g>
				<g>
					<rect x="151.1" y="466.5" width="10.5" height="4"/>
				</g>
				<g>
					<g>
						<polygon points="160.2,473.4 168.9,468.5 160.2,463.5 						"/>
					</g>
				</g>
			</g>
		</g>
	</g>
</g>
<g>
	<g>
		<path class="st4" d="M468.8,190.7h-22.7c-2.8,0-5.1-2.3-5.1-5.1v-14.4c0-2.8,2.3-5.1,5.1-5.1h22.7c2.8,0,5.1,2.3,5.1,5.1v14.4
			C473.8,188.4,471.6,190.7,468.8,190.7z"/>
		<path d="M468.8,192.2h-22.7c-3.6,0-6.6-2.9-6.6-6.6v-14.4c0-3.6,2.9-6.6,6.6-6.6h22.7c3.6,0,6.6,2.9,6.6,6.6v14.4
			C475.3,189.3,472.4,192.2,468.8,192.2z M446.1,167.7c-2,0-3.6,1.6-3.6,3.6v14.4c0,2,1.6,3.6,3.6,3.6h22.7c2,0,3.6-1.6,3.6-3.6
			v-14.4c0-2-1.6-3.6-3.6-3.6H446.1z"/>
	</g>
	<g>
		<g>
			<path class="st4" d="M439.9,203.9c-1.1,0-1.5-0.8-1-1.7l3.4-5.5c0.6-0.9,1.9-1.6,3-1.6h24.1c1.1,0,2.5,0.7,3,1.7l3.5,5.8
				c0.6,0.9,0.1,1.7-1,1.7L439.9,203.9z"/>
		</g>
		<g>
			<path d="M475.1,206C475.1,206,475.1,206,475.1,206l-35.1-0.4c-1.1,0-2-0.6-2.4-1.4c-0.5-0.8-0.4-1.8,0.2-2.8l3.4-5.8
				c0.8-1.3,2.6-2.7,4.3-2.7h24.1c1.7,0,3.5,1.3,4.3,2.6l3.5,5.9c0.6,0.9,0.6,2.1,0.1,3C477,205.3,476.1,206,475.1,206z
				 M439.9,202.4l0.1,1.5L439.9,202.4C439.9,202.4,439.9,202.4,439.9,202.4z M440.6,202.4l33.9,0.2l-3.2-5.4
				c-0.4-0.6-1.3-1.2-1.7-1.2h-24.1c-0.5,0-1.4,0.6-1.7,1.2L440.6,202.4z"/>
		</g>
	</g>
	<g>
		<rect x="451.4" y="190.7" width="12" height="4.2"/>
	</g>
	<g>
		<path d="M468.1,186.7h-21.3c-0.7,0-1.2-0.5-1.2-1.2v-14.1c0-0.7,0.5-1.2,1.2-1.2h21.3c0.7,0,1.2,0.5,1.2,1.2v14.1
			C469.3,186.1,468.8,186.7,468.1,186.7z"/>
	</g>
</g>
<g>
	<g>
		<path class="st4" d="M552.8,264.7h-22.7c-2.8,0-5.1-2.3-5.1-5.1v-14.4c0-2.8,2.3-5.1,5.1-5.1h22.7c2.8,0,5.1,2.3,5.1,5.1v14.4
			C557.8,262.4,555.6,264.7,552.8,264.7z"/>
		<path d="M552.8,266.2h-22.7c-3.6,0-6.6-2.9-6.6-6.6v-14.4c0-3.6,2.9-6.6,6.6-6.6h22.7c3.6,0,6.6,2.9,6.6,6.6v14.4
			C559.3,263.3,556.4,266.2,552.8,266.2z M530.1,241.7c-2,0-3.6,1.6-3.6,3.6v14.4c0,2,1.6,3.6,3.6,3.6h22.7c2,0,3.6-1.6,3.6-3.6
			v-14.4c0-2-1.6-3.6-3.6-3.6H530.1z"/>
	</g>
	<g>
		<g>
			<path class="st4" d="M523.9,277.9c-1.1,0-1.5-0.8-1-1.7l3.4-5.5c0.6-0.9,1.9-1.6,3-1.6h24.1c1.1,0,2.5,0.7,3,1.7l3.5,5.8
				c0.6,0.9,0.1,1.7-1,1.7L523.9,277.9z"/>
		</g>
		<g>
			<path d="M559.1,280C559.1,280,559.1,280,559.1,280l-35.1-0.4c-1.1,0-2-0.6-2.4-1.4c-0.5-0.8-0.4-1.8,0.2-2.8l3.4-5.8
				c0.8-1.3,2.6-2.7,4.3-2.7h24.1c1.7,0,3.5,1.3,4.3,2.6l3.5,5.9c0.6,0.9,0.6,2.1,0.1,3C561,279.3,560.1,280,559.1,280z
				 M523.9,276.4l0.1,1.5L523.9,276.4C523.9,276.4,523.9,276.4,523.9,276.4z M524.6,276.4l33.9,0.2l-3.2-5.4
				c-0.4-0.6-1.3-1.2-1.7-1.2h-24.1c-0.5,0-1.4,0.6-1.7,1.2L524.6,276.4z"/>
		</g>
	</g>
	<g>
		<rect x="535.4" y="264.7" width="12" height="4.2"/>
	</g>
	<g>
		<path d="M552.1,260.7h-21.3c-0.7,0-1.2-0.5-1.2-1.2v-14.1c0-0.7,0.5-1.2,1.2-1.2h21.3c0.7,0,1.2,0.5,1.2,1.2v14.1
			C553.3,260.1,552.8,260.7,552.1,260.7z"/>
	</g>
</g>
<g>
	<g>
		<path class="st4" d="M488.8,360.7h-22.7c-2.8,0-5.1-2.3-5.1-5.1v-14.4c0-2.8,2.3-5.1,5.1-5.1h22.7c2.8,0,5.1,2.3,5.1,5.1v14.4
			C493.8,358.4,491.6,360.7,488.8,360.7z"/>
		<path d="M488.8,362.2h-22.7c-3.6,0-6.6-2.9-6.6-6.6v-14.4c0-3.6,2.9-6.6,6.6-6.6h22.7c3.6,0,6.6,2.9,6.6,6.6v14.4
			C495.3,359.3,492.4,362.2,488.8,362.2z M466.1,337.7c-2,0-3.6,1.6-3.6,3.6v14.4c0,2,1.6,3.6,3.6,3.6h22.7c2,0,3.6-1.6,3.6-3.6
			v-14.4c0-2-1.6-3.6-3.6-3.6H466.1z"/>
	</g>
	<g>
		<g>
			<path class="st4" d="M459.9,373.9c-1.1,0-1.5-0.8-1-1.7l3.4-5.5c0.6-0.9,1.9-1.6,3-1.6h24.1c1.1,0,2.5,0.7,3,1.7l3.5,5.8
				c0.6,0.9,0.1,1.7-1,1.7L459.9,373.9z"/>
		</g>
		<g>
			<path d="M495.1,376C495.1,376,495.1,376,495.1,376l-35.1-0.4c-1.1,0-2-0.6-2.4-1.4c-0.5-0.8-0.4-1.8,0.2-2.8l3.4-5.8
				c0.8-1.3,2.6-2.7,4.3-2.7h24.1c1.7,0,3.5,1.3,4.3,2.6l3.5,5.9c0.6,0.9,0.6,2.1,0.1,3C497,375.3,496.1,376,495.1,376z
				 M459.9,372.4l0.1,1.5L459.9,372.4C459.9,372.4,459.9,372.4,459.9,372.4z M460.6,372.4l33.9,0.2l-3.2-5.4
				c-0.4-0.6-1.3-1.2-1.7-1.2h-24.1c-0.5,0-1.4,0.6-1.7,1.2L460.6,372.4z"/>
		</g>
	</g>
	<g>
		<rect x="471.4" y="360.7" width="12" height="4.2"/>
	</g>
	<g>
		<path d="M488.1,356.7h-21.3c-0.7,0-1.2-0.5-1.2-1.2v-14.1c0-0.7,0.5-1.2,1.2-1.2h21.3c0.7,0,1.2,0.5,1.2,1.2v14.1
			C489.3,356.1,488.8,356.7,488.1,356.7z"/>
	</g>
</g>
<g>
	<g>
		<path class="st4" d="M164.8,204.7h-22.7c-2.8,0-5.1-2.3-5.1-5.1v-14.4c0-2.8,2.3-5.1,5.1-5.1h22.7c2.8,0,5.1,2.3,5.1,5.1v14.4
			C169.8,202.4,167.6,204.7,164.8,204.7z"/>
		<path d="M164.8,206.2h-22.7c-3.6,0-6.6-2.9-6.6-6.6v-14.4c0-3.6,2.9-6.6,6.6-6.6h22.7c3.6,0,6.6,2.9,6.6,6.6v14.4
			C171.3,203.3,168.4,206.2,164.8,206.2z M142.1,181.7c-2,0-3.6,1.6-3.6,3.6v14.4c0,2,1.6,3.6,3.6,3.6h22.7c2,0,3.6-1.6,3.6-3.6
			v-14.4c0-2-1.6-3.6-3.6-3.6H142.1z"/>
	</g>
	<g>
		<g>
			<path class="st4" d="M135.9,217.9c-1.1,0-1.5-0.8-1-1.7l3.4-5.5c0.6-0.9,1.9-1.6,3-1.6h24.1c1.1,0,2.5,0.7,3,1.7l3.5,5.8
				c0.6,0.9,0.1,1.7-1,1.7L135.9,217.9z"/>
		</g>
		<g>
			<path d="M171.1,220C171.1,220,171.1,220,171.1,220l-35.1-0.4c-1.1,0-2-0.6-2.4-1.4c-0.5-0.8-0.4-1.8,0.2-2.8l3.4-5.8
				c0.8-1.3,2.6-2.7,4.3-2.7h24.1c1.7,0,3.5,1.3,4.3,2.6l3.5,5.9c0.6,0.9,0.6,2.1,0.1,3C173,219.3,172.1,220,171.1,220z
				 M135.9,216.4l0.1,1.5L135.9,216.4C135.9,216.4,135.9,216.4,135.9,216.4z M136.6,216.4l33.9,0.2l-3.2-5.4
				c-0.4-0.6-1.3-1.2-1.7-1.2h-24.1c-0.5,0-1.4,0.6-1.7,1.2L136.6,216.4z"/>
		</g>
	</g>
	<g>
		<rect x="147.4" y="204.7" width="12" height="4.2"/>
	</g>
	<g>
		<path d="M164.1,200.7h-21.3c-0.7,0-1.2-0.5-1.2-1.2v-14.1c0-0.7,0.5-1.2,1.2-1.2h21.3c0.7,0,1.2,0.5,1.2,1.2v14.1
			C165.3,200.1,164.8,200.7,164.1,200.7z"/>
	</g>
</g>
<g>
	<g>
		<path class="st4" d="M134.8,272.7h-22.7c-2.8,0-5.1-2.3-5.1-5.1v-14.4c0-2.8,2.3-5.1,5.1-5.1h22.7c2.8,0,5.1,2.3,5.1,5.1v14.4
			C139.8,270.4,137.6,272.7,134.8,272.7z"/>
		<path d="M134.8,274.2h-22.7c-3.6,0-6.6-2.9-6.6-6.6v-14.4c0-3.6,2.9-6.6,6.6-6.6h22.7c3.6,0,6.6,2.9,6.6,6.6v14.4
			C141.3,271.3,138.4,274.2,134.8,274.2z M112.1,249.7c-2,0-3.6,1.6-3.6,3.6v14.4c0,2,1.6,3.6,3.6,3.6h22.7c2,0,3.6-1.6,3.6-3.6
			v-14.4c0-2-1.6-3.6-3.6-3.6H112.1z"/>
	</g>
	<g>
		<g>
			<path class="st4" d="M105.9,285.9c-1.1,0-1.5-0.8-1-1.7l3.4-5.5c0.6-0.9,1.9-1.6,3-1.6h24.1c1.1,0,2.5,0.7,3,1.7l3.5,5.8
				c0.6,0.9,0.1,1.7-1,1.7L105.9,285.9z"/>
		</g>
		<g>
			<path d="M141.1,288C141.1,288,141.1,288,141.1,288l-35.1-0.4c-1.1,0-2-0.6-2.4-1.4c-0.5-0.8-0.4-1.8,0.2-2.8l3.4-5.8
				c0.8-1.3,2.6-2.7,4.3-2.7h24.1c1.7,0,3.5,1.3,4.3,2.6l3.5,5.9c0.6,0.9,0.6,2.1,0.1,3C143,287.3,142.1,288,141.1,288z
				 M105.9,284.4l0.1,1.5L105.9,284.4C105.9,284.4,105.9,284.4,105.9,284.4z M106.6,284.4l33.9,0.2l-3.2-5.4
				c-0.4-0.6-1.3-1.2-1.7-1.2h-24.1c-0.5,0-1.4,0.6-1.7,1.2L106.6,284.4z"/>
		</g>
	</g>
	<g>
		<rect x="117.4" y="272.7" width="12" height="4.2"/>
	</g>
	<g>
		<path d="M134.1,268.7h-21.3c-0.7,0-1.2-0.5-1.2-1.2v-14.1c0-0.7,0.5-1.2,1.2-1.2h21.3c0.7,0,1.2,0.5,1.2,1.2v14.1
			C135.3,268.1,134.8,268.7,134.1,268.7z"/>
	</g>
</g>
<g>
	<g>
		<path class="st4" d="M206.8,309.7h-22.7c-2.8,0-5.1-2.3-5.1-5.1v-14.4c0-2.8,2.3-5.1,5.1-5.1h22.7c2.8,0,5.1,2.3,5.1,5.1v14.4
			C211.8,307.4,209.6,309.7,206.8,309.7z"/>
		<path d="M206.8,311.2h-22.7c-3.6,0-6.6-2.9-6.6-6.6v-14.4c0-3.6,2.9-6.6,6.6-6.6h22.7c3.6,0,6.6,2.9,6.6,6.6v14.4
			C213.3,308.3,210.4,311.2,206.8,311.2z M184.1,286.7c-2,0-3.6,1.6-3.6,3.6v14.4c0,2,1.6,3.6,3.6,3.6h22.7c2,0,3.6-1.6,3.6-3.6
			v-14.4c0-2-1.6-3.6-3.6-3.6H184.1z"/>
	</g>
	<g>
		<g>
			<path class="st4" d="M177.9,322.9c-1.1,0-1.5-0.8-1-1.7l3.4-5.5c0.6-0.9,1.9-1.6,3-1.6h24.1c1.1,0,2.5,0.7,3,1.7l3.5,5.8
				c0.6,0.9,0.1,1.7-1,1.7L177.9,322.9z"/>
		</g>
		<g>
			<path d="M213.1,325C213.1,325,213.1,325,213.1,325l-35.1-0.4c-1.1,0-2-0.6-2.4-1.4c-0.5-0.8-0.4-1.8,0.2-2.8l3.4-5.8
				c0.8-1.3,2.6-2.7,4.3-2.7h24.1c1.7,0,3.5,1.3,4.3,2.6l3.5,5.9c0.6,0.9,0.6,2.1,0.1,3C215,324.3,214.1,325,213.1,325z
				 M177.9,321.4l0.1,1.5L177.9,321.4C177.9,321.4,177.9,321.4,177.9,321.4z M178.6,321.4l33.9,0.2l-3.2-5.4
				c-0.4-0.6-1.3-1.2-1.7-1.2h-24.1c-0.5,0-1.4,0.6-1.7,1.2L178.6,321.4z"/>
		</g>
	</g>
	<g>
		<rect x="189.4" y="309.7" width="12" height="4.2"/>
	</g>
	<g>
		<path d="M206.1,305.7h-21.3c-0.7,0-1.2-0.5-1.2-1.2v-14.1c0-0.7,0.5-1.2,1.2-1.2h21.3c0.7,0,1.2,0.5,1.2,1.2v14.1
			C207.3,305.1,206.8,305.7,206.1,305.7z"/>
	</g>
</g>
<g>
	<g>
		<path class="st4" d="M235.8,486.7h-22.7c-2.8,0-5.1-2.3-5.1-5.1v-14.4c0-2.8,2.3-5.1,5.1-5.1h22.7c2.8,0,5.1,2.3,5.1,5.1v14.4
			C240.8,484.4,238.6,486.7,235.8,486.7z"/>
		<path d="M235.8,488.2h-22.7c-3.6,0-6.6-2.9-6.6-6.6v-14.4c0-3.6,2.9-6.6,6.6-6.6h22.7c3.6,0,6.6,2.9,6.6,6.6v14.4
			C242.3,485.3,239.4,488.2,235.8,488.2z M213.1,463.7c-2,0-3.6,1.6-3.6,3.6v14.4c0,2,1.6,3.6,3.6,3.6h22.7c2,0,3.6-1.6,3.6-3.6
			v-14.4c0-2-1.6-3.6-3.6-3.6H213.1z"/>
	</g>
	<g>
		<g>
			<path class="st4" d="M206.9,499.9c-1.1,0-1.5-0.8-1-1.7l3.4-5.5c0.6-0.9,1.9-1.6,3-1.6h24.1c1.1,0,2.5,0.7,3,1.7l3.5,5.8
				c0.6,0.9,0.1,1.7-1,1.7L206.9,499.9z"/>
		</g>
		<g>
			<path d="M242.1,502C242.1,502,242.1,502,242.1,502l-35.1-0.4c-1.1,0-2-0.6-2.4-1.4c-0.5-0.8-0.4-1.8,0.2-2.8l3.4-5.8
				c0.8-1.3,2.6-2.7,4.3-2.7h24.1c1.7,0,3.5,1.3,4.3,2.6l3.5,5.9c0.6,0.9,0.6,2.1,0.1,3C244,501.3,243.1,502,242.1,502z
				 M206.9,498.4l0.1,1.5L206.9,498.4C206.9,498.4,206.9,498.4,206.9,498.4z M207.6,498.4l33.9,0.2l-3.2-5.4
				c-0.4-0.6-1.3-1.2-1.7-1.2h-24.1c-0.5,0-1.4,0.6-1.7,1.2L207.6,498.4z"/>
		</g>
	</g>
	<g>
		<rect x="218.4" y="486.7" width="12" height="4.2"/>
	</g>
	<g>
		<path d="M235.1,482.7h-21.3c-0.7,0-1.2-0.5-1.2-1.2v-14.1c0-0.7,0.5-1.2,1.2-1.2h21.3c0.7,0,1.2,0.5,1.2,1.2v14.1
			C236.3,482.1,235.8,482.7,235.1,482.7z"/>
	</g>
</g>
<g>
	<g>
		<path class="st4" d="M362.8,325.7h-22.7c-2.8,0-5.1-2.3-5.1-5.1v-14.4c0-2.8,2.3-5.1,5.1-5.1h22.7c2.8,0,5.1,2.3,5.1,5.1v14.4
			C367.8,323.4,365.6,325.7,362.8,325.7z"/>
		<path d="M362.8,327.2h-22.7c-3.6,0-6.6-2.9-6.6-6.6v-14.4c0-3.6,2.9-6.6,6.6-6.6h22.7c3.6,0,6.6,2.9,6.6,6.6v14.4
			C369.3,324.3,366.4,327.2,362.8,327.2z M340.1,302.7c-2,0-3.6,1.6-3.6,3.6v14.4c0,2,1.6,3.6,3.6,3.6h22.7c2,0,3.6-1.6,3.6-3.6
			v-14.4c0-2-1.6-3.6-3.6-3.6H340.1z"/>
	</g>
	<g>
		<g>
			<path class="st4" d="M333.9,338.9c-1.1,0-1.5-0.8-1-1.7l3.4-5.5c0.6-0.9,1.9-1.6,3-1.6h24.1c1.1,0,2.5,0.7,3,1.7l3.5,5.8
				c0.6,0.9,0.1,1.7-1,1.7L333.9,338.9z"/>
		</g>
		<g>
			<path d="M369.1,341C369.1,341,369.1,341,369.1,341l-35.1-0.4c-1.1,0-2-0.6-2.4-1.4c-0.5-0.8-0.4-1.8,0.2-2.8l3.4-5.8
				c0.8-1.3,2.6-2.7,4.3-2.7h24.1c1.7,0,3.5,1.3,4.3,2.6l3.5,5.9c0.6,0.9,0.6,2.1,0.1,3C371,340.3,370.1,341,369.1,341z
				 M333.9,337.4l0.1,1.5L333.9,337.4C333.9,337.4,333.9,337.4,333.9,337.4z M334.6,337.4l33.9,0.2l-3.2-5.4
				c-0.4-0.6-1.3-1.2-1.7-1.2h-24.1c-0.5,0-1.4,0.6-1.7,1.2L334.6,337.4z"/>
		</g>
	</g>
	<g>
		<rect x="345.4" y="325.7" width="12" height="4.2"/>
	</g>
	<g>
		<path d="M362.1,321.7h-21.3c-0.7,0-1.2-0.5-1.2-1.2v-14.1c0-0.7,0.5-1.2,1.2-1.2h21.3c0.7,0,1.2,0.5,1.2,1.2v14.1
			C363.3,321.1,362.8,321.7,362.1,321.7z"/>
	</g>
</g>
<g>
	<g>
		<path class="st4" d="M338.8,505.7h-22.7c-2.8,0-5.1-2.3-5.1-5.1v-14.4c0-2.8,2.3-5.1,5.1-5.1h22.7c2.8,0,5.1,2.3,5.1,5.1v14.4
			C343.8,503.4,341.6,505.7,338.8,505.7z"/>
		<path d="M338.8,507.2h-22.7c-3.6,0-6.6-2.9-6.6-6.6v-14.4c0-3.6,2.9-6.6,6.6-6.6h22.7c3.6,0,6.6,2.9,6.6,6.6v14.4
			C345.3,504.3,342.4,507.2,338.8,507.2z M316.1,482.7c-2,0-3.6,1.6-3.6,3.6v14.4c0,2,1.6,3.6,3.6,3.6h22.7c2,0,3.6-1.6,3.6-3.6
			v-14.4c0-2-1.6-3.6-3.6-3.6H316.1z"/>
	</g>
	<g>
		<g>
			<path class="st4" d="M309.9,518.9c-1.1,0-1.5-0.8-1-1.7l3.4-5.5c0.6-0.9,1.9-1.6,3-1.6h24.1c1.1,0,2.5,0.7,3,1.7l3.5,5.8
				c0.6,0.9,0.1,1.7-1,1.7L309.9,518.9z"/>
		</g>
		<g>
			<path d="M345.1,521C345.1,521,345.1,521,345.1,521l-35.1-0.4c-1.1,0-2-0.6-2.4-1.4c-0.5-0.8-0.4-1.8,0.2-2.8l3.4-5.8
				c0.8-1.3,2.6-2.7,4.3-2.7h24.1c1.7,0,3.5,1.3,4.3,2.6l3.5,5.9c0.6,0.9,0.6,2.1,0.1,3C347,520.3,346.1,521,345.1,521z
				 M309.9,517.4l0.1,1.5L309.9,517.4C309.9,517.4,309.9,517.4,309.9,517.4z M310.6,517.4l33.9,0.2l-3.2-5.4
				c-0.4-0.6-1.3-1.2-1.7-1.2h-24.1c-0.5,0-1.4,0.6-1.7,1.2L310.6,517.4z"/>
		</g>
	</g>
	<g>
		<rect x="321.4" y="505.7" width="12" height="4.2"/>
	</g>
	<g>
		<path d="M338.1,501.7h-21.3c-0.7,0-1.2-0.5-1.2-1.2v-14.1c0-0.7,0.5-1.2,1.2-1.2h21.3c0.7,0,1.2,0.5,1.2,1.2v14.1
			C339.3,501.1,338.8,501.7,338.1,501.7z"/>
	</g>
</g>
<g>
	<g>
		<path class="st4" d="M436.8,524.7h-22.7c-2.8,0-5.1-2.3-5.1-5.1v-14.4c0-2.8,2.3-5.1,5.1-5.1h22.7c2.8,0,5.1,2.3,5.1,5.1v14.4
			C441.8,522.4,439.6,524.7,436.8,524.7z"/>
		<path d="M436.8,526.2h-22.7c-3.6,0-6.6-2.9-6.6-6.6v-14.4c0-3.6,2.9-6.6,6.6-6.6h22.7c3.6,0,6.6,2.9,6.6,6.6v14.4
			C443.3,523.3,440.4,526.2,436.8,526.2z M414.1,501.7c-2,0-3.6,1.6-3.6,3.6v14.4c0,2,1.6,3.6,3.6,3.6h22.7c2,0,3.6-1.6,3.6-3.6
			v-14.4c0-2-1.6-3.6-3.6-3.6H414.1z"/>
	</g>
	<g>
		<g>
			<path class="st4" d="M407.9,537.9c-1.1,0-1.5-0.8-1-1.7l3.4-5.5c0.6-0.9,1.9-1.6,3-1.6h24.1c1.1,0,2.5,0.7,3,1.7l3.5,5.8
				c0.6,0.9,0.1,1.7-1,1.7L407.9,537.9z"/>
		</g>
		<g>
			<path d="M443.1,540C443.1,540,443.1,540,443.1,540l-35.1-0.4c-1.1,0-2-0.6-2.4-1.4c-0.5-0.8-0.4-1.8,0.2-2.8l3.4-5.8
				c0.8-1.3,2.6-2.7,4.3-2.7h24.1c1.7,0,3.5,1.3,4.3,2.6l3.5,5.9c0.6,0.9,0.6,2.1,0.1,3C445,539.3,444.1,540,443.1,540z
				 M407.9,536.4l0.1,1.5L407.9,536.4C407.9,536.4,407.9,536.4,407.9,536.4z M408.6,536.4l33.9,0.2l-3.2-5.4
				c-0.4-0.6-1.3-1.2-1.7-1.2h-24.1c-0.5,0-1.4,0.6-1.7,1.2L408.6,536.4z"/>
		</g>
	</g>
	<g>
		<rect x="419.4" y="524.7" width="12" height="4.2"/>
	</g>
	<g>
		<path d="M436.1,520.7h-21.3c-0.7,0-1.2-0.5-1.2-1.2v-14.1c0-0.7,0.5-1.2,1.2-1.2h21.3c0.7,0,1.2,0.5,1.2,1.2v14.1
			C437.3,520.1,436.8,520.7,436.1,520.7z"/>
	</g>
</g>
<g>
	<g>
		<path class="st4" d="M482.8,448.7h-22.7c-2.8,0-5.1-2.3-5.1-5.1v-14.4c0-2.8,2.3-5.1,5.1-5.1h22.7c2.8,0,5.1,2.3,5.1,5.1v14.4
			C487.8,446.4,485.6,448.7,482.8,448.7z"/>
		<path d="M482.8,450.2h-22.7c-3.6,0-6.6-2.9-6.6-6.6v-14.4c0-3.6,2.9-6.6,6.6-6.6h22.7c3.6,0,6.6,2.9,6.6,6.6v14.4
			C489.3,447.3,486.4,450.2,482.8,450.2z M460.1,425.7c-2,0-3.6,1.6-3.6,3.6v14.4c0,2,1.6,3.6,3.6,3.6h22.7c2,0,3.6-1.6,3.6-3.6
			v-14.4c0-2-1.6-3.6-3.6-3.6H460.1z"/>
	</g>
	<g>
		<g>
			<path class="st4" d="M453.9,461.9c-1.1,0-1.5-0.8-1-1.7l3.4-5.5c0.6-0.9,1.9-1.6,3-1.6h24.1c1.1,0,2.5,0.7,3,1.7l3.5,5.8
				c0.6,0.9,0.1,1.7-1,1.7L453.9,461.9z"/>
		</g>
		<g>
			<path d="M489.1,464C489.1,464,489.1,464,489.1,464l-35.1-0.4c-1.1,0-2-0.6-2.4-1.4c-0.5-0.8-0.4-1.8,0.2-2.8l3.4-5.8
				c0.8-1.3,2.6-2.7,4.3-2.7h24.1c1.7,0,3.5,1.3,4.3,2.6l3.5,5.9c0.6,0.9,0.6,2.1,0.1,3C491,463.3,490.1,464,489.1,464z
				 M453.9,460.4l0.1,1.5L453.9,460.4C453.9,460.4,453.9,460.4,453.9,460.4z M454.6,460.4l33.9,0.2l-3.2-5.4
				c-0.4-0.6-1.3-1.2-1.7-1.2h-24.1c-0.5,0-1.4,0.6-1.7,1.2L454.6,460.4z"/>
		</g>
	</g>
	<g>
		<rect x="465.4" y="448.7" width="12" height="4.2"/>
	</g>
	<g>
		<path d="M482.1,444.7h-21.3c-0.7,0-1.2-0.5-1.2-1.2v-14.1c0-0.7,0.5-1.2,1.2-1.2h21.3c0.7,0,1.2,0.5,1.2,1.2v14.1
			C483.3,444.1,482.8,444.7,482.1,444.7z"/>
	</g>
</g>
<g>
	<g>
		<path class="st4" d="M156.8,398.7h-22.7c-2.8,0-5.1-2.3-5.1-5.1v-14.4c0-2.8,2.3-5.1,5.1-5.1h22.7c2.8,0,5.1,2.3,5.1,5.1v14.4
			C161.8,396.4,159.6,398.7,156.8,398.7z"/>
		<path d="M156.8,400.2h-22.7c-3.6,0-6.6-2.9-6.6-6.6v-14.4c0-3.6,2.9-6.6,6.6-6.6h22.7c3.6,0,6.6,2.9,6.6,6.6v14.4
			C163.3,397.3,160.4,400.2,156.8,400.2z M134.1,375.7c-2,0-3.6,1.6-3.6,3.6v14.4c0,2,1.6,3.6,3.6,3.6h22.7c2,0,3.6-1.6,3.6-3.6
			v-14.4c0-2-1.6-3.6-3.6-3.6H134.1z"/>
	</g>
	<g>
		<g>
			<path class="st4" d="M127.9,411.9c-1.1,0-1.5-0.8-1-1.7l3.4-5.5c0.6-0.9,1.9-1.6,3-1.6h24.1c1.1,0,2.5,0.7,3,1.7l3.5,5.8
				c0.6,0.9,0.1,1.7-1,1.7L127.9,411.9z"/>
		</g>
		<g>
			<path d="M163.1,414C163.1,414,163.1,414,163.1,414l-35.1-0.4c-1.1,0-2-0.6-2.4-1.4c-0.5-0.8-0.4-1.8,0.2-2.8l3.4-5.8
				c0.8-1.3,2.6-2.7,4.3-2.7h24.1c1.7,0,3.5,1.3,4.3,2.6l3.5,5.9c0.6,0.9,0.6,2.1,0.1,3C165,413.3,164.1,414,163.1,414z
				 M127.9,410.4l0.1,1.5L127.9,410.4C127.9,410.4,127.9,410.4,127.9,410.4z M128.6,410.4l33.9,0.2l-3.2-5.4
				c-0.4-0.6-1.3-1.2-1.7-1.2h-24.1c-0.5,0-1.4,0.6-1.7,1.2L128.6,410.4z"/>
		</g>
	</g>
	<g>
		<rect x="139.4" y="398.7" width="12" height="4.2"/>
	</g>
	<g>
		<path d="M156.1,394.7h-21.3c-0.7,0-1.2-0.5-1.2-1.2v-14.1c0-0.7,0.5-1.2,1.2-1.2h21.3c0.7,0,1.2,0.5,1.2,1.2v14.1
			C157.3,394.1,156.8,394.7,156.1,394.7z"/>
	</g>
</g>
<g>
	<g>
		<path class="st4" d="M69.8,450.7H47.1c-2.8,0-5.1-2.3-5.1-5.1v-14.4c0-2.8,2.3-5.1,5.1-5.1h22.7c2.8,0,5.1,2.3,5.1,5.1v14.4
			C74.8,448.4,72.6,450.7,69.8,450.7z"/>
		<path d="M69.8,452.2H47.1c-3.6,0-6.6-2.9-6.6-6.6v-14.4c0-3.6,2.9-6.6,6.6-6.6h22.7c3.6,0,6.6,2.9,6.6,6.6v14.4
			C76.3,449.3,73.4,452.2,69.8,452.2z M47.1,427.7c-2,0-3.6,1.6-3.6,3.6v14.4c0,2,1.6,3.6,3.6,3.6h22.7c2,0,3.6-1.6,3.6-3.6v-14.4
			c0-2-1.6-3.6-3.6-3.6H47.1z"/>
	</g>
	<g>
		<g>
			<path class="st4" d="M40.9,463.9c-1.1,0-1.5-0.8-1-1.7l3.4-5.5c0.6-0.9,1.9-1.6,3-1.6h24.1c1.1,0,2.5,0.7,3,1.7l3.5,5.8
				c0.6,0.9,0.1,1.7-1,1.7L40.9,463.9z"/>
		</g>
		<g>
			<path d="M76.1,466C76.1,466,76.1,466,76.1,466l-35.1-0.4c-1.1,0-2-0.6-2.4-1.4c-0.5-0.8-0.4-1.8,0.2-2.8l3.4-5.8
				c0.8-1.3,2.6-2.7,4.3-2.7h24.1c1.7,0,3.5,1.3,4.3,2.6l3.5,5.9c0.6,0.9,0.6,2.1,0.1,3C78,465.3,77.1,466,76.1,466z M40.9,462.4
				l0.1,1.5L40.9,462.4C40.9,462.4,40.9,462.4,40.9,462.4z M41.6,462.4l33.9,0.2l-3.2-5.4c-0.4-0.6-1.3-1.2-1.7-1.2H46.4
				c-0.5,0-1.4,0.6-1.7,1.2L41.6,462.4z"/>
		</g>
	</g>
	<g>
		<rect x="52.4" y="450.7" width="12" height="4.2"/>
	</g>
	<g>
		<path d="M69.1,446.7H47.8c-0.7,0-1.2-0.5-1.2-1.2v-14.1c0-0.7,0.5-1.2,1.2-1.2h21.3c0.7,0,1.2,0.5,1.2,1.2v14.1
			C70.3,446.1,69.8,446.7,69.1,446.7z"/>
	</g>
</g>
<g>
	<g>
		<path class="st4" d="M105.8,534.7H83.1c-2.8,0-5.1-2.3-5.1-5.1v-14.4c0-2.8,2.3-5.1,5.1-5.1h22.7c2.8,0,5.1,2.3,5.1,5.1v14.4
			C110.8,532.4,108.6,534.7,105.8,534.7z"/>
		<path d="M105.8,536.2H83.1c-3.6,0-6.6-2.9-6.6-6.6v-14.4c0-3.6,2.9-6.6,6.6-6.6h22.7c3.6,0,6.6,2.9,6.6,6.6v14.4
			C112.3,533.3,109.4,536.2,105.8,536.2z M83.1,511.7c-2,0-3.6,1.6-3.6,3.6v14.4c0,2,1.6,3.6,3.6,3.6h22.7c2,0,3.6-1.6,3.6-3.6
			v-14.4c0-2-1.6-3.6-3.6-3.6H83.1z"/>
	</g>
	<g>
		<g>
			<path class="st4" d="M76.9,547.9c-1.1,0-1.5-0.8-1-1.7l3.4-5.5c0.6-0.9,1.9-1.6,3-1.6h24.1c1.1,0,2.5,0.7,3,1.7l3.5,5.8
				c0.6,0.9,0.1,1.7-1,1.7L76.9,547.9z"/>
		</g>
		<g>
			<path d="M112.1,550C112.1,550,112.1,550,112.1,550l-35.1-0.4c-1.1,0-2-0.6-2.4-1.4c-0.5-0.8-0.4-1.8,0.2-2.8l3.4-5.8
				c0.8-1.3,2.6-2.7,4.3-2.7h24.1c1.7,0,3.5,1.3,4.3,2.6l3.5,5.9c0.6,0.9,0.6,2.1,0.1,3C114,549.3,113.1,550,112.1,550z M76.9,546.4
				l0.1,1.5L76.9,546.4C76.9,546.4,76.9,546.4,76.9,546.4z M77.6,546.4l33.9,0.2l-3.2-5.4c-0.4-0.6-1.3-1.2-1.7-1.2H82.4
				c-0.5,0-1.4,0.6-1.7,1.2L77.6,546.4z"/>
		</g>
	</g>
	<g>
		<rect x="88.4" y="534.7" width="12" height="4.2"/>
	</g>
	<g>
		<path d="M105.1,530.7H83.8c-0.7,0-1.2-0.5-1.2-1.2v-14.1c0-0.7,0.5-1.2,1.2-1.2h21.3c0.7,0,1.2,0.5,1.2,1.2v14.1
			C106.3,530.1,105.8,530.7,105.1,530.7z"/>
	</g>
</g>
<g>
	<g>
		<path class="st0" d="M305.7,160.1c-1,0-1.8,0.4-2.4,1.1c-0.6,0.7-0.9,1.7-0.9,3c0,1.3,0.3,2.3,0.8,3c0.6,0.7,1.4,1,2.4,1
			c0.5,0,0.9,0,1.3-0.1c0.4-0.1,0.9-0.2,1.3-0.4v1.5c-0.8,0.3-1.8,0.5-2.9,0.5c-1.6,0-2.8-0.5-3.6-1.4c-0.8-1-1.3-2.3-1.3-4.1
			c0-1.1,0.2-2.1,0.6-2.9s1-1.5,1.8-1.9c0.8-0.4,1.7-0.7,2.7-0.7c1.1,0,2.1,0.2,3.1,0.7l-0.6,1.5c-0.4-0.2-0.8-0.3-1.2-0.5
			C306.6,160.2,306.2,160.1,305.7,160.1z"/>
	</g>
	<g>
		<path class="st0" d="M317.8,165.5c0,1.3-0.3,2.4-1,3.1c-0.7,0.7-1.6,1.1-2.9,1.1c-0.8,0-1.4-0.2-2-0.5s-1-0.8-1.4-1.5
			c-0.3-0.6-0.5-1.4-0.5-2.2c0-1.3,0.3-2.4,1-3.1c0.7-0.7,1.6-1.1,2.9-1.1c1.2,0,2.1,0.4,2.8,1.1
			C317.4,163.2,317.8,164.2,317.8,165.5z M311.8,165.5c0,1.9,0.7,2.8,2.1,2.8c1.4,0,2.1-0.9,2.1-2.8c0-1.9-0.7-2.8-2.1-2.8
			c-0.7,0-1.3,0.2-1.6,0.7C312,163.9,311.8,164.6,311.8,165.5z"/>
	</g>
	<g>
		<path class="st0" d="M321.5,169.6h-1.7v-11.5h1.7V169.6z"/>
	</g>
	<g>
		<path class="st0" d="M325.7,169.6H324v-11.5h1.7V169.6z"/>
	</g>
	<g>
		<path class="st0" d="M328.1,159.2c0-0.3,0.1-0.5,0.3-0.7c0.2-0.2,0.4-0.3,0.7-0.3c0.3,0,0.5,0.1,0.7,0.3c0.2,0.2,0.3,0.4,0.3,0.7
			c0,0.3-0.1,0.5-0.3,0.7c-0.2,0.2-0.4,0.3-0.7,0.3c-0.3,0-0.6-0.1-0.7-0.3C328.2,159.8,328.1,159.5,328.1,159.2z M329.9,169.6h-1.7
			v-8.2h1.7V169.6z"/>
	</g>
	<g>
		<path class="st0" d="M337.9,167.2c0,0.8-0.3,1.4-0.9,1.8s-1.4,0.6-2.5,0.6c-1.1,0-2-0.2-2.6-0.5v-1.5c1,0.4,1.9,0.7,2.7,0.7
			c1.1,0,1.6-0.3,1.6-1c0-0.2-0.1-0.4-0.2-0.5s-0.3-0.3-0.6-0.4c-0.3-0.1-0.6-0.3-1.1-0.5c-0.9-0.4-1.6-0.7-1.9-1.1
			c-0.3-0.4-0.5-0.8-0.5-1.4c0-0.7,0.3-1.2,0.8-1.6c0.6-0.4,1.3-0.6,2.3-0.6c1,0,1.9,0.2,2.7,0.6l-0.6,1.3c-0.9-0.4-1.6-0.5-2.2-0.5
			c-0.9,0-1.4,0.3-1.4,0.8c0,0.3,0.1,0.5,0.4,0.6c0.2,0.2,0.8,0.4,1.6,0.7c0.7,0.3,1.2,0.5,1.5,0.7c0.3,0.2,0.5,0.5,0.7,0.7
			C337.8,166.5,337.9,166.8,337.9,167.2z"/>
	</g>
	<g>
		<path class="st0" d="M339.7,159.2c0-0.3,0.1-0.5,0.3-0.7c0.2-0.2,0.4-0.3,0.7-0.3c0.3,0,0.5,0.1,0.7,0.3c0.2,0.2,0.3,0.4,0.3,0.7
			c0,0.3-0.1,0.5-0.3,0.7c-0.2,0.2-0.4,0.3-0.7,0.3c-0.3,0-0.6-0.1-0.7-0.3C339.7,159.8,339.7,159.5,339.7,159.2z M341.5,169.6h-1.7
			v-8.2h1.7V169.6z"/>
	</g>
	<g>
		<path class="st0" d="M351.2,165.5c0,1.3-0.3,2.4-1,3.1c-0.7,0.7-1.6,1.1-2.9,1.1c-0.8,0-1.4-0.2-2-0.5s-1-0.8-1.4-1.5
			c-0.3-0.6-0.5-1.4-0.5-2.2c0-1.3,0.3-2.4,1-3.1c0.7-0.7,1.6-1.1,2.9-1.1c1.2,0,2.1,0.4,2.8,1.1
			C350.9,163.2,351.2,164.2,351.2,165.5z M345.3,165.5c0,1.9,0.7,2.8,2.1,2.8c1.4,0,2.1-0.9,2.1-2.8c0-1.9-0.7-2.8-2.1-2.8
			c-0.7,0-1.3,0.2-1.6,0.7C345.4,163.9,345.3,164.6,345.3,165.5z"/>
	</g>
	<g>
		<path class="st0" d="M360.4,169.6h-1.7v-5c0-0.6-0.1-1.1-0.4-1.4c-0.3-0.3-0.7-0.5-1.2-0.5c-0.7,0-1.3,0.2-1.6,0.6
			c-0.3,0.4-0.5,1.2-0.5,2.2v4.1h-1.7v-8.2h1.4l0.2,1.1h0.1c0.2-0.4,0.6-0.7,1-0.9c0.5-0.2,1-0.3,1.5-0.3c2,0,2.9,1,2.9,3V169.6z"/>
	</g>
	<g>
		<path class="st0" d="M375.7,164.1c0,1.8-0.5,3.1-1.5,4.1c-1,0.9-2.4,1.4-4.3,1.4h-3v-10.8h3.3c1.7,0,3.1,0.5,4,1.4
			S375.7,162.4,375.7,164.1z M373.9,164.1c0-2.6-1.2-3.9-3.6-3.9h-1.5v7.8h1.3C372.6,168.1,373.9,166.8,373.9,164.1z"/>
	</g>
	<g>
		<path class="st0" d="M385.1,165.5c0,1.3-0.3,2.4-1,3.1c-0.7,0.7-1.6,1.1-2.9,1.1c-0.8,0-1.4-0.2-2-0.5s-1-0.8-1.4-1.5
			c-0.3-0.6-0.5-1.4-0.5-2.2c0-1.3,0.3-2.4,1-3.1c0.7-0.7,1.6-1.1,2.9-1.1c1.2,0,2.1,0.4,2.8,1.1
			C384.8,163.2,385.1,164.2,385.1,165.5z M379.1,165.5c0,1.9,0.7,2.8,2.1,2.8c1.4,0,2.1-0.9,2.1-2.8c0-1.9-0.7-2.8-2.1-2.8
			c-0.7,0-1.3,0.2-1.6,0.7C379.3,163.9,379.1,164.6,379.1,165.5z"/>
	</g>
	<g>
		<path class="st0" d="M394,169.6h-1.7v-5c0-0.6-0.1-1.1-0.4-1.4s-0.6-0.5-1.1-0.5c-0.7,0-1.2,0.2-1.5,0.7s-0.5,1.2-0.5,2.2v4.1
			h-1.7v-8.2h1.4l0.2,1.1h0.1c0.2-0.4,0.6-0.7,1-0.9c0.4-0.2,0.9-0.3,1.4-0.3c1.3,0,2.1,0.4,2.5,1.3h0.1c0.2-0.4,0.6-0.7,1-0.9
			c0.4-0.2,0.9-0.3,1.5-0.3c1,0,1.7,0.2,2.1,0.7s0.7,1.2,0.7,2.3v5.3h-1.7v-5c0-0.6-0.1-1.1-0.4-1.4c-0.2-0.3-0.6-0.5-1.1-0.5
			c-0.7,0-1.2,0.2-1.5,0.6c-0.3,0.4-0.5,1.1-0.5,1.9V169.6z"/>
	</g>
	<g>
		<path class="st0" d="M406.7,169.6l-0.3-1.1h-0.1c-0.4,0.5-0.8,0.8-1.2,1c-0.4,0.2-0.9,0.3-1.5,0.3c-0.8,0-1.4-0.2-1.9-0.6
			c-0.5-0.4-0.7-1-0.7-1.8c0-0.8,0.3-1.5,0.9-1.9s1.6-0.7,2.9-0.7l1.4,0v-0.4c0-0.5-0.1-0.9-0.4-1.2c-0.2-0.3-0.6-0.4-1.1-0.4
			c-0.4,0-0.8,0.1-1.2,0.2c-0.4,0.1-0.8,0.3-1.1,0.4l-0.6-1.2c0.4-0.2,0.9-0.4,1.5-0.5c0.5-0.1,1-0.2,1.5-0.2c1,0,1.8,0.2,2.4,0.7
			s0.8,1.2,0.8,2.1v5.5H406.7z M404.1,168.4c0.6,0,1.1-0.2,1.5-0.5s0.6-0.8,0.6-1.5v-0.7l-1,0c-0.8,0-1.4,0.2-1.8,0.4
			c-0.4,0.2-0.6,0.6-0.6,1.1c0,0.4,0.1,0.6,0.3,0.8C403.3,168.3,403.6,168.4,404.1,168.4z"/>
	</g>
	<g>
		<path class="st0" d="M410.2,159.2c0-0.3,0.1-0.5,0.3-0.7c0.2-0.2,0.4-0.3,0.7-0.3c0.3,0,0.5,0.1,0.7,0.3c0.2,0.2,0.3,0.4,0.3,0.7
			c0,0.3-0.1,0.5-0.3,0.7c-0.2,0.2-0.4,0.3-0.7,0.3c-0.3,0-0.6-0.1-0.7-0.3C410.3,159.8,410.2,159.5,410.2,159.2z M412.1,169.6h-1.7
			v-8.2h1.7V169.6z"/>
	</g>
	<g>
		<path class="st0" d="M421.7,169.6H420v-5c0-0.6-0.1-1.1-0.4-1.4c-0.3-0.3-0.7-0.5-1.2-0.5c-0.7,0-1.3,0.2-1.6,0.6
			c-0.3,0.4-0.5,1.2-0.5,2.2v4.1h-1.7v-8.2h1.4l0.2,1.1h0.1c0.2-0.4,0.6-0.7,1-0.9c0.5-0.2,1-0.3,1.5-0.3c2,0,2.9,1,2.9,3V169.6z"/>
	</g>
</g>
</svg>
