<?xml version="1.0" encoding="utf-8"?>
<!-- Generator: Adobe Illustrator 19.2.0, SVG Export Plug-In . SVG Version: 6.00 Build 0)  -->
<svg version="1.1" id="Layer_1" xmlns="http://www.w3.org/2000/svg" xmlns:xlink="http://www.w3.org/1999/xlink" x="0px" y="0px"
	 viewBox="0 0 600 375" style="enable-background:new 0 0 600 375;" xml:space="preserve">
<style type="text/css">
	.st0{fill:#FFFFFF;stroke:#000000;stroke-width:3;stroke-miterlimit:10;}
	.st1{fill:#FFFFFF;stroke:#000000;stroke-width:2;stroke-miterlimit:10;}
	.st2{fill:#FFFFFF;}
	.st3{fill:#FF1732;}
	.st4{fill:none;stroke:#FF1732;stroke-width:3;stroke-miterlimit:10;}
</style>
<path class="st0" d="M515.4,321.5H84.6c-21.5,0-39-17.5-39-39v-227c0-21.5,17.5-39,39-39h430.8c21.5,0,39,17.5,39,39v227
	C554.4,304,537,321.5,515.4,321.5z"/>
<g>
	<path d="M287.2,181.1h-4.3v-11.8h-12.1v11.8h-4.3v-26.3h4.3v10.7h12.1v-10.7h4.3V181.1z"/>
	<path d="M307.7,181.1l-0.6-2.6h-0.2c-0.6,0.9-1.4,1.6-2.5,2.2c-1.1,0.5-2.3,0.8-3.7,0.8c-2.4,0-4.2-0.6-5.4-1.8
		c-1.2-1.2-1.8-3-1.8-5.4v-13h4.3v12.2c0,1.5,0.3,2.7,0.9,3.4c0.6,0.8,1.6,1.1,2.9,1.1c1.8,0,3.1-0.5,3.9-1.6
		c0.8-1.1,1.2-2.8,1.2-5.3v-9.9h4.2v19.9H307.7z"/>
	<path d="M327.2,160.8c2.5,0,4.4,0.9,5.8,2.7c1.4,1.8,2.1,4.3,2.1,7.6c0,3.3-0.7,5.8-2.1,7.6s-3.3,2.7-5.8,2.7
		c-2.5,0-4.5-0.9-5.9-2.7H321l-0.8,2.4H317v-27.9h4.2v6.6c0,0.5,0,1.2-0.1,2.2c0,1-0.1,1.6-0.1,1.9h0.2
		C322.6,161.8,324.6,160.8,327.2,160.8z M326.1,164.3c-1.7,0-2.9,0.5-3.7,1.5c-0.7,1-1.1,2.7-1.2,5v0.3c0,2.4,0.4,4.2,1.1,5.3
		c0.8,1.1,2,1.6,3.8,1.6c1.5,0,2.6-0.6,3.4-1.8c0.8-1.2,1.2-2.9,1.2-5.1C330.7,166.6,329.2,164.3,326.1,164.3z"/>
</g>
<path class="st1" d="M176.8,290h-65.3c-6.1,0-11-4.9-11-11v-28c0-6.1,4.9-11,11-11h65.3c6.1,0,11,4.9,11,11v28
	C187.8,285.1,182.9,290,176.8,290z"/>
<g>
	<path d="M128.4,262.1c0,1.3-0.4,2.4-1.3,3.1s-2.1,1.1-3.8,1.1H122v4.8h-2.1v-12.8h3.7c1.6,0,2.8,0.3,3.6,1S128.4,260.8,128.4,262.1
		z M122,264.5h1.1c1.1,0,1.9-0.2,2.4-0.6s0.8-1,0.8-1.8c0-0.7-0.2-1.3-0.7-1.7s-1.2-0.5-2.1-0.5H122V264.5z"/>
	<path d="M139.4,266.2c0,1.6-0.4,2.8-1.2,3.7s-1.9,1.3-3.4,1.3c-0.9,0-1.7-0.2-2.4-0.6s-1.2-1-1.6-1.8s-0.6-1.7-0.6-2.7
		c0-1.6,0.4-2.8,1.2-3.7s1.9-1.3,3.4-1.3c1.4,0,2.5,0.5,3.3,1.4S139.4,264.6,139.4,266.2z M132.3,266.2c0,2.2,0.8,3.4,2.5,3.4
		c1.6,0,2.5-1.1,2.5-3.4c0-2.2-0.8-3.3-2.5-3.3c-0.9,0-1.5,0.3-1.9,0.9S132.3,265.1,132.3,266.2z"/>
	<path d="M146.7,261.1c0.4,0,0.8,0,1,0.1l-0.2,1.9c-0.3-0.1-0.6-0.1-0.9-0.1c-0.8,0-1.5,0.3-2,0.8s-0.8,1.2-0.8,2.1v5.1h-2.1v-9.7
		h1.6l0.3,1.7h0.1c0.3-0.6,0.7-1,1.3-1.4S146.1,261.1,146.7,261.1z"/>
	<path d="M153.2,269.5c0.5,0,1-0.1,1.5-0.2v1.6c-0.2,0.1-0.5,0.2-0.9,0.3s-0.7,0.1-1.1,0.1c-2,0-2.9-1-2.9-3.1v-5.2h-1.3V262
		l1.4-0.8l0.7-2.1h1.3v2.2h2.8v1.6h-2.8v5.2c0,0.5,0.1,0.9,0.4,1.1S152.8,269.5,153.2,269.5z"/>
	<path d="M169.8,268.2H168v2.8h-2v-2.8h-5.9v-1.6l5.9-8.5h2v8.4h1.7V268.2z M166,266.5v-3.2c0-1.1,0-2.1,0.1-2.8h-0.1
		c-0.2,0.4-0.4,0.9-0.8,1.4l-3.2,4.6H166z"/>
</g>
<path class="st1" d="M332.7,290h-65.3c-6.1,0-11-4.9-11-11v-28c0-6.1,4.9-11,11-11h65.3c6.1,0,11,4.9,11,11v28
	C343.7,285.1,338.7,290,332.7,290z"/>
<g>
	<path d="M284.3,262.1c0,1.3-0.4,2.4-1.3,3.1s-2.1,1.1-3.8,1.1h-1.3v4.8h-2.1v-12.8h3.7c1.6,0,2.8,0.3,3.6,1
		S284.3,260.8,284.3,262.1z M277.9,264.5h1.1c1.1,0,1.9-0.2,2.4-0.6s0.8-1,0.8-1.8c0-0.7-0.2-1.3-0.7-1.7s-1.2-0.5-2.1-0.5h-1.5
		V264.5z"/>
	<path d="M295.2,266.2c0,1.6-0.4,2.8-1.2,3.7s-1.9,1.3-3.4,1.3c-0.9,0-1.7-0.2-2.4-0.6s-1.2-1-1.6-1.8s-0.6-1.7-0.6-2.7
		c0-1.6,0.4-2.8,1.2-3.7s1.9-1.3,3.4-1.3c1.4,0,2.5,0.5,3.3,1.4S295.2,264.6,295.2,266.2z M288.2,266.2c0,2.2,0.8,3.4,2.5,3.4
		c1.6,0,2.5-1.1,2.5-3.4c0-2.2-0.8-3.3-2.5-3.3c-0.9,0-1.5,0.3-1.9,0.9S288.2,265.1,288.2,266.2z"/>
	<path d="M302.5,261.1c0.4,0,0.8,0,1,0.1l-0.2,1.9c-0.3-0.1-0.6-0.1-0.9-0.1c-0.8,0-1.5,0.3-2,0.8s-0.8,1.2-0.8,2.1v5.1h-2.1v-9.7
		h1.6l0.3,1.7h0.1c0.3-0.6,0.7-1,1.3-1.4C301.4,261.3,302,261.1,302.5,261.1z"/>
	<path d="M309,269.5c0.5,0,1-0.1,1.5-0.2v1.6c-0.2,0.1-0.5,0.2-0.9,0.3s-0.7,0.1-1.1,0.1c-2,0-2.9-1-2.9-3.1v-5.2h-1.3V262l1.4-0.8
		l0.7-2.1h1.3v2.2h2.8v1.6h-2.8v5.2c0,0.5,0.1,0.9,0.4,1.1S308.6,269.5,309,269.5z"/>
	<path d="M320.8,263c1.3,0,2.3,0.3,3.1,1s1.1,1.6,1.1,2.8c0,1.4-0.4,2.4-1.3,3.2s-2.1,1.2-3.7,1.2c-1.4,0-2.6-0.2-3.4-0.7v-1.9
		c0.5,0.3,1,0.5,1.6,0.6s1.2,0.2,1.7,0.2c0.9,0,1.6-0.2,2.1-0.6s0.7-1,0.7-1.8c0-1.5-1-2.3-2.9-2.3c-0.3,0-0.6,0-1,0.1
		s-0.8,0.1-1.1,0.2l-0.9-0.5l0.5-6.3h6.7v1.8h-4.9l-0.3,3.2c0.2,0,0.5-0.1,0.8-0.1S320.4,263,320.8,263z"/>
</g>
<path class="st1" d="M176.8,98h-65.3c-6.1,0-11-4.9-11-11V59c0-6.1,4.9-11,11-11h65.3c6.1,0,11,4.9,11,11v28
	C187.8,93.1,182.9,98,176.8,98z"/>
<g>
	<path d="M128.4,70c0,1.3-0.4,2.4-1.3,3.1s-2.1,1.1-3.8,1.1H122V79h-2.1V66.2h3.7c1.6,0,2.8,0.3,3.6,1S128.4,68.8,128.4,70z
		 M122,72.4h1.1c1.1,0,1.9-0.2,2.4-0.6s0.8-1,0.8-1.8c0-0.7-0.2-1.3-0.7-1.7s-1.2-0.5-2.1-0.5H122V72.4z"/>
	<path d="M139.4,74.1c0,1.6-0.4,2.8-1.2,3.7s-1.9,1.3-3.4,1.3c-0.9,0-1.7-0.2-2.4-0.6s-1.2-1-1.6-1.8s-0.6-1.7-0.6-2.7
		c0-1.6,0.4-2.8,1.2-3.7s1.9-1.3,3.4-1.3c1.4,0,2.5,0.5,3.3,1.4S139.4,72.6,139.4,74.1z M132.3,74.1c0,2.2,0.8,3.4,2.5,3.4
		c1.6,0,2.5-1.1,2.5-3.4c0-2.2-0.8-3.3-2.5-3.3c-0.9,0-1.5,0.3-1.9,0.9S132.3,73.1,132.3,74.1z"/>
	<path d="M146.7,69.1c0.4,0,0.8,0,1,0.1l-0.2,1.9c-0.3-0.1-0.6-0.1-0.9-0.1c-0.8,0-1.5,0.3-2,0.8s-0.8,1.2-0.8,2.1V79h-2.1v-9.7h1.6
		l0.3,1.7h0.1c0.3-0.6,0.7-1,1.3-1.4S146.1,69.1,146.7,69.1z"/>
	<path d="M153.2,77.5c0.5,0,1-0.1,1.5-0.2v1.6c-0.2,0.1-0.5,0.2-0.9,0.3s-0.7,0.1-1.1,0.1c-2,0-2.9-1-2.9-3.1v-5.2h-1.3v-0.9
		l1.4-0.8l0.7-2.1h1.3v2.2h2.8v1.6h-2.8v5.2c0,0.5,0.1,0.9,0.4,1.1S152.8,77.5,153.2,77.5z"/>
	<path d="M166.7,79h-2.1v-8.3c0-1,0-1.8,0.1-2.4c-0.1,0.1-0.3,0.3-0.5,0.5s-0.9,0.7-2,1.6l-1-1.3l3.8-3h1.7V79z"/>
</g>
<path class="st1" d="M332.7,98h-65.3c-6.1,0-11-4.9-11-11V59c0-6.1,4.9-11,11-11h65.3c6.1,0,11,4.9,11,11v28
	C343.7,93.1,338.7,98,332.7,98z"/>
<g>
	<path d="M284.3,70c0,1.3-0.4,2.4-1.3,3.1s-2.1,1.1-3.8,1.1h-1.3V79h-2.1V66.2h3.7c1.6,0,2.8,0.3,3.6,1S284.3,68.8,284.3,70z
		 M277.9,72.4h1.1c1.1,0,1.9-0.2,2.4-0.6s0.8-1,0.8-1.8c0-0.7-0.2-1.3-0.7-1.7s-1.2-0.5-2.1-0.5h-1.5V72.4z"/>
	<path d="M295.2,74.1c0,1.6-0.4,2.8-1.2,3.7s-1.9,1.3-3.4,1.3c-0.9,0-1.7-0.2-2.4-0.6s-1.2-1-1.6-1.8s-0.6-1.7-0.6-2.7
		c0-1.6,0.4-2.8,1.2-3.7s1.9-1.3,3.4-1.3c1.4,0,2.5,0.5,3.3,1.4S295.2,72.6,295.2,74.1z M288.2,74.1c0,2.2,0.8,3.4,2.5,3.4
		c1.6,0,2.5-1.1,2.5-3.4c0-2.2-0.8-3.3-2.5-3.3c-0.9,0-1.5,0.3-1.9,0.9S288.2,73.1,288.2,74.1z"/>
	<path d="M302.5,69.1c0.4,0,0.8,0,1,0.1l-0.2,1.9c-0.3-0.1-0.6-0.1-0.9-0.1c-0.8,0-1.5,0.3-2,0.8s-0.8,1.2-0.8,2.1V79h-2.1v-9.7h1.6
		l0.3,1.7h0.1c0.3-0.6,0.7-1,1.3-1.4C301.4,69.3,302,69.1,302.5,69.1z"/>
	<path d="M309,77.5c0.5,0,1-0.1,1.5-0.2v1.6c-0.2,0.1-0.5,0.2-0.9,0.3s-0.7,0.1-1.1,0.1c-2,0-2.9-1-2.9-3.1v-5.2h-1.3v-0.9l1.4-0.8
		l0.7-2.1h1.3v2.2h2.8v1.6h-2.8v5.2c0,0.5,0.1,0.9,0.4,1.1S308.6,77.5,309,77.5z"/>
	<path d="M325.2,79h-8.7v-1.6l3.3-3.3c1-1,1.6-1.7,1.9-2.1s0.6-0.8,0.7-1.2s0.2-0.8,0.2-1.2c0-0.6-0.2-1-0.5-1.4s-0.8-0.5-1.4-0.5
		c-0.5,0-1,0.1-1.4,0.3s-1,0.5-1.6,1l-1.1-1.4c0.7-0.6,1.4-1,2.1-1.3s1.4-0.4,2.2-0.4c1.2,0,2.2,0.3,2.9,0.9s1.1,1.5,1.1,2.5
		c0,0.6-0.1,1.1-0.3,1.7s-0.5,1.1-1,1.6s-1.1,1.3-2.1,2.2l-2.2,2.2v0.1h6.1V79z"/>
</g>
<path class="st1" d="M488.5,98h-65.3c-6.1,0-11-4.9-11-11V59c0-6.1,4.9-11,11-11h65.3c6.1,0,11,4.9,11,11v28
	C499.5,93.1,494.6,98,488.5,98z"/>
<g>
	<path d="M440.1,70c0,1.3-0.4,2.4-1.3,3.1s-2.1,1.1-3.8,1.1h-1.3V79h-2.1V66.2h3.7c1.6,0,2.8,0.3,3.6,1S440.1,68.8,440.1,70z
		 M433.7,72.4h1.1c1.1,0,1.9-0.2,2.4-0.6s0.8-1,0.8-1.8c0-0.7-0.2-1.3-0.7-1.7s-1.2-0.5-2.1-0.5h-1.5V72.4z"/>
	<path d="M451.1,74.1c0,1.6-0.4,2.8-1.2,3.7s-1.9,1.3-3.4,1.3c-0.9,0-1.7-0.2-2.4-0.6s-1.2-1-1.6-1.8s-0.6-1.7-0.6-2.7
		c0-1.6,0.4-2.8,1.2-3.7s1.9-1.3,3.4-1.3c1.4,0,2.5,0.5,3.3,1.4S451.1,72.6,451.1,74.1z M444,74.1c0,2.2,0.8,3.4,2.5,3.4
		c1.6,0,2.5-1.1,2.5-3.4c0-2.2-0.8-3.3-2.5-3.3c-0.9,0-1.5,0.3-1.9,0.9S444,73.1,444,74.1z"/>
	<path d="M458.4,69.1c0.4,0,0.8,0,1,0.1l-0.2,1.9c-0.3-0.1-0.6-0.1-0.9-0.1c-0.8,0-1.5,0.3-2,0.8s-0.8,1.2-0.8,2.1V79h-2.1v-9.7h1.6
		l0.3,1.7h0.1c0.3-0.6,0.7-1,1.3-1.4S457.8,69.1,458.4,69.1z"/>
	<path d="M464.8,77.5c0.5,0,1-0.1,1.5-0.2v1.6c-0.2,0.1-0.5,0.2-0.9,0.3s-0.7,0.1-1.1,0.1c-2,0-2.9-1-2.9-3.1v-5.2h-1.3v-0.9
		l1.4-0.8l0.7-2.1h1.3v2.2h2.8v1.6h-2.8v5.2c0,0.5,0.1,0.9,0.4,1.1S464.4,77.5,464.8,77.5z"/>
	<path d="M480.5,69.1c0,0.8-0.2,1.5-0.7,2s-1.1,0.9-2,1.1v0.1c1,0.1,1.8,0.4,2.3,1s0.8,1.2,0.8,2c0,1.2-0.4,2.2-1.3,2.9
		s-2.1,1-3.7,1c-1.4,0-2.6-0.2-3.6-0.7v-1.8c0.5,0.3,1.1,0.5,1.7,0.6s1.2,0.2,1.8,0.2c1,0,1.7-0.2,2.2-0.6s0.7-0.9,0.7-1.7
		c0-0.7-0.3-1.2-0.8-1.5s-1.4-0.5-2.6-0.5h-1.1v-1.7h1.1c2.1,0,3.1-0.7,3.1-2.1c0-0.6-0.2-1-0.5-1.3s-0.9-0.4-1.6-0.4
		c-0.5,0-1,0.1-1.4,0.2s-1,0.4-1.6,0.8l-1-1.4c1.2-0.9,2.5-1.3,4.1-1.3c1.3,0,2.3,0.3,3,0.8S480.5,68.1,480.5,69.1z"/>
</g>
<g>
	<g>
		
			<rect x="433.8" y="333.3" transform="matrix(1 -4.186438e-003 4.186438e-003 1 -1.4416 1.9107)" class="st2" width="43.8" height="23.9"/>
		<path class="st3" d="M432.2,358.9l-0.1-27.1l47.4-0.1l0.1,27.1L432.2,358.9z M435.6,335.1l0.3,20.4l40.6-0.2l-0.3-20.4
			L435.6,335.1z"/>
	</g>
	<g>
		<polygon class="st3" points="455.7,346.2 433.4,334.4 434.2,332.9 455.6,344.4 477.4,332.5 477.9,334.1 		"/>
	</g>
</g>
<g>
	<line class="st4" x1="456.5" y1="329" x2="456.5" y2="111"/>
	<g>
		<path class="st3" d="M456.5,102.3c1.6,4.3,4.3,9.5,7.1,12.8l-7.1-2.6l-7.1,2.6C452.2,111.9,454.9,106.6,456.5,102.3z"/>
	</g>
</g>
<g>
	<path class="st4" d="M457,253.5c0-31.5-10-47-40-47s-217,0-241,0c-18.9,0-27.8,4.7-30.7,14.5"/>
	<g>
		<path class="st3" d="M144.2,230c-1-4.4-2.9-10.1-5.2-13.7l6.7,3.6l7.4-1.5C149.7,221.2,146.3,226,144.2,230z"/>
	</g>
</g>
<g>
	<path class="st4" d="M334.5,206.5c-24.3,0-31.5,6.9-33.6,14.5"/>
	<g>
		<path class="st3" d="M300,230c-1.1-4.4-3.2-10-5.6-13.6l6.8,3.4l7.4-1.7C305.3,221,302.1,225.9,300,230z"/>
	</g>
</g>
<g>
	<path class="st4" d="M456.5,164.5c0-24.5-6-32-29-32s-240,0-261.5,0c-15.3,0-19.9-8.1-21.2-16"/>
	<g>
		<path class="st3" d="M144.2,107.5c1.9,4.1,5,9.2,8.1,12.2l-7.3-2l-6.9,3.1C140.6,117.3,142.9,111.9,144.2,107.5z"/>
	</g>
</g>
<g>
	<path class="st4" d="M339.3,132.5c-29.1,0-37.3-7.7-39.5-16"/>
	<g>
		<path class="st3" d="M298.9,107.5c2.1,4,5.3,9,8.6,11.9l-7.4-1.7l-6.8,3.4C295.7,117.5,297.8,111.9,298.9,107.5z"/>
	</g>
</g>
<path class="st1" d="M488.5,290h-65.3c-6.1,0-11-4.9-11-11v-28c0-6.1,4.9-11,11-11h65.3c6.1,0,11,4.9,11,11v28
	C499.5,285.1,494.6,290,488.5,290z"/>
<g>
	<path d="M440.1,262.1c0,1.3-0.4,2.4-1.3,3.1s-2.1,1.1-3.8,1.1h-1.3v4.8h-2.1v-12.8h3.7c1.6,0,2.8,0.3,3.6,1
		S440.1,260.8,440.1,262.1z M433.7,264.5h1.1c1.1,0,1.9-0.2,2.4-0.6s0.8-1,0.8-1.8c0-0.7-0.2-1.3-0.7-1.7s-1.2-0.5-2.1-0.5h-1.5
		V264.5z"/>
	<path d="M451.1,266.2c0,1.6-0.4,2.8-1.2,3.7s-1.9,1.3-3.4,1.3c-0.9,0-1.7-0.2-2.4-0.6s-1.2-1-1.6-1.8s-0.6-1.7-0.6-2.7
		c0-1.6,0.4-2.8,1.2-3.7s1.9-1.3,3.4-1.3c1.4,0,2.5,0.5,3.3,1.4S451.1,264.6,451.1,266.2z M444,266.2c0,2.2,0.8,3.4,2.5,3.4
		c1.6,0,2.5-1.1,2.5-3.4c0-2.2-0.8-3.3-2.5-3.3c-0.9,0-1.5,0.3-1.9,0.9S444,265.1,444,266.2z"/>
	<path d="M458.4,261.1c0.4,0,0.8,0,1,0.1l-0.2,1.9c-0.3-0.1-0.6-0.1-0.9-0.1c-0.8,0-1.5,0.3-2,0.8s-0.8,1.2-0.8,2.1v5.1h-2.1v-9.7
		h1.6l0.3,1.7h0.1c0.3-0.6,0.7-1,1.3-1.4S457.8,261.1,458.4,261.1z"/>
	<path d="M464.8,269.5c0.5,0,1-0.1,1.5-0.2v1.6c-0.2,0.1-0.5,0.2-0.9,0.3s-0.7,0.1-1.1,0.1c-2,0-2.9-1-2.9-3.1v-5.2h-1.3V262
		l1.4-0.8l0.7-2.1h1.3v2.2h2.8v1.6h-2.8v5.2c0,0.5,0.1,0.9,0.4,1.1S464.4,269.5,464.8,269.5z"/>
	<path d="M472.3,265.6c0-5,2-7.5,6.1-7.5c0.6,0,1.2,0,1.6,0.1v1.7c-0.4-0.1-1-0.2-1.5-0.2c-1.4,0-2.4,0.4-3.1,1.1s-1.1,1.9-1.1,3.6
		h0.1c0.3-0.5,0.7-0.8,1.2-1.1s1.1-0.4,1.8-0.4c1.2,0,2.1,0.4,2.7,1.1s1,1.7,1,2.9c0,1.3-0.4,2.4-1.1,3.2s-1.8,1.2-3.1,1.2
		c-0.9,0-1.7-0.2-2.4-0.7s-1.2-1.1-1.6-1.9S472.3,266.8,472.3,265.6z M476.8,269.5c0.7,0,1.3-0.2,1.6-0.7s0.6-1.1,0.6-2
		c0-0.7-0.2-1.3-0.5-1.7s-0.9-0.6-1.6-0.6c-0.4,0-0.9,0.1-1.2,0.3s-0.7,0.5-0.9,0.8s-0.3,0.7-0.3,1c0,0.8,0.2,1.5,0.7,2.1
		S476.1,269.5,476.8,269.5z"/>
</g>
</svg>
