<?xml version="1.0" encoding="utf-8"?>
<!-- Generator: Adobe Illustrator 19.2.0, SVG Export Plug-In . SVG Version: 6.00 Build 0)  -->
<svg version="1.1" id="Layer_1" xmlns="http://www.w3.org/2000/svg" xmlns:xlink="http://www.w3.org/1999/xlink" x="0px" y="0px"
	 viewBox="0 0 600 560" style="enable-background:new 0 0 600 560;" xml:space="preserve">
<style type="text/css">
	.st0{fill:#6B6B6B;}
	.st1{fill:#B85548;}
	.st2{fill:#6063C9;}
	.st3{fill:#484AB8;}
	.st4{fill:#FFFFFF;}
</style>
<g>
	<path class="st0" d="M120.5,155.8c-1.5,0-2.8,0-4-0.1l0.1-2c1.2,0.1,2.5,0.1,4,0.1L120.5,155.8z M124.6,155.7l-0.1-2
		c1.3,0,2.6-0.1,4-0.1l0.1,2C127.2,155.7,125.8,155.7,124.6,155.7z M132.6,155.4l-0.1-2c1.3-0.1,2.6-0.2,4-0.3l0.2,2
		C135.2,155.2,133.9,155.3,132.6,155.4z M112.4,155.3c-2.2-0.3-3.6-0.9-4.3-1.6l1.5-1.4c0.1,0.1,0.8,0.6,3.1,1L112.4,155.3z
		 M140.6,154.8l-0.2-2c1.3-0.1,2.6-0.2,4-0.4l0.2,2C143.2,154.5,141.9,154.7,140.6,154.8z M148.6,154l-0.2-2c1.3-0.1,2.6-0.3,4-0.4
		l0.2,2C151.2,153.7,149.9,153.9,148.6,154z M156.6,153.1l-0.2-2c1.3-0.2,2.6-0.3,4-0.5l0.3,2C159.2,152.8,157.9,152.9,156.6,153.1z
		 M164.5,152.1l-0.3-2c1.3-0.2,2.6-0.4,4-0.5l0.3,2C167.1,151.7,165.8,151.9,164.5,152.1z M172.4,150.9l-0.3-2
		c1.3-0.2,2.6-0.4,4-0.6l0.3,2C175.1,150.5,173.7,150.7,172.4,150.9z M111.2,150.9l-1.1-1.7c0.9-0.6,2.2-1.2,3.7-1.9l0.8,1.8
		C113.2,149.8,112,150.3,111.2,150.9z M180.4,149.7l-0.3-2c1.3-0.2,2.6-0.4,3.9-0.6l0.3,2C183,149.3,181.7,149.5,180.4,149.7z
		 M188.3,148.4l-0.3-2c1.3-0.2,2.6-0.5,3.9-0.7l0.3,2C190.9,148,189.6,148.2,188.3,148.4z M118.3,147.7l-0.7-1.9
		c1.2-0.4,2.5-0.9,3.8-1.3l0.6,1.9C120.7,146.8,119.4,147.3,118.3,147.7z M196.2,147l-0.4-2c1.3-0.2,2.6-0.5,3.9-0.7l0.4,2
		C198.8,146.5,197.5,146.8,196.2,147z M204,145.5l-0.4-2c1.3-0.3,2.6-0.5,3.9-0.8l0.4,2C206.7,145,205.4,145.3,204,145.5z
		 M125.8,145.2l-0.6-1.9c1.2-0.4,2.5-0.7,3.9-1.1l0.5,1.9C128.3,144.5,127,144.9,125.8,145.2z M211.9,144l-0.4-2
		c1.3-0.3,2.6-0.5,3.9-0.8l0.4,2C214.5,143.4,213.2,143.7,211.9,144z M133.5,143.1l-0.5-1.9c1.3-0.3,2.6-0.7,3.9-1l0.5,1.9
		C136,142.4,134.7,142.7,133.5,143.1z M219.7,142.3l-0.4-2c1.3-0.3,2.6-0.6,3.9-0.9l0.4,1.9C222.4,141.7,221.1,142,219.7,142.3z
		 M141.2,141.1l-0.5-1.9c1.3-0.3,2.6-0.6,3.9-0.9l0.5,1.9C143.8,140.5,142.5,140.8,141.2,141.1z M227.5,140.5l-0.5-1.9
		c1.3-0.3,2.6-0.6,3.9-1l0.5,1.9C230.2,139.8,228.9,140.2,227.5,140.5z M149,139.3l-0.4-2c1.3-0.3,2.6-0.6,3.9-0.9l0.4,2
		C151.6,138.7,150.3,139,149,139.3z M235.3,138.5l-0.5-1.9c1.3-0.3,2.6-0.7,3.9-1l0.5,1.9C238,137.8,236.7,138.2,235.3,138.5z
		 M156.8,137.6l-0.4-2c1.3-0.3,2.6-0.5,3.9-0.8l0.4,2C159.4,137.1,158.1,137.4,156.8,137.6z M243.1,136.4l-0.6-1.9
		c1.3-0.4,2.6-0.8,3.8-1.2l0.6,1.9C245.7,135.6,244.4,136,243.1,136.4z M164.7,136l-0.4-2c1.3-0.3,2.6-0.5,3.9-0.8l0.4,2
		C167.3,135.5,165.9,135.8,164.7,136z M172.5,134.6l-0.4-2c1.3-0.2,2.6-0.5,3.9-0.7l0.3,2C175.1,134.1,173.8,134.3,172.5,134.6z
		 M250.7,133.9l-0.7-1.9c1.4-0.5,2.6-1,3.7-1.4l0.8,1.8C253.4,132.9,252.1,133.4,250.7,133.9z M180.4,133.2l-0.3-2
		c1-0.2,1.9-0.3,2.9-0.5l1-0.2l0.3,2l-1,0.2C182.3,132.8,181.3,133,180.4,133.2z M188.3,131.9l-0.3-2c1.3-0.2,2.6-0.4,4-0.6l0.3,2
		C190.9,131.4,189.6,131.6,188.3,131.9z M258.2,130.7l-1-1.7c2-1.1,2.1-1.7,2.1-1.7c0,0-0.1-0.1-0.3-0.2l1-1.7
		c0.7,0.4,1.1,1,1.3,1.6c0,0.1,0,0.2,0,0.3C261.4,128.4,260.4,129.5,258.2,130.7z M196.2,130.6l-0.3-2c1.3-0.2,2.7-0.4,4-0.6l0.3,2
		C198.8,130.3,197.5,130.4,196.2,130.6z M204.1,129.5l-0.3-2c1.3-0.2,2.7-0.4,4-0.5l0.3,2C206.7,129.2,205.4,129.3,204.1,129.5z
		 M212,128.5l-0.2-2c1.3-0.2,2.7-0.3,4-0.5l0.2,2C214.6,128.2,213.3,128.3,212,128.5z M219.9,127.6l-0.2-2c1.4-0.1,2.7-0.3,4-0.4
		l0.2,2C222.6,127.3,221.3,127.4,219.9,127.6z M227.9,126.8l-0.2-2c1.4-0.1,2.7-0.2,4-0.3l0.2,2
		C230.5,126.6,229.2,126.7,227.9,126.8z M235.8,126.2l-0.1-2c1.4-0.1,2.7-0.2,4-0.2l0.1,2C238.5,126,237.2,126.1,235.8,126.2z
		 M255.6,126.1c-1.1-0.1-2.4-0.3-3.9-0.3l0.1-2c1.6,0.1,2.9,0.2,4.1,0.3L255.6,126.1z M243.8,125.8l-0.1-2c1.4,0,2.8-0.1,4-0.1l0,2
		C246.5,125.7,245.2,125.7,243.8,125.8z"/>
</g>
<g>
	<path class="st0" d="M147.8,452.7c-1.4,0-2.7-0.9-3.9-2.7l1.7-1.1c0.7,1.1,1.5,1.8,2.2,1.8l0.1,2L147.8,452.7z M150.5,451.4
		l-1.5-1.4c0.6-0.7,1.2-1.7,1.7-3.1l1.9,0.7C152.1,449.3,151.3,450.5,150.5,451.4z M142.1,446.2c-0.4-1.2-0.8-2.5-1.1-4l2-0.4
		c0.3,1.4,0.6,2.6,1,3.7L142.1,446.2z M153.8,443.6l-2-0.4c0.2-1.2,0.4-2.5,0.6-3.9l2,0.2C154.2,441,154,442.3,153.8,443.6z
		 M140.3,438.2c-0.2-1.3-0.3-2.7-0.4-4.1l2-0.1c0.1,1.3,0.2,2.6,0.4,3.9L140.3,438.2z M154.6,435.5l-2-0.1c0-0.5,0-0.9,0-1.4
		c0-0.6,0-1.2,0-1.8l0-0.7l2-0.1l0,0.7c0,0.6,0,1.3,0,1.9C154.6,434.5,154.6,435,154.6,435.5z M141.9,430.1l-2,0
		c0-1.4,0.1-2.7,0.2-4.1l2,0.2C141.9,427.5,141.9,428.8,141.9,430.1z M152.3,427.6c-0.2-1.3-0.4-2.6-0.6-3.9l2-0.4
		c0.3,1.3,0.5,2.6,0.6,4L152.3,427.6z M142.5,422.3l-2-0.3c0.3-1.5,0.6-2.8,1-4l1.9,0.6C143.1,419.7,142.8,420.9,142.5,422.3z
		 M150.7,419.9c-0.4-1.4-0.9-2.6-1.4-3.5l1.8-1c0.6,1.1,1.1,2.4,1.6,3.9L150.7,419.9z M145,415.2l-1.6-1.2c1-1.4,2.1-2.1,3.3-2.1
		c0.5,0,0.9,0.1,1.2,0.2l-0.7,1.9c-0.2-0.1-0.3-0.1-0.4-0.1C146,414,145.4,414.7,145,415.2z"/>
</g>
<g>
	<path class="st0" d="M114.2,465.6c-1.3,0-2.6-0.1-4.1-0.3l0.3-2c1.4,0.2,2.7,0.3,3.9,0.3L114.2,465.6z M118.4,465.1l-0.5-1.9
		c0.9-0.2,2.1-0.7,2.5-1.6c0.1-0.2,0.1-0.3,0.1-0.5c0-0.5-0.2-1.2-0.7-1.9l1.7-1.1c0.7,1.1,1,2.1,1,3c0,0.4-0.1,0.9-0.2,1.2
		C121.8,463.7,120.5,464.6,118.4,465.1z M106.1,464.6c-1.3-0.3-2.6-0.6-3.9-1l0.5-1.9c1.3,0.4,2.6,0.7,3.8,0.9L106.1,464.6z
		 M98.2,462.5c-0.9-0.3-1.8-0.6-2.8-1c-0.4-0.1-0.7-0.3-1-0.4l0.7-1.9c0.3,0.1,0.7,0.3,1,0.4c0.9,0.3,1.8,0.7,2.7,1L98.2,462.5z
		 M90.7,459.5c-1.3-0.6-2.5-1.2-3.6-1.8L88,456c1.1,0.6,2.3,1.2,3.5,1.7L90.7,459.5z M117.3,456.4c-0.9-0.8-1.9-1.6-3.1-2.4l1.1-1.6
		c1.2,0.8,2.3,1.7,3.3,2.5L117.3,456.4z M83.5,455.7c-1.2-0.8-2.4-1.5-3.4-2.3l1.2-1.6c1,0.7,2,1.5,3.2,2.2L83.5,455.7z
		 M110.9,451.9c-1.1-0.6-2.3-1.3-3.5-1.8l0.9-1.8c1.2,0.6,2.5,1.2,3.6,1.9L110.9,451.9z M77,450.7c-1.2-1.3-2-2.6-2.4-3.8l1.9-0.5
		c0.2,0.8,0.9,1.8,1.9,2.9L77,450.7z M103.8,448.5c-1-0.4-2-0.8-3-1.2l-0.6-0.2l0.7-1.9l0.7,0.2c1.1,0.4,2.1,0.8,3.1,1.2
		L103.8,448.5z M96.4,445.8c-1.3-0.4-2.6-0.7-3.8-1.1l0.5-1.9c1.3,0.3,2.6,0.7,3.9,1.1L96.4,445.8z M77.6,444.2l-1-1.8
		c1.1-0.6,2.5-0.9,4.3-1.1l0.2,2C79.6,443.5,78.4,443.7,77.6,444.2z M88.8,443.9c-1.4-0.2-2.7-0.4-3.9-0.5l0.2-2
		c1.3,0.1,2.6,0.3,4.1,0.5L88.8,443.9z"/>
</g>
<g>
	<path class="st0" d="M109.3,511.1c-0.7-0.2-1.2-0.5-1.7-1c-0.6-0.6-0.9-1.5-0.9-2.5c0-0.7,0.1-1.4,0.4-2.3l1.9,0.6
		c-0.2,0.6-0.3,1.2-0.3,1.6c0,0.5,0.1,0.9,0.4,1.2c0.2,0.2,0.4,0.3,0.7,0.4L109.3,511.1z M113.8,510.6l-0.7-1.9
		c1.1-0.4,2.2-1,3.4-1.7l1.1,1.7C116.3,509.5,115,510.2,113.8,510.6z M120.9,506.2l-1.3-1.5c0.2-0.2,0.5-0.4,0.7-0.6
		c0.7-0.7,1.4-1.4,2-2.1l1.5,1.3c-0.7,0.8-1.4,1.5-2.2,2.2C121.4,505.8,121.1,506,120.9,506.2z M110.8,502.7l-1.7-1.1
		c0.7-1.1,1.6-2.2,2.6-3.3l1.5,1.4C112.2,500.7,111.4,501.7,110.8,502.7z M126.3,500l-1.7-1.1c0.7-1.2,1.3-2.4,1.5-3.3l1.9,0.5
		C127.8,497.2,127.2,498.5,126.3,500z M116,497l-1.3-1.5c1.1-0.9,2.2-1.7,3.4-2.4l1,1.7C118,495.4,117,496.2,116,497z M122.5,493.2
		l-0.6-1.9c1.9-0.6,3.5-0.6,4.7,0.1l-1,1.7C125,492.7,123.8,492.8,122.5,493.2z"/>
</g>
<g>
	<path class="st0" d="M193,480.1h-0.2c-0.4,0-0.8,0-1.3,0c-0.9,0-1.8-0.1-2.6-0.2l0.2-2c0.8,0.1,1.7,0.1,2.5,0.2c0.4,0,0.8,0,1.2,0
		h0.2V480.1z M197.1,479.8l-0.2-2c1.4-0.1,2.6-0.4,3.8-0.7l0.5,1.9C200,479.4,198.6,479.7,197.1,479.8z M184.9,479.3
		c-1.5-0.3-2.8-0.7-4-1.2l0.7-1.9c1.1,0.4,2.3,0.8,3.7,1.1L184.9,479.3z M205.2,477.6l-1-1.7c1.2-0.7,1.9-1.4,1.9-2.1l2,0.1
		C208.1,474.8,207.5,476.3,205.2,477.6z M177.1,476c-1.1-0.9-1.6-2-1.6-3.1c0-0.6,0.2-1.2,0.5-1.7l1.7,1c-0.1,0.2-0.2,0.4-0.2,0.7
		c0,0.7,0.5,1.2,0.9,1.6L177.1,476z M205.8,472.8c-0.5-0.7-1.4-1.4-2.8-2l0.8-1.8c1.7,0.8,2.9,1.7,3.6,2.7L205.8,472.8z
		 M180.4,470.3l-0.8-1.8c1.1-0.5,2.5-0.9,4-1.2l0.4,2C182.6,469.4,181.4,469.8,180.4,470.3z M199.4,469.5c-1.2-0.3-2.5-0.5-3.8-0.7
		l0.2-2c1.4,0.2,2.8,0.4,4.1,0.7L199.4,469.5z M187.8,468.6l-0.2-2c1.3-0.1,2.7-0.1,4.1-0.1l0,2
		C190.4,468.5,189.1,468.5,187.8,468.6z"/>
</g>
<g>
	<path class="st0" d="M348.5,487.1c-0.5,0-0.9,0-1.3-0.1l0.3-2c0.9,0.1,2.2,0.1,3.6-0.2l0.4,2C350.4,487,349.4,487.1,348.5,487.1z
		 M355.5,485.6l-0.7-1.9c1.2-0.5,2.3-1,3.5-1.6l1,1.8C358,484.5,356.7,485.1,355.5,485.6z M344.1,485.2c-0.3-0.5-0.4-1.1-0.4-1.7
		c0-0.9,0.3-2,1-3.1l1.7,1c-0.5,0.8-0.7,1.5-0.7,2.1c0,0.3,0.1,0.5,0.2,0.7L344.1,485.2z M362.7,481.7l-1.1-1.6
		c1.1-0.8,2.1-1.6,3-2.4l1.4,1.5C365,480,363.9,480.8,362.7,481.7z M348.8,478.6l-1.4-1.4c0.9-0.9,2-1.8,3.2-2.7l1.2,1.6
		C350.6,476.9,349.6,477.7,348.8,478.6z M368.7,475.9l-1.7-1.1c0.8-1.3,1-2.1,1-2.6c0-0.1,0-0.3,0-0.4l1.9-0.5
		c0.1,0.3,0.1,0.5,0.1,0.8C370.1,473.3,369.6,474.5,368.7,475.9z M355,474l-1-1.7c1.2-0.7,2.5-1.3,3.7-1.8l0.8,1.8
		C357.3,472.8,356.1,473.3,355,474z M362.1,471l-0.5-1.9c1.6-0.4,3.1-0.5,4.3-0.5l-0.1,2C364.8,470.6,363.5,470.7,362.1,471z"/>
</g>
<g>
	<path class="st0" d="M417.7,500.6c-1,0-2.1-0.4-3.2-1.2l1.1-1.7c1.1,0.8,2.1,1,2.7,0.7c0,0,0.1,0,0.1-0.1l1.1,1.7
		c-0.1,0.1-0.2,0.1-0.3,0.2C418.7,500.5,418.2,500.6,417.7,500.6z M411.3,496.6c-0.9-1-1.7-2.1-2.4-3.4l1.7-1
		c0.7,1.1,1.5,2.2,2.2,3.1L411.3,496.6z M419.3,495.7c0-1.1-0.2-2.4-0.5-3.7l1.9-0.5c0.4,1.5,0.6,2.9,0.6,4.2L419.3,495.7z
		 M407,489.5c-0.6-1.3-1-2.6-1.4-3.9l1.9-0.5c0.3,1.2,0.7,2.4,1.3,3.6L407,489.5z M417.5,488.3c-0.2-0.5-0.5-1.1-0.8-1.6
		c-0.3-0.6-0.7-1.2-1-1.8l1.7-1c0.4,0.6,0.8,1.3,1.1,2c0.3,0.6,0.6,1.1,0.8,1.7L417.5,488.3z M413.4,481.8c-0.9-1.1-1.9-1.9-2.7-2.5
		l1.1-1.7c1,0.7,2.1,1.6,3.2,2.9L413.4,481.8z M407,481.4l-2,0c0-2.7,1.1-3.9,1.9-4.4l1,1.7C407.4,479.1,407.1,480,407,481.4z"/>
</g>
<g>
	<path class="st0" d="M430.6,452.8c-1.6,0-3.1-0.2-4.2-0.6l0.6-1.9c1,0.3,2.2,0.5,3.7,0.5L430.6,452.8z M434.7,452.6l-0.2-2
		c1.2-0.1,2.5-0.4,3.8-0.7l0.4,2C437.4,452.2,436,452.4,434.7,452.6z M442.7,450.8l-0.6-1.9c1.3-0.4,2.5-0.8,3.7-1.3l0.8,1.8
		C445.3,450,444,450.4,442.7,450.8z M423,449.5c-0.1-0.3-0.1-0.5-0.1-0.8c0-1.2,0.7-2.4,2-3.7l1.4,1.4c-0.9,0.8-1.3,1.6-1.3,2.2
		c0,0.1,0,0.2,0,0.3L423,449.5z M450.2,447.6l-1-1.7c1.3-0.7,2.3-1.4,3.1-2.2l1.4,1.5C452.8,446,451.6,446.8,450.2,447.6z
		 M429.3,444.2l-1-1.7c1.1-0.6,2.4-1.3,3.7-1.8l0.8,1.8C431.5,443.1,430.3,443.6,429.3,444.2z M453.8,441.2c0,0,0-0.1,0-0.1
		c-0.2-0.6-0.9-1.1-2.2-1.4l0.5-1.9c2.5,0.7,3.3,1.9,3.6,2.8c0,0.1,0.1,0.2,0.1,0.4L453.8,441.2z M436.4,441.2l-0.6-1.9
		c0.6-0.2,1.2-0.4,1.8-0.5c0.7-0.2,1.4-0.4,2.1-0.5l0.4,2c-0.7,0.1-1.3,0.3-2,0.5C437.6,440.8,437,441,436.4,441.2z M444,439.5
		l-0.2-2c1.4-0.2,2.7-0.3,3.9-0.3c0,0,0,0,0,0l0.2,0l0,2l-0.1,0c0,0,0,0,0,0C446.6,439.2,445.3,439.3,444,439.5z"/>
</g>
<g>
	<path class="st0" d="M204.5,219.3l-0.2-2c1.4-0.2,2.3-0.6,2.6-1.2c0-0.1,0.1-0.2,0.1-0.3l2,0.4c0,0.2-0.1,0.5-0.2,0.7
		C208.1,218.2,206.7,219,204.5,219.3z M200.3,219.2c-1.3-0.1-2.6-0.4-4.1-0.7l0.5-1.9c1.4,0.3,2.6,0.6,3.8,0.7L200.3,219.2z
		 M192.3,217.4c-1.3-0.4-2.5-0.9-3.8-1.4l0.8-1.9c1.2,0.5,2.5,1,3.7,1.4L192.3,217.4z M184.8,214.3c-1.2-0.6-2.5-1.2-3.6-1.9l1-1.7
		c1.1,0.6,2.3,1.2,3.5,1.8L184.8,214.3z M205.8,212.9c-0.7-0.9-1.5-1.8-2.6-2.7l1.3-1.5c1.2,1,2.2,2,2.9,3L205.8,212.9z
		 M177.7,210.2c-1.2-0.8-2.3-1.7-3.3-2.5l1.3-1.5c0.9,0.8,1.9,1.6,3.1,2.4L177.7,210.2z M200,207.9c-1-0.7-2.2-1.4-3.3-2.1l1-1.7
		c1.2,0.7,2.4,1.4,3.5,2.1L200,207.9z M171.6,204.7c-1-1.3-1.4-2.5-1.4-3.6c0-0.3,0-0.7,0.1-1l1.9,0.6c0,0.1-0.1,0.3-0.1,0.4
		c0,0.4,0.2,1.2,1.1,2.4L171.6,204.7z M193.2,204c-0.5-0.2-1-0.4-1.4-0.7c-0.7-0.3-1.4-0.6-2.2-0.9l0.7-1.9c0.7,0.3,1.5,0.6,2.2,0.9
		c0.5,0.2,1,0.5,1.5,0.7L193.2,204z M185.9,201.1c-1.3-0.4-2.6-0.8-3.8-1.1l0.5-1.9c1.3,0.3,2.6,0.7,3.9,1.1L185.9,201.1z
		 M178.3,199.4c-1.4-0.2-2.7-0.2-3.7,0l-0.3-2c1.2-0.2,2.6-0.2,4.2,0L178.3,199.4z"/>
</g>
<g>
	<path class="st0" d="M148.3,258.7c-1.2,0-2.3-0.1-3.2-0.2l0.2-2c0.9,0.1,1.8,0.1,3,0.2c0.3,0,0.6,0,0.9,0l0,2
		C148.9,258.7,148.6,258.7,148.3,258.7z M153.3,258.4l-0.2-2c1.2-0.1,2.6-0.3,3.9-0.5l0.3,2C155.9,258.1,154.6,258.3,153.3,258.4z
		 M161.3,257.3l-0.4-2c1.3-0.2,2.6-0.5,3.9-0.8l0.4,2C163.9,256.8,162.6,257.1,161.3,257.3z M140.8,256.8c-0.3-0.3-0.4-0.6-0.5-1
		c-0.1-0.2-0.1-0.4-0.1-0.7c0-1.1,0.7-2.3,2.3-3.7l1.3,1.5c-1.5,1.3-1.6,2-1.6,2.2c0,0,0,0.1,0,0.1c0,0.1,0.1,0.1,0.1,0.2
		L140.8,256.8z M169.2,255.6l-0.5-1.9c1.3-0.3,2.6-0.6,3.9-1l0.5,1.9C171.8,255,170.5,255.3,169.2,255.6z M177,253.6l-0.5-1.9
		c1.3-0.4,2.6-0.7,3.8-1.1l0.6,1.9C179.6,252.9,178.3,253.2,177,253.6z M184.7,251.2l-0.6-1.9c1.3-0.4,2.5-0.9,3.7-1.3l0.7,1.9
		C187.2,250.3,186,250.8,184.7,251.2z M146.9,250.8l-1-1.7c1.1-0.6,2.3-1.3,3.6-2l0.9,1.8C149,249.6,147.9,250.2,146.9,250.8z
		 M192.2,248.4l-0.7-1.9c1.3-0.5,2.5-1,3.6-1.5l0.8,1.8C194.8,247.4,193.5,247.9,192.2,248.4z M153.9,247.3l-0.8-1.8
		c1.2-0.5,2.4-1.1,3.7-1.6l0.7,1.9C156.3,246.2,155,246.7,153.9,247.3z M199.6,245.1l-0.9-1.8c1.3-0.6,2.4-1.3,3.4-1.9l1.1,1.7
		C202.1,243.8,200.9,244.4,199.6,245.1z M161.2,244.3l-0.7-1.9c1.2-0.4,2.5-0.9,3.8-1.3l0.6,1.9
		C163.7,243.4,162.5,243.9,161.2,244.3z M168.8,241.8l-0.6-1.9c1.3-0.4,2.5-0.8,3.9-1.1l0.5,1.9C171.3,241,170,241.4,168.8,241.8z
		 M206.5,240.7l-1.3-1.5c1.3-1.2,1.4-1.8,1.4-1.9c0,0,0-0.1,0-0.1l1.7-1.1c0.1,0.2,0.2,0.4,0.2,0.5c0.1,0.2,0.1,0.4,0.1,0.7
		C208.5,238.3,207.9,239.4,206.5,240.7z M176.4,239.6l-0.5-1.9c1.3-0.3,2.6-0.7,3.9-1l0.5,1.9C179,238.9,177.7,239.3,176.4,239.6z
		 M184.2,237.8l-0.4-2c1.4-0.3,2.7-0.5,4-0.8l0.3,2C186.8,237.3,185.5,237.5,184.2,237.8z M192,236.4l-0.3-2c1.4-0.2,2.8-0.3,4-0.5
		l0.2,2C194.7,236.1,193.4,236.2,192,236.4z M203.7,236c-0.9-0.1-2.1-0.2-3.3-0.2c-0.2,0-0.3,0-0.5,0l0-2c0.2,0,0.4,0,0.6,0
		c1.3,0,2.5,0.1,3.5,0.2L203.7,236z"/>
</g>
<g>
	<path class="st0" d="M204,285c-0.4-0.1-0.8-0.2-1.1-0.4c-0.9-0.5-1.9-1.7-1.9-4.4l2,0c0,1.4,0.4,2.4,0.9,2.7
		c0.1,0.1,0.3,0.1,0.4,0.1L204,285z M208.4,283.6l-1.1-1.7c0.9-0.6,1.9-1.4,2.9-2.4l1.4,1.4C210.5,282.1,209.4,283,208.4,283.6z
		 M214.4,277.9l-1.5-1.3c0.8-1,1.6-2,2.4-3.1l1.6,1.2C216.1,275.8,215.3,276.9,214.4,277.9z M203.4,276.4l-2-0.4
		c0.3-1.2,0.7-2.6,1.1-4l1.9,0.7C204,274,203.7,275.3,203.4,276.4z M219.1,271.3l-1.7-1c0.2-0.4,0.5-0.8,0.7-1.2
		c0.4-0.7,0.8-1.5,1.2-2.2l1.8,0.9c-0.4,0.8-0.8,1.5-1.3,2.3C219.6,270.5,219.4,270.9,219.1,271.3z M205.9,269.1l-1.8-0.8
		c0.5-1.2,1.1-2.4,1.8-3.7l1.8,0.9C207,266.7,206.5,267.9,205.9,269.1z M222.9,264.1l-1.8-0.8c0.5-1.2,1-2.5,1.4-3.6l1.9,0.6
		C223.9,261.5,223.4,262.8,222.9,264.1z M209.6,262.1l-1.7-1c0.7-1.2,1.5-2.3,2.2-3.4l1.6,1.2C211,259.9,210.3,261,209.6,262.1z
		 M225.5,256.3l-2-0.4c0.2-1.2,0.4-2.3,0.4-3.2c0-0.2,0-0.4,0-0.5l2-0.1c0,0.2,0,0.4,0,0.6C225.9,253.8,225.7,255,225.5,256.3z
		 M214.2,255.7l-1.5-1.3c0.9-1.1,1.9-2.1,2.8-3l1.4,1.5C216,253.7,215.1,254.7,214.2,255.7z M219.8,250.6l-1-1.7
		c1.8-1.1,3.4-1.4,4.6-1l-0.7,1.9C222.1,249.5,221,249.8,219.8,250.6z"/>
</g>
<g>
	<path class="st0" d="M310.8,338.6c-0.4,0-0.8,0-1.1-0.1l0.2-2c0.3,0,0.6,0,0.9,0c0.8,0,1.7-0.1,2.8-0.3l0.4,2
		C312.8,338.5,311.7,338.6,310.8,338.6z M317.9,337.2l-0.6-1.9c1.2-0.4,2.4-0.9,3.6-1.4l0.8,1.8
		C320.5,336.3,319.2,336.8,317.9,337.2z M306.3,336.7c-0.2-0.4-0.3-0.9-0.3-1.4c0-1,0.4-2.1,1.3-3.3l1.7,1.1
		c-0.7,1.1-0.9,1.8-0.9,2.2c0,0.2,0,0.4,0.1,0.5L306.3,336.7z M325.4,333.9l-1-1.7c1.2-0.7,2.3-1.3,3.3-2.1l1.1,1.6
		C327.8,332.5,326.6,333.2,325.4,333.9z M311.4,330.3l-1.3-1.5c0.9-0.9,2-1.7,3.2-2.6l1.2,1.6C313.3,328.7,312.2,329.5,311.4,330.3z
		 M332.1,329.2l-1.3-1.5c1.1-0.9,2-1.9,2.6-2.7l1.6,1.2C334.3,327.1,333.3,328.2,332.1,329.2z M317.7,325.8l-1-1.7
		c0.5-0.3,1-0.6,1.6-0.9c0.7-0.4,1.4-0.7,2-1l0.8,1.8c-0.6,0.3-1.3,0.6-2,1C318.7,325.2,318.2,325.5,317.7,325.8z M324.8,322.5
		l-0.7-1.9c1.4-0.5,2.7-0.9,4-1.1l0.4,2C327.3,321.7,326.1,322,324.8,322.5z M334.5,322.1c0-0.1,0-0.1-0.1-0.2
		c-0.3-0.5-1.1-0.8-2.3-0.9l0.1-2c2.5,0.1,3.5,1.1,3.9,1.9c0.1,0.2,0.2,0.4,0.2,0.7L334.5,322.1z"/>
</g>
<g>
	<path class="st0" d="M470.8,336c-1,0-2.2-0.5-3.4-1.4l1.2-1.6c1.1,0.8,2.1,1.2,2.7,0.9l0.8,1.9C471.6,335.9,471.2,336,470.8,336z
		 M473.3,334.8l-1.5-1.3c0.5-0.6,0.8-1.7,0.9-3.2l2,0.1C474.6,332.5,474.1,333.9,473.3,334.8z M464.3,331.7c-0.8-1-1.6-2.1-2.4-3.3
		l1.7-1.1c0.7,1.2,1.5,2.2,2.3,3.2L464.3,331.7z M472.5,326.6c-0.1-1.2-0.4-2.5-0.7-3.8l1.9-0.5c0.3,1.4,0.6,2.8,0.7,4L472.5,326.6z
		 M459.9,324.8c-0.6-1.2-1.2-2.4-1.7-3.7l1.8-0.8c0.5,1.2,1.1,2.4,1.7,3.5L459.9,324.8z M470.8,319c-0.4-1.2-0.8-2.5-1.3-3.7
		l1.9-0.7c0.5,1.3,1,2.6,1.4,3.8L470.8,319z M456.7,317.3c-0.5-1.3-0.9-2.6-1.2-3.9l1.9-0.5c0.3,1.2,0.7,2.5,1.2,3.7L456.7,317.3z
		 M467.9,311.7c-0.6-1.2-1.2-2.4-1.8-3.5l1.7-1c0.7,1.1,1.3,2.3,1.9,3.6L467.9,311.7z M454.6,309.4c-0.2-1.5-0.4-2.9-0.4-4.1l2,0
		c0,1.2,0.2,2.4,0.4,3.8L454.6,309.4z M463.9,305c-0.9-1.1-1.7-2.1-2.5-2.9l1.4-1.5c0.9,0.8,1.8,1.9,2.7,3.1L463.9,305z
		 M456.6,301.7l-1.9-0.7c0.5-1.3,1.2-2.1,2.2-2.5c0.6-0.2,1.3-0.3,2-0.2l-0.4,2c-0.3-0.1-0.6-0.1-0.8,0
		C457.2,300.5,456.9,300.9,456.6,301.7z"/>
</g>
<g>
	<path class="st0" d="M484.5,274.2c-0.6,0-1.3,0-1.8-0.1l0.1-2c1.2,0.1,2.5,0.1,3.9,0l0.1,2C486,274.2,485.2,274.2,484.5,274.2z
		 M490.8,273.8l-0.3-2c1.3-0.2,2.6-0.4,3.9-0.6l0.4,2C493.5,273.4,492.1,273.6,490.8,273.8z M478.5,273.4c-1.4-0.5-2.2-1.3-2.5-2.4
		c-0.1-0.2-0.1-0.5-0.1-0.8c0-1.1,0.7-2.4,2-3.7l1.4,1.4c-1.2,1.2-1.4,1.9-1.4,2.2c0,0.1,0,0.1,0,0.2c0.1,0.5,0.8,0.8,1.3,1
		L478.5,273.4z M498.8,272.3l-0.5-1.9c1.3-0.3,2.6-0.6,3.8-1l0.5,1.9C501.4,271.6,500.1,272,498.8,272.3z M506.6,270.1l-0.6-1.9
		c1.3-0.4,2.5-0.9,3.7-1.3l0.7,1.9C509.2,269.2,507.9,269.7,506.6,270.1z M514.2,267.2l-0.8-1.8c1.3-0.6,2.5-1.1,3.5-1.7l0.9,1.8
		C516.7,266,515.5,266.6,514.2,267.2z M482.3,265.7l-1.1-1.7c1.1-0.7,2.3-1.3,3.6-2l0.9,1.8C484.4,264.5,483.3,265.1,482.3,265.7z
		 M521.3,263.3l-1.1-1.6c1.2-0.9,2.2-1.7,2.8-2.4l1.6,1.2C523.8,261.3,522.8,262.3,521.3,263.3z M489.3,262.2l-0.8-1.8
		c1.2-0.5,2.5-1,3.8-1.5l0.7,1.9C491.7,261.2,490.4,261.7,489.3,262.2z M496.7,259.5l-0.6-1.9c0.8-0.3,1.7-0.5,2.6-0.8
		c0.4-0.1,0.9-0.2,1.3-0.4l0.5,1.9c-0.4,0.1-0.8,0.2-1.3,0.3C498.4,259,497.5,259.2,496.7,259.5z M504.3,257.5l-0.4-2
		c1.3-0.3,2.7-0.6,4-0.8l0.3,2C506.9,256.9,505.6,257.2,504.3,257.5z M523.1,257.1c-0.4-0.3-1.3-0.8-3.3-1l0.3-2
		c1.9,0.2,3.3,0.7,4.3,1.4L523.1,257.1z M512.1,256.2l-0.2-2c1.4-0.2,2.8-0.3,4.1-0.3l0,2C514.8,255.9,513.5,256,512.1,256.2z"/>
</g>
<g>
	<path class="st0" d="M450.9,258.8c-0.1,0-0.2,0-0.2,0c-1.4-0.1-2.6-1.2-3.5-3.4l1.8-0.8c0.6,1.3,1.2,2.1,1.8,2.2c0,0,0,0,0,0
		c0.4,0,0.8-0.3,1.1-0.6l1.4,1.5C452.5,258.4,451.7,258.8,450.9,258.8z M455.7,254l-1.8-0.9c0.5-1,1-2.2,1.4-3.6l1.9,0.6
		C456.7,251.6,456.2,252.9,455.7,254z M446,251.4c-0.3-1.2-0.5-2.6-0.6-4l2-0.2c0.2,1.4,0.4,2.7,0.6,3.9L446,251.4z M458.3,246.3
		l-1.9-0.5c0.3-1.2,0.6-2.5,0.8-3.9l2,0.4C458.9,243.7,458.6,245,458.3,246.3z M445,243.3c-0.1-1.3-0.1-2.7-0.1-4l2,0
		c0,1.4,0,2.7,0.1,4L445,243.3z M459.9,238.3l-2-0.3c0.2-1.3,0.4-2.6,0.5-3.9l2,0.2C460.2,235.7,460.1,237,459.9,238.3z M447,235.3
		l-2-0.1c0.1-1.3,0.1-2.7,0.2-4l2,0.2C447.1,232.7,447.1,234,447,235.3z M460.7,230.3l-2-0.1c0.1-1.3,0.2-2.7,0.2-4l2,0.1
		C460.9,227.6,460.8,228.9,460.7,230.3z M447.6,227.4l-2-0.2c0.2-1.4,0.3-2.7,0.6-4l2,0.3C448,224.7,447.8,226.1,447.6,227.4z
		 M459,222.3c0-1.4-0.1-2.7-0.1-3.9l2-0.1c0.1,1.3,0.1,2.7,0.2,4L459,222.3z M448.9,219.6l-2-0.4c0.3-1.4,0.6-2.7,0.9-4l1.9,0.5
		C449.5,216.9,449.2,218.2,448.9,219.6z M458.4,214.4c-0.2-1.4-0.4-2.7-0.7-3.8l1.9-0.5c0.3,1.2,0.5,2.6,0.7,4L458.4,214.4z
		 M450.9,212l-1.9-0.7c0.5-1.5,1.1-2.8,1.7-3.8l1.8,1C452,209.4,451.4,210.6,450.9,212z M456.5,207.1c-0.5-0.8-0.9-1.3-1.4-1.3
		c-0.2,0-0.3,0-0.5,0.1l-0.9-1.8c0.5-0.3,1-0.4,1.5-0.3c1.1,0.1,2.1,0.9,2.9,2.3L456.5,207.1z"/>
</g>
<g>
	<path class="st0" d="M244.6,209.1c-1.2-0.6-1.9-2.1-1.9-4.4l2,0c0,1.4,0.3,2.4,0.8,2.7L244.6,209.1z M248.3,208.6l-1-1.7
		c0.8-0.5,1.8-1.3,2.9-2.4l1.4,1.4C250.4,207.1,249.3,208,248.3,208.6z M254.4,202.9l-1.5-1.3c0.8-0.9,1.6-2,2.4-3.1l1.6,1.2
		C256,200.8,255.2,201.9,254.4,202.9z M244.9,200.9l-2-0.3c0.2-1.2,0.5-2.6,0.8-4l1.9,0.5C245.4,198.4,245.1,199.7,244.9,200.9z
		 M259.1,196.3l-1.7-1.1c0.7-1.1,1.4-2.2,2.1-3.3l1.7,1C260.6,194.1,259.9,195.2,259.1,196.3z M246.8,193.2l-1.9-0.6
		c0.4-1.2,0.8-2.5,1.3-3.8l1.9,0.7C247.6,190.8,247.2,192,246.8,193.2z M263.4,189.4l-1.7-1c0.6-1.1,1.3-2.3,1.9-3.5l1.8,1
		C264.7,187.1,264,188.3,263.4,189.4z M249.4,185.7l-1.9-0.7c0.5-1.2,1-2.5,1.5-3.7l1.8,0.8C250.4,183.3,249.9,184.5,249.4,185.7z
		 M267.2,182.4l-1.8-0.9c0.4-0.8,0.8-1.6,1.2-2.5l0.5-1.1l1.8,0.9l-0.5,1.1C268,180.7,267.6,181.6,267.2,182.4z M252.5,178.4
		l-1.8-0.8c0.5-1.2,1.1-2.4,1.7-3.7l1.8,0.9C253.6,176,253,177.2,252.5,178.4z M270.7,175.1l-1.8-0.8c0.6-1.2,1.1-2.4,1.6-3.6
		l1.8,0.8C271.8,172.6,271.3,173.9,270.7,175.1z M255.9,171.2l-1.8-0.9c0.6-1.2,1.2-2.4,1.9-3.6l1.8,0.9
		C257.2,168.9,256.5,170,255.9,171.2z M273.8,167.7L272,167c0.5-1.3,1-2.5,1.4-3.7l1.9,0.7C274.8,165.2,274.3,166.4,273.8,167.7z
		 M259.7,164.2l-1.7-1c0.7-1.2,1.4-2.4,2-3.5l1.7,1C261,161.9,260.4,163.1,259.7,164.2z M276.5,160.1l-1.9-0.6
		c0.4-1.3,0.8-2.6,1.1-3.8l1.9,0.5C277.3,157.4,277,158.7,276.5,160.1z M263.8,157.5l-1.7-1.1c0.8-1.2,1.5-2.3,2.3-3.3l1.6,1.2
		C265.3,155.2,264.6,156.3,263.8,157.5z M278.5,152.2l-2-0.3c0.3-1.5,0.4-2.7,0.4-3.8l2,0C278.9,149.3,278.8,150.7,278.5,152.2z
		 M268.5,151.1l-1.6-1.3c0.9-1.2,1.8-2.2,2.7-3.1l1.4,1.4C270.2,148.9,269.4,149.9,268.5,151.1z M273.9,145.6l-1.1-1.7
		c1.7-1.1,3.1-1.4,4.2-0.8c0.2,0.1,0.5,0.3,0.7,0.5l-1.4,1.5c-0.1,0-0.1-0.1-0.2-0.1c-0.1,0-0.2-0.1-0.3-0.1
		C275.5,144.8,274.9,145,273.9,145.6z"/>
</g>
<g>
	<path class="st0" d="M271.4,332.1c-1.1,0-2.3-0.6-3.6-1.7l1.3-1.5c1.2,1.1,2,1.2,2.3,1.2c0.1,0,0.2,0,0.3,0l0.7,1.9
		C272,332.1,271.7,332.1,271.4,332.1z M274.5,329.2l-1.9-0.6c0.3-0.9,0.4-2.1,0.4-3.7l2,0C275,326.7,274.8,328.2,274.5,329.2z
		 M264.9,327.3c-0.8-1-1.5-2.1-2.4-3.3l1.7-1.1c0.8,1.2,1.5,2.3,2.3,3.2L264.9,327.3z M272.8,321.1c-0.1-1.2-0.3-2.5-0.5-3.9l2-0.3
		c0.2,1.4,0.4,2.8,0.5,4L272.8,321.1z M260.5,320.5c-0.6-1.1-1.3-2.3-2-3.5l1.8-0.9c0.6,1.2,1.3,2.4,1.9,3.5L260.5,320.5z
		 M256.7,313.4c-0.6-1.2-1.2-2.4-1.7-3.6l1.8-0.8c0.6,1.2,1.1,2.4,1.7,3.6L256.7,313.4z M271.6,313.3c-0.2-1.2-0.5-2.5-0.8-3.9
		l1.9-0.4c0.3,1.4,0.6,2.7,0.8,3.9L271.6,313.3z M253.3,306.1c-0.5-1.2-1.1-2.4-1.6-3.7l1.8-0.8c0.5,1.2,1,2.5,1.6,3.7L253.3,306.1z
		 M269.8,305.5c-0.3-1.3-0.7-2.5-1-3.8l1.9-0.5c0.4,1.3,0.7,2.6,1.1,3.9L269.8,305.5z M250.2,298.6c-0.5-1.2-1-2.5-1.4-3.8l1.9-0.7
		c0.5,1.3,0.9,2.5,1.4,3.7L250.2,298.6z M267.7,297.9c-0.4-1.2-0.8-2.5-1.2-3.8l1.9-0.6c0.4,1.3,0.8,2.6,1.2,3.8L267.7,297.9z
		 M247.4,291.1c-0.4-1.3-0.9-2.5-1.3-3.8l1.9-0.6c0.4,1.2,0.8,2.5,1.3,3.8L247.4,291.1z M265.2,290.3c-0.3-0.9-0.7-1.9-1-2.8
		l-0.3-0.9l1.9-0.7l0.3,0.9c0.3,1,0.7,1.9,1,2.8L265.2,290.3z M244.9,283.5c-0.4-1.3-0.8-2.6-1.1-3.9l1.9-0.6
		c0.4,1.3,0.7,2.5,1.1,3.8L244.9,283.5z M262.5,282.8c-0.5-1.3-1-2.5-1.5-3.7l1.9-0.8c0.5,1.2,1,2.5,1.5,3.7L262.5,282.8z
		 M242.7,275.7c-0.4-1.3-0.7-2.6-1-3.9l1.9-0.5c0.3,1.3,0.6,2.5,1,3.9L242.7,275.7z M259.4,275.5c-0.5-1.2-1.1-2.5-1.6-3.6l1.8-0.8
		c0.5,1.2,1.1,2.4,1.6,3.7L259.4,275.5z M256.1,268.2c-0.6-1.2-1.2-2.4-1.8-3.5l1.8-0.9c0.6,1.1,1.2,2.3,1.8,3.6L256.1,268.2z
		 M240.8,267.9c-0.3-1.4-0.5-2.7-0.7-4l2-0.3c0.2,1.2,0.4,2.5,0.7,3.9L240.8,267.9z M252.4,261.2c-0.7-1.2-1.4-2.3-2-3.4l1.7-1.1
		c0.7,1.1,1.4,2.2,2.1,3.5L252.4,261.2z M239.6,259.9c-0.2-1.5-0.2-2.9-0.3-4.1l2,0c0,1.2,0.1,2.5,0.3,3.9L239.6,259.9z
		 M248.2,254.6c-0.9-1.2-1.7-2.2-2.5-2.9l1.4-1.4c0.8,0.8,1.8,1.9,2.7,3.1L248.2,254.6z M241.6,252l-2-0.4c0.4-1.9,1.2-3,2.4-3.4
		c0.3-0.1,0.6-0.2,1-0.2l0,1l0,1c-0.1,0-0.2,0-0.3,0C242.2,250.2,241.8,250.9,241.6,252z"/>
</g>
<g>
	<path class="st0" d="M175.2,454.1l-0.4-2c1-0.2,2.3-0.6,3.6-1.2l0.8,1.8C177.7,453.4,176.3,453.9,175.2,454.1z M170.5,453.7
		c-0.2-0.1-0.3-0.3-0.5-0.4c-0.6-0.7-0.9-1.6-0.9-2.7c0-0.6,0.1-1.3,0.3-2.1l1.9,0.5c-0.1,0.6-0.2,1.1-0.2,1.6c0,0.6,0.1,1,0.4,1.3
		c0.1,0.1,0.1,0.1,0.2,0.2L170.5,453.7z M182.8,451.1l-0.9-1.8c1.1-0.6,2.3-1.2,3.5-1.9l1,1.7C185.2,449.8,184,450.5,182.8,451.1z
		 M189.8,447l-1.1-1.7c1.1-0.7,2.2-1.4,3.3-2.2l1.1,1.7C192,445.5,190.9,446.3,189.8,447z M172.7,445.4l-1.8-0.9
		c0.5-1.1,1.2-2.3,2-3.6l1.7,1C173.8,443.2,173.2,444.4,172.7,445.4z M196.5,442.4l-1.2-1.6c1.1-0.8,2.1-1.5,3.2-2.4l1.2,1.6
		C198.6,440.9,197.5,441.7,196.5,442.4z M176.7,438.7l-1.7-1.1c0.7-1.1,1.5-2.2,2.3-3.3l1.6,1.2
		C178.2,436.6,177.4,437.7,176.7,438.7z M202.9,437.6l-1.2-1.6c1-0.8,2.1-1.6,3.1-2.5l1.3,1.6C205,436,204,436.8,202.9,437.6z
		 M209.2,432.6l-1.3-1.5c1-0.8,2-1.7,3.1-2.6l1.3,1.5C211.2,430.9,210.2,431.8,209.2,432.6z M181.4,432.3l-1.6-1.2
		c0.8-1,1.6-2.1,2.5-3.1l1.5,1.3C183.1,430.3,182.2,431.3,181.4,432.3z M215.3,427.4l-1.3-1.5c1-0.9,2-1.8,3-2.6l1.3,1.5
		C217.3,425.6,216.3,426.5,215.3,427.4z M186.5,426.2l-1.5-1.3c0.9-1,1.7-2,2.7-3l1.5,1.3C188.2,424.2,187.4,425.2,186.5,426.2z
		 M221.3,422l-1.4-1.5l1.2-1.1c0.6-0.5,1.1-1.1,1.7-1.6l1.4,1.5c-0.6,0.5-1.1,1.1-1.7,1.6L221.3,422z M191.8,420.3l-1.5-1.4
		c0.9-1,1.8-1.9,2.8-2.9l1.4,1.4C193.6,418.3,192.7,419.3,191.8,420.3z M227.1,416.5l-1.4-1.4c1-0.9,1.9-1.9,2.8-2.8l1.4,1.4
		C229,414.6,228.1,415.6,227.1,416.5z M197.3,414.5l-1.4-1.4c0.9-0.9,1.9-1.9,2.8-2.8l1.4,1.4C199.2,412.6,198.2,413.5,197.3,414.5z
		 M232.8,410.9l-1.4-1.4c0.9-1,1.9-1.9,2.8-2.9l1.4,1.4C234.7,408.9,233.8,409.9,232.8,410.9z M203,408.9l-1.4-1.4
		c1-0.9,1.9-1.8,2.9-2.8l1.4,1.5C204.9,407,203.9,407.9,203,408.9z M238.3,405l-1.5-1.4c0.9-1,1.8-2,2.7-2.9l1.5,1.3
		C240.2,403.1,239.3,404,238.3,405z M208.8,403.4l-1.4-1.5c1-0.9,2-1.8,3-2.7l1.3,1.5C210.8,401.6,209.8,402.5,208.8,403.4z
		 M243.7,399l-1.5-1.3c0.9-1,1.7-2,2.6-3l1.5,1.3C245.5,397,244.6,398,243.7,399z M214.7,398.1l-1.3-1.5c1-0.9,2-1.8,3-2.6l1.3,1.5
		C216.7,396.3,215.7,397.2,214.7,398.1z M220.8,392.9l-1.3-1.5c1-0.9,2.1-1.7,3.1-2.5l1.3,1.6C222.9,391.2,221.8,392,220.8,392.9z
		 M248.8,392.8l-1.6-1.2c0.8-1.1,1.7-2.1,2.4-3.2l1.6,1.2C250.5,390.7,249.7,391.7,248.8,392.8z M227,387.9l-1.2-1.6
		c1.1-0.8,2.1-1.7,3.2-2.4l1.2,1.6C229.1,386.3,228.1,387.1,227,387.9z M253.6,386.3l-1.7-1.1c0.8-1.2,1.5-2.3,2.1-3.3l1.7,1
		C255.1,384,254.4,385.2,253.6,386.3z M233.4,383.2l-1.2-1.6c1.1-0.8,2.2-1.6,3.3-2.3l1.1,1.7C235.6,381.6,234.5,382.4,233.4,383.2z
		 M257.7,379.3l-1.8-0.9c0.6-1.3,1.1-2.5,1.3-3.5l1.9,0.4C259,376.5,258.5,377.8,257.7,379.3z M240,378.7l-1.1-1.7
		c1.2-0.8,2.4-1.5,3.4-2.1l1,1.7C242.3,377.2,241.1,377.9,240,378.7z M246.8,374.7l-0.9-1.8c1.3-0.7,2.6-1.3,3.7-1.7l0.8,1.9
		C249.3,373.5,248.1,374.1,246.8,374.7z M257,372.2c-0.5-0.4-1.6-0.5-3-0.3l-0.4-2c2.1-0.4,3.7-0.2,4.7,0.7L257,372.2z"/>
</g>
<g>
	<path class="st0" d="M370.4,438.2c-0.3,0-0.7,0-1.1-0.1l0.2-2c1.4,0.1,2.4-0.1,2.9-0.6l1.5,1.3
		C373.1,437.7,371.9,438.2,370.4,438.2z M365.2,437.1c-1.2-0.4-2.4-0.9-3.8-1.6l0.9-1.8c1.3,0.6,2.5,1.1,3.6,1.5L365.2,437.1z
		 M374.1,436.6l-1.6-1.2c0.3-0.3,0.4-0.8,0.4-1.4c0-0.5-0.1-1-0.2-1.6l1.9-0.5c0.2,0.7,0.3,1.4,0.3,2.1
		C374.9,435,374.6,435.9,374.1,436.6z M357.8,433.7c-1.1-0.6-2.3-1.3-3.5-2l1-1.7c1.2,0.7,2.3,1.4,3.4,2L357.8,433.7z M350.9,429.5
		c-1.1-0.7-2.2-1.5-3.3-2.3l1.1-1.6c1.1,0.8,2.2,1.5,3.3,2.2L350.9,429.5z M371.3,428.9c-0.5-1.1-1.1-2.2-1.9-3.4l1.7-1
		c0.8,1.3,1.4,2.5,2,3.6L371.3,428.9z M344.3,424.9c-1.1-0.8-2.1-1.6-3.2-2.4l1.2-1.6c1.1,0.8,2.1,1.6,3.2,2.4L344.3,424.9z
		 M367.3,422.2c-0.7-1-1.5-2.1-2.3-3.2l1.6-1.2c0.9,1.1,1.7,2.2,2.4,3.3L367.3,422.2z M337.9,419.9c-1-0.8-2.1-1.7-3.1-2.6l1.3-1.5
		c1,0.9,2.1,1.7,3.1,2.5L337.9,419.9z M362.4,415.9c-0.8-1-1.7-2-2.6-3l1.5-1.3c0.9,1,1.8,2.1,2.6,3.1L362.4,415.9z M331.8,414.8
		c-0.8-0.7-1.5-1.3-2.3-2l-0.7-0.6l1.3-1.5l0.7,0.6c0.8,0.7,1.5,1.4,2.3,2L331.8,414.8z M357.2,409.9c-0.9-1-1.8-1.9-2.7-2.9
		l1.4-1.4c0.9,1,1.9,2,2.8,2.9L357.2,409.9z M325.8,409.4c-1-0.9-2-1.9-2.9-2.8l1.4-1.4c0.9,0.9,1.9,1.8,2.9,2.8L325.8,409.4z
		 M351.7,404.2c-0.9-0.9-1.9-1.9-2.8-2.8l1.4-1.4c1,0.9,1.9,1.9,2.9,2.8L351.7,404.2z M320.1,403.8c-1-1-1.9-1.9-2.8-2.9l1.5-1.4
		c0.9,0.9,1.8,1.9,2.8,2.9L320.1,403.8z M345.9,398.6c-0.7-0.6-1.4-1.3-2.1-1.9L343,396l1.3-1.5l0.9,0.8c0.7,0.6,1.4,1.3,2.1,1.9
		L345.9,398.6z M314.6,397.9c-0.9-1-1.8-2-2.7-3l1.5-1.3c0.8,1,1.7,2,2.6,3L314.6,397.9z M340,393.3c-1-0.9-2-1.7-3-2.6l1.3-1.5
		c1,0.8,2,1.7,3.1,2.6L340,393.3z M309.3,391.7c-0.9-1.1-1.7-2.2-2.5-3.2l1.6-1.2c0.7,1,1.6,2.1,2.4,3.1L309.3,391.7z M333.8,388.3
		c-1.1-0.8-2.1-1.7-3.1-2.4l1.2-1.6c1,0.8,2.1,1.6,3.2,2.5L333.8,388.3z M304.6,385.2c-0.8-1.2-1.5-2.4-2.1-3.5l1.8-1
		c0.6,1,1.3,2.2,2,3.4L304.6,385.2z M327.5,383.5c-1.1-0.8-2.2-1.6-3.3-2.3l1.1-1.7c1.1,0.7,2.2,1.5,3.3,2.3L327.5,383.5z
		 M320.9,379c-1.2-0.7-2.3-1.4-3.4-2.1l1-1.7c1.1,0.6,2.3,1.3,3.5,2.1L320.9,379z M300.7,378c-0.6-1.5-0.9-2.9-0.9-4
		c0-0.1,0-0.2,0-0.3l2,0.1c0,0.1,0,0.1,0,0.2c0,0.9,0.3,2,0.7,3.3L300.7,378z M314.1,375.1c-1.3-0.6-2.5-1.2-3.6-1.7l0.8-1.8
		c1.1,0.5,2.4,1.1,3.7,1.7L314.1,375.1z M306.9,372.2c-1.5-0.4-2.7-0.5-3.5-0.3l-0.4-2c1.2-0.2,2.6-0.1,4.4,0.3L306.9,372.2z"/>
</g>
<g>
	<path class="st0" d="M410.6,275.4l-0.3,0l0-2l0.3,0c1.3,0,2.6,0,3.7-0.1l0.1,2C413.2,275.3,412,275.4,410.6,275.4z M406.2,275.3
		c-1.3-0.1-2.6-0.1-4-0.2l0.1-2c1.4,0.1,2.7,0.2,4,0.2L406.2,275.3z M418.5,274.7l-0.4-2c1.7-0.4,2.4-0.9,2.5-1.2l1.9,0.4
		C422.2,273.3,420.9,274.2,418.5,274.7z M398.2,274.7c-1.3-0.1-2.6-0.3-4-0.4l0.2-2c1.4,0.1,2.7,0.3,4,0.4L398.2,274.7z
		 M390.2,273.8c-1.3-0.2-2.6-0.3-4-0.5l0.3-2c1.3,0.2,2.7,0.4,4,0.5L390.2,273.8z M382.3,272.8c-1.3-0.2-2.6-0.4-4-0.6l0.3-2
		c1.3,0.2,2.7,0.4,3.9,0.6L382.3,272.8z M374.4,271.5c-1.3-0.2-2.6-0.4-4-0.7l0.3-2c1.3,0.2,2.6,0.5,3.9,0.7L374.4,271.5z
		 M420.5,271.1c-0.2-0.4-0.8-1.2-2.4-2.4l1.1-1.6c1.7,1.2,2.7,2.2,3.1,3.2L420.5,271.1z M366.5,270.1c-1.3-0.2-2.6-0.5-3.9-0.7
		l0.4-2c1.3,0.3,2.6,0.5,3.9,0.7L366.5,270.1z M358.6,268.6c-1.3-0.3-2.6-0.5-3.9-0.8l0.4-2c1.3,0.3,2.6,0.5,3.9,0.8L358.6,268.6z
		 M350.7,267c-1.3-0.3-2.6-0.6-3.9-0.8l0.4-2c1.3,0.3,2.6,0.6,3.9,0.8L350.7,267z M414.7,266.7c-1-0.6-2.2-1.2-3.5-1.8l0.8-1.8
		c1.3,0.6,2.6,1.2,3.6,1.8L414.7,266.7z M342.9,265.3c-1.1-0.2-2.1-0.5-3.2-0.7l-0.7-0.2l0.4-1.9l0.7,0.2c1.1,0.2,2.1,0.5,3.2,0.7
		L342.9,265.3z M335.1,263.5c-1.3-0.3-2.6-0.6-3.9-0.9l0.5-1.9c1.3,0.3,2.6,0.6,3.9,0.9L335.1,263.5z M407.5,263.4
		c-1.2-0.5-2.4-1-3.7-1.5l0.7-1.9c1.3,0.5,2.6,1,3.7,1.5L407.5,263.4z M327.3,261.6c-1.3-0.3-2.6-0.7-3.9-1l0.5-1.9
		c1.3,0.3,2.6,0.7,3.9,1L327.3,261.6z M400.1,260.4c-1.2-0.4-2.5-0.9-3.7-1.4l0.7-1.9c1.3,0.5,2.6,0.9,3.8,1.4L400.1,260.4z
		 M319.6,259.6c-1.3-0.3-2.6-0.7-3.9-1l0.5-1.9c1.3,0.3,2.6,0.7,3.9,1L319.6,259.6z M392.6,257.8c-1.2-0.4-2.5-0.8-3.8-1.3l0.6-1.9
		c1.3,0.4,2.6,0.8,3.8,1.3L392.6,257.8z M311.8,257.5c-1.3-0.4-2.6-0.7-3.9-1.1l0.6-1.9c1.3,0.4,2.5,0.7,3.8,1.1L311.8,257.5z
		 M385,255.3c-1.2-0.4-2.5-0.8-3.8-1.2l0.6-1.9c1.3,0.4,2.6,0.8,3.8,1.2L385,255.3z M304.1,255.2c-1.3-0.4-2.6-0.8-3.8-1.2l0.6-1.9
		c1.3,0.4,2.5,0.8,3.8,1.2L304.1,255.2z M377.4,253c-1.3-0.4-2.5-0.7-3.8-1.1l0.5-1.9c1.3,0.4,2.6,0.7,3.9,1.1L377.4,253z
		 M296.5,252.9c-1.3-0.4-2.6-0.8-3.8-1.2l0.6-1.9c1.2,0.4,2.5,0.8,3.8,1.2L296.5,252.9z M369.7,250.8c-1.3-0.4-2.6-0.7-3.9-1
		l0.5-1.9c1.3,0.4,2.6,0.7,3.9,1.1L369.7,250.8z M288.8,250.3c-1.3-0.5-2.6-0.9-3.8-1.3l0.7-1.9c1.2,0.4,2.5,0.9,3.8,1.3
		L288.8,250.3z M362,248.7c-1.3-0.3-2.6-0.7-3.9-1l0.5-1.9c1.3,0.3,2.6,0.7,3.9,1L362,248.7z M281.3,247.6c-1.3-0.5-2.6-1-3.7-1.5
		l0.8-1.8c1.2,0.5,2.4,1,3.7,1.5L281.3,247.6z M354.3,246.8c-1.3-0.3-2.6-0.6-3.9-0.9l0.5-1.9c1.3,0.3,2.6,0.6,3.9,0.9L354.3,246.8z
		 M346.5,244.9l-3.9-0.9l0.4-2l3.9,0.9L346.5,244.9z M273.8,244.5c-1.3-0.6-2.6-1.2-3.7-1.7l0.9-1.8c1.1,0.5,2.3,1.1,3.6,1.7
		L273.8,244.5z M338.7,243.1c-1.3-0.3-2.6-0.6-3.9-0.9l0.4-2c1.3,0.3,2.6,0.6,3.9,0.9L338.7,243.1z M330.9,241.5
		c-1.3-0.3-2.6-0.5-3.9-0.8l0.4-2c1.3,0.3,2.6,0.5,3.9,0.8L330.9,241.5z M266.6,240.8c-1.5-0.9-2.6-1.8-3.4-2.6l1.5-1.4
		c0.6,0.7,1.6,1.4,3,2.3L266.6,240.8z M323.1,239.9c-1.3-0.3-2.6-0.5-3.9-0.7l0.4-2c1.3,0.2,2.6,0.5,3.9,0.7L323.1,239.9z
		 M315.2,238.4c-1.3-0.2-2.6-0.5-3.9-0.7l0.3-2c1.3,0.2,2.6,0.5,4,0.7L315.2,238.4z M307.3,237.1c-1.3-0.2-2.7-0.4-3.9-0.6l0.3-2
		c1.3,0.2,2.6,0.4,4,0.6L307.3,237.1z M299.4,235.9c-1.3-0.2-2.7-0.4-4-0.5l0.3-2c1.3,0.2,2.6,0.3,4,0.5L299.4,235.9z M264.4,235
		l-1.1-1.7c0.9-0.6,2.3-1,4.2-1.3l0.3,2C265.8,234.3,264.9,234.7,264.4,235z M291.5,234.9c-1.4-0.2-2.7-0.3-4-0.4l0.2-2
		c1.3,0.1,2.6,0.3,4,0.4L291.5,234.9z M283.6,234.1c-1.4-0.1-2.7-0.2-4-0.3l0.1-2c1.3,0.1,2.6,0.2,4,0.3L283.6,234.1z M271.7,233.7
		l-0.1-2c1.2,0,2.6,0,4.1,0l0,2C274.2,233.6,272.9,233.7,271.7,233.7z"/>
</g>
<g>
	
		<rect x="273.6" y="37.6" transform="matrix(0.9631 -0.2691 0.2691 0.9631 -11.6541 77.1042)" class="st1" width="3.5" height="86.9"/>
</g>
<g>
	
		<rect x="146.1" y="386.4" transform="matrix(0.9995 -3.132717e-002 3.132717e-002 0.9995 -13.3766 4.8194)" class="st2" width="2" height="85.8"/>
</g>
<g>
	
		<rect x="102.5" y="407.3" transform="matrix(0.3511 -0.9363 0.9363 0.3511 -359.1687 392.3404)" class="st2" width="2" height="96.1"/>
</g>
<g>
	
		<rect x="84.6" y="496.3" transform="matrix(0.7323 -0.681 0.681 0.7323 -306.1522 215.8513)" class="st2" width="73.8" height="2"/>
</g>
<g>
	
		<rect x="185.5" y="435.3" transform="matrix(2.985393e-002 -0.9996 0.9996 2.985393e-002 -292.205 645.5389)" class="st2" width="2" height="76"/>
</g>
<g>
	
		<rect x="322.9" y="474.1" transform="matrix(0.8842 -0.467 0.467 0.8842 -179.9861 224.1104)" class="st2" width="78.4" height="2"/>
</g>
<g>
	
		<rect x="410.1" y="453.3" transform="matrix(0.8882 -0.4594 0.4594 0.8882 -176.6881 243.0355)" class="st2" width="2" height="62.6"/>
</g>
<g>
	
		<rect x="395.4" y="445.6" transform="matrix(0.9646 -0.2636 0.2636 0.9646 -102.383 130.23)" class="st2" width="77.4" height="2"/>
</g>
<g>
	
		<rect x="274.6" y="331.3" transform="matrix(0.8859 -0.4639 0.4639 0.8859 -118.1874 184.238)" class="st2" width="81.5" height="2"/>
</g>
<g>
	
		<rect x="462.3" y="275.4" transform="matrix(0.9268 -0.3757 0.3757 0.9268 -83.7727 196.9829)" class="st2" width="2" height="75.8"/>
</g>
<g>
	
		<rect x="447.2" y="264.2" transform="matrix(0.9627 -0.2706 0.2706 0.9627 -53.2848 143.9076)" class="st2" width="96.1" height="2"/>
</g>
<g>
	
		<rect x="403.2" y="227.3" transform="matrix(8.401563e-002 -0.9965 0.9965 8.401563e-002 187.6446 660.7759)" class="st2" width="100.1" height="2"/>
</g>
<g>
	
		<rect x="87" y="137.7" transform="matrix(0.9863 -0.1649 0.1649 0.9863 -20.4322 32.8697)" class="st3" width="201.4" height="3.5"/>
</g>
<g>
	<rect x="193.2" y="166" transform="matrix(0.408 -0.913 0.913 0.408 -77.35 302.0294)" class="st2" width="2" height="89.3"/>
</g>
<g>
	
		<rect x="121.3" y="243.7" transform="matrix(0.9623 -0.2719 0.2719 0.9623 -59.7802 57.9608)" class="st2" width="115.9" height="2"/>
</g>
<g>
	
		<rect x="175.7" y="262.2" transform="matrix(0.4992 -0.8665 0.8665 0.4992 -120.2258 318.3107)" class="st2" width="79.1" height="2"/>
</g>
<g>
	
		<rect x="336.3" y="325.1" transform="matrix(0.6686 -0.7436 0.7436 0.6686 -188.4262 385.2607)" class="st3" width="3.5" height="157.9"/>
</g>
<g>
	
		<rect x="124.8" y="409.9" transform="matrix(0.7343 -0.6788 0.6788 0.7343 -222.6395 254.5558)" class="st3" width="178.2" height="3.5"/>
</g>
<g>
	
		<rect x="255.4" y="225" transform="matrix(0.9403 -0.3403 0.3403 0.9403 -83.3651 104.8295)" class="st3" width="3.5" height="130.1"/>
</g>
<g>
	
		<rect x="340.3" y="143.7" transform="matrix(0.2246 -0.9745 0.9745 0.2246 18.142 529.8946)" class="st3" width="3.5" height="219.6"/>
</g>
<g>
	
		<rect x="202" y="174.1" transform="matrix(0.4408 -0.8976 0.8976 0.4408 -11.9066 332.6605)" class="st3" width="118.1" height="3.5"/>
</g>
<g>
	<g>
		<path d="M332.9,121.6h3.7v5c-0.6,0.2-1.2,0.3-1.7,0.4s-1.2,0.1-1.8,0.1c-1.5,0-2.7-0.4-3.5-1.3s-1.2-2.2-1.2-3.8
			c0-1.6,0.5-2.9,1.4-3.8c0.9-0.9,2.2-1.4,3.8-1.4c1,0,2,0.2,3,0.6l-0.6,1.4c-0.8-0.4-1.6-0.6-2.4-0.6c-1.1,0-1.9,0.3-2.5,1
			c-0.6,0.7-0.9,1.6-0.9,2.7c0,1.2,0.3,2.1,0.8,2.8c0.6,0.6,1.4,1,2.4,1c0.5,0,1.1-0.1,1.7-0.2V123h-2.1V121.6z"/>
	</g>
	<g>
		<path d="M343.5,127l-0.3-1.1h-0.1c-0.4,0.5-0.7,0.8-1.1,0.9s-0.8,0.2-1.4,0.2c-0.7,0-1.3-0.2-1.7-0.6c-0.4-0.4-0.6-1-0.6-1.7
			c0-0.8,0.3-1.4,0.9-1.8s1.5-0.6,2.6-0.6l1.3,0V122c0-0.5-0.1-0.8-0.3-1.1c-0.2-0.2-0.6-0.4-1-0.4c-0.4,0-0.8,0.1-1.1,0.2
			s-0.7,0.2-1,0.4l-0.5-1.1c0.4-0.2,0.9-0.4,1.3-0.5s0.9-0.2,1.4-0.2c1,0,1.7,0.2,2.2,0.6c0.5,0.4,0.7,1.1,0.7,2v5.1H343.5z
			 M341.2,125.9c0.6,0,1.1-0.2,1.4-0.5c0.4-0.3,0.5-0.8,0.5-1.4v-0.7l-1,0c-0.8,0-1.3,0.2-1.7,0.4c-0.3,0.2-0.5,0.6-0.5,1
			c0,0.3,0.1,0.6,0.3,0.8S340.7,125.9,341.2,125.9z"/>
	</g>
	<g>
		<path d="M349.8,125.8c0.4,0,0.8-0.1,1.2-0.2v1.2c-0.2,0.1-0.4,0.1-0.7,0.2c-0.3,0.1-0.6,0.1-0.9,0.1c-1.5,0-2.3-0.8-2.3-2.4v-4.1
			h-1v-0.7l1.1-0.6l0.5-1.6h1v1.7h2.2v1.2h-2.2v4c0,0.4,0.1,0.7,0.3,0.9C349.2,125.7,349.4,125.8,349.8,125.8z"/>
	</g>
	<g>
		<path d="M355.7,127.1c-1.2,0-2.1-0.3-2.8-1c-0.7-0.7-1-1.6-1-2.8c0-1.2,0.3-2.2,0.9-2.9s1.5-1.1,2.5-1.1c1,0,1.8,0.3,2.4,0.9
			s0.9,1.4,0.9,2.5v0.9h-5c0,0.7,0.2,1.3,0.6,1.7s0.9,0.6,1.6,0.6c0.4,0,0.9,0,1.2-0.1c0.4-0.1,0.8-0.2,1.2-0.4v1.3
			c-0.4,0.2-0.8,0.3-1.2,0.4S356.3,127.1,355.7,127.1z M355.4,120.5c-0.5,0-0.9,0.2-1.2,0.5c-0.3,0.3-0.5,0.8-0.6,1.4h3.4
			c0-0.6-0.2-1.1-0.5-1.4S356,120.5,355.4,120.5z"/>
	</g>
	<g>
		<path d="M366.7,127l-1-3.5c-0.1-0.4-0.3-1.2-0.6-2.6H365c-0.3,1.2-0.5,2.1-0.6,2.6l-1,3.5h-1.8l-2.1-7.6h1.6l1,3.7
			c0.2,0.9,0.4,1.7,0.5,2.4h0c0-0.3,0.1-0.7,0.2-1.1c0.1-0.4,0.2-0.8,0.2-1l1.1-4h1.8l1.1,4c0.1,0.2,0.2,0.6,0.3,1
			c0.1,0.5,0.2,0.8,0.2,1.1h0.1c0.1-0.6,0.2-1.3,0.5-2.4l1-3.7h1.6l-2.1,7.6H366.7z"/>
	</g>
	<g>
		<path d="M376.7,127l-0.3-1.1h-0.1c-0.4,0.5-0.7,0.8-1.1,0.9s-0.8,0.2-1.4,0.2c-0.7,0-1.3-0.2-1.7-0.6c-0.4-0.4-0.6-1-0.6-1.7
			c0-0.8,0.3-1.4,0.9-1.8s1.5-0.6,2.6-0.6l1.3,0V122c0-0.5-0.1-0.8-0.3-1.1c-0.2-0.2-0.6-0.4-1-0.4c-0.4,0-0.8,0.1-1.1,0.2
			s-0.7,0.2-1,0.4l-0.5-1.1c0.4-0.2,0.9-0.4,1.3-0.5s0.9-0.2,1.4-0.2c1,0,1.7,0.2,2.2,0.6c0.5,0.4,0.7,1.1,0.7,2v5.1H376.7z
			 M374.3,125.9c0.6,0,1.1-0.2,1.4-0.5c0.4-0.3,0.5-0.8,0.5-1.4v-0.7l-1,0c-0.8,0-1.3,0.2-1.7,0.4c-0.3,0.2-0.5,0.6-0.5,1
			c0,0.3,0.1,0.6,0.3,0.8S373.9,125.9,374.3,125.9z"/>
	</g>
	<g>
		<path d="M378.9,119.4h1.8l1.5,4.3c0.2,0.6,0.4,1.2,0.5,1.7h0.1c0-0.3,0.1-0.6,0.2-0.9s0.7-2.1,1.7-5.1h1.7l-3.2,8.6
			c-0.6,1.6-1.6,2.4-2.9,2.4c-0.4,0-0.7,0-1-0.1V129c0.2,0.1,0.5,0.1,0.8,0.1c0.8,0,1.3-0.4,1.6-1.3l0.3-0.7L378.9,119.4z"/>
	</g>
</g>
<g>
	<g>
		<path class="st4" d="M259.5,247.9h-48.9c-0.9,0-1.7-0.8-1.7-1.7v-34.7c0-0.9,0.8-1.7,1.7-1.7h48.9c0.9,0,1.7,0.8,1.7,1.7v34.7
			C261.2,247.2,260.4,247.9,259.5,247.9z"/>
		<path d="M259.5,249.9h-48.9c-2,0-3.7-1.7-3.7-3.7v-34.7c0-2,1.7-3.7,3.7-3.7h48.9c2,0,3.7,1.7,3.7,3.7v34.7
			C263.2,248.3,261.5,249.9,259.5,249.9z M210.9,245.9h48.3v-34.1h-48.3V245.9z"/>
	</g>
	<g>
		<g>
			<g>
				<g>
					<rect x="224.5" y="217.5" width="10.5" height="4"/>
				</g>
				<g>
					<g>
						<polygon points="226,214.5 217.4,219.5 226,224.5 						"/>
					</g>
				</g>
			</g>
			<g>
				<g>
					<rect x="221.8" y="230.6" width="10.5" height="4"/>
				</g>
				<g>
					<g>
						<polygon points="223.2,227.6 214.6,232.6 223.2,237.6 						"/>
					</g>
				</g>
			</g>
		</g>
		<g>
			<g>
				<g>
					<rect x="234.9" y="236.3" width="10.5" height="4"/>
				</g>
				<g>
					<g>
						<polygon points="244,243.3 252.6,238.3 244,233.3 						"/>
					</g>
				</g>
			</g>
			<g>
				<g>
					<rect x="237.7" y="223.2" width="10.5" height="4"/>
				</g>
				<g>
					<g>
						<polygon points="246.8,230.2 255.4,225.2 246.8,220.2 						"/>
					</g>
				</g>
			</g>
		</g>
	</g>
</g>
<g>
	<g>
		<ellipse class="st4" cx="287.1" cy="122.9" rx="26" ry="23"/>
		<path d="M287.1,147.9c-15.4,0-28-11.2-28-25s12.5-25,28-25s28,11.2,28,25S302.5,147.9,287.1,147.9z M287.1,101.9
			c-13.2,0-24,9.4-24,21s10.7,21,24,21s24-9.4,24-21S300.3,101.9,287.1,101.9z"/>
	</g>
	<g>
		<g>
			<g>
				<rect x="276.5" y="106.3" transform="matrix(0.8102 -0.5862 0.5862 0.8102 -12.1437 184.2879)" width="4" height="9.2"/>
			</g>
			<g>
				<g>
					<polygon points="276.3,116.3 285.4,120.4 284.3,110.5 					"/>
				</g>
			</g>
		</g>
		<g>
			<g>
				<rect x="275" y="125.4" transform="matrix(0.8343 -0.5513 0.5513 0.8343 -23.794 175.6217)" width="10.5" height="4"/>
			</g>
			<g>
				<g>
					<polygon points="274.3,125.3 269.9,134.3 279.8,133.7 					"/>
				</g>
			</g>
		</g>
		<g>
			<g>
				<rect x="293.8" y="130.3" transform="matrix(0.8101 -0.5862 0.5862 0.8101 -22.9073 199.0307)" width="4" height="9.2"/>
			</g>
			<g>
				<g>
					<polygon points="298,129.4 288.9,125.4 289.9,135.3 					"/>
				</g>
			</g>
		</g>
		<g>
			<g>
				<rect x="288.6" y="116.4" transform="matrix(0.8343 -0.5513 0.5513 0.8343 -16.5587 181.6526)" width="10.5" height="4"/>
			</g>
			<g>
				<g>
					<polygon points="299.8,120.4 304.3,111.5 294.3,112.1 					"/>
				</g>
			</g>
		</g>
	</g>
</g>
<g>
	<g>
		<path class="st4" d="M103.8,175.7H73.4c-1.1,0-2.1-0.9-2.1-2.1v-35.1c0-1.1,0.9-2.1,2.1-2.1h30.4c1.1,0,2.1,0.9,2.1,2.1v35.1
			C105.8,174.8,104.9,175.7,103.8,175.7z"/>
		<path d="M103.8,177.7H73.4c-2.2,0-4.1-1.8-4.1-4.1v-35.1c0-2.2,1.8-4.1,4.1-4.1h30.4c2.2,0,4.1,1.8,4.1,4.1v35.1
			C107.8,175.9,106,177.7,103.8,177.7z M73.4,138.5l-0.1,35.2l30.4,0.1c0,0,0.1,0,0.1-0.1v-35.1L73.4,138.5z"/>
	</g>
	<g>
		<g>
			<rect x="76.3" y="143.8" width="24.6" height="4"/>
		</g>
		<g>
			<rect x="76.3" y="154.1" width="24.6" height="4"/>
		</g>
		<g>
			<rect x="76.3" y="164.4" width="24.6" height="4"/>
		</g>
	</g>
</g>
<g>
	<g>
		<path d="M61.1,117.2c0,1.6-0.5,2.9-1.4,3.8c-0.9,0.9-2.2,1.3-4,1.3h-2.8v-10H56c1.6,0,2.8,0.4,3.7,1.3
			C60.6,114.4,61.1,115.6,61.1,117.2z M59.4,117.2c0-2.4-1.1-3.6-3.4-3.6h-1.4v7.3h1.2C58.2,120.9,59.4,119.7,59.4,117.2z"/>
	</g>
	<g>
		<path d="M71.5,122.3h-2l-4.9-8h-0.1l0,0.4c0.1,0.8,0.1,1.6,0.1,2.3v5.2h-1.5v-10h2l4.9,7.9h0c0-0.1,0-0.5-0.1-1.1s0-1.2,0-1.5
			v-5.2h1.5V122.3z"/>
	</g>
	<g>
		<path d="M80,119.5c0,0.9-0.3,1.6-1,2.1s-1.5,0.8-2.7,0.8s-2.1-0.2-2.8-0.5v-1.5c0.5,0.2,0.9,0.4,1.5,0.5c0.5,0.1,1,0.2,1.4,0.2
			c0.6,0,1.1-0.1,1.4-0.4c0.3-0.2,0.5-0.6,0.5-1c0-0.4-0.1-0.7-0.4-1s-0.9-0.6-1.8-0.9c-0.9-0.4-1.6-0.8-1.9-1.3s-0.6-1-0.6-1.7
			c0-0.8,0.3-1.5,0.9-2s1.4-0.7,2.4-0.7c1,0,1.9,0.2,2.9,0.6l-0.5,1.3c-0.9-0.4-1.7-0.6-2.4-0.6c-0.5,0-0.9,0.1-1.2,0.3
			s-0.4,0.5-0.4,0.9c0,0.3,0.1,0.5,0.2,0.7s0.3,0.4,0.5,0.5s0.7,0.4,1.4,0.6c0.7,0.3,1.3,0.6,1.6,0.9s0.6,0.6,0.8,0.9
			S80,119.1,80,119.5z"/>
	</g>
	<g>
		<path d="M91.3,119.5c0,0.9-0.3,1.6-1,2.1s-1.5,0.8-2.7,0.8s-2.1-0.2-2.8-0.5v-1.5c0.5,0.2,0.9,0.4,1.5,0.5c0.5,0.1,1,0.2,1.4,0.2
			c0.6,0,1.1-0.1,1.4-0.4c0.3-0.2,0.5-0.6,0.5-1c0-0.4-0.1-0.7-0.4-1s-0.9-0.6-1.8-0.9c-0.9-0.4-1.6-0.8-1.9-1.3s-0.6-1-0.6-1.7
			c0-0.8,0.3-1.5,0.9-2s1.4-0.7,2.4-0.7c1,0,1.9,0.2,2.9,0.6l-0.5,1.3c-0.9-0.4-1.7-0.6-2.4-0.6c-0.5,0-0.9,0.1-1.2,0.3
			s-0.4,0.5-0.4,0.9c0,0.3,0.1,0.5,0.2,0.7s0.3,0.4,0.5,0.5s0.7,0.4,1.4,0.6c0.7,0.3,1.3,0.6,1.6,0.9s0.6,0.6,0.8,0.9
			S91.3,119.1,91.3,119.5z"/>
	</g>
	<g>
		<path d="M96.4,122.4c-1.2,0-2.1-0.3-2.8-1c-0.7-0.7-1-1.6-1-2.8c0-1.2,0.3-2.2,0.9-2.9s1.5-1.1,2.5-1.1c1,0,1.8,0.3,2.4,0.9
			s0.9,1.4,0.9,2.5v0.9h-5c0,0.7,0.2,1.3,0.6,1.7s0.9,0.6,1.6,0.6c0.4,0,0.9,0,1.2-0.1c0.4-0.1,0.8-0.2,1.2-0.4v1.3
			c-0.4,0.2-0.8,0.3-1.2,0.4S96.9,122.4,96.4,122.4z M96.1,115.8c-0.5,0-0.9,0.2-1.2,0.5c-0.3,0.3-0.5,0.8-0.6,1.4h3.4
			c0-0.6-0.2-1.1-0.5-1.4S96.6,115.8,96.1,115.8z"/>
	</g>
	<g>
		<path d="M104.9,114.6c0.3,0,0.6,0,0.8,0.1l-0.2,1.5c-0.2-0.1-0.5-0.1-0.7-0.1c-0.6,0-1.2,0.2-1.6,0.6c-0.4,0.4-0.6,1-0.6,1.6v4
			h-1.6v-7.6h1.3l0.2,1.3h0.1c0.3-0.5,0.6-0.8,1-1.1C104.1,114.7,104.5,114.6,104.9,114.6z"/>
	</g>
	<g>
		<path d="M108.9,122.3l-2.9-7.6h1.7l1.5,4.4c0.3,0.7,0.4,1.3,0.5,1.8h0.1c0-0.3,0.2-0.9,0.5-1.8l1.5-4.4h1.7l-2.9,7.6H108.9z"/>
	</g>
	<g>
		<path d="M117.9,122.4c-1.2,0-2.1-0.3-2.8-1c-0.7-0.7-1-1.6-1-2.8c0-1.2,0.3-2.2,0.9-2.9s1.5-1.1,2.5-1.1c1,0,1.8,0.3,2.4,0.9
			s0.9,1.4,0.9,2.5v0.9h-5c0,0.7,0.2,1.3,0.6,1.7s0.9,0.6,1.6,0.6c0.4,0,0.9,0,1.2-0.1c0.4-0.1,0.8-0.2,1.2-0.4v1.3
			c-0.4,0.2-0.8,0.3-1.2,0.4S118.5,122.4,117.9,122.4z M117.7,115.8c-0.5,0-0.9,0.2-1.2,0.5c-0.3,0.3-0.5,0.8-0.6,1.4h3.4
			c0-0.6-0.2-1.1-0.5-1.4S118.2,115.8,117.7,115.8z"/>
	</g>
	<g>
		<path d="M126.5,114.6c0.3,0,0.6,0,0.8,0.1l-0.2,1.5c-0.2-0.1-0.5-0.1-0.7-0.1c-0.6,0-1.2,0.2-1.6,0.6c-0.4,0.4-0.6,1-0.6,1.6v4
			h-1.6v-7.6h1.3l0.2,1.3h0.1c0.3-0.5,0.6-0.8,1-1.1C125.6,114.7,126.1,114.6,126.5,114.6z"/>
	</g>
</g>
<g>
	<g>
		<path class="st4" d="M316,39.4c0.5-1.2,0.8-2.4,0.8-3.7c0-6.1-6-11.1-13.5-11.1c-1,0-1.9,0.1-2.8,0.3c-2.2-4.4-7.4-7.5-13.5-7.5
			c-4.2,0-8,1.5-10.7,3.9c-1.8-1.5-4.4-2.4-7.1-2.4c-1.1,0-2.2,0.1-3.2,0.4c-1.7-4.3-5.9-7.4-10.8-7.4c-5.3,0-9.7,3.5-11.2,8.3
			c-2.4-1.7-5.8-2.8-9.6-2.8c-3.7,0-7.1,1-9.4,2.7c-1.5-0.7-3.2-1.2-5-1.2c-6.3,0-11.4,5.1-11.4,11.4c0,4.6,2.7,8.5,6.6,10.3
			c-0.3,0.9-0.5,1.9-0.5,2.8c0,5.7,5.6,10.3,12.5,10.3c0.6,0,1.1,0,1.7-0.1c0,0,0,0.1,0,0.1c0,7.2,7.5,13,16.8,13
			c6.4,0,11.9-2.7,14.8-6.8c2.4,2.3,5.9,3.8,9.8,3.8c2.4,0,4.6-0.6,6.5-1.5c2.6,1.6,5.7,2.5,9.1,2.5c7.2,0,13.2-4.1,15-9.8
			c1.1,0.2,2.2,0.3,3.3,0.3c8,0,14.5-4.4,14.5-9.9C318.8,43.1,317.7,41,316,39.4z"/>
		<path d="M245.7,67.6c-9.4,0-17.1-5.8-17.8-13c-0.3,0-0.5,0-0.7,0c-7.5,0-13.5-5-13.5-11.3c0-0.8,0.1-1.6,0.3-2.3
			c-3.9-2.2-6.4-6.3-6.4-10.8c0-6.8,5.5-12.4,12.4-12.4c1.7,0,3.4,0.3,4.9,1c2.6-1.6,5.9-2.5,9.5-2.5c3.4,0,6.6,0.8,9.1,2.3
			c1.9-4.7,6.6-7.8,11.7-7.8c4.9,0,9.3,2.8,11.4,7.3c3.4-0.7,7,0,9.7,1.9c2.9-2.3,6.7-3.6,10.7-3.6c6,0,11.4,2.9,14,7.4
			c0.8-0.1,1.5-0.2,2.3-0.2c8,0,14.5,5.4,14.5,12.1c0,1.2-0.2,2.3-0.6,3.5c1.7,1.8,2.6,3.9,2.6,6.1c0,6.6-8.5,11.9-18.2,10.7
			c-2.3,5.7-8.6,9.7-15.7,9.7c-3.3,0-6.4-0.8-9.1-2.4c-2,0.9-4.2,1.4-6.5,1.4c-3.6,0-7-1.2-9.7-3.3
			C257.4,65.2,251.8,67.6,245.7,67.6z M230,52.4l0,1.3c0,6.6,7.1,12,15.8,12c5.8,0,11.2-2.4,13.9-6.4l0.7-0.9l0.8,0.8
			c2.3,2.2,5.6,3.5,9.1,3.5c2.1,0,4.2-0.5,6.1-1.4l0.5-0.2l0.5,0.3c2.5,1.5,5.5,2.4,8.6,2.4c6.5,0,12.3-3.7,14.1-9.1l0.3-0.8
			l0.8,0.1c1.1,0.2,2.2,0.3,3.2,0.3c7.4,0,13.5-4,13.5-8.9c0-1.8-0.9-3.6-2.5-5.1l-0.5-0.5l0.3-0.7c0.5-1.1,0.7-2.2,0.7-3.3
			c0-5.6-5.6-10.1-12.5-10.1c-0.9,0-1.8,0.1-2.7,0.2l-0.7,0.1l-0.3-0.7c-2.1-4.2-7-6.9-12.6-6.9c-3.8,0-7.4,1.3-10,3.6l-0.6,0.6
			l-0.7-0.5c-1.7-1.4-4-2.2-6.5-2.2c-1,0-2,0.1-2.9,0.4l-0.9,0.2l-0.3-0.8c-1.6-4.1-5.5-6.8-9.9-6.8c-4.7,0-8.9,3.1-10.2,7.6
			l-0.4,1.4l-1.1-0.8c-2.3-1.7-5.6-2.6-9-2.6c-3.3,0-6.6,0.9-8.8,2.5l-0.5,0.3l-0.5-0.3c-1.4-0.7-3-1.1-4.6-1.1
			c-5.7,0-10.4,4.6-10.4,10.4c0,4,2.4,7.7,6,9.4l0.8,0.4l-0.3,0.9c-0.3,0.8-0.4,1.7-0.4,2.5c0,5.1,5.2,9.3,11.5,9.3
			c0.5,0,1,0,1.6-0.1L230,52.4z"/>
	</g>
	<g>
		<g>
			<path d="M245.7,36.4h-4.8v-8.6h4.8V29h-3.4v2.3h3.2v1.2h-3.2v2.7h3.4V36.4z"/>
		</g>
		<g>
			<path d="M248.8,33.1l-2.2-3.2h1.6l1.5,2.3l1.5-2.3h1.6l-2.2,3.2l2.3,3.3h-1.6l-1.6-2.4l-1.6,2.4h-1.6L248.8,33.1z"/>
		</g>
		<g>
			<path d="M256.4,35.4c0.3,0,0.7-0.1,1-0.2v1c-0.2,0.1-0.3,0.1-0.6,0.2s-0.5,0.1-0.7,0.1c-1.3,0-2-0.7-2-2.1V31h-0.9v-0.6l0.9-0.5
				l0.5-1.4h0.8v1.4h1.8v1h-1.8v3.5c0,0.3,0.1,0.6,0.2,0.7S256.1,35.4,256.4,35.4z"/>
		</g>
		<g>
			<path d="M261.5,36.5c-1,0-1.8-0.3-2.4-0.9s-0.9-1.4-0.9-2.4c0-1.1,0.3-1.9,0.8-2.5s1.3-0.9,2.2-0.9c0.9,0,1.5,0.3,2,0.8
				s0.7,1.2,0.7,2.1v0.7h-4.3c0,0.6,0.2,1.1,0.5,1.5s0.8,0.5,1.4,0.5c0.4,0,0.7,0,1.1-0.1s0.7-0.2,1.1-0.4v1.1
				c-0.3,0.2-0.7,0.3-1,0.3S262,36.5,261.5,36.5z M261.3,30.9c-0.4,0-0.8,0.1-1.1,0.4s-0.4,0.7-0.5,1.2h2.9c0-0.5-0.1-0.9-0.4-1.2
				S261.7,30.9,261.3,30.9z"/>
		</g>
		<g>
			<path d="M268.9,29.8c0.3,0,0.5,0,0.7,0.1l-0.1,1.3c-0.2,0-0.4-0.1-0.6-0.1c-0.6,0-1,0.2-1.3,0.5S267,32.4,267,33v3.4h-1.4v-6.5
				h1.1l0.2,1.1h0.1c0.2-0.4,0.5-0.7,0.8-0.9S268.5,29.8,268.9,29.8z"/>
		</g>
		<g>
			<path d="M276.5,36.4h-1.4v-4c0-0.5-0.1-0.9-0.3-1.1s-0.5-0.4-1-0.4c-0.6,0-1,0.2-1.3,0.5s-0.4,0.9-0.4,1.7v3.2h-1.4v-6.5h1.1
				l0.2,0.8h0.1c0.2-0.3,0.5-0.5,0.8-0.7s0.8-0.3,1.2-0.3c1.6,0,2.3,0.8,2.3,2.4V36.4z"/>
		</g>
		<g>
			<path d="M282.5,36.4l-0.3-0.9h0c-0.3,0.4-0.6,0.7-0.9,0.8s-0.7,0.2-1.2,0.2c-0.6,0-1.1-0.2-1.5-0.5s-0.5-0.8-0.5-1.5
				c0-0.7,0.2-1.2,0.7-1.5s1.3-0.5,2.3-0.6l1.1,0v-0.3c0-0.4-0.1-0.7-0.3-0.9s-0.5-0.3-0.9-0.3c-0.3,0-0.7,0-1,0.1s-0.6,0.2-0.9,0.3
				l-0.4-1c0.4-0.2,0.7-0.3,1.2-0.4s0.8-0.1,1.2-0.1c0.8,0,1.4,0.2,1.9,0.5s0.6,0.9,0.6,1.7v4.4H282.5z M280.4,35.5
				c0.5,0,0.9-0.1,1.2-0.4s0.5-0.7,0.5-1.2v-0.6l-0.8,0c-0.6,0-1.1,0.1-1.4,0.3s-0.4,0.5-0.4,0.9c0,0.3,0.1,0.5,0.3,0.7
				S280.1,35.5,280.4,35.5z"/>
		</g>
		<g>
			<path d="M286.7,36.4h-1.4v-9.1h1.4V36.4z"/>
		</g>
		<g>
			<path d="M243.3,50.8h-1.4v-4c0-0.5-0.1-0.9-0.3-1.1s-0.5-0.4-1-0.4c-0.6,0-1,0.2-1.3,0.5s-0.4,0.9-0.4,1.7v3.2h-1.4v-6.5h1.1
				l0.2,0.8h0.1c0.2-0.3,0.5-0.5,0.8-0.7s0.8-0.3,1.2-0.3c1.6,0,2.3,0.8,2.3,2.4V50.8z"/>
		</g>
		<g>
			<path d="M248,50.9c-1,0-1.8-0.3-2.4-0.9s-0.9-1.4-0.9-2.4c0-1.1,0.3-1.9,0.8-2.5s1.3-0.9,2.2-0.9c0.9,0,1.5,0.3,2,0.8
				s0.7,1.2,0.7,2.1v0.7h-4.3c0,0.6,0.2,1.1,0.5,1.5s0.8,0.5,1.4,0.5c0.4,0,0.7,0,1.1-0.1s0.7-0.2,1.1-0.4v1.1
				c-0.3,0.2-0.7,0.3-1,0.3S248.5,50.9,248,50.9z M247.8,45.3c-0.4,0-0.8,0.1-1.1,0.4s-0.4,0.7-0.5,1.2h2.9c0-0.5-0.1-0.9-0.4-1.2
				S248.2,45.3,247.8,45.3z"/>
		</g>
		<g>
			<path d="M254.5,49.8c0.3,0,0.7-0.1,1-0.2v1c-0.2,0.1-0.3,0.1-0.6,0.2s-0.5,0.1-0.7,0.1c-1.3,0-2-0.7-2-2.1v-3.5h-0.9v-0.6
				l0.9-0.5l0.5-1.4h0.8v1.4h1.8v1h-1.8v3.5c0,0.3,0.1,0.6,0.2,0.7S254.2,49.8,254.5,49.8z"/>
		</g>
		<g>
			<path d="M262.1,50.8l-0.8-3c-0.1-0.3-0.3-1.1-0.6-2.2h-0.1c-0.2,1.1-0.4,1.8-0.5,2.2l-0.9,3h-1.5l-1.8-6.5h1.4l0.8,3.2
				c0.2,0.8,0.3,1.5,0.4,2h0c0-0.3,0.1-0.6,0.2-1s0.1-0.6,0.2-0.8l1-3.4h1.5l1,3.4c0.1,0.2,0.1,0.5,0.2,0.9s0.1,0.7,0.2,0.9h0
				c0.1-0.5,0.2-1.2,0.4-2l0.8-3.2h1.4l-1.8,6.5H262.1z"/>
		</g>
		<g>
			<path d="M272.4,47.6c0,1.1-0.3,1.9-0.8,2.5s-1.3,0.9-2.3,0.9c-0.6,0-1.1-0.1-1.6-0.4s-0.8-0.7-1.1-1.2s-0.4-1.1-0.4-1.8
				c0-1.1,0.3-1.9,0.8-2.5s1.3-0.9,2.3-0.9c0.9,0,1.7,0.3,2.2,0.9S272.4,46.5,272.4,47.6z M267.6,47.6c0,1.5,0.6,2.2,1.7,2.2
				c1.1,0,1.6-0.7,1.6-2.2c0-1.5-0.6-2.2-1.7-2.2c-0.6,0-1,0.2-1.3,0.6S267.6,46.8,267.6,47.6z"/>
		</g>
		<g>
			<path d="M277.2,44.2c0.3,0,0.5,0,0.7,0.1l-0.1,1.3c-0.2,0-0.4-0.1-0.6-0.1c-0.6,0-1,0.2-1.3,0.5s-0.5,0.8-0.5,1.4v3.4h-1.4v-6.5
				h1.1l0.2,1.1h0.1c0.2-0.4,0.5-0.7,0.8-0.9S276.8,44.2,277.2,44.2z"/>
		</g>
		<g>
			<path d="M280.5,47.4l0.8-1l2-2.1h1.6l-2.6,2.8l2.8,3.7h-1.6l-2.1-2.8l-0.8,0.6v2.2h-1.4v-9.1h1.4v4.4L280.5,47.4L280.5,47.4z"/>
		</g>
		<g>
			<path d="M290.3,49c0,0.6-0.2,1.1-0.7,1.5s-1.1,0.5-2,0.5c-0.9,0-1.6-0.1-2.1-0.4v-1.2c0.8,0.4,1.5,0.5,2.1,0.5
				c0.8,0,1.3-0.3,1.3-0.8c0-0.2,0-0.3-0.1-0.4s-0.2-0.2-0.5-0.3s-0.5-0.3-0.9-0.4c-0.7-0.3-1.3-0.6-1.5-0.9s-0.4-0.7-0.4-1.1
				c0-0.6,0.2-1,0.7-1.3s1.1-0.5,1.8-0.5c0.8,0,1.5,0.2,2.2,0.5l-0.4,1c-0.7-0.3-1.3-0.4-1.8-0.4c-0.7,0-1.1,0.2-1.1,0.6
				c0,0.2,0.1,0.4,0.3,0.5s0.6,0.3,1.2,0.6c0.5,0.2,0.9,0.4,1.2,0.6s0.4,0.4,0.5,0.6S290.3,48.6,290.3,49z"/>
		</g>
	</g>
</g>
<g>
	<g>
		<path d="M284.3,216.8c0,0.9-0.3,1.6-1,2.1s-1.5,0.8-2.7,0.8s-2.1-0.2-2.8-0.5v-1.5c0.5,0.2,0.9,0.4,1.5,0.5s1,0.2,1.4,0.2
			c0.6,0,1.1-0.1,1.4-0.4s0.5-0.6,0.5-1c0-0.4-0.1-0.7-0.4-1s-0.9-0.6-1.8-0.9c-0.9-0.4-1.6-0.8-1.9-1.3s-0.6-1-0.6-1.7
			c0-0.8,0.3-1.5,0.9-2s1.4-0.7,2.4-0.7c1,0,1.9,0.2,2.9,0.6l-0.5,1.3c-0.9-0.4-1.7-0.6-2.4-0.6c-0.5,0-0.9,0.1-1.2,0.3
			s-0.4,0.5-0.4,0.9c0,0.3,0.1,0.5,0.2,0.7s0.3,0.4,0.5,0.5s0.7,0.4,1.4,0.6c0.7,0.3,1.3,0.6,1.6,0.9s0.6,0.6,0.8,0.9
			S284.3,216.3,284.3,216.8z"/>
	</g>
	<g>
		<path d="M292.3,219.5l-1-3.5c-0.1-0.4-0.3-1.2-0.6-2.6h-0.1c-0.3,1.2-0.5,2.1-0.6,2.6l-1,3.5h-1.8l-2.1-7.6h1.6l1,3.7
			c0.2,0.9,0.4,1.7,0.5,2.4h0c0-0.3,0.1-0.7,0.2-1.1c0.1-0.4,0.2-0.8,0.2-1l1.1-4h1.8l1.1,4c0.1,0.2,0.2,0.6,0.3,1
			c0.1,0.5,0.2,0.8,0.2,1.1h0.1c0.1-0.6,0.2-1.3,0.5-2.4l1-3.7h1.6l-2.1,7.6H292.3z"/>
	</g>
	<g>
		<path d="M297.5,209.9c0-0.3,0.1-0.5,0.2-0.7c0.2-0.2,0.4-0.2,0.7-0.2c0.3,0,0.5,0.1,0.7,0.2c0.2,0.2,0.2,0.4,0.2,0.7
			c0,0.3-0.1,0.5-0.2,0.6c-0.2,0.2-0.4,0.2-0.7,0.2c-0.3,0-0.5-0.1-0.7-0.2C297.5,210.4,297.5,210.2,297.5,209.9z M299.2,219.5h-1.6
			v-7.6h1.6V219.5z"/>
	</g>
	<g>
		<path d="M304.3,218.3c0.4,0,0.8-0.1,1.2-0.2v1.2c-0.2,0.1-0.4,0.1-0.7,0.2c-0.3,0.1-0.6,0.1-0.9,0.1c-1.5,0-2.3-0.8-2.3-2.4v-4.1
			h-1v-0.7l1.1-0.6l0.5-1.6h1v1.7h2.2v1.2h-2.2v4c0,0.4,0.1,0.7,0.3,0.9C303.7,218.2,304,218.3,304.3,218.3z"/>
	</g>
	<g>
		<path d="M310,219.6c-1.1,0-2-0.3-2.6-1c-0.6-0.7-0.9-1.6-0.9-2.9c0-1.3,0.3-2.2,0.9-2.9c0.6-0.7,1.5-1,2.7-1
			c0.8,0,1.5,0.1,2.2,0.4l-0.5,1.3c-0.7-0.3-1.2-0.4-1.7-0.4c-1.3,0-2,0.9-2,2.6c0,0.8,0.2,1.5,0.5,1.9c0.3,0.4,0.8,0.6,1.4,0.6
			c0.7,0,1.4-0.2,2-0.5v1.4c-0.3,0.2-0.6,0.3-0.9,0.4C310.9,219.6,310.5,219.6,310,219.6z"/>
	</g>
	<g>
		<path d="M320.5,219.5h-1.6v-4.6c0-0.6-0.1-1-0.4-1.3c-0.2-0.3-0.6-0.4-1.1-0.4c-0.7,0-1.2,0.2-1.5,0.6c-0.3,0.4-0.5,1.1-0.5,2v3.8
			h-1.6v-10.6h1.6v2.7c0,0.4,0,0.9-0.1,1.4h0.1c0.2-0.4,0.5-0.6,0.9-0.8c0.4-0.2,0.8-0.3,1.4-0.3c1.8,0,2.7,0.9,2.7,2.8V219.5z"/>
	</g>
</g>
<g>
	<g>
		<path class="st4" d="M303.7,370.3h-48.9c-0.9,0-1.7-0.8-1.7-1.7v-34.7c0-0.9,0.8-1.7,1.7-1.7h48.9c0.9,0,1.7,0.8,1.7,1.7v34.7
			C305.4,369.5,304.7,370.3,303.7,370.3z"/>
		<path d="M303.7,372.3h-48.9c-2,0-3.7-1.7-3.7-3.7v-34.7c0-2,1.7-3.7,3.7-3.7h48.9c2,0,3.7,1.7,3.7,3.7v34.7
			C307.4,370.6,305.8,372.3,303.7,372.3z M255.1,368.3h48.3v-34.1h-48.3V368.3z"/>
	</g>
	<g>
		<g>
			<g>
				<g>
					<rect x="268.8" y="339.8" width="10.5" height="4"/>
				</g>
				<g>
					<g>
						<polygon points="270.3,336.8 261.7,341.8 270.3,346.8 						"/>
					</g>
				</g>
			</g>
			<g>
				<g>
					<rect x="266.1" y="352.9" width="10.5" height="4"/>
				</g>
				<g>
					<g>
						<polygon points="267.5,350 258.9,354.9 267.5,359.9 						"/>
					</g>
				</g>
			</g>
		</g>
		<g>
			<g>
				<g>
					<rect x="279.2" y="358.6" width="10.5" height="4"/>
				</g>
				<g>
					<g>
						<polygon points="288.3,365.6 296.9,360.6 288.3,355.6 						"/>
					</g>
				</g>
			</g>
			<g>
				<g>
					<rect x="282" y="345.5" width="10.5" height="4"/>
				</g>
				<g>
					<g>
						<polygon points="291,352.5 299.7,347.5 291,342.5 						"/>
					</g>
				</g>
			</g>
		</g>
	</g>
</g>
<g>
	<g>
		<path class="st4" d="M473.5,297.3h-48.9c-0.9,0-1.7-0.8-1.7-1.7v-34.7c0-0.9,0.8-1.7,1.7-1.7h48.9c0.9,0,1.7,0.8,1.7,1.7v34.7
			C475.2,296.5,474.4,297.3,473.5,297.3z"/>
		<path d="M473.5,299.3h-48.9c-2,0-3.7-1.7-3.7-3.7v-34.7c0-2,1.7-3.7,3.7-3.7h48.9c2,0,3.7,1.7,3.7,3.7v34.7
			C477.2,297.6,475.5,299.3,473.5,299.3z M424.9,295.3h48.3v-34.1h-48.3V295.3z"/>
	</g>
	<g>
		<g>
			<g>
				<g>
					<rect x="438.6" y="266.8" width="10.5" height="4"/>
				</g>
				<g>
					<g>
						<polygon points="440,263.8 431.4,268.8 440,273.8 						"/>
					</g>
				</g>
			</g>
			<g>
				<g>
					<rect x="435.8" y="279.9" width="10.5" height="4"/>
				</g>
				<g>
					<g>
						<polygon points="437.3,276.9 428.6,281.9 437.3,286.9 						"/>
					</g>
				</g>
			</g>
		</g>
		<g>
			<g>
				<g>
					<rect x="449" y="285.6" width="10.5" height="4"/>
				</g>
				<g>
					<g>
						<polygon points="458,292.6 466.7,287.6 458,282.6 						"/>
					</g>
				</g>
			</g>
			<g>
				<g>
					<rect x="451.7" y="272.5" width="10.5" height="4"/>
				</g>
				<g>
					<g>
						<polygon points="460.8,279.5 469.4,274.5 460.8,269.5 						"/>
					</g>
				</g>
			</g>
		</g>
	</g>
</g>
<g>
	<g>
		<path class="st4" d="M421.2,475.9h-48.9c-0.9,0-1.7-0.8-1.7-1.7v-34.7c0-0.9,0.8-1.7,1.7-1.7h48.9c0.9,0,1.7,0.8,1.7,1.7v34.7
			C422.9,475.1,422.1,475.9,421.2,475.9z"/>
		<path d="M421.2,477.9h-48.9c-2,0-3.7-1.7-3.7-3.7v-34.7c0-2,1.7-3.7,3.7-3.7h48.9c2,0,3.7,1.7,3.7,3.7v34.7
			C424.9,476.2,423.2,477.9,421.2,477.9z M372.6,473.9h48.3v-34.1h-48.3V473.9z"/>
	</g>
	<g>
		<g>
			<g>
				<g>
					<rect x="386.3" y="445.4" width="10.5" height="4"/>
				</g>
				<g>
					<g>
						<polygon points="387.7,442.4 379.1,447.4 387.7,452.4 						"/>
					</g>
				</g>
			</g>
			<g>
				<g>
					<rect x="383.5" y="458.5" width="10.5" height="4"/>
				</g>
				<g>
					<g>
						<polygon points="385,455.5 376.3,460.5 385,465.5 						"/>
					</g>
				</g>
			</g>
		</g>
		<g>
			<g>
				<g>
					<rect x="396.7" y="464.2" width="10.5" height="4"/>
				</g>
				<g>
					<g>
						<polygon points="405.7,471.2 414.4,466.2 405.7,461.2 						"/>
					</g>
				</g>
			</g>
			<g>
				<g>
					<rect x="399.4" y="451.1" width="10.5" height="4"/>
				</g>
				<g>
					<g>
						<polygon points="408.5,458.1 417.1,453.1 408.5,448.1 						"/>
					</g>
				</g>
			</g>
		</g>
	</g>
</g>
<g>
	<g>
		<path class="st4" d="M172.9,491.2H124c-0.9,0-1.7-0.8-1.7-1.7v-34.7c0-0.9,0.8-1.7,1.7-1.7h48.9c0.9,0,1.7,0.8,1.7,1.7v34.7
			C174.6,490.5,173.8,491.2,172.9,491.2z"/>
		<path d="M172.9,493.2H124c-2,0-3.7-1.7-3.7-3.7v-34.7c0-2,1.7-3.7,3.7-3.7h48.9c2,0,3.7,1.7,3.7,3.7v34.7
			C176.6,491.6,174.9,493.2,172.9,493.2z M124.3,489.2h48.3v-34.1h-48.3V489.2z"/>
	</g>
	<g>
		<g>
			<g>
				<g>
					<rect x="138" y="460.8" width="10.5" height="4"/>
				</g>
				<g>
					<g>
						<polygon points="139.5,457.8 130.8,462.8 139.5,467.8 						"/>
					</g>
				</g>
			</g>
			<g>
				<g>
					<rect x="135.2" y="473.9" width="10.5" height="4"/>
				</g>
				<g>
					<g>
						<polygon points="136.7,470.9 128.1,475.9 136.7,480.9 						"/>
					</g>
				</g>
			</g>
		</g>
		<g>
			<g>
				<g>
					<rect x="148.4" y="479.6" width="10.5" height="4"/>
				</g>
				<g>
					<g>
						<polygon points="157.5,486.5 166.1,481.6 157.5,476.6 						"/>
					</g>
				</g>
			</g>
			<g>
				<g>
					<rect x="151.1" y="466.5" width="10.5" height="4"/>
				</g>
				<g>
					<g>
						<polygon points="160.2,473.4 168.9,468.5 160.2,463.5 						"/>
					</g>
				</g>
			</g>
		</g>
	</g>
</g>
<g>
	<g>
		<path class="st4" d="M468.8,190.7h-22.7c-2.8,0-5.1-2.3-5.1-5.1v-14.4c0-2.8,2.3-5.1,5.1-5.1h22.7c2.8,0,5.1,2.3,5.1,5.1v14.4
			C473.8,188.4,471.6,190.7,468.8,190.7z"/>
		<path d="M468.8,192.2h-22.7c-3.6,0-6.6-2.9-6.6-6.6v-14.4c0-3.6,2.9-6.6,6.6-6.6h22.7c3.6,0,6.6,2.9,6.6,6.6v14.4
			C475.3,189.3,472.4,192.2,468.8,192.2z M446.1,167.7c-2,0-3.6,1.6-3.6,3.6v14.4c0,2,1.6,3.6,3.6,3.6h22.7c2,0,3.6-1.6,3.6-3.6
			v-14.4c0-2-1.6-3.6-3.6-3.6H446.1z"/>
	</g>
	<g>
		<g>
			<path class="st4" d="M439.9,203.9c-1.1,0-1.5-0.8-1-1.7l3.4-5.5c0.6-0.9,1.9-1.6,3-1.6h24.1c1.1,0,2.5,0.7,3,1.7l3.5,5.8
				c0.6,0.9,0.1,1.7-1,1.7L439.9,203.9z"/>
		</g>
		<g>
			<path d="M475.1,206C475.1,206,475.1,206,475.1,206l-35.1-0.4c-1.1,0-2-0.6-2.4-1.4c-0.5-0.8-0.4-1.8,0.2-2.8l3.4-5.8
				c0.8-1.3,2.6-2.7,4.3-2.7h24.1c1.7,0,3.5,1.3,4.3,2.6l3.5,5.9c0.6,0.9,0.6,2.1,0.1,3C477,205.3,476.1,206,475.1,206z
				 M439.9,202.4l0.1,1.5L439.9,202.4C439.9,202.4,439.9,202.4,439.9,202.4z M440.6,202.4l33.9,0.2l-3.2-5.4
				c-0.4-0.6-1.3-1.2-1.7-1.2h-24.1c-0.5,0-1.4,0.6-1.7,1.2L440.6,202.4z"/>
		</g>
	</g>
	<g>
		<rect x="451.4" y="190.7" width="12" height="4.2"/>
	</g>
	<g>
		<path d="M468.1,186.7h-21.3c-0.7,0-1.2-0.5-1.2-1.2v-14.1c0-0.7,0.5-1.2,1.2-1.2h21.3c0.7,0,1.2,0.5,1.2,1.2v14.1
			C469.3,186.1,468.8,186.7,468.1,186.7z"/>
	</g>
</g>
<g>
	<g>
		<path class="st4" d="M552.8,264.7h-22.7c-2.8,0-5.1-2.3-5.1-5.1v-14.4c0-2.8,2.3-5.1,5.1-5.1h22.7c2.8,0,5.1,2.3,5.1,5.1v14.4
			C557.8,262.4,555.6,264.7,552.8,264.7z"/>
		<path d="M552.8,266.2h-22.7c-3.6,0-6.6-2.9-6.6-6.6v-14.4c0-3.6,2.9-6.6,6.6-6.6h22.7c3.6,0,6.6,2.9,6.6,6.6v14.4
			C559.3,263.3,556.4,266.2,552.8,266.2z M530.1,241.7c-2,0-3.6,1.6-3.6,3.6v14.4c0,2,1.6,3.6,3.6,3.6h22.7c2,0,3.6-1.6,3.6-3.6
			v-14.4c0-2-1.6-3.6-3.6-3.6H530.1z"/>
	</g>
	<g>
		<g>
			<path class="st4" d="M523.9,277.9c-1.1,0-1.5-0.8-1-1.7l3.4-5.5c0.6-0.9,1.9-1.6,3-1.6h24.1c1.1,0,2.5,0.7,3,1.7l3.5,5.8
				c0.6,0.9,0.1,1.7-1,1.7L523.9,277.9z"/>
		</g>
		<g>
			<path d="M559.1,280C559.1,280,559.1,280,559.1,280l-35.1-0.4c-1.1,0-2-0.6-2.4-1.4c-0.5-0.8-0.4-1.8,0.2-2.8l3.4-5.8
				c0.8-1.3,2.6-2.7,4.3-2.7h24.1c1.7,0,3.5,1.3,4.3,2.6l3.5,5.9c0.6,0.9,0.6,2.1,0.1,3C561,279.3,560.1,280,559.1,280z
				 M523.9,276.4l0.1,1.5L523.9,276.4C523.9,276.4,523.9,276.4,523.9,276.4z M524.6,276.4l33.9,0.2l-3.2-5.4
				c-0.4-0.6-1.3-1.2-1.7-1.2h-24.1c-0.5,0-1.4,0.6-1.7,1.2L524.6,276.4z"/>
		</g>
	</g>
	<g>
		<rect x="535.4" y="264.7" width="12" height="4.2"/>
	</g>
	<g>
		<path d="M552.1,260.7h-21.3c-0.7,0-1.2-0.5-1.2-1.2v-14.1c0-0.7,0.5-1.2,1.2-1.2h21.3c0.7,0,1.2,0.5,1.2,1.2v14.1
			C553.3,260.1,552.8,260.7,552.1,260.7z"/>
	</g>
</g>
<g>
	<g>
		<path class="st4" d="M488.8,360.7h-22.7c-2.8,0-5.1-2.3-5.1-5.1v-14.4c0-2.8,2.3-5.1,5.1-5.1h22.7c2.8,0,5.1,2.3,5.1,5.1v14.4
			C493.8,358.4,491.6,360.7,488.8,360.7z"/>
		<path d="M488.8,362.2h-22.7c-3.6,0-6.6-2.9-6.6-6.6v-14.4c0-3.6,2.9-6.6,6.6-6.6h22.7c3.6,0,6.6,2.9,6.6,6.6v14.4
			C495.3,359.3,492.4,362.2,488.8,362.2z M466.1,337.7c-2,0-3.6,1.6-3.6,3.6v14.4c0,2,1.6,3.6,3.6,3.6h22.7c2,0,3.6-1.6,3.6-3.6
			v-14.4c0-2-1.6-3.6-3.6-3.6H466.1z"/>
	</g>
	<g>
		<g>
			<path class="st4" d="M459.9,373.9c-1.1,0-1.5-0.8-1-1.7l3.4-5.5c0.6-0.9,1.9-1.6,3-1.6h24.1c1.1,0,2.5,0.7,3,1.7l3.5,5.8
				c0.6,0.9,0.1,1.7-1,1.7L459.9,373.9z"/>
		</g>
		<g>
			<path d="M495.1,376C495.1,376,495.1,376,495.1,376l-35.1-0.4c-1.1,0-2-0.6-2.4-1.4c-0.5-0.8-0.4-1.8,0.2-2.8l3.4-5.8
				c0.8-1.3,2.6-2.7,4.3-2.7h24.1c1.7,0,3.5,1.3,4.3,2.6l3.5,5.9c0.6,0.9,0.6,2.1,0.1,3C497,375.3,496.1,376,495.1,376z
				 M459.9,372.4l0.1,1.5L459.9,372.4C459.9,372.4,459.9,372.4,459.9,372.4z M460.6,372.4l33.9,0.2l-3.2-5.4
				c-0.4-0.6-1.3-1.2-1.7-1.2h-24.1c-0.5,0-1.4,0.6-1.7,1.2L460.6,372.4z"/>
		</g>
	</g>
	<g>
		<rect x="471.4" y="360.7" width="12" height="4.2"/>
	</g>
	<g>
		<path d="M488.1,356.7h-21.3c-0.7,0-1.2-0.5-1.2-1.2v-14.1c0-0.7,0.5-1.2,1.2-1.2h21.3c0.7,0,1.2,0.5,1.2,1.2v14.1
			C489.3,356.1,488.8,356.7,488.1,356.7z"/>
	</g>
</g>
<g>
	<g>
		<path class="st4" d="M164.8,204.7h-22.7c-2.8,0-5.1-2.3-5.1-5.1v-14.4c0-2.8,2.3-5.1,5.1-5.1h22.7c2.8,0,5.1,2.3,5.1,5.1v14.4
			C169.8,202.4,167.6,204.7,164.8,204.7z"/>
		<path d="M164.8,206.2h-22.7c-3.6,0-6.6-2.9-6.6-6.6v-14.4c0-3.6,2.9-6.6,6.6-6.6h22.7c3.6,0,6.6,2.9,6.6,6.6v14.4
			C171.3,203.3,168.4,206.2,164.8,206.2z M142.1,181.7c-2,0-3.6,1.6-3.6,3.6v14.4c0,2,1.6,3.6,3.6,3.6h22.7c2,0,3.6-1.6,3.6-3.6
			v-14.4c0-2-1.6-3.6-3.6-3.6H142.1z"/>
	</g>
	<g>
		<g>
			<path class="st4" d="M135.9,217.9c-1.1,0-1.5-0.8-1-1.7l3.4-5.5c0.6-0.9,1.9-1.6,3-1.6h24.1c1.1,0,2.5,0.7,3,1.7l3.5,5.8
				c0.6,0.9,0.1,1.7-1,1.7L135.9,217.9z"/>
		</g>
		<g>
			<path d="M171.1,220C171.1,220,171.1,220,171.1,220l-35.1-0.4c-1.1,0-2-0.6-2.4-1.4c-0.5-0.8-0.4-1.8,0.2-2.8l3.4-5.8
				c0.8-1.3,2.6-2.7,4.3-2.7h24.1c1.7,0,3.5,1.3,4.3,2.6l3.5,5.9c0.6,0.9,0.6,2.1,0.1,3C173,219.3,172.1,220,171.1,220z
				 M135.9,216.4l0.1,1.5L135.9,216.4C135.9,216.4,135.9,216.4,135.9,216.4z M136.6,216.4l33.9,0.2l-3.2-5.4
				c-0.4-0.6-1.3-1.2-1.7-1.2h-24.1c-0.5,0-1.4,0.6-1.7,1.2L136.6,216.4z"/>
		</g>
	</g>
	<g>
		<rect x="147.4" y="204.7" width="12" height="4.2"/>
	</g>
	<g>
		<path d="M164.1,200.7h-21.3c-0.7,0-1.2-0.5-1.2-1.2v-14.1c0-0.7,0.5-1.2,1.2-1.2h21.3c0.7,0,1.2,0.5,1.2,1.2v14.1
			C165.3,200.1,164.8,200.7,164.1,200.7z"/>
	</g>
</g>
<g>
	<g>
		<path class="st4" d="M134.8,272.7h-22.7c-2.8,0-5.1-2.3-5.1-5.1v-14.4c0-2.8,2.3-5.1,5.1-5.1h22.7c2.8,0,5.1,2.3,5.1,5.1v14.4
			C139.8,270.4,137.6,272.7,134.8,272.7z"/>
		<path d="M134.8,274.2h-22.7c-3.6,0-6.6-2.9-6.6-6.6v-14.4c0-3.6,2.9-6.6,6.6-6.6h22.7c3.6,0,6.6,2.9,6.6,6.6v14.4
			C141.3,271.3,138.4,274.2,134.8,274.2z M112.1,249.7c-2,0-3.6,1.6-3.6,3.6v14.4c0,2,1.6,3.6,3.6,3.6h22.7c2,0,3.6-1.6,3.6-3.6
			v-14.4c0-2-1.6-3.6-3.6-3.6H112.1z"/>
	</g>
	<g>
		<g>
			<path class="st4" d="M105.9,285.9c-1.1,0-1.5-0.8-1-1.7l3.4-5.5c0.6-0.9,1.9-1.6,3-1.6h24.1c1.1,0,2.5,0.7,3,1.7l3.5,5.8
				c0.6,0.9,0.1,1.7-1,1.7L105.9,285.9z"/>
		</g>
		<g>
			<path d="M141.1,288C141.1,288,141.1,288,141.1,288l-35.1-0.4c-1.1,0-2-0.6-2.4-1.4c-0.5-0.8-0.4-1.8,0.2-2.8l3.4-5.8
				c0.8-1.3,2.6-2.7,4.3-2.7h24.1c1.7,0,3.5,1.3,4.3,2.6l3.5,5.9c0.6,0.9,0.6,2.1,0.1,3C143,287.3,142.1,288,141.1,288z
				 M105.9,284.4l0.1,1.5L105.9,284.4C105.9,284.4,105.9,284.4,105.9,284.4z M106.6,284.4l33.9,0.2l-3.2-5.4
				c-0.4-0.6-1.3-1.2-1.7-1.2h-24.1c-0.5,0-1.4,0.6-1.7,1.2L106.6,284.4z"/>
		</g>
	</g>
	<g>
		<rect x="117.4" y="272.7" width="12" height="4.2"/>
	</g>
	<g>
		<path d="M134.1,268.7h-21.3c-0.7,0-1.2-0.5-1.2-1.2v-14.1c0-0.7,0.5-1.2,1.2-1.2h21.3c0.7,0,1.2,0.5,1.2,1.2v14.1
			C135.3,268.1,134.8,268.7,134.1,268.7z"/>
	</g>
</g>
<g>
	<g>
		<path class="st4" d="M206.8,309.7h-22.7c-2.8,0-5.1-2.3-5.1-5.1v-14.4c0-2.8,2.3-5.1,5.1-5.1h22.7c2.8,0,5.1,2.3,5.1,5.1v14.4
			C211.8,307.4,209.6,309.7,206.8,309.7z"/>
		<path d="M206.8,311.2h-22.7c-3.6,0-6.6-2.9-6.6-6.6v-14.4c0-3.6,2.9-6.6,6.6-6.6h22.7c3.6,0,6.6,2.9,6.6,6.6v14.4
			C213.3,308.3,210.4,311.2,206.8,311.2z M184.1,286.7c-2,0-3.6,1.6-3.6,3.6v14.4c0,2,1.6,3.6,3.6,3.6h22.7c2,0,3.6-1.6,3.6-3.6
			v-14.4c0-2-1.6-3.6-3.6-3.6H184.1z"/>
	</g>
	<g>
		<g>
			<path class="st4" d="M177.9,322.9c-1.1,0-1.5-0.8-1-1.7l3.4-5.5c0.6-0.9,1.9-1.6,3-1.6h24.1c1.1,0,2.5,0.7,3,1.7l3.5,5.8
				c0.6,0.9,0.1,1.7-1,1.7L177.9,322.9z"/>
		</g>
		<g>
			<path d="M213.1,325C213.1,325,213.1,325,213.1,325l-35.1-0.4c-1.1,0-2-0.6-2.4-1.4c-0.5-0.8-0.4-1.8,0.2-2.8l3.4-5.8
				c0.8-1.3,2.6-2.7,4.3-2.7h24.1c1.7,0,3.5,1.3,4.3,2.6l3.5,5.9c0.6,0.9,0.6,2.1,0.1,3C215,324.3,214.1,325,213.1,325z
				 M177.9,321.4l0.1,1.5L177.9,321.4C177.9,321.4,177.9,321.4,177.9,321.4z M178.6,321.4l33.9,0.2l-3.2-5.4
				c-0.4-0.6-1.3-1.2-1.7-1.2h-24.1c-0.5,0-1.4,0.6-1.7,1.2L178.6,321.4z"/>
		</g>
	</g>
	<g>
		<rect x="189.4" y="309.7" width="12" height="4.2"/>
	</g>
	<g>
		<path d="M206.1,305.7h-21.3c-0.7,0-1.2-0.5-1.2-1.2v-14.1c0-0.7,0.5-1.2,1.2-1.2h21.3c0.7,0,1.2,0.5,1.2,1.2v14.1
			C207.3,305.1,206.8,305.7,206.1,305.7z"/>
	</g>
</g>
<g>
	<g>
		<path class="st4" d="M235.8,486.7h-22.7c-2.8,0-5.1-2.3-5.1-5.1v-14.4c0-2.8,2.3-5.1,5.1-5.1h22.7c2.8,0,5.1,2.3,5.1,5.1v14.4
			C240.8,484.4,238.6,486.7,235.8,486.7z"/>
		<path d="M235.8,488.2h-22.7c-3.6,0-6.6-2.9-6.6-6.6v-14.4c0-3.6,2.9-6.6,6.6-6.6h22.7c3.6,0,6.6,2.9,6.6,6.6v14.4
			C242.3,485.3,239.4,488.2,235.8,488.2z M213.1,463.7c-2,0-3.6,1.6-3.6,3.6v14.4c0,2,1.6,3.6,3.6,3.6h22.7c2,0,3.6-1.6,3.6-3.6
			v-14.4c0-2-1.6-3.6-3.6-3.6H213.1z"/>
	</g>
	<g>
		<g>
			<path class="st4" d="M206.9,499.9c-1.1,0-1.5-0.8-1-1.7l3.4-5.5c0.6-0.9,1.9-1.6,3-1.6h24.1c1.1,0,2.5,0.7,3,1.7l3.5,5.8
				c0.6,0.9,0.1,1.7-1,1.7L206.9,499.9z"/>
		</g>
		<g>
			<path d="M242.1,502C242.1,502,242.1,502,242.1,502l-35.1-0.4c-1.1,0-2-0.6-2.4-1.4c-0.5-0.8-0.4-1.8,0.2-2.8l3.4-5.8
				c0.8-1.3,2.6-2.7,4.3-2.7h24.1c1.7,0,3.5,1.3,4.3,2.6l3.5,5.9c0.6,0.9,0.6,2.1,0.1,3C244,501.3,243.1,502,242.1,502z
				 M206.9,498.4l0.1,1.5L206.9,498.4C206.9,498.4,206.9,498.4,206.9,498.4z M207.6,498.4l33.9,0.2l-3.2-5.4
				c-0.4-0.6-1.3-1.2-1.7-1.2h-24.1c-0.5,0-1.4,0.6-1.7,1.2L207.6,498.4z"/>
		</g>
	</g>
	<g>
		<rect x="218.4" y="486.7" width="12" height="4.2"/>
	</g>
	<g>
		<path d="M235.1,482.7h-21.3c-0.7,0-1.2-0.5-1.2-1.2v-14.1c0-0.7,0.5-1.2,1.2-1.2h21.3c0.7,0,1.2,0.5,1.2,1.2v14.1
			C236.3,482.1,235.8,482.7,235.1,482.7z"/>
	</g>
</g>
<g>
	<g>
		<path class="st4" d="M362.8,325.7h-22.7c-2.8,0-5.1-2.3-5.1-5.1v-14.4c0-2.8,2.3-5.1,5.1-5.1h22.7c2.8,0,5.1,2.3,5.1,5.1v14.4
			C367.8,323.4,365.6,325.7,362.8,325.7z"/>
		<path d="M362.8,327.2h-22.7c-3.6,0-6.6-2.9-6.6-6.6v-14.4c0-3.6,2.9-6.6,6.6-6.6h22.7c3.6,0,6.6,2.9,6.6,6.6v14.4
			C369.3,324.3,366.4,327.2,362.8,327.2z M340.1,302.7c-2,0-3.6,1.6-3.6,3.6v14.4c0,2,1.6,3.6,3.6,3.6h22.7c2,0,3.6-1.6,3.6-3.6
			v-14.4c0-2-1.6-3.6-3.6-3.6H340.1z"/>
	</g>
	<g>
		<g>
			<path class="st4" d="M333.9,338.9c-1.1,0-1.5-0.8-1-1.7l3.4-5.5c0.6-0.9,1.9-1.6,3-1.6h24.1c1.1,0,2.5,0.7,3,1.7l3.5,5.8
				c0.6,0.9,0.1,1.7-1,1.7L333.9,338.9z"/>
		</g>
		<g>
			<path d="M369.1,341C369.1,341,369.1,341,369.1,341l-35.1-0.4c-1.1,0-2-0.6-2.4-1.4c-0.5-0.8-0.4-1.8,0.2-2.8l3.4-5.8
				c0.8-1.3,2.6-2.7,4.3-2.7h24.1c1.7,0,3.5,1.3,4.3,2.6l3.5,5.9c0.6,0.9,0.6,2.1,0.1,3C371,340.3,370.1,341,369.1,341z
				 M333.9,337.4l0.1,1.5L333.9,337.4C333.9,337.4,333.9,337.4,333.9,337.4z M334.6,337.4l33.9,0.2l-3.2-5.4
				c-0.4-0.6-1.3-1.2-1.7-1.2h-24.1c-0.5,0-1.4,0.6-1.7,1.2L334.6,337.4z"/>
		</g>
	</g>
	<g>
		<rect x="345.4" y="325.7" width="12" height="4.2"/>
	</g>
	<g>
		<path d="M362.1,321.7h-21.3c-0.7,0-1.2-0.5-1.2-1.2v-14.1c0-0.7,0.5-1.2,1.2-1.2h21.3c0.7,0,1.2,0.5,1.2,1.2v14.1
			C363.3,321.1,362.8,321.7,362.1,321.7z"/>
	</g>
</g>
<g>
	<g>
		<path class="st4" d="M338.8,505.7h-22.7c-2.8,0-5.1-2.3-5.1-5.1v-14.4c0-2.8,2.3-5.1,5.1-5.1h22.7c2.8,0,5.1,2.3,5.1,5.1v14.4
			C343.8,503.4,341.6,505.7,338.8,505.7z"/>
		<path d="M338.8,507.2h-22.7c-3.6,0-6.6-2.9-6.6-6.6v-14.4c0-3.6,2.9-6.6,6.6-6.6h22.7c3.6,0,6.6,2.9,6.6,6.6v14.4
			C345.3,504.3,342.4,507.2,338.8,507.2z M316.1,482.7c-2,0-3.6,1.6-3.6,3.6v14.4c0,2,1.6,3.6,3.6,3.6h22.7c2,0,3.6-1.6,3.6-3.6
			v-14.4c0-2-1.6-3.6-3.6-3.6H316.1z"/>
	</g>
	<g>
		<g>
			<path class="st4" d="M309.9,518.9c-1.1,0-1.5-0.8-1-1.7l3.4-5.5c0.6-0.9,1.9-1.6,3-1.6h24.1c1.1,0,2.5,0.7,3,1.7l3.5,5.8
				c0.6,0.9,0.1,1.7-1,1.7L309.9,518.9z"/>
		</g>
		<g>
			<path d="M345.1,521C345.1,521,345.1,521,345.1,521l-35.1-0.4c-1.1,0-2-0.6-2.4-1.4c-0.5-0.8-0.4-1.8,0.2-2.8l3.4-5.8
				c0.8-1.3,2.6-2.7,4.3-2.7h24.1c1.7,0,3.5,1.3,4.3,2.6l3.5,5.9c0.6,0.9,0.6,2.1,0.1,3C347,520.3,346.1,521,345.1,521z
				 M309.9,517.4l0.1,1.5L309.9,517.4C309.9,517.4,309.9,517.4,309.9,517.4z M310.6,517.4l33.9,0.2l-3.2-5.4
				c-0.4-0.6-1.3-1.2-1.7-1.2h-24.1c-0.5,0-1.4,0.6-1.7,1.2L310.6,517.4z"/>
		</g>
	</g>
	<g>
		<rect x="321.4" y="505.7" width="12" height="4.2"/>
	</g>
	<g>
		<path d="M338.1,501.7h-21.3c-0.7,0-1.2-0.5-1.2-1.2v-14.1c0-0.7,0.5-1.2,1.2-1.2h21.3c0.7,0,1.2,0.5,1.2,1.2v14.1
			C339.3,501.1,338.8,501.7,338.1,501.7z"/>
	</g>
</g>
<g>
	<g>
		<path class="st4" d="M436.8,524.7h-22.7c-2.8,0-5.1-2.3-5.1-5.1v-14.4c0-2.8,2.3-5.1,5.1-5.1h22.7c2.8,0,5.1,2.3,5.1,5.1v14.4
			C441.8,522.4,439.6,524.7,436.8,524.7z"/>
		<path d="M436.8,526.2h-22.7c-3.6,0-6.6-2.9-6.6-6.6v-14.4c0-3.6,2.9-6.6,6.6-6.6h22.7c3.6,0,6.6,2.9,6.6,6.6v14.4
			C443.3,523.3,440.4,526.2,436.8,526.2z M414.1,501.7c-2,0-3.6,1.6-3.6,3.6v14.4c0,2,1.6,3.6,3.6,3.6h22.7c2,0,3.6-1.6,3.6-3.6
			v-14.4c0-2-1.6-3.6-3.6-3.6H414.1z"/>
	</g>
	<g>
		<g>
			<path class="st4" d="M407.9,537.9c-1.1,0-1.5-0.8-1-1.7l3.4-5.5c0.6-0.9,1.9-1.6,3-1.6h24.1c1.1,0,2.5,0.7,3,1.7l3.5,5.8
				c0.6,0.9,0.1,1.7-1,1.7L407.9,537.9z"/>
		</g>
		<g>
			<path d="M443.1,540C443.1,540,443.1,540,443.1,540l-35.1-0.4c-1.1,0-2-0.6-2.4-1.4c-0.5-0.8-0.4-1.8,0.2-2.8l3.4-5.8
				c0.8-1.3,2.6-2.7,4.3-2.7h24.1c1.7,0,3.5,1.3,4.3,2.6l3.5,5.9c0.6,0.9,0.6,2.1,0.1,3C445,539.3,444.1,540,443.1,540z
				 M407.9,536.4l0.1,1.5L407.9,536.4C407.9,536.4,407.9,536.4,407.9,536.4z M408.6,536.4l33.9,0.2l-3.2-5.4
				c-0.4-0.6-1.3-1.2-1.7-1.2h-24.1c-0.5,0-1.4,0.6-1.7,1.2L408.6,536.4z"/>
		</g>
	</g>
	<g>
		<rect x="419.4" y="524.7" width="12" height="4.2"/>
	</g>
	<g>
		<path d="M436.1,520.7h-21.3c-0.7,0-1.2-0.5-1.2-1.2v-14.1c0-0.7,0.5-1.2,1.2-1.2h21.3c0.7,0,1.2,0.5,1.2,1.2v14.1
			C437.3,520.1,436.8,520.7,436.1,520.7z"/>
	</g>
</g>
<g>
	<g>
		<path class="st4" d="M482.8,448.7h-22.7c-2.8,0-5.1-2.3-5.1-5.1v-14.4c0-2.8,2.3-5.1,5.1-5.1h22.7c2.8,0,5.1,2.3,5.1,5.1v14.4
			C487.8,446.4,485.6,448.7,482.8,448.7z"/>
		<path d="M482.8,450.2h-22.7c-3.6,0-6.6-2.9-6.6-6.6v-14.4c0-3.6,2.9-6.6,6.6-6.6h22.7c3.6,0,6.6,2.9,6.6,6.6v14.4
			C489.3,447.3,486.4,450.2,482.8,450.2z M460.1,425.7c-2,0-3.6,1.6-3.6,3.6v14.4c0,2,1.6,3.6,3.6,3.6h22.7c2,0,3.6-1.6,3.6-3.6
			v-14.4c0-2-1.6-3.6-3.6-3.6H460.1z"/>
	</g>
	<g>
		<g>
			<path class="st4" d="M453.9,461.9c-1.1,0-1.5-0.8-1-1.7l3.4-5.5c0.6-0.9,1.9-1.6,3-1.6h24.1c1.1,0,2.5,0.7,3,1.7l3.5,5.8
				c0.6,0.9,0.1,1.7-1,1.7L453.9,461.9z"/>
		</g>
		<g>
			<path d="M489.1,464C489.1,464,489.1,464,489.1,464l-35.1-0.4c-1.1,0-2-0.6-2.4-1.4c-0.5-0.8-0.4-1.8,0.2-2.8l3.4-5.8
				c0.8-1.3,2.6-2.7,4.3-2.7h24.1c1.7,0,3.5,1.3,4.3,2.6l3.5,5.9c0.6,0.9,0.6,2.1,0.1,3C491,463.3,490.1,464,489.1,464z
				 M453.9,460.4l0.1,1.5L453.9,460.4C453.9,460.4,453.9,460.4,453.9,460.4z M454.6,460.4l33.9,0.2l-3.2-5.4
				c-0.4-0.6-1.3-1.2-1.7-1.2h-24.1c-0.5,0-1.4,0.6-1.7,1.2L454.6,460.4z"/>
		</g>
	</g>
	<g>
		<rect x="465.4" y="448.7" width="12" height="4.2"/>
	</g>
	<g>
		<path d="M482.1,444.7h-21.3c-0.7,0-1.2-0.5-1.2-1.2v-14.1c0-0.7,0.5-1.2,1.2-1.2h21.3c0.7,0,1.2,0.5,1.2,1.2v14.1
			C483.3,444.1,482.8,444.7,482.1,444.7z"/>
	</g>
</g>
<g>
	<g>
		<path class="st4" d="M156.8,398.7h-22.7c-2.8,0-5.1-2.3-5.1-5.1v-14.4c0-2.8,2.3-5.1,5.1-5.1h22.7c2.8,0,5.1,2.3,5.1,5.1v14.4
			C161.8,396.4,159.6,398.7,156.8,398.7z"/>
		<path d="M156.8,400.2h-22.7c-3.6,0-6.6-2.9-6.6-6.6v-14.4c0-3.6,2.9-6.6,6.6-6.6h22.7c3.6,0,6.6,2.9,6.6,6.6v14.4
			C163.3,397.3,160.4,400.2,156.8,400.2z M134.1,375.7c-2,0-3.6,1.6-3.6,3.6v14.4c0,2,1.6,3.6,3.6,3.6h22.7c2,0,3.6-1.6,3.6-3.6
			v-14.4c0-2-1.6-3.6-3.6-3.6H134.1z"/>
	</g>
	<g>
		<g>
			<path class="st4" d="M127.9,411.9c-1.1,0-1.5-0.8-1-1.7l3.4-5.5c0.6-0.9,1.9-1.6,3-1.6h24.1c1.1,0,2.5,0.7,3,1.7l3.5,5.8
				c0.6,0.9,0.1,1.7-1,1.7L127.9,411.9z"/>
		</g>
		<g>
			<path d="M163.1,414C163.1,414,163.1,414,163.1,414l-35.1-0.4c-1.1,0-2-0.6-2.4-1.4c-0.5-0.8-0.4-1.8,0.2-2.8l3.4-5.8
				c0.8-1.3,2.6-2.7,4.3-2.7h24.1c1.7,0,3.5,1.3,4.3,2.6l3.5,5.9c0.6,0.9,0.6,2.1,0.1,3C165,413.3,164.1,414,163.1,414z
				 M127.9,410.4l0.1,1.5L127.9,410.4C127.9,410.4,127.9,410.4,127.9,410.4z M128.6,410.4l33.9,0.2l-3.2-5.4
				c-0.4-0.6-1.3-1.2-1.7-1.2h-24.1c-0.5,0-1.4,0.6-1.7,1.2L128.6,410.4z"/>
		</g>
	</g>
	<g>
		<rect x="139.4" y="398.7" width="12" height="4.2"/>
	</g>
	<g>
		<path d="M156.1,394.7h-21.3c-0.7,0-1.2-0.5-1.2-1.2v-14.1c0-0.7,0.5-1.2,1.2-1.2h21.3c0.7,0,1.2,0.5,1.2,1.2v14.1
			C157.3,394.1,156.8,394.7,156.1,394.7z"/>
	</g>
</g>
<g>
	<g>
		<path class="st4" d="M69.8,450.7H47.1c-2.8,0-5.1-2.3-5.1-5.1v-14.4c0-2.8,2.3-5.1,5.1-5.1h22.7c2.8,0,5.1,2.3,5.1,5.1v14.4
			C74.8,448.4,72.6,450.7,69.8,450.7z"/>
		<path d="M69.8,452.2H47.1c-3.6,0-6.6-2.9-6.6-6.6v-14.4c0-3.6,2.9-6.6,6.6-6.6h22.7c3.6,0,6.6,2.9,6.6,6.6v14.4
			C76.3,449.3,73.4,452.2,69.8,452.2z M47.1,427.7c-2,0-3.6,1.6-3.6,3.6v14.4c0,2,1.6,3.6,3.6,3.6h22.7c2,0,3.6-1.6,3.6-3.6v-14.4
			c0-2-1.6-3.6-3.6-3.6H47.1z"/>
	</g>
	<g>
		<g>
			<path class="st4" d="M40.9,463.9c-1.1,0-1.5-0.8-1-1.7l3.4-5.5c0.6-0.9,1.9-1.6,3-1.6h24.1c1.1,0,2.5,0.7,3,1.7l3.5,5.8
				c0.6,0.9,0.1,1.7-1,1.7L40.9,463.9z"/>
		</g>
		<g>
			<path d="M76.1,466C76.1,466,76.1,466,76.1,466l-35.1-0.4c-1.1,0-2-0.6-2.4-1.4c-0.5-0.8-0.4-1.8,0.2-2.8l3.4-5.8
				c0.8-1.3,2.6-2.7,4.3-2.7h24.1c1.7,0,3.5,1.3,4.3,2.6l3.5,5.9c0.6,0.9,0.6,2.1,0.1,3C78,465.3,77.1,466,76.1,466z M40.9,462.4
				l0.1,1.5L40.9,462.4C40.9,462.4,40.9,462.4,40.9,462.4z M41.6,462.4l33.9,0.2l-3.2-5.4c-0.4-0.6-1.3-1.2-1.7-1.2H46.4
				c-0.5,0-1.4,0.6-1.7,1.2L41.6,462.4z"/>
		</g>
	</g>
	<g>
		<rect x="52.4" y="450.7" width="12" height="4.2"/>
	</g>
	<g>
		<path d="M69.1,446.7H47.8c-0.7,0-1.2-0.5-1.2-1.2v-14.1c0-0.7,0.5-1.2,1.2-1.2h21.3c0.7,0,1.2,0.5,1.2,1.2v14.1
			C70.3,446.1,69.8,446.7,69.1,446.7z"/>
	</g>
</g>
<g>
	<g>
		<path class="st4" d="M105.8,534.7H83.1c-2.8,0-5.1-2.3-5.1-5.1v-14.4c0-2.8,2.3-5.1,5.1-5.1h22.7c2.8,0,5.1,2.3,5.1,5.1v14.4
			C110.8,532.4,108.6,534.7,105.8,534.7z"/>
		<path d="M105.8,536.2H83.1c-3.6,0-6.6-2.9-6.6-6.6v-14.4c0-3.6,2.9-6.6,6.6-6.6h22.7c3.6,0,6.6,2.9,6.6,6.6v14.4
			C112.3,533.3,109.4,536.2,105.8,536.2z M83.1,511.7c-2,0-3.6,1.6-3.6,3.6v14.4c0,2,1.6,3.6,3.6,3.6h22.7c2,0,3.6-1.6,3.6-3.6
			v-14.4c0-2-1.6-3.6-3.6-3.6H83.1z"/>
	</g>
	<g>
		<g>
			<path class="st4" d="M76.9,547.9c-1.1,0-1.5-0.8-1-1.7l3.4-5.5c0.6-0.9,1.9-1.6,3-1.6h24.1c1.1,0,2.5,0.7,3,1.7l3.5,5.8
				c0.6,0.9,0.1,1.7-1,1.7L76.9,547.9z"/>
		</g>
		<g>
			<path d="M112.1,550C112.1,550,112.1,550,112.1,550l-35.1-0.4c-1.1,0-2-0.6-2.4-1.4c-0.5-0.8-0.4-1.8,0.2-2.8l3.4-5.8
				c0.8-1.3,2.6-2.7,4.3-2.7h24.1c1.7,0,3.5,1.3,4.3,2.6l3.5,5.9c0.6,0.9,0.6,2.1,0.1,3C114,549.3,113.1,550,112.1,550z M76.9,546.4
				l0.1,1.5L76.9,546.4C76.9,546.4,76.9,546.4,76.9,546.4z M77.6,546.4l33.9,0.2l-3.2-5.4c-0.4-0.6-1.3-1.2-1.7-1.2H82.4
				c-0.5,0-1.4,0.6-1.7,1.2L77.6,546.4z"/>
		</g>
	</g>
	<g>
		<rect x="88.4" y="534.7" width="12" height="4.2"/>
	</g>
	<g>
		<path d="M105.1,530.7H83.8c-0.7,0-1.2-0.5-1.2-1.2v-14.1c0-0.7,0.5-1.2,1.2-1.2h21.3c0.7,0,1.2,0.5,1.2,1.2v14.1
			C106.3,530.1,105.8,530.7,105.1,530.7z"/>
	</g>
</g>
</svg>
