<?xml version="1.0" encoding="utf-8"?>
<!-- Generator: Adobe Illustrator 19.2.0, SVG Export Plug-In . SVG Version: 6.00 Build 0)  -->
<svg version="1.1" id="Layer_1" xmlns="http://www.w3.org/2000/svg" xmlns:xlink="http://www.w3.org/1999/xlink" x="0px" y="0px"
	 viewBox="0 0 600 430" style="enable-background:new 0 0 600 430;" xml:space="preserve">
<style type="text/css">
	.st0{fill:#FFFFFF;stroke:#000000;stroke-width:3;stroke-miterlimit:10;}
	.st1{fill:#FFFFFF;stroke:#000000;stroke-width:2;stroke-miterlimit:10;}
	.st2{fill:#FFFFFF;}
	.st3{fill:#FF1732;}
	.st4{fill:none;stroke:#FF1732;stroke-width:3;stroke-miterlimit:10;}
</style>
<path class="st0" d="M515.4,376.5H84.6c-21.5,0-39-17.5-39-39v-227c0-21.5,17.5-39,39-39h430.8c21.5,0,39,17.5,39,39v227
	C554.4,359,537,376.5,515.4,376.5z"/>
<g>
	<path d="M260.3,238.9c0,2.3-0.8,4.2-2.5,5.5c-1.7,1.3-4,2-7,2c-3,0-5.4-0.5-7.3-1.4V241c1.2,0.6,2.5,1,3.8,1.3s2.6,0.5,3.8,0.5
		c1.7,0,3-0.3,3.8-1c0.8-0.6,1.2-1.5,1.2-2.6c0-1-0.4-1.8-1.1-2.5c-0.7-0.7-2.3-1.5-4.6-2.4c-2.4-1-4.1-2.1-5.1-3.3
		c-1-1.2-1.5-2.7-1.5-4.5c0-2.2,0.8-3.9,2.3-5.2c1.6-1.3,3.6-1.9,6.3-1.9c2.5,0,5,0.6,7.5,1.7l-1.4,3.5c-2.3-1-4.4-1.5-6.3-1.5
		c-1.4,0-2.4,0.3-3.2,0.9c-0.7,0.6-1.1,1.4-1.1,2.4c0,0.7,0.1,1.3,0.4,1.8c0.3,0.5,0.8,0.9,1.4,1.4s1.8,1,3.6,1.7
		c1.9,0.8,3.3,1.6,4.2,2.2c0.9,0.7,1.6,1.5,2,2.4C260.1,236.7,260.3,237.8,260.3,238.9z"/>
	<path d="M281.3,246.1l-2.6-9.3c-0.3-1-0.9-3.3-1.7-6.8h-0.2c-0.7,3.2-1.2,5.5-1.7,6.9l-2.6,9.2h-4.7l-5.6-19.9h4.3l2.5,9.8
		c0.6,2.4,1,4.5,1.2,6.2h0.1c0.1-0.9,0.3-1.9,0.5-3c0.2-1.1,0.5-2,0.6-2.5l3-10.5h4.6l2.9,10.5c0.2,0.6,0.4,1.5,0.7,2.7
		s0.4,2.1,0.5,2.8h0.1c0.2-1.5,0.6-3.5,1.3-6.2l2.6-9.8h4.2l-5.6,19.9H281.3z"/>
	<path d="M294.8,220.9c0-0.8,0.2-1.3,0.6-1.7c0.4-0.4,1-0.6,1.8-0.6c0.7,0,1.3,0.2,1.7,0.6c0.4,0.4,0.6,1,0.6,1.7
		c0,0.7-0.2,1.3-0.6,1.7s-1,0.6-1.7,0.6c-0.8,0-1.4-0.2-1.8-0.6S294.8,221.7,294.8,220.9z M299.2,246.1H295v-19.9h4.2V246.1z"/>
	<path d="M312.7,243c1,0,2.1-0.2,3.1-0.5v3.2c-0.5,0.2-1.1,0.4-1.8,0.5c-0.7,0.1-1.5,0.2-2.3,0.2c-4,0-6-2.1-6-6.3v-10.7H303v-1.9
		l2.9-1.5l1.4-4.2h2.6v4.4h5.7v3.2h-5.7V240c0,1,0.3,1.8,0.8,2.3S311.8,243,312.7,243z"/>
	<path d="M327.7,246.4c-3,0-5.3-0.9-6.9-2.6c-1.6-1.8-2.3-4.3-2.3-7.6c0-3.3,0.8-5.9,2.5-7.7c1.6-1.8,4-2.7,7.1-2.7
		c2.1,0,4,0.4,5.7,1.2l-1.3,3.4c-1.8-0.7-3.3-1-4.4-1c-3.4,0-5.2,2.3-5.2,6.8c0,2.2,0.4,3.9,1.3,5c0.9,1.1,2.1,1.7,3.8,1.7
		c1.9,0,3.7-0.5,5.3-1.4v3.7c-0.8,0.4-1.6,0.8-2.4,1C330,246.3,329,246.4,327.7,246.4z"/>
	<path d="M355.4,246.1h-4.2v-12.2c0-1.5-0.3-2.7-0.9-3.4s-1.6-1.1-2.9-1.1c-1.8,0-3.1,0.5-3.9,1.6s-1.2,2.8-1.2,5.3v9.9h-4.2v-27.9
		h4.2v7.1c0,1.1-0.1,2.4-0.2,3.6h0.3c0.6-1,1.4-1.7,2.4-2.2s2.2-0.8,3.6-0.8c4.8,0,7.2,2.4,7.2,7.3V246.1z"/>
</g>
<path class="st1" d="M176.8,345h-65.3c-6.1,0-11-4.9-11-11v-28c0-6.1,4.9-11,11-11h65.3c6.1,0,11,4.9,11,11v28
	C187.8,340.1,182.9,345,176.8,345z"/>
<g>
	<path d="M128.4,317.1c0,1.3-0.4,2.4-1.3,3.1s-2.1,1.1-3.8,1.1H122v4.8h-2.1v-12.8h3.7c1.6,0,2.8,0.3,3.6,1S128.4,315.8,128.4,317.1
		z M122,319.5h1.1c1.1,0,1.9-0.2,2.4-0.6s0.8-1,0.8-1.8c0-0.7-0.2-1.3-0.7-1.7s-1.2-0.5-2.1-0.5H122V319.5z"/>
	<path d="M139.4,321.2c0,1.6-0.4,2.8-1.2,3.7s-1.9,1.3-3.4,1.3c-0.9,0-1.7-0.2-2.4-0.6s-1.2-1-1.6-1.8s-0.6-1.7-0.6-2.7
		c0-1.6,0.4-2.8,1.2-3.7s1.9-1.3,3.4-1.3c1.4,0,2.5,0.5,3.3,1.4S139.4,319.6,139.4,321.2z M132.3,321.2c0,2.2,0.8,3.4,2.5,3.4
		c1.6,0,2.5-1.1,2.5-3.4c0-2.2-0.8-3.3-2.5-3.3c-0.9,0-1.5,0.3-1.9,0.9S132.3,320.1,132.3,321.2z"/>
	<path d="M146.7,316.1c0.4,0,0.8,0,1,0.1l-0.2,1.9c-0.3-0.1-0.6-0.1-0.9-0.1c-0.8,0-1.5,0.3-2,0.8s-0.8,1.2-0.8,2.1v5.1h-2.1v-9.7
		h1.6l0.3,1.7h0.1c0.3-0.6,0.7-1,1.3-1.4S146.1,316.1,146.7,316.1z"/>
	<path d="M153.2,324.5c0.5,0,1-0.1,1.5-0.2v1.6c-0.2,0.1-0.5,0.2-0.9,0.3s-0.7,0.1-1.1,0.1c-2,0-2.9-1-2.9-3.1v-5.2h-1.3V317
		l1.4-0.8l0.7-2.1h1.3v2.2h2.8v1.6h-2.8v5.2c0,0.5,0.1,0.9,0.4,1.1S152.8,324.5,153.2,324.5z"/>
	<path d="M169.8,323.2H168v2.8h-2v-2.8h-5.9v-1.6l5.9-8.5h2v8.4h1.7V323.2z M166,321.5v-3.2c0-1.1,0-2.1,0.1-2.8h-0.1
		c-0.2,0.4-0.4,0.9-0.8,1.4l-3.2,4.6H166z"/>
</g>
<path class="st1" d="M332.7,345h-65.3c-6.1,0-11-4.9-11-11v-28c0-6.1,4.9-11,11-11h65.3c6.1,0,11,4.9,11,11v28
	C343.7,340.1,338.7,345,332.7,345z"/>
<g>
	<path d="M284.3,317.1c0,1.3-0.4,2.4-1.3,3.1s-2.1,1.1-3.8,1.1h-1.3v4.8h-2.1v-12.8h3.7c1.6,0,2.8,0.3,3.6,1
		S284.3,315.8,284.3,317.1z M277.9,319.5h1.1c1.1,0,1.9-0.2,2.4-0.6s0.8-1,0.8-1.8c0-0.7-0.2-1.3-0.7-1.7s-1.2-0.5-2.1-0.5h-1.5
		V319.5z"/>
	<path d="M295.2,321.2c0,1.6-0.4,2.8-1.2,3.7s-1.9,1.3-3.4,1.3c-0.9,0-1.7-0.2-2.4-0.6s-1.2-1-1.6-1.8s-0.6-1.7-0.6-2.7
		c0-1.6,0.4-2.8,1.2-3.7s1.9-1.3,3.4-1.3c1.4,0,2.5,0.5,3.3,1.4S295.2,319.6,295.2,321.2z M288.2,321.2c0,2.2,0.8,3.4,2.5,3.4
		c1.6,0,2.5-1.1,2.5-3.4c0-2.2-0.8-3.3-2.5-3.3c-0.9,0-1.5,0.3-1.9,0.9S288.2,320.1,288.2,321.2z"/>
	<path d="M302.5,316.1c0.4,0,0.8,0,1,0.1l-0.2,1.9c-0.3-0.1-0.6-0.1-0.9-0.1c-0.8,0-1.5,0.3-2,0.8s-0.8,1.2-0.8,2.1v5.1h-2.1v-9.7
		h1.6l0.3,1.7h0.1c0.3-0.6,0.7-1,1.3-1.4C301.4,316.3,302,316.1,302.5,316.1z"/>
	<path d="M309,324.5c0.5,0,1-0.1,1.5-0.2v1.6c-0.2,0.1-0.5,0.2-0.9,0.3s-0.7,0.1-1.1,0.1c-2,0-2.9-1-2.9-3.1v-5.2h-1.3V317l1.4-0.8
		l0.7-2.1h1.3v2.2h2.8v1.6h-2.8v5.2c0,0.5,0.1,0.9,0.4,1.1S308.6,324.5,309,324.5z"/>
	<path d="M320.8,318c1.3,0,2.3,0.3,3.1,1s1.1,1.6,1.1,2.8c0,1.4-0.4,2.4-1.3,3.2s-2.1,1.2-3.7,1.2c-1.4,0-2.6-0.2-3.4-0.7v-1.9
		c0.5,0.3,1,0.5,1.6,0.6s1.2,0.2,1.7,0.2c0.9,0,1.6-0.2,2.1-0.6s0.7-1,0.7-1.8c0-1.5-1-2.3-2.9-2.3c-0.3,0-0.6,0-1,0.1
		s-0.8,0.1-1.1,0.2l-0.9-0.5l0.5-6.3h6.7v1.8h-4.9l-0.3,3.2c0.2,0,0.5-0.1,0.8-0.1S320.4,318,320.8,318z"/>
</g>
<path class="st1" d="M176.8,153h-65.3c-6.1,0-11-4.9-11-11v-28c0-6.1,4.9-11,11-11h65.3c6.1,0,11,4.9,11,11v28
	C187.8,148.1,182.9,153,176.8,153z"/>
<g>
	<path d="M128.4,125c0,1.3-0.4,2.4-1.3,3.1s-2.1,1.1-3.8,1.1H122v4.8h-2.1v-12.8h3.7c1.6,0,2.8,0.3,3.6,1S128.4,123.8,128.4,125z
		 M122,127.4h1.1c1.1,0,1.9-0.2,2.4-0.6s0.8-1,0.8-1.8c0-0.7-0.2-1.3-0.7-1.7s-1.2-0.5-2.1-0.5H122V127.4z"/>
	<path d="M139.4,129.1c0,1.6-0.4,2.8-1.2,3.7s-1.9,1.3-3.4,1.3c-0.9,0-1.7-0.2-2.4-0.6s-1.2-1-1.6-1.8s-0.6-1.7-0.6-2.7
		c0-1.6,0.4-2.8,1.2-3.7s1.9-1.3,3.4-1.3c1.4,0,2.5,0.5,3.3,1.4S139.4,127.6,139.4,129.1z M132.3,129.1c0,2.2,0.8,3.4,2.5,3.4
		c1.6,0,2.5-1.1,2.5-3.4c0-2.2-0.8-3.3-2.5-3.3c-0.9,0-1.5,0.3-1.9,0.9S132.3,128.1,132.3,129.1z"/>
	<path d="M146.7,124.1c0.4,0,0.8,0,1,0.1l-0.2,1.9c-0.3-0.1-0.6-0.1-0.9-0.1c-0.8,0-1.5,0.3-2,0.8s-0.8,1.2-0.8,2.1v5.1h-2.1v-9.7
		h1.6l0.3,1.7h0.1c0.3-0.6,0.7-1,1.3-1.4S146.1,124.1,146.7,124.1z"/>
	<path d="M153.2,132.5c0.5,0,1-0.1,1.5-0.2v1.6c-0.2,0.1-0.5,0.2-0.9,0.3s-0.7,0.1-1.1,0.1c-2,0-2.9-1-2.9-3.1v-5.2h-1.3v-0.9
		l1.4-0.8l0.7-2.1h1.3v2.2h2.8v1.6h-2.8v5.2c0,0.5,0.1,0.9,0.4,1.1S152.8,132.5,153.2,132.5z"/>
	<path d="M166.7,134h-2.1v-8.3c0-1,0-1.8,0.1-2.4c-0.1,0.1-0.3,0.3-0.5,0.5s-0.9,0.7-2,1.6l-1-1.3l3.8-3h1.7V134z"/>
</g>
<path class="st1" d="M332.7,153h-65.3c-6.1,0-11-4.9-11-11v-28c0-6.1,4.9-11,11-11h65.3c6.1,0,11,4.9,11,11v28
	C343.7,148.1,338.7,153,332.7,153z"/>
<g>
	<path d="M284.3,125c0,1.3-0.4,2.4-1.3,3.1s-2.1,1.1-3.8,1.1h-1.3v4.8h-2.1v-12.8h3.7c1.6,0,2.8,0.3,3.6,1S284.3,123.8,284.3,125z
		 M277.9,127.4h1.1c1.1,0,1.9-0.2,2.4-0.6s0.8-1,0.8-1.8c0-0.7-0.2-1.3-0.7-1.7s-1.2-0.5-2.1-0.5h-1.5V127.4z"/>
	<path d="M295.2,129.1c0,1.6-0.4,2.8-1.2,3.7s-1.9,1.3-3.4,1.3c-0.9,0-1.7-0.2-2.4-0.6s-1.2-1-1.6-1.8s-0.6-1.7-0.6-2.7
		c0-1.6,0.4-2.8,1.2-3.7s1.9-1.3,3.4-1.3c1.4,0,2.5,0.5,3.3,1.4S295.2,127.6,295.2,129.1z M288.2,129.1c0,2.2,0.8,3.4,2.5,3.4
		c1.6,0,2.5-1.1,2.5-3.4c0-2.2-0.8-3.3-2.5-3.3c-0.9,0-1.5,0.3-1.9,0.9S288.2,128.1,288.2,129.1z"/>
	<path d="M302.5,124.1c0.4,0,0.8,0,1,0.1l-0.2,1.9c-0.3-0.1-0.6-0.1-0.9-0.1c-0.8,0-1.5,0.3-2,0.8s-0.8,1.2-0.8,2.1v5.1h-2.1v-9.7
		h1.6l0.3,1.7h0.1c0.3-0.6,0.7-1,1.3-1.4C301.4,124.3,302,124.1,302.5,124.1z"/>
	<path d="M309,132.5c0.5,0,1-0.1,1.5-0.2v1.6c-0.2,0.1-0.5,0.2-0.9,0.3s-0.7,0.1-1.1,0.1c-2,0-2.9-1-2.9-3.1v-5.2h-1.3v-0.9l1.4-0.8
		l0.7-2.1h1.3v2.2h2.8v1.6h-2.8v5.2c0,0.5,0.1,0.9,0.4,1.1S308.6,132.5,309,132.5z"/>
	<path d="M325.2,134h-8.7v-1.6l3.3-3.3c1-1,1.6-1.7,1.9-2.1s0.6-0.8,0.7-1.2s0.2-0.8,0.2-1.2c0-0.6-0.2-1-0.5-1.4s-0.8-0.5-1.4-0.5
		c-0.5,0-1,0.1-1.4,0.3s-1,0.5-1.6,1l-1.1-1.4c0.7-0.6,1.4-1,2.1-1.3s1.4-0.4,2.2-0.4c1.2,0,2.2,0.3,2.9,0.9s1.1,1.5,1.1,2.5
		c0,0.6-0.1,1.1-0.3,1.7s-0.5,1.1-1,1.6s-1.1,1.3-2.1,2.2l-2.2,2.2v0.1h6.1V134z"/>
</g>
<path class="st1" d="M488.5,153h-65.3c-6.1,0-11-4.9-11-11v-28c0-6.1,4.9-11,11-11h65.3c6.1,0,11,4.9,11,11v28
	C499.5,148.1,494.6,153,488.5,153z"/>
<g>
	<path d="M440.1,125c0,1.3-0.4,2.4-1.3,3.1s-2.1,1.1-3.8,1.1h-1.3v4.8h-2.1v-12.8h3.7c1.6,0,2.8,0.3,3.6,1S440.1,123.8,440.1,125z
		 M433.7,127.4h1.1c1.1,0,1.9-0.2,2.4-0.6s0.8-1,0.8-1.8c0-0.7-0.2-1.3-0.7-1.7s-1.2-0.5-2.1-0.5h-1.5V127.4z"/>
	<path d="M451.1,129.1c0,1.6-0.4,2.8-1.2,3.7s-1.9,1.3-3.4,1.3c-0.9,0-1.7-0.2-2.4-0.6s-1.2-1-1.6-1.8s-0.6-1.7-0.6-2.7
		c0-1.6,0.4-2.8,1.2-3.7s1.9-1.3,3.4-1.3c1.4,0,2.5,0.5,3.3,1.4S451.1,127.6,451.1,129.1z M444,129.1c0,2.2,0.8,3.4,2.5,3.4
		c1.6,0,2.5-1.1,2.5-3.4c0-2.2-0.8-3.3-2.5-3.3c-0.9,0-1.5,0.3-1.9,0.9S444,128.1,444,129.1z"/>
	<path d="M458.4,124.1c0.4,0,0.8,0,1,0.1l-0.2,1.9c-0.3-0.1-0.6-0.1-0.9-0.1c-0.8,0-1.5,0.3-2,0.8s-0.8,1.2-0.8,2.1v5.1h-2.1v-9.7
		h1.6l0.3,1.7h0.1c0.3-0.6,0.7-1,1.3-1.4S457.8,124.1,458.4,124.1z"/>
	<path d="M464.8,132.5c0.5,0,1-0.1,1.5-0.2v1.6c-0.2,0.1-0.5,0.2-0.9,0.3s-0.7,0.1-1.1,0.1c-2,0-2.9-1-2.9-3.1v-5.2h-1.3v-0.9
		l1.4-0.8l0.7-2.1h1.3v2.2h2.8v1.6h-2.8v5.2c0,0.5,0.1,0.9,0.4,1.1S464.4,132.5,464.8,132.5z"/>
	<path d="M480.5,124.1c0,0.8-0.2,1.5-0.7,2s-1.1,0.9-2,1.1v0.1c1,0.1,1.8,0.4,2.3,1s0.8,1.2,0.8,2c0,1.2-0.4,2.2-1.3,2.9
		s-2.1,1-3.7,1c-1.4,0-2.6-0.2-3.6-0.7v-1.8c0.5,0.3,1.1,0.5,1.7,0.6s1.2,0.2,1.8,0.2c1,0,1.7-0.2,2.2-0.6s0.7-0.9,0.7-1.7
		c0-0.7-0.3-1.2-0.8-1.5s-1.4-0.5-2.6-0.5h-1.1v-1.7h1.1c2.1,0,3.1-0.7,3.1-2.1c0-0.6-0.2-1-0.5-1.3s-0.9-0.4-1.6-0.4
		c-0.5,0-1,0.1-1.4,0.2s-1,0.4-1.6,0.8l-1-1.4c1.2-0.9,2.5-1.3,4.1-1.3c1.3,0,2.3,0.3,3,0.8S480.5,123.1,480.5,124.1z"/>
</g>
<g>
	<g>
		
			<rect x="433.8" y="388.3" transform="matrix(1 -4.186438e-003 4.186438e-003 1 -1.6718 1.9112)" class="st2" width="43.8" height="23.9"/>
		<path class="st3" d="M432.2,413.9l-0.1-27.1l47.4-0.1l0.1,27.1L432.2,413.9z M435.6,390.1l0.3,20.4l40.6-0.2l-0.3-20.4
			L435.6,390.1z"/>
	</g>
	<g>
		<polygon class="st3" points="455.7,401.2 433.4,389.4 434.2,387.9 455.6,399.4 477.4,387.5 477.9,389.1 		"/>
	</g>
</g>
<line class="st4" x1="456.5" y1="384" x2="456.5" y2="219"/>
<g>
	<path class="st4" d="M456.5,219.5c0-24.5-6-32-29-32s-240,0-261.5,0c-15.3,0-19.9-8.1-21.2-16"/>
	<g>
		<path class="st3" d="M144.2,162.5c1.9,4.1,5,9.2,8.1,12.2l-7.3-2l-6.9,3.1C140.6,172.3,142.9,166.9,144.2,162.5z"/>
	</g>
</g>
<path class="st1" d="M488.5,345h-65.3c-6.1,0-11-4.9-11-11v-28c0-6.1,4.9-11,11-11h65.3c6.1,0,11,4.9,11,11v28
	C499.5,340.1,494.6,345,488.5,345z"/>
<g>
	<path d="M440.1,317.1c0,1.3-0.4,2.4-1.3,3.1s-2.1,1.1-3.8,1.1h-1.3v4.8h-2.1v-12.8h3.7c1.6,0,2.8,0.3,3.6,1
		S440.1,315.8,440.1,317.1z M433.7,319.5h1.1c1.1,0,1.9-0.2,2.4-0.6s0.8-1,0.8-1.8c0-0.7-0.2-1.3-0.7-1.7s-1.2-0.5-2.1-0.5h-1.5
		V319.5z"/>
	<path d="M451.1,321.2c0,1.6-0.4,2.8-1.2,3.7s-1.9,1.3-3.4,1.3c-0.9,0-1.7-0.2-2.4-0.6s-1.2-1-1.6-1.8s-0.6-1.7-0.6-2.7
		c0-1.6,0.4-2.8,1.2-3.7s1.9-1.3,3.4-1.3c1.4,0,2.5,0.5,3.3,1.4S451.1,319.6,451.1,321.2z M444,321.2c0,2.2,0.8,3.4,2.5,3.4
		c1.6,0,2.5-1.1,2.5-3.4c0-2.2-0.8-3.3-2.5-3.3c-0.9,0-1.5,0.3-1.9,0.9S444,320.1,444,321.2z"/>
	<path d="M458.4,316.1c0.4,0,0.8,0,1,0.1l-0.2,1.9c-0.3-0.1-0.6-0.1-0.9-0.1c-0.8,0-1.5,0.3-2,0.8s-0.8,1.2-0.8,2.1v5.1h-2.1v-9.7
		h1.6l0.3,1.7h0.1c0.3-0.6,0.7-1,1.3-1.4S457.8,316.1,458.4,316.1z"/>
	<path d="M464.8,324.5c0.5,0,1-0.1,1.5-0.2v1.6c-0.2,0.1-0.5,0.2-0.9,0.3s-0.7,0.1-1.1,0.1c-2,0-2.9-1-2.9-3.1v-5.2h-1.3V317
		l1.4-0.8l0.7-2.1h1.3v2.2h2.8v1.6h-2.8v5.2c0,0.5,0.1,0.9,0.4,1.1S464.4,324.5,464.8,324.5z"/>
	<path d="M472.3,320.6c0-5,2-7.5,6.1-7.5c0.6,0,1.2,0,1.6,0.1v1.7c-0.4-0.1-1-0.2-1.5-0.2c-1.4,0-2.4,0.4-3.1,1.1s-1.1,1.9-1.1,3.6
		h0.1c0.3-0.5,0.7-0.8,1.2-1.1s1.1-0.4,1.8-0.4c1.2,0,2.1,0.4,2.7,1.1s1,1.7,1,2.9c0,1.3-0.4,2.4-1.1,3.2s-1.8,1.2-3.1,1.2
		c-0.9,0-1.7-0.2-2.4-0.7s-1.2-1.1-1.6-1.9S472.3,321.8,472.3,320.6z M476.8,324.5c0.7,0,1.3-0.2,1.6-0.7s0.6-1.1,0.6-2
		c0-0.7-0.2-1.3-0.5-1.7s-0.9-0.6-1.6-0.6c-0.4,0-0.9,0.1-1.2,0.3s-0.7,0.5-0.9,0.8s-0.3,0.7-0.3,1c0,0.8,0.2,1.5,0.7,2.1
		S476.1,324.5,476.8,324.5z"/>
</g>
<g>
	<path d="M501.9,391.9c0,1.6-0.5,2.9-1.4,3.8c-0.9,0.9-2.3,1.3-4.1,1.3h-2.8v-10h3.1c1.6,0,2.9,0.4,3.8,1.3S501.9,390.4,501.9,391.9
		z M499.7,392c0-2.1-0.9-3.2-2.8-3.2h-1.1v6.5h0.9C498.7,395.3,499.7,394.2,499.7,392z"/>
	<path d="M507.2,397.1c-1.2,0-2.2-0.3-2.9-1s-1-1.6-1-2.9c0-1.3,0.3-2.3,1-3c0.6-0.7,1.5-1,2.7-1c1.1,0,1.9,0.3,2.5,0.9
		s0.9,1.5,0.9,2.5v1h-4.9c0,0.6,0.2,1.1,0.5,1.4s0.8,0.5,1.4,0.5c0.5,0,0.9,0,1.3-0.1s0.8-0.2,1.3-0.5v1.6c-0.4,0.2-0.8,0.3-1.2,0.4
		C508.4,397.1,507.8,397.1,507.2,397.1z M507,390.7c-0.4,0-0.8,0.1-1,0.4c-0.3,0.3-0.4,0.7-0.4,1.2h2.9c0-0.5-0.1-0.9-0.4-1.2
		C507.7,390.8,507.4,390.7,507,390.7z"/>
	<path d="M517.4,394.7c0,0.8-0.3,1.4-0.8,1.8c-0.5,0.4-1.4,0.6-2.4,0.6c-0.6,0-1,0-1.4-0.1c-0.4-0.1-0.8-0.2-1.1-0.3V395
		c0.4,0.2,0.8,0.3,1.3,0.5c0.5,0.1,0.9,0.2,1.3,0.2c0.8,0,1.1-0.2,1.1-0.7c0-0.2,0-0.3-0.2-0.4c-0.1-0.1-0.3-0.2-0.5-0.3
		c-0.2-0.1-0.6-0.3-1-0.5c-0.6-0.2-1-0.5-1.3-0.7c-0.3-0.2-0.5-0.5-0.6-0.7c-0.1-0.3-0.2-0.6-0.2-1c0-0.7,0.3-1.2,0.8-1.6
		c0.5-0.4,1.3-0.6,2.2-0.6c0.9,0,1.8,0.2,2.7,0.6l-0.6,1.5c-0.4-0.2-0.7-0.3-1.1-0.4s-0.7-0.2-1-0.2c-0.6,0-0.9,0.2-0.9,0.5
		c0,0.2,0.1,0.3,0.3,0.5c0.2,0.1,0.6,0.3,1.3,0.6c0.6,0.2,1,0.5,1.3,0.7s0.5,0.5,0.6,0.7S517.4,394.4,517.4,394.7z"/>
	<path d="M522.2,395.5c0.4,0,0.8-0.1,1.3-0.2v1.6c-0.5,0.2-1.2,0.3-1.9,0.3c-0.8,0-1.4-0.2-1.8-0.6c-0.4-0.4-0.6-1.1-0.6-1.9v-3.7
		h-1V390l1.1-0.7l0.6-1.6h1.3v1.6h2.1v1.6h-2.1v3.7c0,0.3,0.1,0.5,0.3,0.7C521.7,395.4,522,395.5,522.2,395.5z"/>
	<path d="M533.1,397l-2.4-7.8h-0.1c0.1,1.6,0.1,2.7,0.1,3.2v4.6h-1.9v-10h2.9l2.4,7.6h0l2.5-7.6h2.9v10h-2v-4.7c0-0.2,0-0.5,0-0.8
		c0-0.3,0-1.1,0.1-2.3h-0.1l-2.6,7.8H533.1z"/>
	<path d="M548.2,397l-0.7-2.4h-3.6l-0.7,2.4h-2.3l3.5-10h2.6l3.5,10H548.2z M547,392.8c-0.7-2.2-1-3.4-1.1-3.7
		c-0.1-0.3-0.1-0.5-0.2-0.7c-0.2,0.6-0.6,2-1.3,4.3H547z"/>
	<path d="M556,388.6c-0.8,0-1.4,0.3-1.9,0.9c-0.4,0.6-0.7,1.4-0.7,2.5c0,2.2,0.8,3.3,2.5,3.3c0.7,0,1.6-0.2,2.5-0.5v1.8
		c-0.8,0.3-1.7,0.5-2.7,0.5c-1.5,0-2.6-0.4-3.3-1.3c-0.8-0.9-1.2-2.1-1.2-3.8c0-1,0.2-1.9,0.6-2.7c0.4-0.8,0.9-1.4,1.6-1.8
		c0.7-0.4,1.5-0.6,2.5-0.6c1,0,1.9,0.2,2.9,0.7l-0.7,1.7c-0.4-0.2-0.8-0.3-1.1-0.5S556.4,388.6,556,388.6z"/>
	<path d="M560.2,390.4c0-0.4,0.1-0.7,0.3-0.9s0.5-0.3,0.9-0.3c0.4,0,0.7,0.1,0.9,0.3c0.2,0.2,0.3,0.5,0.3,0.9c0,0.4-0.1,0.7-0.3,0.9
		c-0.2,0.2-0.5,0.3-0.9,0.3c-0.4,0-0.7-0.1-0.9-0.3S560.2,390.8,560.2,390.4z M560.2,396c0-0.4,0.1-0.7,0.3-0.9s0.5-0.3,0.9-0.3
		c0.4,0,0.7,0.1,0.9,0.3c0.2,0.2,0.3,0.5,0.3,0.9c0,0.4-0.1,0.6-0.3,0.9c-0.2,0.2-0.5,0.3-0.9,0.3c-0.4,0-0.7-0.1-0.9-0.3
		C560.3,396.7,560.2,396.4,560.2,396z"/>
	<path d="M496.3,407.6c1,0,1.8,0.3,2.4,0.8s0.9,1.3,0.9,2.2c0,1.1-0.3,1.9-1,2.5c-0.7,0.6-1.6,0.9-2.8,0.9c-1.1,0-2-0.2-2.6-0.5
		v-1.5c0.4,0.2,0.8,0.4,1.3,0.5s0.9,0.2,1.3,0.2c0.7,0,1.3-0.2,1.7-0.5s0.6-0.8,0.6-1.4c0-1.2-0.8-1.8-2.3-1.8c-0.2,0-0.5,0-0.8,0.1
		c-0.3,0-0.6,0.1-0.8,0.1l-0.7-0.4l0.4-4.9h5.2v1.4h-3.8l-0.2,2.5c0.2,0,0.4-0.1,0.6-0.1C495.7,407.6,496,407.6,496.3,407.6z"/>
	<path d="M505.3,406.1c0.9,0,1.7,0.3,2.2,1c0.5,0.7,0.8,1.6,0.8,2.9c0,1.2-0.3,2.2-0.8,2.9c-0.5,0.7-1.3,1-2.2,1c-1,0-1.7-0.3-2.2-1
		H503l-0.3,0.9h-1.2v-10.6h1.6v2.5c0,0.2,0,0.5,0,0.8s0,0.6,0,0.7h0.1C503.6,406.5,504.3,406.1,505.3,406.1z M504.9,407.4
		c-0.6,0-1.1,0.2-1.4,0.6c-0.3,0.4-0.4,1-0.4,1.9v0.1c0,0.9,0.1,1.6,0.4,2c0.3,0.4,0.8,0.6,1.4,0.6c0.6,0,1-0.2,1.3-0.7
		c0.3-0.5,0.4-1.1,0.4-2C506.7,408.3,506.1,407.4,504.9,407.4z"/>
	<path d="M510,407.1c0-0.7,0.3-1,1-1c0.3,0,0.6,0.1,0.8,0.3s0.3,0.4,0.3,0.8s-0.1,0.6-0.3,0.8c-0.2,0.2-0.4,0.3-0.8,0.3
		s-0.6-0.1-0.8-0.3S510,407.4,510,407.1z M510,412.9c0-0.3,0.1-0.6,0.3-0.8s0.4-0.3,0.8-0.3c0.3,0,0.6,0.1,0.8,0.3
		c0.2,0.2,0.3,0.4,0.3,0.8c0,0.3-0.1,0.6-0.3,0.8c-0.2,0.2-0.4,0.3-0.8,0.3s-0.6-0.1-0.8-0.3S510,413.3,510,412.9z"/>
	<path d="M519.9,406.1c0,0.6-0.2,1.2-0.6,1.6c-0.4,0.4-0.9,0.7-1.6,0.9v0.1c0.8,0.1,1.4,0.3,1.8,0.7c0.4,0.4,0.6,0.9,0.6,1.6
		c0,1-0.3,1.7-1,2.2c-0.7,0.5-1.6,0.8-2.9,0.8c-1.1,0-2-0.2-2.8-0.5V412c0.4,0.2,0.9,0.4,1.3,0.5s0.9,0.2,1.4,0.2
		c0.8,0,1.4-0.1,1.7-0.4s0.6-0.7,0.6-1.3c0-0.5-0.2-0.9-0.6-1.2s-1.1-0.4-2-0.4H515V408h0.9c1.6,0,2.4-0.6,2.4-1.7
		c0-0.4-0.1-0.8-0.4-1s-0.7-0.3-1.2-0.3c-0.4,0-0.7,0.1-1.1,0.2c-0.4,0.1-0.8,0.3-1.2,0.6l-0.8-1.1c0.9-0.7,2-1,3.2-1
		c1,0,1.8,0.2,2.4,0.6S519.9,405.3,519.9,406.1z"/>
	<path d="M526.8,413.8l-0.3-1.1h-0.1c-0.4,0.5-0.7,0.8-1.1,0.9c-0.4,0.2-0.8,0.3-1.4,0.3c-0.7,0-1.3-0.2-1.7-0.6
		c-0.4-0.4-0.6-1-0.6-1.7c0-0.8,0.3-1.4,0.9-1.8s1.5-0.6,2.6-0.6l1.3,0v-0.4c0-0.5-0.1-0.8-0.3-1.1c-0.2-0.2-0.6-0.4-1-0.4
		c-0.4,0-0.8,0.1-1.1,0.2s-0.7,0.2-1,0.4l-0.5-1.1c0.4-0.2,0.9-0.4,1.3-0.5c0.5-0.1,0.9-0.2,1.4-0.2c1,0,1.7,0.2,2.2,0.6
		c0.5,0.4,0.7,1.1,0.7,2v5.1H526.8z M524.4,412.7c0.6,0,1.1-0.2,1.4-0.5c0.4-0.3,0.5-0.8,0.5-1.4v-0.7l-1,0c-0.8,0-1.3,0.2-1.7,0.4
		c-0.3,0.2-0.5,0.6-0.5,1c0,0.3,0.1,0.6,0.3,0.8C523.7,412.6,524,412.7,524.4,412.7z"/>
</g>
<g>
	<path d="M419.8,26.3h-2.4l-2.6-4.2l-0.9,0.6v3.6h-2.1v-10h2.1v4.6l0.8-1.2l2.7-3.4h2.4l-3.5,4.4L419.8,26.3z"/>
	<path d="M427.9,26.3h-2.1v-4.5c0-0.6-0.1-1-0.3-1.2s-0.5-0.4-0.9-0.4c-0.6,0-1,0.2-1.3,0.6s-0.4,1-0.4,1.9v3.6h-2.1v-7.6h1.6l0.3,1
		h0.1c0.2-0.4,0.6-0.6,1-0.8c0.4-0.2,0.9-0.3,1.4-0.3c0.9,0,1.6,0.2,2,0.7s0.7,1.2,0.7,2.1V26.3z"/>
	<path d="M437,22.5c0,1.2-0.3,2.2-1,2.9s-1.6,1.1-2.7,1.1c-0.7,0-1.4-0.2-1.9-0.5s-1-0.8-1.3-1.4s-0.5-1.3-0.5-2.1
		c0-1.2,0.3-2.2,1-2.9s1.6-1,2.7-1c0.7,0,1.4,0.2,1.9,0.5s1,0.8,1.3,1.4S437,21.7,437,22.5z M431.7,22.5c0,0.8,0.1,1.3,0.4,1.7
		c0.2,0.4,0.7,0.6,1.2,0.6c0.6,0,1-0.2,1.2-0.6c0.2-0.4,0.4-1,0.4-1.7c0-0.8-0.1-1.3-0.4-1.7s-0.6-0.6-1.2-0.6c-0.6,0-1,0.2-1.2,0.6
		S431.7,21.7,431.7,22.5z"/>
	<path d="M445,26.3l-0.6-2.7l-0.8-3.4h0l-1.4,6h-2.2l-2.2-7.6h2.1l0.9,3.4c0.1,0.6,0.3,1.4,0.4,2.5h0c0-0.3,0.1-0.9,0.2-1.6l0.1-0.6
		l0.9-3.7h2.3l0.9,3.7c0,0.1,0,0.2,0.1,0.4c0,0.2,0.1,0.4,0.1,0.6s0.1,0.4,0.1,0.6c0,0.2,0,0.4,0.1,0.5h0c0-0.3,0.1-0.8,0.2-1.4
		s0.2-1,0.2-1.2l0.9-3.4h2l-2.2,7.6H445z"/>
	<path d="M457.8,26.3h-2.1v-4.5c0-0.6-0.1-1-0.3-1.2s-0.5-0.4-0.9-0.4c-0.6,0-1,0.2-1.3,0.6s-0.4,1-0.4,1.9v3.6h-2.1v-7.6h1.6l0.3,1
		h0.1c0.2-0.4,0.6-0.6,1-0.8c0.4-0.2,0.9-0.3,1.4-0.3c0.9,0,1.6,0.2,2,0.7s0.7,1.2,0.7,2.1V26.3z"/>
	<path d="M467.9,26.3l-2.4-7.8h-0.1c0.1,1.6,0.1,2.7,0.1,3.2v4.6h-1.9v-10h2.9L469,24h0l2.5-7.6h2.9v10h-2v-4.7c0-0.2,0-0.5,0-0.8
		c0-0.3,0-1.1,0.1-2.3h-0.1l-2.6,7.8H467.9z"/>
	<path d="M483,26.3l-0.7-2.4h-3.6l-0.7,2.4h-2.3l3.5-10h2.6l3.5,10H483z M481.8,22.2c-0.7-2.2-1-3.4-1.1-3.7
		c-0.1-0.3-0.1-0.5-0.2-0.7c-0.2,0.6-0.6,2-1.3,4.3H481.8z"/>
	<path d="M490.8,18c-0.8,0-1.4,0.3-1.9,0.9s-0.7,1.4-0.7,2.5c0,2.2,0.8,3.3,2.5,3.3c0.7,0,1.6-0.2,2.5-0.5V26
		c-0.8,0.3-1.7,0.5-2.7,0.5c-1.5,0-2.6-0.4-3.3-1.3s-1.2-2.1-1.2-3.8c0-1,0.2-1.9,0.6-2.7s0.9-1.4,1.6-1.8c0.7-0.4,1.5-0.6,2.5-0.6
		c1,0,1.9,0.2,2.9,0.7l-0.7,1.7c-0.4-0.2-0.8-0.3-1.1-0.5S491.2,18,490.8,18z"/>
	<path d="M500.7,24.1c0,0.8-0.3,1.4-0.8,1.8c-0.5,0.4-1.4,0.6-2.4,0.6c-0.6,0-1,0-1.4-0.1s-0.8-0.2-1.1-0.3v-1.7
		c0.4,0.2,0.8,0.3,1.3,0.5c0.5,0.1,0.9,0.2,1.3,0.2c0.8,0,1.1-0.2,1.1-0.7c0-0.2,0-0.3-0.2-0.4s-0.3-0.2-0.5-0.3s-0.6-0.3-1-0.5
		c-0.6-0.2-1-0.5-1.3-0.7c-0.3-0.2-0.5-0.5-0.6-0.7c-0.1-0.3-0.2-0.6-0.2-1c0-0.7,0.3-1.2,0.8-1.6c0.5-0.4,1.3-0.6,2.2-0.6
		c0.9,0,1.8,0.2,2.7,0.6l-0.6,1.5c-0.4-0.2-0.7-0.3-1.1-0.4s-0.7-0.2-1-0.2c-0.6,0-0.9,0.2-0.9,0.5c0,0.2,0.1,0.3,0.3,0.5
		c0.2,0.1,0.6,0.3,1.3,0.6c0.6,0.2,1,0.5,1.3,0.7s0.5,0.5,0.6,0.7S500.7,23.7,500.7,24.1z"/>
	<path d="M417.8,37.4c0,2-0.4,3.4-1.2,4.4s-2,1.5-3.6,1.5c-0.6,0-1,0-1.3-0.1v-1.3c0.4,0.1,0.8,0.2,1.2,0.2c1.1,0,1.9-0.3,2.4-0.9
		s0.8-1.5,0.9-2.7h-0.1c-0.3,0.4-0.6,0.7-1,0.9c-0.4,0.2-0.8,0.3-1.3,0.3c-0.9,0-1.6-0.3-2.1-0.8s-0.8-1.3-0.8-2.3
		c0-1,0.3-1.9,0.9-2.5c0.6-0.6,1.4-0.9,2.4-0.9c0.7,0,1.3,0.2,1.9,0.5s0.9,0.8,1.2,1.5S417.8,36.5,417.8,37.4z M414.4,34.3
		c-0.6,0-1,0.2-1.3,0.5s-0.4,0.9-0.4,1.5c0,0.6,0.1,1,0.4,1.3c0.3,0.3,0.7,0.5,1.3,0.5c0.5,0,1-0.2,1.4-0.5s0.6-0.7,0.6-1.1
		c0-0.4-0.1-0.8-0.2-1.1c-0.2-0.4-0.4-0.6-0.7-0.8S414.7,34.3,414.4,34.3z"/>
	<path d="M420.2,43.1l4-8.6H419v-1.4h6.9v1.1l-3.9,8.9H420.2z"/>
	<path d="M427.4,36.4c0-0.7,0.3-1,1-1c0.3,0,0.6,0.1,0.8,0.3s0.3,0.4,0.3,0.8s-0.1,0.6-0.3,0.8c-0.2,0.2-0.4,0.3-0.8,0.3
		s-0.6-0.1-0.8-0.3S427.4,36.8,427.4,36.4z M427.4,42.3c0-0.3,0.1-0.6,0.3-0.8s0.4-0.3,0.8-0.3c0.3,0,0.6,0.1,0.8,0.3
		s0.3,0.4,0.3,0.8c0,0.3-0.1,0.6-0.3,0.8c-0.2,0.2-0.4,0.3-0.8,0.3s-0.6-0.1-0.8-0.3S427.4,42.6,427.4,42.3z"/>
	<path d="M434.3,33c0.9,0,1.7,0.2,2.2,0.7s0.8,1,0.8,1.7c0,1-0.6,1.8-1.8,2.4c0.8,0.4,1.3,0.8,1.7,1.2c0.3,0.4,0.5,0.9,0.5,1.4
		c0,0.8-0.3,1.5-0.9,2s-1.4,0.7-2.5,0.7c-1.1,0-1.9-0.2-2.5-0.7s-0.9-1.1-0.9-2c0-0.6,0.2-1.1,0.5-1.5c0.3-0.4,0.8-0.8,1.5-1.2
		c-0.6-0.4-1-0.7-1.3-1.2s-0.4-0.9-0.4-1.4c0-0.7,0.3-1.3,0.9-1.7S433.4,33,434.3,33z M432.4,40.5c0,0.5,0.2,0.8,0.5,1.1
		s0.8,0.4,1.4,0.4c0.6,0,1-0.1,1.4-0.4c0.3-0.3,0.5-0.6,0.5-1.1c0-0.4-0.2-0.7-0.5-1s-0.8-0.6-1.4-0.8l-0.2-0.1
		c-0.6,0.3-1,0.6-1.3,0.9S432.4,40.1,432.4,40.5z M434.3,34.2c-0.5,0-0.8,0.1-1.1,0.3s-0.4,0.5-0.4,0.9c0,0.2,0,0.4,0.2,0.6
		s0.2,0.4,0.4,0.5s0.5,0.3,1,0.6c0.5-0.2,0.9-0.5,1.2-0.8c0.2-0.3,0.3-0.6,0.3-0.9c0-0.4-0.1-0.7-0.4-0.9
		C435.1,34.4,434.7,34.2,434.3,34.2z"/>
	<path d="M442.5,43.3c-1.1,0-2-0.3-2.6-1c-0.6-0.7-0.9-1.6-0.9-2.9c0-1.3,0.3-2.2,0.9-2.9c0.6-0.7,1.5-1,2.7-1
		c0.8,0,1.5,0.1,2.2,0.4l-0.5,1.3c-0.7-0.3-1.2-0.4-1.7-0.4c-1.3,0-2,0.9-2,2.6c0,0.8,0.2,1.5,0.5,1.9c0.3,0.4,0.8,0.6,1.4,0.6
		c0.7,0,1.4-0.2,2-0.5v1.4c-0.3,0.2-0.6,0.3-0.9,0.4C443.3,43.2,443,43.3,442.5,43.3z"/>
	<path d="M416.3,59.9l-0.3-1.1H416c-0.4,0.5-0.7,0.8-1.1,0.9s-0.8,0.2-1.4,0.2c-0.7,0-1.3-0.2-1.7-0.6c-0.4-0.4-0.6-1-0.6-1.7
		c0-0.8,0.3-1.4,0.9-1.8s1.5-0.6,2.6-0.6l1.3,0v-0.4c0-0.5-0.1-0.8-0.3-1.1c-0.2-0.2-0.6-0.4-1-0.4c-0.4,0-0.8,0.1-1.1,0.2
		s-0.7,0.2-1,0.4l-0.5-1.1c0.4-0.2,0.9-0.4,1.3-0.5s0.9-0.2,1.4-0.2c1,0,1.7,0.2,2.2,0.6c0.5,0.4,0.7,1.1,0.7,2v5.1H416.3z
		 M414,58.8c0.6,0,1.1-0.2,1.4-0.5c0.4-0.3,0.5-0.8,0.5-1.4v-0.7l-1,0c-0.8,0-1.3,0.2-1.7,0.4c-0.3,0.2-0.5,0.6-0.5,1
		c0,0.3,0.1,0.6,0.3,0.8S413.6,58.8,414,58.8z"/>
	<path d="M423.6,52.2c0.9,0,1.7,0.3,2.2,1c0.5,0.7,0.8,1.6,0.8,2.9c0,1.2-0.3,2.2-0.8,2.9s-1.3,1-2.2,1c-1,0-1.7-0.3-2.2-1h-0.1
		l-0.3,0.9h-1.2V49.3h1.6v2.5c0,0.2,0,0.5,0,0.8s0,0.6,0,0.7h0.1C421.9,52.6,422.6,52.2,423.6,52.2z M423.2,53.5
		c-0.6,0-1.1,0.2-1.4,0.6c-0.3,0.4-0.4,1-0.4,1.9v0.1c0,0.9,0.1,1.6,0.4,2s0.8,0.6,1.4,0.6c0.6,0,1-0.2,1.3-0.7
		c0.3-0.5,0.4-1.1,0.4-2C424.9,54.4,424.4,53.5,423.2,53.5z"/>
	<path d="M428.2,53.2c0-0.7,0.3-1,1-1c0.3,0,0.6,0.1,0.8,0.3s0.3,0.4,0.3,0.8s-0.1,0.6-0.3,0.8c-0.2,0.2-0.4,0.3-0.8,0.3
		s-0.6-0.1-0.8-0.3S428.2,53.6,428.2,53.2z M428.2,59.1c0-0.3,0.1-0.6,0.3-0.8s0.4-0.3,0.8-0.3c0.3,0,0.6,0.1,0.8,0.3
		s0.3,0.4,0.3,0.8c0,0.3-0.1,0.6-0.3,0.8c-0.2,0.2-0.4,0.3-0.8,0.3s-0.6-0.1-0.8-0.3S428.2,59.4,428.2,59.1z"/>
	<path d="M431.8,55.7c0-3.9,1.6-5.9,4.8-5.9c0.5,0,0.9,0,1.3,0.1v1.3c-0.3-0.1-0.7-0.2-1.2-0.2c-1.1,0-1.9,0.3-2.4,0.9
		s-0.8,1.5-0.9,2.8h0.1c0.2-0.4,0.5-0.7,0.9-0.9s0.8-0.3,1.4-0.3c0.9,0,1.6,0.3,2.1,0.8s0.8,1.3,0.8,2.3c0,1-0.3,1.9-0.9,2.5
		c-0.6,0.6-1.4,0.9-2.4,0.9c-0.7,0-1.3-0.2-1.9-0.5s-0.9-0.8-1.2-1.5C431.9,57.4,431.8,56.6,431.8,55.7z M435.3,58.7
		c0.6,0,1-0.2,1.3-0.5c0.3-0.4,0.4-0.9,0.4-1.5c0-0.6-0.1-1-0.4-1.4c-0.3-0.3-0.7-0.5-1.3-0.5c-0.3,0-0.7,0.1-1,0.2
		s-0.5,0.4-0.7,0.6s-0.3,0.5-0.3,0.8c0,0.6,0.2,1.2,0.5,1.6C434.3,58.5,434.7,58.7,435.3,58.7z"/>
	<path d="M446.9,57.8h-1.3v2.2H444v-2.2h-4.6v-1.2l4.6-6.6h1.6v6.5h1.3V57.8z M444,56.4v-2.5c0-0.9,0-1.6,0.1-2.2H444
		c-0.1,0.3-0.3,0.7-0.6,1.1l-2.5,3.6H444z"/>
</g>
<g>
	<path d="M274.4,26.3H272l-2.6-4.2l-0.9,0.6v3.6h-2.1v-10h2.1v4.6l0.8-1.2l2.7-3.4h2.4l-3.5,4.4L274.4,26.3z"/>
	<path d="M282.6,26.3h-2.1v-4.5c0-0.6-0.1-1-0.3-1.2s-0.5-0.4-0.9-0.4c-0.6,0-1,0.2-1.3,0.6s-0.4,1-0.4,1.9v3.6h-2.1v-7.6h1.6l0.3,1
		h0.1c0.2-0.4,0.6-0.6,1-0.8c0.4-0.2,0.9-0.3,1.4-0.3c0.9,0,1.6,0.2,2,0.7s0.7,1.2,0.7,2.1V26.3z"/>
	<path d="M291.7,22.5c0,1.2-0.3,2.2-1,2.9s-1.6,1.1-2.7,1.1c-0.7,0-1.4-0.2-1.9-0.5s-1-0.8-1.3-1.4s-0.5-1.3-0.5-2.1
		c0-1.2,0.3-2.2,1-2.9s1.6-1,2.7-1c0.7,0,1.4,0.2,1.9,0.5s1,0.8,1.3,1.4S291.7,21.7,291.7,22.5z M286.4,22.5c0,0.8,0.1,1.3,0.4,1.7
		c0.2,0.4,0.7,0.6,1.2,0.6c0.6,0,1-0.2,1.2-0.6c0.2-0.4,0.4-1,0.4-1.7c0-0.8-0.1-1.3-0.4-1.7s-0.6-0.6-1.2-0.6c-0.6,0-1,0.2-1.2,0.6
		S286.4,21.7,286.4,22.5z"/>
	<path d="M299.7,26.3l-0.6-2.7l-0.8-3.4h0l-1.4,6h-2.2l-2.2-7.6h2.1l0.9,3.4c0.1,0.6,0.3,1.4,0.4,2.5h0c0-0.3,0.1-0.9,0.2-1.6
		l0.1-0.6l0.9-3.7h2.3l0.9,3.7c0,0.1,0,0.2,0.1,0.4c0,0.2,0.1,0.4,0.1,0.6s0.1,0.4,0.1,0.6c0,0.2,0,0.4,0.1,0.5h0
		c0-0.3,0.1-0.8,0.2-1.4c0.1-0.6,0.2-1,0.2-1.2l0.9-3.4h2l-2.2,7.6H299.7z"/>
	<path d="M312.4,26.3h-2.1v-4.5c0-0.6-0.1-1-0.3-1.2s-0.5-0.4-0.9-0.4c-0.6,0-1,0.2-1.3,0.6s-0.4,1-0.4,1.9v3.6h-2.1v-7.6h1.6l0.3,1
		h0.1c0.2-0.4,0.6-0.6,1-0.8c0.4-0.2,0.9-0.3,1.4-0.3c0.9,0,1.6,0.2,2,0.7s0.7,1.2,0.7,2.1V26.3z"/>
	<path d="M322.6,26.3l-2.4-7.8h-0.1c0.1,1.6,0.1,2.7,0.1,3.2v4.6h-1.9v-10h2.9l2.4,7.6h0l2.5-7.6h2.9v10h-2v-4.7c0-0.2,0-0.5,0-0.8
		c0-0.3,0-1.1,0.1-2.3h-0.1l-2.6,7.8H322.6z"/>
	<path d="M337.7,26.3L337,24h-3.6l-0.7,2.4h-2.3l3.5-10h2.6l3.5,10H337.7z M336.5,22.2c-0.7-2.2-1-3.4-1.1-3.7
		c-0.1-0.3-0.1-0.5-0.2-0.7c-0.2,0.6-0.6,2-1.3,4.3H336.5z"/>
	<path d="M345.5,18c-0.8,0-1.4,0.3-1.9,0.9s-0.7,1.4-0.7,2.5c0,2.2,0.8,3.3,2.5,3.3c0.7,0,1.6-0.2,2.5-0.5V26
		c-0.8,0.3-1.7,0.5-2.7,0.5c-1.5,0-2.6-0.4-3.3-1.3s-1.2-2.1-1.2-3.8c0-1,0.2-1.9,0.6-2.7s0.9-1.4,1.6-1.8c0.7-0.4,1.5-0.6,2.5-0.6
		c1,0,1.9,0.2,2.9,0.7l-0.7,1.7c-0.4-0.2-0.8-0.3-1.1-0.5S345.9,18,345.5,18z"/>
	<path d="M355.3,24.1c0,0.8-0.3,1.4-0.8,1.8c-0.5,0.4-1.4,0.6-2.4,0.6c-0.6,0-1,0-1.4-0.1s-0.8-0.2-1.1-0.3v-1.7
		c0.4,0.2,0.8,0.3,1.3,0.5c0.5,0.1,0.9,0.2,1.3,0.2c0.8,0,1.1-0.2,1.1-0.7c0-0.2,0-0.3-0.2-0.4s-0.3-0.2-0.5-0.3s-0.6-0.3-1-0.5
		c-0.6-0.2-1-0.5-1.3-0.7c-0.3-0.2-0.5-0.5-0.6-0.7c-0.1-0.3-0.2-0.6-0.2-1c0-0.7,0.3-1.2,0.8-1.6c0.5-0.4,1.3-0.6,2.2-0.6
		c0.9,0,1.8,0.2,2.7,0.6l-0.6,1.5c-0.4-0.2-0.7-0.3-1.1-0.4s-0.7-0.2-1-0.2c-0.6,0-0.9,0.2-0.9,0.5c0,0.2,0.1,0.3,0.3,0.5
		c0.2,0.1,0.6,0.3,1.3,0.6c0.6,0.2,1,0.5,1.3,0.7s0.5,0.5,0.6,0.7S355.3,23.7,355.3,24.1z"/>
	<path d="M269.6,43.3c-1.2,0-2.1-0.3-2.8-1c-0.7-0.7-1-1.6-1-2.8c0-1.2,0.3-2.2,0.9-2.9s1.5-1.1,2.5-1.1c1,0,1.8,0.3,2.4,0.9
		s0.9,1.4,0.9,2.5v0.9h-5c0,0.7,0.2,1.3,0.6,1.7s0.9,0.6,1.6,0.6c0.4,0,0.9,0,1.2-0.1c0.4-0.1,0.8-0.2,1.2-0.4v1.3
		c-0.4,0.2-0.8,0.3-1.2,0.4S270.1,43.3,269.6,43.3z M269.3,36.7c-0.5,0-0.9,0.2-1.2,0.5c-0.3,0.3-0.5,0.8-0.6,1.4h3.4
		c0-0.6-0.2-1.1-0.5-1.4S269.8,36.7,269.3,36.7z"/>
	<path d="M278.1,36.8h-1.8v6.3h-1.6v-6.3h-1.2V36l1.2-0.5v-0.5c0-0.9,0.2-1.6,0.6-2s1.1-0.6,1.9-0.6c0.6,0,1.1,0.1,1.7,0.3l-0.4,1.2
		c-0.4-0.1-0.8-0.2-1.1-0.2c-0.4,0-0.6,0.1-0.8,0.3c-0.2,0.2-0.2,0.6-0.2,1v0.5h1.8V36.8z"/>
	<path d="M279.2,36.4c0-0.7,0.3-1,1-1c0.3,0,0.6,0.1,0.8,0.3s0.3,0.4,0.3,0.8s-0.1,0.6-0.3,0.8c-0.2,0.2-0.4,0.3-0.8,0.3
		s-0.6-0.1-0.8-0.3S279.2,36.8,279.2,36.4z M279.2,42.3c0-0.3,0.1-0.6,0.3-0.8s0.4-0.3,0.8-0.3c0.3,0,0.6,0.1,0.8,0.3
		s0.3,0.4,0.3,0.8c0,0.3-0.1,0.6-0.3,0.8c-0.2,0.2-0.4,0.3-0.8,0.3s-0.6-0.1-0.8-0.3S279.2,42.6,279.2,42.3z"/>
	<path d="M282.8,38.9c0-3.9,1.6-5.9,4.8-5.9c0.5,0,0.9,0,1.3,0.1v1.3c-0.3-0.1-0.7-0.2-1.2-0.2c-1.1,0-1.9,0.3-2.4,0.9
		s-0.8,1.5-0.9,2.8h0.1c0.2-0.4,0.5-0.7,0.9-0.9s0.8-0.3,1.4-0.3c0.9,0,1.6,0.3,2.1,0.8s0.8,1.3,0.8,2.3c0,1-0.3,1.9-0.9,2.5
		c-0.6,0.6-1.4,0.9-2.4,0.9c-0.7,0-1.3-0.2-1.9-0.5s-0.9-0.8-1.2-1.5C282.9,40.6,282.8,39.8,282.8,38.9z M286.3,41.9
		c0.6,0,1-0.2,1.3-0.5c0.3-0.4,0.4-0.9,0.4-1.5c0-0.6-0.1-1-0.4-1.4c-0.3-0.3-0.7-0.5-1.3-0.5c-0.3,0-0.7,0.1-1,0.2
		s-0.5,0.4-0.7,0.6s-0.3,0.5-0.3,0.8c0,0.6,0.2,1.2,0.5,1.6C285.3,41.7,285.7,41.9,286.3,41.9z"/>
	<path d="M294.3,43.3c-1.1,0-2-0.3-2.6-1c-0.6-0.7-0.9-1.6-0.9-2.9c0-1.3,0.3-2.2,0.9-2.9c0.6-0.7,1.5-1,2.7-1
		c0.8,0,1.5,0.1,2.2,0.4l-0.5,1.3c-0.7-0.3-1.2-0.4-1.7-0.4c-1.3,0-2,0.9-2,2.6c0,0.8,0.2,1.5,0.5,1.9c0.3,0.4,0.8,0.6,1.4,0.6
		c0.7,0,1.4-0.2,2-0.5v1.4c-0.3,0.2-0.6,0.3-0.9,0.4C295.2,43.2,294.8,43.3,294.3,43.3z"/>
</g>
<g>
	<path d="M108.1,26.3h-2.4l-2.6-4.2l-0.9,0.6v3.6h-2.1v-10h2.1v4.6l0.8-1.2l2.7-3.4h2.4l-3.5,4.4L108.1,26.3z"/>
	<path d="M116.2,26.3h-2.1v-4.5c0-0.6-0.1-1-0.3-1.2s-0.5-0.4-0.9-0.4c-0.6,0-1,0.2-1.3,0.6s-0.4,1-0.4,1.9v3.6h-2.1v-7.6h1.6l0.3,1
		h0.1c0.2-0.4,0.6-0.6,1-0.8c0.4-0.2,0.9-0.3,1.4-0.3c0.9,0,1.6,0.2,2,0.7s0.7,1.2,0.7,2.1V26.3z"/>
	<path d="M125.3,22.5c0,1.2-0.3,2.2-1,2.9s-1.6,1.1-2.7,1.1c-0.7,0-1.4-0.2-1.9-0.5s-1-0.8-1.3-1.4s-0.5-1.3-0.5-2.1
		c0-1.2,0.3-2.2,1-2.9s1.6-1,2.7-1c0.7,0,1.4,0.2,1.9,0.5s1,0.8,1.3,1.4S125.3,21.7,125.3,22.5z M120.1,22.5c0,0.8,0.1,1.3,0.4,1.7
		c0.2,0.4,0.7,0.6,1.2,0.6c0.6,0,1-0.2,1.2-0.6c0.2-0.4,0.4-1,0.4-1.7c0-0.8-0.1-1.3-0.4-1.7s-0.6-0.6-1.2-0.6c-0.6,0-1,0.2-1.2,0.6
		S120.1,21.7,120.1,22.5z"/>
	<path d="M133.3,26.3l-0.6-2.7l-0.8-3.4h0l-1.4,6h-2.2l-2.2-7.6h2.1l0.9,3.4c0.1,0.6,0.3,1.4,0.4,2.5h0c0-0.3,0.1-0.9,0.2-1.6
		l0.1-0.6l0.9-3.7h2.3l0.9,3.7c0,0.1,0,0.2,0.1,0.4c0,0.2,0.1,0.4,0.1,0.6s0.1,0.4,0.1,0.6c0,0.2,0,0.4,0.1,0.5h0
		c0-0.3,0.1-0.8,0.2-1.4s0.2-1,0.2-1.2l0.9-3.4h2l-2.2,7.6H133.3z"/>
	<path d="M146.1,26.3H144v-4.5c0-0.6-0.1-1-0.3-1.2s-0.5-0.4-0.9-0.4c-0.6,0-1,0.2-1.3,0.6s-0.4,1-0.4,1.9v3.6H139v-7.6h1.6l0.3,1
		h0.1c0.2-0.4,0.6-0.6,1-0.8c0.4-0.2,0.9-0.3,1.4-0.3c0.9,0,1.6,0.2,2,0.7s0.7,1.2,0.7,2.1V26.3z"/>
	<path d="M156.3,26.3l-2.4-7.8h-0.1c0.1,1.6,0.1,2.7,0.1,3.2v4.6H152v-10h2.9l2.4,7.6h0l2.5-7.6h2.9v10h-2v-4.7c0-0.2,0-0.5,0-0.8
		c0-0.3,0-1.1,0.1-2.3h-0.1l-2.6,7.8H156.3z"/>
	<path d="M171.4,26.3l-0.7-2.4H167l-0.7,2.4H164l3.5-10h2.6l3.5,10H171.4z M170.1,22.2c-0.7-2.2-1-3.4-1.1-3.7
		c-0.1-0.3-0.1-0.5-0.2-0.7c-0.2,0.6-0.6,2-1.3,4.3H170.1z"/>
	<path d="M179.2,18c-0.8,0-1.4,0.3-1.9,0.9s-0.7,1.4-0.7,2.5c0,2.2,0.8,3.3,2.5,3.3c0.7,0,1.6-0.2,2.5-0.5V26
		c-0.8,0.3-1.7,0.5-2.7,0.5c-1.5,0-2.6-0.4-3.3-1.3s-1.2-2.1-1.2-3.8c0-1,0.2-1.9,0.6-2.7s0.9-1.4,1.6-1.8c0.7-0.4,1.5-0.6,2.5-0.6
		c1,0,1.9,0.2,2.9,0.7l-0.7,1.7c-0.4-0.2-0.8-0.3-1.1-0.5S179.5,18,179.2,18z"/>
	<path d="M189,24.1c0,0.8-0.3,1.4-0.8,1.8c-0.5,0.4-1.4,0.6-2.4,0.6c-0.6,0-1,0-1.4-0.1s-0.8-0.2-1.1-0.3v-1.7
		c0.4,0.2,0.8,0.3,1.3,0.5c0.5,0.1,0.9,0.2,1.3,0.2c0.8,0,1.1-0.2,1.1-0.7c0-0.2,0-0.3-0.2-0.4s-0.3-0.2-0.5-0.3s-0.6-0.3-1-0.5
		c-0.6-0.2-1-0.5-1.3-0.7c-0.3-0.2-0.5-0.5-0.6-0.7c-0.1-0.3-0.2-0.6-0.2-1c0-0.7,0.3-1.2,0.8-1.6c0.5-0.4,1.3-0.6,2.2-0.6
		c0.9,0,1.8,0.2,2.7,0.6l-0.6,1.5c-0.4-0.2-0.7-0.3-1.1-0.4s-0.7-0.2-1-0.2c-0.6,0-0.9,0.2-0.9,0.5c0,0.2,0.1,0.3,0.3,0.5
		c0.2,0.1,0.6,0.3,1.3,0.6c0.6,0.2,1,0.5,1.3,0.7s0.5,0.5,0.6,0.7S189,23.7,189,24.1z"/>
	<path d="M102.8,36.9c1,0,1.8,0.3,2.4,0.8s0.9,1.3,0.9,2.2c0,1.1-0.3,1.9-1,2.5c-0.7,0.6-1.6,0.9-2.8,0.9c-1.1,0-2-0.2-2.6-0.5v-1.5
		c0.4,0.2,0.8,0.4,1.3,0.5s0.9,0.2,1.3,0.2c0.7,0,1.3-0.2,1.7-0.5s0.6-0.8,0.6-1.4c0-1.2-0.8-1.8-2.3-1.8c-0.2,0-0.5,0-0.8,0.1
		s-0.6,0.1-0.8,0.1L99.8,38l0.4-4.9h5.2v1.4h-3.8l-0.2,2.5c0.2,0,0.4-0.1,0.6-0.1C102.2,36.9,102.5,36.9,102.8,36.9z"/>
	<path d="M111.8,35.4c0.9,0,1.7,0.3,2.2,1c0.5,0.7,0.8,1.6,0.8,2.9c0,1.2-0.3,2.2-0.8,2.9s-1.3,1-2.2,1c-1,0-1.7-0.3-2.2-1h-0.1
		l-0.3,0.9h-1.2V32.5h1.6V35c0,0.2,0,0.5,0,0.8s0,0.6,0,0.7h0.1C110.1,35.8,110.8,35.4,111.8,35.4z M111.4,36.7
		c-0.6,0-1.1,0.2-1.4,0.6c-0.3,0.4-0.4,1-0.4,1.9v0.1c0,0.9,0.1,1.6,0.4,2s0.8,0.6,1.4,0.6c0.6,0,1-0.2,1.3-0.7
		c0.3-0.5,0.4-1.1,0.4-2C113.2,37.6,112.6,36.7,111.4,36.7z"/>
	<path d="M116.4,36.4c0-0.7,0.3-1,1-1c0.3,0,0.6,0.1,0.8,0.3s0.3,0.4,0.3,0.8s-0.1,0.6-0.3,0.8c-0.2,0.2-0.4,0.3-0.8,0.3
		s-0.6-0.1-0.8-0.3S116.4,36.8,116.4,36.4z M116.4,42.3c0-0.3,0.1-0.6,0.3-0.8s0.4-0.3,0.8-0.3c0.3,0,0.6,0.1,0.8,0.3
		s0.3,0.4,0.3,0.8c0,0.3-0.1,0.6-0.3,0.8c-0.2,0.2-0.4,0.3-0.8,0.3s-0.6-0.1-0.8-0.3S116.4,42.6,116.4,42.3z"/>
	<path d="M126.4,35.4c0,0.6-0.2,1.2-0.6,1.6s-0.9,0.7-1.6,0.9v0.1c0.8,0.1,1.4,0.3,1.8,0.7s0.6,0.9,0.6,1.6c0,1-0.3,1.7-1,2.2
		s-1.6,0.8-2.9,0.8c-1.1,0-2-0.2-2.8-0.5v-1.4c0.4,0.2,0.9,0.4,1.3,0.5s0.9,0.2,1.4,0.2c0.8,0,1.4-0.1,1.7-0.4s0.6-0.7,0.6-1.3
		c0-0.5-0.2-0.9-0.6-1.2s-1.1-0.4-2-0.4h-0.9v-1.3h0.9c1.6,0,2.4-0.6,2.4-1.7c0-0.4-0.1-0.8-0.4-1s-0.7-0.3-1.2-0.3
		c-0.4,0-0.7,0.1-1.1,0.2s-0.8,0.3-1.2,0.6L120,34c0.9-0.7,2-1,3.2-1c1,0,1.8,0.2,2.4,0.6S126.4,34.7,126.4,35.4z"/>
	<path d="M133.2,43.1l-0.3-1.1h-0.1c-0.4,0.5-0.7,0.8-1.1,0.9s-0.8,0.2-1.4,0.2c-0.7,0-1.3-0.2-1.7-0.6c-0.4-0.4-0.6-1-0.6-1.7
		c0-0.8,0.3-1.4,0.9-1.8s1.5-0.6,2.6-0.6l1.3,0v-0.4c0-0.5-0.1-0.8-0.3-1.1c-0.2-0.2-0.6-0.4-1-0.4c-0.4,0-0.8,0.1-1.1,0.2
		s-0.7,0.2-1,0.4l-0.5-1.1c0.4-0.2,0.9-0.4,1.3-0.5s0.9-0.2,1.4-0.2c1,0,1.7,0.2,2.2,0.6c0.5,0.4,0.7,1.1,0.7,2v5.1H133.2z
		 M130.8,42c0.6,0,1.1-0.2,1.4-0.5c0.4-0.3,0.5-0.8,0.5-1.4v-0.7l-1,0c-0.8,0-1.3,0.2-1.7,0.4c-0.3,0.2-0.5,0.6-0.5,1
		c0,0.3,0.1,0.6,0.3,0.8S130.4,42,130.8,42z"/>
	<path d="M106.2,54.2c0,2-0.4,3.4-1.2,4.4s-2,1.5-3.6,1.5c-0.6,0-1,0-1.3-0.1v-1.3c0.4,0.1,0.8,0.2,1.2,0.2c1.1,0,1.9-0.3,2.4-0.9
		s0.8-1.5,0.9-2.7h-0.1c-0.3,0.4-0.6,0.7-1,0.9c-0.4,0.2-0.8,0.3-1.3,0.3c-0.9,0-1.6-0.3-2.1-0.8s-0.8-1.3-0.8-2.3
		c0-1,0.3-1.9,0.9-2.5c0.6-0.6,1.4-0.9,2.4-0.9c0.7,0,1.3,0.2,1.9,0.5s0.9,0.8,1.2,1.5S106.2,53.3,106.2,54.2z M102.7,51.1
		c-0.6,0-1,0.2-1.3,0.5s-0.4,0.9-0.4,1.5c0,0.6,0.1,1,0.4,1.3c0.3,0.3,0.7,0.5,1.3,0.5c0.5,0,1-0.2,1.4-0.5s0.6-0.7,0.6-1.1
		c0-0.4-0.1-0.8-0.2-1.1c-0.2-0.4-0.4-0.6-0.7-0.8S103.1,51.1,102.7,51.1z"/>
	<path d="M108.5,59.9l4-8.6h-5.2V50h6.9v1.1l-3.9,8.9H108.5z"/>
	<path d="M115.7,53.2c0-0.7,0.3-1,1-1c0.3,0,0.6,0.1,0.8,0.3s0.3,0.4,0.3,0.8s-0.1,0.6-0.3,0.8c-0.2,0.2-0.4,0.3-0.8,0.3
		s-0.6-0.1-0.8-0.3S115.7,53.6,115.7,53.2z M115.7,59.1c0-0.3,0.1-0.6,0.3-0.8s0.4-0.3,0.8-0.3c0.3,0,0.6,0.1,0.8,0.3
		s0.3,0.4,0.3,0.8c0,0.3-0.1,0.6-0.3,0.8c-0.2,0.2-0.4,0.3-0.8,0.3s-0.6-0.1-0.8-0.3S115.7,59.4,115.7,59.1z"/>
	<path d="M123.1,60.1c-1.2,0-2.1-0.3-2.8-1c-0.7-0.7-1-1.6-1-2.8c0-1.2,0.3-2.2,0.9-2.9s1.5-1.1,2.5-1.1c1,0,1.8,0.3,2.4,0.9
		s0.9,1.4,0.9,2.5v0.9h-5c0,0.7,0.2,1.3,0.6,1.7s0.9,0.6,1.6,0.6c0.4,0,0.9,0,1.2-0.1c0.4-0.1,0.8-0.2,1.2-0.4v1.3
		c-0.4,0.2-0.8,0.3-1.2,0.4S123.6,60.1,123.1,60.1z M122.8,53.5c-0.5,0-0.9,0.2-1.2,0.5c-0.3,0.3-0.5,0.8-0.6,1.4h3.4
		c0-0.6-0.2-1.1-0.5-1.4S123.3,53.5,122.8,53.5z"/>
	<path d="M130.9,60.1c-1.1,0-2-0.3-2.6-1c-0.6-0.7-0.9-1.6-0.9-2.9c0-1.3,0.3-2.2,0.9-2.9c0.6-0.7,1.5-1,2.7-1
		c0.8,0,1.5,0.1,2.2,0.4l-0.5,1.3c-0.7-0.3-1.2-0.4-1.7-0.4c-1.3,0-2,0.9-2,2.6c0,0.8,0.2,1.5,0.5,1.9c0.3,0.4,0.8,0.6,1.4,0.6
		c0.7,0,1.4-0.2,2-0.5v1.4c-0.3,0.2-0.6,0.3-0.9,0.4C131.8,60,131.4,60.1,130.9,60.1z"/>
</g>
<g>
	<path d="M263.9,399.4h-2.4l-2.6-4.2l-0.9,0.6v3.6h-2.1v-10h2.1v4.6l0.8-1.2l2.7-3.4h2.4l-3.5,4.4L263.9,399.4z"/>
	<path d="M272.1,399.4H270v-4.5c0-0.6-0.1-1-0.3-1.2c-0.2-0.3-0.5-0.4-0.9-0.4c-0.6,0-1,0.2-1.3,0.6s-0.4,1-0.4,1.9v3.6H265v-7.6
		h1.6l0.3,1h0.1c0.2-0.4,0.6-0.6,1-0.8c0.4-0.2,0.9-0.3,1.4-0.3c0.9,0,1.6,0.2,2,0.7c0.5,0.5,0.7,1.2,0.7,2.1V399.4z"/>
	<path d="M281.2,395.5c0,1.2-0.3,2.2-1,2.9c-0.7,0.7-1.6,1.1-2.7,1.1c-0.7,0-1.4-0.2-1.9-0.5s-1-0.8-1.3-1.4s-0.5-1.3-0.5-2.1
		c0-1.2,0.3-2.2,1-2.9c0.7-0.7,1.6-1,2.7-1c0.7,0,1.4,0.2,1.9,0.5c0.6,0.3,1,0.8,1.3,1.4C281,394,281.2,394.7,281.2,395.5z
		 M275.9,395.5c0,0.8,0.1,1.3,0.4,1.7c0.2,0.4,0.7,0.6,1.2,0.6c0.6,0,1-0.2,1.2-0.6c0.2-0.4,0.4-1,0.4-1.7c0-0.8-0.1-1.3-0.4-1.7
		c-0.2-0.4-0.6-0.6-1.2-0.6c-0.6,0-1,0.2-1.2,0.6S275.9,394.8,275.9,395.5z"/>
	<path d="M289.2,399.4l-0.6-2.7l-0.8-3.4h0l-1.4,6h-2.2l-2.2-7.6h2.1l0.9,3.4c0.1,0.6,0.3,1.4,0.4,2.5h0c0-0.3,0.1-0.9,0.2-1.6
		l0.1-0.6l0.9-3.7h2.3l0.9,3.7c0,0.1,0,0.2,0.1,0.4c0,0.2,0.1,0.4,0.1,0.6c0,0.2,0.1,0.4,0.1,0.6c0,0.2,0,0.4,0.1,0.5h0
		c0-0.3,0.1-0.8,0.2-1.3c0.1-0.6,0.2-1,0.2-1.2l0.9-3.4h2l-2.2,7.6H289.2z"/>
	<path d="M301.9,399.4h-2.1v-4.5c0-0.6-0.1-1-0.3-1.2c-0.2-0.3-0.5-0.4-0.9-0.4c-0.6,0-1,0.2-1.3,0.6s-0.4,1-0.4,1.9v3.6h-2.1v-7.6
		h1.6l0.3,1h0.1c0.2-0.4,0.6-0.6,1-0.8c0.4-0.2,0.9-0.3,1.4-0.3c0.9,0,1.6,0.2,2,0.7c0.5,0.5,0.7,1.2,0.7,2.1V399.4z"/>
	<path d="M312.1,399.4l-2.4-7.8h-0.1c0.1,1.6,0.1,2.7,0.1,3.2v4.6h-1.9v-10h2.9l2.4,7.6h0l2.5-7.6h2.9v10h-2v-4.7c0-0.2,0-0.5,0-0.8
		c0-0.3,0-1.1,0.1-2.3h-0.1l-2.6,7.8H312.1z"/>
	<path d="M327.2,399.4l-0.7-2.4h-3.6l-0.7,2.4h-2.3l3.5-10h2.6l3.5,10H327.2z M326,395.2c-0.7-2.2-1-3.4-1.1-3.7
		c-0.1-0.3-0.1-0.5-0.2-0.7c-0.2,0.6-0.6,2-1.3,4.3H326z"/>
	<path d="M335,391c-0.8,0-1.4,0.3-1.9,0.9c-0.4,0.6-0.7,1.4-0.7,2.5c0,2.2,0.8,3.3,2.5,3.3c0.7,0,1.6-0.2,2.5-0.5v1.8
		c-0.8,0.3-1.7,0.5-2.7,0.5c-1.5,0-2.6-0.4-3.3-1.3s-1.2-2.1-1.2-3.8c0-1,0.2-1.9,0.6-2.7c0.4-0.8,0.9-1.4,1.6-1.8
		c0.7-0.4,1.5-0.6,2.5-0.6c1,0,1.9,0.2,2.9,0.7l-0.7,1.7c-0.4-0.2-0.8-0.3-1.1-0.5C335.7,391.1,335.4,391,335,391z"/>
	<path d="M344.8,397.1c0,0.8-0.3,1.4-0.8,1.8c-0.5,0.4-1.4,0.6-2.4,0.6c-0.6,0-1,0-1.4-0.1s-0.8-0.2-1.1-0.3v-1.7
		c0.4,0.2,0.8,0.3,1.3,0.5c0.5,0.1,0.9,0.2,1.3,0.2c0.8,0,1.1-0.2,1.1-0.7c0-0.2,0-0.3-0.2-0.4s-0.3-0.2-0.5-0.3s-0.6-0.3-1-0.5
		c-0.6-0.2-1-0.5-1.3-0.7c-0.3-0.2-0.5-0.5-0.6-0.7c-0.1-0.3-0.2-0.6-0.2-1c0-0.7,0.3-1.2,0.8-1.6c0.5-0.4,1.3-0.6,2.2-0.6
		c0.9,0,1.8,0.2,2.7,0.6l-0.6,1.5c-0.4-0.2-0.7-0.3-1.1-0.4c-0.3-0.1-0.7-0.2-1-0.2c-0.6,0-0.9,0.2-0.9,0.5c0,0.2,0.1,0.3,0.3,0.5
		c0.2,0.1,0.6,0.3,1.3,0.6c0.6,0.2,1,0.5,1.3,0.7c0.3,0.2,0.5,0.5,0.6,0.7S344.8,396.7,344.8,397.1z"/>
	<path d="M260.5,416.2l-0.3-1.1h-0.1c-0.4,0.5-0.7,0.8-1.1,0.9c-0.4,0.2-0.8,0.2-1.4,0.2c-0.7,0-1.3-0.2-1.7-0.6
		c-0.4-0.4-0.6-1-0.6-1.7c0-0.8,0.3-1.4,0.9-1.8s1.5-0.6,2.6-0.6l1.3,0v-0.4c0-0.5-0.1-0.8-0.3-1.1c-0.2-0.2-0.6-0.4-1-0.4
		c-0.4,0-0.8,0.1-1.1,0.2c-0.4,0.1-0.7,0.2-1,0.4l-0.5-1.1c0.4-0.2,0.9-0.4,1.3-0.5c0.5-0.1,0.9-0.2,1.4-0.2c1,0,1.7,0.2,2.2,0.6
		c0.5,0.4,0.7,1.1,0.7,2v5.1H260.5z M258.1,415.1c0.6,0,1.1-0.2,1.4-0.5c0.4-0.3,0.5-0.8,0.5-1.4v-0.7l-1,0c-0.8,0-1.3,0.2-1.7,0.4
		c-0.3,0.2-0.5,0.6-0.5,1c0,0.3,0.1,0.6,0.3,0.8S257.7,415.1,258.1,415.1z"/>
	<path d="M267,416.3c-1.1,0-2-0.3-2.6-1c-0.6-0.7-0.9-1.6-0.9-2.9c0-1.3,0.3-2.2,0.9-2.9c0.6-0.7,1.5-1,2.7-1c0.8,0,1.5,0.1,2.2,0.4
		l-0.5,1.3c-0.7-0.3-1.2-0.4-1.7-0.4c-1.3,0-2,0.9-2,2.6c0,0.8,0.2,1.5,0.5,1.9c0.3,0.4,0.8,0.6,1.4,0.6c0.7,0,1.4-0.2,2-0.5v1.4
		c-0.3,0.2-0.6,0.3-0.9,0.4C267.8,416.3,267.4,416.3,267,416.3z"/>
	<path d="M270.6,409.5c0-0.7,0.3-1,1-1c0.3,0,0.6,0.1,0.8,0.3c0.2,0.2,0.3,0.4,0.3,0.8c0,0.3-0.1,0.6-0.3,0.8
		c-0.2,0.2-0.4,0.3-0.8,0.3s-0.6-0.1-0.8-0.3C270.7,410.1,270.6,409.8,270.6,409.5z M270.6,415.3c0-0.3,0.1-0.6,0.3-0.8
		s0.4-0.3,0.8-0.3c0.3,0,0.6,0.1,0.8,0.3s0.3,0.4,0.3,0.8c0,0.3-0.1,0.6-0.3,0.8c-0.2,0.2-0.4,0.3-0.8,0.3s-0.6-0.1-0.8-0.3
		C270.7,415.9,270.6,415.6,270.6,415.3z"/>
	<path d="M280.9,410.4c0,2-0.4,3.4-1.2,4.4s-2,1.5-3.6,1.5c-0.6,0-1,0-1.3-0.1v-1.3c0.4,0.1,0.8,0.2,1.2,0.2c1.1,0,1.9-0.3,2.4-0.9
		c0.5-0.6,0.8-1.5,0.9-2.7h-0.1c-0.3,0.4-0.6,0.7-1,0.9c-0.4,0.2-0.8,0.3-1.3,0.3c-0.9,0-1.6-0.3-2.1-0.8c-0.5-0.6-0.8-1.3-0.8-2.3
		c0-1,0.3-1.9,0.9-2.5c0.6-0.6,1.4-0.9,2.4-0.9c0.7,0,1.3,0.2,1.9,0.5c0.5,0.3,0.9,0.8,1.2,1.5C280.8,408.7,280.9,409.5,280.9,410.4
		z M277.4,407.4c-0.6,0-1,0.2-1.3,0.5s-0.4,0.9-0.4,1.5c0,0.6,0.1,1,0.4,1.3c0.3,0.3,0.7,0.5,1.3,0.5c0.5,0,1-0.2,1.4-0.5
		c0.4-0.3,0.6-0.7,0.6-1.1c0-0.4-0.1-0.8-0.2-1.1c-0.2-0.4-0.4-0.6-0.7-0.8S277.8,407.4,277.4,407.4z"/>
	<path d="M288.9,416.2h-6.8V415l2.6-2.6c0.8-0.8,1.3-1.3,1.5-1.7c0.2-0.3,0.4-0.6,0.5-0.9s0.2-0.6,0.2-0.9c0-0.5-0.1-0.8-0.4-1.1
		c-0.3-0.3-0.6-0.4-1.1-0.4c-0.4,0-0.8,0.1-1.1,0.2c-0.4,0.1-0.8,0.4-1.2,0.8l-0.9-1.1c0.6-0.5,1.1-0.8,1.6-1
		c0.5-0.2,1.1-0.3,1.7-0.3c0.9,0,1.7,0.2,2.2,0.7s0.8,1.1,0.8,2c0,0.5-0.1,0.9-0.2,1.3c-0.2,0.4-0.4,0.8-0.7,1.3
		c-0.3,0.4-0.9,1-1.7,1.7l-1.7,1.7v0.1h4.7V416.2z"/>
</g>
</svg>
